<svg width="21" height="20" viewBox="0 0 21 20" fill="none" xmlns="http://www.w3.org/2000/svg">
<path fill-rule="evenodd" clip-rule="evenodd" d="M1.3335 10.0002C1.3335 4.93755 5.43755 0.833496 10.5002 0.833496C15.5628 0.833496 19.6668 4.93755 19.6668 10.0002C19.6668 15.0628 15.5628 19.1668 10.5002 19.1668C5.43755 19.1668 1.3335 15.0628 1.3335 10.0002Z" fill="white"/>
<path d="M9.69916 5.86908C10.0246 5.54364 10.5522 5.54364 10.8777 5.86908L14.6277 9.61908C14.9531 9.94451 14.9531 10.4722 14.6277 10.7976L10.8777 14.5476C10.5522 14.873 10.0246 14.873 9.69916 14.5476C9.37372 14.2222 9.37372 13.6945 9.69916 13.3691L12.0266 11.0417H6.53841C6.07817 11.0417 5.70508 10.6686 5.70508 10.2083C5.70508 9.7481 6.07817 9.375 6.53841 9.375H12.0266L9.69916 7.04759C9.37372 6.72215 9.37372 6.19451 9.69916 5.86908Z" fill="#014898"/>
</svg>
