<svg width="81" height="70" viewBox="0 0 81 70" fill="none" xmlns="http://www.w3.org/2000/svg">
<path d="M28.4466 15.3403C28.4466 15.3403 28.951 17.5458 27.4279 18.0549C27.4279 18.0549 29.8877 17.6707 30.3538 16.2293C30.3538 16.2293 38.9057 15.8739 38.9588 12.3086C39.0213 8.37865 37.3637 6.70661 30.8584 6.86526C25.5686 6.99492 24.6318 13.4329 28.4466 15.3403ZM30.6276 14.327H29.8733V13.5485H30.6276V14.327ZM34.6586 14.327H33.9091V13.5485H34.6586V14.327ZM33.0008 8.98424C33.1737 8.91695 33.3899 8.85458 33.6542 8.8017C33.9184 8.74882 34.1683 8.72475 34.4037 8.72475H34.4038C34.9323 8.72475 35.3503 8.85458 35.6577 9.10915C35.9605 9.36373 36.1142 9.70492 36.1142 10.1229C36.1142 10.368 36.071 10.5793 35.9845 10.7666C35.9028 10.959 35.7876 11.122 35.6483 11.2664C35.5089 11.4105 35.3505 11.5403 35.1727 11.6651C34.9901 11.7853 34.8028 11.9054 34.601 12.0207V12.8519H33.9379H33.9377V11.7276C34.101 11.6363 34.274 11.5354 34.4566 11.4249C34.644 11.3193 34.7977 11.2086 34.913 11.0983C35.0571 10.9734 35.1676 10.8388 35.2445 10.7042C35.3262 10.5651 35.3647 10.3919 35.3647 10.1805C35.3647 9.90204 35.2686 9.69542 35.0813 9.56085C34.8938 9.42136 34.6488 9.35424 34.351 9.35424C34.0867 9.35424 33.8369 9.39746 33.5969 9.47915C33.3615 9.5656 33.174 9.64729 33.0347 9.73373H33.0011H33.001H33.0008V8.98424ZM28.9699 9.73356V8.98424V8.98407C29.1381 8.91678 29.3591 8.85441 29.6233 8.80153C29.8876 8.74865 30.1374 8.72458 30.3728 8.72458C30.9013 8.72458 31.3193 8.85441 31.6267 9.10898C31.9294 9.36356 32.0832 9.70475 32.0832 10.1227C32.0832 10.3678 32.0399 10.5792 31.9535 10.7664C31.8671 10.9588 31.7566 11.1219 31.6172 11.2663C31.4779 11.4103 31.3194 11.5402 31.1416 11.6649C30.9591 11.7851 30.7718 11.9053 30.5699 12.0205V12.8515L29.9069 12.8517V11.7275V11.7273C30.0701 11.6359 30.2384 11.5351 30.4257 11.4246C30.6132 11.319 30.762 11.2083 30.8821 11.098C31.0264 10.9731 31.1369 10.8385 31.2137 10.7039C31.2906 10.5647 31.3338 10.3915 31.3338 10.1803C31.3338 9.90187 31.2377 9.69526 31.0505 9.56068C30.863 9.42119 30.6181 9.35407 30.3201 9.35407C30.0559 9.35407 29.806 9.39729 29.5659 9.47898C29.3305 9.56542 29.143 9.64712 29.0035 9.73356H28.9699ZM48.8799 35.2985H31.0264V45.21H48.8799V35.2985ZM44.0705 42.678L43.6381 43.2305L39.953 40.3575L36.2294 43.1873L35.8018 42.6253L39.3764 39.9059L35.8355 37.1434L36.2728 36.5859L39.9579 39.4639L43.6766 36.6341L44.1042 37.1961L40.5345 39.9154L44.0705 42.678ZM20.8464 24.4086C20.8481 24.4054 20.8501 24.4017 20.8518 24.3985C20.9491 24.2158 21.1521 23.8751 21.475 23.5227C21.475 23.5324 21.9794 27.8371 19.0776 27.371C16.1854 26.9097 16.8628 23.782 16.8628 23.7724C16.9144 23.8192 16.9632 23.8649 17.0093 23.9097C17.0096 23.91 17.0101 23.9105 17.0105 23.9108C17.0111 23.9115 17.012 23.9124 17.0127 23.913C17.0132 23.9136 17.0137 23.9141 17.0144 23.9147C17.0549 23.9539 17.0927 23.9917 17.1289 24.0285C17.1293 24.0288 17.1296 24.0292 17.1299 24.0295C17.1423 24.0422 17.1545 24.0546 17.1664 24.067C17.1669 24.0675 17.1672 24.068 17.1677 24.0685C17.1927 24.0942 17.2166 24.1193 17.2391 24.1432L17.2396 24.1437C17.2598 24.1653 17.2789 24.1859 17.2971 24.2059C17.2974 24.2063 17.2976 24.2066 17.2979 24.2069C17.3108 24.221 17.324 24.2354 17.3357 24.2485L17.336 24.2488C17.3596 24.2751 17.3811 24.2997 17.4006 24.322C17.401 24.3224 17.4013 24.3227 17.4015 24.3231C17.4064 24.3286 17.412 24.3351 17.4166 24.3403L17.4169 24.3407C17.4393 24.3668 17.4589 24.3902 17.4749 24.4093C17.4757 24.4105 17.4771 24.412 17.4779 24.4131C17.5123 24.4547 17.5305 24.4785 17.5305 24.4785C17.5305 24.4785 17.785 25.9342 18.4913 26.3715C18.712 26.5081 18.9398 26.5744 19.1606 26.5754C19.6466 26.578 20.0989 26.2654 20.3698 25.6941C20.4694 25.4851 20.5452 25.3081 20.6027 25.1603C20.775 24.7171 20.783 24.5361 20.783 24.5361C20.783 24.5361 20.8001 24.4978 20.8335 24.4327C20.8377 24.4249 20.8416 24.4175 20.8464 24.4086ZM8.42621 28.5481C8.42621 28.5481 6.22181 30.8241 5.8813 31.4378C5.88079 31.4386 5.88028 31.4395 5.87977 31.4403C5.36571 30.9981 5.03418 30.6908 5.03418 30.6908C5.49994 29.5047 7.43486 27.9105 7.43655 27.909C7.43655 27.909 7.44164 27.9124 7.4491 27.9175C7.52232 27.9663 7.93808 28.2431 8.42621 28.5481ZM30.3113 27.8907L30.3105 27.8898C30.3794 27.8512 30.446 27.8142 30.5101 27.7785C30.8703 27.578 31.1411 27.4292 31.2211 27.3853C31.2369 27.3766 31.2472 27.3708 31.2472 27.3708C31.4394 27.5127 31.6066 27.6737 31.752 27.8447C31.9316 28.0561 32.0781 28.2825 32.1969 28.5066C32.604 29.2744 32.6886 30.0134 32.6886 30.0134C32.6886 30.0134 32.6728 30.0293 32.6496 30.0525C32.6467 30.0554 32.6444 30.058 32.641 30.0612C32.5335 30.1688 32.2423 30.4575 31.8383 30.8351C31.8383 30.8347 31.8383 30.8342 31.8383 30.8342C31.8901 29.7395 30.3279 27.9102 30.3113 27.8907ZM66.1711 50.7688H61.5684V50.0624H66.1711V50.7688ZM61.5686 51.9363V51.23H66.1711V51.9363H61.5686ZM61.5686 53.099V52.3927H66.1711V53.099H61.5686Z" fill="#DCDCDC"/>
<path d="M15.6611 16.7242L16.2471 15.917C16.516 15.5423 16.862 15.2299 17.256 14.9897C17.256 14.9897 17.2559 14.9897 17.2559 14.9899C17.653 15.1374 18.0079 15.3194 18.326 15.525C18.333 15.5296 18.3405 15.5336 18.3474 15.5382C18.411 15.5797 18.4718 15.6228 18.5323 15.6662C18.5491 15.6782 18.5669 15.6896 18.5835 15.7016C18.6364 15.7403 18.6867 15.7804 18.7374 15.8204C18.7599 15.8382 18.7835 15.8553 18.8055 15.8733C18.8498 15.9094 18.8916 15.9467 18.934 15.9836C18.9605 16.0065 18.9879 16.0291 19.0137 16.0523C19.0515 16.0864 19.0869 16.1214 19.1232 16.1562C19.1515 16.1833 19.1808 16.2099 19.2084 16.2372C19.2406 16.2694 19.271 16.3023 19.302 16.3348C19.3315 16.3657 19.3618 16.3962 19.3903 16.4274C19.4177 16.4574 19.4433 16.4881 19.4698 16.5184C19.4998 16.5528 19.5306 16.5869 19.5596 16.6216C19.5832 16.6497 19.6049 16.6784 19.6277 16.7067C19.6576 16.744 19.6883 16.7811 19.7169 16.8187C19.7372 16.8453 19.756 16.8721 19.7757 16.8989C19.8049 16.9384 19.8345 16.9779 19.8623 17.0175C19.8799 17.0428 19.8962 17.0681 19.9135 17.0933C19.9415 17.1347 19.9699 17.1758 19.9966 17.2172C20.0118 17.2408 20.0257 17.2643 20.0405 17.2879C20.0674 17.3308 20.0945 17.3738 20.1199 17.4165C20.1332 17.4387 20.1452 17.4609 20.1581 17.4831C20.1833 17.527 20.2089 17.5709 20.2328 17.6143C20.2444 17.6353 20.2549 17.6562 20.266 17.6772C20.2898 17.7216 20.3137 17.766 20.3359 17.8099C20.3459 17.8297 20.355 17.8491 20.3647 17.8689C20.3867 17.9135 20.4088 17.9579 20.4291 18.0018C20.4379 18.0208 20.4459 18.0392 20.4545 18.0581C20.4747 18.1021 20.4947 18.1462 20.5133 18.1894C20.521 18.2072 20.5279 18.2243 20.5354 18.2419C20.5537 18.2852 20.5718 18.3286 20.5888 18.3708C20.5957 18.3884 20.602 18.4053 20.6088 18.4226C20.6249 18.464 20.6411 18.5055 20.6559 18.5457C20.6622 18.5626 20.6677 18.5789 20.6738 18.5958C20.6881 18.6352 20.7023 18.6745 20.7152 18.7125C20.721 18.7294 20.726 18.7453 20.7316 18.762C20.7438 18.7986 20.756 18.8353 20.7672 18.8706C20.7723 18.8867 20.7767 18.902 20.7816 18.9179C20.7922 18.952 20.8027 18.9862 20.8122 19.0187C20.8169 19.035 20.821 19.0503 20.8255 19.066C20.8342 19.0962 20.8428 19.1267 20.8505 19.1552C20.855 19.1721 20.8589 19.1879 20.8632 19.2042C20.8698 19.2297 20.8767 19.2558 20.8827 19.2799C20.8869 19.297 20.8905 19.3126 20.8944 19.3289C20.8994 19.3501 20.9047 19.3716 20.9091 19.3913C20.9132 19.4089 20.9166 19.4248 20.9201 19.4413C20.9237 19.4572 20.9274 19.4738 20.9305 19.4886C20.9342 19.5065 20.9374 19.5225 20.9406 19.5386C20.9427 19.5491 20.945 19.5606 20.9469 19.5704C20.9506 19.5896 20.9537 19.6065 20.9566 19.6225C20.9572 19.6265 20.9583 19.6316 20.9589 19.6355C20.9691 19.6936 20.9737 19.727 20.9742 19.7306C20.9742 19.7306 20.9742 19.7306 20.9742 19.7304V19.7306C20.9727 19.7328 20.9711 19.735 20.9696 19.7372L20.9744 19.7321L20.5708 20.3664C20.5711 20.3658 18.3179 16.4986 15.6611 16.7242ZM44.6128 57.8987H33.3127V59.5948H44.6128V57.8987ZM58.0077 43.4036L57.753 44.5711H52.521L52.2999 43.4036L53.2284 48.3475H56.9355L58.0077 43.4036Z" fill="#014898"/>
<path d="M16.3918 60.8342L15.9113 63.2796C15.9113 63.2796 15.3493 63.6496 14.2827 63.9044C13.834 64.0125 13.6454 63.8986 13.5781 63.7297C13.5779 63.7293 13.5779 63.729 13.5778 63.7286C13.5705 63.7102 13.5646 63.6912 13.56 63.6715C13.5418 63.5941 13.5444 63.5105 13.5547 63.4329C13.5547 63.1547 13.5764 62.888 13.5764 62.6459L13.6244 60.8341H16.3918V60.8342ZM6.84523 25.3341C6.79235 25.0073 6.39845 24.9785 6.20625 25.1995C6.01896 25.4205 6.01896 26.2132 6.01896 26.2132C6.01896 26.2132 5.8171 26.1315 5.58167 25.9202C5.351 25.7088 4.39506 24.2771 4.17405 24.1281C3.95303 23.9791 3.63591 24.0561 3.6215 24.3827C3.61184 24.7095 4.02506 25.4639 4.02506 25.4639C4.02506 25.4639 3.40049 24.7961 2.97761 24.7624C2.55489 24.7335 2.32896 25.1563 2.65099 25.3773C2.96811 25.603 3.31879 26.1749 3.31879 26.1749C3.31879 26.1749 3.35727 26.2564 3.1554 26.0788C2.95845 25.8963 2.52116 25.6849 2.10811 25.7713C1.69489 25.858 1.5893 26.3095 2.01201 26.492C2.43964 26.6698 2.51167 26.8524 2.51167 26.8524C2.51167 26.8524 2.32913 26.8091 1.97354 26.8524C1.6132 26.8958 1.42099 27.2849 1.62286 27.549C1.82472 27.8134 2.13693 27.573 2.81438 27.7846C3.49184 27.9958 3.74642 28.731 4.25574 29.1537C4.75422 29.5674 5.66439 29.6313 5.70303 29.6339C6.05642 29.2 6.47015 28.7851 6.80489 28.4708C6.8693 28.41 6.93184 28.3513 6.9893 28.2985C6.9893 28.2985 7.02286 27.6883 6.84523 27.352C6.66269 27.0203 6.89811 25.6656 6.84523 25.3341ZM36.8108 27.3951C36.4696 27.2652 36.2871 27.2652 36.2871 27.2652C36.2871 27.2652 36.4024 27.1068 36.854 27.0347C37.3105 26.9627 37.3152 26.4919 36.9357 26.3141C36.5563 26.1315 36.0805 26.2325 35.8451 26.3622C35.6049 26.4869 35.6673 26.4151 35.6673 26.4151C35.6673 26.4151 36.1429 25.9442 36.5032 25.8047C36.8683 25.6607 36.753 25.1995 36.3302 25.1274C35.9122 25.0552 35.1483 25.5549 35.1483 25.5549C35.1483 25.5549 35.7296 24.9254 35.7969 24.6037C35.8642 24.2819 35.5712 24.1329 35.3213 24.2241C35.0715 24.3154 33.8032 25.478 33.5244 25.6269C33.2505 25.7759 33.0344 25.8096 33.0344 25.8096C33.0344 25.8096 33.2218 25.0408 33.092 24.7766C32.9574 24.5171 32.5683 24.4547 32.4386 24.7622C32.309 25.0647 32.2129 26.439 31.9581 26.7176C31.7035 27.001 31.593 27.6015 31.593 27.6015C31.6425 27.6759 31.6966 27.7586 31.752 27.8449C31.9317 28.0563 32.0781 28.2827 32.1969 28.5068C32.2846 28.6719 32.3569 28.8354 32.4169 28.9908C32.4524 29.0608 32.4871 29.131 32.5203 29.2015V29.2063C32.5203 29.2063 33.4476 29.3744 34.0434 29.0863C34.6391 28.7932 35.062 28.1398 35.7681 28.0964C36.4791 28.0532 36.7242 28.3656 36.9837 28.159C37.2434 27.9476 37.152 27.52 36.8108 27.3951ZM24.0863 62.5781L24.0585 60.6085H21.2813L21.7729 63.1407C21.7729 63.1407 22.3351 63.5105 23.4064 63.7652C23.4559 63.7769 23.5024 63.7859 23.5457 63.7924C23.5891 63.7988 23.6295 63.8029 23.6669 63.8046C24.0137 63.8205 24.119 63.643 24.1357 63.4519C24.1357 63.3073 24.0863 62.9319 24.0863 62.5781ZM21.6001 20.6063C21.8546 20.5005 22.0912 20.3276 22.2485 20.1164C22.4057 19.9051 22.4837 19.6552 22.4213 19.3958C22.2988 18.901 21.6024 18.9468 21.3554 19.1922C21.3412 19.2064 21.3276 19.2212 21.3166 19.2368C21.3103 19.2459 21.3018 19.258 21.2951 19.2676C21.2103 19.3895 21.0935 19.5544 20.9751 19.73V19.7302C20.9751 19.7303 20.9752 19.7319 20.9752 19.7319L20.5717 20.3661C20.532 20.4542 20.46 20.5419 20.3854 20.6168C20.261 20.7419 20.1296 20.832 20.1296 20.832C20.1296 20.832 20.192 20.5486 19.7981 20.2844C19.409 20.0202 18.5922 19.8807 17.5112 19.1073C16.7191 18.541 16.5218 17.9793 16.4688 17.7195C16.4783 17.9554 16.4347 18.4303 15.9932 18.9151C15.3734 19.5925 15.7818 21.399 15.9932 21.8937C16.2047 22.3886 16.983 22.9652 17.9151 22.9941C17.9151 22.9941 18.1985 24.0269 18.1696 24.4786H18.1695V24.4788H17.5307C17.531 24.4807 17.7857 25.9347 18.4915 26.3717C19.021 26.6995 19.5913 26.622 20.0096 26.2122C20.149 26.0756 20.2715 25.9022 20.3698 25.6944C20.4695 25.4854 20.5452 25.3085 20.6027 25.1607C20.7751 24.7174 20.783 24.5364 20.783 24.5364H20.1057L19.7934 21.9902V21.99C19.7934 21.99 20.5813 21.058 20.711 20.6352C20.711 20.6352 21.0907 20.818 21.6001 20.6063Z" fill="#FFD2BB"/>
<path d="M27.5864 33.9549C27.5926 33.953 27.5987 33.9513 27.6048 33.9488C27.6072 33.9481 27.6096 33.9469 27.6119 33.9459C27.6035 33.9491 27.595 33.952 27.5864 33.9549ZM27.7406 33.8944C27.7591 33.8871 27.7774 33.8803 27.7972 33.8717C27.8108 33.8659 27.8255 33.8591 27.8396 33.8524C27.8062 33.8674 27.7735 33.8807 27.7406 33.8944ZM24.4362 34.6378C24.4687 35.2296 24.5028 35.869 24.535 36.511C24.5041 35.8842 24.4714 35.2608 24.4386 34.6793C24.4379 34.6652 24.437 34.6515 24.4362 34.6378ZM27.3414 34.031C27.367 34.0257 27.3918 34.0188 27.4225 34.0112C27.4269 34.0095 27.4326 34.0076 27.4377 34.0059C27.4048 34.0157 27.3733 34.023 27.3414 34.031ZM26.9231 34.0832C25.2608 33.9966 24.2711 31.7963 24.2711 31.7963C24.276 31.8071 25.2648 33.9968 26.9231 34.0832C26.9389 34.0832 26.9547 34.0822 26.9703 34.082C26.9547 34.0822 26.9382 34.084 26.9231 34.0832ZM24.3079 32.4061C24.3094 32.4312 24.3109 32.4576 24.3126 32.4841C24.3113 32.4612 24.3101 32.4378 24.3089 32.4161C24.3079 32.4125 24.308 32.4095 24.3079 32.4061ZM27.2387 34.0554C27.2406 34.0552 27.2425 34.0551 27.2447 34.0546C27.2453 34.0546 27.246 34.0542 27.2467 34.0541C27.244 34.0546 27.2413 34.0549 27.2387 34.0554ZM2.01161 26.492C1.99822 26.4862 1.98703 26.4795 1.97483 26.4732C2.01059 26.5978 2.0472 26.7205 2.085 26.8412C2.36652 26.8185 2.51127 26.8522 2.51127 26.8522C2.51127 26.8522 2.43923 26.6698 2.01161 26.492ZM32.5201 50.6202H57.1958V59.9841H32.5201V50.6202ZM33.3128 55.5639H44.613V53.868H33.3128V55.5639ZM33.3128 57.5144H44.613V55.8185H33.3128V57.5144ZM33.3128 59.5949H44.613V57.8988H33.3128V59.5949ZM13.5362 33.3285C13.5357 33.332 13.5348 33.3373 13.534 33.3429C13.5328 33.3512 13.5311 33.3612 13.5292 33.3734C13.528 33.3813 13.5267 33.3898 13.5252 33.3991C13.524 33.4064 13.5228 33.4141 13.5214 33.4218C13.5214 33.4224 13.5213 33.4227 13.5213 33.4234C13.5206 33.4274 13.5201 33.4312 13.5194 33.4354C13.5197 33.433 13.5201 33.4298 13.5204 33.4274C13.5202 33.4286 13.5199 33.4305 13.5197 33.4317C13.5196 33.433 13.5196 33.4342 13.5194 33.4354C13.5119 33.4922 13.5031 33.5668 13.4892 33.66C13.4892 33.66 13.4892 33.66 13.4892 33.6647C13.4845 33.703 13.4748 33.7512 13.4701 33.8041C13.4653 33.8522 13.4557 33.9051 13.4509 33.9627C13.4509 33.9627 13.4509 33.9646 13.4509 33.9657C13.504 33.5646 13.5374 33.3205 13.5375 33.3191C13.5375 33.3191 13.537 33.3227 13.5362 33.3285ZM14.8564 22.6422C14.7823 22.624 14.7125 22.6146 14.6426 22.6051C14.6394 22.6046 14.6362 22.6042 14.633 22.6039C14.7065 22.6146 14.7806 22.6266 14.8564 22.6422ZM24.2947 32.1761C24.2947 32.2001 24.2947 32.229 24.2994 32.2529V32.2629C24.2958 32.203 24.2926 32.1486 24.2896 32.0995C24.2897 32.101 24.2897 32.1024 24.2899 32.1039C24.2899 32.1281 24.2899 32.152 24.2947 32.1761ZM24.5755 37.3407C24.5767 37.3641 24.5777 37.3874 24.5789 37.4107C24.5786 37.4034 24.5782 37.3963 24.578 37.389C24.578 37.3842 24.578 37.3842 24.578 37.3842C24.5772 37.3695 24.5764 37.3551 24.5755 37.3407ZM77.8828 58.75C70.0899 66.6246 64.6657 66.298 64.6657 66.298L17.8843 66.1539H9.07296C9.07296 66.1539 0.434487 65.2986 0.482622 56.9435C0.530588 48.5695 6.69957 51.01 7.7133 41.5741C8.47872 34.4856 4.43533 33.1368 2.37923 27.6968C2.505 27.7085 2.64838 27.7329 2.81398 27.7846C3.49144 27.9957 3.74601 28.731 4.25533 29.1537C4.75381 29.5674 5.66398 29.6313 5.70262 29.6339C5.7055 29.6303 5.70872 29.6269 5.71177 29.6232C5.41889 29.9813 5.16652 30.3527 5.03381 30.691C5.03381 30.691 5.36533 30.9983 5.8794 31.4405C5.87991 31.4396 5.88042 31.4388 5.88093 31.4379C6.22144 30.8242 8.42584 28.5483 8.42584 28.5483C7.93771 28.2432 7.52194 27.9664 7.44872 27.9176C7.44127 27.9125 7.43618 27.9091 7.43618 27.9091C7.4355 27.9096 7.15669 28.1396 6.7855 28.4893C6.79161 28.4835 6.79856 28.4766 6.80466 28.4708C6.86906 28.41 6.93161 28.3513 6.98906 28.2985C6.98906 28.2985 7.02262 27.6883 6.845 27.352C6.66245 27.0203 6.89788 25.6656 6.845 25.334C6.79211 25.0073 6.39822 24.9785 6.20601 25.1995C6.01872 25.4205 6.01872 26.2132 6.01872 26.2132C6.01872 26.2132 5.81686 26.1315 5.58144 25.9201C5.35076 25.7088 4.39483 24.2771 4.17381 24.1281C3.95279 23.9791 3.63567 24.0561 3.62127 24.3827C3.61161 24.7095 4.02483 25.4639 4.02483 25.4639C4.02483 25.4639 3.40025 24.7961 2.97737 24.7624C2.55466 24.7335 2.32872 25.1562 2.65076 25.3773C2.96788 25.603 3.31855 26.1749 3.31855 26.1749C3.31855 26.1749 3.35703 26.2564 3.15516 26.0788C2.95822 25.8963 2.52093 25.6849 2.10788 25.7713C1.98533 25.7969 1.89076 25.8552 1.82805 25.9285C1.46194 24.4639 1.23703 22.7305 1.23703 20.6073C1.23703 9.6193 17.9903 -6.92731 38.6592 3.10439C54.1825 10.6378 48.3306 21.7074 52.6211 29.2552C56.9164 36.803 65.1175 34.7612 73.7031 37.173C82.2886 39.5849 81.6399 54.9591 77.8828 58.75ZM28.446 15.3405C28.446 15.3405 28.9504 17.5459 27.4274 18.0551C27.4274 18.0551 29.8872 17.6708 30.3533 16.2295C30.3533 16.2295 38.9052 15.874 38.9582 12.3088C39.0208 8.37879 37.3631 6.70676 30.8579 6.8654C25.568 6.99506 24.6313 13.433 28.446 15.3405ZM29.2141 35.5824C28.907 34.8229 28.5901 34.1935 28.3209 33.6074C28.2777 33.6315 28.2345 33.6554 28.1864 33.6795C28.1623 33.6939 28.1335 33.7085 28.1096 33.7227C28.0711 33.742 28.0326 33.7613 27.9943 33.7805C27.9608 33.7949 27.9318 33.8093 27.903 33.8237C27.8926 33.8276 27.8838 33.8322 27.8743 33.8368C29.1384 33.2542 30.8328 31.7735 31.8377 30.8349C32.2418 30.4573 32.533 30.169 32.6404 30.0613C32.6438 30.0581 32.6462 30.0556 32.6491 30.0527C32.6723 30.0295 32.688 30.0135 32.688 30.0135C32.688 30.0135 32.6341 29.549 32.4096 28.974C32.4118 28.9795 32.4145 28.9852 32.4165 28.9908C32.4519 29.0608 32.4867 29.131 32.5199 29.2015V29.2063C32.5199 29.2063 33.4472 29.3744 34.043 29.0863C34.6387 28.7932 35.0616 28.1398 35.7677 28.0964C36.4787 28.0532 36.7238 28.3656 36.9833 28.159C37.243 27.9476 37.1516 27.52 36.8104 27.3951C36.4692 27.2652 36.2867 27.2652 36.2867 27.2652C36.2867 27.2652 36.4019 27.1068 36.8536 27.0347C37.3101 26.9627 37.3148 26.4918 36.9353 26.314C36.5558 26.1315 36.0801 26.2325 35.8447 26.3622C35.6045 26.4869 35.6669 26.4151 35.6669 26.4151C35.6669 26.4151 36.1425 25.9442 36.5028 25.8047C36.8679 25.6607 36.7526 25.1995 36.3297 25.1274C35.9118 25.0552 35.1479 25.5549 35.1479 25.5549C35.1479 25.5549 35.7292 24.9254 35.7965 24.6037C35.8638 24.2818 35.5708 24.1329 35.3209 24.224C35.0711 24.3154 33.8028 25.4779 33.524 25.6269C33.2501 25.7759 33.034 25.8096 33.034 25.8096C33.034 25.8096 33.2214 25.0408 33.0916 24.7766C32.957 24.5171 32.5679 24.4547 32.4382 24.7622C32.3086 25.0647 32.2125 26.439 31.9577 26.7176C31.7031 27.001 31.5926 27.6015 31.5926 27.6015C31.6421 27.6759 31.6962 27.7586 31.7516 27.8449C31.6062 27.6739 31.4389 27.5129 31.2467 27.371C31.2467 27.371 31.2364 27.3768 31.2206 27.3854C31.1406 27.4293 30.8697 27.5781 30.5096 27.7786C30.4455 27.8144 30.3789 27.8513 30.3099 27.89L30.3108 27.8908C29.4043 28.4047 28.1301 29.1593 27.8696 29.4805C28.6575 27.0013 29.3538 26.1942 28.5706 24.1186C27.7874 22.043 25.9425 22.7396 24.8423 20.6642C23.7419 18.5886 24.5252 17.4018 22.9348 15.6003C21.6425 14.1396 18.9762 13.933 17.2562 14.9898C16.8621 15.23 16.5162 15.5424 16.2472 15.9171L15.6613 16.7242C15.2001 17.0749 14.6233 17.4737 14.3687 18.4201C14.1141 19.3666 14.4792 19.8998 14.5225 20.9329C14.5369 21.2356 14.5177 21.8264 14.4457 22.581C14.4658 22.5824 14.4852 22.5859 14.5047 22.5883C13.1892 22.4437 12.216 23.0817 11.6691 24.2239C11.078 25.4683 10.3141 29.2927 10.2036 29.4801C10.0928 29.6557 7.63771 28.0422 7.44872 27.9176C7.52194 27.9664 7.93771 28.2432 8.42584 28.5483C8.42584 28.5483 6.22144 30.8242 5.88093 31.4379C6.82466 32.2501 8.37686 33.5237 9.59262 34.2218C9.63042 34.2452 9.66855 34.2652 9.70618 34.2859C9.74228 34.3059 9.77822 34.3257 9.81364 34.3446C9.83042 34.353 9.84516 34.3613 9.86127 34.3698C9.97991 34.4317 10.0947 34.4873 10.2036 34.5344C10.1411 34.5056 10.0782 34.4768 10.0109 34.4479C10.0013 34.443 9.98686 34.4334 9.97245 34.4288C9.93635 34.409 9.89889 34.3895 9.86127 34.3698C9.84516 34.3613 9.83042 34.353 9.81364 34.3446C9.81211 34.3437 9.81059 34.343 9.80906 34.3422C9.7994 34.3374 9.78991 34.3325 9.78025 34.3278C9.7555 34.3146 9.73093 34.2995 9.70618 34.2859C9.66855 34.2652 9.63042 34.2452 9.59262 34.2218C9.58805 34.2215 9.58313 34.2173 9.58313 34.2173C9.5111 34.1788 9.43906 34.1357 9.36686 34.0925C8.9633 34.8324 8.70381 35.5915 8.70381 36.4562C8.70381 38.4308 10.2604 40.1124 12.7348 40.3815C12.8025 39.1517 13.0955 36.711 13.3069 35.0439C13.3116 35.0391 13.3116 35.0295 13.3116 35.0247C13.3404 34.7796 13.3692 34.5539 13.398 34.352C13.398 34.3473 13.398 34.3424 13.398 34.3424C13.4077 34.2751 13.4172 34.2125 13.4221 34.1502C13.4269 34.1454 13.4269 34.1454 13.4269 34.1405C13.4308 34.0896 13.4387 34.0442 13.4465 33.9996C13.2109 35.7824 12.6089 40.4935 12.7448 41.0878L12.7447 60.8342H13.624L13.576 62.6459C13.576 62.888 13.5543 63.1547 13.5543 63.4329C13.544 63.5105 13.5414 63.5941 13.5596 63.6715C13.557 63.6608 13.5567 63.6495 13.555 63.6386C13.4835 63.6322 13.4177 63.6174 13.3613 63.5913C13.3123 63.6451 13.2565 63.7034 13.1867 63.7702C12.7014 64.2363 11.9616 64.3707 11.1977 64.5435C10.4338 64.7117 10.3521 65.1251 10.4241 65.3796C10.4962 65.6342 13.1867 65.7591 13.773 65.5142C14.3543 65.2739 14.3352 65.0817 14.6186 64.808C14.9069 64.5291 14.9357 64.438 15.1279 64.5964C15.3201 64.7551 15.296 65.5815 15.296 65.5815L16.1319 65.5574C16.1319 65.5574 16.1031 63.7461 16.1319 63.6117C16.1657 63.472 15.9109 63.2798 15.9109 63.2798L16.3914 60.8342H17.2369C17.2369 60.8342 17.8662 47.0263 18.9713 47.103C20.158 47.1895 20.5135 60.6085 20.5135 60.6085H21.2809L21.7725 63.1407C21.7725 63.1407 21.5177 63.328 21.5513 63.4673C21.5801 63.6066 21.5513 65.418 21.5513 65.418L22.3872 65.4371C22.3872 65.4371 22.3631 64.6108 22.5553 64.4522C22.7475 64.2935 22.7764 64.3896 23.0647 64.6635C23.353 64.9374 23.3289 65.1295 23.9102 65.3746C24.4964 65.6147 27.1869 65.49 27.2589 65.2352C27.336 64.9807 27.2496 64.5674 26.4857 64.3991C25.7218 64.231 24.9819 64.0919 24.4967 63.6257C24.4079 63.5425 24.3394 63.4702 24.2838 63.4059C24.2455 63.4132 24.2053 63.4179 24.1619 63.4179C24.1535 63.4179 24.1462 63.4159 24.1379 63.4156C24.1375 63.4256 24.1358 63.4356 24.1352 63.4456C24.134 63.2973 24.0858 62.9276 24.0858 62.5781L24.058 60.6085H25.2026L24.6357 41.3954C24.7228 41.3751 24.6887 39.9432 24.6136 38.1918C25.0645 38.2591 25.4623 38.3985 25.7933 38.6332C27.9697 40.1563 30.1991 38.0373 29.2141 35.5824Z" fill="#F6F6F6"/>
<path d="M13.1517 41.3526C12.9195 41.3081 12.7766 41.2259 12.7451 41.0879V60.8343H13.6244H16.3919H17.2373C17.2373 60.8343 17.8666 47.0264 18.9717 47.1031C20.1585 47.1896 20.5139 60.6086 20.5139 60.6086H25.2031L24.6361 41.3955C24.4105 41.4484 22.5753 41.5396 19.409 41.256C19.348 41.2506 19.287 41.2464 19.2258 41.242C16.7139 41.0545 14.1339 41.5409 13.1517 41.3526Z" fill="#FF0D1B"/>
<path d="M24.6112 38.1913C24.6119 38.1915 24.6126 38.1916 24.6134 38.1918C24.6885 39.9432 24.7229 41.3749 24.6358 41.3952C24.41 41.4483 22.5746 41.5394 19.4085 41.2559C19.3475 41.2505 19.2863 41.2462 19.2251 41.2418C16.7132 41.0544 14.1331 41.5408 13.151 41.3525C12.919 41.3079 12.7761 41.2257 12.7446 41.0877C12.6087 40.4935 13.2107 35.7823 13.4463 33.9996C13.448 33.9894 13.449 33.9772 13.4507 33.9674C13.4507 33.9657 13.4507 33.9664 13.4507 33.9657C13.5039 33.5635 13.5373 33.3189 13.5373 33.3189C13.5373 33.3189 13.5326 33.3238 13.5326 33.3333C13.5326 33.3432 13.5278 33.3574 13.5278 33.3766C13.5256 33.3899 13.5232 33.4059 13.521 33.4233C13.5204 33.4274 13.5198 33.4311 13.5192 33.4354C13.5195 33.433 13.5198 33.4298 13.5202 33.4274C13.5031 33.532 13.4739 33.6999 13.4359 33.8735C13.4354 33.8762 13.4348 33.8788 13.4343 33.8815C13.4283 33.9082 13.4222 33.935 13.4159 33.9618C13.4144 33.9686 13.4127 33.9752 13.411 33.9818C13.4053 34.006 13.3993 34.0303 13.3932 34.054C13.331 34.2991 12.6585 34.8496 11.6036 34.8455C11.1909 34.8438 10.7195 34.7574 10.2034 34.5344C10.0944 34.4872 9.97967 34.4316 9.86103 34.3698C9.84493 34.3613 9.83018 34.353 9.8134 34.3445C9.77798 34.3257 9.74205 34.3059 9.70594 34.2859C9.66832 34.2652 9.63052 34.2454 9.59272 34.222L9.59239 34.2218C8.37662 33.5237 6.82459 32.2499 5.88086 31.4377C6.22137 30.824 8.42577 28.5481 8.42577 28.5481C7.93764 28.243 7.52188 27.9662 7.44866 27.9174C7.63764 28.042 10.0926 29.6557 10.2034 29.4801C10.3139 29.2926 11.0778 25.4682 11.6688 24.2238C12.2165 23.0801 13.1914 22.4418 14.5093 22.5886C14.5487 22.593 14.5878 22.5972 14.628 22.603C14.7056 22.6142 14.7837 22.6267 14.8637 22.6435C14.8949 22.6499 14.9249 22.6598 14.9558 22.6672C15.8066 22.8725 16.5437 23.4577 17.0088 23.9098C16.9626 23.8652 16.9137 23.8193 16.8624 23.7725C16.8624 23.7821 16.1849 26.9098 19.0771 27.3711C21.979 27.8372 21.4746 23.5325 21.4746 23.5228C21.1517 23.875 20.9487 24.2157 20.8514 24.3986C21.0805 23.9667 21.9 22.6501 23.4778 22.4179C25.3709 22.1345 25.9088 22.783 26.4181 24.5079C26.9227 26.2279 26.471 29.4518 26.841 29.7881C27.1605 30.0866 27.3954 30.0137 27.7227 29.6526C27.7695 29.6011 27.8181 29.5435 27.8693 29.4804C28.1298 29.1593 29.4044 28.4049 30.3109 27.891C30.3276 27.9103 31.8898 29.7398 31.838 30.8343C30.832 31.774 29.1348 33.2574 27.87 33.8388C27.8614 33.8427 27.8527 33.8464 27.8444 33.8503C27.8071 33.8671 27.7712 33.8815 27.7348 33.8967C27.7237 33.901 27.7114 33.9067 27.7012 33.9101C27.6709 33.9233 27.6441 33.9355 27.6144 33.945C27.601 33.9501 27.5881 33.954 27.5748 33.9589C27.5512 33.9672 27.5276 33.9757 27.5041 33.9825C27.4814 33.9901 27.4602 33.9976 27.4398 34.0052C27.4041 34.016 27.37 34.0238 27.3354 34.0325C27.3309 34.0333 27.3265 34.0347 27.3215 34.0354C27.2943 34.0445 27.2715 34.0489 27.2488 34.0537C27.2407 34.0554 27.2332 34.0559 27.2253 34.0574C27.1951 34.0638 27.1665 34.0691 27.1388 34.0691C27.1298 34.0715 27.1197 34.0737 27.1102 34.0754C27.1087 34.0755 27.1071 34.0759 27.1056 34.076C27.0965 34.0776 27.0876 34.0788 27.0812 34.0788C27.0754 34.0793 27.0707 34.0793 27.0651 34.0796C27.0163 34.0833 26.9683 34.0855 26.9229 34.0832C25.2605 33.9966 24.2709 31.7962 24.2709 31.7962V31.7972L24.2707 31.7967C24.2707 31.7967 24.2707 31.7967 24.2707 31.8064C24.2707 31.8111 24.2707 31.8208 24.2707 31.8304C24.2707 31.8352 24.2707 31.8401 24.2707 31.8449C24.2753 31.8906 24.28 31.9725 24.2887 32.0881C24.2919 32.1408 24.2954 32.2001 24.2993 32.2655C24.2993 32.2676 24.2993 32.2708 24.2993 32.2725C24.2993 32.3013 24.3041 32.335 24.3041 32.3638C24.3041 32.3777 24.3058 32.3896 24.3075 32.4023C24.3095 32.4367 24.3117 32.4727 24.3139 32.5096C24.3232 32.6762 24.3351 32.8654 24.3473 33.0799V33.0847C24.3617 33.3442 24.3761 33.6323 24.3953 33.9399C24.3953 33.9447 24.3953 33.9447 24.3953 33.9496C24.408 34.1579 24.4207 34.3745 24.4336 34.5945C24.4693 35.2438 24.5071 35.9525 24.5422 36.6596C24.5493 36.8069 24.5566 36.9544 24.5634 37.1013C24.5634 37.111 24.5634 37.1205 24.5634 37.1301C24.567 37.1959 24.5707 37.2593 24.5744 37.3237C24.5766 37.3691 24.5787 37.4147 24.5809 37.46C24.5904 37.7055 24.6029 37.9505 24.6115 38.1872C24.6112 38.1864 24.6112 38.1864 24.6112 38.1913Z" fill="#014898"/>
<path fill-rule="evenodd" clip-rule="evenodd" d="M57.1961 48.3474H59.4687V65.6289L57.1961 65.6242V61.1177H32.5204V65.5476L30.2526 65.5428V48.3476L43.3978 48.3474H57.1961ZM32.5204 50.6201H57.1961V59.984H32.5204V50.6201Z" fill="#221F1F"/>
<path fill-rule="evenodd" clip-rule="evenodd" d="M18.1694 24.4786C18.1982 24.0267 17.9148 22.9942 17.9148 22.9942C16.9827 22.9654 16.2043 22.3888 15.9931 21.8937C15.7817 21.3989 15.3733 19.5925 15.9931 18.915C16.4351 18.4298 16.4783 17.9542 16.4687 17.7186L16.4688 17.7193C16.5219 17.9791 16.7192 18.5408 17.5112 19.1071C18.2025 19.6016 18.7857 19.8369 19.2181 20.0114C19.462 20.1098 19.6579 20.1889 19.7982 20.2842C20.1921 20.5484 20.1297 20.8318 20.1297 20.8318C20.1297 20.8318 20.2611 20.7416 20.3855 20.6165C20.4599 20.5416 20.5319 20.454 20.5716 20.3659C20.5716 20.3659 18.3182 16.4986 15.6614 16.7242C15.6397 16.7407 15.6178 16.7573 15.5956 16.774L15.5954 16.7742C15.1465 17.1137 14.6116 17.5183 14.369 18.4201C14.2097 19.0123 14.293 19.4427 14.3883 19.9349C14.4453 20.2294 14.5066 20.5461 14.5227 20.9328C14.5372 21.2355 14.518 21.8264 14.446 22.581C14.4593 22.5819 14.4724 22.5837 14.4854 22.5856C14.4888 22.5861 14.4922 22.5865 14.4956 22.587C14.5002 22.5876 14.5049 22.5882 14.5095 22.5888L14.521 22.59C14.5565 22.594 14.5919 22.598 14.6282 22.6032C14.6301 22.6035 14.632 22.6037 14.6338 22.6039C14.635 22.6041 14.6361 22.6042 14.6372 22.6043C14.6382 22.6045 14.6392 22.6046 14.6401 22.6047C14.6411 22.6048 14.642 22.6049 14.6429 22.605L14.6506 22.6061C14.7201 22.6155 14.7897 22.625 14.8639 22.6437C14.8823 22.6475 14.9002 22.6524 14.9181 22.6574C14.9307 22.6608 14.9432 22.6643 14.956 22.6674C15.8075 22.8727 16.5453 23.4589 17.0102 23.911L17.0124 23.9132C17.0536 23.9533 17.0927 23.992 17.1295 24.0296L17.1413 24.0417L17.1415 24.0418C17.1498 24.0503 17.1579 24.0587 17.166 24.0671L17.176 24.0775C17.198 24.1004 17.2193 24.1225 17.2394 24.144C17.2595 24.1655 17.2787 24.1862 17.2968 24.2062C17.31 24.2208 17.3236 24.2354 17.3358 24.2491C17.3594 24.2754 17.3809 24.2998 17.4004 24.3223L17.4075 24.3304C17.4094 24.3326 17.4112 24.3347 17.413 24.3367C17.4142 24.3382 17.4155 24.3396 17.4166 24.341C17.4392 24.3671 17.4587 24.3903 17.4746 24.4096C17.475 24.41 17.4754 24.4106 17.4759 24.4111C17.4764 24.4116 17.4768 24.4121 17.4772 24.4125L17.4775 24.4129L17.4778 24.4133C17.5122 24.455 17.5304 24.4788 17.5304 24.4788H18.1694V24.4786ZM16.4543 17.5696C16.4543 17.5696 16.4495 17.6274 16.4687 17.7186C16.4639 17.6274 16.4543 17.5696 16.4543 17.5696ZM26.4183 24.5077C25.909 22.7828 25.3711 22.1343 23.478 22.4177C21.9002 22.6501 21.0807 23.9667 20.8512 24.3989C20.8495 24.4021 20.8475 24.4059 20.8458 24.4091C20.8411 24.4179 20.8372 24.4255 20.8331 24.4335C20.7997 24.4986 20.7827 24.5369 20.7827 24.5369H20.1053L19.7929 21.9906C19.7929 21.9906 20.5809 21.0586 20.7105 20.6359C20.7105 20.6359 21.09 20.8184 21.5994 20.6071C21.8541 20.5013 22.0907 20.3282 22.248 20.1169C22.4053 19.9055 22.4833 19.6557 22.4209 19.3962C22.2983 18.9013 21.6019 18.9472 21.3549 19.1927C21.3405 19.2071 21.327 19.222 21.3158 19.2376C21.3095 19.2467 21.3014 19.2582 21.2946 19.2681C21.2731 19.2991 21.2494 19.3329 21.2242 19.369L21.2241 19.3691C21.1503 19.4747 21.063 19.5997 20.9746 19.7304V19.7306L20.9745 19.7297C20.9736 19.7231 20.9689 19.6903 20.9594 19.6355C20.9587 19.6315 20.9577 19.6267 20.957 19.6225L20.9566 19.6203C20.9538 19.605 20.9509 19.5887 20.9473 19.5704C20.9455 19.5606 20.9433 19.5493 20.9411 19.5386C20.9378 19.5225 20.9346 19.5065 20.9309 19.4886L20.9278 19.4745L20.9277 19.4741C20.9254 19.4634 20.923 19.4522 20.9205 19.4413L20.9188 19.4333C20.9159 19.4196 20.9129 19.4061 20.9095 19.3913C20.9059 19.3752 20.9017 19.3579 20.8976 19.3405L20.8948 19.3289L20.8906 19.3115C20.8882 19.3012 20.8858 19.2909 20.8831 19.2799C20.8793 19.2645 20.875 19.2482 20.8707 19.2317C20.8684 19.2226 20.866 19.2134 20.8636 19.2042C20.862 19.1982 20.8605 19.1923 20.859 19.1864L20.8582 19.1834C20.8559 19.1742 20.8535 19.1649 20.8509 19.1552C20.8433 19.1267 20.8346 19.0964 20.826 19.066L20.8232 19.0565L20.8194 19.0427C20.8172 19.0348 20.815 19.0269 20.8126 19.0188C20.8039 18.989 20.7944 18.958 20.7848 18.9268L20.7821 18.9179C20.78 18.9113 20.7781 18.9049 20.7762 18.8985L20.7761 18.8982C20.7733 18.8891 20.7706 18.88 20.7677 18.8706C20.7575 18.8386 20.7465 18.8055 20.7355 18.7722L20.7321 18.762C20.7295 18.7545 20.7271 18.7472 20.7247 18.7398L20.7212 18.7292C20.7194 18.7237 20.7176 18.7182 20.7156 18.7125C20.7026 18.6745 20.6885 18.6352 20.6743 18.5959C20.672 18.5894 20.6697 18.5831 20.6675 18.5768C20.6638 18.5664 20.6602 18.5562 20.6563 18.5457C20.6435 18.5106 20.6295 18.4748 20.6155 18.4388L20.6092 18.4227C20.6068 18.4166 20.6045 18.4105 20.6022 18.4045L20.5997 18.3981C20.5963 18.3891 20.5928 18.38 20.5892 18.3708C20.5722 18.3284 20.5541 18.2852 20.5358 18.242C20.5326 18.2344 20.5295 18.227 20.5264 18.2195L20.5194 18.2026C20.5175 18.1983 20.5157 18.1939 20.5138 18.1894C20.4951 18.1462 20.4751 18.1021 20.4549 18.0581C20.451 18.0494 20.4472 18.0409 20.4433 18.0323C20.4408 18.0266 20.4383 18.0209 20.4357 18.0152C20.4337 18.0108 20.4316 18.0063 20.4295 18.0018C20.4103 17.9603 20.3896 17.9184 20.3688 17.8763L20.3651 17.8689L20.3564 17.851C20.3498 17.8373 20.3433 17.8237 20.3363 17.8099C20.3165 17.7707 20.2953 17.7311 20.2741 17.6915L20.2665 17.6772C20.2621 17.6691 20.2579 17.6609 20.2536 17.6528C20.247 17.64 20.2403 17.6272 20.2333 17.6143C20.214 17.5794 20.1936 17.5441 20.1732 17.5087L20.1585 17.4832C20.1531 17.4739 20.1479 17.4647 20.1427 17.4554C20.1354 17.4425 20.1281 17.4295 20.1204 17.4165C20.096 17.3756 20.07 17.3343 20.0441 17.2931L20.0409 17.2879C20.0352 17.2788 20.0297 17.2698 20.0241 17.2607C20.0152 17.2462 20.0064 17.2317 19.997 17.2172C19.9768 17.1858 19.9555 17.1545 19.9341 17.1231L19.9339 17.1228C19.9272 17.113 19.9206 17.1032 19.9139 17.0933C19.9065 17.0825 19.8993 17.0717 19.8921 17.0609C19.8824 17.0464 19.8728 17.032 19.8627 17.0176C19.8406 16.986 19.8173 16.9545 19.794 16.9231L19.7761 16.8989C19.7728 16.8943 19.7694 16.8897 19.7661 16.8851C19.7628 16.8806 19.7596 16.8761 19.7563 16.8717C19.7435 16.854 19.7308 16.8363 19.7173 16.8188C19.695 16.7894 19.6715 16.7604 19.6481 16.7314L19.6282 16.7067C19.6192 16.6957 19.6105 16.6845 19.6017 16.6734C19.588 16.6561 19.5744 16.6388 19.56 16.6216C19.5403 16.5979 19.5196 16.5745 19.499 16.5511L19.4873 16.5379C19.4816 16.5314 19.4759 16.5249 19.4702 16.5184C19.4661 16.5137 19.462 16.509 19.4579 16.5042C19.4537 16.4993 19.4494 16.4944 19.4452 16.4894C19.4273 16.4687 19.4095 16.4479 19.3907 16.4274C19.3713 16.4061 19.351 16.3852 19.3307 16.3642C19.3213 16.3544 19.3118 16.3447 19.3024 16.3349C19.2936 16.3256 19.2848 16.3163 19.276 16.307C19.254 16.2836 19.2319 16.2603 19.2088 16.2372C19.192 16.2206 19.1746 16.2043 19.1572 16.1879C19.1459 16.1774 19.1347 16.1668 19.1236 16.1562C19.1142 16.1472 19.1049 16.1382 19.0955 16.1292C19.0688 16.1034 19.0421 16.0776 19.0141 16.0523C18.9987 16.0384 18.9827 16.0249 18.9667 16.0113C18.9559 16.0021 18.9451 15.9929 18.9344 15.9837L18.9099 15.9622C18.8758 15.9324 18.8417 15.9025 18.806 15.8733C18.7932 15.8629 18.7799 15.8528 18.7665 15.8426C18.7569 15.8353 18.7473 15.8279 18.7378 15.8204L18.7212 15.8073C18.6761 15.7717 18.631 15.736 18.5839 15.7016C18.5753 15.6954 18.5663 15.6893 18.5574 15.6832C18.5491 15.6776 18.5408 15.672 18.5327 15.6662C18.4722 15.6228 18.4114 15.5798 18.3478 15.5382C18.3444 15.536 18.3408 15.5338 18.3372 15.5316C18.3336 15.5295 18.3299 15.5273 18.3265 15.525C18.0083 15.3194 17.6534 15.1374 17.2563 14.9899L17.2565 14.9898C18.9765 13.933 21.6427 14.1396 22.9351 15.6003C23.8368 16.6217 23.9755 17.4454 24.127 18.3456C24.2428 19.0332 24.3661 19.7653 24.8426 20.6642C25.3793 21.6766 26.0932 22.0294 26.7746 22.3661C27.4901 22.7197 28.1697 23.0555 28.5709 24.1186C29.1903 25.7601 28.8841 26.6082 28.3391 28.1174C28.195 28.5165 28.0342 28.9619 27.8694 29.4804C27.8183 29.5435 27.7697 29.601 27.7229 29.6525C27.3956 30.0135 27.1607 30.0864 26.8412 29.7879C26.6711 29.6333 26.6747 28.868 26.6792 27.9192C26.6844 26.8046 26.6909 25.4368 26.4183 24.5077ZM20.9746 19.7306L20.975 19.7301L20.9751 19.7318L20.9704 19.7369C20.9711 19.7357 20.9719 19.7346 20.9727 19.7334L20.9746 19.7306ZM14.2826 63.9045C15.349 63.6498 15.9112 63.2798 15.9112 63.2798C15.9112 63.2798 16.166 63.472 16.1322 63.6116C16.1034 63.746 16.1322 65.5574 16.1322 65.5574L15.2963 65.5815C15.2963 65.5815 15.3204 64.755 15.1282 64.5964C14.9649 64.4617 14.9195 64.5073 14.7327 64.6951L14.7326 64.6952C14.6995 64.7284 14.6621 64.7661 14.6188 64.8079C14.5343 64.8895 14.4767 64.9639 14.422 65.0345C14.2935 65.2006 14.1812 65.3455 13.7733 65.5142C13.187 65.7591 10.4965 65.6342 10.4244 65.3796C10.3524 65.125 10.4341 64.7116 11.198 64.5435C11.2577 64.53 11.3172 64.5167 11.3765 64.5035L11.3774 64.5033C12.0765 64.3475 12.7398 64.1996 13.187 63.7701C13.2568 63.7033 13.3126 63.645 13.3616 63.5913C13.418 63.6174 13.4838 63.6321 13.5553 63.6386C13.5559 63.6427 13.5564 63.647 13.5568 63.6512C13.5576 63.658 13.5583 63.6649 13.5599 63.6715C13.5644 63.6911 13.5704 63.7101 13.5777 63.7286L13.5778 63.7291L13.578 63.7296C13.6453 63.8988 13.8339 64.0126 14.2826 63.9045ZM13.3119 35.0247C13.3119 35.0294 13.3119 35.0391 13.3072 35.0438C13.0958 36.711 12.8027 39.1516 12.7351 40.3815C10.2607 40.1123 8.7041 38.4308 8.7041 36.4562C8.7041 35.5915 8.96359 34.8323 9.36715 34.0925C9.43936 34.1357 9.51139 34.1787 9.58342 34.2172C9.58342 34.2172 9.58817 34.2215 9.59275 34.2218L9.59309 34.222C9.62293 34.2404 9.65277 34.2567 9.68253 34.2729L9.6827 34.273C9.69058 34.2773 9.69844 34.2815 9.70631 34.2859C9.71744 34.292 9.72858 34.2984 9.73971 34.3048C9.75332 34.3126 9.76693 34.3205 9.78054 34.3277C9.78518 34.33 9.78978 34.3323 9.79437 34.3347L9.79495 34.3349C9.79974 34.3374 9.80453 34.3398 9.80936 34.3421C9.81088 34.343 9.81224 34.3437 9.81376 34.3445C9.82422 34.3498 9.83389 34.355 9.84359 34.3602C9.84945 34.3634 9.85533 34.3666 9.86139 34.3698L9.87577 34.3773C9.90858 34.3944 9.94124 34.4114 9.97275 34.4288C9.98303 34.432 9.99331 34.4379 10.0019 34.4427C10.0053 34.4447 10.0085 34.4465 10.0112 34.4479C10.0762 34.4757 10.1366 34.5035 10.1969 34.5314L10.2034 34.5343C10.7197 34.7574 11.1911 34.844 11.6039 34.8455C12.6588 34.8496 13.3314 34.2991 13.3936 34.054C13.3997 34.0303 13.4056 34.006 13.4114 33.9818C13.4131 33.9752 13.4148 33.9686 13.4163 33.9618C13.4226 33.935 13.4287 33.9082 13.4346 33.8815C13.4349 33.8801 13.4352 33.8788 13.4355 33.8775C13.4358 33.8762 13.4361 33.8749 13.4363 33.8735C13.4738 33.7021 13.5028 33.5362 13.52 33.4314L13.5199 33.4327L13.5195 33.4354C13.518 33.4468 13.5165 33.4589 13.5149 33.4717L13.5132 33.4849C13.5071 33.5335 13.4997 33.5917 13.4895 33.6599V33.6647C13.4878 33.679 13.4853 33.6947 13.4827 33.7115C13.4782 33.7396 13.4733 33.7709 13.4704 33.804C13.4683 33.8249 13.4653 33.8467 13.4622 33.8693C13.4582 33.8989 13.4539 33.93 13.4512 33.9627V33.9657V33.9674C13.4509 33.9692 13.4506 33.9712 13.4503 33.9732C13.4498 33.9766 13.4494 33.9801 13.449 33.9837C13.4483 33.9892 13.4476 33.9946 13.4468 33.9996L13.4467 34.0002C13.4389 34.0446 13.431 34.0898 13.4272 34.1404C13.4272 34.1426 13.4272 34.1438 13.4268 34.1448C13.4263 34.1462 13.4251 34.1474 13.4224 34.1501C13.418 34.2061 13.4099 34.2623 13.4013 34.3219L13.3983 34.3423V34.352C13.3695 34.5538 13.3407 34.7796 13.3119 35.0247ZM33.5965 9.47926C33.3612 9.5657 33.1738 9.6474 33.0341 9.73384H33.0005V8.98435C33.1734 8.91706 33.3897 8.85469 33.6539 8.8018C33.9182 8.74892 34.168 8.72485 34.4034 8.72485C34.9319 8.72485 35.3499 8.85468 35.6573 9.10926C35.96 9.36384 36.1138 9.70502 36.1138 10.123C36.1138 10.3681 36.0705 10.5794 35.9841 10.7667C35.9024 10.9591 35.7872 11.1221 35.6478 11.2665C35.5085 11.4106 35.35 11.5404 35.1722 11.6652C34.9897 11.7854 34.8024 11.9055 34.6005 12.0208V12.852H33.9375V11.7277C34.1007 11.6364 34.2738 11.5355 34.4563 11.425C34.6438 11.3194 34.7975 11.2088 34.9127 11.0984C35.0568 10.9735 35.1673 10.8389 35.2443 10.7043C35.326 10.5652 35.3644 10.392 35.3644 10.1806C35.3644 9.90214 35.2683 9.69553 35.0811 9.56095C34.8936 9.42146 34.6485 9.35435 34.3507 9.35435C34.0865 9.35435 33.8366 9.39757 33.5965 9.47926ZM26.3524 64.3698C26.3968 64.3795 26.4413 64.3893 26.486 64.3991C27.2499 64.5674 27.3363 64.9806 27.2592 65.2352C27.1872 65.4899 24.4966 65.6147 23.9105 65.3745C23.5072 65.2045 23.3953 65.0599 23.2682 64.8959C23.2122 64.8235 23.1532 64.7473 23.0649 64.6635C23.0184 64.6192 22.9786 64.5796 22.9437 64.545C22.7631 64.3652 22.7168 64.3191 22.5556 64.4521C22.3634 64.6108 22.3875 65.437 22.3875 65.437L21.5516 65.4179C21.5516 65.4179 21.5804 63.6065 21.5516 63.4672C21.518 63.3279 21.7726 63.1406 21.7726 63.1406C21.7726 63.1406 22.3348 63.5104 23.4061 63.7652C23.4558 63.7769 23.5022 63.7859 23.5455 63.7923C23.5887 63.7988 23.6292 63.8028 23.6666 63.8045C24.0355 63.8215 24.1317 63.6199 24.1382 63.4155L24.1407 63.4157C24.1435 63.4159 24.1462 63.4163 24.1489 63.4167L24.1491 63.4167C24.1533 63.4173 24.1576 63.4179 24.1622 63.4179C24.2056 63.4179 24.2458 63.4132 24.2841 63.4059C24.3397 63.4701 24.4082 63.5425 24.497 63.6257C24.9539 64.0646 25.6365 64.2136 26.3524 64.3698ZM34.6583 14.3271H33.9088V13.5486H34.6583V14.3271ZM32.5204 50.6201H57.1961V59.984H32.5204V50.6201ZM31.3336 10.1804C31.3336 9.90197 31.2375 9.69536 31.0502 9.56079C30.8627 9.42146 30.6178 9.35435 30.3197 9.35435C30.0555 9.35435 29.8056 9.39757 29.5655 9.47926C29.3299 9.5657 29.1426 9.6474 29.0033 9.73384H28.9697V8.98435C29.1378 8.91706 29.3588 8.85469 29.6231 8.8018C29.8873 8.74892 30.1372 8.72485 30.3726 8.72485C30.9011 8.72485 31.319 8.85468 31.6265 9.10926C31.9292 9.36384 32.0829 9.70502 32.0829 10.123C32.0829 10.3679 32.0397 10.5793 31.9533 10.7665C31.8668 10.9589 31.7563 11.122 31.617 11.2664C31.4777 11.4104 31.3192 11.5403 31.1414 11.665C30.9588 11.7852 30.7716 11.9054 30.5697 12.0206V12.8518H29.9066V11.7276C30.038 11.654 30.1727 11.5743 30.318 11.4884L30.3584 11.4645L30.4255 11.4249C30.6129 11.3193 30.7617 11.2086 30.8819 11.0982C31.0261 10.9733 31.1366 10.8388 31.2134 10.7042C31.2904 10.565 31.3336 10.392 31.3336 10.1806V10.1804ZM28.1866 33.6794C28.2348 33.6554 28.278 33.6315 28.3212 33.6074C28.3959 33.7701 28.4743 33.9361 28.5551 34.1072C28.7655 34.5528 28.9926 35.0336 29.2144 35.5823C30.1994 38.0372 27.97 40.1562 25.7936 38.6332C25.4626 38.3984 25.0648 38.2591 24.6139 38.1918C24.6131 38.1916 24.6124 38.1915 24.6117 38.1913V38.1864C24.6071 38.0599 24.6014 37.931 24.5956 37.801C24.5906 37.6877 24.5855 37.5735 24.5811 37.4591C24.5802 37.4357 24.579 37.4125 24.5782 37.3889V37.3842C24.5772 37.3642 24.5761 37.3447 24.5749 37.3251L24.5748 37.323L24.573 37.2923C24.5699 37.2384 24.5668 37.1847 24.5638 37.1294V37.1006C24.5587 36.9904 24.5533 36.8799 24.5479 36.7695L24.5426 36.6589C24.5097 35.9823 24.4743 35.3065 24.4388 34.6793C24.4376 34.655 24.4362 34.6314 24.4347 34.6074L24.4347 34.6071L24.4339 34.5938C24.4211 34.3738 24.4083 34.1572 24.3956 33.9489V33.9393C24.3821 33.7221 24.3709 33.5146 24.3605 33.32L24.3604 33.3186C24.3561 33.2381 24.3519 33.1598 24.3477 33.084V33.0793C24.3416 32.973 24.3357 32.873 24.3301 32.7789L24.33 32.7778C24.3243 32.6822 24.319 32.5927 24.3143 32.5089C24.3126 32.4777 24.3107 32.4459 24.3092 32.4162C24.3084 32.4131 24.3083 32.4102 24.3082 32.4074L24.3082 32.4072C24.3082 32.4054 24.3081 32.4036 24.3078 32.4018L24.3076 32.3998C24.306 32.3878 24.3044 32.3765 24.3044 32.3633C24.3044 32.3489 24.3033 32.3333 24.3021 32.3176C24.3009 32.302 24.2997 32.2864 24.2997 32.272V32.2528C24.295 32.2289 24.295 32.2001 24.295 32.176C24.2902 32.152 24.2902 32.1281 24.2902 32.1038C24.2897 32.0981 24.2895 32.0933 24.289 32.0877C24.2871 32.0615 24.2853 32.037 24.2837 32.0142C24.2825 31.9969 24.2813 31.9806 24.2803 31.9653C24.2766 31.9124 24.2738 31.872 24.2711 31.8445V31.806V31.7964L24.2712 31.7969C24.2792 31.8145 25.2674 33.997 26.9231 34.0833C26.9705 34.0833 27.0151 34.0828 27.0655 34.0793C27.0711 34.0789 27.0758 34.0789 27.0816 34.0784C27.088 34.0784 27.0968 34.0772 27.106 34.0757C27.1077 34.0755 27.1088 34.0754 27.1105 34.075C27.1163 34.074 27.1224 34.0728 27.1282 34.0714C27.132 34.0706 27.1357 34.0697 27.1392 34.0687C27.1668 34.0687 27.1955 34.0635 27.2256 34.0571C27.2287 34.0564 27.2316 34.0562 27.2344 34.056C27.2378 34.0557 27.2412 34.0554 27.245 34.0545C27.2459 34.0544 27.2469 34.0541 27.2479 34.0538L27.2492 34.0535L27.2548 34.0523C27.2757 34.048 27.2968 34.0436 27.3219 34.0352C27.3248 34.0348 27.3275 34.0341 27.3302 34.0335C27.3321 34.0331 27.3339 34.0327 27.3358 34.0323C27.3556 34.0286 27.3745 34.0236 27.3957 34.0181C27.4043 34.0158 27.4132 34.0135 27.4227 34.0111C27.4278 34.0091 27.4346 34.0071 27.4402 34.005C27.4605 33.9974 27.4817 33.9899 27.5044 33.9823C27.5258 33.9762 27.5472 33.9686 27.5686 33.9611L27.5751 33.9588C27.5791 33.9573 27.5832 33.9561 27.5873 33.9549C27.5933 33.9531 27.5993 33.9513 27.6053 33.9488C27.607 33.9483 27.6087 33.9475 27.6103 33.9468C27.6117 33.9461 27.6131 33.9455 27.6146 33.945C27.6407 33.9367 27.6646 33.9262 27.6906 33.9148L27.7014 33.9101C27.7075 33.9081 27.7144 33.9052 27.7214 33.9023C27.726 33.9003 27.7306 33.8984 27.7349 33.8967C27.7555 33.8886 27.7756 33.8811 27.7975 33.8716C27.8126 33.8652 27.8292 33.8577 27.8446 33.8503C27.8458 33.8497 27.8471 33.8491 27.8483 33.8485C27.8494 33.8481 27.8504 33.8476 27.8514 33.8471L27.8613 33.8427L27.8702 33.8387C27.8733 33.8373 27.8762 33.8359 27.8791 33.8345C27.8869 33.8307 27.8945 33.827 27.9033 33.8237C27.9321 33.8093 27.9611 33.7949 27.9946 33.7804L28.0399 33.7578L28.1099 33.7226C28.1216 33.7156 28.1346 33.7086 28.1475 33.7015C28.161 33.6941 28.1744 33.6867 28.1866 33.6794ZM29.8731 13.5486H30.6273V14.3271H29.8731V13.5486ZM13.5211 33.4256L13.5209 33.4274L13.5213 33.4247L13.5211 33.4256ZM13.5283 33.3765C13.5265 33.3885 13.5245 33.4025 13.5224 33.4178C13.5235 33.4113 13.5244 33.4053 13.5255 33.3991C13.527 33.3898 13.5283 33.3813 13.5295 33.3733C13.5314 33.3611 13.5331 33.3511 13.5343 33.3428L13.5353 33.3362L13.5359 33.332C13.5361 33.3307 13.5363 33.3295 13.5365 33.3284L13.5378 33.3189C13.5378 33.3189 13.5331 33.3238 13.5331 33.3333C13.5331 33.3374 13.5323 33.3423 13.5313 33.348C13.5299 33.3559 13.5283 33.3654 13.5283 33.3765Z" fill="#221F1F"/>
<path fill-rule="evenodd" clip-rule="evenodd" d="M52.6545 42.9671C54.4329 42.9671 55.9182 42.1213 56.2782 40.9929V40.9928H55.9174L52.8037 33.8091C53.5025 33.6772 53.4484 33.125 53.2334 32.9367C53.0167 32.7472 52.8001 32.8916 52.7459 33C52.7459 33 52.9626 33.3611 52.4209 33.3611C52.2468 33.3611 51.7507 33.1498 51.0737 32.8615C49.6654 32.2618 47.4741 31.3286 45.7692 31.2699V30.8814H46.1303C46.1303 30.8814 45.7502 30.6337 45.5881 30.0069C45.9564 29.8965 46.2248 29.5553 46.2248 29.1511C46.2248 28.6575 45.8247 28.2573 45.3311 28.2573C44.8375 28.2573 44.4374 28.6575 44.4374 29.1511C44.4374 29.5438 44.6911 29.8767 45.0433 29.9966C44.9945 30.2095 44.8683 30.6039 44.5655 30.8815H44.8544V31.2718C43.1558 31.3445 40.9895 32.267 39.593 32.8617C38.9161 33.15 38.42 33.3612 38.2459 33.3612C37.7042 33.3612 37.921 33.0001 37.921 33.0001C37.8668 32.8917 37.6502 32.7472 37.4335 32.9368C37.2179 33.1254 37.1639 33.6798 37.8673 33.8101L34.7072 40.9888L34.7166 40.9929H34.3936C34.7535 42.1213 36.2388 42.9671 38.0172 42.9671C39.7956 42.9671 41.2808 42.1213 41.6408 40.9929H41.28L38.1751 33.8295C38.9313 33.804 40.0394 33.3612 40.0394 33.3612C42.4459 32.3654 44.3682 32.4422 44.8543 32.4825V44.5132V46.5211V48.3547H45.7692V32.4862C46.1724 32.4484 48.1417 32.3327 50.6274 33.3612C50.6274 33.3612 51.7398 33.8056 52.496 33.8295L49.3445 40.9888L49.3538 40.9929H49.0309C49.3908 42.1213 50.8761 42.9671 52.6545 42.9671ZM38.0161 34.1889L35.0209 40.9928H40.965L38.0161 34.1889ZM52.6535 34.189L55.6024 40.9929H49.6583L52.6535 34.189Z" fill="#014898"/>
</svg>
