<svg width="81" height="70" viewBox="0 0 81 70" fill="none" xmlns="http://www.w3.org/2000/svg">
<path d="M68.462 33.4501C68.103 33.6322 67.1146 34.0798 66.0066 34.111C64.8985 34.137 64.5968 34.2567 64.5084 34.3191C64.4148 34.3763 62.4431 41.6381 61.3041 42.3612C60.1648 43.0791 58.8486 42.3716 58.339 41.9554C57.8292 41.5341 57.0229 40.3688 57.0229 40.3688L60.014 37.3725C60.014 37.3725 60.4665 38.1059 60.9451 38.2879C61.4237 38.4648 63.0674 34.6153 63.2495 33.7206C63.4315 32.8207 64.0298 32.6696 64.7477 33.0027C65.4656 33.3305 67.8896 33.2679 68.5503 32.9403C69.2111 32.6126 68.8209 33.2679 68.462 33.4501ZM49.3085 67.3096L50.6766 67.2368H50.6818L50.739 65.8219L49.0951 66.0975L49.3085 67.3096ZM53.6728 67.2368H53.678L55.0512 67.3096L55.3478 65.6033L53.6051 65.5617L53.6728 67.2368ZM55.8212 26.7293C55.7537 26.693 55.6808 26.6774 55.6131 26.6669C55.4986 26.8176 55.3946 26.9996 55.301 27.2964C55.1345 27.8218 54.6871 28.2848 54.6871 28.2848C54.6871 28.2848 54.8952 26.9947 54.6247 26.5473C54.3542 26.0999 54.3698 26.7554 52.4712 25.8762C50.5672 24.992 49.3553 25.1843 48.8299 25.6473C48.3097 26.1157 48.0236 26.8906 48.008 27.3276C47.9924 27.7594 47.9768 27.957 47.9768 27.957C47.9768 27.957 47.9612 26.8178 47.5606 26.5317C47.4305 26.4432 47.3473 26.3964 47.2901 26.3704C47.2484 26.3704 47.2067 26.3652 47.1548 26.3704C46.6294 26.3808 46.5982 27.4314 46.9155 27.9258C47.2277 28.42 47.6958 28.238 47.9612 28.5553C48.2317 28.8674 48.112 29.9911 49.5634 30.6517L49.5062 31.4581C49.5062 31.4581 49.6831 32.2955 50.5674 32.4935C51.4518 32.686 52.1541 31.5361 52.1541 31.5361V30.7872C52.1541 30.7872 53.8343 30.5479 54.5522 28.8416C54.5522 28.8416 55.5094 28.6595 55.8111 28.1495C56.1075 27.6396 56.1699 26.8905 55.8212 26.7293Z" fill="#FFD2BB"/>
<path d="M49.0229 67.3254L50.6771 67.2369L49.3089 67.3098L49.0956 66.0986L48.7886 66.1498L46.9314 54.4611V61.6607H21.8945V24.6486H46.9314V26.4592C46.9927 26.4058 47.0665 26.3722 47.1553 26.3703C47.1553 26.3703 47.0513 24.4664 47.842 23.5248C48.6379 22.578 49.6575 21.8603 51.0308 21.8447C52.4093 21.8343 53.8605 19.7795 55.2235 19.587C55.8355 19.4983 56.5921 19.5359 57.3001 19.7507C56.7089 17.3048 56.6176 14.7688 57.0388 12.1275C58.7139 1.58835 37.2975 -1.24675 31.7626 2.70154C26.5347 6.43658 26.1342 9.01164 23.3771 16.2008C20.6252 23.3846 11.1994 23.0256 6.85049 26.9791C2.48085 30.9429 -3.83439 40.9567 6.97014 53.5714C16.052 64.1706 29.2989 68.2328 46.6378 69.0183C46.5714 68.9069 46.3581 68.4872 46.7028 68.1785C47.1085 67.8196 47.6807 67.7988 48.0241 67.8873C48.3726 67.9755 49.0229 67.3254 49.0229 67.3254Z" fill="#F6F6F6"/>
<path d="M55.616 26.6676C55.683 26.6781 55.7549 26.6937 55.8216 26.7295C56.1702 26.8906 56.1078 27.6397 55.8115 28.1497C55.5098 28.6597 54.5526 28.8417 54.5526 28.8417C53.8347 30.548 52.1544 30.7873 52.1544 30.7873V31.5355C52.1579 31.5335 52.2686 31.4773 52.872 31.7128C53.1826 31.8339 53.5279 31.6912 53.9275 31.526C54.3173 31.3649 54.7588 31.1824 55.2701 31.203C56.3053 31.2498 56.9608 31.385 57.8608 33.0288C58.3654 33.9535 59.0287 34.9812 59.5406 35.7744C59.9417 36.3959 60.2499 36.8734 60.3162 37.0448C60.3435 37.1156 60.2512 37.2712 60.0837 37.4771C60.2277 37.686 60.5786 38.1484 60.9454 38.2881C61.424 38.465 63.0678 34.6154 63.2498 33.7208C63.4319 32.8208 64.0301 32.6698 64.748 33.0029C65.0767 33.153 65.7632 33.2203 66.4741 33.2187C63.1283 30.3535 60.6303 27.381 59.009 24.2651C58.6684 24.8593 58.2032 25.3263 57.7567 25.5277C57.322 25.7248 56.9651 25.8633 56.6807 25.9736C56.2674 26.1339 56.0072 26.2348 55.884 26.3703C55.8621 26.3938 55.8403 26.4169 55.8184 26.4399C55.7502 26.5117 55.6822 26.5834 55.616 26.6676Z" fill="#F6F6F6"/>
<path fill-rule="evenodd" clip-rule="evenodd" d="M47.0406 69.0353C50.0871 69.1642 53.2581 69.1939 56.5551 69.1409C72.6448 68.8808 89.6187 47.8181 75.7239 39.6771C72.5139 37.7951 69.701 35.8747 67.2924 33.9041C66.9091 34.0124 66.4686 34.0981 66.0067 34.1111C64.8987 34.1372 64.597 34.2568 64.5085 34.3192C64.4876 34.332 64.3728 34.7048 64.1945 35.2842C63.575 37.2964 62.1886 41.7999 61.3042 42.3613C60.165 43.0792 58.8488 42.3718 58.3392 41.9556C57.8294 41.5342 57.023 40.3687 57.023 40.3687L57.861 48.9937L55.676 65.6088L53.2206 65.5515L51.7797 54.1697L50.9421 65.7908L50.7392 65.8246L50.6821 67.2369H50.6771C50.6771 67.2369 50.8434 67.2369 50.9423 67.2786C51.0412 67.3254 51.0932 68.2563 51.0412 68.5165C50.9944 68.7766 50.8748 68.9172 50.8748 68.9172L47.0406 69.0353ZM56.3314 67.8873C56.6747 67.7986 57.2469 67.8196 57.6525 68.1787C58.0531 68.5377 57.6993 69.0474 57.6993 69.0474L53.4805 68.9173C53.4805 68.9173 53.3608 68.7768 53.314 68.5167C53.2621 68.2565 53.314 67.3255 53.4129 67.2787C53.5119 67.2369 53.6783 67.2369 53.6783 67.2369H53.6732L53.6055 65.5618L55.3481 65.6035L55.0515 67.3098L53.6783 67.2369L55.3325 67.3254C55.3325 67.3254 55.9829 67.9755 56.3314 67.8873Z" fill="#F6F6F6"/>
<path fill-rule="evenodd" clip-rule="evenodd" d="M26.0924 39.3752H23.7776V41.534H26.0924V39.3752ZM31.6534 26.7658V28.7738H32.8239V28.4514H32.028V26.7658H31.6534ZM26.0924 34.7664H23.7776V36.92H26.0924V34.7664ZM45.345 30.2043L23.0598 30.1938V30.4331L45.345 30.4436V30.2043ZM23.7776 51.0536H26.0924V48.9001H23.7776V51.0536ZM26.0924 43.9269H23.7776V46.0857H26.0924V43.9269ZM36.5018 28.7736V27.0936H37.0792V26.7658H35.5551V27.0936H36.1273V28.7736H36.5018ZM34.7381 27.0778C34.9671 27.0778 35.175 27.1143 35.378 27.187V26.8541C35.175 26.7866 34.9669 26.7554 34.7381 26.7554C34.1556 26.7554 33.8642 26.9583 33.864 27.369C33.864 27.7436 34.067 27.9309 34.4779 27.9309H34.7952C34.9825 27.9309 35.0761 28.0089 35.0761 28.1598C35.0761 28.3627 34.9199 28.4668 34.6131 28.4668C34.3635 28.4668 34.1347 28.4305 33.9317 28.3523V28.6905C34.1345 28.758 34.3634 28.7892 34.6131 28.7892C35.1697 28.7892 35.4507 28.5811 35.4507 28.1598C35.4507 27.7852 35.2321 27.5979 34.7952 27.5979H34.4779C34.3167 27.5979 34.2334 27.5199 34.2334 27.369C34.2334 27.1765 34.4052 27.0778 34.7381 27.0778ZM33.1724 26.7658V28.7736H33.5469V26.7658H33.1724ZM47.1553 26.3703C47.1553 26.3703 47.1585 26.3179 47.2853 26.3703C47.2733 26.3702 47.2614 26.3698 47.2492 26.3693C47.2205 26.3681 47.1904 26.3669 47.1553 26.3703Z" fill="#FF0D1B"/>
<path d="M49.5065 31.4582L49.5638 30.6519C48.5072 30.171 48.2832 29.4447 48.1351 28.9647C48.0798 28.7853 48.0351 28.6404 47.9615 28.5554C47.8458 28.4172 47.6917 28.3735 47.5289 28.3272C47.324 28.2691 47.1052 28.2071 46.9314 27.948V30.0689C47.3113 30.1208 48.4091 30.3662 49.5065 31.4582Z" fill="#F6F6F6"/>
<path d="M21.8945 24.6487V61.6608H46.9314V24.6487H21.8945ZM35.5549 26.7659H37.0792V27.0936H36.5018V28.7737H36.1273V27.0936H35.5551V26.7659H35.5549ZM34.7381 26.7554C34.9669 26.7554 35.175 26.7866 35.378 26.8541V27.187C35.175 27.1144 34.9671 27.0778 34.7381 27.0778C34.4052 27.0778 34.2334 27.1766 34.2334 27.3691C34.2334 27.5199 34.3167 27.5979 34.4779 27.5979H34.7951C35.2321 27.5979 35.4507 27.7853 35.4507 28.1598C35.4507 28.5812 35.1697 28.7893 34.6131 28.7893C34.3633 28.7893 34.1345 28.7581 33.9317 28.6906V28.3523C34.1347 28.4305 34.3635 28.4669 34.6131 28.4669C34.9199 28.4669 35.0761 28.3628 35.0761 28.1598C35.0761 28.009 34.9825 27.931 34.7951 27.931H34.4779C34.067 27.931 33.864 27.7436 33.864 27.3691C33.8642 26.9584 34.1556 26.7554 34.7381 26.7554ZM33.1723 26.7659H33.5469V28.7737H33.1723V26.7659ZM31.6534 26.7659H32.028V28.4514H32.8238V28.7739H31.6534V26.7659ZM26.0924 51.0537H23.7776V48.9002H26.0924V51.0537ZM26.0924 46.0858H23.7776V43.9269H26.0924V46.0858ZM26.0924 41.5341H23.7776V39.3753H26.0924V41.5341ZM26.0924 36.92H23.7776V34.7665H26.0924V36.92ZM45.345 30.4437L23.0598 30.4332V30.1939L45.345 30.2044V30.4437Z" fill="#DCDCDC"/>
<path d="M46.9316 49.6595V54.461L48.7888 66.1496L50.9423 65.7907L51.7799 54.1695L53.2208 65.5514L55.6762 65.6087L57.8611 48.9935C57.861 48.9935 53.8503 50.4657 46.9316 49.6595ZM65.6483 30.5005H66.9904V31.7438H65.6483V30.5005ZM66.9124 24.4923C66.2725 24.4923 65.5962 24.5756 64.8837 24.7474V25.8138C65.5962 25.642 66.2727 25.5589 66.9124 25.5589C67.8279 25.5589 68.2856 25.8606 68.2856 26.4691C68.2856 27.2494 67.8538 27.6397 66.9904 27.6397H65.6483V29.8661H66.9904V28.7008C68.6811 28.7008 69.5289 27.9569 69.5289 26.4691C69.5289 25.1531 68.655 24.4923 66.9124 24.4923Z" fill="#014898"/>
<path d="M50.9423 67.2785C51.0412 67.3253 51.0931 68.2563 51.0412 68.5165C50.9944 68.7765 50.8748 68.9171 50.8748 68.9171L46.656 69.0472C46.656 69.0472 46.3022 68.5374 46.7028 68.1785C47.1085 67.8195 47.6807 67.7988 48.0241 67.8872C48.3726 67.9755 49.0229 67.3253 49.0229 67.3253L50.6771 67.2369C50.6771 67.2369 50.8434 67.2369 50.9423 67.2785ZM56.3313 67.8872C55.9828 67.9755 55.3325 67.3253 55.3325 67.3253L53.6783 67.2369C53.6783 67.2369 53.5118 67.2369 53.4129 67.2787C53.314 67.3255 53.2621 68.2565 53.314 68.5167C53.3608 68.7767 53.4805 68.9173 53.4805 68.9173L57.6992 69.0474C57.6992 69.0474 58.0531 68.5376 57.6525 68.1786C57.2469 67.8195 56.6747 67.7986 56.3313 67.8872ZM47.5609 26.5316C47.9615 26.8177 47.9771 27.9569 47.9771 27.9569C47.9771 27.9569 47.9927 27.7593 48.0083 27.3275C48.0239 26.8906 48.31 26.1156 48.8302 25.6472C49.3556 25.1844 50.5677 24.9919 52.4715 25.8761C54.3701 26.7553 54.3545 26.1 54.625 26.5472C54.8955 26.9944 54.6874 28.2847 54.6874 28.2847C54.6874 28.2847 55.1348 27.8219 55.3013 27.2963C55.4626 26.7709 55.6758 26.594 55.8839 26.3703C56.092 26.1414 56.6903 26.0113 57.7567 25.5276C58.8179 25.049 59.9884 23.0722 59.3277 21.4441C58.6671 19.8106 56.5862 19.3893 55.2235 19.5869C53.8605 19.7794 52.4093 21.8342 51.0307 21.8447C49.6575 21.8603 48.6379 22.578 47.842 23.5247C47.0513 24.4663 47.1553 26.3703 47.1553 26.3703C47.1553 26.3703 47.1551 26.2506 47.5609 26.5316ZM60.3161 37.0447C60.1653 36.6546 58.7607 34.6779 57.8607 33.0287C56.9608 31.385 56.3053 31.2497 55.2701 31.2029C54.2349 31.1613 53.4858 31.952 52.8719 31.7127C52.2581 31.4732 52.154 31.5356 52.154 31.5356C52.154 31.5356 51.4517 32.6855 50.5674 32.493C49.683 32.2952 49.5061 31.4576 49.5061 31.4576C48.4085 30.3654 47.3109 30.1208 46.9312 30.0688V49.6594C53.8499 50.4658 57.8606 48.9934 57.8606 48.9934L57.023 40.3687C57.023 40.3687 60.467 37.4349 60.3161 37.0447Z" fill="#221F1F"/>
<rect x="13.6211" y="29.5181" width="1.36561" height="5.49433" transform="rotate(-15 13.6211 29.5181)" fill="#014898"/>
<rect x="15.2227" y="35.4958" width="1.36523" height="1.2377" transform="rotate(-15 15.2227 35.4958)" fill="#014898"/>
<path fill-rule="evenodd" clip-rule="evenodd" d="M7.89744 13.6442C7.61322 12.7517 8.13907 11.7874 9.07196 11.4903C9.52595 11.3457 9.99268 11.386 10.3846 11.5678C10.5993 11.1928 10.9568 10.8901 11.4108 10.7455C12.3437 10.4484 13.3303 10.9311 13.6145 11.8236C13.8627 12.6028 13.6124 13.467 13.2272 14.1818C12.8403 14.8997 12.2865 15.5247 11.8365 15.8433C11.7887 15.8772 11.7312 15.8955 11.6726 15.8955C11.1212 15.8958 10.3079 15.7062 9.57708 15.3442C8.84953 14.9838 8.14557 14.4234 7.89744 13.6442ZM9.2303 11.9875C8.58446 12.1932 8.22041 12.8608 8.41717 13.4787C8.60449 14.0669 9.16076 14.5427 9.83498 14.8767C10.4624 15.1875 11.1417 15.3499 11.5953 15.3695C11.9541 15.0912 12.4143 14.5659 12.7465 13.9495C13.1035 13.2872 13.2821 12.5773 13.0948 11.9891C12.898 11.3712 12.215 11.037 11.5691 11.2427C11.1738 11.3686 10.8839 11.6673 10.7636 12.023C10.736 12.1046 10.6693 12.1692 10.5847 12.1961C10.5002 12.223 10.4084 12.2089 10.3387 12.1583C10.0348 11.9377 9.62559 11.8616 9.2303 11.9875Z" fill="#FF0D1B"/>
<path d="M8.41717 13.4787C8.22041 12.8608 8.58446 12.1932 9.2303 11.9875C9.62559 11.8616 10.0348 11.9377 10.3387 12.1583C10.4084 12.2089 10.5002 12.223 10.5847 12.1961C10.6693 12.1692 10.736 12.1046 10.7636 12.023C10.8839 11.6673 11.1738 11.3686 11.5691 11.2427C12.215 11.037 12.898 11.3712 13.0948 11.9891C13.2821 12.5773 13.1035 13.2872 12.7465 13.9495C12.4143 14.5659 11.9541 15.0912 11.5953 15.3695C11.1417 15.3499 10.4624 15.1875 9.83498 14.8767C9.16076 14.5427 8.60449 14.0669 8.41717 13.4787Z" fill="#FF0D1B"/>
<path fill-rule="evenodd" clip-rule="evenodd" d="M64.6537 16.8248C64.839 16.3693 65.3752 16.157 65.8514 16.3507C66.0831 16.445 66.2578 16.6181 66.3548 16.8232C66.5674 16.744 66.8133 16.7421 67.045 16.8363C67.5212 17.03 67.7569 17.5563 67.5716 18.0118C67.4098 18.4095 67.0184 18.674 66.6228 18.8328C66.2255 18.9924 65.792 19.0584 65.5034 19.0356C65.4728 19.0332 65.4434 19.0213 65.4198 19.0016C65.1973 18.8164 64.933 18.4666 64.7599 18.075C64.5875 17.6851 64.4919 17.2225 64.6537 16.8248ZM65.7481 16.6045C65.4185 16.4704 65.0473 16.6173 64.919 16.9327C64.7969 17.2329 64.8613 17.6118 65.021 17.9731C65.1697 18.3093 65.389 18.6031 65.5654 18.7634C65.8037 18.7718 66.1658 18.7146 66.507 18.5776C66.8736 18.4304 67.1842 18.2041 67.3063 17.9039C67.4346 17.5886 67.2714 17.2242 66.9418 17.0901C66.74 17.008 66.5227 17.0311 66.3547 17.1341C66.3161 17.1578 66.2675 17.1614 66.2243 17.1438C66.1812 17.1263 66.1489 17.0897 66.1378 17.0459C66.0894 16.8548 65.9499 16.6866 65.7481 16.6045Z" fill="#FF0D1B"/>
<path d="M64.919 16.9327C65.0473 16.6173 65.4185 16.4704 65.7481 16.6045C65.9499 16.6866 66.0894 16.8548 66.1378 17.0459C66.1489 17.0897 66.1812 17.1263 66.2243 17.1438C66.2675 17.1614 66.3161 17.1578 66.3547 17.1341C66.5227 17.0311 66.74 17.008 66.9418 17.0901C67.2714 17.2242 67.4346 17.5886 67.3063 17.9039C67.1842 18.2041 66.8736 18.4304 66.507 18.5776C66.1658 18.7146 65.8037 18.7718 65.5654 18.7634C65.389 18.6031 65.1697 18.3093 65.021 17.9731C64.8613 17.6118 64.7969 17.2329 64.919 16.9327Z" fill="#FF0D1B"/>
<path fill-rule="evenodd" clip-rule="evenodd" d="M13 66.3568C13 65.6075 13.6614 65 14.4773 65C14.8743 65 15.2347 65.144 15.5 65.3777C15.7653 65.144 16.1257 65 16.5227 65C17.3386 65 18 65.6075 18 66.3568C18 67.011 17.5827 67.6091 17.0962 68.0604C16.6074 68.5137 16.0096 68.8557 15.5717 68.9893C15.5251 69.0036 15.4749 69.0036 15.4283 68.9893C14.9904 68.8557 14.3926 68.5137 13.9038 68.0604C13.4173 67.6091 13 67.011 13 66.3568ZM14.4773 65.4175C13.9124 65.4175 13.4545 65.838 13.4545 66.3568C13.4545 66.8506 13.7759 67.3484 14.2268 67.7666C14.6465 68.1558 15.1447 68.4446 15.5 68.5696C15.8553 68.4446 16.3535 68.1558 16.7732 67.7666C17.2241 67.3484 17.5455 66.8506 17.5455 66.3568C17.5455 65.838 17.0876 65.4175 16.5227 65.4175C16.177 65.4175 15.8713 65.5748 15.6858 65.8167C15.6433 65.8722 15.5739 65.9053 15.5 65.9053C15.4261 65.9053 15.3567 65.8722 15.3142 65.8167C15.1287 65.5748 14.823 65.4175 14.4773 65.4175Z" fill="#FF0D1B"/>
<path d="M13.4545 66.3568C13.4545 65.838 13.9124 65.4175 14.4773 65.4175C14.823 65.4175 15.1287 65.5748 15.3142 65.8167C15.3567 65.8722 15.4261 65.9053 15.5 65.9053C15.5739 65.9053 15.6433 65.8722 15.6858 65.8167C15.8713 65.5748 16.177 65.4175 16.5227 65.4175C17.0876 65.4175 17.5455 65.838 17.5455 66.3568C17.5455 66.8506 17.2241 67.3484 16.7732 67.7666C16.3535 68.1558 15.8553 68.4446 15.5 68.5696C15.1447 68.4446 14.6465 68.1558 14.2268 67.7666C13.7759 67.3484 13.4545 66.8506 13.4545 66.3568Z" fill="#FF0D1B"/>
</svg>
