<svg width="91" height="60" viewBox="0 0 91 60" fill="none" xmlns="http://www.w3.org/2000/svg">
<g clip-path="url(#clip0_206_114208)">
<path d="M74.3729 35.9219C74.4324 35.9042 74.4932 35.8913 74.5548 35.8832L77.0124 30.9115L76.2621 29.7916L77.8117 28.4434L79.7596 30.8165L75.7923 36.5649C75.8899 36.7823 75.9187 37.0242 75.8749 37.2583C75.8311 37.4924 75.7168 37.7077 75.5471 37.8755C75.3774 38.0433 75.1604 38.1557 74.925 38.1978C74.6895 38.2398 74.4468 38.2095 74.2291 38.1109C74.0114 38.0123 73.829 37.85 73.7062 37.6456C73.5834 37.4413 73.526 37.2046 73.5416 36.9669C73.5572 36.7293 73.6451 36.5021 73.7936 36.3154C73.9421 36.1287 74.1442 35.9915 74.3729 35.9219Z" fill="#FFD2BB"/>
<path d="M78.5675 29.1304C78.534 29.1655 78.4956 29.1956 78.4534 29.2198L75.9389 30.6711C75.8785 30.706 75.8115 30.728 75.742 30.7358C75.6726 30.7436 75.6023 30.7369 75.5356 30.7162C75.4689 30.6956 75.4072 30.6613 75.3545 30.6157C75.3018 30.5701 75.2591 30.5141 75.2292 30.4512L74.0062 27.8789C73.9542 27.7706 73.943 27.6474 73.9747 27.5316C74.0064 27.4158 74.0788 27.3152 74.1788 27.2481L75.7375 26.1925C75.8348 26.1266 75.9522 26.0966 76.0693 26.1077C76.1865 26.1188 76.2961 26.1703 76.3792 26.2532L78.5579 28.4299C78.6505 28.5226 78.7034 28.6475 78.7052 28.7782C78.707 28.9089 78.6576 29.0352 78.5675 29.1304Z" fill="#FF0D1B"/>
<path d="M82.0988 57.6187L80.7712 57.9784L78.7461 53.0513L80.7056 52.5205L82.0988 57.6187Z" fill="#FFD2BB"/>
<path d="M79.7195 57.8582L82.2799 57.1647L82.7185 58.7697L78.546 59.8999C78.4884 59.6891 78.4731 59.4691 78.5009 59.2525C78.5287 59.0358 78.5991 58.8267 78.7081 58.6371C78.817 58.4475 78.9624 58.2812 79.136 58.1475C79.3095 58.0139 79.5078 57.9156 79.7195 57.8582Z" fill="#221F1F"/>
<path d="M70.7491 58.6274L69.3734 58.6273L68.7188 53.3438L70.7494 53.3439L70.7491 58.6274Z" fill="#FFD2BB"/>
<path d="M68.3894 58.2363H71.0429V59.8997H66.7188C66.7187 59.6812 66.762 59.4649 66.8459 59.2631C66.9299 59.0613 67.0529 58.878 67.2081 58.7235C67.3632 58.5691 67.5474 58.4465 67.7501 58.3629C67.9528 58.2793 68.17 58.2363 68.3894 58.2363Z" fill="#221F1F"/>
<path d="M72.1978 24.4387C73.7201 24.4387 74.9542 23.2101 74.9542 21.6944C74.9542 20.1788 73.7201 18.9502 72.1978 18.9502C70.6755 18.9502 69.4414 20.1788 69.4414 21.6944C69.4414 23.2101 70.6755 24.4387 72.1978 24.4387Z" fill="#FFD2BB"/>
<path d="M70.664 54.8605H68.7838C68.6552 54.8603 68.5316 54.8114 68.4379 54.7238C68.3442 54.6362 68.2875 54.5164 68.2792 54.3887C67.719 45.5215 68.0467 39.1609 69.3106 34.3715C69.3161 34.3506 69.3229 34.33 69.331 34.3099L69.4317 34.0593C69.4689 33.9658 69.5336 33.8856 69.6172 33.8292C69.7009 33.7728 69.7996 33.7428 69.9007 33.7432H73.7671C73.8399 33.7431 73.9119 33.7588 73.9781 33.7891C74.0443 33.8194 74.1031 33.8636 74.1505 33.9187L74.6757 34.5288C74.6859 34.5407 74.6955 34.5528 74.7047 34.5656C77.0728 37.8534 79.195 44.2811 81.6529 52.9207C81.6892 53.0462 81.6748 53.1809 81.6128 53.2961C81.5508 53.4112 81.446 53.4977 81.3209 53.5371L79.3003 54.1808C79.1843 54.2172 79.059 54.2109 78.9473 54.1631C78.8355 54.1153 78.7448 54.0291 78.6915 53.9203L73.448 43.0926C73.4113 43.017 73.3511 42.9551 73.2764 42.9161C73.2016 42.8771 73.1162 42.8632 73.0329 42.8763C72.9495 42.8894 72.8726 42.9289 72.8135 42.9889C72.7545 43.0489 72.7164 43.1263 72.705 43.2095L71.1643 54.4258C71.1474 54.5461 71.0875 54.6562 70.9956 54.7361C70.9037 54.8159 70.7859 54.8601 70.664 54.8605Z" fill="#E27C0F"/>
<path d="M74.4649 34.5736C74.4596 34.5736 74.4543 34.5734 74.449 34.5733L69.7525 34.4257C69.6318 34.4223 69.5163 34.3759 69.4271 34.2948C69.3379 34.2137 69.281 34.1033 69.2668 33.9839C68.6714 29.186 70.3042 27.9006 71.0338 27.5708C71.0948 27.5434 71.1476 27.5008 71.1872 27.4471C71.2267 27.3934 71.2517 27.3304 71.2596 27.2643L71.3228 26.7614C71.3335 26.6726 71.368 26.5883 71.4226 26.5172C72.5665 25.0418 74.1286 24.5693 74.958 24.419C75.0252 24.407 75.0943 24.4087 75.1608 24.4241C75.2274 24.4394 75.2902 24.468 75.3453 24.5083C75.4004 24.5485 75.4467 24.5995 75.4815 24.6581C75.5162 24.7167 75.5386 24.7817 75.5473 24.8492L75.6419 25.5713C75.6515 25.6402 75.6791 25.7053 75.7219 25.7603C78.1078 28.8655 75.4498 33.4505 74.8928 34.338C74.8473 34.41 74.7842 34.4695 74.7093 34.5107C74.6345 34.5518 74.5504 34.5735 74.4649 34.5736Z" fill="#FF0D1B"/>
<path d="M77.7586 22.0038C77.1437 21.1418 76.4063 20.3732 75.5696 19.7222C74.874 19.1812 74.0997 18.7191 73.2454 18.498C72.3911 18.2769 71.4477 18.3145 70.6683 18.7269C69.8889 19.1393 69.0831 19.9587 69.0781 20.8375C69.0766 21.1198 69.1487 21.5017 69.428 21.4529L69.5088 21.4636C70.1824 21.3281 70.856 21.1926 71.5296 21.0572C71.8165 22.0485 72.1034 23.0397 72.3903 24.031C72.4508 24.2399 72.5319 24.4736 72.7311 24.5627C72.9187 24.6466 73.1356 24.5675 73.3254 24.4886C73.3567 24.4756 73.6249 23.8761 73.6249 23.8761C73.6316 23.8574 73.6432 23.8408 73.6586 23.828C73.6739 23.8153 73.6923 23.8068 73.712 23.8035C73.7318 23.8002 73.752 23.8022 73.7706 23.8093C73.7893 23.8164 73.8057 23.8284 73.8182 23.8439L73.9776 24.0422C74.008 24.0801 74.05 24.1071 74.0972 24.1191C74.1445 24.1311 74.1943 24.1275 74.2393 24.1088C75.3378 23.6522 76.4363 23.1957 77.5349 22.7391C77.6867 22.676 77.8564 22.5936 77.9004 22.4358C77.9426 22.2846 77.8498 22.1317 77.7586 22.0038Z" fill="#221F1F"/>
<path d="M90.3884 59.9998H56.6083C56.5786 59.9998 56.55 59.9881 56.529 59.9671C56.5079 59.9461 56.4961 59.9177 56.4961 59.8881C56.4961 59.8585 56.5079 59.83 56.529 59.8091C56.55 59.7881 56.5786 59.7764 56.6083 59.7764H90.3884C90.4181 59.7764 90.4467 59.7881 90.4677 59.8091C90.4888 59.83 90.5006 59.8585 90.5006 59.8881C90.5006 59.9177 90.4888 59.9461 90.4677 59.9671C90.4467 59.9881 90.4181 59.9998 90.3884 59.9998Z" fill="#3F3D56"/>
<path d="M72.0747 42.5886C71.9984 42.5883 71.9241 42.5638 71.8627 42.5187L71.3519 42.1492C71.3095 42.1184 71.2584 42.1018 71.2059 42.1018C71.1534 42.1018 71.1023 42.1184 71.0599 42.1492L70.549 42.5187C70.4874 42.5633 70.4132 42.5873 70.3371 42.5873C70.2609 42.5873 70.1867 42.5633 70.1251 42.5187C70.0635 42.4742 70.0176 42.4113 69.9941 42.3392C69.9706 42.2671 69.9705 42.1895 69.9941 42.1174L70.1892 41.5195C70.2055 41.4698 70.2056 41.4163 70.1893 41.3666C70.1731 41.3169 70.1415 41.2736 70.0989 41.243L69.5881 40.8734C69.5265 40.8288 69.4806 40.766 69.4571 40.6939C69.4336 40.6218 69.4336 40.5441 69.4571 40.472C69.4806 40.3999 69.5265 40.337 69.5881 40.2925C69.6497 40.2479 69.7239 40.2239 69.8001 40.2239H70.4315C70.484 40.224 70.5351 40.2075 70.5776 40.1768C70.6201 40.1461 70.6516 40.1028 70.6678 40.053L70.8629 39.4552C70.8864 39.383 70.9323 39.3202 70.9939 39.2756C71.0555 39.231 71.1297 39.207 71.2059 39.207C71.282 39.207 71.3562 39.231 71.4178 39.2756C71.4795 39.3202 71.5253 39.383 71.5488 39.4552L71.744 40.053C71.7601 40.1028 71.7917 40.1461 71.8341 40.1768C71.8766 40.2075 71.9277 40.224 71.9802 40.2239H72.6116C72.6878 40.2239 72.762 40.2479 72.8236 40.2925C72.8852 40.337 72.9311 40.3999 72.9546 40.472C72.9781 40.5441 72.9782 40.6218 72.9546 40.6939C72.9311 40.766 72.8852 40.8288 72.8236 40.8734L72.3128 41.2429C72.2703 41.2736 72.2386 41.3169 72.2224 41.3666C72.2062 41.4163 72.2062 41.4698 72.2225 41.5195L72.4177 42.1174C72.4421 42.1894 72.4425 42.2673 72.4189 42.3396C72.3953 42.4119 72.3489 42.4747 72.2867 42.5187C72.2253 42.5638 72.151 42.5883 72.0747 42.5886Z" fill="#014898"/>
<path d="M74.0279 41.3925C74.1722 41.2918 74.2925 41.1607 74.3804 41.0087C74.4684 40.8566 74.5217 40.6872 74.5368 40.5123C74.5518 40.3375 74.5282 40.1615 74.4675 39.9967C74.4069 39.832 74.3107 39.6825 74.1857 39.5587L75.0581 29.0703L72.4607 29.4261L72.4113 39.6165C72.2164 39.8393 72.1104 40.1255 72.1133 40.421C72.1163 40.7164 72.228 41.0005 72.4272 41.2194C72.6265 41.4383 72.8995 41.5768 73.1945 41.6088C73.4895 41.6407 73.786 41.5637 74.0279 41.3925Z" fill="#FFD2BB"/>
<path d="M75.2262 30.5812C75.1776 30.5812 75.1292 30.5742 75.0825 30.5605L72.2942 29.744C72.2271 29.7244 72.1649 29.6911 72.1115 29.6463C72.058 29.6016 72.0145 29.5462 71.9836 29.4838C71.9527 29.4214 71.9352 29.3533 71.9321 29.2839C71.9291 29.2144 71.9405 29.145 71.9657 29.0801L72.9976 26.4261C73.0406 26.314 73.1227 26.221 73.2289 26.1642C73.335 26.1073 73.4582 26.0904 73.5759 26.1164L75.418 26.5151C75.533 26.54 75.6357 26.6042 75.7082 26.6964C75.7808 26.7886 75.8188 26.9032 75.8156 27.0203L75.7299 30.0921C75.7262 30.2227 75.6716 30.3469 75.5776 30.4382C75.4836 30.5295 75.3576 30.5808 75.2262 30.5812Z" fill="#FF0D1B"/>
<path d="M48.9817 43.6868H1.28558C1.0773 43.6866 0.877624 43.6041 0.73035 43.4575C0.583075 43.3108 0.500234 43.112 0.5 42.9047V28.7147C0.500234 28.5074 0.583075 28.3086 0.73035 28.162C0.877624 28.0153 1.0773 27.9328 1.28558 27.9326H48.9817C49.1899 27.9328 49.3896 28.0153 49.5369 28.162C49.6842 28.3086 49.767 28.5074 49.7673 28.7147V42.9047C49.767 43.112 49.6842 43.3108 49.5369 43.4575C49.3896 43.6041 49.1899 43.6866 48.9817 43.6868ZM1.28558 28.1561C1.13681 28.1563 0.99419 28.2152 0.888995 28.3199C0.7838 28.4246 0.724624 28.5666 0.724452 28.7147V42.9047C0.724624 43.0528 0.7838 43.1948 0.888995 43.2995C0.99419 43.4043 1.13681 43.4632 1.28558 43.4633H48.9817C49.1304 43.4632 49.2731 43.4043 49.3783 43.2995C49.4835 43.1948 49.5426 43.0528 49.5428 42.9047V28.7147C49.5426 28.5666 49.4835 28.4246 49.3783 28.3199C49.2731 28.2152 49.1304 28.1563 48.9817 28.1561H1.28558Z" fill="#DCDCDC"/>
<path d="M22.1561 49.6621C22.0626 49.6618 21.9716 49.6318 21.8964 49.5765L21.2705 49.1239C21.2186 49.0861 21.156 49.0658 21.0917 49.0658C21.0274 49.0658 20.9648 49.0861 20.9128 49.1239L20.287 49.5765C20.2115 49.6311 20.1206 49.6605 20.0274 49.6605C19.9341 49.6605 19.8432 49.6311 19.7677 49.5765C19.6922 49.522 19.636 49.445 19.6072 49.3566C19.5783 49.2683 19.5783 49.1732 19.6071 49.0848L19.8462 48.3524C19.8662 48.2915 19.8663 48.2259 19.8464 48.1651C19.8265 48.1042 19.7878 48.0511 19.7357 48.0136L19.1099 47.5609C19.0344 47.5063 18.9782 47.4293 18.9494 47.341C18.9205 47.2527 18.9205 47.1575 18.9494 47.0692C18.9782 46.9808 19.0344 46.9039 19.1098 46.8493C19.1853 46.7947 19.2762 46.7653 19.3695 46.7653H20.1431C20.2074 46.7654 20.27 46.7452 20.322 46.7075C20.3741 46.6699 20.4127 46.6168 20.4325 46.5559L20.6715 45.8235C20.7003 45.7351 20.7565 45.6582 20.832 45.6035C20.9075 45.5489 20.9984 45.5195 21.0917 45.5195C21.185 45.5195 21.2759 45.5489 21.3514 45.6035C21.4269 45.6582 21.483 45.7351 21.5119 45.8235L21.7509 46.5559C21.7706 46.6168 21.8093 46.6699 21.8613 46.7075C21.9133 46.7452 21.976 46.7654 22.0403 46.7653H22.8139C22.9071 46.7653 22.998 46.7947 23.0735 46.8493C23.149 46.9039 23.2052 46.9808 23.234 47.0692C23.2628 47.1575 23.2628 47.2527 23.234 47.341C23.2052 47.4293 23.149 47.5063 23.0735 47.5609L22.4477 48.0136C22.3956 48.0511 22.3568 48.1042 22.337 48.1651C22.3171 48.2259 22.3172 48.2915 22.3372 48.3524L22.5762 49.0848C22.6061 49.1731 22.6066 49.2686 22.5777 49.3571C22.5488 49.4457 22.492 49.5226 22.4157 49.5765C22.3405 49.6318 22.2495 49.6618 22.1561 49.6621Z" fill="#014898"/>
<path d="M28.4978 49.6621C28.4043 49.6618 28.3134 49.6318 28.2381 49.5765L27.6123 49.1239C27.5604 49.0861 27.4977 49.0658 27.4335 49.0658C27.3692 49.0658 27.3065 49.0861 27.2546 49.1239L26.6288 49.5765C26.5533 49.6311 26.4624 49.6605 26.3691 49.6605C26.2758 49.6605 26.1849 49.6311 26.1094 49.5765C26.034 49.522 25.9778 49.445 25.9489 49.3566C25.9201 49.2683 25.9201 49.1732 25.9489 49.0848L26.188 48.3524C26.2079 48.2915 26.208 48.2259 26.1882 48.1651C26.1683 48.1042 26.1295 48.0511 26.0774 48.0136L25.4516 47.5609C25.3761 47.5063 25.32 47.4293 25.2911 47.341C25.2623 47.2527 25.2623 47.1575 25.2912 47.0692C25.32 46.9808 25.3762 46.9039 25.4516 46.8493C25.5271 46.7947 25.618 46.7653 25.7113 46.7653H26.4848C26.5491 46.7654 26.6118 46.7452 26.6638 46.7075C26.7158 46.6699 26.7545 46.6168 26.7742 46.5559L27.0133 45.8235C27.0421 45.7351 27.0983 45.6582 27.1738 45.6035C27.2493 45.5489 27.3402 45.5195 27.4335 45.5195C27.5268 45.5195 27.6177 45.5489 27.6932 45.6035C27.7686 45.6582 27.8248 45.7351 27.8536 45.8235L28.0926 46.5559C28.1124 46.6168 28.1511 46.6699 28.2031 46.7075C28.2551 46.7452 28.3178 46.7654 28.3821 46.7653H29.1556C29.2489 46.7653 29.3398 46.7947 29.4153 46.8493C29.4908 46.9039 29.5469 46.9808 29.5758 47.0692C29.6046 47.1575 29.6046 47.2527 29.5758 47.341C29.547 47.4293 29.4908 47.5063 29.4153 47.5609L28.7895 48.0136C28.7374 48.0511 28.6986 48.1042 28.6787 48.165C28.6589 48.2259 28.6589 48.2915 28.6789 48.3524L28.918 49.0848C28.9479 49.1731 28.9484 49.2686 28.9195 49.3571C28.8906 49.4457 28.8338 49.5226 28.7575 49.5765C28.6822 49.6318 28.5913 49.6618 28.4978 49.6621Z" fill="#014898"/>
<path d="M34.8416 49.6621C34.7481 49.6618 34.6571 49.6318 34.5819 49.5765L33.9561 49.1239C33.9041 49.0862 33.8415 49.0659 33.7772 49.0659C33.7129 49.0659 33.6503 49.0862 33.5983 49.1239L32.9725 49.5765C32.8971 49.6311 32.8062 49.6605 32.7129 49.6605C32.6196 49.6605 32.5287 49.6311 32.4532 49.5765C32.3777 49.522 32.3215 49.445 32.2927 49.3566C32.2639 49.2683 32.2639 49.1732 32.2927 49.0848L32.5317 48.3524C32.5517 48.2915 32.5518 48.2259 32.5319 48.1651C32.512 48.1042 32.4733 48.0511 32.4212 48.0136L31.7954 47.5609C31.7199 47.5063 31.6637 47.4293 31.6349 47.341C31.6061 47.2527 31.6061 47.1575 31.6349 47.0692C31.6637 46.9808 31.7199 46.9039 31.7954 46.8493C31.8709 46.7947 31.9618 46.7653 32.0551 46.7653H32.8286C32.8929 46.7654 32.9555 46.7452 33.0076 46.7075C33.0596 46.6699 33.0982 46.6168 33.118 46.5559L33.357 45.8235C33.3859 45.7351 33.442 45.6582 33.5175 45.6035C33.593 45.5489 33.6839 45.5195 33.7772 45.5195C33.8705 45.5195 33.9614 45.5489 34.0369 45.6035C34.1124 45.6582 34.1686 45.7351 34.1974 45.8235L34.4364 46.5559C34.4562 46.6168 34.4949 46.6699 34.5469 46.7075C34.5989 46.7452 34.6615 46.7654 34.7258 46.7653H35.4994C35.5927 46.7653 35.6836 46.7947 35.759 46.8493C35.8345 46.9039 35.8907 46.9808 35.9195 47.0692C35.9484 47.1575 35.9484 47.2527 35.9195 47.341C35.8907 47.4293 35.8345 47.5063 35.7591 47.5609L35.1332 48.0136C35.0812 48.0511 35.0424 48.1042 35.0225 48.1651C35.0027 48.2259 35.0027 48.2915 35.0227 48.3524L35.2617 49.0848C35.2916 49.1731 35.2921 49.2685 35.2632 49.3571C35.2343 49.4457 35.1775 49.5226 35.1013 49.5765C35.026 49.6318 34.9351 49.6618 34.8416 49.6621Z" fill="#014898"/>
<path d="M41.1814 49.6621C41.088 49.6618 40.997 49.6318 40.9218 49.5765L40.2959 49.1238C40.244 49.0861 40.1814 49.0657 40.1171 49.0657C40.0528 49.0657 39.9902 49.0861 39.9382 49.1238L39.3124 49.5765C39.2369 49.6311 39.146 49.6605 39.0528 49.6605C38.9595 49.6605 38.8686 49.6311 38.7931 49.5765C38.7176 49.522 38.6614 49.445 38.6326 49.3566C38.6037 49.2683 38.6037 49.1732 38.6325 49.0848L38.8716 48.3524C38.8916 48.2915 38.8917 48.2259 38.8718 48.1651C38.8519 48.1042 38.8131 48.0512 38.761 48.0137L38.1352 47.5609C38.0597 47.5063 38.0036 47.4293 37.9747 47.341C37.9459 47.2527 37.9459 47.1575 37.9748 47.0692C38.0036 46.9808 38.0598 46.9039 38.1352 46.8493C38.2107 46.7947 38.3016 46.7653 38.3949 46.7653H39.1684C39.2327 46.7654 39.2954 46.7452 39.3474 46.7075C39.3994 46.6699 39.4381 46.6168 39.4579 46.5559L39.6969 45.8235C39.7257 45.7351 39.7819 45.6581 39.8574 45.6035C39.9328 45.5489 40.0238 45.5195 40.1171 45.5195C40.2104 45.5195 40.3013 45.5489 40.3767 45.6035C40.4522 45.6581 40.5084 45.7351 40.5372 45.8235L40.7763 46.5559C40.796 46.6168 40.8347 46.6699 40.8867 46.7075C40.9387 46.7452 41.0014 46.7654 41.0657 46.7653H41.8392C41.9325 46.7653 42.0234 46.7947 42.0989 46.8493C42.1744 46.9039 42.2305 46.9808 42.2594 47.0692C42.2882 47.1575 42.2882 47.2527 42.2594 47.341C42.2305 47.4293 42.1744 47.5063 42.0989 47.5609L41.4731 48.0136C41.421 48.0511 41.3822 48.1042 41.3624 48.1651C41.3425 48.2259 41.3426 48.2915 41.3626 48.3524L41.6016 49.0848C41.6315 49.1731 41.632 49.2685 41.6031 49.3571C41.5742 49.4457 41.5174 49.5226 41.4411 49.5765C41.3659 49.6318 41.2749 49.6618 41.1814 49.6621Z" fill="#014898"/>
<path d="M45.395 49.7058C45.2924 49.7054 45.1925 49.6725 45.1098 49.6119C45.026 49.5527 44.9636 49.4681 44.9319 49.3708C44.9001 49.2735 44.9007 49.1686 44.9335 49.0717L45.1726 48.3393C45.1897 48.2871 45.1897 48.2309 45.1727 48.1787C45.1557 48.1266 45.1225 48.0811 45.0778 48.049L44.452 47.5962C44.3691 47.5363 44.3074 47.4517 44.2757 47.3547C44.244 47.2576 44.244 47.1531 44.2757 47.0561C44.3074 46.959 44.3691 46.8745 44.452 46.8145C44.5349 46.7545 44.6348 46.7222 44.7373 46.7223H45.5108C45.5659 46.7224 45.6196 46.705 45.6642 46.6728C45.7088 46.6405 45.7419 46.595 45.7588 46.5428L45.9979 45.8104C46.0296 45.7134 46.0913 45.6288 46.1742 45.5688C46.2571 45.5089 46.357 45.4766 46.4594 45.4766C46.5619 45.4766 46.6618 45.5089 46.7447 45.5688C46.8276 45.6288 46.8893 45.7134 46.921 45.8104L47.16 46.5428C47.1769 46.595 47.21 46.6405 47.2546 46.6728C47.2992 46.705 47.3529 46.7224 47.408 46.7223H48.1816C48.2841 46.7223 48.3839 46.7546 48.4668 46.8145C48.5497 46.8745 48.6114 46.9591 48.6431 47.0561C48.6748 47.1531 48.6748 47.2576 48.6431 47.3547C48.6114 47.4517 48.5497 47.5363 48.4668 47.5962L47.841 48.049C47.7964 48.0811 47.7631 48.1266 47.7461 48.1787C47.7291 48.2309 47.7291 48.2871 47.7462 48.3393L47.9853 49.0717C48.0169 49.1687 48.0169 49.2732 47.9853 49.3703C47.9536 49.4673 47.8919 49.5519 47.809 49.6118C47.7261 49.6718 47.6262 49.7041 47.5237 49.7041C47.4213 49.7041 47.3214 49.6718 47.2385 49.6118L46.6127 49.1592C46.5682 49.1269 46.5145 49.1094 46.4594 49.1094C46.4043 49.1094 46.3506 49.1269 46.3061 49.1592L45.6803 49.6118C45.5976 49.6725 45.4977 49.7055 45.395 49.7058ZM46.4594 48.8859C46.5619 48.8859 46.6618 48.9183 46.7446 48.9784L47.3704 49.431C47.415 49.4633 47.4686 49.4807 47.5237 49.4807C47.5788 49.4807 47.6325 49.4633 47.6771 49.4311C47.7216 49.3989 47.7548 49.3534 47.7718 49.3013C47.7888 49.2491 47.7888 49.1929 47.7718 49.1408L47.5328 48.4083C47.5009 48.3113 47.5008 48.2067 47.5325 48.1096C47.5642 48.0126 47.626 47.928 47.7091 47.8682L48.3349 47.4155C48.3794 47.3832 48.4126 47.3378 48.4296 47.2856C48.4466 47.2335 48.4466 47.1773 48.4296 47.1251C48.4126 47.073 48.3794 47.0275 48.3349 46.9953C48.2903 46.9631 48.2366 46.9457 48.1816 46.9457H47.408C47.3055 46.9459 47.2056 46.9137 47.1226 46.8537C47.0397 46.7937 46.978 46.709 46.9465 46.6119L46.7074 45.8795C46.6904 45.8273 46.6573 45.7819 46.6127 45.7496C46.5681 45.7174 46.5145 45.7 46.4594 45.7C46.4043 45.7 46.3506 45.7174 46.3061 45.7496C46.2615 45.7819 46.2284 45.8273 46.2113 45.8795L45.9723 46.6119C45.9408 46.709 45.8791 46.7937 45.7962 46.8537C45.7132 46.9137 45.6133 46.9459 45.5108 46.9457H44.7372C44.6822 46.9457 44.6285 46.9631 44.5839 46.9953C44.5394 47.0275 44.5062 47.073 44.4892 47.1251C44.4722 47.1773 44.4722 47.2335 44.4892 47.2856C44.5062 47.3378 44.5394 47.3832 44.5839 47.4155L45.2098 47.8682C45.2928 47.928 45.3546 48.0126 45.3863 48.1096C45.418 48.2067 45.4179 48.3113 45.3861 48.4083L45.147 49.1408C45.1299 49.1929 45.1299 49.2491 45.147 49.3012C45.164 49.3534 45.1972 49.3988 45.2417 49.4311C45.2863 49.4633 45.34 49.4806 45.395 49.4806C45.4501 49.4806 45.5038 49.4633 45.5483 49.431L46.1742 48.9784C46.257 48.9183 46.3569 48.8859 46.4594 48.8859Z" fill="#3F3D56"/>
<path d="M6.67283 31.2852C6.47936 31.2852 6.29382 31.3617 6.15701 31.4979C6.02021 31.6341 5.94336 31.8188 5.94336 32.0114C5.94336 32.204 6.02021 32.3888 6.15701 32.525C6.29382 32.6612 6.47936 32.7377 6.67283 32.7377H43.5952C43.7887 32.7377 43.9742 32.6612 44.111 32.525C44.2478 32.3888 44.3247 32.204 44.3247 32.0114C44.3247 31.8188 44.2478 31.6341 44.111 31.4979C43.9742 31.3617 43.7887 31.2852 43.5952 31.2852H6.67283Z" fill="#CCCCCC"/>
<path d="M6.67283 35.084C6.47936 35.084 6.29382 35.1605 6.15701 35.2967C6.02021 35.4329 5.94336 35.6176 5.94336 35.8102C5.94336 36.0029 6.02021 36.1876 6.15701 36.3238C6.29382 36.46 6.47936 36.5365 6.67283 36.5365H43.5952C43.7887 36.5365 43.9742 36.46 44.111 36.3238C44.2478 36.1876 44.3247 36.0029 44.3247 35.8102C44.3247 35.6176 44.2478 35.4329 44.111 35.2967C43.9742 35.1605 43.7887 35.084 43.5952 35.084H6.67283Z" fill="#CCCCCC"/>
<path d="M6.67283 38.8828C6.47936 38.8828 6.29382 38.9593 6.15701 39.0955C6.02021 39.2317 5.94336 39.4165 5.94336 39.6091C5.94336 39.8017 6.02021 39.9864 6.15701 40.1226C6.29382 40.2588 6.47936 40.3353 6.67283 40.3353H43.5952C43.7887 40.3353 43.9742 40.2588 44.111 40.1226C44.2478 39.9864 44.3247 39.8017 44.3247 39.6091C44.3247 39.4165 44.2478 39.2317 44.111 39.0955C43.9742 38.9593 43.7887 38.8828 43.5952 38.8828H6.67283Z" fill="#CCCCCC"/>
<path d="M6.67283 31.2852C6.47936 31.2852 6.29382 31.3617 6.15701 31.4979C6.02021 31.6341 5.94336 31.8188 5.94336 32.0114C5.94336 32.204 6.02021 32.3888 6.15701 32.525C6.29382 32.6612 6.47936 32.7377 6.67283 32.7377H43.5952C43.7887 32.7377 43.9742 32.6612 44.111 32.525C44.2478 32.3888 44.3247 32.204 44.3247 32.0114C44.3247 31.8188 44.2478 31.6341 44.111 31.4979C43.9742 31.3617 43.7887 31.2852 43.5952 31.2852H6.67283Z" fill="#DCDCDC"/>
<path d="M6.67283 35.084C6.47936 35.084 6.29382 35.1605 6.15701 35.2967C6.02021 35.4329 5.94336 35.6176 5.94336 35.8102C5.94336 36.0029 6.02021 36.1876 6.15701 36.3238C6.29382 36.46 6.47936 36.5365 6.67283 36.5365H43.5952C43.7887 36.5365 43.9742 36.46 44.111 36.3238C44.2478 36.1876 44.3247 36.0029 44.3247 35.8102C44.3247 35.6176 44.2478 35.4329 44.111 35.2967C43.9742 35.1605 43.7887 35.084 43.5952 35.084H6.67283Z" fill="#DCDCDC"/>
<path d="M6.67283 38.8828C6.47936 38.8828 6.29382 38.9593 6.15701 39.0955C6.02021 39.2317 5.94336 39.4165 5.94336 39.6091C5.94336 39.8017 6.02021 39.9864 6.15701 40.1226C6.29382 40.2588 6.47936 40.3353 6.67283 40.3353H43.5952C43.7887 40.3353 43.9742 40.2588 44.111 40.1226C44.2478 39.9864 44.3247 39.8017 44.3247 39.6091C44.3247 39.4165 44.2478 39.2317 44.111 39.0955C43.9742 38.9593 43.7887 38.8828 43.5952 38.8828H6.67283Z" fill="#DCDCDC"/>
<path d="M48.9817 15.7542H1.28558C1.0773 15.754 0.877624 15.6715 0.73035 15.5249C0.583075 15.3782 0.500234 15.1794 0.5 14.9721V0.782123C0.500234 0.574762 0.583075 0.375961 0.73035 0.229335C0.877624 0.0827093 1.0773 0.00023274 1.28558 0H48.9817C49.1899 0.000232445 49.3896 0.0827092 49.5369 0.229335C49.6842 0.375961 49.767 0.574762 49.7673 0.782123V14.9721C49.767 15.1794 49.6842 15.3782 49.5369 15.5249C49.3896 15.6715 49.1899 15.754 48.9817 15.7542ZM1.28558 0.223464C1.13681 0.223635 0.99419 0.282548 0.888995 0.38728C0.7838 0.492012 0.724624 0.63401 0.724452 0.782123V14.9721C0.724624 15.1202 0.7838 15.2622 0.888995 15.3669C0.99419 15.4716 1.13681 15.5306 1.28558 15.5307H48.9817C49.1304 15.5306 49.2731 15.4716 49.3783 15.3669C49.4835 15.2622 49.5426 15.1202 49.5428 14.9721V0.782123C49.5426 0.634009 49.4835 0.492011 49.3783 0.387278C49.2731 0.282546 49.1304 0.223633 48.9817 0.223464H1.28558Z" fill="#DCDCDC"/>
<path d="M22.158 21.7295C22.0645 21.7291 21.9736 21.6992 21.8983 21.6439L21.2725 21.1912C21.2206 21.1535 21.1579 21.1331 21.0936 21.1331C21.0293 21.1331 20.9667 21.1535 20.9148 21.1912L20.289 21.6439C20.2135 21.6985 20.1226 21.7279 20.0293 21.7279C19.936 21.7279 19.8451 21.6985 19.7696 21.6439C19.6942 21.5893 19.638 21.5124 19.6091 21.424C19.5803 21.3357 19.5803 21.2405 19.6091 21.1522L19.8482 20.4198C19.8681 20.3589 19.8682 20.2933 19.8483 20.2324C19.8285 20.1716 19.7897 20.1185 19.7376 20.081L19.1118 19.6283C19.0363 19.5737 18.9801 19.4967 18.9513 19.4084C18.9225 19.3201 18.9225 19.2249 18.9513 19.1366C18.9801 19.0482 19.0363 18.9712 19.1118 18.9166C19.1873 18.862 19.2782 18.8326 19.3715 18.8326H20.145C20.2093 18.8328 20.272 18.8126 20.324 18.7749C20.376 18.7373 20.4147 18.6842 20.4344 18.6233L20.6735 17.8909C20.7023 17.8025 20.7585 17.7255 20.8339 17.6709C20.9094 17.6163 21.0003 17.5869 21.0936 17.5869C21.1869 17.5869 21.2778 17.6163 21.3533 17.6709C21.4288 17.7255 21.485 17.8025 21.5138 17.8909L21.7528 18.6233C21.7726 18.6842 21.8113 18.7373 21.8633 18.7749C21.9153 18.8126 21.978 18.8328 22.0422 18.8326H22.8158C22.9091 18.8326 23 18.8621 23.0755 18.9166C23.1509 18.9712 23.2071 19.0482 23.236 19.1366C23.2648 19.2249 23.2648 19.3201 23.236 19.4084C23.2071 19.4967 23.1509 19.5737 23.0755 19.6283L22.4496 20.081C22.3976 20.1185 22.3588 20.1716 22.3389 20.2324C22.3191 20.2933 22.3191 20.3589 22.3391 20.4198L22.5782 21.1522C22.608 21.2404 22.6086 21.3359 22.5797 21.4245C22.5508 21.5131 22.4939 21.59 22.4177 21.6439C22.3424 21.6992 22.2515 21.7291 22.158 21.7295Z" fill="#014898"/>
<path d="M28.4978 21.7295C28.4043 21.7291 28.3134 21.6992 28.2381 21.6439L27.6123 21.1912C27.5604 21.1535 27.4977 21.1331 27.4335 21.1331C27.3692 21.1331 27.3065 21.1535 27.2546 21.1912L26.6288 21.6439C26.5533 21.6985 26.4624 21.7279 26.3691 21.7279C26.2758 21.7279 26.1849 21.6985 26.1094 21.6439C26.034 21.5893 25.9778 21.5124 25.9489 21.424C25.9201 21.3357 25.9201 21.2405 25.9489 21.1522L26.188 20.4198C26.2079 20.3589 26.208 20.2933 26.1882 20.2324C26.1683 20.1716 26.1295 20.1185 26.0774 20.081L25.4516 19.6283C25.3761 19.5737 25.32 19.4967 25.2911 19.4084C25.2623 19.32 25.2623 19.2249 25.2912 19.1366C25.32 19.0482 25.3762 18.9712 25.4516 18.9166C25.5271 18.8621 25.618 18.8326 25.7113 18.8326H26.4848C26.5491 18.8328 26.6118 18.8126 26.6638 18.7749C26.7158 18.7373 26.7545 18.6842 26.7742 18.6233L27.0133 17.8909C27.0421 17.8025 27.0983 17.7255 27.1738 17.6709C27.2493 17.6163 27.3402 17.5869 27.4335 17.5869C27.5268 17.5869 27.6177 17.6163 27.6932 17.6709C27.7686 17.7255 27.8248 17.8025 27.8536 17.8909L28.0926 18.6233C28.1124 18.6842 28.1511 18.7373 28.2031 18.7749C28.2551 18.8126 28.3178 18.8328 28.3821 18.8326H29.1556C29.2489 18.8326 29.3398 18.8621 29.4153 18.9166C29.4908 18.9712 29.5469 19.0482 29.5758 19.1366C29.6046 19.2249 29.6046 19.32 29.5758 19.4084C29.547 19.4967 29.4908 19.5737 29.4153 19.6283L28.7895 20.081C28.7374 20.1185 28.6986 20.1715 28.6787 20.2324C28.6589 20.2933 28.6589 20.3589 28.6789 20.4198L28.918 21.1522C28.9479 21.2404 28.9484 21.3359 28.9195 21.4245C28.8906 21.5131 28.8338 21.59 28.7575 21.6439C28.6822 21.6992 28.5913 21.7291 28.4978 21.7295Z" fill="#014898"/>
<path d="M34.8416 21.7295C34.7481 21.7291 34.6571 21.6992 34.5819 21.6439L33.9561 21.1912C33.9041 21.1536 33.8415 21.1333 33.7772 21.1333C33.7129 21.1333 33.6503 21.1536 33.5983 21.1912L32.9725 21.6439C32.8971 21.6985 32.8062 21.7279 32.7129 21.7279C32.6196 21.7279 32.5287 21.6985 32.4532 21.6439C32.3777 21.5893 32.3215 21.5124 32.2927 21.424C32.2639 21.3357 32.2639 21.2405 32.2927 21.1522L32.5317 20.4198C32.5517 20.3589 32.5518 20.2933 32.5319 20.2324C32.512 20.1716 32.4733 20.1185 32.4212 20.081L31.7954 19.6283C31.7199 19.5737 31.6637 19.4967 31.6349 19.4084C31.6061 19.32 31.6061 19.2249 31.6349 19.1366C31.6637 19.0482 31.7199 18.9712 31.7954 18.9166C31.8709 18.8621 31.9618 18.8326 32.0551 18.8326H32.8286C32.8929 18.8328 32.9555 18.8126 33.0076 18.7749C33.0596 18.7373 33.0982 18.6842 33.118 18.6233L33.357 17.8909C33.3859 17.8025 33.442 17.7255 33.5175 17.6709C33.593 17.6163 33.6839 17.5869 33.7772 17.5869C33.8705 17.5869 33.9614 17.6163 34.0369 17.6709C34.1124 17.7255 34.1686 17.8025 34.1974 17.8909L34.4364 18.6233C34.4562 18.6842 34.4949 18.7373 34.5469 18.7749C34.5989 18.8126 34.6615 18.8328 34.7258 18.8326H35.4994C35.5927 18.8326 35.6836 18.8621 35.759 18.9166C35.8345 18.9712 35.8907 19.0482 35.9195 19.1366C35.9484 19.2249 35.9484 19.32 35.9195 19.4084C35.8907 19.4967 35.8345 19.5737 35.7591 19.6283L35.1332 20.081C35.0812 20.1185 35.0424 20.1716 35.0225 20.2324C35.0027 20.2933 35.0027 20.3589 35.0227 20.4198L35.2617 21.1522C35.2916 21.2404 35.2921 21.3359 35.2632 21.4245C35.2343 21.5131 35.1775 21.59 35.1013 21.6439C35.026 21.6992 34.9351 21.7291 34.8416 21.7295Z" fill="#014898"/>
<path d="M45.395 21.7723C45.2924 21.7718 45.1925 21.7389 45.1098 21.6783C45.026 21.6191 44.9636 21.5346 44.9319 21.4373C44.9001 21.3399 44.9007 21.235 44.9335 21.1381L45.1726 20.4057C45.1897 20.3535 45.1897 20.2973 45.1727 20.2452C45.1557 20.193 45.1225 20.1475 45.0778 20.1154L44.452 19.6627C44.3691 19.6027 44.3074 19.5181 44.2757 19.4211C44.244 19.3241 44.244 19.2195 44.2757 19.1225C44.3074 19.0255 44.3691 18.9409 44.452 18.8809C44.5349 18.821 44.6348 18.7887 44.7373 18.7887H45.5108C45.5659 18.7888 45.6196 18.7714 45.6642 18.7392C45.7088 18.7069 45.7419 18.6614 45.7588 18.6092L45.9979 17.8768C46.0296 17.7798 46.0913 17.6952 46.1742 17.6352C46.2571 17.5753 46.357 17.543 46.4594 17.543C46.5619 17.543 46.6618 17.5753 46.7447 17.6352C46.8276 17.6952 46.8893 17.7798 46.921 17.8768L47.16 18.6092C47.1769 18.6614 47.21 18.7069 47.2546 18.7392C47.2992 18.7714 47.3529 18.7888 47.408 18.7887H48.1816C48.2841 18.7887 48.3839 18.821 48.4668 18.8809C48.5497 18.9409 48.6114 19.0255 48.6431 19.1225C48.6748 19.2195 48.6748 19.3241 48.6431 19.4211C48.6114 19.5181 48.5497 19.6027 48.4668 19.6627L47.841 20.1154C47.7964 20.1475 47.7631 20.193 47.7461 20.2451C47.7291 20.2973 47.7291 20.3535 47.7462 20.4057L47.9853 21.1381C48.0169 21.2351 48.0169 21.3397 47.9853 21.4367C47.9536 21.5337 47.8919 21.6183 47.809 21.6783C47.7261 21.7382 47.6262 21.7705 47.5237 21.7705C47.4213 21.7705 47.3214 21.7382 47.2385 21.6783L46.6127 21.2256C46.5682 21.1933 46.5145 21.1758 46.4594 21.1758C46.4043 21.1758 46.3506 21.1933 46.3061 21.2256L45.6803 21.6783C45.5976 21.7389 45.4977 21.7719 45.395 21.7723ZM46.4594 20.9523C46.5619 20.9523 46.6618 20.9847 46.7446 21.0448L47.3704 21.4975C47.415 21.5297 47.4686 21.5471 47.5237 21.5471C47.5788 21.5471 47.6325 21.5297 47.6771 21.4975C47.7216 21.4653 47.7548 21.4198 47.7718 21.3677C47.7888 21.3155 47.7888 21.2593 47.7718 21.2072L47.5328 20.4747C47.5009 20.3777 47.5008 20.2731 47.5325 20.176C47.5642 20.079 47.626 19.9944 47.7091 19.9346L48.3349 19.4819C48.3794 19.4496 48.4126 19.4042 48.4296 19.352C48.4466 19.2999 48.4466 19.2437 48.4296 19.1916C48.4126 19.1394 48.3794 19.094 48.3349 19.0617C48.2903 19.0295 48.2366 19.0121 48.1816 19.0121H47.408C47.3055 19.0123 47.2056 18.9801 47.1226 18.9201C47.0397 18.8601 46.978 18.7754 46.9465 18.6783L46.7074 17.9459C46.6904 17.8937 46.6573 17.8483 46.6127 17.816C46.5681 17.7838 46.5145 17.7664 46.4594 17.7664C46.4043 17.7664 46.3506 17.7838 46.3061 17.816C46.2615 17.8483 46.2284 17.8937 46.2113 17.9459L45.9723 18.6783C45.9408 18.7754 45.8791 18.8601 45.7962 18.9201C45.7132 18.9801 45.6133 19.0123 45.5108 19.0121H44.7372C44.6822 19.0121 44.6285 19.0295 44.5839 19.0617C44.5394 19.0939 44.5062 19.1394 44.4892 19.1915C44.4722 19.2437 44.4722 19.2999 44.4892 19.352C44.5062 19.4042 44.5394 19.4496 44.5839 19.4819L45.2098 19.9346C45.2928 19.9944 45.3546 20.079 45.3863 20.1761C45.418 20.2731 45.4179 20.3777 45.3861 20.4747L45.147 21.2072C45.1299 21.2593 45.1299 21.3155 45.147 21.3676C45.164 21.4198 45.1972 21.4652 45.2417 21.4975C45.2863 21.5297 45.34 21.5471 45.395 21.5471C45.4501 21.5471 45.5038 21.5297 45.5483 21.4975L46.1742 21.0448C46.257 20.9847 46.3569 20.9523 46.4594 20.9523Z" fill="#3F3D56"/>
<path d="M38.9986 21.7547C38.8959 21.7543 38.796 21.7214 38.7134 21.6607C38.6296 21.6015 38.5672 21.517 38.5354 21.4197C38.5036 21.3224 38.5042 21.2175 38.537 21.1205L38.7761 20.3881C38.7932 20.3359 38.7933 20.2797 38.7762 20.2276C38.7592 20.1754 38.726 20.13 38.6814 20.0978L38.0555 19.6451C37.9726 19.5851 37.9109 19.5005 37.8792 19.4035C37.8475 19.3065 37.8476 19.2019 37.8792 19.1049C37.9109 19.0079 37.9726 18.9233 38.0555 18.8633C38.1384 18.8034 38.2383 18.7711 38.3408 18.7711H39.1143C39.1694 18.7712 39.2231 18.7539 39.2677 18.7216C39.3123 18.6894 39.3454 18.6439 39.3623 18.5916L39.6014 17.8592C39.6331 17.7622 39.6948 17.6776 39.7777 17.6177C39.8606 17.5577 39.9605 17.5254 40.0629 17.5254C40.1654 17.5254 40.2653 17.5577 40.3482 17.6177C40.4311 17.6776 40.4928 17.7622 40.5245 17.8592L40.7635 18.5916C40.7804 18.6439 40.8136 18.6894 40.8581 18.7216C40.9027 18.7539 40.9564 18.7712 41.0115 18.7711H41.7851C41.8876 18.7711 41.9874 18.8034 42.0703 18.8634C42.1532 18.9233 42.2149 19.0079 42.2466 19.1049C42.2783 19.202 42.2783 19.3065 42.2466 19.4035C42.2149 19.5005 42.1532 19.5851 42.0703 19.6451L41.4445 20.0978C41.3999 20.1299 41.3666 20.1754 41.3496 20.2276C41.3326 20.2797 41.3326 20.3359 41.3497 20.3881L41.5888 21.1205C41.6205 21.2175 41.6205 21.3221 41.5888 21.4191C41.5571 21.5161 41.4954 21.6007 41.4125 21.6607C41.3296 21.7206 41.2297 21.7529 41.1273 21.7529C41.0248 21.7529 40.9249 21.7206 40.842 21.6607L40.2162 21.208C40.1717 21.1757 40.118 21.1583 40.0629 21.1583C40.0078 21.1583 39.9541 21.1757 39.9096 21.208L39.2838 21.6607C39.2011 21.7214 39.1012 21.7543 38.9986 21.7547ZM40.0629 20.9347C40.1654 20.9347 40.2653 20.9671 40.3481 21.0272L40.9739 21.4799C41.0185 21.5121 41.0722 21.5295 41.1272 21.5295C41.1823 21.5295 41.236 21.5122 41.2806 21.4799C41.3251 21.4477 41.3583 21.4022 41.3753 21.3501C41.3923 21.2979 41.3923 21.2417 41.3753 21.1896L41.1363 20.4572C41.1044 20.3601 41.1043 20.2555 41.136 20.1585C41.1677 20.0614 41.2295 19.9768 41.3126 19.917L41.9384 19.4643C41.9829 19.432 42.0161 19.3866 42.0331 19.3344C42.0501 19.2823 42.0501 19.2261 42.0331 19.174C42.0161 19.1218 41.9829 19.0764 41.9384 19.0441C41.8938 19.0119 41.8402 18.9945 41.7851 18.9945H41.0115C40.909 18.9947 40.8091 18.9625 40.7261 18.9025C40.6432 18.8425 40.5815 18.7579 40.55 18.6607L40.311 17.9283C40.2939 17.8761 40.2608 17.8307 40.2162 17.7984C40.1716 17.7662 40.118 17.7488 40.0629 17.7488C40.0078 17.7488 39.9541 17.7662 39.9096 17.7984C39.865 17.8307 39.8319 17.8761 39.8148 17.9283L39.5758 18.6607C39.5443 18.7578 39.4826 18.8425 39.3997 18.9025C39.3168 18.9625 39.2168 18.9947 39.1143 18.9945H38.3408C38.2857 18.9945 38.232 19.0119 38.1875 19.0441C38.1429 19.0764 38.1097 19.1218 38.0927 19.174C38.0757 19.2261 38.0757 19.2823 38.0927 19.3344C38.1097 19.3866 38.1429 19.432 38.1874 19.4643L38.8133 19.917C38.8963 19.9768 38.9582 20.0614 38.9898 20.1585C39.0215 20.2556 39.0214 20.3601 38.9896 20.4572L38.7505 21.1896C38.7335 21.2417 38.7335 21.2979 38.7505 21.3501C38.7675 21.4022 38.8007 21.4477 38.8452 21.4799C38.8898 21.5121 38.9435 21.5295 38.9985 21.5295C39.0536 21.5295 39.1073 21.5121 39.1519 21.4799L39.7777 21.0272C39.8605 20.9671 39.9604 20.9347 40.0629 20.9347Z" fill="#3F3D56"/>
<path d="M6.67283 3.35156C6.47936 3.35156 6.29382 3.42808 6.15701 3.56428C6.02021 3.70048 5.94336 3.8852 5.94336 4.07782C5.94336 4.27043 6.02021 4.45516 6.15701 4.59136C6.29382 4.72756 6.47936 4.80408 6.67283 4.80408H43.5952C43.7887 4.80408 43.9742 4.72756 44.111 4.59136C44.2478 4.45516 44.3247 4.27043 44.3247 4.07782C44.3247 3.8852 44.2478 3.70048 44.111 3.56428C43.9742 3.42808 43.7887 3.35156 43.5952 3.35156H6.67283Z" fill="#CCCCCC"/>
<path d="M6.67283 7.15039C6.47936 7.15039 6.29382 7.22691 6.15701 7.36311C6.02021 7.49931 5.94336 7.68403 5.94336 7.87665C5.94336 8.06926 6.02021 8.25399 6.15701 8.39019C6.29382 8.52639 6.47936 8.6029 6.67283 8.6029H43.5952C43.7887 8.6029 43.9742 8.52639 44.111 8.39019C44.2478 8.25399 44.3247 8.06926 44.3247 7.87665C44.3247 7.68403 44.2478 7.49931 44.111 7.36311C43.9742 7.22691 43.7887 7.15039 43.5952 7.15039H6.67283Z" fill="#CCCCCC"/>
<path d="M6.67283 10.9502C6.47936 10.9502 6.29382 11.0267 6.15701 11.1629C6.02021 11.2991 5.94336 11.4838 5.94336 11.6765C5.94336 11.8691 6.02021 12.0538 6.15701 12.19C6.29382 12.3262 6.47936 12.4027 6.67283 12.4027H43.5952C43.7887 12.4027 43.9742 12.3262 44.111 12.19C44.2478 12.0538 44.3247 11.8691 44.3247 11.6765C44.3247 11.4838 44.2478 11.2991 44.111 11.1629C43.9742 11.0267 43.7887 10.9502 43.5952 10.9502H6.67283Z" fill="#CCCCCC"/>
<path d="M6.67283 3.35156C6.47936 3.35156 6.29382 3.42808 6.15701 3.56428C6.02021 3.70048 5.94336 3.8852 5.94336 4.07782C5.94336 4.27043 6.02021 4.45516 6.15701 4.59136C6.29382 4.72756 6.47936 4.80408 6.67283 4.80408H43.5952C43.7887 4.80408 43.9742 4.72756 44.111 4.59136C44.2478 4.45516 44.3247 4.27043 44.3247 4.07782C44.3247 3.8852 44.2478 3.70048 44.111 3.56428C43.9742 3.42808 43.7887 3.35156 43.5952 3.35156H6.67283Z" fill="#DCDCDC"/>
<path d="M6.67283 7.15039C6.47936 7.15039 6.29382 7.22691 6.15701 7.36311C6.02021 7.49931 5.94336 7.68403 5.94336 7.87665C5.94336 8.06926 6.02021 8.25399 6.15701 8.39019C6.29382 8.52639 6.47936 8.6029 6.67283 8.6029H43.5952C43.7887 8.6029 43.9742 8.52639 44.111 8.39019C44.2478 8.25399 44.3247 8.06926 44.3247 7.87665C44.3247 7.68403 44.2478 7.49931 44.111 7.36311C43.9742 7.22691 43.7887 7.15039 43.5952 7.15039H6.67283Z" fill="#DCDCDC"/>
<path d="M6.67283 10.9502C6.47936 10.9502 6.29382 11.0267 6.15701 11.1629C6.02021 11.2991 5.94336 11.4838 5.94336 11.6765C5.94336 11.8691 6.02021 12.0538 6.15701 12.19C6.29382 12.3262 6.47936 12.4027 6.67283 12.4027H43.5952C43.7887 12.4027 43.9742 12.3262 44.111 12.19C44.2478 12.0538 44.3247 11.8691 44.3247 11.6765C44.3247 11.4838 44.2478 11.2991 44.111 11.1629C43.9742 11.0267 43.7887 10.9502 43.5952 10.9502H6.67283Z" fill="#DCDCDC"/>
</g>
<defs>
<clipPath id="clip0_206_114208">
<rect width="90" height="60" fill="white" transform="translate(0.5)"/>
</clipPath>
</defs>
</svg>
