<svg width="238" height="205" viewBox="0 0 238 205" fill="none" xmlns="http://www.w3.org/2000/svg">
<path d="M50.7134 177.995C48.7411 178.021 47.0912 177.647 46.279 176.976C45.4668 176.293 45.5055 173.664 44.1134 173.805C42.7341 173.934 42.9274 175.829 40.3621 176.267C37.7968 176.706 37.3198 174.295 37.3198 174.295C37.3198 174.295 35.9664 174.05 35.734 174.295C35.5021 174.527 34.7158 180.818 34.7158 180.818H36.3789C36.3789 180.818 36.2756 179.49 37.0492 178.678C37.8355 177.866 39.2534 178.729 39.6145 179.349C39.9883 179.98 38.5444 180.354 42.3603 180.406C46.1762 180.47 51.3196 180.818 52.531 180.109C53.7557 179.413 52.6729 177.969 50.7134 177.995ZM81.793 172.903C79.8335 172.929 78.1836 172.542 77.3714 171.872C76.5592 171.189 76.5979 168.571 75.2058 168.7C73.8265 168.842 74.0198 170.737 71.4545 171.163C68.8892 171.601 68.4122 169.19 68.4122 169.19C68.4122 169.19 67.0588 168.945 66.8264 169.19C66.5813 169.435 65.8082 175.713 65.8082 175.713H67.4713C67.4713 175.713 67.368 174.385 68.1416 173.573C68.9151 172.761 70.3458 173.638 70.7069 174.256C71.0807 174.875 69.6241 175.262 73.4527 175.313C77.2686 175.365 82.412 175.713 83.6234 175.017C84.8354 174.308 83.7658 172.877 81.793 172.903ZM147.317 154.315H147.336C149.596 154.325 151.416 156.164 151.416 158.413C151.416 160.683 149.586 162.513 147.317 162.513C145.062 162.513 143.218 160.682 143.218 158.413C143.218 156.164 145.052 154.326 147.298 154.315H147.317ZM193.016 102.944L187.537 134.862L186.763 134.734L186.39 135.584L129.025 141.05L131.758 150.808H186.389L184.829 154.315H170.436C170.43 154.315 170.424 154.314 170.418 154.314C170.411 154.314 170.405 154.315 170.399 154.315H147.336C147.329 154.315 147.323 154.315 147.317 154.315C147.311 154.315 147.305 154.315 147.298 154.315H128.045L107.755 100.07L96.0502 100.47L94.8769 95.5846L97.3135 95.3395L97.3522 95.3654C97.3522 95.3654 97.7387 96.1135 97.7387 97.8402C97.7387 99.5806 98.2672 99.9153 99.4791 99.9153C100.678 99.9153 102.818 100.186 104.223 99.245C105.615 98.3168 105.357 97.7757 105.357 96.5769C105.357 95.9707 105.164 95.2617 104.764 94.5914L110.488 94.0243L113.801 102.223H192.242V102.803L193.016 102.944ZM125.197 127.45L128.626 106.322H117.707L125.197 127.45ZM135.535 136.757L140.459 106.322H130.211L126.293 130.517L128.639 137.143L135.535 136.757ZM148.168 136.035L152.989 106.322H142.045L137.134 136.667L148.168 136.035ZM160.531 135.339L165.507 106.322H154.575L149.767 135.945L160.531 135.339ZM174.723 134.539L179.557 106.322H167.092L162.129 135.248L174.723 134.539ZM190.85 106.322H181.143L176.322 134.45L186.119 133.883L190.85 106.322ZM170.399 154.315C168.139 154.326 166.318 156.164 166.318 158.413C166.318 160.682 168.149 162.513 170.418 162.513C172.674 162.513 174.504 160.683 174.504 158.413C174.504 156.164 172.684 154.325 170.436 154.315L170.418 154.314L170.399 154.315ZM88.3675 67.3913L84.8226 67.2753L93.1243 60.6622L95.7796 60.5076L88.3675 67.3913Z" fill="#014898"/>
<path d="M81.3438 68.8939C81.6217 68.5878 83.4626 66.5714 85.4935 64.671C87.6977 62.6086 89.4768 61.7837 89.8247 62.8924C90.1725 63.9879 91.887 63.163 93.2663 62.8151C94.6324 62.4795 95.6638 62.5441 95.2513 64.6064C94.8388 66.6687 89.6828 69.9689 87.4913 70.3177C85.2871 70.6529 83.0828 71.8257 83.0828 71.8257L82.6467 71.1177L81.3438 68.8939ZM58.3589 58.8983H63.64C63.6405 58.876 63.6423 58.8532 63.6427 58.8314C64.0429 58.8764 64.4158 58.921 64.7546 58.9628C64.8097 58.5331 65.0348 57.3835 65.8979 56.9883C66.9689 56.498 68.6187 56.0596 68.7606 55.3379C68.8893 54.6031 69.4955 53.8813 69.792 52.3215C70.0758 50.7744 71.0553 51.3547 70.2045 50.2847C69.3664 49.2146 69.792 49.3178 70.1786 46.2114C70.3204 45.0385 69.908 43.9039 69.3277 42.9498C68.9798 43.788 68.3222 44.5615 67.0716 44.9867C63.5268 46.2114 62.2116 45.2832 61.58 46.637C60.9483 48.0036 61.4381 49.0991 62.4049 49.5634C63.3717 50.0404 64.3513 51.2519 63.3071 52.2706C62.906 52.6667 62.6245 53.061 62.4777 53.4784C62.0706 53.729 61.7032 53.9859 61.429 54.237C60.1024 55.4498 58.3198 57.3225 58.3198 57.3225L58.3207 58.9083C58.3452 58.9014 58.3589 58.8983 58.3589 58.8983ZM102.883 92.9666C101.143 92.2317 99.4797 92.103 99.4797 92.103L95.3432 89.8215C95.0671 90.7619 94.7365 91.857 94.4232 92.8188C94.2999 93.199 94.1794 93.5605 94.0662 93.8816L97.3532 95.3641C97.3532 95.3641 97.7398 96.1117 97.7398 97.8389C97.7398 99.5793 98.2682 99.914 99.4801 99.914C100.679 99.914 102.819 100.185 104.224 99.2437C105.616 98.3155 105.358 97.7743 105.358 96.576C105.358 95.3773 104.623 93.7015 102.883 92.9666ZM38.0675 166.315L37.1134 174.14L37.0488 174.243C37.2166 174.269 37.3194 174.295 37.3194 174.295C37.3194 174.295 37.7965 176.705 40.3618 176.267C42.2567 175.944 42.6433 174.823 43.2749 174.217C43.1717 174.088 43.0558 173.959 42.9525 173.83L44.9376 166.753L38.0675 166.315ZM72.989 161.739H66.2985L68.2063 169.035L68.1417 169.151C68.2963 169.177 68.4123 169.19 68.4123 169.19C68.4123 169.19 68.8893 171.601 71.4546 171.163C73.3496 170.853 73.7361 169.732 74.3678 169.113C74.2646 168.984 74.1486 168.855 74.0454 168.726L72.989 161.739Z" fill="#FFD2BB"/>
<path fill-rule="evenodd" clip-rule="evenodd" d="M93.2664 62.8155L93.3042 62.8068L95.7799 60.5076L93.8672 60.619L93.1245 60.6622L89.9776 63.1688C90.4051 63.675 91.4114 63.3676 92.42 63.0595C92.7064 62.972 92.9929 62.8844 93.2664 62.8155ZM36.777 179.041C37.7161 179.302 38.6752 179.547 39.6666 179.764C39.6889 179.642 39.7061 179.503 39.6147 179.349C39.2537 178.729 37.8357 177.866 37.0494 178.678C36.9421 178.791 36.853 178.913 36.777 179.041ZM74.3513 169.092C74.2813 169.165 74.2833 169.196 74.368 169.113L74.3513 169.092Z" fill="#F6F6F6"/>
<path fill-rule="evenodd" clip-rule="evenodd" d="M95.7799 60.5076L93.3042 62.8068C93.3042 62.8068 93.8965 62.6238 94.2792 62.6642C94.5976 62.6978 95.0591 62.9164 95.0591 62.9164C95.3365 63.1884 95.4311 63.7077 95.2515 64.6068C94.839 66.6691 89.6829 69.9693 87.4914 70.3181C85.2872 70.6533 83.083 71.8261 83.083 71.8261L82.6469 71.118L83.907 73.2695C83.907 73.2695 81.5222 75.1385 78.5831 77.3173C78.5322 77.3432 78.4804 77.3819 78.4417 77.4205C78.4676 77.4333 78.5063 77.4592 78.5317 77.4851C85.2736 81.8422 95.9859 87.5785 95.9859 87.5785C95.9859 87.5785 95.7135 88.5603 95.3433 89.8218L99.4798 92.1034C99.4798 92.1034 101.143 92.2321 102.883 92.967C103.75 93.333 104.367 93.9329 104.768 94.5909L110.488 94.0243L113.801 102.223H192.242V102.803L193.016 102.944L187.537 134.862L186.764 134.733L186.39 135.584L129.026 141.05L131.758 150.808H186.389L184.83 154.315H170.436C172.684 154.325 174.504 156.164 174.504 158.413C174.504 160.683 172.674 162.513 170.418 162.513C168.149 162.513 166.319 160.682 166.319 158.413C166.319 156.164 168.14 154.326 170.4 154.315H147.336C149.596 154.325 151.417 156.164 151.417 158.413C151.417 160.683 149.586 162.513 147.317 162.513C145.062 162.513 143.218 160.682 143.218 158.413C143.218 156.164 145.053 154.326 147.299 154.315H128.046L107.756 100.07L96.0505 100.47L94.8772 95.5846L97.2997 95.3408L94.0659 93.8824L94.0859 93.8257C94.0855 93.8256 93.7577 94.7381 93.5752 95.068C93.2382 95.6825 88.7918 93.7377 84.2846 91.7664C79.9963 89.8908 75.653 87.9912 74.7418 88.2488C73.6418 88.5598 73.7918 90.7238 73.9544 93.0696C74.0681 94.7097 74.1879 96.4386 73.8909 97.6851C73.5862 98.988 72.9159 101.214 71.4179 103.144C71.6144 102.892 71.8018 102.637 71.9709 102.377C71.9709 102.377 71.8581 103.646 71.3261 105.534L74.0715 161.739H64.5838L58.8734 132.773C53.4804 148.038 47.749 166.947 47.749 166.947L44.9345 166.764L42.9527 173.831C43.0041 173.895 43.0586 173.959 43.1132 174.023C43.1678 174.088 43.2224 174.152 43.2737 174.216C43.4979 173.997 43.7512 173.839 44.1137 173.805C44.964 173.719 45.2805 174.666 45.5832 175.573C45.776 176.15 45.9632 176.71 46.2792 176.976C47.0914 177.646 48.7413 178.021 50.7136 177.995C52.6732 177.969 53.756 179.413 52.5313 180.109C51.569 180.672 48.1272 180.568 44.8397 180.47L44.2804 180.453C43.9268 180.443 43.5768 180.433 43.2337 180.424C47.6094 181.107 52.4426 181.395 57.8038 181.191C91.5714 179.911 109.869 176.516 123.624 173.963C139.358 171.044 149.147 169.227 169.348 172.941C222.523 182.739 252.455 117.833 229.832 71.6324C201.897 14.59 133.846 11.9351 108.452 44.3809C103.549 50.6447 97.7258 56.2628 93.1245 60.6622L93.8672 60.619L95.7799 60.5076ZM77.3716 171.871C78.1839 172.542 79.8337 172.929 81.7933 172.903C83.766 172.877 84.8356 174.308 83.6242 175.017C82.6761 175.561 79.3205 175.467 76.0773 175.375C75.176 175.35 74.2833 175.324 73.4534 175.313C70.6372 175.275 70.6806 175.056 70.7517 174.696C70.7773 174.567 70.8064 174.42 70.7076 174.256C70.3465 173.638 68.9158 172.761 68.1423 173.573C67.3688 174.385 67.472 175.713 67.472 175.713H65.8089C65.8089 175.713 66.582 169.435 66.8271 169.19C66.994 169.014 67.7376 169.091 68.1441 169.148L68.2064 169.036L66.2987 161.739H72.9891L74.0455 168.726C74.0987 168.793 74.1552 168.859 74.2116 168.925C74.259 168.981 74.3062 169.037 74.3513 169.092C74.4641 168.975 74.7637 168.746 75.2061 168.7C76.0561 168.621 76.3727 169.567 76.6752 170.47C76.8682 171.046 77.0554 171.606 77.3716 171.871Z" fill="#F6F6F6"/>
<path d="M35.7343 174.295C35.9648 174.052 37.2973 174.291 37.3182 174.294C37.3146 174.294 37.2136 174.269 37.049 174.244L37.1136 174.14L38.0672 166.317L35.4641 166.148C35.4641 166.148 43.3401 128.326 43.7399 124.459C44.0359 121.689 45.5434 112.077 46.3943 106.829C44.1855 107.215 43.0041 107.194 43.0818 105.355C43.166 103.348 44.3838 94.7646 45.93 85.8263C42.412 86.8045 38.7848 87.7627 35.0121 88.7768C25.4085 91.3553 7.83838 100.147 4.60276 114.391C3.11524 120.935 -2.02492 166.787 35.0167 178.521C35.2645 176.698 35.5969 174.433 35.7343 174.295Z" fill="#F6F6F6"/>
<path d="M125.197 127.45L128.626 106.321H117.707L125.197 127.45Z" fill="#F6F6F6"/>
<path d="M126.293 130.517L128.639 137.143L135.535 136.757L140.46 106.321H130.212L126.293 130.517Z" fill="#F6F6F6"/>
<path d="M137.134 136.667L148.168 136.035L152.99 106.321H142.045L137.134 136.667Z" fill="#F6F6F6"/>
<path d="M149.767 135.945L160.531 135.339L165.507 106.321H154.575L149.767 135.945Z" fill="#F6F6F6"/>
<path d="M162.129 135.248L174.724 134.539L179.558 106.321H167.092L162.129 135.248Z" fill="#F6F6F6"/>
<path d="M190.85 106.322H181.143L176.322 134.45L186.119 133.883L190.85 106.322Z" fill="#F6F6F6"/>
<path d="M35.6719 165.992L46.6729 106.481L71.0147 101.197L73.96 161.661H64.6912L58.7141 133.335L47.6262 166.945L35.6719 165.992Z" fill="#014898" stroke="#014898"/>
<path d="M78.583 77.3174C78.5321 77.3434 78.4803 77.382 78.4416 77.4207C78.4675 77.4334 78.5062 77.4593 78.5317 77.4852C85.2735 81.8423 95.9858 87.5786 95.9858 87.5786C95.9858 87.5786 94.2454 93.8566 93.5751 95.0681C92.9175 96.2673 76.6107 87.7205 74.7417 88.249C72.8726 88.7774 74.6125 94.6561 73.8908 97.6852C73.1819 100.714 70.5133 108.733 60.0075 106.425C49.4884 104.105 42.9012 109.622 43.0817 105.355C43.2236 101.965 46.6011 79.8054 49.3338 68.8739C49.357 68.8712 49.3802 68.8675 49.4034 68.8648C49.693 67.9489 50.5052 65.8361 52.4471 63.219C55.0619 59.6946 58.359 58.8988 58.359 58.8988H63.6401C63.6405 58.8765 63.6424 58.8537 63.6428 58.8319C65.3573 59.0256 66.5947 59.2057 66.5947 59.2057C67.355 59.8374 67.7934 60.6751 67.4842 61.5778C67.1749 62.4673 68.1545 63.2663 69.5338 65.2258C70.5906 66.7211 70.3974 68.9253 71.8926 71.5161C71.944 71.6197 71.9185 71.6197 72.0345 71.5552L80.2975 67.1076L83.9069 73.2696C83.9069 73.2696 81.5222 75.1387 78.583 77.3174Z" fill="#FF0D1B"/>
<path d="M68.1652 39.1737C66.0333 39.06 67.2839 38.3778 65.8059 37.3546C64.3279 36.3314 63.589 37.2978 61.4288 37.3546C59.2687 37.4115 55.858 36.104 55.0622 38.2073C54.9649 38.4647 54.8148 38.7325 54.6315 39.0122C53.6752 38.6675 52.6788 38.381 51.8789 38.321C49.6051 38.1505 46.9902 39.5147 46.5923 41.5612C46.1944 43.6076 43.5227 43.0391 41.8742 45.9951C40.2257 48.951 41.6109 49.5763 43.0784 53.3281C44.5459 57.0799 42.0279 61.6275 41.127 62.5938C40.2261 63.5602 40.3034 63.9581 43.0784 63.2191C45.8533 62.4801 51.1263 61.3432 51.5878 58.4441C52.0494 55.545 52.6179 55.6019 51.0831 52.4754C49.5482 49.3489 49.9462 47.3594 50.6851 45.654C50.8911 45.1783 51.2227 44.9091 51.591 44.7608C51.5642 45.5467 51.7393 46.3912 52.22 47.3025C54.4369 51.509 52.3905 50.9406 53.0726 53.0439C53.7548 55.1471 54.1527 55.3745 56.6539 56.0566C57.6371 56.325 58.1068 56.8211 58.3196 57.325V57.3232C58.3196 57.3232 60.1023 55.4504 61.4288 54.2376C61.7035 53.9866 62.071 53.7296 62.4775 53.4791C62.6244 53.0611 62.9064 52.6669 63.3075 52.2712C64.3516 51.2526 63.372 50.0411 62.4052 49.564C61.4384 49.0997 60.9486 48.0042 61.5803 46.6376C62.2119 45.2838 63.5271 46.212 67.072 44.9873C68.3225 44.5621 68.9801 43.7886 69.328 42.9505C69.6909 43.5471 69.9879 44.2138 70.1252 44.9168C70.4235 44.5926 70.4049 44.3611 70.524 42.9505C70.6946 40.9359 70.2967 39.2874 68.1652 39.1737Z" fill="#221F1F"/>
<path d="M177.49 72.4359C177.423 72.1738 177.435 71.8977 177.525 71.6424C177.614 71.3871 177.778 71.1641 177.995 71.0015C178.212 70.8389 178.472 70.7441 178.742 70.7291C179.013 70.714 179.282 70.7793 179.516 70.9168C179.749 71.0543 179.937 71.2578 180.054 71.5015C180.172 71.7453 180.215 72.0184 180.177 72.2863C180.139 72.5542 180.023 72.805 179.842 73.0069C179.662 73.2088 179.425 73.3527 179.163 73.4206C178.988 73.4664 178.806 73.4773 178.627 73.4525C178.448 73.4277 178.276 73.3678 178.121 73.2763C177.965 73.1847 177.83 73.0633 177.721 72.9191C177.613 72.7748 177.535 72.6106 177.49 72.4359ZM178.512 70.9589C178.285 71.0182 178.081 71.1433 177.926 71.3182C177.771 71.4932 177.671 71.7102 177.639 71.9418C177.607 72.1734 177.645 72.4092 177.748 72.6193C177.85 72.8295 178.013 73.0045 178.215 73.1223C178.418 73.2402 178.65 73.2955 178.884 73.2812C179.118 73.267 179.342 73.1839 179.529 73.0424C179.715 72.901 179.855 72.7075 179.932 72.4865C180.008 72.2655 180.017 72.0268 179.957 71.8008C179.919 71.6495 179.852 71.5072 179.758 71.3821C179.665 71.257 179.548 71.1516 179.413 71.072C179.279 70.9924 179.13 70.9401 178.975 70.9181C178.82 70.8962 178.663 70.905 178.512 70.9441V70.9589Z" fill="#FF0D1B" stroke="#FF0D1B" stroke-width="0.2"/>
<path d="M181.504 74.7312C181.437 74.4693 181.449 74.1935 181.538 73.9384C181.628 73.6834 181.792 73.4606 182.008 73.2982C182.225 73.1357 182.485 73.0409 182.755 73.0256C183.025 73.0104 183.294 73.0754 183.528 73.2124C183.761 73.3495 183.949 73.5524 184.067 73.7957C184.185 74.0391 184.228 74.3118 184.191 74.5796C184.154 74.8473 184.038 75.0981 183.858 75.3004C183.679 75.5026 183.443 75.6472 183.181 75.7159C182.828 75.8072 182.453 75.7548 182.138 75.5701C181.824 75.3855 181.595 75.0837 181.504 74.7312V74.7312ZM182.53 73.2542C182.303 73.3135 182.099 73.4386 181.944 73.6135C181.789 73.7885 181.689 74.0055 181.657 74.2371C181.626 74.4687 181.663 74.7045 181.766 74.9146C181.869 75.1248 182.031 75.2998 182.234 75.4176C182.436 75.5355 182.669 75.5908 182.902 75.5765C183.136 75.5623 183.36 75.4792 183.547 75.3377C183.733 75.1963 183.874 75.0028 183.95 74.7818C184.026 74.5608 184.035 74.3221 183.975 74.0961C183.938 73.9445 183.871 73.8018 183.777 73.6763C183.684 73.5509 183.567 73.4452 183.432 73.3655C183.298 73.2858 183.149 73.2336 182.994 73.2119C182.839 73.1903 182.681 73.1996 182.53 73.2394V73.2542Z" fill="#FF0D1B" stroke="#FF0D1B" stroke-width="0.2"/>
<path d="M178.651 76.73L182.815 69.591C182.828 69.5695 182.848 69.5538 182.872 69.5473C182.896 69.5408 182.922 69.5442 182.944 69.5566C182.965 69.569 182.981 69.5894 182.987 69.6134C182.994 69.6374 182.99 69.663 182.978 69.6846L178.809 76.8235C178.805 76.8366 178.797 76.8486 178.788 76.8585C178.778 76.8684 178.766 76.876 178.753 76.8808C178.74 76.8856 178.726 76.8874 178.712 76.8861C178.698 76.8848 178.685 76.8805 178.673 76.8734C178.661 76.8663 178.651 76.8567 178.643 76.8451C178.635 76.8336 178.63 76.8205 178.628 76.8068C178.626 76.793 178.627 76.779 178.631 76.7657C178.635 76.7524 178.642 76.7402 178.651 76.73V76.73Z" fill="#FF0D1B" stroke="#FF0D1B" stroke-width="0.2"/>
<path d="M202.021 136.266L199.058 134.566L200.762 131.572C200.776 131.556 200.786 131.538 200.792 131.518C200.799 131.498 200.8 131.477 200.797 131.456C200.794 131.436 200.786 131.416 200.775 131.399C200.763 131.381 200.748 131.367 200.73 131.356C200.712 131.345 200.692 131.339 200.671 131.337C200.65 131.335 200.629 131.338 200.609 131.345C200.59 131.352 200.572 131.364 200.557 131.379C200.543 131.393 200.532 131.411 200.525 131.431L198.814 134.425L195.813 132.717C195.782 132.706 195.747 132.706 195.715 132.718C195.684 132.73 195.657 132.752 195.641 132.782C195.625 132.812 195.62 132.846 195.627 132.879C195.634 132.912 195.653 132.941 195.68 132.961L198.643 134.669L196.939 137.626C196.858 137.759 197.05 137.952 197.191 137.745C197.332 137.538 197.695 136.865 198.888 134.787C199.877 135.418 200.901 135.993 201.954 136.51C201.98 136.505 202.005 136.493 202.024 136.475C202.043 136.457 202.057 136.434 202.064 136.409C202.071 136.383 202.071 136.356 202.063 136.331C202.056 136.306 202.041 136.283 202.021 136.266V136.266Z" fill="#FF0D1B" stroke="#FF0D1B" stroke-width="0.2"/>
<path d="M137.416 96.5107L133.886 95.5979L134.801 92.0753C134.81 92.0403 134.805 92.003 134.787 91.9715C134.769 91.9401 134.739 91.9171 134.704 91.9077C134.669 91.8982 134.632 91.9031 134.6 91.9211C134.569 91.9392 134.546 91.969 134.536 92.004L133.622 95.5266L130.092 94.6139C130.057 94.6054 130.02 94.6111 129.989 94.6298C129.958 94.6485 129.936 94.6787 129.928 94.7137C129.919 94.7487 129.925 94.7856 129.944 94.8164C129.962 94.8471 129.993 94.8692 130.028 94.8777L133.558 95.7976L132.643 99.363C132.634 99.398 132.64 99.435 132.659 99.4657C132.678 99.4965 132.708 99.5185 132.743 99.5271C132.778 99.5356 132.815 99.5298 132.846 99.5111C132.877 99.4924 132.899 99.4622 132.907 99.4272L133.815 95.9117C137.23 96.7959 137.33 96.8244 137.387 96.8244C137.429 96.8282 137.471 96.8153 137.503 96.7886C137.535 96.7618 137.555 96.7234 137.559 96.6818C137.563 96.6402 137.55 96.5988 137.523 96.5667C137.496 96.5346 137.458 96.5145 137.416 96.5107Z" fill="#FF0D1B" stroke="#FF0D1B" stroke-width="0.2"/>
<path d="M125.832 54.8442C125.776 54.8442 125.654 54.8109 120.553 53.48C120.527 53.4723 120.505 53.4546 120.491 53.4308C120.478 53.407 120.474 53.3789 120.481 53.3525L122.454 45.783C122.454 45.7054 122.242 45.8108 125.604 44.6296C125.62 44.6179 125.64 44.6116 125.66 44.6116C125.68 44.6116 125.699 44.6179 125.715 44.6296L127.882 47.0751C127.938 47.1361 128.055 46.6537 125.932 54.7388C125.932 54.7658 125.922 54.7918 125.903 54.8114C125.884 54.831 125.859 54.8427 125.832 54.8442ZM120.709 53.3026L125.76 54.6113L127.688 47.1971L125.604 44.8459L122.642 45.8829L120.709 53.3026Z" fill="#FF0D1B" stroke="#FF0D1B" stroke-width="0.2"/>
<path d="M127.867 38.5854C124.372 40.6094 128.5 44.0309 125.205 45.9718C125.025 45.952 124.845 45.9998 124.698 46.1058C124.552 46.2117 124.45 46.3683 124.413 46.5451C124.376 46.7218 124.406 46.9059 124.498 47.0616C124.589 47.2173 124.736 47.3334 124.908 47.3872C125.081 47.4411 125.268 47.4289 125.432 47.3529C125.596 47.2769 125.726 47.1427 125.796 46.9764C125.866 46.8101 125.872 46.6236 125.812 46.4532C125.752 46.2829 125.631 46.1409 125.472 46.055C128.656 43.9976 124.666 40.6815 127.972 38.7628C127.987 38.7577 128.001 38.7494 128.012 38.7384C128.023 38.7275 128.032 38.7142 128.037 38.6995C128.042 38.6848 128.044 38.6691 128.043 38.6535C128.042 38.6379 128.037 38.6229 128.029 38.6094C128.021 38.596 128.01 38.5845 127.997 38.5758C127.984 38.567 127.969 38.5613 127.953 38.559C127.938 38.5567 127.922 38.5579 127.907 38.5624C127.892 38.567 127.878 38.5748 127.867 38.5854V38.5854ZM125.644 46.8258C125.619 46.9188 125.569 47.0029 125.498 47.0688C125.428 47.1346 125.341 47.1795 125.246 47.1984C125.152 47.2173 125.054 47.2094 124.963 47.1756C124.873 47.1418 124.794 47.0834 124.735 47.0071C124.676 46.9309 124.64 46.8397 124.631 46.7439C124.621 46.6481 124.638 46.5516 124.681 46.4652C124.724 46.3789 124.789 46.3061 124.871 46.2552C124.953 46.2042 125.048 46.1771 125.144 46.177C125.222 46.1794 125.298 46.1993 125.367 46.2352C125.436 46.2712 125.496 46.3223 125.543 46.3847C125.589 46.4471 125.621 46.5192 125.636 46.5956C125.65 46.672 125.648 46.7507 125.627 46.8258H125.644Z" fill="#FF0D1B" stroke="#FF0D1B" stroke-width="0.2"/>
</svg>
