<svg width="86" height="60" viewBox="0 0 86 60" fill="none" xmlns="http://www.w3.org/2000/svg">
<g clip-path="url(#clip0_206_114293)">
<path d="M43.4823 59.8728C46.0431 59.8728 48.1189 57.797 48.1189 55.2362C48.1189 52.6755 46.0431 50.5996 43.4823 50.5996C40.9216 50.5996 38.8457 52.6755 38.8457 55.2362C38.8457 57.797 40.9216 59.8728 43.4823 59.8728Z" fill="#FF0D1B"/>
<path d="M71.1811 59.612C73.7751 58.833 76.5328 58.0206 78.59 56.1687C80.4282 54.5138 81.6693 51.9867 80.9077 49.5049C80.1477 47.0282 77.8713 45.3767 75.521 44.5553C74.188 44.0894 72.7934 43.831 71.3993 43.6279C69.8839 43.4072 68.3617 43.2264 66.8403 43.0524C60.6798 42.3478 54.4962 41.9173 48.2894 41.7611C45.2268 41.6839 42.1647 41.6858 39.1016 41.7303C36.3661 41.77 33.485 41.769 30.9473 40.6063C28.9739 39.7022 27.1828 38.0573 26.6329 35.8958C25.9982 33.4006 27.1689 30.8596 28.8484 29.0525C29.7337 28.1 30.7683 27.2983 31.8356 26.5611C32.9935 25.7614 34.1918 25.0183 35.416 24.3246C37.8271 22.9591 40.3479 21.797 42.9522 20.8504C44.2369 20.3832 45.5406 19.9802 46.8557 19.6084C47.9662 19.2945 49.0801 18.9801 50.1534 18.5523C52.2281 17.7254 54.2014 16.3247 54.729 14.0284C55.2289 11.8521 54.386 9.48953 52.9081 7.87277C51.1983 6.0023 48.6203 5.18234 46.1487 5.04968C43.3739 4.90074 40.6631 5.59519 38.0551 6.47653C35.2735 7.41655 32.5518 8.49741 29.7114 9.25882C26.8947 10.0131 24.0236 10.5468 21.124 10.8551C19.7046 11.0062 18.2422 11.1769 16.8143 11.0612C15.6176 10.9642 14.4271 10.6123 13.5451 9.76297C12.7889 9.03474 12.3384 8.03392 12.4933 6.97774C12.5214 6.7859 12.8128 6.86746 12.7849 7.05813C12.5963 8.34379 13.4703 9.5285 14.5472 10.1354C15.7918 10.8367 17.3064 10.8377 18.6921 10.7575C21.6967 10.576 24.681 10.1446 27.614 9.46772C30.496 8.80947 33.2751 7.86846 36.051 6.86325C38.6875 5.90855 41.3828 4.97677 44.1994 4.76999C46.6433 4.59056 49.2142 4.9466 51.3432 6.22378C53.2144 7.34625 54.5904 9.21815 55.0288 11.3662C55.4572 13.4652 54.8639 15.578 53.2749 17.0428C51.6298 18.5594 49.3741 19.2078 47.2719 19.8049C44.6056 20.5624 41.9965 21.4477 39.471 22.5973C36.9112 23.7592 34.4561 25.1395 32.1331 26.7227C29.8907 28.255 27.6778 30.1831 26.9686 32.9167C26.6383 34.1901 26.6993 35.5407 27.252 36.7434C27.7435 37.8128 28.5529 38.7124 29.4959 39.4063C31.7458 41.0618 34.5813 41.4017 37.299 41.4355C40.3512 41.4735 43.4035 41.3705 46.4568 41.4206C52.6792 41.5227 58.8888 41.9015 65.0858 42.5568C66.6386 42.7212 68.1894 42.9029 69.7383 43.1019C71.1314 43.2809 72.5293 43.4587 73.899 43.7766C76.3344 44.3419 78.7043 45.4289 80.2181 47.4938C80.8899 48.3889 81.3061 49.4495 81.4223 50.5626C81.5283 51.7242 81.2439 52.8879 80.7187 53.9212C79.5563 56.2083 77.379 57.6631 75.0667 58.6188C73.8283 59.1307 72.5436 59.5185 71.2615 59.9036C71.0747 59.9597 70.9949 59.6679 71.1811 59.612Z" fill="#F2F2F2"/>
<path d="M12.6886 9.42415C14.0247 9.42415 15.1077 8.34108 15.1077 7.00504C15.1077 5.66901 14.0247 4.58594 12.6886 4.58594C11.3526 4.58594 10.2695 5.66901 10.2695 7.00504C10.2695 8.34108 11.3526 9.42415 12.6886 9.42415Z" fill="#F2F2F2"/>
<path d="M29.4718 14.0111C30.8079 14.0111 31.8909 12.928 31.8909 11.592C31.8909 10.2559 30.8079 9.17285 29.4718 9.17285C28.1358 9.17285 27.0527 10.2559 27.0527 11.592C27.0527 12.928 28.1358 14.0111 29.4718 14.0111Z" fill="#F2F2F2"/>
<path d="M43.6847 4.83821C45.0208 4.83821 46.1038 3.75514 46.1038 2.4191C46.1038 1.08307 45.0208 0 43.6847 0C42.3487 0 41.2656 1.08307 41.2656 2.4191C41.2656 3.75514 42.3487 4.83821 43.6847 4.83821Z" fill="#F2F2F2"/>
<path d="M52.5539 15.1195C53.8899 15.1195 54.973 14.0364 54.973 12.7004C54.973 11.3643 53.8899 10.2812 52.5539 10.2812C51.2178 10.2812 50.1348 11.3643 50.1348 12.7004C50.1348 14.0364 51.2178 15.1195 52.5539 15.1195Z" fill="#F2F2F2"/>
<path d="M40.5597 27.013C41.8958 27.013 42.9788 25.9299 42.9788 24.5939C42.9788 23.2579 41.8958 22.1748 40.5597 22.1748C39.2237 22.1748 38.1406 23.2579 38.1406 24.5939C38.1406 25.9299 39.2237 27.013 40.5597 27.013Z" fill="#F2F2F2"/>
<path d="M25.339 32.7591C26.6751 32.7591 27.7581 31.676 27.7581 30.34C27.7581 29.004 26.6751 27.9209 25.339 27.9209C24.003 27.9209 22.9199 29.004 22.9199 30.34C22.9199 31.676 24.003 32.7591 25.339 32.7591Z" fill="#F2F2F2"/>
<path d="M41.466 41.7298C42.802 41.7298 43.8851 40.6467 43.8851 39.3107C43.8851 37.9747 42.802 36.8916 41.466 36.8916C40.1299 36.8916 39.0469 37.9747 39.0469 39.3107C39.0469 40.6467 40.1299 41.7298 41.466 41.7298Z" fill="#F2F2F2"/>
<path d="M58.8039 46.7689C60.1399 46.7689 61.223 45.6858 61.223 44.3498C61.223 43.0137 60.1399 41.9307 58.8039 41.9307C57.4678 41.9307 56.3848 43.0137 56.3848 44.3498C56.3848 45.6858 57.4678 46.7689 58.8039 46.7689Z" fill="#F2F2F2"/>
<path d="M79.0636 45.6605C80.3997 45.6605 81.4827 44.5774 81.4827 43.2414C81.4827 41.9053 80.3997 40.8223 79.0636 40.8223C77.7276 40.8223 76.6445 41.9053 76.6445 43.2414C76.6445 44.5774 77.7276 45.6605 79.0636 45.6605Z" fill="#F2F2F2"/>
<path d="M42.9851 6.85484C35.7387 6.90603 29.8054 12.7947 29.7025 20.0406C29.7016 20.1075 29.7011 20.5779 29.7012 21.1931C29.7012 22.0952 30.0596 22.9603 30.6974 23.5982C31.3353 24.2361 32.2004 24.5945 33.1024 24.5946C33.5496 24.5945 33.9924 24.5063 34.4054 24.335C34.8185 24.1637 35.1938 23.9127 35.5098 23.5964C35.8258 23.28 36.0764 22.9045 36.2472 22.4912C36.4181 22.078 36.5058 21.6351 36.5054 21.1879C36.5051 20.7694 36.5049 20.4797 36.5049 20.462C36.5046 19.3421 36.7959 18.2415 37.3501 17.2684C37.9042 16.2953 38.7021 15.4832 39.6653 14.912C40.6285 14.3407 41.7238 14.0301 42.8435 14.0106C43.9632 13.9911 45.0687 14.2634 46.0512 14.8007C47.0337 15.3381 47.8594 16.1219 48.4471 17.0751C49.0348 18.0284 49.3642 19.1182 49.403 20.2373C49.4417 21.3565 49.1885 22.4665 48.6681 23.4581C48.1478 24.4497 47.3783 25.2888 46.4353 25.8928L46.4365 25.8942C46.4365 25.8942 41.5954 29.0108 40.1195 33.2861L40.1208 33.2864C39.8613 34.1623 39.7297 35.0711 39.7303 35.9846C39.7303 36.3601 39.7524 39.6456 39.7951 42.3123C39.81 43.2324 40.1861 44.1098 40.8421 44.7551C41.4981 45.4004 42.3816 45.762 43.3018 45.7618C43.7642 45.7617 44.222 45.6703 44.649 45.4927C45.0759 45.3151 45.4635 45.0548 45.7894 44.7268C46.1153 44.3988 46.3732 44.0096 46.5482 43.5816C46.7232 43.1536 46.8118 42.6952 46.8089 42.2328C46.7941 39.7906 46.7861 36.9469 46.7861 36.7405C46.7861 34.1153 49.3186 31.4997 51.3989 29.7939C53.7944 27.8297 55.5182 25.153 56.2106 22.1335C56.3638 21.5119 56.4483 20.8753 56.4625 20.2352C56.4625 18.4699 56.1132 16.722 55.4347 15.0923C54.7562 13.4626 53.7619 11.9832 52.5091 10.7395C51.2564 9.49574 49.7699 8.51218 48.1353 7.84547C46.5007 7.17877 44.7504 6.84209 42.9851 6.85484Z" fill="#FF0D1B"/>
<path d="M85.0196 59.9998H0.119669C0.0878991 59.9997 0.0574624 59.987 0.0350301 59.9645C0.0125977 59.942 0 59.9116 0 59.8798C0 59.848 0.0125977 59.8175 0.0350301 59.795C0.0574624 59.7725 0.0878991 59.7599 0.119669 59.7598H85.0196C85.0514 59.7598 85.0819 59.7724 85.1044 59.7949C85.1269 59.8174 85.1396 59.848 85.1396 59.8798C85.1396 59.9116 85.1269 59.9421 85.1044 59.9646C85.0819 59.9872 85.0514 59.9998 85.0196 59.9998Z" fill="#3F3D56"/>
<path d="M63.3442 27.5165C65.0142 27.5165 66.3681 26.1627 66.3681 24.4926C66.3681 22.8226 65.0142 21.4688 63.3442 21.4688C61.6742 21.4688 60.3203 22.8226 60.3203 24.4926C60.3203 26.1627 61.6742 27.5165 63.3442 27.5165Z" fill="#221F1F"/>
<path d="M57.7572 58.6766H56.5215L55.9336 53.9102H57.7575L57.7572 58.6766Z" fill="#FFD2BB"/>
<path d="M55.6392 58.3232H58.0224V59.8238H54.1387C54.1387 59.6267 54.1775 59.4316 54.2529 59.2496C54.3283 59.0675 54.4388 58.9021 54.5782 58.7627C54.7175 58.6234 54.8829 58.5129 55.065 58.4375C55.247 58.3621 55.4422 58.3232 55.6392 58.3232Z" fill="#221F1F"/>
<path d="M67.3334 58.6766H66.0977L65.5098 53.9102H67.3337L67.3334 58.6766Z" fill="#FFD2BB"/>
<path d="M65.2154 58.3232H67.5986V59.8238H63.7148C63.7148 59.6267 63.7537 59.4316 63.8291 59.2496C63.9045 59.0675 64.015 58.9021 64.1543 58.7627C64.2937 58.6234 64.4591 58.5129 64.6411 58.4375C64.8232 58.3621 65.0183 58.3232 65.2154 58.3232Z" fill="#221F1F"/>
<path d="M62.8858 27.5343C64.2531 27.5343 65.3615 26.4259 65.3615 25.0587C65.3615 23.6914 64.2531 22.583 62.8858 22.583C61.5185 22.583 60.4102 23.6914 60.4102 25.0587C60.4102 26.4259 61.5185 27.5343 62.8858 27.5343Z" fill="#FFD2BB"/>
<path d="M64.3612 35.5208L65.4689 32.9757C65.738 32.3787 65.8151 31.7129 65.6896 31.0701C65.5641 30.4274 65.2423 29.8394 64.7684 29.3874C64.6711 29.2912 64.5677 29.2013 64.4589 29.1183C63.9124 28.6907 63.2388 28.4577 62.5449 28.4561C62.0783 28.4579 61.6176 28.5603 61.1942 28.7564C61.1579 28.7726 61.1226 28.7897 61.0863 28.8068C61.0168 28.8401 60.9483 28.8764 60.8817 28.9137C60.4478 29.1628 60.0785 29.5105 59.8036 29.9286C59.5287 30.3467 59.3559 30.8235 59.2992 31.3207L58.8103 35.417C58.6874 35.7386 54.3007 47.3503 55.8349 56.2153C55.8512 56.3099 55.8974 56.3969 55.9666 56.4635C56.0359 56.53 56.1247 56.5727 56.2199 56.5852L57.7752 56.7969C57.8888 56.8124 58.004 56.7843 58.0977 56.7183C58.1914 56.6523 58.2566 56.5532 58.2802 56.4411L60.8898 44.0018C60.906 43.9245 60.9478 43.8549 61.0082 43.8041C61.0687 43.7533 61.1445 43.7243 61.2234 43.7216C61.3023 43.7189 61.3799 43.7428 61.4437 43.7894C61.5074 43.836 61.5537 43.9026 61.5752 43.9786L65.2623 57.06C65.2886 57.155 65.3453 57.2388 65.4238 57.2985C65.5022 57.3582 65.5981 57.3906 65.6967 57.3906C65.7262 57.3904 65.7555 57.3877 65.7844 57.3825L67.6844 57.0166C67.7949 56.996 67.8936 56.9348 67.9613 56.8451C68.029 56.7554 68.0608 56.6437 68.0503 56.5318C67.7711 53.4182 66.2874 37.822 64.3612 35.5208Z" fill="#014898"/>
<path d="M53.2646 27.1194C53.2475 27.2666 53.2628 27.4157 53.3095 27.5564C53.3562 27.697 53.4331 27.8257 53.5349 27.9333C53.6368 28.041 53.7609 28.125 53.8987 28.1795C54.0365 28.234 54.1846 28.2576 54.3325 28.2486L55.7163 31.5741L56.7631 30.0225L55.2885 27.1024C55.257 26.8549 55.1359 26.6276 54.948 26.4635C54.7601 26.2993 54.5185 26.2099 54.269 26.2119C54.0196 26.214 53.7795 26.3076 53.5944 26.4748C53.4093 26.6421 53.292 26.8714 53.2646 27.1194Z" fill="#FFD2BB"/>
<path d="M62.7481 38.8696C62.8953 38.852 63.0367 38.8024 63.1626 38.7242C63.2885 38.646 63.3957 38.5412 63.4767 38.4171C63.5577 38.293 63.6104 38.1527 63.6313 38.006C63.6522 37.8593 63.6406 37.7098 63.5975 37.568L66.509 35.4474L64.7561 34.791L62.26 36.9054C62.0267 36.9937 61.8339 37.1645 61.718 37.3854C61.6022 37.6064 61.5715 37.8622 61.6316 38.1043C61.6918 38.3464 61.8387 38.558 62.0445 38.6991C62.2502 38.8402 62.5006 38.9008 62.7481 38.8696Z" fill="#FFD2BB"/>
<path d="M58.0022 33.7912C57.8905 33.7911 57.7792 33.7802 57.6697 33.7585C57.4049 33.7081 57.1565 33.5933 56.9465 33.4243C56.7365 33.2552 56.5713 33.0371 56.4654 32.7892L54.5267 30.4252C54.4857 30.3752 54.4559 30.3171 54.4392 30.2546C54.4225 30.1922 54.4194 30.1269 54.43 30.0631C54.4406 29.9994 54.4647 29.9386 54.5007 29.8849C54.5367 29.8312 54.5837 29.7859 54.6387 29.7518L56.018 28.898C56.0689 28.8665 56.1256 28.8454 56.1847 28.8358C56.2439 28.8263 56.3043 28.8286 56.3626 28.8426C56.4208 28.8565 56.4757 28.8819 56.5241 28.9172C56.5725 28.9525 56.6134 28.997 56.6445 29.0482L58.0109 31.2994L60.6277 29.3655C60.8361 29.2562 61.0768 29.2256 61.3059 29.2792C61.5349 29.3327 61.7371 29.4669 61.8754 29.6572C62.0137 29.8475 62.0789 30.0812 62.0592 30.3157C62.0394 30.5501 61.9359 30.7696 61.7677 30.934L59.1559 33.3165C58.849 33.6207 58.4343 33.7914 58.0022 33.7912Z" fill="#014898"/>
<path d="M65.0725 37.3467C65.0689 37.3467 65.0654 37.3467 65.0618 37.3466C64.9982 37.345 64.9356 37.3301 64.8782 37.3029C64.8207 37.2756 64.7695 37.2366 64.7281 37.1883L63.5018 35.7576C63.46 35.7089 63.4291 35.6519 63.411 35.5903C63.3929 35.5287 63.3881 35.464 63.3968 35.4005C63.4056 35.3369 63.4278 35.2759 63.4618 35.2215C63.4959 35.1672 63.5412 35.1206 63.5946 35.085L65.8909 33.5542L63.8106 31.0532C63.6896 30.8515 63.6452 30.6129 63.6855 30.3811C63.7259 30.1494 63.8482 29.9399 64.0303 29.7909C64.2124 29.6419 64.442 29.5634 64.6771 29.5697C64.9123 29.576 65.1373 29.6667 65.3112 29.8252L67.8395 32.296C68.0385 32.4778 68.1904 32.7052 68.2821 32.9586C68.3739 33.212 68.4028 33.4839 68.3664 33.7509C68.33 34.018 68.2293 34.2722 68.073 34.4918C67.9167 34.7113 67.7094 34.8897 67.469 35.0115L65.4026 37.2042C65.3601 37.2492 65.309 37.285 65.2522 37.3095C65.1954 37.334 65.1343 37.3466 65.0725 37.3467Z" fill="#014898"/>
<path d="M62.2562 32.0745C62.2365 32.0745 62.2168 32.0733 62.1973 32.0708C62.1119 32.0604 62.0313 32.0257 61.965 31.9709C61.8987 31.9161 61.8495 31.8434 61.8233 31.7614L60.9018 28.9362C60.8787 28.8648 60.8822 28.7874 60.9118 28.7184C60.9413 28.6494 60.9948 28.5934 61.0624 28.5608L61.0923 28.5467C61.1195 28.5338 61.1463 28.521 61.1737 28.5088C61.6034 28.3095 62.0712 28.2056 62.5449 28.2041C63.1598 28.2052 63.761 28.3859 64.2747 28.7239C64.3435 28.7697 64.3916 28.8408 64.4086 28.9217C64.4256 29.0027 64.4101 29.0871 64.3655 29.1567L62.6368 31.8649C62.5963 31.9292 62.5401 31.9822 62.4735 32.0188C62.407 32.0555 62.3322 32.0747 62.2562 32.0745Z" fill="#DCDCDC"/>
<path d="M65.7297 23.143C66.2762 23.143 66.7192 22.7 66.7192 22.1535C66.7192 21.6071 66.2762 21.1641 65.7297 21.1641C65.1832 21.1641 64.7402 21.6071 64.7402 22.1535C64.7402 22.7 65.1832 23.143 65.7297 23.143Z" fill="#221F1F"/>
<path d="M62.3375 21.0664C61.6424 21.0664 60.9759 21.3425 60.4844 21.834C59.9929 22.3255 59.7168 22.992 59.7168 23.6871V24.7959H61.0805L61.7327 23.6871L61.9284 24.7959H66.0669L64.9582 23.6871C64.9582 22.992 64.6821 22.3255 64.1906 21.834C63.6991 21.3425 63.0325 21.0664 62.3375 21.0664Z" fill="#221F1F"/>
<path d="M66.2383 21.476C66.3477 21.1338 66.5742 20.8412 66.8781 20.6495C67.1819 20.4579 67.5436 20.3795 67.8995 20.4281C68.5301 20.5335 69.0286 21.0404 69.3257 21.6065C69.6228 22.1727 69.7599 22.8063 69.9596 23.4136C70.1593 24.0209 70.4426 24.6316 70.9467 25.0247C71.4509 25.4179 72.2245 25.5245 72.7197 25.1201C72.6631 25.5416 72.4755 25.9346 72.1833 26.2436C71.8911 26.5526 71.5092 26.7619 71.0915 26.8419C70.6738 26.922 70.2416 26.8687 69.8559 26.6896C69.4702 26.5105 69.1505 26.2146 68.9422 25.8439C68.6809 25.3791 68.6134 24.8343 68.536 24.3067C68.4585 23.7791 68.3578 23.2332 68.0459 22.8007C67.734 22.3683 67.15 22.0858 66.6545 22.2828L66.2383 21.476Z" fill="#221F1F"/>
<path d="M34.0635 22.9851C33.1615 22.985 32.2964 22.6266 31.6585 21.9887C31.0207 21.3509 30.6623 20.4857 30.6623 19.5837C30.6622 18.9684 30.6627 18.498 30.6636 18.4311C30.6923 16.3238 31.223 14.2537 32.2117 12.3926C30.5872 14.6164 29.694 17.2902 29.6556 20.0439C29.6547 20.1108 29.6543 20.5812 29.6543 21.1964C29.6544 22.0985 30.0127 22.9636 30.6506 23.6015C31.2884 24.2394 32.1535 24.5978 33.0556 24.5979C33.7968 24.5976 34.5177 24.3554 35.1088 23.908C35.6998 23.4606 36.1287 22.8326 36.3302 22.1192C35.7074 22.6777 34.9001 22.9861 34.0635 22.9851Z" fill="#C30000"/>
<path d="M43.2159 14.0215C44.2588 14.0713 45.274 14.3735 46.1743 14.9021C47.0747 15.4306 47.8333 16.1698 48.385 17.0562C48.9368 17.9425 49.2652 18.9495 49.342 19.9907C49.4188 21.032 49.2418 22.0763 48.8261 23.034C49.4274 22.3279 49.8693 21.5004 50.1218 20.608C50.3742 19.7157 50.4313 18.7793 50.2891 17.8629C50.1469 16.9465 49.8087 16.0715 49.2977 15.2975C48.7867 14.5236 48.1148 13.869 47.3278 13.3783C46.5409 12.8876 45.6574 12.5724 44.7375 12.4541C43.8177 12.3358 42.8832 12.4172 41.9977 12.6928C41.1122 12.9684 40.2965 13.4317 39.6063 14.0511C38.9161 14.6706 38.3675 15.4315 37.998 16.2821C38.6366 15.531 39.4392 14.9365 40.3439 14.5445C41.2485 14.1526 42.2311 13.9736 43.2159 14.0215Z" fill="#C30000"/>
<path d="M44.263 44.1523C43.3428 44.1525 42.4594 43.7909 41.8033 43.1456C41.1473 42.5003 40.7713 41.6229 40.7563 40.7028C40.7137 38.0361 40.6916 34.7506 40.6916 34.3751C40.691 33.4616 40.8225 32.5528 41.082 31.677L41.0808 31.6767C41.234 31.2371 41.4191 30.8092 41.6346 30.3965C40.9732 31.2779 40.4468 32.2529 40.0728 33.2894L40.074 33.2897C39.8145 34.1656 39.683 35.0743 39.6836 35.9878C39.6836 36.3633 39.7057 39.6489 39.7484 42.3156C39.7633 43.2357 40.1393 44.113 40.7954 44.7584C41.4514 45.4037 42.3348 45.7652 43.2551 45.765C44.0138 45.7649 44.7521 45.5188 45.3591 45.0636C45.9661 44.6083 46.4092 43.9686 46.6218 43.2403C45.9771 43.8282 45.1356 44.1535 44.263 44.1523Z" fill="#C30000"/>
<path d="M12.7542 58.7226L13.9899 58.7225L14.5778 53.9561L12.7539 53.9562L12.7542 58.7226Z" fill="#FFD2BB"/>
<path d="M16.373 59.8691L12.4893 59.8693L12.4892 58.3688L14.8724 58.3687C15.2704 58.3687 15.6521 58.5267 15.9335 58.8081C16.2149 59.0895 16.373 59.4712 16.373 59.8691Z" fill="#221F1F"/>
<path d="M8.32061 58.7226L9.55627 58.7225L10.1442 53.9561L8.32031 53.9562L8.32061 58.7226Z" fill="#FFD2BB"/>
<path d="M11.9395 59.8691L8.05571 59.8693L8.05564 58.3688L10.4389 58.3687C10.8368 58.3687 11.2185 58.5267 11.4999 58.8081C11.7813 59.0895 11.9394 59.4712 11.9395 59.8691Z" fill="#221F1F"/>
<path d="M9.39947 57.2566L8.19243 57.1931C8.13019 57.1898 8.06922 57.1743 8.01305 57.1473C7.95688 57.1202 7.90663 57.0824 7.8652 57.0358C7.82378 56.9892 7.792 56.9349 7.77173 56.876C7.75145 56.817 7.74306 56.7547 7.74706 56.6925L9.18973 40.7197L15.8333 42.5124L16.4734 42.3378L14.4717 56.478C14.4547 56.5843 14.4019 56.6817 14.322 56.754C14.2421 56.8263 14.14 56.8692 14.0324 56.8756L12.7313 56.9362C12.6662 56.9398 12.6011 56.9299 12.5401 56.9071C12.4791 56.8842 12.4234 56.849 12.3767 56.8036C12.33 56.7581 12.2932 56.7035 12.2687 56.6431C12.2442 56.5828 12.2324 56.518 12.2342 56.4528L12.47 47.9662C12.4711 47.9269 12.4574 47.8887 12.4318 47.859C12.4061 47.8293 12.3702 47.8103 12.3312 47.8058C12.2922 47.8012 12.2529 47.8114 12.2211 47.8344C12.1892 47.8574 12.1672 47.8914 12.1592 47.9299L9.88555 56.8818C9.86408 56.988 9.80645 57.0835 9.72247 57.152C9.63848 57.2205 9.53335 57.2577 9.42499 57.2573C9.41654 57.2573 9.40803 57.2571 9.39947 57.2566Z" fill="#014898"/>
<path d="M12.9776 27.6505C14.3449 27.6505 15.4533 26.5421 15.4533 25.1749C15.4533 23.8076 14.3449 22.6992 12.9776 22.6992C11.6103 22.6992 10.502 23.8076 10.502 25.1749C10.502 26.5421 11.6103 27.6505 12.9776 27.6505Z" fill="#FFD2BB"/>
<path d="M8.85395 32.4477L9.12615 38.3208L9.22456 40.4576C9.22848 40.5506 9.26006 40.6403 9.31526 40.7153C9.37046 40.7903 9.44678 40.8471 9.53444 40.8784L15.9185 43.191C15.97 43.2102 16.0247 43.2198 16.0797 43.2193C16.1426 43.2196 16.2049 43.2072 16.2629 43.1829C16.3208 43.1586 16.3734 43.1229 16.4172 43.0778C16.4611 43.0328 16.4955 42.9794 16.5182 42.9207C16.541 42.8621 16.5517 42.7995 16.5498 42.7367L16.288 32.1766C16.2708 31.3102 15.9519 30.4769 15.3862 29.8204C14.8205 29.164 14.0435 28.7254 13.1892 28.5804C13.1274 28.571 13.0646 28.5616 13.0018 28.5532C12.472 28.4875 11.9343 28.5386 11.4264 28.703C10.9185 28.8674 10.4528 29.1411 10.0621 29.5049C9.65748 29.877 9.33957 30.3334 9.13081 30.8419C8.92204 31.3505 8.82753 31.8986 8.85395 32.4477Z" fill="#DCDCDC"/>
<path d="M18.9697 42.0194C18.8187 41.9725 18.6808 41.891 18.5669 41.7814C18.453 41.6717 18.3663 41.537 18.3137 41.3879C18.2611 41.2388 18.2441 41.0795 18.2641 40.9226C18.284 40.7658 18.3404 40.6158 18.4286 40.4846L16.2637 37.6059L18.1318 37.4902L19.9013 40.2417C20.0907 40.3881 20.2225 40.5966 20.2736 40.8305C20.3247 41.0644 20.2917 41.3089 20.1806 41.521C20.0695 41.733 19.8872 41.8992 19.6658 41.9904C19.4444 42.0815 19.1979 42.0918 18.9697 42.0194Z" fill="#FFD2BB"/>
<path d="M17.4461 39.9633C17.3887 39.94 17.3365 39.9056 17.2926 39.862C17.2486 39.8185 17.2137 39.7666 17.1899 39.7095L13.9284 31.9387C13.8644 31.7865 13.831 31.6233 13.8301 31.4582C13.8292 31.2931 13.8609 31.1295 13.9233 30.9767C13.9857 30.8239 14.0776 30.6849 14.1937 30.5676C14.3098 30.4503 14.448 30.3571 14.6002 30.2932C14.7523 30.2293 14.9156 30.1961 15.0807 30.1953C15.2457 30.1946 15.4093 30.2264 15.5621 30.2889C15.7149 30.3514 15.8538 30.4434 15.971 30.5596C16.0882 30.6759 16.1813 30.814 16.2451 30.9663L19.5067 38.7372C19.5549 38.8524 19.5554 38.982 19.5082 39.0977C19.4609 39.2133 19.3697 39.3054 19.2546 39.3539L17.8066 39.9616C17.7496 39.9857 17.6884 39.9983 17.6265 39.9986C17.5646 39.9989 17.5033 39.9869 17.4461 39.9633Z" fill="#DCDCDC"/>
<path d="M12.1806 39.6896L15.3133 33.6913C15.3737 33.576 15.4774 33.4893 15.6016 33.4503C15.7259 33.4113 15.8605 33.4232 15.976 33.4833L20.5231 35.8581C20.6384 35.9185 20.7251 36.0222 20.7641 36.1465C20.8031 36.2707 20.7912 36.4053 20.731 36.5208L17.5984 42.5191C17.538 42.6344 17.4343 42.7211 17.31 42.7601C17.1858 42.7991 17.0511 42.7872 16.9357 42.7271L12.3886 40.3523C12.2732 40.2919 12.1866 40.1882 12.1476 40.064C12.1086 39.9397 12.1205 39.8051 12.1806 39.6896Z" fill="#FF0D1B"/>
<path d="M14.2816 36.9495C14.226 36.8015 14.1364 36.6686 14.0203 36.5614C13.9041 36.4542 13.7645 36.3756 13.6125 36.3319C13.4606 36.2883 13.3005 36.2807 13.1451 36.3099C12.9898 36.339 12.8433 36.4041 12.7176 36.4999L9.71604 34.5088L9.71094 36.3805L12.562 37.9844C12.7194 38.1648 12.9353 38.2841 13.1719 38.3213C13.4084 38.3585 13.6505 38.3112 13.8556 38.1877C14.0608 38.0642 14.2159 37.8725 14.2938 37.6461C14.3717 37.4197 14.3674 37.1731 14.2816 36.9495Z" fill="#FFD2BB"/>
<path d="M10.4859 37.3698L8.03283 35.4267C7.76745 35.3376 7.52767 35.1854 7.33405 34.9832C7.14044 34.7811 6.99877 34.5349 6.92122 34.266C6.84368 33.997 6.83256 33.7132 6.88882 33.439C6.94509 33.1648 7.06705 32.9083 7.24426 32.6916L9.47156 29.7726C9.62634 29.5834 9.84402 29.4563 10.0848 29.4145C10.3256 29.3726 10.5734 29.4188 10.7829 29.5446C10.9925 29.6704 11.1497 29.8674 11.226 30.0996C11.3022 30.3318 11.2923 30.5837 11.1982 30.8092L9.43586 33.692L12.0257 34.9204C12.0859 34.9489 12.1394 34.9899 12.1826 35.0407C12.2258 35.0915 12.2577 35.1508 12.2763 35.2148C12.2949 35.2788 12.2996 35.3461 12.2903 35.4121C12.2809 35.4781 12.2577 35.5413 12.2221 35.5977L11.1766 37.2521C11.1413 37.308 11.0946 37.3558 11.0396 37.3924C10.9847 37.4291 10.9226 37.4538 10.8575 37.4649C10.8549 37.4654 10.8523 37.4658 10.8497 37.4662C10.7857 37.4758 10.7204 37.4723 10.6578 37.4557C10.5952 37.4391 10.5367 37.4099 10.4859 37.3698Z" fill="#DCDCDC"/>
<path d="M11.1058 26.8324C11.0952 26.8013 11.0918 26.7682 11.096 26.7356C11.1001 26.703 11.1116 26.6718 11.1297 26.6444C11.1478 26.617 11.1719 26.5941 11.2002 26.5774C11.2284 26.5607 11.2602 26.5507 11.2929 26.5482C11.36 26.5519 11.4256 26.5691 11.4858 26.5988C11.546 26.6285 11.5996 26.6701 11.6433 26.7211C11.7329 26.8244 11.8372 26.9139 11.9529 26.9869C12.0726 27.0473 12.235 27.0386 12.3033 26.9236C12.3674 26.8155 12.3235 26.6708 12.2847 26.5452C12.1859 26.2258 12.1307 25.8946 12.1204 25.5604C12.1092 25.1875 12.1618 24.7982 12.3683 24.5073C12.6348 24.1319 13.1113 23.9894 13.5623 23.9997C14.0133 24.01 14.4569 24.1492 14.9036 24.2372C15.0578 24.2676 15.2391 24.2831 15.3422 24.1636C15.4519 24.0365 15.4116 23.8309 15.365 23.6593C15.2439 23.214 15.1155 22.7536 14.8342 22.394C14.5301 22.0204 14.0958 21.7758 13.6186 21.7096C13.1604 21.6529 12.6954 21.7057 12.2616 21.8637C11.5549 22.0864 10.9331 22.5196 10.4792 23.1053C10.0114 23.7282 9.80927 24.511 9.917 25.2826C10.0222 25.9545 10.3783 26.5616 10.9134 26.9814L11.1058 26.8324Z" fill="#221F1F"/>
<path d="M42.4609 58.7419C41.8022 58.4551 41.2192 58.019 40.758 57.4683C40.2967 56.9175 39.9697 56.2671 39.8028 55.5683C39.636 54.8695 39.6338 54.1415 39.7965 53.4418C39.9592 52.742 40.2823 52.0896 40.7403 51.5361C40.2093 51.9238 39.7668 52.42 39.4422 52.9918C39.1176 53.5636 38.9184 54.1979 38.8577 54.8526C38.797 55.5072 38.8762 56.1673 39.0901 56.789C39.304 57.4107 39.6477 57.9798 40.0984 58.4586C40.5491 58.9373 41.0964 59.3147 41.7041 59.5657C42.3118 59.8167 42.9659 59.9356 43.623 59.9145C44.2802 59.8934 44.9253 59.7328 45.5156 59.4433C46.1059 59.1538 46.6279 58.7421 47.047 58.2354C46.3934 58.7131 45.6261 59.0112 44.8214 59.1001C44.0168 59.189 43.2029 59.0655 42.4609 58.7419Z" fill="#C30000"/>
</g>
<defs>
<clipPath id="clip0_206_114293">
<rect width="85.1399" height="60" fill="white"/>
</clipPath>
</defs>
</svg>
