<svg width="24" height="24" viewBox="0 0 24 24" fill="none" xmlns="http://www.w3.org/2000/svg">
<mask id="mask0_364_5562" style="mask-type:alpha" maskUnits="userSpaceOnUse" x="0" y="0" width="24" height="24">
<circle cx="12" cy="12" r="12" fill="#D9D9D9"/>
</mask>
<g mask="url(#mask0_364_5562)">
<path d="M-6 -0.600098H30.2246V24.5999H-6V-0.600098Z" fill="white"/>
<path d="M14.3763 -0.600098H9.84825V9.63724H-6V14.3622H9.84825V24.5995H14.3763V14.3622H30.2246V9.63724H14.3763V-0.600098Z" fill="#D80027"/>
<path d="M21.8608 16.3818L30.2247 21.2305V16.3818H21.8608ZM16.0498 16.3818L30.2247 24.5991V22.2755L20.0582 16.3818H16.0498ZM26.4489 24.5991L16.0498 18.5701V24.5991H26.4489Z" fill="#0052B4"/>
<path d="M16.0498 16.3818L30.2247 24.5991V22.2755L20.0582 16.3818H16.0498Z" fill="white"/>
<path d="M16.0498 16.3818L30.2247 24.5991V22.2755L20.0582 16.3818H16.0498Z" fill="#D80027"/>
<path d="M0.391727 16.3818L-6 20.0872V16.3818H0.391727ZM8.17485 17.4268V24.5992H-4.19648L8.17485 17.4268Z" fill="#0052B4"/>
<path d="M4.16644 16.3818L-6 22.2755V24.5991L8.17485 16.3818H4.16644Z" fill="#D80027"/>
<path d="M2.36384 7.61718L-6 2.7685V7.61718H2.36384ZM8.17485 7.61718L-6 -0.600098V1.72354L4.16644 7.61718H8.17485ZM-2.2243 -0.600098L8.17485 5.42894V-0.600098H-2.2243Z" fill="#0052B4"/>
<path d="M8.17485 7.61718L-6 -0.600098V1.72354L4.16644 7.61718H8.17485Z" fill="white"/>
<path d="M8.17485 7.61718L-6 -0.600098V1.72354L4.16644 7.61718H8.17485Z" fill="#D80027"/>
<path d="M23.8329 7.61725L30.2247 3.91186V7.61725H23.8329ZM16.0498 6.5723V-0.600098H28.4211L16.0498 6.5723Z" fill="#0052B4"/>
<path d="M20.0582 7.61718L30.2247 1.72354V-0.600098L16.0498 7.61718H20.0582Z" fill="#D80027"/>
</g>
</svg>
