<svg width="30" height="30" viewBox="0 0 30 30" fill="none" xmlns="http://www.w3.org/2000/svg">
<mask id="mask0_189_68288" style="mask-type:alpha" maskUnits="userSpaceOnUse" x="0" y="0" width="30" height="30">
<rect width="30" height="30" rx="5" fill="#F3F3F3"/>
</mask>
<g mask="url(#mask0_189_68288)">
<rect width="30" height="30" rx="5" fill="#014898"/>
<path fill-rule="evenodd" clip-rule="evenodd" d="M14.4781 6.85058C14.7825 6.6071 15.215 6.6071 15.5193 6.85058L21.7691 11.8504C21.7691 11.8504 21.7692 11.8505 21.7691 11.8504L23.8526 13.5172C24.212 13.8048 24.2703 14.3292 23.9828 14.6885C23.6953 15.0479 23.1709 15.1062 22.8115 14.8187L22.0821 14.2352V22.5013C22.0821 22.9615 21.709 23.3346 21.2487 23.3346H8.74873C8.28849 23.3346 7.9154 22.9615 7.9154 22.5013V14.2352L7.18597 14.8187C6.82659 15.1062 6.30218 15.0479 6.01467 14.6885C5.72716 14.3292 5.78543 13.8048 6.14482 13.5172L8.22815 11.8506C8.22807 11.8506 8.22823 11.8505 8.22815 11.8506L14.4781 6.85058ZM9.58206 12.9018L14.9987 8.56849L20.4154 12.9018V21.668H17.9154V17.0846C17.9154 16.6244 17.5423 16.2513 17.0821 16.2513H12.9154C12.4552 16.2513 12.0821 16.6244 12.0821 17.0846V21.668H9.58206V12.9018ZM13.7487 21.668H16.2487V17.918H13.7487V21.668Z" fill="white"/>
</g>
</svg>
