<svg width="20" height="20" xmlns="http://www.w3.org/2000/svg">
  <symbol id="user" viewBox="0 0 24 25" fill="none" xmlns="http://www.w3.org/2000/svg" >
      <path fill-rule="evenodd" clip-rule="evenodd" d="M12 3.5C10.3431 3.5 9 4.84315 9 6.5C9 8.15685 10.3431 9.5 12 9.5C13.6569 9.5 15 8.15685 15 6.5C15 4.84315 13.6569 3.5 12 3.5ZM7 6.5C7 3.73858 9.23858 1.5 12 1.5C14.7614 1.5 17 3.73858 17 6.5C17 9.26142 14.7614 11.5 12 11.5C9.23858 11.5 7 9.26142 7 6.5ZM2 22.5C2 16.9772 6.47717 12.5 12 12.5C17.5228 12.5 22 16.9772 22 22.5C22 23.0523 21.5523 23.5 21 23.5C20.4477 23.5 20 23.0523 20 22.5C20 18.0817 16.4183 14.5 12 14.5C7.58173 14.5 4 18.0817 4 22.5C4 23.0523 3.55228 23.5 3 23.5C2.44772 23.5 2 23.0523 2 22.5Z" fill="currentColor"/>
  </symbol>
  <symbol id="fav" viewBox="0 0 17 17" fill="none" xmlns="http://www.w3.org/2000/svg">
      <path fill-rule="evenodd" clip-rule="evenodd" d="M1.1665 6.83333C1.1665 4.44011 3.1066 2.5 5.49984 2.5C6.66451 2.5 7.72176 2.95988 8.49984 3.70645C9.27792 2.95988 10.3352 2.5 11.4998 2.5C13.8931 2.5 15.8332 4.44011 15.8332 6.83333C15.8332 8.92274 14.6092 10.8329 13.1819 12.2743C11.7481 13.7223 9.99458 14.8145 8.71007 15.2414C8.57359 15.2867 8.42609 15.2867 8.2896 15.2414C7.00509 14.8145 5.25158 13.7223 3.81779 12.2743C2.39048 10.8329 1.1665 8.92274 1.1665 6.83333ZM5.49984 3.83333C3.84298 3.83333 2.49984 5.17649 2.49984 6.83333C2.49984 8.41059 3.44253 10.0004 4.76522 11.3362C5.99619 12.5793 7.45773 13.5014 8.49984 13.9007C9.54194 13.5014 11.0035 12.5793 12.2345 11.3362C13.5571 10.0004 14.4998 8.41059 14.4998 6.83333C14.4998 5.17649 13.1567 3.83333 11.4998 3.83333C10.4858 3.83333 9.58897 4.33586 9.04491 5.10844C8.92004 5.28577 8.71672 5.39127 8.49984 5.39127C8.28296 5.39127 8.07963 5.28577 7.95476 5.10844C7.41071 4.33586 6.51392 3.83333 5.49984 3.83333Z" fill="currentColor"/>
  </symbol>
  <symbol id="list" viewBox="0 0 20 20" fill="none" xmlns="http://www.w3.org/2000/svg" >
    <path d="M5 6.25H11.25M5 8.75H11.25M5 11.25H11.25M5 13.75H11.25M13.75 11.25H16.5625C17.08 11.25 17.5 11.67 17.5 12.1875V15C17.5 15.4973 17.3025 15.9742 16.9508 16.3258C16.5992 16.6775 16.1223 16.875 15.625 16.875M13.75 11.25V15C13.75 15.4973 13.9475 15.9742 14.2992 16.3258C14.6508 16.6775 15.1277 16.875 15.625 16.875M13.75 11.25V4.0625C13.75 3.545 13.33 3.125 12.8125 3.125H3.4375C2.92 3.125 2.5 3.545 2.5 4.0625V15C2.5 15.4973 2.69754 15.9742 3.04917 16.3258C3.40081 16.6775 3.87772 16.875 4.375 16.875H15.625" stroke="currentColor" stroke-width="1" stroke-linecap="round" stroke-linejoin="round"/>
  </symbol>
  <symbol id="list-2" viewBox="0 0 24 24" fill="none" xmlns="http://www.w3.org/2000/svg">
    <path d="M9.5 7C9.5 6.44772 9.94772 6 10.5 6H16.5C17.0523 6 17.5 6.44772 17.5 7C17.5 7.55228 17.0523 8 16.5 8H10.5C9.94772 8 9.5 7.55228 9.5 7Z" fill="currentColor"/>
    <path d="M10.5 11C9.94772 11 9.5 11.4477 9.5 12C9.5 12.5523 9.94772 13 10.5 13H16.5C17.0523 13 17.5 12.5523 17.5 12C17.5 11.4477 17.0523 11 16.5 11H10.5Z" fill="currentColor"/>
    <path d="M9.5 17C9.5 16.4477 9.94772 16 10.5 16H16.5C17.0523 16 17.5 16.4477 17.5 17C17.5 17.5523 17.0523 18 16.5 18H10.5C9.94772 18 9.5 17.5523 9.5 17Z" fill="currentColor"/>
    <path d="M8.5 7C8.5 7.5523 8.0523 8 7.5 8C6.9477 8 6.5 7.5523 6.5 7C6.5 6.4477 6.9477 6 7.5 6C8.0523 6 8.5 6.4477 8.5 7Z" fill="currentColor"/>
    <path d="M7.5 13C8.0523 13 8.5 12.5523 8.5 12C8.5 11.4477 8.0523 11 7.5 11C6.9477 11 6.5 11.4477 6.5 12C6.5 12.5523 6.9477 13 7.5 13Z" fill="currentColor"/>
    <path d="M8.5 17C8.5 17.5523 8.0523 18 7.5 18C6.9477 18 6.5 17.5523 6.5 17C6.5 16.4477 6.9477 16 7.5 16C8.0523 16 8.5 16.4477 8.5 17Z" fill="currentColor"/>
    <path fill-rule="evenodd" clip-rule="evenodd" d="M3 3C3 1.89543 3.89543 1 5 1H19C20.1046 1 21 1.89543 21 3V21C21 22.1046 20.1046 23 19 23H5C3.89543 23 3 22.1046 3 21V3ZM19 3H5V21H19V3Z" fill="currentColor"/>
    <path d="M9.5 7C9.5 6.44772 9.94772 6 10.5 6H16.5C17.0523 6 17.5 6.44772 17.5 7C17.5 7.55228 17.0523 8 16.5 8H10.5C9.94772 8 9.5 7.55228 9.5 7Z" stroke="white" stroke-width="0.4"/>
    <path d="M10.5 11C9.94772 11 9.5 11.4477 9.5 12C9.5 12.5523 9.94772 13 10.5 13H16.5C17.0523 13 17.5 12.5523 17.5 12C17.5 11.4477 17.0523 11 16.5 11H10.5Z" stroke="white" stroke-width="0.4"/>
    <path d="M9.5 17C9.5 16.4477 9.94772 16 10.5 16H16.5C17.0523 16 17.5 16.4477 17.5 17C17.5 17.5523 17.0523 18 16.5 18H10.5C9.94772 18 9.5 17.5523 9.5 17Z" stroke="white" stroke-width="0.4"/>
    <path d="M8.5 7C8.5 7.5523 8.0523 8 7.5 8C6.9477 8 6.5 7.5523 6.5 7C6.5 6.4477 6.9477 6 7.5 6C8.0523 6 8.5 6.4477 8.5 7Z" stroke="white" stroke-width="0.4"/>
    <path d="M7.5 13C8.0523 13 8.5 12.5523 8.5 12C8.5 11.4477 8.0523 11 7.5 11C6.9477 11 6.5 11.4477 6.5 12C6.5 12.5523 6.9477 13 7.5 13Z" stroke="white" stroke-width="0.4"/>
    <path d="M8.5 17C8.5 17.5523 8.0523 18 7.5 18C6.9477 18 6.5 17.5523 6.5 17C6.5 16.4477 6.9477 16 7.5 16C8.0523 16 8.5 16.4477 8.5 17Z" stroke="white" stroke-width="0.4"/>
    <path fill-rule="evenodd" clip-rule="evenodd" d="M3 3C3 1.89543 3.89543 1 5 1H19C20.1046 1 21 1.89543 21 3V21C21 22.1046 20.1046 23 19 23H5C3.89543 23 3 22.1046 3 21V3ZM19 3H5V21H19V3Z" stroke="white" stroke-width="0.4"/>
  </symbol>
  <svg id="star" viewBox="0 0 24 24" fill="none" xmlns="http://www.w3.org/2000/svg">
    <path d="M11.4797 3.49897C11.522 3.3958 11.594 3.30755 11.6866 3.24543C11.7792 3.18331 11.8882 3.15015 11.9997 3.15015C12.1112 3.15015 12.2201 3.18331 12.3127 3.24543C12.4053 3.30755 12.4774 3.3958 12.5197 3.49897L14.6447 8.60997C14.6844 8.70561 14.7498 8.78841 14.8336 8.84928C14.9174 8.91015 15.0164 8.94672 15.1197 8.95497L20.6377 9.39697C21.1367 9.43697 21.3387 10.06 20.9587 10.385L16.7547 13.987C16.6761 14.0542 16.6176 14.1417 16.5855 14.2399C16.5534 14.3382 16.5489 14.4434 16.5727 14.544L17.8577 19.929C17.8835 20.037 17.8767 20.1503 17.8382 20.2545C17.7997 20.3587 17.7312 20.4491 17.6413 20.5144C17.5514 20.5797 17.4442 20.6168 17.3332 20.6212C17.2222 20.6256 17.1124 20.597 17.0177 20.539L12.2927 17.654C12.2044 17.6002 12.103 17.5717 11.9997 17.5717C11.8963 17.5717 11.7949 17.6002 11.7067 17.654L6.98166 20.54C6.88692 20.598 6.77712 20.6266 6.66612 20.6222C6.55512 20.6178 6.44791 20.5807 6.35803 20.5154C6.26815 20.4501 6.19962 20.3597 6.16111 20.2555C6.1226 20.1513 6.11584 20.038 6.14166 19.93L7.42666 14.544C7.45049 14.4434 7.44611 14.3381 7.414 14.2399C7.38189 14.1416 7.3233 14.0541 7.24466 13.987L3.04066 10.385C2.95648 10.3126 2.89557 10.2169 2.86561 10.11C2.83565 10.0031 2.83797 9.88971 2.87228 9.78412C2.90659 9.67852 2.97135 9.58543 3.05843 9.51654C3.1455 9.44766 3.25101 9.40606 3.36166 9.39697L8.87966 8.95497C8.98291 8.94672 9.08188 8.91015 9.16569 8.84928C9.24949 8.78841 9.31488 8.70561 9.35466 8.60997L11.4797 3.49897Z" stroke="currentColor" stroke-width="1.5" stroke-linecap="round" stroke-linejoin="round"/>
  </svg>
  <symbol id="exit" viewBox="0 0 20 20" fill="none" xmlns="http://www.w3.org/2000/svg" >
    <path d="M11.6667 6.66732V5.00065C11.6667 4.55862 11.4911 4.1347 11.1785 3.82214C10.866 3.50958 10.442 3.33398 10 3.33398H4.16667C3.72464 3.33398 3.30072 3.50958 2.98816 3.82214C2.67559 4.1347 2.5 4.55862 2.5 5.00065V15.0007C2.5 15.4427 2.67559 15.8666 2.98816 16.1792C3.30072 16.4917 3.72464 16.6673 4.16667 16.6673H10C10.442 16.6673 10.866 16.4917 11.1785 16.1792C11.4911 15.8666 11.6667 15.4427 11.6667 15.0007V13.334" stroke="currentColor" stroke-width="1" stroke-linecap="round" stroke-linejoin="round"/>
    <path d="M7.5 10H17.5L15 7.5" stroke="currentColor" stroke-width="1" stroke-linecap="round" stroke-linejoin="round"/>
    <path d="M15 12.5L17.5 10" stroke="currentColor" stroke-width="1" stroke-linecap="round" stroke-linejoin="round"/>
  </symbol>
  <symbol id="comp" viewBox="0 0 20 21" fill="none" xmlns="http://www.w3.org/2000/svg">
    <path d="M9.99997 2.99998V18M9.99997 18C8.77331 18 6.51247 18 6.51247 18M9.99997 18C11.2266 18 13.4875 18 13.4875 18M15.625 2.61797L18.1508 2.16663L1.87497 5.07498C2.69997 4.90581 4.37497 4.64164 4.37497 4.64164M15.625 2.61797L18.6416 11.9133C19.162 14.0419 12.1051 13.9852 12.6075 11.9133L15.625 2.61797ZM15.625 2.61797L4.37497 4.64164M4.37497 4.64164L7.39164 13.58C7.91205 15.7085 0.855089 15.6518 1.35747 13.58L4.37497 4.64248V4.64164Z" stroke="currentColor" stroke-width="1" stroke-linecap="round" stroke-linejoin="round"/>
  </symbol>
  <symbol id="cart" viewBox="0 0 20 20" fill="none" xmlns="http://www.w3.org/2000/svg">
    <path d="M1.875 2.5H3.03C3.455 2.5 3.82583 2.78583 3.93583 3.19583L4.255 4.39333M4.255 4.39333C10 5.5 13 5.5 18.035 5.92667C17.3483 7.97167 16.5325 9.95833 15.5983 11.875H6.25M4.255 4.39333L6.25 11.875M6.25 11.875C5.58696 11.875 4.95107 12.1384 4.48223 12.6072C4.01339 13.0761 3.75 13.712 3.75 14.375H16.875M5 16.875C5 17.0408 4.93415 17.1997 4.81694 17.3169C4.69973 17.4342 4.54076 17.5 4.375 17.5C4.20924 17.5 4.05027 17.4342 3.93306 17.3169C3.81585 17.1997 3.75 17.0408 3.75 16.875C3.75 16.7092 3.81585 16.5503 3.93306 16.4331C4.05027 16.3158 4.20924 16.25 4.375 16.25C4.54076 16.25 4.69973 16.3158 4.81694 16.4331C4.93415 16.5503 5 16.7092 5 16.875ZM15.625 16.875C15.625 17.0408 15.5592 17.1997 15.4419 17.3169C15.3247 17.4342 15.1658 17.5 15 17.5C14.8342 17.5 14.6753 17.4342 14.5581 17.3169C14.4408 17.1997 14.375 17.0408 14.375 16.875C14.375 16.7092 14.4408 16.5503 14.5581 16.4331C14.6753 16.3158 14.8342 16.25 15 16.25C15.1658 16.25 15.3247 16.3158 15.4419 16.4331C15.5592 16.5503 15.625 16.7092 15.625 16.875Z" stroke="currentColor" stroke-width="1" stroke-linecap="round" stroke-linejoin="round"/>
  </symbol>
  <symbol id="catalog" viewBox="0 0 20 20" fill="none" xmlns="http://www.w3.org/2000/svg">
    <path d="M11.25 14.0625H14.0625M14.0625 14.0625H16.875M14.0625 14.0625V11.25M14.0625 14.0625V16.875M5 8.75H6.875C7.37228 8.75 7.84919 8.55246 8.20082 8.20082C8.55246 7.84919 8.75 7.37228 8.75 6.875V5C8.75 4.50272 8.55246 4.02581 8.20082 3.67417C7.84919 3.32254 7.37228 3.125 6.875 3.125H5C4.50272 3.125 4.02581 3.32254 3.67417 3.67417C3.32254 4.02581 3.125 4.50272 3.125 5V6.875C3.125 7.37228 3.32254 7.84919 3.67417 8.20082C4.02581 8.55246 4.50272 8.75 5 8.75ZM5 16.875H6.875C7.37228 16.875 7.84919 16.6775 8.20082 16.3258C8.55246 15.9742 8.75 15.4973 8.75 15V13.125C8.75 12.6277 8.55246 12.1508 8.20082 11.7992C7.84919 11.4475 7.37228 11.25 6.875 11.25H5C4.50272 11.25 4.02581 11.4475 3.67417 11.7992C3.32254 12.1508 3.125 12.6277 3.125 13.125V15C3.125 15.4973 3.32254 15.9742 3.67417 16.3258C4.02581 16.6775 4.50272 16.875 5 16.875ZM13.125 8.75H15C15.4973 8.75 15.9742 8.55246 16.3258 8.20082C16.6775 7.84919 16.875 7.37228 16.875 6.875V5C16.875 4.50272 16.6775 4.02581 16.3258 3.67417C15.9742 3.32254 15.4973 3.125 15 3.125H13.125C12.6277 3.125 12.1508 3.32254 11.7992 3.67417C11.4475 4.02581 11.25 4.50272 11.25 5V6.875C11.25 7.37228 11.4475 7.84919 11.7992 8.20082C12.1508 8.55246 12.6277 8.75 13.125 8.75Z" stroke="currentColor" stroke-width="1" stroke-linecap="round" stroke-linejoin="round"/>
  </symbol>
</svg>