<svg width="16" height="16" viewBox="0 0 16 16" fill="none" xmlns="http://www.w3.org/2000/svg">
<path fill-rule="evenodd" clip-rule="evenodd" d="M5.8047 0.86201C5.54435 0.601661 5.12224 0.601661 4.86189 0.86201C4.60154 1.12236 4.60154 1.54447 4.86189 1.80482L6.39048 3.33341H1.33329C0.965103 3.33341 0.666626 3.63189 0.666626 4.00008V6.66675C0.666626 7.03494 0.965103 7.33341 1.33329 7.33341H1.66663V14.6667C1.66663 15.0349 1.9651 15.3334 2.33329 15.3334H13.6666C14.0348 15.3334 14.3333 15.0349 14.3333 14.6667V7.33341H14.6666C15.0348 7.33341 15.3333 7.03494 15.3333 6.66675V4.00008C15.3333 3.63189 15.0348 3.33341 14.6666 3.33341H9.60943L11.138 1.80482C11.3984 1.54447 11.3984 1.12236 11.138 0.86201C10.8777 0.601661 10.4556 0.601661 10.1952 0.86201L7.99996 3.05727L5.8047 0.86201ZM8.66663 7.33341H13V14.0001H8.66663V7.33341ZM2.99996 7.33341H7.33329V14.0001H2.99996V7.33341ZM14 6.00008H1.99996V4.66675H14V6.00008Z" fill="white"/>
</svg>
