<svg width="16" height="16" viewBox="0 0 16 16" fill="none" xmlns="http://www.w3.org/2000/svg">
<path fill-rule="evenodd" clip-rule="evenodd" d="M3.66659 2.47139C3.1143 2.47139 2.66659 2.9191 2.66659 3.47139C2.66659 4.02367 3.1143 4.47138 3.66659 4.47138C4.21887 4.47138 4.66658 4.02367 4.66658 3.47139C4.66658 2.9191 4.21887 2.47139 3.66659 2.47139ZM1.33325 3.47139C1.33325 2.18272 2.37792 1.13805 3.66659 1.13805C4.95525 1.13805 5.99992 2.18272 5.99992 3.47139C5.99992 4.76005 4.95525 5.80472 3.66659 5.80472C2.37792 5.80472 1.33325 4.76005 1.33325 3.47139ZM14.4713 1.52856C14.7317 1.78891 14.7317 2.21102 14.4713 2.47137L2.47132 14.4714C2.21097 14.7317 1.78886 14.7317 1.52851 14.4714C1.26817 14.211 1.26817 13.7889 1.52851 13.5286L13.5285 1.52856C13.7889 1.26821 14.211 1.26821 14.4713 1.52856ZM12.138 11.3334C11.5857 11.3334 11.138 11.7811 11.138 12.3334C11.138 12.8857 11.5857 13.3334 12.138 13.3334C12.6903 13.3334 13.138 12.8857 13.138 12.3334C13.138 11.7811 12.6903 11.3334 12.138 11.3334ZM9.80466 12.3334C9.80466 11.0447 10.8493 10.0001 12.138 10.0001C13.4267 10.0001 14.4713 11.0447 14.4713 12.3334C14.4713 13.6221 13.4267 14.6667 12.138 14.6667C10.8493 14.6667 9.80466 13.6221 9.80466 12.3334Z" fill="white"/>
</svg>
