<svg width="16" height="16" viewBox="0 0 16 16" fill="none" xmlns="http://www.w3.org/2000/svg">
<path d="M15.4512 8C15.4512 7.77067 15.5733 7.464 15.6917 7.16693C15.8923 6.664 16.12 6.09333 15.9259 5.52053C15.7264 4.93173 15.184 4.5968 14.7061 4.3008C14.4341 4.1328 14.1541 3.95893 14.0213 3.78453C13.8875 3.60853 13.8048 3.31253 13.7168 2.99893C13.5701 2.4736 13.4027 1.87787 12.8901 1.52053C12.3899 1.1728 11.76 1.20373 11.2021 1.2304C10.8704 1.2464 10.5269 1.26347 10.2965 1.19147C10.0859 1.12587 9.8416 0.936 9.58293 0.7344C9.14133 0.389867 8.64053 0 8 0C7.35946 0 6.85866 0.389867 6.41653 0.7344C6.1584 0.936 5.91413 1.12587 5.70293 1.19147C5.47146 1.26293 5.12906 1.24587 4.79733 1.2304C4.24213 1.20427 3.60906 1.17333 3.10933 1.52213C2.5968 1.8784 2.42986 2.47467 2.2832 3C2.19466 3.3136 2.112 3.6096 1.97813 3.7856C1.84586 3.95947 1.56533 4.1328 1.29386 4.30027C0.815997 4.5968 0.273597 4.93227 0.0735971 5.52053C-0.120003 6.09333 0.107197 6.664 0.30773 7.16693C0.42613 7.464 0.548797 7.77067 0.548797 8C0.548797 8.22933 0.426664 8.536 0.308264 8.83307C0.10773 9.336 -0.120003 9.90667 0.0741304 10.4795C0.273597 11.0683 0.815997 11.4032 1.29386 11.6992C1.56586 11.8672 1.84586 12.0411 1.97866 12.2155C2.11253 12.3915 2.1952 12.6875 2.2832 13.0011C2.42986 13.5264 2.59733 14.1221 3.10986 14.4795C3.61013 14.8272 4.24053 14.7968 4.79786 14.7696C5.13013 14.7541 5.47306 14.7376 5.70346 14.8085C5.91413 14.8741 6.1584 15.064 6.41706 15.2656C6.85866 15.6101 7.35946 16 8 16C8.64053 16 9.14133 15.6101 9.58346 15.2656C9.8416 15.064 10.0859 14.8741 10.2971 14.8085C10.5275 14.7371 10.8704 14.7531 11.2027 14.7696C11.7595 14.7968 12.3909 14.8272 12.8907 14.4784C13.4032 14.1216 13.5701 13.5259 13.7173 13.0005C13.8053 12.6869 13.888 12.3909 14.0219 12.2149C14.1541 12.0411 14.4347 11.8677 14.7061 11.6997C15.184 11.4032 15.7264 11.0677 15.9264 10.4795C16.12 9.90667 15.8928 9.336 15.6923 8.83307C15.5739 8.536 15.4512 8.22933 15.4512 8ZM14.7013 9.22773C14.8405 9.576 14.9835 9.93653 14.9157 10.1365C14.8389 10.3621 14.4859 10.5808 14.1445 10.792C13.7909 11.0107 13.4245 11.2373 13.1728 11.5685C12.9157 11.9067 12.8011 12.3157 12.6901 12.712C12.5867 13.0821 12.4789 13.4651 12.2805 13.6032C12.0789 13.744 11.6592 13.7243 11.2539 13.7035C10.8304 13.6827 10.3904 13.6619 9.97973 13.7893C9.58346 13.9125 9.25013 14.1728 8.92693 14.4235C8.59146 14.6859 8.27413 14.9333 8 14.9333C7.72586 14.9333 7.40853 14.6859 7.07253 14.424C6.74986 14.1728 6.41653 13.9131 6.01973 13.7899C5.7632 13.7104 5.496 13.6885 5.22773 13.6885C5.06666 13.6885 4.9056 13.6971 4.74613 13.704C4.34026 13.7248 3.92106 13.7445 3.71946 13.6037C3.52106 13.4651 3.41386 13.0827 3.30986 12.7125C3.19893 12.3168 3.08426 11.9072 2.8272 11.5691C2.57493 11.2379 2.20906 11.0107 1.85493 10.792C1.5136 10.5808 1.16053 10.3616 1.08426 10.1365C1.01653 9.93653 1.16 9.576 1.29866 9.22773C1.44693 8.85547 1.61546 8.4336 1.61546 8C1.61546 7.5664 1.44746 7.14453 1.29866 6.77227C1.15946 6.424 1.01653 6.06347 1.08426 5.86347C1.16106 5.63787 1.51413 5.4192 1.85546 5.208C2.20906 4.98933 2.57546 4.76267 2.8272 4.43147C3.08426 4.09333 3.19893 3.68427 3.30986 3.288C3.41333 2.91787 3.52053 2.53493 3.71946 2.3968C3.92053 2.256 4.33973 2.27573 4.74613 2.29653C5.1696 2.31733 5.6096 2.33813 6.02026 2.21067C6.41653 2.08747 6.74986 1.8272 7.07306 1.57653C7.40853 1.31413 7.72586 1.06667 8 1.06667C8.27413 1.06667 8.59146 1.31413 8.92746 1.576C9.25013 1.8272 9.58346 2.08693 9.98026 2.21013C10.3909 2.3376 10.8293 2.31573 11.2544 2.296C11.6603 2.27573 12.0795 2.256 12.2811 2.39627C12.4795 2.53493 12.5867 2.91733 12.6907 3.28747C12.8016 3.6832 12.9163 4.0928 13.1733 4.43093C13.4256 4.76213 13.7915 4.98933 14.1456 5.208C14.4869 5.4192 14.84 5.6384 14.9163 5.86347C14.984 6.06347 14.8405 6.424 14.7019 6.77227C14.5536 7.144 14.3851 7.56587 14.3851 8C14.3851 8.43413 14.5531 8.85547 14.7013 9.22773Z" fill="white"/>
<path d="M5.33341 5.86702C5.03848 5.86702 4.80008 6.10542 4.80008 6.40036V7.83876L3.64381 6.10436C3.51368 5.90862 3.26995 5.82116 3.04541 5.88996C2.82035 5.95822 2.66675 6.16569 2.66675 6.40036V9.60036C2.66675 9.89529 2.90515 10.1337 3.20008 10.1337C3.49501 10.1337 3.73341 9.89529 3.73341 9.60036V8.16196L4.88968 9.89636C4.98995 10.0473 5.15848 10.1337 5.33341 10.1337C5.38515 10.1337 5.43688 10.1262 5.48808 10.1108C5.71315 10.0425 5.86675 9.83502 5.86675 9.60036V6.40036C5.86675 6.10542 5.62835 5.86702 5.33341 5.86702Z" fill="white"/>
<path d="M8.53324 6.93337C8.82817 6.93337 9.06657 6.69497 9.06657 6.40003C9.06657 6.1051 8.82817 5.8667 8.53324 5.8667H6.93324C6.6383 5.8667 6.3999 6.1051 6.3999 6.40003V9.60003C6.3999 9.89497 6.6383 10.1334 6.93324 10.1334H8.53324C8.82817 10.1334 9.06657 9.89497 9.06657 9.60003C9.06657 9.3051 8.82817 9.0667 8.53324 9.0667H7.46657V8.53337H8.53324C8.82817 8.53337 9.06657 8.29497 9.06657 8.00003C9.06657 7.7051 8.82817 7.4667 8.53324 7.4667H7.46657V6.93337H8.53324Z" fill="white"/>
<path d="M12.8875 5.87401C12.5963 5.82281 12.3221 6.02174 12.2741 6.31241L12.0677 7.54974L11.9664 7.27881C11.888 7.07134 11.6891 6.93321 11.4667 6.93321C11.2443 6.93321 11.0453 7.07134 10.9669 7.27881L10.8656 7.54974L10.6592 6.31241C10.6107 6.02174 10.3365 5.82281 10.0459 5.87401C9.7552 5.92254 9.55893 6.19721 9.60747 6.48734L10.1408 9.68734C10.1803 9.92521 10.3749 10.1071 10.6155 10.1305C10.856 10.154 11.0821 10.0132 11.1664 9.78707L11.4667 8.98494L11.7669 9.78707C11.8459 9.99667 12.0459 10.1332 12.2661 10.1332C12.2832 10.1332 12.3008 10.1321 12.3184 10.1305C12.5584 10.1071 12.7531 9.92521 12.7931 9.68734L13.3264 6.48734C13.3744 6.19721 13.1781 5.92201 12.8875 5.87401Z" fill="white"/>
</svg>
