<svg width="21" height="20" viewBox="0 0 21 20" fill="none" xmlns="http://www.w3.org/2000/svg">
<path fill-rule="evenodd" clip-rule="evenodd" d="M7.67847 1.28016C7.82231 1.00556 8.10668 0.833496 8.41667 0.833496H15.9167C16.2357 0.833496 16.5267 1.01562 16.6662 1.30255C16.8056 1.58947 16.769 1.93083 16.5719 2.18168L13.0479 6.66683H17.5833C17.9143 6.66683 18.2139 6.86273 18.3467 7.16593C18.4795 7.46914 18.4202 7.82218 18.1957 8.0654L8.19567 18.8987C7.93611 19.1799 7.51839 19.2482 7.18281 19.0643C6.84723 18.8803 6.68005 18.4915 6.77744 18.1214L8.58566 11.2502H3.83333C3.54172 11.2502 3.27132 11.0977 3.12036 10.8482C2.96939 10.5987 2.95983 10.2885 3.09514 10.0302L7.67847 1.28016ZM8.92089 2.50016L5.21058 9.5835H9.66667C9.92509 9.5835 10.1689 9.70338 10.3267 9.90805C10.4844 10.1127 10.5383 10.379 10.4726 10.6289L9.24091 15.3092L15.68 8.3335H11.3333C11.0143 8.3335 10.7233 8.15137 10.5838 7.86444C10.4444 7.57752 10.481 7.23616 10.6781 6.98531L14.2021 2.50016H8.92089Z" fill="#FFB90A"/>
</svg>
