<svg width="66" height="40" viewBox="0 0 66 40" fill="none" xmlns="http://www.w3.org/2000/svg">
<path d="M19.7738 39.6428C30.6946 39.6428 39.5476 30.7898 39.5476 19.869C39.5476 8.94825 30.6946 0.0952148 19.7738 0.0952148C8.85304 0.0952148 0 8.94825 0 19.869C0 30.7898 8.85304 39.6428 19.7738 39.6428Z" fill="#E41E1E"/>
<path d="M65.9999 20C65.9999 30.8952 57.1999 39.8 46.1999 39.8C35.3047 39.8 26.3999 30.8952 26.3999 20C26.3999 9.10471 35.1999 0.199951 46.0951 0.199951C57.1999 0.199951 65.9999 9.10471 65.9999 20Z" fill="#FFB600"/>
<path fill-rule="evenodd" clip-rule="evenodd" d="M32.9101 34.6491C36.9822 31.0269 39.5475 25.7477 39.5475 19.869C39.5475 14.0469 37.0311 8.81221 33.0266 5.1936C28.9595 8.82703 26.3999 14.1241 26.3999 19.9999C26.3999 25.7917 28.916 31.0209 32.9101 34.6491Z" fill="#FF5F00"/>
<path d="M26.8194 25.0289L27.1337 23.2479C27.0289 23.2479 26.8194 23.3527 26.6099 23.3527C25.8765 23.3527 25.7717 22.9336 25.8765 22.7241L26.5051 19.0574H27.6575L27.9718 17.067H26.9242L27.1337 15.8098H25.0384C25.0384 15.8098 23.7812 22.7241 23.7812 23.5622C23.7812 24.8193 24.5146 25.3431 25.4574 25.3431C26.086 25.3431 26.6099 25.1336 26.8194 25.0289Z" fill="white"/>
<path d="M27.5522 21.676C27.5522 24.6094 29.5427 25.3427 31.2189 25.3427C32.7903 25.3427 33.4189 25.0284 33.4189 25.0284L33.838 23.0379C33.838 23.0379 32.6856 23.5617 31.638 23.5617C29.3332 23.5617 29.7522 21.8856 29.7522 21.8856H34.0475C34.0475 21.8856 34.3618 20.5236 34.3618 19.9998C34.3618 18.6379 33.6284 16.9617 31.3237 16.9617C29.1237 16.7522 27.5522 19.057 27.5522 21.676ZM31.2189 18.6379C32.3713 18.6379 32.1618 19.9998 32.1618 20.1046H29.857C29.857 19.9998 30.0665 18.6379 31.2189 18.6379Z" fill="white"/>
<path d="M44.5241 25.0286L44.9432 22.7238C44.9432 22.7238 43.8955 23.2476 43.1622 23.2476C41.6955 23.2476 41.067 22.0953 41.067 20.8381C41.067 18.3238 42.3241 16.9619 43.7908 16.9619C44.8384 16.9619 45.6765 17.5905 45.6765 17.5905L45.9908 15.3905C45.9908 15.3905 44.7336 14.8667 43.5813 14.8667C41.1717 14.8667 38.7622 16.9619 38.7622 20.9429C38.7622 23.5619 40.0193 25.3429 42.5336 25.3429C43.3717 25.3429 44.5241 25.0286 44.5241 25.0286Z" fill="white"/>
<path d="M15.2954 16.7522C13.8287 16.7522 12.7811 17.1712 12.7811 17.1712L12.4668 18.9522C12.4668 18.9522 13.4097 18.5331 14.7716 18.5331C15.5049 18.5331 16.1335 18.6379 16.1335 19.2665C16.1335 19.6855 16.0287 19.7903 16.0287 19.7903C16.0287 19.7903 15.4002 19.7903 15.0859 19.7903C13.3049 19.7903 11.3145 20.5236 11.3145 22.9331C11.3145 24.8189 12.5716 25.2379 13.3049 25.2379C14.7716 25.2379 15.4002 24.295 15.5049 24.295L15.4002 25.1331H17.2859L18.124 19.3712C18.124 16.857 16.0287 16.7522 15.2954 16.7522ZM15.7145 21.4665C15.7145 21.7808 15.5049 23.457 14.2478 23.457C13.6192 23.457 13.4097 22.9331 13.4097 22.6189C13.4097 22.0951 13.724 21.3617 15.2954 21.3617C15.6097 21.4665 15.7145 21.4665 15.7145 21.4665Z" fill="white"/>
<path d="M20.1141 25.2382C20.6379 25.2382 23.257 25.3429 23.257 22.5144C23.257 19.8953 20.7427 20.4191 20.7427 19.3715C20.7427 18.8477 21.1617 18.6382 21.8951 18.6382C22.2094 18.6382 23.3617 18.7429 23.3617 18.7429L23.676 16.8572C23.676 16.8572 22.9427 16.6477 21.6855 16.6477C20.1141 16.6477 18.5427 17.2763 18.5427 19.3715C18.5427 21.781 21.1617 21.5715 21.1617 22.5144C21.1617 23.1429 20.4284 23.2477 19.9046 23.2477C18.9617 23.2477 18.0189 22.9334 18.0189 22.9334L17.7046 24.8191C17.8094 25.0287 18.3332 25.2382 20.1141 25.2382Z" fill="white"/>
<path d="M61.9143 15.0762L61.4952 17.9047C61.4952 17.9047 60.6572 16.8571 59.5048 16.8571C57.6191 16.8571 55.9429 19.1619 55.9429 21.8857C55.9429 23.5619 56.781 25.3428 58.5619 25.3428C59.8191 25.3428 60.5524 24.5047 60.5524 24.5047L60.4476 25.2381H62.5429L64.1143 15.1809L61.9143 15.0762ZM60.9714 20.6285C60.9714 21.7809 60.4476 23.2476 59.2953 23.2476C58.5619 23.2476 58.1429 22.619 58.1429 21.5714C58.1429 19.8952 58.8762 18.8476 59.8191 18.8476C60.5524 18.8476 60.9714 19.3714 60.9714 20.6285Z" fill="white"/>
<path d="M3.87671 25.1333L5.13385 17.5905L5.34337 25.1333H6.81004L9.53385 17.5905L8.38147 25.1333H10.5815L12.2577 15.0762H8.80052L6.70528 21.2571L6.60052 15.0762H3.56242L1.88623 25.1333H3.87671Z" fill="white"/>
<path d="M36.3526 25.1333C36.9812 21.6762 37.0859 18.8476 38.5526 19.3714C38.7621 18.0095 39.0764 17.4857 39.286 16.9619C39.286 16.9619 39.1812 16.9619 38.8669 16.9619C37.924 16.9619 37.1907 18.2191 37.1907 18.2191L37.4002 17.0667H35.4098L34.0479 25.2381H36.3526V25.1333Z" fill="white"/>
<path d="M49.3428 16.7522C47.8761 16.7522 46.8285 17.1712 46.8285 17.1712L46.5142 18.9522C46.5142 18.9522 47.4571 18.5331 48.819 18.5331C49.5523 18.5331 50.1809 18.6379 50.1809 19.2665C50.1809 19.6855 50.0761 19.7903 50.0761 19.7903C50.0761 19.7903 49.4475 19.7903 49.1332 19.7903C47.3523 19.7903 45.3618 20.5236 45.3618 22.9331C45.3618 24.8189 46.619 25.2379 47.3523 25.2379C48.819 25.2379 49.4475 24.295 49.5523 24.295L49.4475 25.1331H51.3332L52.1713 19.3712C52.2761 16.857 50.0761 16.7522 49.3428 16.7522ZM49.8666 21.4665C49.8666 21.7808 49.6571 23.457 48.3999 23.457C47.7713 23.457 47.5618 22.9331 47.5618 22.6189C47.5618 22.0951 47.8761 21.3617 49.4475 21.3617C49.7618 21.4665 49.7618 21.4665 49.8666 21.4665Z" fill="white"/>
<path d="M53.9517 25.1331C54.5803 21.676 54.6851 18.8474 56.1517 19.3712C56.3613 18.0093 56.6755 17.4855 56.8851 16.9617C56.8851 16.9617 56.7803 16.9617 56.466 16.9617C55.5232 16.9617 54.7898 18.2188 54.7898 18.2188L54.9994 17.0664H53.0089L51.647 25.2379H53.9517V25.1331Z" fill="white"/>
</svg>
