<svg width="40" height="40" fill="none" xmlns="http://www.w3.org/2000/svg"><g clip-path="url(#a)" fill="#014898"><path d="M30.65 6.63a.72.72 0 0 0 .142-.004 1.448 1.448 0 0 1 1.42 1.446.648.648 0 0 0 1.295 0 2.748 2.748 0 0 0-2.156-2.68v-.623a.648.648 0 1 0-1.296 0v.652a2.744 2.744 0 0 0 .709 5.395 1.448 1.448 0 1 1-1.448 1.448.648.648 0 1 0-1.296 0 2.748 2.748 0 0 0 2.035 2.65v.71a.648.648 0 0 0 1.296 0v-.68a2.743 2.743 0 0 0-.587-5.424 1.448 1.448 0 0 1-.114-2.89Z"/><path d="M30.8.953c-3.987 0-7.39 2.602-8.664 6.085H6.051c-.356 0-.645.321-.648.677L5.25 30.45H.665c-.358 0-.665.26-.665.618v2.885a5.09 5.09 0 0 0 4.86 5.07v.014h20.01v-.02c.161.007.228.02.33.02h.015a5.09 5.09 0 0 0 5.082-5.09V19.359c.162.01.333.014.501.014 5.074 0 9.202-4.137 9.202-9.21 0-5.074-4.127-9.21-9.2-9.21ZM5.107 37.74h-.004a3.812 3.812 0 0 1-3.807-3.795v-2.2H20.09v2.19a5.084 5.084 0 0 0 1.5 3.603c.069.068.153.12.224.202H5.107Zm23.894-3.795a3.794 3.794 0 0 1-3.787 3.795h-.012a3.822 3.822 0 0 1-3.816-3.803v-2.87a.598.598 0 0 0-.619-.618H6.547l.148-22.115h15.081a9.738 9.738 0 0 0-.177 1.8 9.138 9.138 0 0 0 .782 3.708H16.26a.648.648 0 1 0 0 1.297h6.824a9.146 9.146 0 0 0 5.917 4.058v14.748ZM30.8 18.077a7.905 7.905 0 1 1 7.905-7.905 7.914 7.914 0 0 1-7.905 7.905Z"/><path d="M12.1 18.156c-1.144 0-2.075.901-2.075 2.009 0 1.107.93 2.008 2.075 2.008 1.143 0 2.074-.9 2.074-2.008s-.93-2.009-2.074-2.009Zm0 2.721c-.43 0-.778-.32-.778-.712 0-.393.349-.713.778-.713.429 0 .778.32.778.713 0 .392-.35.712-.778.712Zm3.511-.713c0 .358.29.648.648.648h8.64a.648.648 0 1 0 0-1.296h-8.64a.648.648 0 0 0-.648.648ZM12.1 12.523c-1.144 0-2.075.902-2.075 2.01 0 1.107.93 2.008 2.075 2.008 1.143 0 2.074-.901 2.074-2.009 0-1.107-.93-2.009-2.074-2.009Zm0 2.722c-.43 0-.778-.32-.778-.713 0-.393.349-.712.778-.712.429 0 .778.32.778.712 0 .393-.35.713-.778.713Zm0 8.545c-1.144 0-2.075.9-2.075 2.008 0 1.107.93 2.008 2.075 2.008 1.143 0 2.074-.901 2.074-2.009 0-1.107-.93-2.008-2.074-2.008Zm0 2.72c-.43 0-.778-.32-.778-.713 0-.392.349-.712.778-.712.429 0 .778.32.778.712 0 .393-.35.713-.778.713Zm12.8-1.326h-8.64a.648.648 0 1 0 0 1.296h8.64a.648.648 0 0 0 0-1.296Z"/></g><defs><clipPath id="a"><path fill="#fff" d="M0 0h40v40H0z"/></clipPath></defs></svg>