<svg width="40" height="40" fill="none" xmlns="http://www.w3.org/2000/svg"><g clip-path="url(#a)" fill="#014898"><path d="M38.68 10.246h-8.733l.25-.883a2.424 2.424 0 0 0-1.662-2.993L6.924.183a2.423 2.423 0 0 0-2.994 1.66l-1.453 5.08L2.083 8.3.094 15.247a2.427 2.427 0 0 0 1.66 2.993l6.13 1.755v6.559a1.322 1.322 0 0 0 1.32 1.32h6.813a6.568 6.568 0 0 1-1.334 3.382c-2.846 3.343-1.583 8.02-1.524 8.217a.605.605 0 0 0 .75.42.605.605 0 0 0 .417-.75c-.012-.043-1.152-4.25 1.281-7.106 2.263-2.66 1.809-7.198 1.508-10.202-.048-.485-.093-.932-.122-1.325a1.867 1.867 0 0 1 .518-1.417 2.276 2.276 0 0 1 2.582-.528c.288.126.548.31.764.54a1.824 1.824 0 0 1 .5 1.395c-.872 10.592 2.151 12.385 2.5 12.555a.606.606 0 0 0 .53-1.089c-.017-.008-1.166-.77-1.701-4.1h7.757c.373 3.595-1.449 7.705-3.537 11.09a.604.604 0 1 0 1.03.635c2.774-4.495 4-8.46 3.705-11.725h7.042A1.321 1.321 0 0 0 40 26.554V11.565a1.32 1.32 0 0 0-1.32-1.319Zm.11 1.32v2.881a3.685 3.685 0 0 1-2.94-2.992h2.833a.111.111 0 0 1 .107.11ZM5.094 2.175a1.215 1.215 0 0 1 1.5-.833l21.61 6.19a1.213 1.213 0 0 1 .834 1.5l-.4 1.398L4.694 3.575l.4-1.399ZM3.807 6.672l.554-1.936 23.941 6.853-.948 3.313L3.417 8.05l.39-1.378ZM9.095 26.55v-2.894a3.666 3.666 0 0 1 3.006 3.007H9.206a.108.108 0 0 1-.102-.067.109.109 0 0 1-.008-.042v-.004Zm7.036.11h-2.798A4.886 4.886 0 0 0 9.1 22.426V20.34l6.847 1.96a29.87 29.87 0 0 1 .185 4.364v-.003Zm3.042-9.488a3.493 3.493 0 0 0-2.55 1.108 3.063 3.063 0 0 0-.839 2.325l.034.405-13.73-3.934a1.214 1.214 0 0 1-.833-1.5l1.828-6.36 23.943 6.852-1.826 6.365a1.214 1.214 0 0 1-1.5.833l-1.273-.363c.022-.71.063-1.47.13-2.292a3.03 3.03 0 0 0-.818-2.316 3.5 3.5 0 0 0-2.566-1.123Zm3.355 9.494c-.07-.735-.112-1.57-.116-2.51l.958.274a2.421 2.421 0 0 0 2.993-1.66l1.989-6.948.294-1.032.954-3.334h5.022a4.908 4.908 0 0 0 4.167 4.223v6.764a4.907 4.907 0 0 0-4.167 4.22l-12.094.003Zm16.152 0h-2.834a3.684 3.684 0 0 1 2.944-2.994v2.882a.11.11 0 0 1-.11.109v.003Z"/><path d="m12.333 15.474-7.62-2.181a.606.606 0 1 0-.334 1.167L12 16.639a.607.607 0 0 0 .334-1.167v.002Zm20.251 1.166a2.421 2.421 0 1 0 .002 4.843 2.421 2.421 0 0 0-.002-4.842Zm0 3.631a1.21 1.21 0 1 1 .002-2.42 1.21 1.21 0 0 1-.002 2.42Z"/></g><defs><clipPath id="a"><path fill="#fff" d="M0 0h40v40H0z"/></clipPath></defs></svg>