<svg width="40" height="40" fill="none" xmlns="http://www.w3.org/2000/svg"><path d="M39.375 27.5H.625A.625.625 0 0 1 0 26.875V8.125A.625.625 0 0 1 .625 7.5h38.75a.625.625 0 0 1 .625.625v18.75a.624.624 0 0 1-.625.625ZM1.25 26.25h37.5V8.75H1.25v17.5ZM39.375 31H.625A.625.625 0 0 1 0 30.375v-.625a.625.625 0 1 1 1.25 0h37.5a.624.624 0 1 1 1.25 0v.625a.624.624 0 0 1-.625.625Zm0 3.5H.625A.625.625 0 0 1 0 33.875v-.625a.625.625 0 1 1 1.25 0h37.5a.624.624 0 1 1 1.25 0v.625a.624.624 0 0 1-.625.625Z" fill="#014898"/><path d="M34.375 25H5.625A.625.625 0 0 1 5 24.375 1.875 1.875 0 0 0 3.125 22.5a.625.625 0 0 1-.625-.625v-8.75a.625.625 0 0 1 .625-.625A1.875 1.875 0 0 0 5 10.625.625.625 0 0 1 5.625 10h28.75a.624.624 0 0 1 .625.625 1.875 1.875 0 0 0 1.875 1.875.624.624 0 0 1 .625.625v8.75a.624.624 0 0 1-.625.625A1.875 1.875 0 0 0 35 24.375a.624.624 0 0 1-.625.625ZM6.187 23.75h27.625a3.134 3.134 0 0 1 2.438-2.438v-7.625a3.134 3.134 0 0 1-2.438-2.437H6.189a3.133 3.133 0 0 1-2.438 2.438v7.624a3.134 3.134 0 0 1 2.438 2.438Z" fill="#014898"/><path d="M11.25 18.125h-2.5a.625.625 0 1 1 0-1.25h2.5a.624.624 0 1 1 0 1.25Zm20 0h-2.5a.624.624 0 1 1 0-1.25h2.5a.624.624 0 1 1 0 1.25ZM20 21.25a3.75 3.75 0 1 1 0-7.5 3.75 3.75 0 0 1 0 7.5ZM20 15a2.5 2.5 0 1 0 0 5 2.5 2.5 0 0 0 0-5Z" fill="#014898"/></svg>