<svg width="811" height="526" viewBox="0 0 811 526" fill="none" xmlns="http://www.w3.org/2000/svg">
<path d="M386.385 524.754C383.985 524.754 381.585 523.954 380.785 521.554L301.592 415.163C298.393 411.164 291.993 411.164 289.593 415.963L231.199 520.754C229.599 523.154 227.199 524.754 224.799 524.754H15.2177C9.61818 524.754 5.61851 518.354 8.81823 513.555L175.204 252.778C176.803 250.378 176.803 247.178 175.204 244.778L1.61879 11.9989C-2.38086 7.19936 1.61889 0 7.21839 0H220C222.399 0 224.799 0.799941 225.599 3.19973L304.792 110.39C307.992 114.39 314.391 114.39 316.791 109.59L375.986 3.99965C377.586 1.59986 379.985 0 382.385 0H591.167C596.766 0 600.766 6.39945 597.566 11.199L426.381 265.577C424.781 267.976 424.781 271.176 426.381 274.376L604.766 513.555C608.765 518.354 604.766 525.554 599.166 525.554H386.385V524.754Z" fill="white" fill-opacity="0.15"/>
<path d="M620.762 254.378L783.948 11.199C787.148 6.39945 783.948 0 778.349 0H682.357C679.957 0 677.557 0.799941 676.758 3.19973L499.973 265.577C498.373 267.976 498.373 271.176 499.973 274.376L685.557 522.354C687.157 523.954 688.757 525.554 691.156 525.554H803.147C808.746 525.554 812.746 519.154 808.746 514.355L620.762 262.377C619.163 259.977 619.163 256.777 620.762 254.378Z" fill="white" fill-opacity="0.15"/>
</svg>
