<svg width="126" height="113" viewBox="0 0 126 113" fill="none" xmlns="http://www.w3.org/2000/svg">
<g clip-path="url(#clip0_132_32936)">
<path d="M69.06 111.46C100.021 111.46 125.12 109.136 125.12 106.27C125.12 103.404 100.021 101.08 69.06 101.08C38.0989 101.08 13 103.404 13 106.27C13 109.136 38.0989 111.46 69.06 111.46Z" fill="#E7E7E7"/>
<path d="M60.9092 26.8101L117.909 31.8101V107.27L60.9092 102.27V26.8101Z" fill="#002070"/>
<path d="M60.9097 26.8101L27.6797 31.8101V107.27L60.9097 102.27V26.8101Z" fill="#D77D14"/>
<path d="M78.9995 112.27L27.6797 107.27V31.8101L78.9995 37V112.27Z" fill="#1F66B6"/>
<path d="M79 112.46L118.23 107.46V32L79 37V112.46Z" fill="#014898"/>
<g style="mix-blend-mode:overlay" opacity="0.15">
<path d="M27.6797 59.9199L57.8097 42.4299L65.2297 35.4899L31.2097 32.1499L28.4297 33.7999L27.6797 34.5299V59.9199Z" fill="black"/>
</g>
<path d="M26.4296 30.7998L0.889648 55.7298L8.79965 66.7198L34.3396 41.7898L26.4296 30.7998Z" fill="#D77D14"/>
<path d="M26.4297 30.8L78.2997 0L86.2197 10.99L34.3397 41.79L26.4297 30.8Z" fill="#C47212"/>
<path d="M55.8096 39.4299L8.79965 66.7199L0.889648 55.7299L47.8896 28.4399L55.8096 39.4299Z" fill="#FF3543"/>
<path d="M55.8096 39.43L86.2197 10.99L78.2997 0L47.8896 28.44L55.8096 39.43Z" fill="#FF0D1B"/>
<path d="M0.889648 55.73L26.4296 30.8L78.2997 0L47.8896 28.44L0.889648 55.73Z" fill="#FF8289"/>
</g>
<defs>
<clipPath id="clip0_132_32936">
<rect width="124.22" height="112.27" fill="white" transform="translate(0.889648)"/>
</clipPath>
</defs>
</svg>
