<svg width="36" height="36" viewBox="0 0 36 36" fill="none" xmlns="http://www.w3.org/2000/svg">
<mask id="mask0_189_68268" style="mask-type:alpha" maskUnits="userSpaceOnUse" x="0" y="0" width="36" height="36">
<rect width="36" height="36" rx="4" fill="#F3F3F3"/>
</mask>
<g mask="url(#mask0_189_68268)">
<path fill-rule="evenodd" clip-rule="evenodd" d="M2.08392 12.5476C1.81183 13.1337 1.67578 13.8348 1.67578 14.6511C1.67578 15.4674 1.81183 16.1686 2.08392 16.7755C2.36648 17.3721 2.75369 17.8221 3.23508 18.1465C3.71648 18.4604 4.26067 18.6069 4.86764 18.6069C5.36997 18.6069 5.79904 18.5023 6.16532 18.3035C6.41648 18.1569 6.62578 17.979 6.79322 17.7697C6.85601 17.6965 7.00253 17.7383 7.00253 17.8325V18.4186C7.00253 18.4709 7.04439 18.5128 7.09671 18.5128H9.93276C9.98508 18.5128 10.0269 18.4709 10.0269 18.4186V10.8837C10.0269 10.8314 9.98508 10.7895 9.93276 10.7895H7.09671C7.04439 10.7895 7.00253 10.8314 7.00253 10.8837V11.4697C7.00253 11.5639 6.85601 11.6058 6.79322 11.5325C6.62578 11.3232 6.41648 11.1453 6.16532 11.0093C5.79904 10.8 5.36997 10.6953 4.86764 10.6953C4.26067 10.6953 3.72694 10.8523 3.23508 11.1767C2.75369 11.4802 2.36648 11.9407 2.08392 12.5476ZM5.58974 16.1686C6.42694 16.1686 7.10718 15.4883 7.10718 14.6511C7.10718 13.8139 6.42694 13.1337 5.58974 13.1337C4.75253 13.1337 4.07229 13.8139 4.07229 14.6511C4.06183 15.4883 4.74206 16.1686 5.58974 16.1686Z" fill="#11121C"/>
<path d="M18.9205 10.7891C18.9728 10.7891 19.0146 10.8309 19.0146 10.8832V18.4181C19.0146 18.4705 18.9728 18.5123 18.9205 18.5123H16.0739C16.0216 18.5123 15.9798 18.4705 15.9798 18.4181V17.6542C15.9798 17.56 15.8542 17.5181 15.7914 17.5914C15.5821 17.8425 15.3205 18.0519 15.0274 18.2298C14.6298 18.46 14.1693 18.5751 13.6146 18.5751C12.7251 18.5751 12.0344 18.2821 11.5321 17.6856C11.0402 17.0891 10.7891 16.2937 10.7891 15.2786V10.8832C10.7891 10.8309 10.8309 10.7891 10.8832 10.7891H13.7193C13.7716 10.7891 13.8135 10.8309 13.8135 10.8832V14.8809C13.8135 15.2472 13.9077 15.5402 14.096 15.76C14.2949 15.9693 14.5565 16.0739 14.8914 16.0739C15.2263 16.0739 15.4984 15.9693 15.6867 15.76C15.8751 15.5402 15.9693 15.2472 15.9693 14.8809V10.8832C15.9693 10.8309 16.0112 10.7891 16.0635 10.7891H18.9205Z" fill="#11121C"/>
<path d="M24.9602 15.8957C25.0126 15.8957 25.0544 15.9376 25.0544 15.9899V18.3864C25.0544 18.4387 25.0126 18.4806 24.9602 18.4806H23.9033C21.7893 18.4806 20.7219 17.4236 20.7219 15.3201V13.3841C20.7219 13.3317 20.68 13.2899 20.6277 13.2899H19.8637C19.8114 13.2899 19.7695 13.248 19.7695 13.1957V10.8515C19.7695 10.7992 19.8114 10.7573 19.8637 10.7573H20.6277C20.68 10.7573 20.7219 10.7155 20.7219 10.6631V8.98872C20.7219 8.93639 20.7637 8.89453 20.816 8.89453H23.6626C23.7149 8.89453 23.7567 8.93639 23.7567 8.98872V10.6631C23.7567 10.7155 23.7986 10.7573 23.8509 10.7573H24.9184C24.9707 10.7573 25.0126 10.7992 25.0126 10.8515V13.1957C25.0126 13.248 24.9707 13.2899 24.9184 13.2899H23.8614C23.8091 13.2899 23.7672 13.3317 23.7672 13.3841V15.3724C23.7672 15.5503 23.8091 15.6864 23.8928 15.7701C23.987 15.8538 24.1335 15.8957 24.3323 15.8957H24.9602Z" fill="#11121C"/>
<path d="M23.0633 19.3086C23.1157 19.3086 23.1575 19.3505 23.1575 19.4028V26.0795C23.1575 26.1318 23.1157 26.1737 23.0633 26.1737H20.1645C20.1122 26.1737 20.0703 26.1318 20.0703 26.0795V19.4028C20.0703 19.3505 20.1122 19.3086 20.1645 19.3086H23.0633Z" fill="#365CAA"/>
<path d="M28.7815 26.1737C28.7501 26.1737 28.7187 26.1632 28.7082 26.1318L27.6722 24.74C27.6303 24.6877 27.5466 24.6877 27.5152 24.7505L26.7512 26.1214C26.7303 26.1528 26.6989 26.1737 26.6675 26.1737H23.9256C23.8524 26.1737 23.8001 26.09 23.8419 26.0272L26.0187 22.6156C26.0396 22.5842 26.0396 22.5423 26.0187 22.5109L23.7477 19.4656C23.6954 19.4028 23.7477 19.3086 23.821 19.3086H26.6047C26.6361 19.3086 26.6675 19.3191 26.678 19.3505L27.714 20.7528C27.7559 20.8051 27.8396 20.8051 27.871 20.7423L28.6454 19.3609C28.6663 19.3295 28.6977 19.3086 28.7291 19.3086H31.4605C31.5338 19.3086 31.5861 19.3923 31.5443 19.4551L29.3047 22.783C29.2838 22.8144 29.2838 22.8563 29.3047 22.8981L31.6384 26.0272C31.6908 26.09 31.6384 26.1842 31.5652 26.1842H28.7815V26.1737Z" fill="#365CAA"/>
<path d="M31.8459 22.6365L33.9808 19.4551C34.0227 19.3923 33.9808 19.3086 33.9076 19.3086H32.6517C32.6203 19.3086 32.589 19.3191 32.5785 19.3505L30.2657 22.783C30.2448 22.8144 30.2448 22.8563 30.2657 22.8981L32.6936 26.1423C32.7145 26.1632 32.7355 26.1842 32.7669 26.1842H34.232C34.3052 26.1842 34.3576 26.1005 34.3052 26.0377L31.8459 22.7412C31.825 22.7098 31.825 22.6679 31.8459 22.6365Z" fill="#EF3A58"/>
<path d="M16.4197 19.3073C17.2988 19.3073 17.979 19.569 18.4499 20.1027C18.9418 20.6259 19.1825 21.348 19.1825 22.248V26.1306C19.1825 26.1829 19.1406 26.2248 19.0883 26.2248H16.5872C16.5348 26.2248 16.493 26.1829 16.493 26.1306V22.5829C16.493 22.2899 16.3988 22.0597 16.2209 21.9027C16.0534 21.7352 15.8232 21.6515 15.5302 21.6515C15.2267 21.6515 14.9965 21.7352 14.8185 21.9027C14.6511 22.0701 14.5674 22.2899 14.5674 22.5829V26.1306C14.5674 26.1829 14.5255 26.2248 14.4732 26.2248H11.972C11.9197 26.2248 11.8779 26.1829 11.8779 26.1306V22.5829C11.8779 22.2899 11.7837 22.0597 11.6058 21.9027C11.4383 21.7352 11.2081 21.6515 10.9151 21.6515C10.6116 21.6515 10.3813 21.7352 10.2034 21.9027C10.036 22.0701 9.95227 22.2899 9.95227 22.5829V26.1306C9.95227 26.1829 9.91041 26.2248 9.85808 26.2248H7.13715C7.08483 26.2248 7.04297 26.1829 7.04297 26.1306V19.4539C7.04297 19.4015 7.08483 19.3597 7.13715 19.3597H9.84762C9.89994 19.3597 9.94181 19.4015 9.94181 19.4539V19.9666C9.94181 20.0608 10.0779 20.1027 10.1406 20.0294C10.3081 19.8515 10.5069 19.6945 10.7372 19.569C11.0825 19.3911 11.4802 19.2969 11.9302 19.2969C12.422 19.2969 12.8616 19.4015 13.2488 19.6213C13.5837 19.8097 13.8662 20.0713 14.086 20.3957C14.1279 20.4585 14.2116 20.4585 14.2534 20.4062C14.4941 20.1027 14.7767 19.8515 15.122 19.6527C15.5197 19.4225 15.9488 19.3073 16.4197 19.3073Z" fill="#365CAA"/>
<path fill-rule="evenodd" clip-rule="evenodd" d="M27.7852 18.1138C28.4027 18.4278 29.1039 18.5952 29.8783 18.5952C30.6527 18.5952 31.3539 18.4382 31.9713 18.1138C32.5887 17.7999 33.0701 17.3394 33.4155 16.7429C33.7713 16.1464 33.9492 15.4452 33.9492 14.6394C33.9492 13.8336 33.7713 13.1429 33.4155 12.5464C33.0701 11.9499 32.5887 11.4894 31.9713 11.165C31.3539 10.8406 30.6527 10.6836 29.8783 10.6836C29.1039 10.6836 28.4027 10.8406 27.7852 11.165C27.1678 11.4789 26.6759 11.9394 26.3201 12.5464C25.9748 13.1429 25.7969 13.8336 25.7969 14.6394C25.7969 15.4452 25.9748 16.1464 26.3201 16.7429C26.6759 17.3394 27.1678 17.7894 27.7852 18.1138ZM29.8573 16.1673C30.6945 16.1673 31.3748 15.4871 31.3748 14.6499C31.3748 13.8127 30.6945 13.1324 29.8573 13.1324C29.0201 13.1324 28.3399 13.8127 28.3399 14.6499C28.3399 15.4871 29.0201 16.1673 29.8573 16.1673Z" fill="#11121C"/>
</g>
</svg>
