<svg width="24" height="24" xmlns="http://www.w3.org/2000/svg">
    <symbol id="icon-arrow-left" viewBox="0 0 16 16" fill="none" xmlns="http://www.w3.org/2000/svg">
        <path d="M10 3.2251L5.3125 7.9126L10 12.6001" stroke="currentColor" stroke-width="1.5" stroke-linecap="round" stroke-linejoin="round"/>
    </symbol>
    <symbol id="icon-arrow-right" viewBox="0 0 16 16" fill="none" xmlns="http://www.w3.org/2000/svg">
        <path d="M6 12.7749L10.6875 8.0874L6 3.3999" stroke="currentColor" stroke-width="1.5" stroke-linecap="round" stroke-linejoin="round"/>
    </symbol>
    <symbol id="arrow-down" viewBox="0 0 12 13" fill="none" xmlns="http://www.w3.org/2000/svg">
        <path d="M9.75 4.625L6 8.375L2.25 4.625" stroke="currentColor" stroke-width="1.5" stroke-linecap="round" stroke-linejoin="round"/>
    </symbol>
    <symbol id="arrow-right" viewBox="0 0 12 12" fill="none" xmlns="http://www.w3.org/2000/svg">
        <path d="M4.125 2.25L7.875 6L4.125 9.75" stroke="currentColor" stroke-width="1.5" stroke-linecap="round" stroke-linejoin="round"/>
    </symbol>
    <symbol id="message" viewBox="0 0 16 16" fill="none" xmlns="http://www.w3.org/2000/svg">
        <path d="M8 13.5C11.3133 13.5 14 11.0373 14 8C14 4.96267 11.3133 2.5 8 2.5C4.68667 2.5 2 4.96267 2 8C2 9.40267 2.57267 10.682 3.51533 11.6533C3.80333 11.9513 4.00867 12.3467 3.906 12.7473C3.79358 13.1855 3.58318 13.5923 3.29067 13.9373C3.52476 13.9794 3.76216 14.0004 4 14C4.85467 14 5.64667 13.732 6.29667 13.2753C6.83667 13.422 7.40867 13.5 8 13.5Z" stroke="currentColor" stroke-width="1.5" stroke-linecap="round" stroke-linejoin="round"/>
    </symbol>
    <symbol id="arrow-up" viewBox="0 0 14 14" fill="none" xmlns="http://www.w3.org/2000/svg">
        <path d="M1.34998 9.625L6.97498 4L12.6 9.625" stroke="currentColor" stroke-width="1.5" stroke-linecap="round" stroke-linejoin="round"/>
    </symbol>
    <symbol id="bell" fill="none" viewBox="0 0 22 22" xmlns="http://www.w3.org/2000/svg">
        <path fill-rule="evenodd" clip-rule="evenodd" d="M10.9998 2.75008C7.96227 2.75008 5.49984 5.21251 5.49984 8.25008V16.5001H16.4998V8.25008C16.4998 5.21251 14.0374 2.75008 10.9998 2.75008ZM18.3332 16.5001V8.25008C18.3332 4.19999 15.0499 0.916748 10.9998 0.916748C6.94974 0.916748 3.6665 4.19999 3.6665 8.25008V16.5001H1.83317C1.32691 16.5001 0.916504 16.9105 0.916504 17.4167C0.916504 17.923 1.32691 18.3334 1.83317 18.3334H7.824C8.0464 19.8882 9.38355 21.0834 10.9998 21.0834C12.6161 21.0834 13.9533 19.8882 14.1757 18.3334H20.1665C20.6728 18.3334 21.0832 17.923 21.0832 17.4167C21.0832 16.9105 20.6728 16.5001 20.1665 16.5001H18.3332ZM12.2966 18.3334H9.70308C9.89184 18.8675 10.4012 19.2501 10.9998 19.2501C11.5985 19.2501 12.1078 18.8675 12.2966 18.3334Z" fill="currentColor"/>
    </symbol>
    <symbol id="cart" fill="none" viewBox="0 0 24 25" xmlns="http://www.w3.org/2000/svg">
        <path d="M2.25 3.5H3.636C4.146 3.5 4.591 3.843 4.723 4.335L5.106 5.772M5.106 5.772C12 7.1 15.6 7.1 21.642 7.612C20.818 10.066 19.839 12.45 18.718 14.75H7.5M5.106 5.772L7.5 14.75M7.5 14.75C6.70435 14.75 5.94129 15.0661 5.37868 15.6287C4.81607 16.1913 4.5 16.9544 4.5 17.75H20.25M6 20.75C6 20.9489 5.92098 21.1397 5.78033 21.2803C5.63968 21.421 5.44891 21.5 5.25 21.5C5.05109 21.5 4.86032 21.421 4.71967 21.2803C4.57902 21.1397 4.5 20.9489 4.5 20.75C4.5 20.5511 4.57902 20.3603 4.71967 20.2197C4.86032 20.079 5.05109 20 5.25 20C5.44891 20 5.63968 20.079 5.78033 20.2197C5.92098 20.3603 6 20.5511 6 20.75ZM18.75 20.75C18.75 20.9489 18.671 21.1397 18.5303 21.2803C18.3897 21.421 18.1989 21.5 18 21.5C17.8011 21.5 17.6103 21.421 17.4697 21.2803C17.329 21.1397 17.25 20.9489 17.25 20.75C17.25 20.5511 17.329 20.3603 17.4697 20.2197C17.6103 20.079 17.8011 20 18 20C18.1989 20 18.3897 20.079 18.5303 20.2197C18.671 20.3603 18.75 20.5511 18.75 20.75Z" stroke="currentColor" stroke-width="1.5" stroke-linecap="round" stroke-linejoin="round"/>
    </symbol>
    <symbol id="add-cart" fill="none" viewBox="0 0 22 22" xmlns="http://www.w3.org/2000/svg">
        <path fill-rule="evenodd" clip-rule="evenodd" d="M0.458496 2.74992C0.458496 2.24366 0.868902 1.83325 1.37516 1.83325H2.97933C3.39996 1.83325 3.76661 2.11952 3.86863 2.52759L4.38254 4.58325H20.1668C20.4491 4.58325 20.7156 4.7133 20.8894 4.93579C21.0631 5.15828 21.1246 5.4484 21.0561 5.72224L18.7645 14.8889C18.6624 15.297 18.2958 15.5833 17.8752 15.5833H5.9585C5.53787 15.5833 5.17122 15.297 5.0692 14.8889L2.26362 3.66659H1.37516C0.868902 3.66659 0.458496 3.25618 0.458496 2.74992ZM5.9585 15.5833C4.69284 15.5833 3.66683 16.6093 3.66683 17.8749C3.66683 19.1406 4.69284 20.1666 5.9585 20.1666C7.22415 20.1666 8.25016 19.1406 8.25016 17.8749C8.25016 16.6093 7.22415 15.5833 5.9585 15.5833ZM17.8752 15.5833C16.6095 15.5833 15.5835 16.6093 15.5835 17.8749C15.5835 19.1406 16.6095 20.1666 17.8752 20.1666C19.1408 20.1666 20.1668 19.1406 20.1668 17.8749C20.1668 16.6093 19.1408 15.5833 17.8752 15.5833ZM4.84087 6.41658L6.67421 13.7499H17.1595L18.9928 6.41658H4.84087ZM11.9168 7.33325C12.4231 7.33325 12.8335 7.74366 12.8335 8.24992V9.16658H13.7502C14.2564 9.16658 14.6668 9.57699 14.6668 10.0833C14.6668 10.5895 14.2564 10.9999 13.7502 10.9999H12.8335V11.9166C12.8335 12.4228 12.4231 12.8333 11.9168 12.8333C11.4106 12.8333 11.0002 12.4228 11.0002 11.9166V10.9999H10.0835C9.57723 10.9999 9.16683 10.5895 9.16683 10.0833C9.16683 9.57699 9.57723 9.16658 10.0835 9.16658H11.0002V8.24992C11.0002 7.74366 11.4106 7.33325 11.9168 7.33325ZM5.9585 17.4166C5.70537 17.4166 5.50016 17.6218 5.50016 17.8749C5.50016 18.128 5.70537 18.3333 5.9585 18.3333C6.21163 18.3333 6.41683 18.128 6.41683 17.8749C6.41683 17.6218 6.21163 17.4166 5.9585 17.4166ZM17.8752 17.4166C17.622 17.4166 17.4168 17.6218 17.4168 17.8749C17.4168 18.128 17.622 18.3333 17.8752 18.3333C18.1283 18.3333 18.3335 18.128 18.3335 17.8749C18.3335 17.6218 18.1283 17.4166 17.8752 17.4166Z" fill="currentColor"/>
    </symbol>
    <symbol id="trash" fill="none" viewBox="0 0 20 20" xmlns="http://www.w3.org/2000/svg">
        <path d="M7.91699 13.75C7.45676 13.75 7.08366 14.1231 7.08366 14.5833C7.08366 15.0436 7.45676 15.4167 7.91699 15.4167H12.0837C12.5439 15.4167 12.917 15.0436 12.917 14.5833C12.917 14.1231 12.5439 13.75 12.0837 13.75H7.91699Z" fill="currentColor"/>
        <path fill-rule="evenodd" clip-rule="evenodd" d="M6.75033 1.25C6.34442 1.25 5.99756 1.54246 5.92897 1.94253L5.54769 4.16667H2.50033C2.04009 4.16667 1.66699 4.53976 1.66699 5C1.66699 5.46024 2.04009 5.83333 2.50033 5.83333H3.80236L4.58539 17.9703C4.61368 18.4088 4.97758 18.75 5.41699 18.75L14.5837 18.75C15.0231 18.75 15.387 18.4088 15.4153 17.9703L16.1983 5.83333H17.5003C17.9606 5.83333 18.3337 5.46024 18.3337 5C18.3337 4.53976 17.9606 4.16667 17.5003 4.16667L14.453 4.16667L14.0717 1.94253C14.0031 1.54246 13.6562 1.25 13.2503 1.25L6.75033 1.25ZM12.762 4.16667L7.23867 4.16667L7.45296 2.91667L12.5477 2.91667L12.762 4.16667ZM6.19829 17.0833L5.47249 5.83333L14.5282 5.83333L13.8024 17.0833H6.19829Z" fill="currentColor"/>
    </symbol>
    <symbol id="search" fill="none" viewBox="0 0 25 25" xmlns="http://www.w3.org/2000/svg">
        <path fill-rule="evenodd" clip-rule="evenodd" d="M1.84424 11C1.84424 5.75332 6.09755 1.5 11.3442 1.5C16.5909 1.5 20.8442 5.75332 20.8442 11C20.8442 13.2631 20.0529 15.3414 18.7318 16.9733L22.4049 20.6464C22.7954 21.037 22.7954 21.6701 22.4049 22.0607C22.0144 22.4512 21.3812 22.4512 20.9907 22.0607L17.3175 18.3875C15.6857 19.7086 13.6074 20.5 11.3442 20.5C6.09755 20.5 1.84424 16.2467 1.84424 11ZM11.3442 3.5C7.20212 3.5 3.84424 6.85788 3.84424 11C3.84424 15.1421 7.20212 18.5 11.3442 18.5C15.4864 18.5 18.8442 15.1421 18.8442 11C18.8442 6.85788 15.4864 3.5 11.3442 3.5Z" fill="currentColor"/>
    </symbol>
    <symbol id="star" viewBox="0 0 16 16" fill="none" xmlns="http://www.w3.org/2000/svg">
        <path d="M7.73364 1.56941L7.73483 1.5722L7.73365 1.5694L7.73364 1.56941ZM7.99939 2.19461L9.47585 5.66813L9.47589 5.66822C9.56337 5.87395 9.70619 6.04979 9.88651 6.1779C10.0666 6.30587 10.2778 6.38175 10.4966 6.39888C10.4967 6.39888 10.4967 6.39889 10.4968 6.39889L14.2909 6.69617L11.4132 9.10791C11.2436 9.24981 11.1153 9.43631 11.0446 9.64816C10.9738 9.86014 10.9639 10.0877 11.0163 10.3051L11.0168 10.3072L11.9019 13.9351L8.62397 11.9774L8.62345 11.9771C8.43429 11.8643 8.21843 11.8054 7.99939 11.8054C7.78035 11.8054 7.5645 11.8643 7.37533 11.9771L7.37472 11.9775L4.09692 13.9358L4.982 10.3071L4.98228 10.3059C5.03501 10.0882 5.02525 9.86038 4.95434 9.64812C4.88354 9.43615 4.75511 9.24959 4.58537 9.10775C4.58523 9.10763 4.58509 9.10751 4.58495 9.10739L1.70785 6.69617L5.50202 6.39889C5.50208 6.39889 5.50213 6.39888 5.50218 6.39888C5.72099 6.38175 5.93214 6.30587 6.11227 6.1779C6.29259 6.04979 6.43542 5.87395 6.5229 5.66822L6.52294 5.66813L7.99939 2.19461ZM12.0695 14.6223C12.0694 14.6221 12.0694 14.6219 12.0694 14.6217L12.0694 14.6219L12.0695 14.6223ZM14.857 6.22172L14.8565 6.22215L14.857 6.22172Z" stroke="currentColor" stroke-width="1.5" stroke-linecap="round" stroke-linejoin="round" />
    </symbol>
    <symbol id="info" viewBox="0 0 16 16" fill="none" xmlns="http://www.w3.org/2000/svg">
        <path d="M8 6V8.5M14 8C14 8.78793 13.8448 9.56815 13.5433 10.2961C13.2417 11.0241 12.7998 11.6855 12.2426 12.2426C11.6855 12.7998 11.0241 13.2417 10.2961 13.5433C9.56815 13.8448 8.78793 14 8 14C7.21207 14 6.43185 13.8448 5.7039 13.5433C4.97595 13.2417 4.31451 12.7998 3.75736 12.2426C3.20021 11.6855 2.75825 11.0241 2.45672 10.2961C2.15519 9.56815 2 8.78793 2 8C2 6.4087 2.63214 4.88258 3.75736 3.75736C4.88258 2.63214 6.4087 2 8 2C9.5913 2 11.1174 2.63214 12.2426 3.75736C13.3679 4.88258 14 6.4087 14 8ZM8 10.5H8.00533V10.5053H8V10.5Z" stroke="currentColor" stroke-width="1.5" stroke-linecap="round" stroke-linejoin="round" />
    </symbol>
    <symbol id="question" viewBox="0 0 20 20" fill="none" xmlns="http://www.w3.org/2000/svg">
        <path d="M6.66634 7.76058C6.66634 5.91963 8.15873 4.42725 9.99967 4.42725C11.8406 4.42725 13.333 5.91963 13.333 7.76058C13.333 9.31378 12.2707 10.6189 10.833 10.9889V11.9272C10.833 12.3875 10.4599 12.7606 9.99967 12.7606C9.53944 12.7606 9.16634 12.3875 9.16634 11.9272V10.2606C9.16634 9.80034 9.53944 9.42725 9.99967 9.42725C10.9201 9.42725 11.6663 8.68105 11.6663 7.76058C11.6663 6.84011 10.9201 6.09391 9.99967 6.09391C9.0792 6.09391 8.33301 6.84011 8.33301 7.76058C8.33301 8.22082 7.95991 8.59391 7.49967 8.59391C7.03944 8.59391 6.66634 8.22082 6.66634 7.76058Z" fill="currentColor"/>
        <path d="M11.0413 14.6356C11.0413 15.2109 10.575 15.6772 9.99967 15.6772C9.42438 15.6772 8.95801 15.2109 8.95801 14.6356C8.95801 14.0603 9.42438 13.5939 9.99967 13.5939C10.575 13.5939 11.0413 14.0603 11.0413 14.6356Z" fill="currentColor"/>
        <path fill-rule="evenodd" clip-rule="evenodd" d="M3.51786 3.51834C5.17581 1.86043 7.46862 0.833496 9.99967 0.833496C12.5307 0.833496 14.8235 1.86042 16.4815 3.51835C18.1394 5.17629 19.1663 7.4691 19.1663 10.0002C19.1663 12.5312 18.1394 14.824 16.4815 16.482C14.8235 18.1399 12.5307 19.1668 9.99967 19.1668C7.46861 19.1668 5.17581 18.1399 3.51786 16.482C1.85994 14.824 0.833008 12.5312 0.833008 10.0002C0.833008 7.4691 1.85995 5.17629 3.51786 3.51834ZM9.99967 2.50016C7.9284 2.50016 6.05454 3.33872 4.69637 4.69686C3.33822 6.05504 2.49967 7.92889 2.49967 10.0002C2.49967 12.0714 3.33823 13.9453 4.69637 15.3034C6.05454 16.6616 7.9284 17.5002 9.99967 17.5002C12.0709 17.5002 13.9448 16.6616 15.303 15.3034C16.6611 13.9453 17.4997 12.0714 17.4997 10.0002C17.4997 7.92889 16.6611 6.05503 15.303 4.69686C13.9448 3.33872 12.071 2.50016 9.99967 2.50016Z" fill="currentColor"/>
    </symbol>
    <symbol id="check" viewBox="0 0 20 20" fill="none" xmlns="http://www.w3.org/2000/svg">
        <path d="M7.33333 10.6667L9.33333 12.6667L12.6667 8M18 10C18 11.0506 17.7931 12.0909 17.391 13.0615C16.989 14.0321 16.3997 14.914 15.6569 15.6569C14.914 16.3997 14.0321 16.989 13.0615 17.391C12.0909 17.7931 11.0506 18 10 18C8.94943 18 7.90914 17.7931 6.93853 17.391C5.96793 16.989 5.08601 16.3997 4.34315 15.6569C3.60028 14.914 3.011 14.0321 2.60896 13.0615C2.20693 12.0909 2 11.0506 2 10C2 7.87827 2.84285 5.84344 4.34315 4.34315C5.84344 2.84285 7.87827 2 10 2C12.1217 2 14.1566 2.84285 15.6569 4.34315C17.1571 5.84344 18 7.87827 18 10Z" stroke="currentColor" stroke-width="1.5" stroke-linecap="round" stroke-linejoin="round" />
    </symbol>
    <symbol id="comp" viewBox="0 0 17 17" fill="none" xmlns="http://www.w3.org/2000/svg">
        <path d="M8.49995 1.16675C8.84184 1.16675 9.12362 1.42411 9.16213 1.75567L9.16662 1.83341V5.97875L12.3383 5.18665L12.3673 5.1799C12.3818 5.17696 12.3963 5.17451 12.4108 5.17256L12.3383 5.18665C12.3703 5.17865 12.4023 5.17311 12.4342 5.16991C12.4496 5.1684 12.4652 5.16739 12.4809 5.16692C12.4925 5.16653 12.5042 5.1665 12.5157 5.16677C12.5286 5.1671 12.5416 5.16777 12.5545 5.16882C12.5696 5.17004 12.5845 5.17178 12.5994 5.17403C12.607 5.17516 12.615 5.17651 12.623 5.17801C12.6383 5.18093 12.6532 5.18429 12.668 5.18814C12.6784 5.19082 12.6889 5.19383 12.6993 5.19711C12.7115 5.20097 12.7238 5.20523 12.7359 5.20984C12.7482 5.21446 12.7604 5.21949 12.7724 5.22492C12.7744 5.22582 12.7763 5.22671 12.7783 5.22761L12.7849 5.23067C12.7904 5.23323 12.7958 5.23587 12.8012 5.23859C12.8111 5.24368 12.8209 5.24899 12.8307 5.25459L12.8391 5.25944C12.8441 5.26239 12.849 5.2654 12.8539 5.26847C12.8591 5.27154 12.8642 5.27486 12.8693 5.27825C12.8706 5.27924 12.8717 5.27999 12.8728 5.28073L12.8307 5.25459C12.8546 5.26823 12.8773 5.28312 12.8988 5.29914C12.9005 5.30047 12.902 5.30159 12.9035 5.30273L12.9124 5.30945C12.9227 5.31753 12.9328 5.32594 12.9426 5.33467C12.9511 5.34227 12.9594 5.35002 12.9675 5.35795C12.9766 5.36688 12.9857 5.37634 12.9945 5.38611C13.0048 5.39746 13.0147 5.4092 13.0241 5.42123C13.0283 5.42661 13.0323 5.43195 13.0363 5.43738L13.0446 5.44863C13.0516 5.45867 13.0584 5.46889 13.0649 5.47928L13.0788 5.50266L15.7454 10.1693L15.7555 10.1872C15.7616 10.1988 15.7675 10.2106 15.773 10.2226L15.7454 10.1693C15.762 10.1983 15.7761 10.228 15.7879 10.2581C15.7921 10.2687 15.796 10.2794 15.7996 10.2903C15.804 10.3035 15.808 10.3171 15.8116 10.3308C15.8148 10.343 15.8176 10.3552 15.8201 10.3675C15.8224 10.3785 15.8243 10.3895 15.826 10.4004C15.8307 10.4327 15.8333 10.4661 15.8333 10.5001L15.8306 10.4389C15.8319 10.4531 15.8328 10.4674 15.8332 10.4816L15.8333 10.5001C15.8333 12.341 14.3409 13.8334 12.5 13.8334C10.659 13.8334 9.16662 12.341 9.16662 10.5001L9.16757 10.5372C9.1657 10.5041 9.16628 10.4708 9.16939 10.4376C9.17069 10.4249 9.17221 10.4124 9.17406 10.4001C9.17558 10.3895 9.17751 10.3785 9.17972 10.3677C9.18228 10.3552 9.18511 10.343 9.18826 10.3309C9.1919 10.3171 9.19594 10.3035 9.20044 10.29C9.20389 10.2794 9.20775 10.2687 9.21188 10.2581C9.21447 10.2518 9.21707 10.2454 9.21978 10.2391L9.22692 10.2226C9.23241 10.2106 9.23825 10.1988 9.24443 10.1872L9.25446 10.1693L11.1453 6.85941L5.51528 8.26675L7.74545 12.1693L7.75548 12.1872C7.76165 12.1988 7.76749 12.2106 7.77298 12.2226L7.74545 12.1693C7.762 12.1983 7.77614 12.228 7.78793 12.2581C7.79215 12.2687 7.79601 12.2794 7.7996 12.2903C7.80396 12.3035 7.80801 12.3171 7.8116 12.3308C7.8148 12.343 7.81762 12.3552 7.82011 12.3675C7.82239 12.3785 7.82432 12.3895 7.82597 12.4004C7.83074 12.4327 7.83328 12.4661 7.83328 12.5001L7.83063 12.4389C7.83194 12.4531 7.83278 12.4674 7.83316 12.4816L7.83328 12.5001C7.83328 14.341 6.34091 15.8334 4.49995 15.8334C2.659 15.8334 1.16662 14.341 1.16662 12.5001L1.16757 12.5372C1.1657 12.5041 1.16628 12.4708 1.16939 12.4376C1.17069 12.4249 1.17221 12.4124 1.17406 12.4001C1.17558 12.3895 1.17751 12.3785 1.17972 12.3677C1.18228 12.3552 1.18511 12.343 1.18826 12.3309C1.19189 12.3171 1.19594 12.3035 1.20044 12.29C1.20389 12.2794 1.20775 12.2687 1.21188 12.2581C1.21447 12.2518 1.21707 12.2454 1.21978 12.239L1.22692 12.2226C1.23241 12.2106 1.23825 12.1988 1.24443 12.1872L1.25446 12.1693L3.92112 7.50266L3.92636 7.49365C3.93014 7.48727 3.93403 7.48096 3.93801 7.4747C3.94128 7.46934 3.94473 7.46408 3.94826 7.45888L3.95395 7.45075L3.96359 7.43738C3.96446 7.4362 3.96532 7.43503 3.9662 7.43386C3.9708 7.42778 3.97535 7.42192 3.97999 7.41612C3.98427 7.41056 3.98872 7.40519 3.99326 7.39988L4.0047 7.38692C4.01241 7.37835 4.02032 7.37001 4.02841 7.36191C4.03392 7.3564 4.03951 7.35101 4.04521 7.34571L4.05394 7.33767C4.06535 7.32741 4.07707 7.31757 4.08908 7.30819C4.09411 7.30438 4.09898 7.30069 4.10391 7.29705L4.11245 7.29073C4.11759 7.28707 4.12279 7.28347 4.12802 7.27996C4.13353 7.27622 4.13895 7.2727 4.14442 7.26925C4.15256 7.26433 4.1608 7.25938 4.16919 7.25459L4.17892 7.24903C4.20505 7.2347 4.23206 7.22218 4.25975 7.2115C4.26115 7.21091 4.26254 7.21038 4.26392 7.20986L4.29355 7.1995C4.29823 7.19797 4.30293 7.1965 4.30764 7.19509C4.31441 7.19288 4.32155 7.19085 4.32871 7.18895C4.32999 7.18878 4.33086 7.18855 4.33174 7.18832L4.33826 7.18665L7.83328 6.31208V1.83341C7.83328 1.46522 8.13176 1.16675 8.49995 1.16675ZM6.38595 13.1667H2.61328L2.66443 13.2956C2.95726 13.9703 3.61123 14.452 4.38244 14.4967L4.49995 14.5001C5.36783 14.5001 6.1066 13.9473 6.38336 13.1746L6.38595 13.1667ZM14.386 11.1667H10.6133L10.6644 11.2956C10.9573 11.9703 11.6112 12.452 12.3824 12.4967L12.5 12.5001C13.3678 12.5001 14.1066 11.9473 14.3834 11.1746L14.386 11.1667ZM4.49995 9.17741L2.98195 11.8334H6.01728L4.49995 9.17741ZM12.5 7.17741L10.982 9.83341H14.0173L12.5 7.17741Z" fill="currentColor"/>
    </symbol>
    <symbol id="fav" viewBox="0 0 17 17" fill="none" xmlns="http://www.w3.org/2000/svg">
        <path fill-rule="evenodd" clip-rule="evenodd" d="M1.1665 6.83333C1.1665 4.44011 3.1066 2.5 5.49984 2.5C6.66451 2.5 7.72176 2.95988 8.49984 3.70645C9.27792 2.95988 10.3352 2.5 11.4998 2.5C13.8931 2.5 15.8332 4.44011 15.8332 6.83333C15.8332 8.92274 14.6092 10.8329 13.1819 12.2743C11.7481 13.7223 9.99458 14.8145 8.71007 15.2414C8.57359 15.2867 8.42609 15.2867 8.2896 15.2414C7.00509 14.8145 5.25158 13.7223 3.81779 12.2743C2.39048 10.8329 1.1665 8.92274 1.1665 6.83333ZM5.49984 3.83333C3.84298 3.83333 2.49984 5.17649 2.49984 6.83333C2.49984 8.41059 3.44253 10.0004 4.76522 11.3362C5.99619 12.5793 7.45773 13.5014 8.49984 13.9007C9.54194 13.5014 11.0035 12.5793 12.2345 11.3362C13.5571 10.0004 14.4998 8.41059 14.4998 6.83333C14.4998 5.17649 13.1567 3.83333 11.4998 3.83333C10.4858 3.83333 9.58897 4.33586 9.04491 5.10844C8.92004 5.28577 8.71672 5.39127 8.49984 5.39127C8.28296 5.39127 8.07963 5.28577 7.95476 5.10844C7.41071 4.33586 6.51392 3.83333 5.49984 3.83333Z" fill="currentColor"/>
    </symbol>
    <symbol id="sort" viewBox="0 0 24 24" fill="none" xmlns="http://www.w3.org/2000/svg">
        <path fill-rule="evenodd" clip-rule="evenodd" d="M6.99585 6.41836V17C6.99585 17.5523 7.44357 18 7.99585 18C8.54813 18 8.99585 17.5523 8.99585 17V6.41006L11.7929 9.20711C12.1834 9.59763 12.8166 9.59763 13.2071 9.20711C13.5976 8.81658 13.5976 8.18342 13.2071 7.79289L8.70711 3.29289C8.51132 3.0971 8.25454 2.99947 7.99793 3C7.99724 3 7.99654 3 7.99585 3C7.69207 3 7.41992 3.13546 7.23652 3.34927L2.79289 7.79289C2.40237 8.18342 2.40237 8.81658 2.79289 9.20711C3.18342 9.59763 3.81658 9.59763 4.20711 9.20711L6.99585 6.41836ZM16.4958 6C17.0481 6 17.4958 6.44772 17.4958 7V17.5899L20.2929 14.7929C20.6834 14.4024 21.3166 14.4024 21.7071 14.7929C22.0976 15.1834 22.0976 15.8166 21.7071 16.2071L17.2071 20.7071C17.0113 20.9029 16.7545 21.0006 16.4978 21C16.4972 21 16.4965 21 16.4958 21C16.1921 21 15.9199 20.8645 15.7365 20.6507L11.2929 16.2071C10.9024 15.8166 10.9024 15.1834 11.2929 14.7929C11.6834 14.4024 12.3166 14.4024 12.7071 14.7929L15.4958 17.5816V7C15.4958 6.44772 15.9436 6 16.4958 6Z" fill="currentColor"/>
    </symbol>
    <symbol id="grid" viewBox="0 0 24 24" fill="none" xmlns="http://www.w3.org/2000/svg">
        <path fill-rule="evenodd" clip-rule="evenodd" d="M2 2C1.44772 2 1 2.44772 1 3V7C1 7.55228 1.44772 8 2 8H6C6.55228 8 7 7.55228 7 7V3C7 2.44772 6.55228 2 6 2H2ZM3 6V4H5V6H3Z" fill="currentColor"/>
        <path d="M9 5C9 4.44772 9.44771 4 10 4H22C22.5523 4 23 4.44772 23 5C23 5.55228 22.5523 6 22 6H10C9.44771 6 9 5.55228 9 5Z" fill="currentColor"/>
        <path d="M10 11C9.44771 11 9 11.4477 9 12C9 12.5523 9.44771 13 10 13H22C22.5523 13 23 12.5523 23 12C23 11.4477 22.5523 11 22 11H10Z" fill="currentColor"/>
        <path d="M10 18C9.44771 18 9 18.4477 9 19C9 19.5523 9.44771 20 10 20H22C22.5523 20 23 19.5523 23 19C23 18.4477 22.5523 18 22 18H10Z" fill="currentColor"/>
        <path fill-rule="evenodd" clip-rule="evenodd" d="M2 16C1.44772 16 1 16.4477 1 17V21C1 21.5523 1.44772 22 2 22H6C6.55228 22 7 21.5523 7 21V17C7 16.4477 6.55228 16 6 16H2ZM3 20V18H5V20H3Z" fill="currentColor"/>
        <path fill-rule="evenodd" clip-rule="evenodd" d="M1 10C1 9.44772 1.44772 9 2 9H6C6.55228 9 7 9.44772 7 10V14C7 14.5523 6.55228 15 6 15H2C1.44772 15 1 14.5523 1 14V10ZM3 11V13H5V11H3Z" fill="currentColor"/>
    </symbol>
    <symbol id="grid-2" viewBox="0 0 24 24" fill="none" xmlns="http://www.w3.org/2000/svg">
        <path fill-rule="evenodd" clip-rule="evenodd" d="M1 2C1 1.44772 1.44772 1 2 1H22C22.5523 1 23 1.44772 23 2V22C23 22.5523 22.5523 23 22 23H2C1.44772 23 1 22.5523 1 22V2ZM3 9.5V14.5H7.5V9.5H3ZM7.5 7.5H3V3H7.5V7.5ZM9.5 9.5V14.5H14.5V9.5H9.5ZM14.5 7.5H9.5V3H14.5V7.5ZM16.5 9.5V14.5H21V9.5H16.5ZM21 7.5H16.5V3H21V7.5ZM21 16.5H16.5V21H21V16.5ZM14.5 21V16.5H9.5V21H14.5ZM7.5 21V16.5H3V21H7.5Z" fill="currentColor"/>
    </symbol>
    <symbol id="user" viewBox="0 0 24 25" fill="none" xmlns="http://www.w3.org/2000/svg" >
        <path fill-rule="evenodd" clip-rule="evenodd" d="M12 3.5C10.3431 3.5 9 4.84315 9 6.5C9 8.15685 10.3431 9.5 12 9.5C13.6569 9.5 15 8.15685 15 6.5C15 4.84315 13.6569 3.5 12 3.5ZM7 6.5C7 3.73858 9.23858 1.5 12 1.5C14.7614 1.5 17 3.73858 17 6.5C17 9.26142 14.7614 11.5 12 11.5C9.23858 11.5 7 9.26142 7 6.5ZM2 22.5C2 16.9772 6.47717 12.5 12 12.5C17.5228 12.5 22 16.9772 22 22.5C22 23.0523 21.5523 23.5 21 23.5C20.4477 23.5 20 23.0523 20 22.5C20 18.0817 16.4183 14.5 12 14.5C7.58173 14.5 4 18.0817 4 22.5C4 23.0523 3.55228 23.5 3 23.5C2.44772 23.5 2 23.0523 2 22.5Z" fill="currentColor"/>
    </symbol>
    <symbol id="catalog" viewBox="0 0 20 20" fill="none" xmlns="http://www.w3.org/2000/svg">
        <path d="M11.25 14.0625H14.0625M14.0625 14.0625H16.875M14.0625 14.0625V11.25M14.0625 14.0625V16.875M5 8.75H6.875C7.37228 8.75 7.84919 8.55246 8.20082 8.20082C8.55246 7.84919 8.75 7.37228 8.75 6.875V5C8.75 4.50272 8.55246 4.02581 8.20082 3.67417C7.84919 3.32254 7.37228 3.125 6.875 3.125H5C4.50272 3.125 4.02581 3.32254 3.67417 3.67417C3.32254 4.02581 3.125 4.50272 3.125 5V6.875C3.125 7.37228 3.32254 7.84919 3.67417 8.20082C4.02581 8.55246 4.50272 8.75 5 8.75ZM5 16.875H6.875C7.37228 16.875 7.84919 16.6775 8.20082 16.3258C8.55246 15.9742 8.75 15.4973 8.75 15V13.125C8.75 12.6277 8.55246 12.1508 8.20082 11.7992C7.84919 11.4475 7.37228 11.25 6.875 11.25H5C4.50272 11.25 4.02581 11.4475 3.67417 11.7992C3.32254 12.1508 3.125 12.6277 3.125 13.125V15C3.125 15.4973 3.32254 15.9742 3.67417 16.3258C4.02581 16.6775 4.50272 16.875 5 16.875ZM13.125 8.75H15C15.4973 8.75 15.9742 8.55246 16.3258 8.20082C16.6775 7.84919 16.875 7.37228 16.875 6.875V5C16.875 4.50272 16.6775 4.02581 16.3258 3.67417C15.9742 3.32254 15.4973 3.125 15 3.125H13.125C12.6277 3.125 12.1508 3.32254 11.7992 3.67417C11.4475 4.02581 11.25 4.50272 11.25 5V6.875C11.25 7.37228 11.4475 7.84919 11.7992 8.20082C12.1508 8.55246 12.6277 8.75 13.125 8.75Z" stroke="currentColor" stroke-width="1.5" stroke-linecap="round" stroke-linejoin="round"/>
    </symbol>
    <symbol id="burger" viewBox="0 0 24 25" fill="none" xmlns="http://www.w3.org/2000/svg">
        <path d="M2.3999 6.5H22.1999M2.3999 12.8H22.1999M2.3999 19.1H22.1999" stroke="currentColor" stroke-width="1.5" stroke-linecap="round" stroke-linejoin="round"/>
    </symbol>
    <symbol id="money" viewBox="0 0 20 20" fill="none" xmlns="http://www.w3.org/2000/svg">
        <circle cx="10.0026" cy="10.0007" r="9.16667" stroke="currentColor" stroke-width="1.5"/>
        <path d="M10.1022 15C9.36102 15 8.73908 14.8833 8.23642 14.6499C7.74228 14.4071 7.36741 14.085 7.11182 13.6835C6.86475 13.2726 6.74121 12.8151 6.74121 12.3109C6.74121 12.0215 6.77955 11.774 6.85623 11.5686C6.91895 11.4105 6.99552 11.2676 7.08594 11.1399C7.14712 11.0535 7.24942 11.0084 7.35532 11.0084H8.08079C8.25549 11.0084 8.32508 11.2537 8.1853 11.3585C8.03195 11.4799 7.90841 11.6246 7.8147 11.7927C7.7295 11.9514 7.6869 12.1475 7.6869 12.381C7.6869 12.6984 7.76784 12.9879 7.92971 13.2493C8.10011 13.5107 8.35996 13.7208 8.70927 13.8796C9.06709 14.0289 9.5229 14.1036 10.0767 14.1036C10.6816 14.1036 11.2524 14.0009 11.7891 13.7955C12.102 13.6704 12.3772 13.5277 12.6148 13.3677C12.8434 13.2136 13.18 13.2859 13.2804 13.5426C13.3369 13.6871 13.3014 13.8528 13.1816 13.9512C12.8321 14.2381 12.4106 14.4757 11.9169 14.6639C11.3291 14.888 10.7242 15 10.1022 15ZM6.30112 11.2465C6.13482 11.2465 6 11.1117 6 10.9454C6 10.7791 6.13482 10.6443 6.30112 10.6443H13.6989C13.8652 10.6443 14 10.7791 14 10.9454C14 11.1117 13.8652 11.2465 13.6989 11.2465H6.30112ZM6.30112 9.31373C6.13482 9.31373 6 9.17891 6 9.0126C6 8.8463 6.13482 8.71148 6.30112 8.71148H13.6989C13.8652 8.71148 14 8.8463 14 9.0126C14 9.17891 13.8652 9.31373 13.6989 9.31373H6.30112ZM11.7819 9.03361C11.5949 9.03361 11.5218 8.77796 11.6741 8.66947C11.8445 8.54809 11.9808 8.40803 12.0831 8.2493C12.1938 8.08123 12.2492 7.88982 12.2492 7.67507C12.2492 7.33894 12.1683 7.04015 12.0064 6.77871C11.8445 6.50794 11.5889 6.29318 11.2396 6.13445C10.8903 5.97572 10.443 5.89636 9.89776 5.89636C9.49734 5.89636 9.07987 5.95705 8.64537 6.07843C8.38421 6.15139 8.13075 6.24795 7.88498 6.36813C7.63641 6.48968 7.32481 6.37697 7.24305 6.11263C7.18803 5.93475 7.2563 5.74014 7.41875 5.64916C7.73148 5.47401 8.0722 5.33232 8.44089 5.22409C8.918 5.0747 9.3951 5 9.8722 5C10.6049 5 11.2141 5.12138 11.6997 5.36415C12.1938 5.60691 12.5644 5.93371 12.8115 6.34454C13.0586 6.74603 13.1821 7.19888 13.1821 7.70308C13.1821 7.99253 13.1438 8.24463 13.0671 8.45938C13.0142 8.6076 12.9491 8.74469 12.8718 8.87067C12.8068 8.97673 12.6873 9.03361 12.5629 9.03361H11.7819Z" fill="currentColor" stroke="currentColor" stroke-width="0.5"/>
    </symbol>
    <symbol id="pin" viewBox="0 0 20 20" fill="none" xmlns="http://www.w3.org/2000/svg">
        <path d="M9.99984 0.833252C13.9119 0.833252 17.0832 4.00456 17.0832 7.91658C17.0832 10.4046 15.935 12.9204 14.0155 15.3754C13.3342 16.2467 12.5933 17.0591 11.8343 17.799C11.7718 17.86 11.7103 17.9193 11.6499 17.9771L11.3016 18.3038L10.9837 18.5903L10.6997 18.8355L10.5263 18.9792C10.222 19.2272 9.78581 19.2292 9.47926 18.984L9.29793 18.8339L9.01526 18.5897L8.69791 18.3036L8.34977 17.9771L8.16537 17.799C7.40634 17.0591 6.66544 16.2467 5.98418 15.3754C4.06467 12.9204 2.9165 10.4046 2.9165 7.91658C2.9165 4.00456 6.08781 0.833252 9.99984 0.833252ZM9.99984 2.49992C7.00828 2.49992 4.58317 4.92503 4.58317 7.91658C4.58317 9.96338 5.58549 12.1597 7.29714 14.3488C7.92909 15.157 8.62038 15.915 9.32878 16.6056L9.66439 16.9267C9.77496 17.0304 9.88569 17.1343 9.99984 17.2341L10.3352 16.9267L10.6709 16.6056C11.3793 15.915 12.0706 15.157 12.7025 14.3488C14.4142 12.1597 15.4165 9.96338 15.4165 7.91658C15.4165 4.92503 12.9914 2.49992 9.99984 2.49992ZM9.99984 4.58325C11.8408 4.58325 13.3332 6.07564 13.3332 7.91658C13.3332 9.75753 11.8408 11.2499 9.99984 11.2499C8.15889 11.2499 6.6665 9.75753 6.6665 7.91658C6.6665 6.07564 8.15889 4.58325 9.99984 4.58325ZM9.99984 6.24992C9.07937 6.24992 8.33317 6.99611 8.33317 7.91658C8.33317 8.83706 9.07937 9.58325 9.99984 9.58325C10.9203 9.58325 11.6665 8.83706 11.6665 7.91658C11.6665 6.99611 10.9203 6.24992 9.99984 6.24992Z" fill="currentColor"/>
    </symbol>
    <symbol id="mail" viewBox="0 0 20 20" fill="none" xmlns="http://www.w3.org/2000/svg">
        <path d="M18.3335 2.91675C18.4574 2.91925 18.5748 2.94188 18.6921 2.99768C18.8132 3.05555 18.9197 3.14275 19.0002 3.25008C19.0406 3.30514 19.053 3.32874 19.0002 3.25008C19.1081 3.394 19.1668 3.57023 19.1668 3.75008C19.1647 3.68643 19.1665 3.70569 19.1668 3.75008V16.2501C19.1668 16.7103 18.7937 17.0834 18.3335 17.0834H1.66683C1.20659 17.0834 0.833496 16.7103 0.833496 16.2501V3.75008C0.833496 3.60089 0.873968 3.45275 0.950099 3.32481C1.10524 3.0634 1.37396 2.92265 1.66683 2.91675H18.3335ZM17.5002 5.41675L10.5002 10.6667C10.2335 10.8667 9.87683 10.8867 9.59216 10.7267L9.50016 10.6667L2.50016 5.41675V15.4167H17.5002V5.41675ZM4.16683 4.58341L10.0002 8.95842L15.8335 4.58341H4.16683Z" fill="currentColor"/>
    </symbol>
    <symbol id="phone" viewBox="0 0 20 20" fill="none" xmlns="http://www.w3.org/2000/svg">
        <path d="M6.41348 3.54116C6.97233 3.54116 7.48724 3.84426 7.75856 4.33291L8.69949 6.02785C8.94589 6.47171 8.95747 7.00856 8.73042 7.46259L7.95353 9.0155L7.96546 9.05307L8.03837 9.25914C8.18479 9.64569 8.38855 10.0329 8.65647 10.3914C8.77453 10.5493 8.90289 10.6985 9.04193 10.8375C9.17927 10.9749 9.32633 11.1017 9.48193 11.2183C9.84054 11.4872 10.2278 11.6911 10.6144 11.8371C10.6899 11.8656 10.7589 11.8897 10.8203 11.9097L10.8577 11.9213L12.412 11.1447C12.821 10.9402 13.297 10.9293 13.7119 11.1091L13.8477 11.1761L15.5474 12.121C16.0356 12.3924 16.3383 12.9071 16.3383 13.4657V15.417C16.3383 16.9365 14.8999 18.026 13.4585 17.5396C10.5777 16.5676 8.02552 15.2604 6.32232 13.5572C4.61908 11.854 3.31191 9.30182 2.33984 6.42093C1.85349 4.97953 2.94297 3.54116 4.46244 3.54116H6.41348ZM6.4135 5.07963H4.46244C3.97589 5.07963 3.65423 5.50429 3.79756 5.92907C4.70024 8.60433 5.91303 10.9722 7.41018 12.4693C8.90729 13.9664 11.2752 15.1792 13.9504 16.0819C14.3752 16.2253 14.7999 15.9036 14.7999 15.417V13.4657L13.1001 12.5207L11.2874 13.427C11.1363 13.5026 10.9645 13.5263 10.7985 13.4945C10.2128 13.3821 9.38756 13.0704 8.55908 12.4492C8.34627 12.2897 8.14403 12.1153 7.95409 11.9254C7.76184 11.7331 7.58544 11.5282 7.42414 11.3124C6.8063 10.4857 6.49446 9.66243 6.38086 9.07836C6.34846 8.91182 6.37204 8.73924 6.44792 8.58749L7.3544 6.77452L6.4135 5.07963ZM13.4163 2.51693C14.42 2.76861 15.3406 3.28587 16.0878 4.03303C16.835 4.78023 17.3523 5.70082 17.6039 6.70451C17.7893 7.44365 17.8266 8.21348 17.7143 8.96703C17.6516 9.38722 17.2602 9.67708 16.84 9.61444C16.4198 9.5518 16.13 9.16039 16.1926 8.74019C16.2751 8.18676 16.2477 7.62119 16.1116 7.07869C15.9273 6.34326 15.5488 5.6698 14.9999 5.12089C14.451 4.57201 13.7776 4.1936 13.0422 4.00919C12.4997 3.87316 11.9341 3.84573 11.3806 3.92823C10.9604 3.99086 10.569 3.701 10.5064 3.28081C10.4437 2.86062 10.7336 2.46921 11.1538 2.40658C11.9074 2.29425 12.6772 2.33159 13.4163 2.51693ZM13.9276 6.02696C14.6257 6.72503 14.9378 7.70056 14.7951 8.65814C14.7324 9.07834 14.341 9.36819 13.9208 9.30555C13.5307 9.24739 13.2529 8.90574 13.2653 8.5208L13.2734 8.43131C13.345 7.95091 13.1894 7.46442 12.8398 7.11483C12.5251 6.80014 12.0996 6.64259 11.6674 6.66643L11.5233 6.68113C11.1031 6.74377 10.7117 6.45391 10.649 6.03372C10.5864 5.61353 10.8763 5.22212 11.2964 5.15948C12.254 5.01674 13.2295 5.32886 13.9276 6.02696Z" fill="currentColor"/>
    </symbol>
    <symbol id="time" viewBox="0 0 20 20" fill="none" xmlns="http://www.w3.org/2000/svg">
        <path fill-rule="evenodd" clip-rule="evenodd" d="M0.833496 9.99992C0.833496 4.93731 4.93755 0.833252 10.0002 0.833252C15.0628 0.833252 19.1668 4.93731 19.1668 9.99992C19.1668 15.0625 15.0628 19.1666 10.0002 19.1666C4.93755 19.1666 0.833496 15.0625 0.833496 9.99992ZM10.0002 2.49992C5.85802 2.49992 2.50016 5.85778 2.50016 9.99992C2.50016 14.1421 5.85802 17.4999 10.0002 17.4999C14.1423 17.4999 17.5002 14.1421 17.5002 9.99992C17.5002 5.85778 14.1423 2.49992 10.0002 2.49992ZM10.0037 4.16658C10.4639 4.16663 10.837 4.53976 10.837 5L10.8365 9.65844L14.1255 12.9474C14.4509 13.2728 14.4509 13.8005 14.1255 14.1259C13.8 14.4514 13.2724 14.4514 12.9469 14.1259L9.41386 10.5928C9.25756 10.4365 9.16976 10.2245 9.16979 10.0035L9.17029 4.99984C9.17033 4.5396 9.54347 4.16654 10.0037 4.16658Z" fill="currentColor"/>
    </symbol>
    <symbol id="home" viewBox="0 0 20 20" fill="none" xmlns="http://www.w3.org/2000/svg">
        <path fill-rule="evenodd" clip-rule="evenodd" d="M9.4801 1.84862C9.78445 1.60515 10.2169 1.60515 10.5213 1.84862L16.7711 6.84849C16.771 6.84844 16.7711 6.84853 16.7711 6.84849L18.8546 8.51529C19.214 8.8028 19.2722 9.32721 18.9847 9.68659C18.6972 10.046 18.1728 10.1042 17.8134 9.81674L17.084 9.2332V17.4993C17.084 17.9596 16.7109 18.3327 16.2507 18.3327H3.75068C3.29044 18.3327 2.91735 17.9596 2.91735 17.4993V9.2332L2.18793 9.81674C1.82854 10.1042 1.30413 10.046 1.01662 9.68659C0.729116 9.32721 0.787384 8.8028 1.14677 8.51529L3.2301 6.84863C3.23002 6.84869 3.23019 6.84856 3.2301 6.84863L9.4801 1.84862ZM4.58401 7.89987L10.0007 3.56654L15.4173 7.89987V16.666H12.9173V12.0827C12.9173 11.6224 12.5443 11.2493 12.084 11.2493H7.91735C7.45711 11.2493 7.08401 11.6224 7.08401 12.0827V16.666H4.58401V7.89987ZM8.75068 16.666H11.2507V12.916H8.75068V16.666Z" fill="currentColor"/>
    </symbol>
    <symbol id="like" viewBox="0 0 24 24" fill="none" xmlns="http://www.w3.org/2000/svg">
        <path d="M7 11V19C7 19.2652 6.89464 19.5196 6.70711 19.7071C6.51957 19.8946 6.26522 20 6 20H4C3.73478 20 3.48043 19.8946 3.29289 19.7071C3.10536 19.5196 3 19.2652 3 19V12C3 11.7348 3.10536 11.4804 3.29289 11.2929C3.48043 11.1054 3.73478 11 4 11H7ZM7 11C8.06087 11 9.07828 10.5786 9.82843 9.82843C10.5786 9.07828 11 8.06087 11 7V6C11 5.46957 11.2107 4.96086 11.5858 4.58579C11.9609 4.21071 12.4696 4 13 4C13.5304 4 14.0391 4.21071 14.4142 4.58579C14.7893 4.96086 15 5.46957 15 6V11H18C18.5304 11 19.0391 11.2107 19.4142 11.5858C19.7893 11.9609 20 12.4696 20 13L19 18C18.8562 18.6135 18.5834 19.1402 18.2227 19.501C17.8619 19.8617 17.4328 20.0368 17 20H10C9.20435 20 8.44129 19.6839 7.87868 19.1213C7.31607 18.5587 7 17.7956 7 17" stroke="currentColor" stroke-width="1.5" stroke-linecap="round" stroke-linejoin="round"/>
    </symbol>
    <symbol id="dislike" viewBox="0 0 24 24" fill="none" xmlns="http://www.w3.org/2000/svg">
        <path d="M17 13L17 5C17 4.73478 17.1054 4.48043 17.2929 4.29289C17.4804 4.10536 17.7348 4 18 4L20 4C20.2652 4 20.5196 4.10536 20.7071 4.29289C20.8946 4.48043 21 4.73478 21 5L21 12C21 12.2652 20.8946 12.5196 20.7071 12.7071C20.5196 12.8946 20.2652 13 20 13L17 13ZM17 13C15.9391 13 14.9217 13.4214 14.1716 14.1716C13.4214 14.9217 13 15.9391 13 17L13 18C13 18.5304 12.7893 19.0391 12.4142 19.4142C12.0391 19.7893 11.5304 20 11 20C10.4696 20 9.96086 19.7893 9.58579 19.4142C9.21071 19.0391 9 18.5304 9 18L9 13L6 13C5.46957 13 4.96086 12.7893 4.58579 12.4142C4.21071 12.0391 4 11.5304 4 11L5 6C5.14382 5.38652 5.41663 4.85975 5.77735 4.49903C6.13807 4.13831 6.56716 3.96318 7 4L14 4C14.7957 4 15.5587 4.31607 16.1213 4.87868C16.6839 5.44129 17 6.20435 17 7" stroke="currentColor" stroke-width="1.5" stroke-linecap="round" stroke-linejoin="round"/>
    </symbol>
    <symbol id="calendar" viewBox="0 0 24 24" fill="none" xmlns="http://www.w3.org/2000/svg">
        <path fill-rule="evenodd" clip-rule="evenodd" d="M8.5 1C9.05228 1 9.5 1.44772 9.5 2V3H14.5V2C14.5 1.44772 14.9477 1 15.5 1C16.0523 1 16.5 1.44772 16.5 2V3H22C22.5523 3 23 3.44772 23 4V22C23 22.5523 22.5523 23 22 23H2C1.44772 23 1 22.5523 1 22V4C1 3.44772 1.44772 3 2 3H7.5V2C7.5 1.44772 7.94772 1 8.5 1ZM7.5 5H3V21H21V5H16.5V6C16.5 6.55228 16.0523 7 15.5 7C14.9477 7 14.5 6.55228 14.5 6V5H9.5V6C9.5 6.55228 9.05228 7 8.5 7C7.94772 7 7.5 6.55228 7.5 6V5ZM5 10C5 9.44772 5.44772 9 6 9H10C10.5523 9 11 9.44772 11 10V17C11 17.5523 10.5523 18 10 18H6C5.44772 18 5 17.5523 5 17C5 16.4477 5.44772 16 6 16H9V14.5H7C6.44772 14.5 6 14.0523 6 13.5C6 12.9477 6.44772 12.5 7 12.5H9V11H6C5.44772 11 5 10.5523 5 10ZM13 10C13 9.44772 13.4477 9 14 9H18C18.5523 9 19 9.44772 19 10V17C19 17.5523 18.5523 18 18 18H14C13.4477 18 13 17.5523 13 17V10ZM15 11V16H17V11H15Z" fill="currentColor"/>
    </symbol>
    <symbol id="pencil" xmlns="http://www.w3.org/2000/svg" width="20" height="20" viewBox="0 0 20 20" fill="none">
        <path d="M12.6262 3.20711C13.0168 2.81658 13.6499 2.81658 14.0404 3.20711L16.7929 5.95956C17.1834 6.35008 17.1834 6.98325 16.7929 7.37377L6.95956 17.2071C6.77202 17.3946 6.51767 17.5 6.25245 17.5H3.5C2.94772 17.5 2.5 17.0523 2.5 16.5V13.7475C2.5 13.4823 2.60536 13.228 2.79289 13.0404L12.6262 3.20711Z" stroke="currentColor" stroke-width="1.5" stroke-linecap="round"/>
    </symbol>
    <symbol id="play" viewBox="0 0 24 24" fill="none" xmlns="http://www.w3.org/2000/svg">
        <path fill-rule="evenodd" clip-rule="evenodd" d="M1 12C1 5.92487 5.92487 1 12 1C18.0751 1 23 5.92487 23 12C23 18.0751 18.0751 23 12 23C5.92487 23 1 18.0751 1 12ZM12 3C7.02943 3 3 7.02943 3 12C3 16.9706 7.02943 21 12 21C16.9706 21 21 16.9706 21 12C21 7.02943 16.9706 3 12 3ZM9.5 7.66987C9.8094 7.49124 10.1906 7.49124 10.5 7.66987L16.5 11.134C16.8094 11.3126 17 11.6427 17 12C17 12.3573 16.8094 12.6874 16.5 12.866L10.5 16.3301C10.1906 16.5088 9.8094 16.5088 9.5 16.3301C9.1906 16.1515 9 15.8214 9 15.4641V8.5359C9 8.17863 9.1906 7.84851 9.5 7.66987ZM11 10.268V13.732L14 12L11 10.268Z" fill="currentColor"/>
    </symbol>
    <symbol id="download" viewBox="0 0 24 25" fill="none" xmlns="http://www.w3.org/2000/svg">
        <path d="M12.9958 3.95801C12.9958 3.40572 12.5481 2.95801 11.9958 2.95801C11.4436 2.95801 10.9958 3.40572 10.9958 3.95801V14.5396L8.20711 11.7509C7.81658 11.3604 7.18342 11.3604 6.79289 11.7509C6.40237 12.1414 6.40237 12.7746 6.79289 13.1651L11.2365 17.6087C11.4199 17.8225 11.6921 17.958 11.9958 17.958L11.9979 17.958C12.2545 17.9585 12.5113 17.8609 12.7071 17.6651L17.2071 13.1651C17.5976 12.7746 17.5976 12.1414 17.2071 11.7509C16.8166 11.3604 16.1834 11.3604 15.7929 11.7509L12.9958 14.5479V3.95801Z" fill="currentColor"/>
        <path d="M21 11.958C21.5523 11.958 22 12.4057 22 12.958V21.958C22 22.5103 21.5523 22.958 21 22.958H3C2.44772 22.958 2 22.5103 2 21.958V12.9622C2 12.4099 2.44772 11.9622 3 11.9622C3.55228 11.9622 4 12.4099 4 12.9622V20.958H20V12.958C20 12.4057 20.4477 11.958 21 11.958Z" fill="currentColor"/>
    </symbol>
    <symbol id="enter" viewBox="0 0 25 24" fill="none" xmlns="http://www.w3.org/2000/svg">
        <path fill-rule="evenodd" clip-rule="evenodd" d="M4.5 4C5.05228 4 5.5 4.44772 5.5 5V11.5C5.5 11.7762 5.72385 12 6 12H18.0858L15.7929 9.70711C15.4024 9.31658 15.4024 8.68342 15.7929 8.29289C16.1834 7.90237 16.8166 7.90237 17.2071 8.29289L21.2071 12.2929C21.5976 12.6834 21.5976 13.3166 21.2071 13.7071L17.2071 17.7071C16.8166 18.0976 16.1834 18.0976 15.7929 17.7071C15.4024 17.3166 15.4024 16.6834 15.7929 16.2929L18.0858 14H6C4.6193 14 3.5 12.8807 3.5 11.5V5C3.5 4.44772 3.94772 4 4.5 4Z" fill="currentColor"/>
    </symbol>
</svg>