<svg width="75" height="40" viewBox="0 0 75 40" fill="none" xmlns="http://www.w3.org/2000/svg">
<path d="M27.5 29.9865L31.3094 9.12939H37.2618L33.5713 29.9865H27.5Z" fill="white"/>
<path d="M27.5 29.9865L32.3808 9.12939H37.2618L33.5713 29.9865H27.5Z" fill="white"/>
<path d="M55.1191 9.36107C53.9286 8.89757 52.0238 8.43408 49.6429 8.43408C43.6905 8.43408 39.4048 11.3309 39.4048 15.5023C39.4048 18.6309 42.381 20.2531 44.7619 21.296C47.1429 22.3388 47.8572 23.0341 47.8572 23.9611C47.8572 25.3515 45.9524 26.0468 44.2857 26.0468C41.9048 26.0468 40.5953 25.6992 38.5715 24.888L37.7381 24.5404L36.9048 29.2912C38.3334 29.8706 40.9524 30.45 43.6905 30.45C50 30.45 54.1667 27.5531 54.1667 23.15C54.1667 20.7166 52.6191 18.8626 49.0476 17.3563C46.9048 16.3134 45.5953 15.7341 45.5953 14.6912C45.5953 13.7642 46.6667 12.8373 49.0476 12.8373C51.0715 12.8373 52.5 13.1849 53.5714 13.6484L54.1667 13.8801L55.1191 9.36107Z" fill="white"/>
<path d="M55.1191 9.36107C53.9286 8.89757 52.0238 8.43408 49.6429 8.43408C43.6905 8.43408 40.4762 11.3309 40.4762 15.5023C40.4762 18.6309 42.381 20.2531 44.7619 21.296C47.1429 22.3388 47.8572 23.0341 47.8572 23.9611C47.8572 25.3515 45.9524 26.0468 44.2857 26.0468C41.9048 26.0468 40.5953 25.6992 38.5715 24.888L37.7381 24.5404L36.9048 29.2912C38.3334 29.8706 40.9524 30.45 43.6905 30.45C50 30.45 54.1667 27.5531 54.1667 23.15C54.1667 20.7166 52.6191 18.8626 49.0476 17.3563C46.9048 16.3134 45.5953 15.7341 45.5953 14.6912C45.5953 13.7642 46.6667 12.8373 49.0476 12.8373C51.0715 12.8373 52.5 13.1849 53.5714 13.6484L54.1667 13.8801L55.1191 9.36107Z" fill="white"/>
<path d="M65.3568 9.12939C63.9283 9.12939 62.8568 9.24527 62.2616 10.6357L53.333 29.9865H59.7616L60.9521 26.5103H68.5711L69.2854 29.9865H74.9997L69.9997 9.12939H65.3568ZM62.6187 23.0341C62.9759 21.9913 64.9997 16.8929 64.9997 16.8929C64.9997 16.8929 65.4759 15.6183 65.833 14.8072L66.1902 16.777C66.1902 16.777 67.3806 21.9913 67.6187 23.15H62.6187V23.0341Z" fill="white"/>
<path d="M66.7854 9.12939C65.3568 9.12939 64.2854 9.24527 63.6902 10.6357L53.333 29.9865H59.7616L60.9521 26.5103H68.5711L69.2854 29.9865H74.9997L69.9997 9.12939H66.7854ZM62.6187 23.0341C63.0949 21.8754 64.9997 16.8929 64.9997 16.8929C64.9997 16.8929 65.4759 15.6183 65.833 14.8072L66.1902 16.777C66.1902 16.777 67.3806 21.9913 67.6187 23.15H62.6187V23.0341Z" fill="white"/>
<path d="M16.5477 23.7292L15.9525 20.7165C14.881 17.2404 11.4287 13.4165 7.61914 11.5626L12.9763 30.1023H19.4049L29.0477 9.24512H22.6191L16.5477 23.7292Z" fill="white"/>
<path d="M16.5477 23.7292L15.9525 20.7165C14.881 17.2404 11.4287 13.4165 7.61914 11.5626L12.9763 30.1023H19.4049L29.0477 9.24512H23.8096L16.5477 23.7292Z" fill="white"/>
<path d="M0 9.12939L1.07143 9.36114C8.69048 11.0992 13.9286 15.5024 15.9524 20.7167L13.8095 10.8675C13.4524 9.47701 12.381 9.12939 11.0714 9.12939H0Z" fill="#FFBC00"/>
<path d="M0 9.12939C7.61905 10.8675 13.9286 15.3865 15.9524 20.6008L13.9286 12.3738C13.5714 10.9834 12.381 10.1723 11.0714 10.1723L0 9.12939Z" fill="#F7981D"/>
<path d="M0 9.12939C7.61905 10.8675 13.9286 15.3865 15.9524 20.6008L14.5238 16.0818C14.1667 14.6913 13.6905 13.3008 12.0238 12.7215L0 9.12939Z" fill="#ED7C00"/>
</svg>
