<svg width="24" height="24" viewBox="0 0 24 24" fill="none" xmlns="http://www.w3.org/2000/svg">
<path d="M12 1C18.0751 1 23 5.92487 23 12C23 18.0751 18.0751 23 12 23C5.92487 23 1 18.0751 1 12C1 5.92487 5.92487 1 12 1ZM12 3C7.02943 3 3 7.02943 3 12C3 16.9706 7.02943 21 12 21C16.9706 21 21 16.9706 21 12C21 7.02943 16.9706 3 12 3ZM15.9472 14.6056C16.4412 14.8526 16.6414 15.4532 16.3944 15.9472C16.2169 16.3024 15.8799 16.778 15.3519 17.2474C14.4741 18.0277 13.3523 18.5 12 18.5C10.6477 18.5 9.52591 18.0277 8.64814 17.2474C8.12007 16.778 7.78314 16.3024 7.60557 15.9472C7.35858 15.4532 7.55881 14.8526 8.05279 14.6056C8.51148 14.3762 9.06217 14.5325 9.33626 14.9515L9.39443 15.0528C9.46686 15.1976 9.66118 15.472 9.97686 15.7526C10.5053 16.2224 11.1648 16.5 12 16.5C12.8352 16.5 13.4947 16.2224 14.0231 15.7526C14.2937 15.5121 14.4751 15.2762 14.5671 15.1224L14.6056 15.0528C14.8526 14.5588 15.4532 14.3586 15.9472 14.6056ZM8.5 7.5C9.5562 7.5 10.3547 8.08073 10.9105 8.97C11.2097 9.44878 11.3844 9.91466 11.4701 10.2575C11.6041 10.7933 11.2783 11.3362 10.7425 11.4701C10.245 11.5945 9.74133 11.3225 9.56467 10.854L9.52986 10.7425C9.49056 10.5853 9.38401 10.3012 9.2145 10.03C8.98905 9.66928 8.7563 9.5 8.5 9.5C8.2437 9.5 8.01095 9.66928 7.7855 10.03C7.64424 10.256 7.54671 10.491 7.49538 10.654L7.47014 10.7425C7.33619 11.2783 6.79326 11.6041 6.25746 11.4701C5.72167 11.3362 5.39591 10.7933 5.52986 10.2575C5.61556 9.91466 5.79026 9.44878 6.0895 8.97C6.6453 8.08073 7.4438 7.5 8.5 7.5ZM15.5 7.5C16.5562 7.5 17.3547 8.08073 17.9105 8.97C18.2097 9.44878 18.3844 9.91466 18.4701 10.2575C18.6041 10.7933 18.2783 11.3362 17.7425 11.4701C17.245 11.5945 16.7413 11.3225 16.5647 10.854L16.5299 10.7425C16.4906 10.5853 16.384 10.3012 16.2145 10.03C15.989 9.66928 15.7563 9.5 15.5 9.5C15.2437 9.5 15.011 9.66928 14.7855 10.03C14.6442 10.256 14.5467 10.491 14.4954 10.654L14.4701 10.7425C14.3362 11.2783 13.7933 11.6041 13.2575 11.4701C12.7217 11.3362 12.3959 10.7933 12.5299 10.2575C12.6156 9.91466 12.7903 9.44878 13.0895 8.97C13.6453 8.08073 14.4438 7.5 15.5 7.5Z" fill="#FF0D1B"/>
</svg>
