<svg width="24" height="24" viewBox="0 0 24 24" fill="none" xmlns="http://www.w3.org/2000/svg">
<path fill-rule="evenodd" clip-rule="evenodd" d="M1 3C1 1.89543 1.89543 1 3 1H9C10.1046 1 11 1.89543 11 3V9C11 10.1046 10.1046 11 9 11H3C1.89543 11 1 10.1046 1 9V3ZM9 3H3V9H9V3ZM13 3C13 1.89543 13.8954 1 15 1H21C22.1046 1 23 1.89543 23 3V9C23 10.1046 22.1046 11 21 11H15C13.8954 11 13 10.1046 13 9V3ZM21 3H15V9H21V3ZM1 15C1 13.8954 1.89543 13 3 13H9C10.1046 13 11 13.8954 11 15V21C11 22.1046 10.1046 23 9 23H3C1.89543 23 1 22.1046 1 21V15ZM9 15H3V21H9V15ZM13 14C13 13.4477 13.4477 13 14 13H22C22.5523 13 23 13.4477 23 14C23 14.5523 22.5523 15 22 15H14C13.4477 15 13 14.5523 13 14ZM17 18C17 17.4477 17.4477 17 18 17H22C22.5523 17 23 17.4477 23 18C23 18.5523 22.5523 19 22 19H18C17.4477 19 17 18.5523 17 18ZM13 22C13 21.4477 13.4477 21 14 21H22C22.5523 21 23 21.4477 23 22C23 22.5523 22.5523 23 22 23H14C13.4477 23 13 22.5523 13 22Z" fill="#FF0D1B"/>
</svg>
