<svg width="24" height="24" viewBox="0 0 24 24" fill="none" xmlns="http://www.w3.org/2000/svg">
<path fill-rule="evenodd" clip-rule="evenodd" d="M12 3C9.23858 3 7 5.23858 7 8V16C7 16.5523 6.55228 17 6 17C3.23858 17 1 14.7614 1 12C1 9.5603 2.74733 7.52872 5.05881 7.08845C5.50556 3.65314 8.44295 1 12 1C15.5571 1 18.4944 3.65314 18.9412 7.08845C21.2527 7.52872 23 9.5603 23 12C23 14.4397 21.2527 16.4713 18.9412 16.9116C18.4944 20.3469 15.5571 23 12 23C11.4477 23 11 22.5523 11 22C11 21.4477 11.4477 21 12 21C14.7614 21 17 18.7614 17 16V8C17 5.23858 14.7614 3 12 3ZM19 14.8293C20.1652 14.4175 21 13.3062 21 12C21 10.6938 20.1652 9.58254 19 9.1707V14.8293ZM5 9.1707C3.83481 9.58254 3 10.6938 3 12C3 13.3062 3.83481 14.4175 5 14.8293V9.1707Z" fill="#FF0D1B"/>
</svg>
