<svg width="24" height="24" viewBox="0 0 24 24" fill="none" xmlns="http://www.w3.org/2000/svg">
<path d="M22.5938 0H13.5816C12.8062 0 12.1753 0.630937 12.1753 1.40625V4.6125H7.49391C6.71859 4.6125 6.08766 5.24344 6.08766 6.01875V9.22547H1.40625C0.630937 9.22547 0 9.85641 0 10.6317V22.5938C0 23.3691 0.630937 24 1.40625 24C1.57992 24 6.54117 24 6.51333 24C6.70303 24 6.87384 23.9253 7.00008 23.8043L11.6038 19.3875H16.5061C17.2814 19.3875 17.9123 18.7566 17.9123 17.9813V14.7745H22.5938C23.3691 14.7745 24 14.1436 24 13.3683V1.40625C24 0.630937 23.3691 0 22.5938 0ZM7.21641 21.648V19.387C7.21641 19.387 7.27439 19.3875 9.57253 19.3875L7.21641 21.648ZM10.4184 10.6317V17.9808C10.062 17.9808 7.54884 17.9808 7.21641 17.9808C6.43837 17.9808 5.81016 18.6151 5.81016 19.387V22.5938H1.40625V10.6317C11.1383 10.6307 4.36312 10.6318 10.4184 10.6308V10.6317ZM16.5061 17.9813H11.8247V10.6317C11.8247 9.85641 11.1937 9.22547 10.4184 9.22547H7.49391V6.01875H16.5061C16.5068 17.543 16.5063 13.1716 16.507 17.9808C16.507 17.9808 16.5066 17.9813 16.5061 17.9813ZM22.5938 13.3683H17.9123V6.01875C17.9123 5.24344 17.2814 4.6125 16.5061 4.6125H13.5816V1.40625H22.5938L22.5947 13.3683C22.5947 13.3683 22.5942 13.3683 22.5938 13.3683Z" fill="#757575"/>
<path d="M12.8494 7.3877C12.3813 7.3877 12.0418 7.83741 12.1753 8.29145C12.2616 8.58207 12.5306 8.79395 12.8494 8.79395C13.2375 8.79395 13.5525 8.47895 13.5525 8.09082C13.5525 7.70223 13.2375 7.3877 12.8494 7.3877Z" fill="#757575"/>
<path d="M14.165 12.9385C13.9218 12.9385 13.7075 13.0618 13.5814 13.2493C13.506 13.3613 13.4619 13.4963 13.4619 13.6416C13.4619 14.0297 13.7764 14.3447 14.165 14.3447C14.5532 14.3447 14.8682 14.0297 14.8682 13.6416C14.8682 13.5446 14.8485 13.4522 14.8129 13.3683C14.7064 13.1157 14.4561 12.9385 14.165 12.9385Z" fill="#757575"/>
</svg>