<svg width="24" height="24" viewBox="0 0 24 24" fill="none" xmlns="http://www.w3.org/2000/svg">
<path d="M23.2959 3.7054H20.0755L15.0482 0.130119C14.9289 0.0465917 14.7857 0.000421856 14.6401 0H2.63071C1.18956 0 0.0170344 1.17248 0.0170344 2.61363V10.0369C0.0170344 11.4617 1.16326 12.6231 2.58187 12.6493L1.42847 16.7791C0.598821 17.0631 0.000488281 17.8501 0.000488281 18.7748V23.2969C0.000488281 23.6852 0.315287 24 0.703582 24H11.5612C11.9495 24 12.2643 23.6852 12.2643 23.2969V18.7748C12.2643 17.6117 11.318 16.6655 10.155 16.6655H10.0329C9.62115 16.6655 9.2336 16.4753 8.96957 16.1436C8.73703 15.8514 8.62524 15.4874 8.64755 15.1159H12.3267C12.5584 15.1159 12.7752 15.0018 12.9064 14.8107C13.0375 14.6197 13.0661 14.3762 12.9828 14.16C12.8818 13.898 12.8306 13.6226 12.8306 13.3413C12.8306 13.1148 12.8626 12.8708 12.9176 12.6505H14.6398C14.7795 12.6507 14.9181 12.608 15.0342 12.5301L20.1156 9.09737H23.2959C23.6842 9.09737 23.999 8.78257 23.999 8.39428V4.40849C23.999 4.02019 23.6842 3.7054 23.2959 3.7054ZM19.2024 8.01733L15.3432 10.6244V2.06541L19.2024 4.80996V8.01733ZM1.42322 10.0369V9.83206H3.2132C3.6015 9.83206 3.9163 9.51726 3.9163 9.12896C3.9163 8.74067 3.6015 8.42587 3.2132 8.42587H1.42322V7.01968H3.2132C3.6015 7.01968 3.9163 6.70489 3.9163 6.31659C3.9163 5.9283 3.6015 5.6135 3.2132 5.6135H1.42322V4.20731H3.2132C3.6015 4.20731 3.9163 3.89251 3.9163 3.50422C3.9163 3.11592 3.6015 2.80112 3.2132 2.80112H1.42322V2.61363C1.42322 1.94785 1.96493 1.40619 2.63071 1.40619H5.29623V11.2444H2.63071C1.96493 11.2444 1.42322 10.7027 1.42322 10.0369ZM10.8581 22.5938H1.40672V18.7747C1.40499 18.3852 1.72883 18.0708 2.10982 18.0717H10.155C10.5428 18.0717 10.8581 18.387 10.8581 18.7747L10.8581 22.5938ZM2.9202 16.6655L4.04154 12.6506H7.94071C7.94071 12.6506 7.42337 14.2037 7.42309 14.2047C7.42309 14.2047 7.31917 14.52 7.31416 14.5418C7.14485 15.2774 7.26072 16.0305 7.6291 16.6656H2.9202V16.6655ZM11.4428 13.7098H9.07006L9.42288 12.6505H11.4829C11.4449 12.8796 11.4244 13.1137 11.4244 13.3413C11.4244 13.465 11.4306 13.5878 11.4428 13.7098ZM13.937 11.2444H6.70242V1.40619H13.937V11.2444ZM22.5928 7.69119H20.6086V5.11158H22.5928V7.69119Z" fill="#014898"/>
</svg>