<svg width="24" height="24" viewBox="0 0 24 24" fill="none" xmlns="http://www.w3.org/2000/svg">
<path d="M16.8389 1.40625H18.6201C19.0084 1.40625 19.3232 1.09144 19.3232 0.703125C19.3232 0.314812 19.0084 0 18.6201 0H16.8389C16.4506 0 16.1357 0.314812 16.1357 0.703125C16.1357 1.09144 16.4505 1.40625 16.8389 1.40625Z" fill="#757575"/>
<path d="M18.9919 3.8564L17.2107 2.74701C16.881 2.5417 16.4474 2.64253 16.2421 2.97215C16.0368 3.30178 16.1376 3.73537 16.4673 3.94069L18.2485 5.05008C18.5781 5.25539 19.0118 5.15456 19.2171 4.82494C19.4224 4.49531 19.3216 4.06167 18.9919 3.8564Z" fill="#757575"/>
<path d="M13.4406 4.70372V0.703125C13.4406 0.314812 13.1258 0 12.7375 0H8.73759C8.34927 0 8.03446 0.314812 8.03446 0.703125V4.70367C6.05535 5.60869 4.67676 7.60725 4.67676 9.92189V23.2969C4.67676 23.6852 4.99157 24 5.37988 24H16.095C16.4834 24 16.7982 23.6852 16.7982 23.2969V9.92189C16.7982 7.6073 15.4197 5.60878 13.4406 4.70372ZM9.44071 1.40625H12.0344V4.27003C11.7187 4.21598 11.3946 4.18748 11.0638 4.18748H10.4112C10.0805 4.18748 9.75627 4.21598 9.44071 4.27003V1.40625ZM15.392 22.5938H6.08305V10.625H15.392V22.5938ZM6.1401 9.21877C6.47694 7.16536 8.26396 5.59373 10.4112 5.59373H11.0638C13.211 5.59373 14.998 7.16536 15.3349 9.21877H6.1401Z" fill="#757575"/>
<path d="M10.7375 20.793C12.7666 20.793 14.0759 18.6689 13.2321 16.8453L11.3756 12.8334C11.1246 12.2908 10.3506 12.2904 10.0994 12.8334L8.24293 16.8453C7.39918 18.6688 8.70817 20.793 10.7375 20.793ZM9.5192 17.4359L10.7375 14.803L11.9559 17.4359C12.3593 18.3078 11.7672 19.3528 10.7889 19.3859C9.74186 19.4224 9.1044 18.3323 9.5192 17.4359Z" fill="#757575"/>
</svg>