<svg width="24" height="24" viewBox="0 0 24 24" fill="none" xmlns="http://www.w3.org/2000/svg">
<path d="M16.8104 1.43414C16.5281 0.601312 15.7395 0 14.8125 0H9.1875C8.2605 0 7.47188 0.601312 7.18959 1.43414C3.97669 1.73344 1.45312 4.44455 1.45312 7.73438V9.14062C1.45312 10.8384 2.66287 12.2588 4.26562 12.5855V21.8906C4.26562 23.0537 5.21189 24 6.375 24H17.625C18.7881 24 19.7344 23.0537 19.7344 21.8906V12.5855C21.3371 12.2589 22.5469 10.8384 22.5469 9.14062V7.73438C22.5469 4.44455 20.0233 1.73344 16.8104 1.43414ZM9.1875 1.40625H14.8125C15.2002 1.40625 15.5156 1.72167 15.5156 2.10938C15.5156 2.49708 15.2002 2.8125 14.8125 2.8125H9.1875C8.7998 2.8125 8.48438 2.49708 8.48438 2.10938C8.48438 1.72167 8.7998 1.40625 9.1875 1.40625ZM18.3281 21.8906C18.3281 22.2783 18.0127 22.5938 17.625 22.5938H6.375C5.9873 22.5938 5.67188 22.2783 5.67188 21.8906V21.1875H18.3281V21.8906ZM18.3281 19.7812H5.67188V12.6562H6.375C6.7627 12.6562 7.07812 12.9717 7.07812 13.3594V14.7656C7.07812 15.9287 8.02439 16.875 9.1875 16.875C10.3506 16.875 11.2969 15.9287 11.2969 14.7656V13.3594C11.2969 12.9717 11.6123 12.6562 12 12.6562C12.3877 12.6562 12.7031 12.9717 12.7031 13.3594C12.7031 14.5225 13.6494 15.4688 14.8125 15.4688C15.9756 15.4688 16.9219 14.5225 16.9219 13.3594C16.9219 12.9717 17.2373 12.6562 17.625 12.6562H18.3281V19.7812ZM18.3281 11.25H17.625C16.4619 11.25 15.5156 12.1963 15.5156 13.3594C15.5156 13.7471 15.2002 14.0625 14.8125 14.0625C14.4248 14.0625 14.1094 13.7471 14.1094 13.3594C14.1094 12.1963 13.1631 11.25 12 11.25C10.8369 11.25 9.89062 12.1963 9.89062 13.3594V14.7656C9.89062 15.1533 9.5752 15.4688 9.1875 15.4688C8.7998 15.4688 8.48438 15.1533 8.48438 14.7656V13.3594C8.48438 12.1963 7.53811 11.25 6.375 11.25H5.67188V9.84375H18.3281V11.25ZM21.1406 9.14062C21.1406 10.0573 20.5528 10.8388 19.7344 11.1291V9.14062C19.7344 8.75231 19.4196 8.4375 19.0312 8.4375H4.96875C4.58044 8.4375 4.26562 8.75231 4.26562 9.14062V11.1291C3.44723 10.8388 2.85938 10.0573 2.85938 9.14062V7.73438C2.85938 5.21334 4.76475 3.12928 7.21102 2.84573C7.51041 3.64678 8.28328 4.21875 9.1875 4.21875H14.8125C15.7167 4.21875 16.4896 3.64678 16.789 2.84573C19.2353 3.12928 21.1406 5.21334 21.1406 7.73438V9.14062Z" fill="#014898"/>
</svg>