<svg width="24" height="24" viewBox="0 0 24 24" fill="none" xmlns="http://www.w3.org/2000/svg">
<path d="M22.2398 0.892301C21.6821 0.79671 21.1206 0.924086 20.6586 1.25085C20.2021 1.57381 19.8969 2.05341 19.7976 2.60295L19.6024 3.47223C19.3983 4.38097 19.6368 5.30252 20.2075 5.98596C19.7054 6.26049 19.2462 6.68894 18.8346 7.26877C18.3884 7.89726 18.0019 8.69406 17.6531 9.70468C16.7489 12.3245 16.6327 15.1373 17.3345 17.4218C17.3606 17.5069 17.3884 17.5916 17.417 17.6761C15.8678 17.1429 14.0966 16.7866 12.3261 16.6592C10.1091 16.4996 8.07475 16.6956 6.44262 17.226C5.31114 17.5937 4.65504 18.7772 4.94898 19.9203C4.95386 19.9394 4.95963 19.9583 4.96614 19.977L5.90564 22.6671C6.00424 22.9494 6.27052 23.1385 6.56953 23.1385H19.9949C20.3322 23.1385 20.6221 22.899 20.6855 22.5676C20.6855 22.5676 21.1553 20.1037 21.1573 20.0767C21.5401 19.6946 21.7774 19.1666 21.7774 18.5843C21.7774 18.217 21.6828 17.8714 21.5171 17.5703L23.9741 3.31227C24.155 2.17272 23.377 1.08714 22.2398 0.892301ZM20.9747 3.78038C20.9747 3.78038 21.1784 2.87177 21.1804 2.85996C21.2365 2.5309 21.5325 2.28083 21.8645 2.26967C22.2158 2.25786 22.5284 2.52227 22.5846 2.86769C22.5967 2.94195 22.5968 3.01809 22.585 3.09239L22.173 5.70312C22.1474 5.69604 21.6897 5.42483 21.6897 5.42483C21.1165 5.0893 20.8291 4.42842 20.9747 3.78038ZM20.371 18.5842C20.371 18.972 20.0555 19.2875 19.6677 19.2875C19.28 19.2875 18.9645 18.972 18.9645 18.5842C18.9645 18.1965 19.28 17.881 19.6677 17.881C20.0555 17.881 20.371 18.1965 20.371 18.5842ZM7.06877 21.7321L6.30521 19.5456C6.21122 19.1276 6.45852 18.6997 6.87726 18.5637C9.80434 17.6124 14.3197 17.9135 17.6742 19.2732C17.9547 20.0825 18.7145 20.6693 19.6126 20.6925L19.4135 21.7321H7.06877ZM20.2691 16.5624C20.0784 16.5056 19.8767 16.4746 19.6677 16.4746C19.2815 16.4746 18.9195 16.5794 18.6078 16.7613C18.0734 14.7999 18.2064 12.4126 18.9826 10.1636C19.6672 8.18033 20.5061 7.12775 21.4763 7.03507C21.7403 7.01003 21.926 7.09714 21.9506 7.13178C21.9506 7.13197 20.2691 16.5624 20.2691 16.5624Z" fill="#757575"/>
<path d="M6.39452 13.0768C7.38475 14.3455 8.64248 15.1526 9.70547 15.1526C10.795 15.1526 11.7757 14.3544 12.467 12.9051C13.0793 11.6215 13.4165 9.93038 13.4165 8.14341C13.4165 6.35643 13.0793 4.66538 12.467 3.38172C11.7757 1.93243 10.795 1.13428 9.70547 1.13428C8.63165 1.13428 7.38456 1.93529 6.39625 3.20521C6.01562 2.83476 5.49557 2.60963 4.92259 2.60963C3.75932 2.60963 2.81293 3.55603 2.81293 4.71929V6.0338H0.70322C0.314855 6.0338 0 6.34865 0 6.73702V9.5499C0 9.93826 0.314855 10.2531 0.70322 10.2531H2.81288V11.5676C2.81288 12.7309 3.75927 13.6773 4.92254 13.6773C5.49473 13.6772 6.01408 13.4479 6.39452 13.0768ZM9.70542 2.54062C10.7933 2.54062 12.01 4.93668 12.01 8.14336C12.01 11.35 10.7933 13.7461 9.70542 13.7461C9.05906 13.7461 7.90794 12.9762 7.04776 11.5492L7.0322 11.5586V4.76406C7.86472 3.36995 9.03366 2.54062 9.70542 2.54062ZM1.40644 8.84658V7.44014H2.81288V8.84658H1.40644ZM4.21932 11.5675V4.7192C4.21932 4.33144 4.53478 4.01598 4.92254 4.01598C5.28746 4.01598 5.5883 4.28906 5.62262 4.65131C5.62473 4.67382 5.62576 4.6967 5.62576 4.7192V11.5675C5.62576 11.9553 5.31029 12.2707 4.92254 12.2707C4.53478 12.2707 4.21932 11.9553 4.21932 11.5675Z" fill="#757575"/>
</svg>