<svg width="24" height="24" viewBox="0 0 24 24" fill="none" xmlns="http://www.w3.org/2000/svg">
<path d="M17.625 10.7554H15.5156V10.2868C15.5156 9.89855 15.2008 9.58383 14.8125 9.58383H10.2725L10.4114 9.48919C11.3181 8.87142 11.8594 7.84777 11.8594 6.75084V2.69494H12.5625C12.9508 2.69494 13.2656 2.38022 13.2656 1.992C13.2656 1.60378 12.9508 1.28906 12.5625 1.28906H3.42188C3.03356 1.28906 2.71875 1.60378 2.71875 1.992C2.71875 2.38022 3.03356 2.69494 3.42188 2.69494H4.125V6.7508C4.125 7.84772 4.66631 8.87138 5.57302 9.48914L5.71186 9.58374H3.51562C3.12731 9.58374 2.8125 9.89845 2.8125 10.2867V12.1612H1.40625V11.1302C1.40625 10.742 1.09144 10.4273 0.703125 10.4273C0.314812 10.4273 0 10.742 0 11.1302V14.5981C0 14.9863 0.314812 15.301 0.703125 15.301C1.09144 15.301 1.40625 14.9863 1.40625 14.5981V13.5671H2.8125V15.4417C2.8125 15.8299 3.12731 16.1446 3.51562 16.1446H4.78678L2.80416 20.7725C2.6468 21.1202 2.82745 21.5617 3.18352 21.6995L5.12203 22.5C5.8058 22.7918 6.58523 22.7805 7.26056 22.4684C7.93566 22.1563 8.44945 21.5701 8.67019 20.8598L9.70631 17.5231C10.0126 17.8728 10.4482 18.215 11.0687 18.4786C11.4173 18.6293 11.8389 18.4675 11.9908 18.1066C12.1427 17.7493 11.9761 17.3366 11.6187 17.1847C10.9351 16.8943 10.6212 16.4858 10.4784 16.1446H14.8125C15.2008 16.1446 15.5156 15.8299 15.5156 15.4417V14.973H17.625C18.0133 14.973 18.3281 14.6583 18.3281 14.2701V11.4584C18.3281 11.0701 18.0133 10.7554 17.625 10.7554ZM5.53125 6.75084V2.69494H10.4531V6.7508C10.4531 7.38234 10.1415 7.9717 9.61945 8.32739L7.99219 9.43608L6.36492 8.32744C5.84288 7.97175 5.53125 7.38239 5.53125 6.75084ZM7.32727 20.4429C7.13381 21.1229 6.31753 21.5003 5.67408 21.207L4.37784 20.67L6.31655 16.1446H8.66194L7.32727 20.4429ZM14.1094 14.7387H4.21875V10.9897H14.1094V14.7387ZM16.9219 13.5671H15.5156V12.1613H16.9219V13.5671Z" fill="#014898"/>
<path d="M20.4717 10.7613C20.86 10.7613 21.1748 10.4466 21.1748 10.0584C21.1748 9.67018 20.86 9.35547 20.4717 9.35547C20.0834 9.35547 19.7686 9.67018 19.7686 10.0584C19.7686 10.4466 20.0834 10.7613 20.4717 10.7613Z" fill="#014898"/>
<path d="M20.4717 13.5729C20.86 13.5729 21.1748 13.2582 21.1748 12.8699C21.1748 12.4817 20.86 12.167 20.4717 12.167C20.0834 12.167 19.7686 12.4817 19.7686 12.8699C19.7686 13.2582 20.0834 13.5729 20.4717 13.5729Z" fill="#014898"/>
<path d="M20.4717 16.3849C20.86 16.3849 21.1748 16.0702 21.1748 15.6819C21.1748 15.2937 20.86 14.979 20.4717 14.979C20.0834 14.979 19.7686 15.2937 19.7686 15.6819C19.7686 16.0702 20.0834 16.3849 20.4717 16.3849Z" fill="#014898"/>
<path d="M23.2969 13.5729C23.6852 13.5729 24 13.2582 24 12.8699C24 12.4817 23.6852 12.167 23.2969 12.167C22.9085 12.167 22.5938 12.4817 22.5938 12.8699C22.5938 13.2582 22.9085 13.5729 23.2969 13.5729Z" fill="#014898"/>
<path d="M23.0488 17.4986C23.4372 17.4986 23.752 17.1839 23.752 16.7957C23.752 16.4075 23.4372 16.0928 23.0488 16.0928C22.6605 16.0928 22.3457 16.4075 22.3457 16.7957C22.3457 17.1839 22.6605 17.4986 23.0488 17.4986Z" fill="#014898"/>
<path d="M23.0488 9.63586C23.4372 9.63586 23.752 9.32114 23.752 8.93292C23.752 8.5447 23.4372 8.22998 23.0488 8.22998C22.6605 8.22998 22.3457 8.5447 22.3457 8.93292C22.3457 9.32114 22.6605 9.63586 23.0488 9.63586Z" fill="#014898"/>
</svg>