<svg width="24" height="24" viewBox="0 0 24 24" fill="none" xmlns="http://www.w3.org/2000/svg">
<path d="M23.794 1.20032L22.7996 0.205958C22.5434 -0.0503073 22.1344 -0.0698073 21.8549 0.160818L16.6583 4.44922L16.1157 3.90669C15.8549 3.64583 15.4368 3.63093 15.158 3.87252L0.242546 16.7993C-0.0654232 17.0661 -0.0828138 17.5392 0.205842 17.8278L6.17205 23.794C6.45972 24.0817 6.93269 24.0665 7.20058 23.7573L20.1273 8.84179C20.3689 8.56302 20.354 8.14494 20.0932 7.88413L19.5507 7.34164L23.839 2.14504C24.0697 1.86552 24.0502 1.45654 23.794 1.20032ZM14.4956 13.1928L11.2682 12.7317L10.8071 9.50422L13.4535 7.21068L16.7892 10.5463L14.4956 13.1928ZM8.47914 20.1349L3.86495 15.5207L9.54306 10.5997L9.95059 13.4526C9.9948 13.762 10.2378 14.005 10.5472 14.0492L13.4001 14.4568L8.47914 20.1349ZM6.63245 22.2657L1.73416 17.3674L2.79958 16.4441L7.5558 21.2003L6.63245 22.2657ZM17.7126 9.48097L14.5189 6.28733L15.5844 5.36399C16.6543 6.43396 17.5446 7.32421 18.636 8.4156L17.7126 9.48097ZM18.5518 6.34274L17.6572 5.44813L22.2571 1.65219L22.3478 1.74285L18.5518 6.34274Z" fill="#757575"/>
</svg>