<svg width="24" height="24" viewBox="0 0 24 24" fill="none" xmlns="http://www.w3.org/2000/svg">
<path d="M5.06925 20.0031H3.84006C3.0994 20.0031 2.46951 19.4628 2.35684 18.7307L2.02061 16.5448C1.85786 15.5213 2.50499 14.5433 3.51067 14.293C4.99797 13.9409 6.52461 13.7829 8.05249 13.823V13.8209C8.95203 13.0364 9.94697 12.3686 11.0137 11.8333C13.2373 10.7216 15.8545 10.7216 18.0781 11.8333L20.3362 12.9623C20.6544 13.1195 20.9847 13.2509 21.3239 13.3554C21.7322 13.4881 22.0074 13.8701 22.0039 14.2994V18.5026C22.0039 19.3314 21.332 20.0032 20.5032 20.0032H18.9537" stroke="#757575" stroke-width="1.5" stroke-linecap="round" stroke-linejoin="round"/>
<path d="M12.0002 6.99798V5.99756" stroke="#757575" stroke-width="1.5" stroke-linecap="round" stroke-linejoin="round"/>
<path d="M8.49836 5.49717L7.99815 5.99738" stroke="#757575" stroke-width="1.5" stroke-linecap="round" stroke-linejoin="round"/>
<path d="M16.0018 5.99738L15.5016 5.49717" stroke="#757575" stroke-width="1.5" stroke-linecap="round" stroke-linejoin="round"/>
<path d="M18.0026 2.9963H5.99756" stroke="#757575" stroke-width="1.5" stroke-linecap="round" stroke-linejoin="round"/>
<circle cx="6.65112" cy="19.2532" r="1.75073" stroke="#757575" stroke-width="1.5" stroke-linecap="round" stroke-linejoin="round"/>
<circle cx="17.3718" cy="19.2532" r="1.75073" stroke="#757575" stroke-width="1.5" stroke-linecap="round" stroke-linejoin="round"/>
<path d="M15.7259 20.0031H8.2334" stroke="#757575" stroke-width="1.5" stroke-linecap="round" stroke-linejoin="round"/>
</svg>