<svg width="24" height="24" viewBox="0 0 24 24" fill="none" xmlns="http://www.w3.org/2000/svg">
<path d="M22.6641 14.4071C20.6187 13.4572 18.1647 13.3019 17.3816 13.2765L14.6173 11.1101C14.3654 10.9127 14.106 10.7451 13.8462 10.6119C13.0028 10.1793 12.0559 9.95068 11.1081 9.95068H9.38401C8.39439 9.95068 7.4035 10.1846 6.51845 10.6272C6.51507 10.6289 6.5117 10.6306 6.50837 10.6323L3.45128 12.2228C2.96036 12.4782 2.43306 12.6425 1.88396 12.7111C0.809965 12.8454 1.1534e-05 13.7629 1.1534e-05 14.8452V17.8635C-0.00345722 18.8482 0.775887 19.6796 1.77207 19.7584L2.69621 19.8423C2.98862 21.0409 4.07087 21.9334 5.35825 21.9334C6.62631 21.9334 7.69553 21.0676 8.00678 19.8961H16.0195C16.3307 21.0676 17.4 21.9334 18.668 21.9334C19.936 21.9334 21.0053 21.0676 21.3166 19.8961H22.3258C23.2489 19.8961 24 19.1451 24 18.2219V16.5181C24 15.6127 23.4757 14.7841 22.6641 14.4071ZM7.15234 11.8824C7.84187 11.5386 8.61343 11.3569 9.38396 11.3569H11.108C11.8337 11.3569 12.5586 11.5319 13.2045 11.8632C13.6027 12.0453 14.724 12.9988 15.0955 13.2716H6.34642C5.96139 13.2738 5.60378 13.1054 5.34493 12.8228L7.15234 11.8824ZM5.35825 20.5271C4.62259 20.5271 4.02409 19.9286 4.02409 19.1929C4.02409 18.4573 4.62259 17.8588 5.35825 17.8588C6.0939 17.8588 6.6924 18.4573 6.6924 19.1929C6.6924 19.9286 6.0939 20.5271 5.35825 20.5271ZM18.668 20.5271C17.9324 20.5271 17.3339 19.9286 17.3339 19.1929C17.3339 18.4573 17.9324 17.8588 18.668 17.8588C19.4036 17.8588 20.0022 18.4573 20.0022 19.1929C20.0022 19.9286 19.4037 20.5271 18.668 20.5271ZM22.5938 18.2219C22.5938 18.3696 22.4736 18.4899 22.3258 18.4899H21.3166C21.0053 17.3184 19.936 16.4526 18.668 16.4526C17.4 16.4526 16.3307 17.3184 16.0195 18.4899H8.00678C7.69553 17.3184 6.62626 16.4526 5.35825 16.4526C4.11085 16.4526 3.05626 17.2906 2.72589 18.4329L1.89587 18.3576C1.89296 18.3573 1.89015 18.3571 1.88725 18.3569C1.62934 18.3366 1.41831 18.1309 1.40687 17.8883C1.40645 17.8801 1.40626 17.8718 1.40626 17.8635V14.8452C1.40626 14.4706 1.68662 14.1529 2.05843 14.1065C2.74993 14.02 3.41485 13.8168 4.03614 13.5028L4.40861 13.8752C4.9262 14.3928 5.61442 14.6779 6.34642 14.6779H17.1322C17.16 14.6779 19.9412 14.6931 22.0718 15.6826C22.3889 15.8298 22.5938 16.1578 22.5938 16.5181V18.2219H22.5938Z" fill="#757575"/>
<path d="M12.7152 15.8062H11.2847C10.8964 15.8062 10.5815 16.121 10.5815 16.5093C10.5815 16.8976 10.8964 17.2124 11.2847 17.2124H12.7152C13.1035 17.2124 13.4183 16.8976 13.4183 16.5093C13.4183 16.121 13.1035 15.8062 12.7152 15.8062Z" fill="#757575"/>
<path d="M16.5312 6.63632C18.0257 6.63632 18.9913 7.60208 18.9913 9.0966C18.9913 9.48491 19.3061 9.79972 19.6944 9.79972C20.0827 9.79972 20.3975 9.48491 20.3975 9.0966C20.3975 7.60204 21.3632 6.63632 22.8575 6.63632C23.2459 6.63632 23.5607 6.3215 23.5607 5.93319C23.5607 5.54488 23.2459 5.23007 22.8575 5.23007C21.3631 5.23007 20.3975 4.26439 20.3975 2.77002C20.3975 2.38171 20.0827 2.06689 19.6944 2.06689C19.3061 2.06689 18.9913 2.38171 18.9913 2.77002C18.9913 4.26444 18.0256 5.23007 16.5312 5.23007C16.1429 5.23007 15.8281 5.54488 15.8281 5.93319C15.8281 6.3215 16.1429 6.63632 16.5312 6.63632ZM19.6944 5.11129C19.9211 5.43013 20.1975 5.7066 20.5164 5.93319C20.1975 6.15983 19.9211 6.4363 19.6944 6.75519C19.4678 6.4363 19.1914 6.15983 18.8725 5.93319C19.1913 5.7066 19.4678 5.43013 19.6944 5.11129Z" fill="#757575"/>
<path d="M0.703613 6.63632C2.19804 6.63632 3.16361 7.60208 3.16361 9.0966C3.16361 9.48491 3.47843 9.79972 3.86674 9.79972C4.25505 9.79972 4.56986 9.48491 4.56986 9.0966C4.56986 7.60204 5.53553 6.63632 7.02991 6.63632C7.41822 6.63632 7.73303 6.3215 7.73303 5.93319C7.73303 5.54488 7.41822 5.23007 7.02991 5.23007C5.53549 5.23007 4.56986 4.26439 4.56986 2.77002C4.56986 2.38171 4.25505 2.06689 3.86674 2.06689C3.47843 2.06689 3.16361 2.38171 3.16361 2.77002C3.16361 4.26444 2.19799 5.23007 0.703613 5.23007C0.315301 5.23007 0.000488281 5.54488 0.000488281 5.93319C0.000488281 6.3215 0.315301 6.63632 0.703613 6.63632ZM3.86679 5.11129C4.09343 5.43013 4.36989 5.7066 4.68874 5.93319C4.36989 6.15983 4.09343 6.4363 3.86679 6.75519C3.64019 6.4363 3.36372 6.15983 3.04483 5.93319C3.36368 5.7066 3.64019 5.43013 3.86679 5.11129Z" fill="#757575"/>
<path d="M22.167 12.0264C22.5553 12.0264 22.8701 11.7116 22.8701 11.3232C22.8701 10.9349 22.5553 10.6201 22.167 10.6201C21.7787 10.6201 21.4639 10.9349 21.4639 11.3232C21.4639 11.7116 21.7787 12.0264 22.167 12.0264Z" fill="#757575"/>
<path d="M8.47412 4.00928C8.86245 4.00928 9.17725 3.69448 9.17725 3.30615C9.17725 2.91783 8.86245 2.60303 8.47412 2.60303C8.0858 2.60303 7.771 2.91783 7.771 3.30615C7.771 3.69448 8.0858 4.00928 8.47412 4.00928Z" fill="#757575"/>
</svg>