<svg width="24" height="24" viewBox="0 0 24 24" fill="none" xmlns="http://www.w3.org/2000/svg">
<circle cx="15.3716" cy="8.62844" r="5.63235" stroke="#757575" stroke-width="1.5" stroke-linecap="round" stroke-linejoin="round"/>
<path d="M7.69222 19.3799L6.36767 20.7034C6.17586 20.8957 5.91545 21.0037 5.64387 21.0037C5.3723 21.0037 5.11188 20.8957 4.92007 20.7034L3.29639 19.0798C3.10414 18.888 2.99609 18.6275 2.99609 18.356C2.99609 18.0844 3.10414 17.824 3.29639 17.6322L4.61994 16.3076" stroke="#757575" stroke-width="1.5" stroke-linecap="round" stroke-linejoin="round"/>
<path d="M8.2046 13.7476L7.18018 14.772" stroke="#757575" stroke-width="1.5" stroke-linecap="round" stroke-linejoin="round"/>
<path d="M10.2525 15.7954L9.22803 16.8198" stroke="#757575" stroke-width="1.5" stroke-linecap="round" stroke-linejoin="round"/>
<path d="M7.42728 10.4282L6.9981 9.99901V9.99901C6.33465 9.33576 5.96191 8.43608 5.96191 7.49797C5.96191 6.55985 6.33465 5.66018 6.9981 4.99693L8.99893 2.99609" stroke="#757575" stroke-width="1.5" stroke-linecap="round" stroke-linejoin="round"/>
<path d="M15.9018 14.2397L10.6746 19.4679C9.87464 20.2671 8.57839 20.2671 7.77841 19.4679L4.53206 16.2195C3.7328 15.4196 3.7328 14.1233 4.53206 13.3233L9.76124 8.09814" stroke="#757575" stroke-width="1.5" stroke-linecap="round" stroke-linejoin="round"/>
<path d="M15.3703 8.37853C15.2323 8.37908 15.1208 8.4913 15.1212 8.6293C15.1216 8.76729 15.2336 8.87892 15.3716 8.87873C15.5096 8.87855 15.6214 8.76663 15.6214 8.62863C15.6217 8.56204 15.5953 8.49812 15.5481 8.45113C15.5009 8.40414 15.4369 8.37799 15.3703 8.37853" stroke="#757575" stroke-width="1.5" stroke-linecap="round" stroke-linejoin="round"/>
</svg>