<svg width="584" height="272" viewBox="0 0 584 272" fill="none" xmlns="http://www.w3.org/2000/svg">
<path d="M6.015 174.177C6.015 174.177 1.85213 171.599 0.793769 175.041C-0.264589 178.484 -0.264589 183.541 0.793769 183.924C3.14158 184.121 5.50168 184.121 7.84949 183.924C7.84949 183.924 10.0791 176.245 6.015 174.177Z" fill="#FF8289"/>
<path d="M109.283 176.231C109.283 176.231 99.9126 169.601 97.6406 180.226C99.3812 185.647 100.494 191.251 100.957 196.928C104.866 197.721 108.718 198.656 112.472 199.69C112.472 189.689 111.696 180.552 109.283 176.231Z" fill="#014898"/>
<path d="M115.636 241.552L109.893 239.016C111.43 225.961 112.292 212.835 112.476 199.69C108.722 198.656 104.869 197.721 100.961 196.928C102.179 209.889 101.6 222.957 99.239 235.758C99.239 235.758 95.5418 245.674 99.62 249.825C103.698 253.976 107.325 252.531 112.461 254.599C117.598 256.667 126.22 257.135 129.706 251.256C133.191 245.377 126.079 235.361 115.636 241.552Z" fill="#1F66B6"/>
<path d="M52.431 169.517C52.431 169.517 43.061 162.561 40.7891 173.766C40.7891 173.766 43.6113 181.841 44.5004 196.433C48.1697 195.594 51.8818 194.955 55.6202 194.52C55.6343 183.839 54.8582 174.121 52.431 169.517Z" fill="#014898"/>
<path d="M58.7807 238.124L53.0374 235.46C53.0374 235.46 55.5916 213.545 55.6198 194.463C51.8814 194.898 48.1693 195.536 44.5 196.375C45.13 208.308 44.4152 220.274 42.3691 232.046C42.3691 232.046 38.686 242.458 42.7078 246.793C46.7296 251.128 50.4127 249.627 55.5492 251.808C60.6858 253.99 69.3079 254.472 72.7934 248.295C76.2789 242.118 69.2091 231.607 58.7807 238.124Z" fill="#1F66B6"/>
<path d="M93.9165 64.0487C97.8677 56.8946 99.4623 48.1398 96.2872 40.1784C96.0648 39.687 95.8053 39.2134 95.511 38.7617C79.5369 44.3149 55.8579 59.1329 44.1172 98.5579C64.099 93.4013 82.2181 83.0741 93.9165 64.0487Z" fill="#014898"/>
<path d="M118.074 29.2129C118.087 29.8227 118.158 30.4299 118.287 31.0262C118.287 31.0262 118.23 30.332 118.074 29.2129Z" fill="#1F66B6"/>
<path d="M124.707 41.4811C124.707 41.4811 133.936 42.2319 132.807 38.2937C132.697 37.7834 132.483 37.3016 132.178 36.8782C131.874 36.4549 131.485 36.0991 131.038 35.8332C130.59 35.5673 130.093 35.3969 129.576 35.3328C129.06 35.2687 128.536 35.3121 128.038 35.4604C128.038 35.4604 137.563 27.8248 131.89 24.4815C126.217 21.1382 122.591 31.5647 122.591 31.5647C122.591 31.5647 123.042 26.7906 120.093 26.5498C118.4 26.4223 118.061 27.9664 118.075 29.2697C118.089 30.573 118.287 31.083 118.287 31.083C118.159 30.4867 118.088 29.8795 118.075 29.2697C117.412 24.4248 115.013 11.5901 108.197 12.8367C99.7302 14.395 112.162 32.6696 112.162 32.6696C112.162 32.6696 109.665 30.6297 108.761 32.783C107.858 34.9362 111.711 35.5312 111.711 35.5312C106.177 35.8347 100.718 36.9565 95.5108 38.8603C95.8051 39.312 96.0646 39.7856 96.287 40.277C99.4621 48.2384 97.8675 56.9933 93.9163 64.1473C82.2179 83.0735 64.0988 93.4007 44.117 98.5715C41.8757 106.165 40.2059 113.917 39.1215 121.762C39.1215 121.762 33.1806 170.423 34.5918 172.761C37.414 177.591 69.8704 183.584 106.094 182.238C107.767 182.161 109.376 181.578 110.713 180.567C112.05 179.556 113.052 178.163 113.588 176.571L130.874 131.636C136.684 116.629 139.827 100.715 140.159 84.6176C140.47 67.3064 137.563 48.3093 124.707 41.4811Z" fill="#1F66B6"/>
<path d="M63.6475 100.993C62.2364 98.1598 59.0049 95.7798 51.9209 96.7431C41.9159 98.1598 33.7877 112 29.4414 121.067C42.7062 117.029 55.0113 110.626 63.6475 100.993Z" fill="#1F66B6"/>
<path d="M32.9004 130.092C35.8344 124.987 40.0307 120.729 45.0835 117.729C50.1364 114.728 55.8749 113.087 61.7442 112.965C63.1408 111.574 64.1189 109.816 64.5665 107.893C64.9281 105.553 64.6097 103.157 63.6492 100.994C55.013 110.627 42.7078 117.03 29.4431 121.139C27.2699 125.7 26.0422 129.086 26.0422 129.086C26.0422 129.086 20.6234 128.449 19.424 135.418C19.424 135.418 18.8172 138.889 20.9339 140.164C20.9339 140.164 0.161862 170.537 4.67752 182.55C4.44456 183.566 4.59188 184.633 5.09147 185.547C5.59106 186.461 6.40803 187.159 7.38692 187.508C7.38692 187.508 9.68708 192.565 13.1021 190.78C13.1021 190.78 10.2798 197.736 13.9064 199.11C17.533 200.484 21.5266 199.946 22.9377 194.053C23.2905 192.551 24.0243 187.423 25.3649 180.439C22.1757 163.539 23.3893 145.831 32.9004 130.092Z" fill="#1F66B6"/>
<path d="M32.8983 130.092C23.3872 145.831 22.1736 163.539 25.3628 180.439C29.2858 159.898 38.5006 123.179 59.1456 114.211C60.1296 114.113 61.0482 113.672 61.7421 112.965C55.8728 113.088 50.1343 114.728 45.0815 117.729C40.0286 120.729 35.8323 124.987 32.8983 130.092Z" fill="#014898"/>
<path d="M43.3828 101.094C43.3828 101.094 55.9561 91.2767 63.6468 100.995C63.6468 100.995 58.5103 94.2516 43.3828 101.094Z" fill="#014898"/>
<path d="M108.199 12.7809C108.199 12.7809 116.102 9.4518 118.176 30.4463C118.176 30.4463 116.878 26.0123 120.095 26.4939C123.313 26.9756 122.593 31.5088 122.593 31.5088C122.593 31.5088 124.837 21.8757 131.215 24.1281C137.593 26.3806 130.072 33.9454 128.04 35.4612C128.04 35.4612 132.443 34.6821 132.894 38.7903C132.894 38.7903 130.411 34.7529 126.897 36.552C126.897 36.552 134.856 26.9047 130.467 26.0123C126.078 25.1198 122.395 33.5629 122.395 33.5629C122.395 33.5629 121.76 27.7689 119.869 28.5905C117.978 29.4122 118.289 33.4213 118.289 33.4213C118.289 33.4213 114.592 13.5459 108.199 12.7809Z" fill="#014898"/>
<path d="M30.8969 182.464C29.721 181.132 28.2693 180.074 26.6435 179.364C25.0176 178.655 23.2569 178.31 21.4845 178.355C20.1846 181.942 19.5811 185.746 19.7065 189.561C19.7065 189.561 -1.884 230.119 9.20759 224.127C17.6744 219.58 27.2279 222.781 31.292 224.552C31.5841 224.683 31.9097 224.719 32.2233 224.656C32.537 224.592 32.8231 224.432 33.0418 224.198C25.7744 211.122 23.6295 195.497 30.8969 182.464Z" fill="#FF8289"/>
<path d="M34.3665 193.741C34.3665 188.273 32.8284 184.746 30.8951 182.408C23.6277 195.441 25.7304 211.067 33.0401 224.171C33.2893 223.909 33.4391 223.568 33.4634 223.207C33.8021 218.362 34.5218 206.278 34.3665 193.741Z" fill="#FF8289"/>
<path d="M101.509 83.8818C100.422 86.5026 100.309 88.9675 101.254 89.3783C102.2 89.7892 103.865 87.9617 104.966 85.3976C106.067 82.8335 106.165 80.326 105.22 79.9152C104.274 79.5044 102.609 81.3318 101.509 83.8818Z" fill="#221F1F"/>
<path d="M123.284 89.193C122.395 91.8846 122.465 94.3496 123.439 94.6896C124.413 95.0296 125.951 93.1454 126.84 90.4397C127.729 87.7339 127.658 85.2831 126.67 84.929C125.683 84.5748 124.173 86.4873 123.284 89.1789" fill="#221F1F"/>
<path d="M118.428 73.2848C117.539 75.9764 117.61 78.4414 118.583 78.7814C119.557 79.1214 121.095 77.2372 121.984 74.5315C122.873 71.8257 122.803 69.3749 121.815 69.0208C120.827 68.6666 119.317 70.5791 118.428 73.2707" fill="#221F1F"/>
<path d="M111.233 111.959C110.011 110.835 108.574 109.972 107.009 109.421C105.445 108.871 103.785 108.645 102.131 108.758H101.976C96.6985 109.197 95.0757 101.122 102.089 99.4645C109.102 97.8071 117.273 101.618 119.347 107.313C121.14 112.299 116.088 116.337 111.233 111.959Z" fill="#221F1F"/>
<mask id="mask0_168_45434" style="mask-type:luminance" maskUnits="userSpaceOnUse" x="97" y="99" width="23" height="15">
<path d="M111.233 111.959C110.011 110.835 108.574 109.972 107.009 109.421C105.445 108.871 103.785 108.645 102.131 108.758H101.976C96.6985 109.197 95.0757 101.122 102.089 99.4645C109.102 97.8071 117.273 101.618 119.347 107.313C121.14 112.299 116.088 116.337 111.233 111.959Z" fill="white"/>
</mask>
<g mask="url(#mask0_168_45434)">
<path d="M116.327 114.013C115.396 116.435 110.768 116.846 106.012 115.033C101.256 113.22 98.1661 109.692 99.1115 107.27C100.057 104.847 104.671 104.436 109.427 106.264C114.183 108.091 117.273 111.59 116.327 114.013Z" fill="#FF8289"/>
</g>
<path d="M145.467 129.355C150.985 106.137 135.462 96.5742 135.462 96.5742L133.797 101.419L126.36 122.952C123.764 138.308 114.549 130.262 114.549 130.262C113.801 127.882 112.898 130.262 112.898 130.262V114.835C112.898 108.743 111.388 106.221 108.537 107.751C105.687 109.281 106.576 121.833 106.576 121.833C104.544 118.745 102.893 121.918 102.893 121.918C102.714 121.536 102.424 121.218 102.061 121.006C101.698 120.793 101.28 120.696 100.861 120.728C99.4495 120.884 99.3507 122.47 99.3507 122.47C98.8992 121.677 96.9518 119.141 95.1173 122.47C93.2828 125.799 98.2783 143.819 106.406 149.202C108.412 150.407 110.648 151.174 112.968 151.455C126.402 148.466 138.439 141.255 145.467 129.355Z" fill="#1F66B6"/>
<path d="M112.996 151.497C121.463 152.772 133.712 150.081 140.838 139.924C142.988 136.808 144.534 133.314 145.396 129.625C145.396 129.54 145.396 129.44 145.396 129.355C138.439 141.255 126.402 148.466 112.996 151.497Z" fill="#014898"/>
<path d="M128.278 133.278C125.657 134.004 122.903 134.109 120.234 133.585C117.565 133.062 115.054 131.924 112.897 130.261C112.897 130.261 115.55 107.255 109.891 107.34C109.891 107.34 105.009 106.263 106.519 120.968C106.223 120.766 105.888 120.63 105.536 120.571C105.183 120.511 104.822 120.529 104.477 120.623C104.132 120.718 103.812 120.886 103.538 121.117C103.265 121.347 103.044 121.635 102.892 121.96C102.892 121.96 100.451 119.126 99.3923 122.271C99.3923 122.271 95.9208 119.098 94.7637 123.064C94.7637 123.064 90.3468 146.382 115.254 151.808C115.254 151.808 94.6085 146.779 95.3987 123.617C95.4758 123.224 95.6844 122.869 95.9898 122.612C96.2952 122.354 96.6791 122.209 97.078 122.2C98.5738 122.115 99.4064 123.858 99.4064 123.858C99.4064 123.858 99.9003 121.577 101.043 121.846C102.186 122.115 102.977 123.716 102.977 123.716C102.977 123.716 103.372 121.124 105.079 121.549C105.585 121.718 106.026 122.041 106.342 122.472C106.658 122.903 106.833 123.422 106.843 123.957C106.843 123.957 105.954 107.396 109.665 108.006C113.377 108.615 112.29 131.564 112.29 131.564C112.29 131.564 120.955 138.747 128.278 133.278Z" fill="#014898"/>
<path d="M138.847 100.994C136.788 112.098 133.473 122.93 128.969 133.279C128.969 133.279 138.663 117.88 138.847 100.994Z" fill="#014898"/>
<path d="M33.4906 223.872C33.4906 228.859 27.3521 232.91 19.7602 232.91C12.1682 232.91 6.01562 228.859 6.01562 223.872C6.01562 218.886 12.1682 214.834 19.7461 214.834C27.3239 214.834 33.4906 218.871 33.4906 223.872Z" fill="#FF3543"/>
<path d="M17.3063 224.213V242.927L21.5397 224.837C21.6251 224.518 21.5971 224.18 21.4605 223.88C21.324 223.58 21.0875 223.337 20.7918 223.193C20.1075 222.816 19.3245 222.658 18.5481 222.74C18.1939 222.783 17.869 222.958 17.6386 223.232C17.4082 223.505 17.2895 223.856 17.3063 224.213Z" fill="#E27C0F"/>
<path d="M21.0873 240.164C21.0901 240.854 20.8889 241.529 20.5092 242.104C20.1294 242.679 19.5882 243.128 18.9542 243.394C18.3201 243.66 17.6217 243.731 16.9474 243.598C16.2731 243.465 15.6532 243.134 15.1663 242.648C14.6794 242.161 14.3474 241.54 14.2123 240.863C14.0772 240.187 14.1451 239.486 14.4074 238.848C14.6697 238.21 15.1147 237.665 15.6858 237.282C16.257 236.898 16.9287 236.693 17.6159 236.693C18.5342 236.693 19.415 237.059 20.0656 237.709C20.7162 238.36 21.0836 239.242 21.0873 240.164Z" fill="#E27C0F"/>
<path d="M453.125 76.7976C449.115 73.7391 444.429 71.698 439.465 70.8478C428.402 68.9495 420.852 72.7035 416.195 76.6276C428.471 77.8741 440.838 77.931 453.125 76.7976Z" fill="#014898"/>
<path d="M453.122 76.7969C440.836 77.9303 428.469 77.8734 416.193 76.627C413.794 78.6074 411.772 81.007 410.224 83.7101C410.224 83.7101 400.261 90.6233 400.656 93.6266C401.051 96.6298 402.886 95.6098 402.886 95.6098C402.886 98.5706 404.452 97.9756 404.452 97.9756C404.452 97.9756 402.166 109.62 405.313 109.748C408.46 109.875 410.788 100.356 410.788 100.356C410.788 100.356 410.661 102.721 414.443 102.013C418.225 101.305 417.83 92.6491 417.83 92.6491C421.767 81.4577 433.352 82.846 433.352 82.846C444.133 83.781 452.247 93.5557 457.991 104.294C460.179 98.2129 461.375 91.8171 461.533 85.3534C459.172 82.0945 456.337 79.2102 453.122 76.7969Z" fill="#1F66B6"/>
<path d="M467.773 97.2112C466.24 93.0125 464.121 89.0536 461.479 85.4531C461.322 91.9168 460.126 98.3126 457.938 104.394C462.747 113.764 466.419 123.681 468.874 133.93C470.666 111.293 467.773 97.2112 467.773 97.2112Z" fill="#014898"/>
<path d="M550.381 95.2148C547.744 103.575 548.113 112.6 551.425 120.714C552.9 120.967 554.328 121.445 555.659 122.131C556.901 114.536 558.79 107.062 561.303 99.7906C557.915 97.7178 554.232 96.1749 550.381 95.2148Z" fill="#014898"/>
<path d="M565.719 103.033C568.541 119.041 573.254 135.517 581.001 150.278C581.594 135.304 579.463 114.82 565.719 103.033Z" fill="#014898"/>
<path d="M565.718 103.035C564.337 101.838 562.859 100.757 561.301 99.8047C558.788 107.076 556.899 114.55 555.656 122.145C562.317 125.46 573.874 136.127 567.157 169.659C567.157 169.659 560.299 174.915 560.299 179.065C560.299 183.216 562.571 184.293 562.571 184.293C562.571 184.293 560.793 188.443 564.335 188.443C566.881 188.39 569.414 188.822 571.8 189.718C572.788 190.214 575.342 189.038 576.725 189.718C578.108 190.398 581.339 190.413 582.524 189.322C583.71 188.231 582.92 173.243 578.785 168.696C580.035 162.63 580.776 156.47 581 150.279C573.296 135.518 568.596 119.043 565.718 103.035Z" fill="#1F66B6"/>
<path d="M491.537 234.838C491.537 234.838 489.858 232.005 488.235 233.804C488.235 233.804 476.423 226.098 470.807 238.918C465.191 251.739 490.366 252.334 496.575 246.313C502.784 240.292 504.703 240.094 504.703 240.094C504.703 240.094 507.215 236 504.703 234.258C502.84 232.968 497.788 213.872 496.716 193.473C493.216 193.841 489.759 194.351 486.33 195.031L491.537 234.838Z" fill="#1F66B6"/>
<path d="M497.333 172.237C497.333 172.237 485.917 162.136 482.812 168.157L486.326 195.073C489.755 194.393 493.213 193.883 496.712 193.515C496.269 186.418 496.477 179.295 497.333 172.237Z" fill="#014898"/>
<path d="M535.407 228.958C535.407 228.958 537.087 226.124 538.709 227.923C538.709 227.923 550.521 220.217 556.137 233.037C561.753 245.858 536.579 246.453 530.384 240.432C524.189 234.412 522.241 234.213 522.241 234.213C522.241 234.213 519.73 230.119 522.241 228.377C524.104 227.073 529.156 207.991 530.243 187.592C533.728 187.96 537.185 188.47 540.614 189.15L535.407 228.958Z" fill="#1F66B6"/>
<path d="M529.551 166.358C529.551 166.358 540.967 156.257 544.071 162.278L540.558 189.194C537.129 188.514 533.671 188.004 530.186 187.636C530.617 180.539 530.405 173.417 529.551 166.358Z" fill="#014898"/>
<path d="M498.082 25.416C498.161 25.6282 498.26 25.8322 498.378 26.0252L498.082 25.416Z" fill="#1F66B6"/>
<path d="M543.804 80.4109C546.852 82.2882 549.999 84 553.23 85.5391C550.605 65.7062 544.622 46.9783 532.373 35.9569C530.069 33.8649 527.519 32.062 524.781 30.5879C518.784 47.4175 528.634 71.2595 543.804 80.4109Z" fill="#014898"/>
<path d="M543.805 80.41C528.635 71.2586 518.785 47.4166 524.783 30.5586C522.56 29.3626 520.225 28.3898 517.812 27.6545C517.812 27.6545 537.116 9.12496 525.884 1.34764C514.651 -6.42968 507.68 24.0138 507.68 24.0138C507.68 24.0138 504.194 16.2365 500.13 19.3531C497.082 21.6763 497.618 24.2121 498.084 25.3454L498.38 25.9546C498.262 25.7616 498.163 25.5576 498.084 25.3454C496.137 21.5347 485.228 1.26265 475.915 6.92918C465.656 13.1482 490.026 31.607 490.026 31.607C490.026 31.607 483.902 36.0694 477.622 47.4874C467.547 65.9037 457.09 102.184 471.131 166.995C487.788 170.535 505.013 170.39 521.608 166.57C535.423 163.496 546.218 154.755 553.598 143.436C555.01 128.264 555.969 106.32 553.203 85.4816C549.983 83.96 546.846 82.2671 543.805 80.41Z" fill="#1F66B6"/>
<path d="M521.633 166.626C505.038 170.446 487.813 170.591 471.156 167.051C471.608 169.204 472.102 171.386 472.567 173.596C472.567 173.596 483.857 175.919 513.491 173.596C543.125 171.272 551.253 162.9 551.253 162.9C551.253 162.9 552.551 155.208 553.624 143.492C546.243 154.811 535.448 163.552 521.633 166.626Z" fill="#014898"/>
<path d="M506.438 62.9988C506.537 65.4354 507.327 67.3904 508.23 67.3762C509.133 67.3621 509.768 65.3646 509.641 62.928C509.514 60.4914 508.738 58.5364 507.849 58.5648C506.96 58.5931 506.311 60.5764 506.438 62.9988Z" fill="#221F1F"/>
<path d="M493.624 79.929C493.708 82.3514 494.513 84.3064 495.402 84.2922C496.291 84.2781 496.954 82.2806 496.813 79.844C496.672 77.4074 495.91 75.4524 495.021 75.4808C494.132 75.5091 493.483 77.4924 493.61 79.929" fill="#221F1F"/>
<path d="M521.521 75.4808C520.632 75.4808 519.983 77.4924 520.11 79.929C520.237 82.3656 520.999 84.3064 521.888 84.2922C522.777 84.2781 523.44 82.2806 523.299 79.844C523.158 77.4074 522.41 75.4524 521.521 75.4808Z" fill="#221F1F"/>
<path d="M497.336 97.0268C500.99 94.8674 505.1 93.6035 509.332 93.3377C513.564 93.0718 517.798 93.8115 521.692 95.4968C521.692 95.4968 508.385 87.2945 497.336 97.0268Z" fill="#014898"/>
<path d="M495.23 95.2148C495.23 95.2148 498.448 95.4982 498.222 99.7056C497.818 97.8862 496.751 96.2844 495.23 95.2148Z" fill="#014898"/>
<path d="M521.086 98.5713C521.49 96.7484 522.557 95.1423 524.077 94.0664C524.077 94.0664 520.902 94.3639 521.086 98.5713Z" fill="#014898"/>
<path d="M504.855 98.5705C507.979 97.4987 511.37 97.4987 514.494 98.5705C513.055 97.647 511.382 97.1562 509.675 97.1562C507.967 97.1563 506.294 97.647 504.855 98.5705Z" fill="#014898"/>
<path d="M475.93 6.98553C475.93 6.98553 485.808 -1.01845 498.395 26.0251C498.381 26.0251 488.376 7.15553 475.93 6.98553Z" fill="#014898"/>
<path d="M528.027 13.6433C530.638 8.85508 529.89 -1.38718 521.296 0.156954C512.702 1.70109 507.679 24.0839 507.679 24.0839C504.179 17.6807 501.738 17.4257 499.113 20.344C498.368 21.0647 497.89 22.0184 497.757 23.0481C497.623 24.0779 497.843 25.1226 498.379 26.0105C498.303 25.0467 498.518 24.0822 498.996 23.243C499.474 22.4039 500.194 21.7292 501.06 21.3073C506.352 20.8398 508.286 30.2604 508.286 30.2604C508.286 30.2604 513.93 4.30769 521.466 2.52273C529.001 0.737771 528.027 13.6433 528.027 13.6433Z" fill="#014898"/>
<path d="M218.45 219.902C217.45 219.902 216.65 219.602 216.05 219.002C215.55 218.402 215.3 217.602 215.3 216.602V194.102H167C166 194.102 165.2 193.802 164.6 193.202C164 192.602 163.7 191.802 163.7 190.802C163.7 190.202 163.8 189.652 164 189.152C164.3 188.652 164.65 188.052 165.05 187.352L214.85 114.452C215.35 113.752 215.9 113.252 216.5 112.952C217.1 112.552 217.8 112.352 218.6 112.352C219.4 112.352 220.1 112.652 220.7 113.252C221.3 113.752 221.6 114.552 221.6 115.652V188.252H235.85C236.95 188.252 237.75 188.502 238.25 189.002C238.85 189.502 239.15 190.202 239.15 191.102C239.15 192.102 238.85 192.852 238.25 193.352C237.75 193.852 236.95 194.102 235.85 194.102H221.6V216.602C221.6 217.602 221.35 218.402 220.85 219.002C220.35 219.602 219.55 219.902 218.45 219.902ZM215.3 188.252V120.152H218.3L170.3 190.052V188.252H215.3ZM285.441 220.202C273.741 220.202 264.841 215.602 258.741 206.402C252.741 197.202 249.741 183.802 249.741 166.202C249.741 154.302 251.091 144.352 253.791 136.352C256.491 128.352 260.491 122.302 265.791 118.202C271.091 114.102 277.641 112.052 285.441 112.052C297.241 112.052 306.141 116.602 312.141 125.702C318.141 134.802 321.141 148.252 321.141 166.052C321.141 177.852 319.791 187.802 317.091 195.902C314.391 203.902 310.391 209.952 305.091 214.052C299.791 218.152 293.241 220.202 285.441 220.202ZM285.441 214.052C295.241 214.052 302.491 210.152 307.191 202.352C311.991 194.452 314.391 182.352 314.391 166.052C314.391 149.652 312.041 137.602 307.341 129.902C302.641 122.102 295.341 118.202 285.441 118.202C275.641 118.202 268.341 122.102 263.541 129.902C258.841 137.702 256.491 149.752 256.491 166.052C256.491 182.352 258.841 194.452 263.541 202.352C268.341 210.152 275.641 214.052 285.441 214.052ZM389.333 219.902C388.333 219.902 387.533 219.602 386.933 219.002C386.433 218.402 386.183 217.602 386.183 216.602V194.102H337.883C336.883 194.102 336.083 193.802 335.483 193.202C334.883 192.602 334.583 191.802 334.583 190.802C334.583 190.202 334.683 189.652 334.883 189.152C335.183 188.652 335.533 188.052 335.933 187.352L385.733 114.452C386.233 113.752 386.783 113.252 387.383 112.952C387.983 112.552 388.683 112.352 389.483 112.352C390.283 112.352 390.983 112.652 391.583 113.252C392.183 113.752 392.483 114.552 392.483 115.652V188.252H406.733C407.833 188.252 408.633 188.502 409.133 189.002C409.733 189.502 410.033 190.202 410.033 191.102C410.033 192.102 409.733 192.852 409.133 193.352C408.633 193.852 407.833 194.102 406.733 194.102H392.483V216.602C392.483 217.602 392.233 218.402 391.733 219.002C391.233 219.602 390.433 219.902 389.333 219.902ZM386.183 188.252V120.152H389.183L341.183 190.052V188.252H386.183Z" fill="#FF0D1B"/>
<path d="M237.078 90.276C236.682 90.276 236.374 90.166 236.154 89.946C235.934 89.726 235.824 89.44 235.824 89.088C235.824 88.736 235.89 88.384 236.022 88.032L240.576 77.538V78.858L227.376 47.97C227.2 47.53 227.134 47.156 227.178 46.848C227.222 46.496 227.354 46.21 227.574 45.99C227.838 45.77 228.19 45.66 228.63 45.66C229.026 45.66 229.312 45.77 229.488 45.99C229.708 46.166 229.906 46.43 230.082 46.782L242.622 77.076H241.038L253.644 46.782C253.82 46.386 253.996 46.1 254.172 45.924C254.392 45.748 254.722 45.66 255.162 45.66C255.602 45.66 255.91 45.77 256.086 45.99C256.306 46.21 256.416 46.496 256.416 46.848C256.46 47.156 256.394 47.508 256.218 47.904L238.662 89.088C238.486 89.528 238.288 89.836 238.068 90.012C237.848 90.188 237.518 90.276 237.078 90.276ZM263.859 78.396C263.419 78.396 263.067 78.264 262.803 78C262.583 77.736 262.473 77.384 262.473 76.944V47.706C262.473 47.178 262.605 46.782 262.869 46.518C263.177 46.21 263.595 46.056 264.123 46.056H286.497C287.025 46.056 287.421 46.21 287.685 46.518C287.993 46.782 288.147 47.178 288.147 47.706V76.944C288.147 77.384 288.015 77.736 287.751 78C287.531 78.264 287.201 78.396 286.761 78.396C286.321 78.396 285.969 78.264 285.705 78C285.485 77.736 285.375 77.384 285.375 76.944V48.432H265.245V76.944C265.245 77.384 265.135 77.736 264.915 78C264.695 78.264 264.343 78.396 263.859 78.396ZM310.285 78.528C307.249 78.528 304.631 77.824 302.431 76.416C300.275 75.008 298.603 73.05 297.415 70.542C296.271 68.034 295.699 65.108 295.699 61.764C295.699 59.256 296.029 57.012 296.689 55.032C297.349 53.008 298.295 51.292 299.527 49.884C300.803 48.476 302.343 47.398 304.147 46.65C305.951 45.902 307.997 45.528 310.285 45.528C311.957 45.528 313.651 45.836 315.367 46.452C317.127 47.024 318.689 47.992 320.053 49.356C320.273 49.576 320.383 49.818 320.383 50.082C320.427 50.346 320.383 50.61 320.251 50.874C320.163 51.094 320.009 51.27 319.789 51.402C319.569 51.534 319.305 51.6 318.997 51.6C318.689 51.556 318.381 51.38 318.073 51.072C316.797 49.928 315.477 49.158 314.113 48.762C312.793 48.322 311.495 48.102 310.219 48.102C308.327 48.102 306.655 48.41 305.203 49.026C303.751 49.642 302.519 50.544 301.507 51.732C300.539 52.876 299.791 54.306 299.263 56.022C298.779 57.694 298.537 59.63 298.537 61.83C298.537 66.23 299.549 69.684 301.573 72.192C303.597 74.7 306.479 75.954 310.219 75.954C311.495 75.954 312.793 75.756 314.113 75.36C315.477 74.92 316.797 74.128 318.073 72.984C318.381 72.676 318.689 72.522 318.997 72.522C319.305 72.478 319.569 72.522 319.789 72.654C320.009 72.786 320.163 72.984 320.251 73.248C320.383 73.468 320.427 73.71 320.383 73.974C320.383 74.238 320.273 74.48 320.053 74.7C318.689 76.064 317.127 77.054 315.367 77.67C313.651 78.242 311.957 78.528 310.285 78.528ZM328.085 78.198C327.381 78.198 326.787 77.956 326.303 77.472C325.819 76.988 325.577 76.394 325.577 75.69C325.577 74.942 325.819 74.348 326.303 73.908C326.787 73.424 327.381 73.182 328.085 73.182C328.833 73.182 329.427 73.424 329.867 73.908C330.307 74.348 330.527 74.942 330.527 75.69C330.527 76.394 330.307 76.988 329.867 77.472C329.427 77.956 328.833 78.198 328.085 78.198ZM340.027 78.198C339.323 78.198 338.729 77.956 338.245 77.472C337.761 76.988 337.519 76.394 337.519 75.69C337.519 74.942 337.761 74.348 338.245 73.908C338.729 73.424 339.323 73.182 340.027 73.182C340.775 73.182 341.369 73.424 341.809 73.908C342.249 74.348 342.469 74.942 342.469 75.69C342.469 76.394 342.249 76.988 341.809 77.472C341.369 77.956 340.775 78.198 340.027 78.198ZM351.969 78.198C351.265 78.198 350.671 77.956 350.187 77.472C349.703 76.988 349.461 76.394 349.461 75.69C349.461 74.942 349.703 74.348 350.187 73.908C350.671 73.424 351.265 73.182 351.969 73.182C352.717 73.182 353.311 73.424 353.751 73.908C354.191 74.348 354.411 74.942 354.411 75.69C354.411 76.394 354.191 76.988 353.751 77.472C353.311 77.956 352.717 78.198 351.969 78.198Z" fill="#221F1F"/>
</svg>
