<svg width="453" height="325" viewBox="0 0 453 325" fill="none" xmlns="http://www.w3.org/2000/svg">
<path d="M452 109.177L449.247 103.681C449.565 99.3738 449.555 95.0482 449.218 90.742C448.984 87.8301 448.6 84.937 448.085 82.1094C448.095 81.9971 448.095 81.8847 448.095 81.7818C448.097 79.7949 447.489 77.8551 446.353 76.2244C445.218 74.5936 443.609 73.3503 441.745 72.6623H441.736C439.094 70.1812 436.463 67.7936 433.756 65.4529C427.322 59.8632 421.376 55.2661 416.028 51.3806C416.24 50.5883 416.362 49.775 416.393 48.9556C416.398 48.0001 416.256 47.0497 415.972 46.1374C418.716 39.7706 422.012 31.4845 422.012 28.3573C422.015 25.7839 420.995 23.3149 419.178 21.4926C417.36 19.6703 414.893 18.6438 412.319 18.6387C411.107 18.6352 409.905 18.864 408.779 19.3128C408.851 18.8982 408.892 18.4788 408.901 18.0582C408.904 16.7838 408.655 15.5214 408.169 14.3432C407.683 13.1651 406.97 12.0943 406.069 11.1922C405.169 10.2901 404.1 9.57434 402.922 9.08602C401.745 8.59769 400.483 8.34633 399.208 8.34633C397.933 8.34633 396.671 8.59769 395.494 9.08602C394.316 9.57434 393.247 10.2901 392.346 11.1922C391.446 12.0943 390.733 13.1651 390.247 14.3432C389.761 15.5214 389.512 16.7838 389.515 18.0582C389.515 21.5973 393.729 31.7373 396.605 38.2258C391.145 34.6585 386.518 31.7091 381.845 29.1157C380.377 27.5762 378.441 26.5655 376.338 26.2413C373.669 24.9399 370.878 23.7133 367.825 22.5149C369.773 17.6181 371.44 12.7963 371.44 10.5679C371.443 9.29353 371.194 8.03112 370.708 6.85295C370.222 5.67478 369.509 4.60399 368.609 3.70188C367.708 2.79977 366.639 2.08406 365.461 1.59574C364.284 1.10741 363.022 0.856048 361.747 0.856048C360.472 0.856048 359.21 1.10741 358.033 1.59574C356.855 2.08406 355.786 2.79977 354.886 3.70188C353.985 4.60399 353.272 5.67478 352.786 6.85295C352.3 8.03112 352.051 9.29353 352.054 10.5679C352.054 12.1783 352.916 15.1276 354.133 18.4889C350.134 19.4908 346.154 20.6142 342.239 21.8689C344.159 17.0376 345.779 12.2907 345.779 10.0998C345.783 8.82571 345.534 7.56348 345.049 6.38543C344.564 5.20737 343.851 4.13662 342.951 3.23453C342.051 2.33244 340.981 1.61672 339.804 1.12838C338.627 0.640042 337.365 0.388672 336.091 0.388672C334.817 0.388672 333.555 0.640042 332.378 1.12838C331.2 1.61672 330.131 2.33244 329.231 3.23453C328.331 4.13662 327.618 5.20737 327.133 6.38543C326.647 7.56348 326.399 8.82571 326.403 10.0998C326.403 12.8712 328.987 19.678 331.488 25.6234C328.351 26.8219 325.223 28.1139 322.151 29.4715C317.89 28.7131 313.591 28.1045 309.358 27.6645C302.147 26.9141 294.898 26.5984 287.649 26.7188L287.265 26.775C282.142 28.3011 277.235 29.8366 272.253 31.4658C263.178 34.4338 249.87 39.0403 227.187 48.3657C204.074 57.8597 192.47 62.6254 180.258 69.0107C178.816 69.7598 177.252 70.5744 175.575 71.4733C175.529 71.5013 175.482 71.5201 175.435 71.5482C173.019 72.8309 169.497 74.7409 165.498 77.0536C165.208 77.2126 164.918 77.3906 164.627 77.5592C164.075 77.8773 163.532 78.2051 162.989 78.5328C162.642 78.7389 162.296 78.9448 161.958 79.1508C155.89 82.8209 149.933 86.7066 144.155 90.77C143.331 91.3506 142.507 91.931 141.692 92.5209C141.448 92.6988 141.196 92.8766 140.952 93.064C131.721 99.7316 122.864 106.902 114.42 114.542C114.133 114.803 113.875 115.095 113.652 115.413C109.653 117.407 105.661 119.445 101.674 121.527C100.408 119.977 98.6929 118.857 96.7644 118.322C94.8358 117.787 92.7886 117.862 90.9045 118.537C89.0204 119.213 87.3919 120.455 86.2431 122.094C85.0943 123.732 84.4815 125.687 84.4892 127.688C84.5327 128.658 84.6931 129.62 84.9668 130.553C82.8876 131.704 80.8179 132.884 78.7575 134.064C81.511 127.678 84.8449 119.308 84.8449 116.162C84.8477 114.888 84.5991 113.625 84.1132 112.447C83.6273 111.269 82.9138 110.198 82.0135 109.296C81.1131 108.394 80.0436 107.678 78.8662 107.19C77.6888 106.702 76.4266 106.45 75.1519 106.45C73.8772 106.45 72.615 106.702 71.4376 107.19C70.2602 107.678 69.1908 108.394 68.2904 109.296C67.39 110.198 66.6765 111.269 66.1906 112.447C65.7048 113.625 65.4561 114.888 65.4589 116.162C65.4589 119.898 70.1603 131.002 73.0167 137.388C67.7909 140.449 62.6119 143.58 57.4797 146.779C57.4329 146.807 57.3954 146.835 57.3487 146.863C60.0739 140.515 63.3049 132.369 63.3049 129.27C63.3077 127.996 63.0591 126.733 62.5732 125.555C62.0873 124.377 61.3738 123.306 60.4734 122.404C59.5731 121.502 58.5036 120.786 57.3262 120.298C56.1488 119.81 54.8866 119.558 53.6119 119.558C52.3372 119.558 51.075 119.81 49.8976 120.298C48.7202 120.786 47.6507 121.502 46.7504 122.404C45.85 123.306 45.1365 124.377 44.6506 125.555C44.1648 126.733 43.9161 127.996 43.9189 129.27C43.9189 133.015 48.6484 144.176 51.4955 150.552C45.8763 154.128 40.2884 157.814 34.7316 161.609C37.3445 155.467 40.2103 148.052 40.2103 145.131C40.2131 143.856 39.9645 142.594 39.4786 141.416C38.9927 140.238 38.2792 139.167 37.3788 138.265C36.4785 137.363 35.409 136.647 34.2316 136.159C33.0542 135.67 31.792 135.419 30.5173 135.419C29.2426 135.419 27.9804 135.67 26.803 136.159C25.6256 136.647 24.5561 137.363 23.6558 138.265C22.7554 139.167 22.0419 140.238 21.556 141.416C21.0702 142.594 20.8215 143.856 20.8243 145.131C20.8243 148.81 25.3851 159.634 28.2509 166.066C24.5048 168.669 20.793 171.312 17.1156 173.996L16.9095 174.174C13.9882 177.403 11.42 180.934 9.24874 184.708C9.20191 184.792 9.14572 184.876 9.10835 184.96C7.33697 188.076 5.84217 191.34 4.64113 194.716L4.37891 194.838C4.37891 194.847 4.36954 194.866 4.36954 194.876V195.419C3.89191 196.514 3.48927 197.497 3.12389 198.499C3.11452 198.527 3.10516 198.546 3.09579 198.574C0.307381 206.101 -0.536563 214.21 0.642082 222.15C1.47879 226.429 2.76262 230.609 4.47247 234.621C7.80388 242.877 11.9217 250.794 16.769 258.262L17.0782 258.758C31.4725 281.482 36.0521 288.691 36.5203 289.281C44.7243 299.637 53.2091 310.348 67.8939 317.754C73.8837 320.765 80.2352 322.996 86.7929 324.392L86.9146 324.448L87.2331 324.457C87.8044 324.467 88.3663 324.476 88.9376 324.476C96.3953 324.479 103.822 323.513 111.03 321.602C115.501 320.417 119.868 318.866 124.085 316.967H125.19V316.396L127.588 315.104L128.646 314.514L128.272 313.391C127.204 310.179 127.663 306.331 128.693 302.67C128.834 304.854 129.609 306.949 130.922 308.7C133.432 311.977 137.637 313.559 142.778 313.559C147.411 313.439 151.983 312.468 156.264 310.694C161.541 308.585 166.511 305.78 171.043 302.352C181.71 294.375 189.08 284.094 190.269 275.527C190.794 271.735 190.063 268.411 188.144 265.912C186.993 264.429 185.489 263.257 183.77 262.503C186.541 262.846 189.128 264.07 191.15 265.996C193.866 268.73 194.418 272.241 194.821 274.816C194.915 275.433 194.98 276.023 195.027 276.557L195.186 278.711L197.518 277.465L364.753 183.06L365.194 182.798L365.418 182.226C365.559 181.758 365.699 181.299 365.849 180.85C366.255 183.036 367.305 185.051 368.865 186.636C370.061 187.761 371.47 188.635 373.009 189.206C374.549 189.777 376.187 190.033 377.827 189.96C385.179 189.96 394.535 185.466 402.636 177.367C414.698 165.298 418.772 150.477 411.907 143.605C411.567 143.262 411.2 142.946 410.811 142.659C412.032 142.963 413.166 143.543 414.127 144.354C415.438 145.477 416.047 147.06 416.281 149.981C416.307 150.317 416.424 150.639 416.62 150.913C416.815 151.188 417.082 151.404 417.392 151.537C417.701 151.671 418.041 151.718 418.375 151.673C418.709 151.628 419.024 151.493 419.287 151.282L432.764 140.646L432.904 140.524C440.597 132.64 447.035 123.621 451.991 113.784C452.348 113.069 452.534 112.281 452.536 111.482C452.538 110.683 452.354 109.894 452 109.177ZM441.511 82.7742H440.546V81.3791L442.429 79.2538H438.542V77.5592H444.929V78.9261L444.583 79.3193L442.869 81.2761C443.564 81.3568 444.211 81.6704 444.704 82.1656C444.887 82.3558 445.033 82.5779 445.135 82.821C445.282 83.1608 445.355 83.5277 445.351 83.8978C445.353 84.4149 445.206 84.9218 444.929 85.3584C444.796 85.5718 444.632 85.7643 444.442 85.9295V85.9389C444.202 86.1373 443.938 86.304 443.656 86.4351C442.998 86.7237 442.285 86.8612 441.567 86.8377C440.925 86.8378 440.286 86.7528 439.666 86.5849C439.1 86.4384 438.565 86.1944 438.083 85.8639L438.907 84.2442C439.271 84.5166 439.68 84.7226 440.115 84.8528C440.567 84.9948 441.037 85.0675 441.511 85.0681C441.951 85.0917 442.387 84.9842 442.766 84.7591C442.909 84.6667 443.027 84.539 443.107 84.3882C443.188 84.2374 443.228 84.0686 443.225 83.8978C443.225 83.1488 442.653 82.7742 441.511 82.7742ZM437.053 82.1656C437.483 82.6377 437.712 83.2594 437.69 83.8978C437.695 84.414 437.552 84.921 437.278 85.3584C436.967 85.8333 436.524 86.2075 436.004 86.4351C435.346 86.7227 434.633 86.8602 433.915 86.8376C433.273 86.8378 432.634 86.7528 432.014 86.5849C431.448 86.4402 430.912 86.1961 430.432 85.8639L431.256 84.2442C431.62 84.5166 432.029 84.7227 432.464 84.8528C432.915 84.9948 433.386 85.0675 433.859 85.0681C434.299 85.0917 434.736 84.9842 435.114 84.7591C435.258 84.6667 435.376 84.5391 435.456 84.3883C435.536 84.2374 435.577 84.0686 435.573 83.8978C435.573 83.1488 435.002 82.7743 433.859 82.7742H432.895V81.3791L434.777 79.2538H430.891V77.5592H437.278V78.9261L435.217 81.2762C435.912 81.3569 436.559 81.6704 437.053 82.1656ZM431.911 67.5689C433.653 69.0764 435.358 70.6025 437.062 72.1661C434.984 72.4574 433.057 73.4156 431.571 74.8965C430.084 76.3774 429.119 78.3008 428.821 80.3773C427.969 80.9671 427.107 81.5383 426.236 82.0999C421.363 85.2226 416.193 87.857 410.802 89.9649C405.47 82.2503 399.421 75.0559 392.737 68.4771C394.572 64.2826 396.876 58.7866 398.271 54.5078C400.894 62.5505 406.7 74.8532 406.7 74.8532C406.7 74.8532 412.628 62.2884 415.213 54.255C420.289 57.972 425.88 62.3445 431.911 67.5689ZM325.223 46.334L328.735 43.0102C329.036 42.7481 329.292 42.4381 329.493 42.0926C329.619 41.8595 329.687 41.5992 329.69 41.3342C329.699 41.174 329.671 41.0139 329.605 40.8672C329.54 40.7206 329.441 40.5917 329.315 40.4916C328.996 40.275 328.613 40.1727 328.229 40.2013C327.855 40.196 327.484 40.2727 327.142 40.426C326.82 40.5812 326.543 40.8166 326.337 41.1096L324.801 40.1172C325.17 39.5772 325.678 39.1469 326.271 38.8718C326.947 38.5623 327.683 38.4087 328.426 38.4224C329.036 38.4093 329.642 38.5241 330.205 38.7594C330.679 38.9584 331.09 39.282 331.394 39.6957C331.681 40.1174 331.828 40.6184 331.816 41.1281C331.819 41.6086 331.71 42.0833 331.497 42.5139C331.191 43.081 330.781 43.5859 330.289 44.0026L328.191 45.9876H332.115V47.7009H325.223V46.334ZM334.429 32.3553C334.532 32.5893 334.635 32.814 334.728 33.0294C334.391 32.9077 334.054 32.8047 333.717 32.6923C333.707 32.6923 333.707 32.6923 333.698 32.683C333.942 32.5706 334.185 32.4582 334.429 32.3553ZM337.266 44.0214C336.754 43.7761 336.184 43.6726 335.618 43.7217H333.286L333.754 38.5815H339.327V40.2762H335.515L335.375 42.0084H336.114C337.123 41.9308 338.128 42.2018 338.961 42.776C339.264 43.0247 339.506 43.34 339.666 43.6974C339.827 44.0547 339.903 44.4444 339.889 44.8359C339.896 45.3714 339.75 45.8978 339.467 46.3527C339.16 46.8356 338.717 47.2168 338.193 47.4481C337.532 47.7453 336.811 47.8863 336.086 47.8601C335.447 47.8602 334.811 47.7752 334.194 47.6074C333.628 47.4626 333.093 47.2185 332.612 46.8865L333.445 45.2667C333.807 45.5372 334.212 45.7431 334.644 45.8752C335.096 46.0173 335.566 46.0899 336.039 46.0905C336.478 46.1162 336.913 46.0049 337.285 45.7722C337.431 45.6802 337.551 45.5512 337.631 45.3983C337.712 45.2455 337.751 45.0741 337.744 44.9014C337.753 44.7251 337.713 44.5497 337.628 44.3946C337.544 44.2394 337.419 44.1103 337.266 44.0214ZM342.473 42.8042C342.475 41.2771 342.113 39.7716 341.415 38.413C351.556 42.3992 361.221 47.5022 370.232 53.6276C370.7 53.946 371.159 54.2643 371.618 54.592C373.407 58.6742 374.858 61.7451 374.858 61.7451C374.858 61.7451 375.523 60.3313 376.516 58.1498C379.719 60.5654 382.81 63.1152 385.788 65.7993C387.914 70.7897 389.843 74.8531 389.843 74.8531C389.843 74.8531 390.517 73.4206 391.519 71.211C398.009 77.6965 403.879 84.7744 409.051 92.3524L365.774 81.5384C364.809 81.2967 363.94 80.7677 363.283 80.0215C355.606 71.4301 347.223 63.497 338.222 56.3054C340.432 50.9124 342.473 45.2574 342.473 42.8042ZM371.243 33.535C370.926 33.315 370.543 33.2094 370.157 33.2354C369.782 33.2331 369.411 33.313 369.071 33.4694C368.746 33.6215 368.468 33.8575 368.265 34.1529L366.729 33.1605C367.098 32.6205 367.606 32.1903 368.2 31.9153C368.875 31.6047 369.611 31.4511 370.354 31.4657C370.964 31.4536 371.57 31.5684 372.133 31.8028C372.607 31.9963 373.017 32.3211 373.313 32.7391C373.598 33.158 373.746 33.6555 373.734 34.1622C373.738 34.6446 373.632 35.1215 373.426 35.5573C373.119 36.1244 372.709 36.6293 372.217 37.0461L370.12 39.0215H374.044V40.7444H367.141V39.3774L370.663 36.0536C370.962 35.7894 371.218 35.4797 371.421 35.136C371.546 34.9025 371.614 34.6424 371.618 34.3776C371.626 34.2177 371.596 34.0582 371.531 33.9119C371.466 33.7656 371.367 33.6365 371.243 33.535ZM384.692 49.948H383.727V48.553L385.61 46.4277H381.723V44.7329H388.11V46.0999L386.05 48.45C386.747 48.5226 387.396 48.8374 387.885 49.3394C388.317 49.8077 388.549 50.4258 388.532 51.0622C388.535 51.5825 388.389 52.0927 388.11 52.5321C387.799 53.0072 387.357 53.3813 386.836 53.6089C386.179 53.8975 385.465 54.035 384.748 54.0114C384.106 54.0116 383.467 53.9266 382.847 53.7587C382.281 53.6121 381.746 53.3681 381.264 53.0378L382.088 51.418C382.454 51.6869 382.863 51.8926 383.296 52.0266C383.748 52.1686 384.219 52.2412 384.692 52.2419C385.132 52.2656 385.568 52.158 385.947 51.9329C386.093 51.8409 386.212 51.7119 386.293 51.5591C386.374 51.4062 386.412 51.2349 386.406 51.0622C386.406 50.3132 385.835 49.948 384.692 49.948ZM383.446 60.0693C381.564 58.4963 379.644 56.9764 377.687 55.5096C378.473 53.7306 379.344 51.6988 380.197 49.6297C380.44 51.9142 381.807 55.9121 383.446 60.0693ZM389.506 49.2926C389.483 48.4198 389.656 47.5529 390.011 46.7552C390.307 46.0926 390.788 45.5299 391.397 45.1355C392.006 44.7679 392.704 44.5737 393.416 44.5737C394.127 44.5737 394.825 44.7679 395.434 45.1355C396.043 45.5321 396.527 46.0939 396.829 46.7552C396.948 47.0143 397.042 47.2839 397.11 47.5605C397.258 48.1259 397.33 48.7083 397.326 49.2926C397.33 49.7357 397.289 50.178 397.204 50.6128V50.6315C397.129 51.0448 397.003 51.4473 396.829 51.8299C396.527 52.4912 396.043 53.053 395.434 53.4498C394.825 53.8172 394.127 54.0114 393.416 54.0114C392.704 54.0114 392.006 53.8172 391.397 53.4498C390.788 53.0552 390.307 52.4925 390.011 51.8299C389.656 51.0323 389.483 50.1655 389.506 49.2926ZM403.422 49.9481H402.458V48.553L404.2 46.5868L404.34 46.4277H400.454V44.7329H406.841V46.0999L405.595 47.5231L404.78 48.45C405.477 48.5226 406.127 48.8374 406.616 49.3394C407.045 49.8088 407.273 50.4269 407.253 51.0622C407.259 51.5816 407.116 52.0919 406.841 52.5322C406.53 53.0072 406.087 53.3814 405.567 53.6089C404.909 53.8966 404.196 54.0341 403.478 54.0115C402.836 54.0116 402.197 53.9266 401.577 53.7587C401.011 53.614 400.475 53.3699 399.995 53.0378L400.819 51.418C401.182 51.685 401.587 51.8906 402.018 52.0266C402.472 52.1679 402.946 52.2405 403.422 52.2419C403.862 52.2656 404.299 52.158 404.677 51.9329C404.822 51.8394 404.94 51.7101 405.021 51.5576C405.101 51.4051 405.141 51.2345 405.136 51.0622C405.136 50.3132 404.565 49.9481 403.422 49.9481ZM400.632 40.8661C401.484 38.9748 402.636 36.4094 403.806 33.6379C404.35 35.3607 405.061 37.2989 405.829 39.2743C404.078 39.4273 402.403 40.059 400.987 41.1002C400.931 41.0627 400.884 41.0347 400.828 40.9972C400.763 40.9503 400.697 40.9128 400.632 40.8661ZM412.46 25.408C412.766 24.9445 413.198 24.5776 413.705 24.35C414.253 24.0934 414.852 23.9653 415.457 23.9755C416.011 23.9458 416.565 24.0349 417.082 24.2367C417.599 24.4386 418.066 24.7485 418.454 25.1459C419.232 26.0825 419.621 27.2825 419.54 28.4978C419.565 29.418 419.365 30.3305 418.959 31.1568C418.594 31.8697 418.023 32.4567 417.32 32.8421C416.57 33.2355 415.732 33.432 414.885 33.4131C414.416 33.4137 413.947 33.3604 413.49 33.254C413.088 33.1641 412.705 33.0057 412.357 32.7859L413.134 31.2317C413.644 31.5575 414.243 31.7178 414.848 31.6905C415.185 31.7084 415.521 31.657 415.837 31.5394C416.153 31.4218 416.441 31.2406 416.684 31.007C417.167 30.4636 417.428 29.7583 417.414 29.0314C417.112 29.3155 416.755 29.5351 416.366 29.6768C415.976 29.8185 415.562 29.8792 415.148 29.8553C414.596 29.8618 414.051 29.74 413.555 29.4995C413.092 29.282 412.699 28.938 412.422 28.507C412.136 28.0606 411.99 27.5391 412.001 27.0091C411.987 26.4412 412.148 25.8827 412.46 25.408ZM411.757 53.8524H409.641V46.4277H407.815V44.7329H411.757V53.8524ZM407.683 23.9755C408.294 23.9615 408.9 24.0764 409.463 24.3126C409.941 24.5034 410.355 24.8285 410.652 25.2488C410.938 25.6677 411.085 26.1653 411.074 26.672C411.077 27.1544 410.972 27.6313 410.765 28.0671C410.454 28.6342 410.042 29.139 409.547 29.5558L407.449 31.5313H411.373V33.2541H404.481V31.8871L404.546 31.8309L404.556 31.8215L408.002 28.5633C408.302 28.3019 408.555 27.9916 408.751 27.6457C408.876 27.4122 408.944 27.1521 408.948 26.8873C408.957 26.7281 408.929 26.5689 408.865 26.4226C408.802 26.2763 408.705 26.1469 408.583 26.0447C408.261 25.8261 407.875 25.7207 407.487 25.7451C407.285 25.7473 407.085 25.7693 406.888 25.8107C406.725 25.8554 406.565 25.9117 406.41 25.9791C406.085 26.1312 405.807 26.3672 405.604 26.6626L404.059 25.6702C404.432 25.1298 404.943 24.6997 405.539 24.4249C406.156 24.1326 406.832 23.9822 407.515 23.9848C407.571 23.977 407.627 23.9739 407.683 23.9755ZM399.292 19.0507C399.551 18.6682 399.906 18.3612 400.322 18.1612C399.993 17.9743 399.72 17.7013 399.534 17.3715C399.347 17.0416 399.254 16.6674 399.264 16.2886C399.255 15.7909 399.409 15.304 399.704 14.9029C400.027 14.4942 400.454 14.1803 400.941 13.9947C402.127 13.5703 403.425 13.5703 404.612 13.9947C405.104 14.1752 405.535 14.4899 405.857 14.9029C406.159 15.301 406.318 15.7893 406.307 16.2886C406.313 16.6694 406.216 17.0446 406.026 17.3747C405.835 17.7028 405.56 17.9742 405.23 18.1612C405.652 18.3557 406.012 18.6637 406.269 19.0507C406.513 19.4264 406.637 19.867 406.625 20.3146C406.627 20.374 406.624 20.4335 406.616 20.4925C406.593 20.9633 406.43 21.4166 406.148 21.7939C405.791 22.2345 405.322 22.5708 404.79 22.7677C404.626 22.836 404.457 22.8892 404.284 22.9268C403.789 23.0593 403.279 23.1223 402.767 23.114C402.08 23.1285 401.396 23.0109 400.753 22.7677C400.227 22.5708 399.764 22.2341 399.414 21.794C399.095 21.3678 398.926 20.8471 398.936 20.3146C398.929 19.8676 399.053 19.4283 399.292 19.0507ZM391.22 22.955V21.588L394.741 18.2642C395.04 18 395.296 17.6903 395.499 17.3466C395.617 17.1109 395.681 16.8518 395.687 16.5882C395.696 16.4289 395.668 16.2698 395.604 16.1235C395.541 15.9772 395.444 15.8477 395.321 15.7456C395 15.5257 394.614 15.4201 394.226 15.4459C393.854 15.4437 393.486 15.5236 393.149 15.68C392.824 15.8321 392.546 16.068 392.343 16.3635L390.798 15.371C391.171 14.8307 391.682 14.4006 392.278 14.1258C392.949 13.8153 393.683 13.6616 394.422 13.6763C395.033 13.6623 395.639 13.7771 396.202 14.0133C396.68 14.2041 397.093 14.5293 397.391 14.9496C397.677 15.3685 397.824 15.8661 397.813 16.3728C397.816 16.8551 397.71 17.332 397.504 17.7678C397.193 18.335 396.78 18.8397 396.286 19.2566L394.188 21.2321H398.112V22.955H391.22ZM384.327 33.7878C388.71 36.4 393.28 39.3962 398.758 42.9915C398.824 43.0382 398.89 43.0757 398.955 43.1225L398.871 43.2348C398.648 43.5286 398.448 43.8384 398.271 44.1618C397.544 42.872 396.531 41.7662 395.309 40.9296C394.088 40.093 392.69 39.5479 391.224 39.3363C389.759 39.1246 388.264 39.2521 386.856 39.7089C385.447 40.1656 384.162 40.9395 383.1 41.9709C383.858 40.0047 384.346 37.9449 384.551 35.8476C384.553 35.1548 384.478 34.4639 384.327 33.7878ZM382.032 31.625V32.9919L378.642 40.7444H376.347L379.616 33.3477H376.591V34.827H374.718V31.625H382.032ZM371.056 26.8967C369.306 27.6491 367.815 28.8981 366.768 30.4891C365.721 32.0801 365.164 33.9431 365.165 35.8476C365.165 38.3849 367.329 44.2929 369.604 49.8356C359.466 43.1958 348.552 37.8221 337.107 33.8345C337.51 32.945 338.016 31.8309 338.577 30.5575C342.999 28.7255 347.509 27.1162 352.092 25.7357C353.543 25.305 355.004 24.8962 356.474 24.5091C359.031 30.7168 361.747 36.4655 361.747 36.4655C361.747 36.4655 364.285 31.0818 366.767 25.1178C368.256 25.6982 369.679 26.2882 371.056 26.8967ZM362.253 8.44253C362.618 7.72971 363.189 7.14271 363.892 6.75717C364.64 6.36704 365.474 6.17069 366.317 6.18608C366.79 6.18602 367.261 6.23942 367.722 6.34525C368.125 6.44112 368.51 6.59906 368.865 6.81339L368.078 8.36754C367.57 8.04415 366.975 7.88404 366.374 7.90876C366.036 7.89148 365.699 7.94227 365.382 8.05811C365.065 8.17395 364.775 8.35246 364.529 8.58297C364.047 9.12346 363.786 9.82533 363.798 10.5492C364.101 10.2709 364.457 10.0563 364.845 9.91798C365.233 9.77968 365.644 9.72051 366.055 9.74397C366.606 9.73847 367.151 9.86023 367.647 10.0998C368.109 10.3199 368.501 10.6634 368.78 11.0923C369.066 11.5388 369.213 12.0602 369.202 12.5902C369.215 13.1581 369.055 13.7166 368.743 14.1913C368.436 14.6549 368.004 15.0218 367.497 15.2493C366.95 15.5059 366.351 15.634 365.746 15.6237C365.192 15.6543 364.637 15.5657 364.12 15.3638C363.603 15.1619 363.136 14.8514 362.749 14.4534C361.973 13.5152 361.585 12.3164 361.663 11.1016C361.637 10.1801 361.839 9.26652 362.253 8.44253ZM353.918 15.4647V14.0977L357.439 10.7739C357.738 10.5096 357.994 10.2 358.198 9.85632C358.323 9.62274 358.39 9.36273 358.394 9.09787C358.404 8.9377 358.375 8.77755 358.31 8.63092C358.245 8.48429 358.145 8.35547 358.02 8.25531C357.702 8.03532 357.319 7.92966 356.933 7.95563C356.559 7.9534 356.188 8.0333 355.847 8.18971C355.522 8.34178 355.244 8.57773 355.042 8.87319L353.506 7.88076C353.875 7.34075 354.383 6.91048 354.976 6.6355C355.651 6.32501 356.387 6.17133 357.13 6.18599C357.74 6.17385 358.346 6.28863 358.909 6.52305C359.384 6.71656 359.793 7.04137 360.089 7.45934C360.382 7.87532 360.533 8.37421 360.52 8.88249C360.525 9.36608 360.416 9.84402 360.202 10.2776C359.895 10.8448 359.486 11.3497 358.994 11.7664L356.896 13.7419H360.82V15.4647H353.918ZM355.07 21.148C355.088 21.1573 355.116 21.1573 355.135 21.1666C355.341 21.691 355.557 22.2246 355.763 22.7584C354.348 23.1328 352.934 23.5261 351.548 23.9474C347.531 25.1552 343.563 26.5409 339.645 28.1045C340.048 27.1869 340.45 26.2319 340.862 25.2582C345.508 23.7228 350.256 22.3464 355.07 21.148ZM335.515 11.6633L339.814 5.87711H342.033L338.044 11.3637H340.497V9.6597H342.492V11.3637H343.972V13.0865H342.492V15.0059H340.432V13.0865H335.515V11.6633ZM327.976 15.0059V13.6389L331.497 10.3151C331.799 10.0499 332.056 9.7367 332.256 9.38813C332.382 9.155 332.45 8.89471 332.453 8.62968C332.462 8.4695 332.433 8.30934 332.368 8.1627C332.303 8.01607 332.203 7.88726 332.078 7.78712C331.759 7.57053 331.376 7.46823 330.992 7.49688C330.617 7.4916 330.247 7.5683 329.905 7.72159C329.583 7.87673 329.305 8.11208 329.1 8.40508L327.564 7.42198C327.93 6.8797 328.439 6.44888 329.034 6.17688C329.709 5.86734 330.446 5.71371 331.188 5.72737C331.798 5.71141 332.404 5.82303 332.968 6.05507C333.441 6.25414 333.852 6.57767 334.157 6.99135C334.444 7.41309 334.591 7.91406 334.578 8.42387C334.582 8.90731 334.473 9.38498 334.26 9.81893C333.95 10.3812 333.541 10.8825 333.052 11.2982L330.954 13.283H334.878V15.0059H327.976ZM332.593 28.2169C332.968 29.0689 333.324 29.8927 333.661 30.6512C332.79 31.0445 331.928 31.4471 331.066 31.859C329.606 31.4096 328.135 30.9882 326.655 30.5949C328.622 29.7617 330.608 28.9658 332.593 28.2169ZM307.213 30.4546C312.111 30.904 317.065 31.522 321.917 32.2897C321.964 32.2991 322.001 32.2991 322.048 32.3084C322.057 32.3084 322.076 32.3178 322.085 32.3178C324.267 32.8422 326.44 33.4226 328.594 34.0406C326.944 34.8352 325.552 36.0792 324.578 37.6295C323.604 39.1797 323.087 40.9734 323.087 42.8042C323.132 43.7519 323.286 44.6913 323.546 45.6037C314.396 39.5339 304.776 34.2051 294.776 29.6681C298.925 29.818 303.093 30.0801 307.213 30.4546ZM181.56 71.5013C193.66 65.172 205.216 60.4251 228.264 50.9592C250.853 41.6713 264.105 37.0929 273.124 34.1341C278.022 32.5331 282.854 31.0257 287.883 29.5277C288.679 29.509 289.494 29.509 290.3 29.509C290.35 29.9129 290.506 30.2965 290.75 30.6217C290.995 30.947 291.321 31.2025 291.695 31.3628C303.304 36.4924 314.409 42.6925 324.867 49.8825C327.667 57.869 332.78 68.7018 332.78 68.7018C332.78 68.7018 334.869 64.2826 337.098 59.0113C345.739 65.9683 353.795 73.6215 361.185 81.894C362.218 83.0602 363.579 83.8861 365.09 84.2628L408.536 95.1238C408.756 95.1794 408.983 95.2077 409.21 95.208C409.652 95.2076 410.088 95.1001 410.479 94.8947C410.871 94.6892 411.206 94.3919 411.458 94.0282C411.706 93.6781 411.867 93.2736 411.928 92.8485C411.988 92.4234 411.946 91.9901 411.804 91.5847V91.5753C417.196 89.452 422.369 86.8086 427.248 83.6824C427.763 83.3547 428.278 83.0083 428.793 82.6712C429.252 86.2104 432.127 93.4385 434.609 99.2153L431.968 101.35C431.486 98.997 430.147 96.9069 428.21 95.4854C426.273 94.0639 423.878 93.4124 421.488 93.6574C419.098 93.9024 416.884 95.0264 415.276 96.8113C413.669 98.5962 412.782 100.915 412.788 103.316C412.788 105.386 414.22 109.711 416 114.243L414.024 115.834C410.353 118.166 406.666 120.494 402.963 122.819C402.972 122.115 402.937 121.412 402.86 120.712C402.224 115.973 399.951 111.605 396.436 108.363C396.167 108.098 395.879 107.854 395.574 107.633C388.7 102.67 378.202 98.12 370.906 95.1332C361.213 91.1633 358.329 90.1803 354.583 90.3862C350.687 90.5922 313.975 104.496 311.034 106.453C309.517 107.464 309.77 110.938 309.779 110.975C310.622 118.624 311.221 126.517 311.549 134.429C311.708 138.184 311.802 141.966 311.83 145.749C310.94 144.882 309.887 144.2 308.73 143.745C308.768 141.554 308.771 139.366 308.74 137.182C308.622 128.769 307.993 120.37 306.857 112.033L306.801 111.715L306.586 111.499C306.469 111.371 306.36 111.237 306.258 111.097C305.668 110.329 304.441 108.709 302.727 109.449C285.541 116.875 269.261 126.242 254.206 137.369C253.253 138.075 252.471 138.987 251.921 140.037C246.152 150.87 240.102 161.731 233.949 172.311C225.052 187.591 215.621 202.834 205.9 217.627C204.397 216.729 202.678 216.256 200.927 216.26C200.457 216.261 199.988 216.296 199.522 216.363C199.813 215.699 200.103 215.006 200.412 214.294C201.485 214.041 202.44 213.43 203.119 212.562C209.131 204.941 214.966 197.02 220.463 189.024C230.493 174.418 239.64 159.227 247.856 143.53C248.489 142.321 248.637 140.917 248.272 139.602C247.907 138.288 247.055 137.161 245.89 136.451C235.142 129.919 224.992 122.453 215.556 114.14C201.76 101.986 189.585 88.1091 179.331 72.8496C179.302 72.802 179.267 72.7579 179.228 72.7185C180.033 72.2971 180.811 71.8852 181.56 71.5013ZM426.714 101.004C426.391 100.789 426.005 100.686 425.618 100.713C425.247 100.708 424.879 100.785 424.541 100.938C424.218 101.093 423.941 101.329 423.736 101.622L422.19 100.629C422.563 100.089 423.074 99.6588 423.67 99.3839C424.342 99.0735 425.075 98.9198 425.815 98.9345C426.425 98.9205 427.031 99.0353 427.594 99.2715C428.071 99.4655 428.483 99.79 428.783 100.208C429.07 100.63 429.218 101.131 429.205 101.64C429.207 102.12 429.102 102.593 428.896 103.026C428.585 103.593 428.173 104.098 427.678 104.515L425.581 106.5H429.505V108.213H422.612V106.846L426.133 103.522C426.435 103.263 426.689 102.952 426.882 102.605C427.008 102.372 427.076 102.111 427.079 101.846C427.088 101.687 427.06 101.528 426.996 101.382C426.933 101.235 426.836 101.106 426.714 101.004ZM417.938 104.309H416.983V102.914L418.856 100.788H414.97V99.0937H421.357V100.461L419.296 102.811C419.994 102.892 420.644 103.205 421.141 103.7C421.568 104.175 421.796 104.795 421.778 105.432C421.78 105.95 421.634 106.456 421.357 106.893C421.049 107.368 420.61 107.742 420.092 107.97C419.431 108.257 418.715 108.395 417.995 108.372C417.355 108.373 416.719 108.288 416.103 108.119C415.534 107.975 414.995 107.731 414.511 107.399L415.335 105.779C415.699 106.051 416.108 106.257 416.543 106.387C416.995 106.528 417.465 106.601 417.938 106.603C418.378 106.628 418.815 106.52 419.193 106.294C419.339 106.203 419.457 106.075 419.538 105.924C419.618 105.773 419.658 105.604 419.652 105.432C419.652 104.683 419.081 104.309 417.938 104.309ZM317.908 174.774C332.003 167.077 346.004 159.166 359.79 151.114C373.51 143.099 387.258 134.804 400.828 126.349L400.463 130.309C400.369 131.423 399.961 132.488 399.286 133.38C398.612 134.271 397.698 134.953 396.651 135.347C394.128 136.303 391.671 137.429 389.3 138.717C381.907 142.747 375.426 148.258 370.26 154.906C367.421 158.8 364.891 162.911 362.693 167.199C361.127 170.275 359.733 173.435 358.516 176.665L315.099 200.877C315.155 199.651 315.22 198.415 315.295 197.179C315.455 194.567 315.642 191.936 315.867 189.305C317.534 184.988 318.854 180.953 318.854 178.968C318.857 177.517 318.534 176.083 317.908 174.774ZM358.844 149.494C345.171 157.48 331.273 165.326 317.281 172.967C316.675 169.466 315.366 166.125 313.432 163.145C313.497 161.488 313.553 159.83 313.6 158.173V158.164C314.245 156.422 314.654 154.602 314.818 152.752C314.822 151.188 314.446 149.645 313.722 148.258C313.713 143.614 313.613 138.976 313.422 134.345C313.095 126.396 312.486 118.456 311.634 110.769C311.546 109.829 311.697 108.882 312.074 108.016C314.593 106.331 350.949 92.4554 354.686 92.2494C357.87 92.0809 360.192 92.7738 370.194 96.8652C377.406 99.8239 387.764 104.309 394.469 109.149C394.706 109.318 394.929 109.505 395.134 109.711C398.333 112.652 400.406 116.615 400.997 120.918C401.112 121.951 401.125 122.992 401.034 124.027C387.089 132.716 372.957 141.255 358.844 149.494ZM308.515 183.865H301.622V182.498L304.244 180.017L305.134 179.174C305.436 178.912 305.692 178.602 305.893 178.257C306.019 178.023 306.086 177.763 306.089 177.498C306.098 177.291 306.046 177.086 305.94 176.908V176.899C305.877 176.807 305.802 176.725 305.715 176.655C305.396 176.439 305.013 176.337 304.628 176.365C304.446 176.366 304.265 176.382 304.085 176.412C303.901 176.451 303.722 176.511 303.551 176.59C303.226 176.745 302.946 176.98 302.737 177.274L301.201 176.281C301.572 175.743 302.079 175.313 302.671 175.036C302.891 174.931 303.12 174.846 303.355 174.783C303.833 174.648 304.328 174.582 304.825 174.586C305.435 174.573 306.041 174.688 306.605 174.923C306.67 174.949 306.732 174.98 306.792 175.017C307.194 175.205 307.54 175.496 307.794 175.86C308.079 176.279 308.227 176.776 308.215 177.283C308.213 177.765 308.108 178.24 307.906 178.678C307.593 179.243 307.181 179.747 306.689 180.166L305.069 181.702L304.591 182.152H308.515V183.865ZM308.908 204.332L309.601 203.939C310.332 202.347 311.905 198.902 313.553 195.007C313.507 195.69 313.46 196.383 313.422 197.067C313.329 198.705 313.245 200.334 313.179 201.945L309.601 203.939C309.32 204.529 309.161 204.866 309.161 204.866C309.161 204.866 309.077 204.679 308.908 204.332L306.736 205.54C307.016 204.126 307.279 202.712 307.522 201.298C308.14 202.675 308.637 203.742 308.908 204.332ZM300.049 182.254C295.31 184.782 290.562 187.279 285.804 189.745L217.447 228.132C214.619 229.705 211.775 231.272 208.916 232.833C209.793 230.633 210.367 228.324 210.62 225.97C210.623 224.607 210.337 223.26 209.782 222.016C209.227 220.772 208.414 219.659 207.399 218.751C217.166 203.901 226.635 188.602 235.569 173.247C241.731 162.649 247.791 151.769 253.569 140.917C253.99 140.112 254.589 139.414 255.32 138.876C270.256 127.825 286.415 118.529 303.477 111.172C303.804 111.022 304.301 111.621 304.769 112.239C304.872 112.361 304.956 112.473 305.05 112.586C306.142 120.751 306.748 128.973 306.867 137.21C306.895 139.204 306.892 141.201 306.857 143.202C306.286 143.097 305.706 143.043 305.125 143.043C304.834 143.043 304.544 143.052 304.263 143.08C304.474 135.734 304.211 128.381 303.476 121.068C303.416 120.474 303.216 119.902 302.894 119.399C302.571 118.896 302.134 118.476 301.619 118.173C301.103 117.87 300.524 117.693 299.927 117.656C299.331 117.619 298.734 117.723 298.185 117.96C283.015 124.502 268.871 133.203 256.191 143.792C255.845 144.081 255.553 144.43 255.33 144.822L220.603 205.362C220.311 205.873 220.141 206.444 220.107 207.031C220.073 207.619 220.175 208.206 220.405 208.747C220.635 209.288 220.988 209.769 221.435 210.152C221.882 210.534 222.412 210.808 222.982 210.952L226.466 211.822C226.769 211.897 227.081 211.934 227.393 211.935C228.043 211.933 228.681 211.766 229.248 211.448L299.543 172.199C300.37 171.745 300.996 170.996 301.295 170.101C301.604 170.832 301.913 171.534 302.203 172.208C300.445 174.019 299.464 176.445 299.468 178.968C299.529 180.083 299.724 181.186 300.049 182.254ZM199.822 242.542V240.847H203.755V249.967H201.648V242.542H199.822ZM205.216 255.893C205.479 257.813 205.778 259.741 206.125 261.651L201.826 264.048C202.922 261.567 204.139 258.693 205.216 255.893ZM204.486 231.026C204.404 231.029 204.323 231.023 204.242 231.007C203.611 230.998 202.995 230.813 202.463 230.473C201.854 230.075 201.373 229.509 201.077 228.844C200.743 228.041 200.571 227.181 200.571 226.311C200.571 225.442 200.743 224.581 201.077 223.779C201.161 223.61 201.246 223.442 201.339 223.292C201.622 222.833 202.006 222.445 202.463 222.159C202.97 221.839 203.55 221.652 204.149 221.616L204.711 221.288L204.692 221.616C205.336 221.628 205.964 221.816 206.509 222.159C206.518 222.168 206.528 222.168 206.537 222.178C207.137 222.567 207.609 223.124 207.895 223.779C208.229 224.581 208.401 225.442 208.401 226.311C208.401 227.181 208.229 228.041 207.895 228.844C207.599 229.509 207.118 230.075 206.509 230.473C206.389 230.548 206.264 230.614 206.134 230.67C205.62 230.914 205.055 231.036 204.486 231.026ZM297.595 157.649V156.282L300.864 153.202V153.192L301.116 152.958C301.418 152.696 301.674 152.386 301.875 152.041C301.998 151.807 302.063 151.547 302.062 151.282C302.072 151.123 302.043 150.964 301.98 150.817C301.916 150.671 301.82 150.542 301.697 150.439C301.521 150.309 301.315 150.225 301.098 150.196C300.935 150.16 300.768 150.144 300.601 150.149C300.23 150.144 299.862 150.221 299.524 150.374C299.202 150.529 298.925 150.765 298.719 151.058L297.174 150.065C297.546 149.525 298.057 149.095 298.653 148.82C299.325 148.51 300.058 148.357 300.798 148.37C300.938 148.37 301.088 148.38 301.219 148.389C301.687 148.416 302.146 148.524 302.577 148.707C303.056 148.898 303.469 149.223 303.767 149.644C303.834 149.73 303.891 149.825 303.935 149.925C304.108 150.28 304.194 150.672 304.188 151.067C304.192 151.549 304.086 152.026 303.879 152.462C303.833 152.559 303.78 152.653 303.72 152.743C303.422 153.19 303.066 153.597 302.662 153.951L300.592 155.907V155.936H304.488V157.649L297.595 157.649ZM299.318 165.383C299.122 166.618 298.906 167.845 298.672 169.072C298.645 169.215 298.586 169.351 298.5 169.469C298.414 169.587 298.304 169.685 298.176 169.755L227.88 208.995C227.659 209.121 227.398 209.158 227.15 209.098L223.666 208.227C223.516 208.189 223.378 208.117 223.261 208.016C223.144 207.915 223.052 207.789 222.992 207.647C222.932 207.504 222.905 207.351 222.913 207.197C222.921 207.042 222.964 206.892 223.038 206.757L257.774 146.226C257.83 146.119 257.906 146.023 257.999 145.945C262.646 142.067 267.498 138.442 272.534 135.084C276.748 132.276 281.094 129.654 285.57 127.22C290.047 124.785 294.636 122.548 299.3 120.535C299.425 120.487 299.558 120.462 299.693 120.46C299.87 120.461 300.043 120.506 300.199 120.591C300.332 120.671 300.445 120.781 300.528 120.913C300.611 121.045 300.662 121.194 300.676 121.349C301.43 128.798 301.683 136.29 301.435 143.773C299.657 144.507 298.138 145.753 297.069 147.351C296.001 148.95 295.431 150.829 295.432 152.752C295.432 155.074 297.258 160.261 299.318 165.383ZM305.284 157.649V156.282L306.324 155.299L308.337 153.398L308.805 152.958C309.107 152.696 309.363 152.386 309.564 152.041C309.69 151.807 309.758 151.547 309.761 151.282C309.768 151.122 309.738 150.963 309.673 150.816C309.608 150.67 309.51 150.541 309.386 150.439C309.133 150.255 308.828 150.157 308.515 150.159C308.443 150.151 308.372 150.148 308.3 150.149C307.925 150.144 307.555 150.221 307.213 150.374C306.987 150.481 306.783 150.63 306.614 150.814C306.538 150.889 306.469 150.97 306.408 151.058L304.872 150.065C305.241 149.525 305.749 149.095 306.342 148.82C306.457 148.763 306.576 148.716 306.698 148.679C307.273 148.466 307.883 148.361 308.496 148.37H308.59C309.169 148.368 309.742 148.483 310.276 148.707C310.75 148.901 311.159 149.226 311.456 149.644C311.654 149.922 311.785 150.243 311.84 150.58C311.875 150.74 311.89 150.903 311.887 151.067C311.885 151.249 311.87 151.43 311.84 151.61C311.792 151.906 311.7 152.193 311.568 152.462C311.262 153.029 310.852 153.534 310.36 153.95L308.262 155.936H312.186V157.649H305.284ZM311.578 163.744L311.709 163.931C312.832 165.616 313.741 167.434 314.415 169.343C314.631 169.952 314.818 170.579 314.977 171.206C313.35 169.966 311.366 169.283 309.32 169.259C310.079 167.48 310.856 165.598 311.578 163.744ZM196.572 242.757C196.25 242.539 195.865 242.433 195.477 242.458C195.262 242.458 195.048 242.483 194.84 242.533C194.512 242.71 194.193 242.879 193.875 243.047C193.769 243.148 193.672 243.258 193.585 243.375L193.435 243.282L192.049 242.383C192.419 241.84 192.931 241.409 193.529 241.137C194.2 240.827 194.934 240.673 195.673 240.688C195.776 240.688 195.879 240.688 195.982 240.697C196.487 240.718 196.984 240.826 197.453 241.016C197.495 241.034 197.536 241.056 197.574 241.081C198.003 241.273 198.372 241.577 198.642 241.961C198.927 242.38 199.075 242.878 199.063 243.385C199.067 243.867 198.961 244.344 198.755 244.78C198.585 245.105 198.371 245.404 198.118 245.669C197.936 245.881 197.743 246.081 197.537 246.268L195.439 248.244H199.363V249.967H192.47V248.6L195.992 245.276C196.286 245.009 196.539 244.7 196.741 244.358C196.866 244.121 196.933 243.858 196.938 243.591C196.948 243.433 196.92 243.274 196.856 243.129C196.793 242.984 196.695 242.857 196.572 242.757ZM95.3902 248.871V247.177H99.333V256.296H97.2165V248.871H95.3902ZM101.15 275.527L84.9854 284.029L76.8096 281.753L98.6025 269.844C99.614 272.166 100.532 274.179 101.15 275.527ZM107.743 254.583V256.296H100.841V254.929L104.362 251.605C104.664 251.343 104.92 251.033 105.121 250.688C105.247 250.454 105.314 250.194 105.317 249.929C105.325 249.769 105.295 249.61 105.23 249.463C105.165 249.317 105.066 249.188 104.943 249.087C104.624 248.87 104.241 248.768 103.856 248.796C103.482 248.791 103.111 248.868 102.77 249.021C102.448 249.176 102.17 249.411 101.965 249.704L100.429 248.712C100.798 248.172 101.306 247.742 101.899 247.467C102.574 247.156 103.31 247.003 104.053 247.017C104.663 247.005 105.269 247.12 105.832 247.354C106.305 247.551 106.714 247.875 107.012 248.291C107.306 248.709 107.457 249.212 107.443 249.723C107.442 250.203 107.334 250.677 107.125 251.109C106.818 251.676 106.409 252.181 105.917 252.598L103.819 254.582L107.743 254.583ZM119.74 232.018V230.323H123.673V239.443H121.566V232.018H119.74ZM124.235 255.837C125.453 258.58 126.333 260.444 126.333 260.444C126.333 260.444 127.897 257.129 129.77 252.813L146.3 243.778L173.365 226.157C174.704 229.181 175.697 231.269 175.697 231.269C175.697 231.269 177.711 226.999 179.912 221.85C180.552 221.312 181.052 220.628 181.37 219.855C181.688 219.082 181.814 218.244 181.738 217.412C182.852 214.622 183.873 211.85 184.547 209.566C186.664 210.437 188.799 211.242 190.972 212C192.049 214.594 193.135 217.103 194.044 219.135C192.24 220.952 191.229 223.409 191.234 225.97C191.237 226.33 191.268 226.69 191.328 227.046L175.323 236.55L103.313 274.394C104.362 272.072 105.898 268.627 107.359 265.059L124.235 255.837ZM128.169 235.538H127.204V234.143L129.086 232.018H125.2V230.323H131.587V231.69L129.526 234.04C130.221 234.121 130.868 234.435 131.362 234.93C131.795 235.401 132.027 236.022 132.008 236.662C132.01 237.179 131.864 237.686 131.587 238.123C131.276 238.598 130.833 238.972 130.313 239.199C129.656 239.488 128.942 239.626 128.225 239.602C127.583 239.602 126.943 239.517 126.324 239.349C125.758 239.202 125.223 238.959 124.741 238.628L125.565 237.008C125.929 237.281 126.338 237.487 126.773 237.617C127.225 237.759 127.695 237.832 128.169 237.832C128.608 237.856 129.045 237.748 129.424 237.523C129.567 237.431 129.685 237.303 129.765 237.152C129.846 237.002 129.886 236.833 129.882 236.662C129.882 235.913 129.311 235.538 128.169 235.538ZM168.664 202.843V201.149H172.597V210.278H170.49V202.843L168.664 202.843ZM175.491 205.456C175.173 205.263 174.91 204.991 174.729 204.666C174.549 204.34 174.456 203.974 174.461 203.602C174.449 203.105 174.607 202.619 174.91 202.225C174.949 202.166 174.997 202.112 175.051 202.066C175.348 201.729 175.724 201.471 176.147 201.317C176.729 201.093 177.349 200.985 177.973 200.999C178.603 200.986 179.229 201.094 179.818 201.317C180.31 201.497 180.742 201.812 181.063 202.225C181.36 202.622 181.515 203.107 181.504 203.602C181.509 203.981 181.416 204.356 181.232 204.688C181.177 204.793 181.104 204.888 181.017 204.969C180.859 205.175 180.662 205.347 180.436 205.474C180.852 205.675 181.207 205.982 181.466 206.364C181.713 206.739 181.84 207.179 181.831 207.628C181.833 207.879 181.795 208.128 181.719 208.367C181.644 208.636 181.517 208.888 181.344 209.107C180.992 209.555 180.522 209.895 179.986 210.09C179.342 210.326 178.659 210.44 177.973 210.427C177.287 210.442 176.604 210.327 175.959 210.09C175.428 209.892 174.962 209.552 174.611 209.107C174.291 208.681 174.123 208.16 174.133 207.628C174.125 207.179 174.252 206.739 174.498 206.364C174.756 205.984 175.108 205.677 175.519 205.474C175.51 205.465 175.501 205.465 175.491 205.456ZM189.286 195.353V193.658H193.22V202.787H191.112V195.353H189.286ZM84.2831 286.753C84.9733 286.943 85.6989 286.966 86.3996 286.819C91.0099 285.839 95.6989 285.275 100.41 285.134C100.698 285.125 100.982 285.192 101.236 285.329C101.489 285.465 101.701 285.666 101.852 285.911C102.004 286.144 102.092 286.414 102.105 286.692C102.118 286.97 102.057 287.246 101.927 287.493C98.8623 293.456 93.9051 298.234 87.8325 301.078L87.5796 301.181C85.6956 301.825 83.7048 302.099 81.717 301.987C80.2498 301.91 78.8017 301.62 77.4183 301.125C73.2911 299.683 69.3115 297.849 65.5339 295.648C62.6039 293.79 59.8569 291.658 57.3299 289.281C54.9043 286.894 54.998 283.561 56.4776 281.838C56.9562 281.322 57.5401 280.916 58.1897 280.646C58.8393 280.376 59.5394 280.25 60.2424 280.274C60.6894 280.275 61.1351 280.322 61.5723 280.415L84.2831 286.753ZM100.326 282.325C97.0613 282.422 93.8057 282.716 90.5766 283.205L101.946 277.231L102.03 277.185L176.231 238.188L191.74 228.985C192.452 231.51 193.293 233.998 194.259 236.437C192.928 237.128 191.775 238.117 190.89 239.327C190.004 240.537 189.411 241.935 189.155 243.413C180.211 248.104 171.211 252.691 162.23 257.139C143.162 266.576 123.598 275.677 104.072 284.197C103.656 283.594 103.095 283.107 102.44 282.779C101.785 282.452 101.057 282.295 100.326 282.325ZM192.836 230.876V229.509L196.16 226.363L196.348 226.185C196.647 225.921 196.903 225.611 197.106 225.267C197.231 225.031 197.299 224.768 197.303 224.5C197.312 224.351 197.288 224.202 197.231 224.064C197.174 223.926 197.087 223.803 196.975 223.704C196.964 223.684 196.948 223.668 196.928 223.657C196.757 223.525 196.553 223.441 196.338 223.414C196.226 223.648 196.17 223.779 196.17 223.779C196.17 223.779 196.104 223.638 195.982 223.376C195.936 223.368 195.889 223.365 195.842 223.367C195.471 223.36 195.103 223.437 194.765 223.592C194.44 223.747 194.159 223.982 193.95 224.275L192.414 223.292C192.78 222.75 193.289 222.319 193.884 222.047C194.296 221.853 194.735 221.724 195.186 221.663C195.468 221.617 195.753 221.595 196.038 221.597C196.407 221.595 196.774 221.632 197.134 221.71C197.369 221.756 197.599 221.828 197.818 221.925C198.193 222.08 198.529 222.317 198.801 222.618C198.875 222.695 198.944 222.776 199.007 222.861C199.293 223.284 199.44 223.784 199.429 224.294C199.43 224.338 199.427 224.382 199.419 224.425C199.411 224.864 199.306 225.296 199.11 225.689C198.801 226.251 198.391 226.752 197.902 227.168L195.804 229.153H199.728V230.876L192.836 230.876ZM197.705 199.379C197.155 199.388 196.61 199.269 196.113 199.033C195.651 198.809 195.259 198.462 194.98 198.031C194.703 197.584 194.559 197.068 194.568 196.542C194.556 195.976 194.713 195.418 195.018 194.941C195.329 194.479 195.759 194.11 196.263 193.874C196.817 193.625 197.417 193.501 198.024 193.508C198.577 193.477 199.131 193.565 199.648 193.765C200.165 193.965 200.633 194.274 201.021 194.67C201.796 195.611 202.182 196.814 202.098 198.031C202.126 198.951 201.926 199.865 201.517 200.69C201.157 201.401 200.589 201.986 199.888 202.366C199.134 202.76 198.293 202.957 197.443 202.937C196.973 202.942 196.505 202.888 196.048 202.778C195.649 202.683 195.267 202.529 194.915 202.319L195.701 200.765C196.21 201.086 196.804 201.246 197.406 201.224C197.742 201.24 198.078 201.188 198.394 201.071C198.71 200.953 198.998 200.773 199.241 200.54C199.732 200.001 199.994 199.293 199.972 198.565C199.669 198.846 199.311 199.063 198.922 199.203C198.532 199.343 198.119 199.403 197.705 199.379ZM115.703 117.529L116.162 117.295L116.312 117.155C123.341 110.539 130.716 104.301 138.405 98.4663C139.145 97.9139 139.875 97.3427 140.615 96.7998C141.205 96.3503 141.804 95.9102 142.404 95.4796C142.713 95.2455 143.022 95.0208 143.331 94.7961C149.943 90.0117 156.761 85.527 163.597 81.4447C163.738 81.3605 163.878 81.2762 164.019 81.1919C164.403 80.9578 164.796 80.7237 165.189 80.4897C165.47 80.3212 165.761 80.1526 166.051 79.9841C166.173 79.9093 166.304 79.8344 166.426 79.7687C169.666 77.8493 172.938 75.9986 176.24 74.2166C176.32 74.1719 176.411 74.1493 176.503 74.151H176.512C176.608 74.1515 176.703 74.1756 176.788 74.2213C176.873 74.267 176.945 74.3329 176.999 74.4131C187.388 89.8704 199.72 103.93 213.692 116.246C223.256 124.665 233.541 132.228 244.429 138.848C244.985 139.187 245.392 139.725 245.565 140.353C245.739 140.981 245.668 141.651 245.365 142.228C237.203 157.825 228.115 172.92 218.15 187.432C213.271 194.539 208.12 201.579 202.809 208.405C204.505 204.023 205.862 199.894 205.862 197.881C205.865 196.607 205.617 195.344 205.131 194.166C204.645 192.988 203.931 191.917 203.031 191.015C202.131 190.113 201.061 189.397 199.884 188.909C198.706 188.421 197.444 188.169 196.169 188.169C194.895 188.169 193.633 188.421 192.455 188.909C191.278 189.397 190.208 190.113 189.308 191.015C188.408 191.917 187.694 192.988 187.208 194.166C186.722 195.344 186.474 196.607 186.476 197.881C186.476 199.903 187.853 204.079 189.567 208.498C188.106 207.965 186.661 207.4 185.231 206.804C185.327 206.332 185.38 205.853 185.39 205.371C185.395 203.445 184.824 201.56 183.752 199.959C182.68 198.358 181.155 197.113 179.371 196.384C177.587 195.654 175.627 195.473 173.739 195.863C171.852 196.253 170.124 197.197 168.776 198.574C167.456 197.797 166.163 196.992 164.88 196.158C167.137 190.681 169.235 184.885 169.235 182.386C169.239 181.111 168.992 179.848 168.507 178.669C168.022 177.49 167.309 176.418 166.409 175.515C165.509 174.612 164.44 173.896 163.262 173.407C162.084 172.918 160.822 172.667 159.547 172.667C158.272 172.667 157.009 172.918 155.832 173.407C154.654 173.896 153.584 174.612 152.684 175.515C151.784 176.418 151.071 177.49 150.586 178.669C150.101 179.848 149.854 181.111 149.858 182.386C149.919 183.504 150.117 184.611 150.448 185.681C147.226 183.052 144.152 180.245 141.242 177.273C144.08 170.944 148.95 159.512 148.95 155.711C148.952 154.437 148.703 153.175 148.217 151.997C147.731 150.82 147.017 149.749 146.117 148.848C145.216 147.946 144.147 147.231 142.97 146.743C141.793 146.255 140.531 146.004 139.257 146.004C137.983 146.004 136.721 146.255 135.544 146.743C134.367 147.231 133.297 147.946 132.397 148.848C131.497 149.749 130.783 150.82 130.297 151.997C129.811 153.175 129.562 154.437 129.564 155.711C129.564 158.005 131.334 163.061 133.366 168.107C128.36 161.516 124.312 154.25 121.341 146.526C117.918 137.553 115.957 128.088 115.535 118.493C115.519 118.164 115.577 117.834 115.703 117.529ZM166.21 207.075C164.581 206.195 162.96 205.278 161.368 204.313C162.071 202.75 162.914 200.849 163.775 198.799C164.871 199.501 165.985 200.194 167.109 200.859C166.382 202.252 166.003 203.8 166.004 205.371C166.02 205.945 166.089 206.515 166.21 207.075ZM160.01 179.886V181.365H158.128V178.163H165.442V179.53L162.052 187.282H159.757L163.035 179.886H160.01ZM132.645 153.192V151.498H136.579V160.617H134.471V153.192H132.645ZM137.178 177.067C138.386 179.783 139.257 181.618 139.257 181.618C139.257 181.618 139.538 181.028 139.997 180.017C143.76 183.78 147.774 187.284 152.012 190.503C153.277 193.995 154.916 197.9 156.33 201.158C146.233 194.497 137.103 186.476 129.199 177.32C130.172 174.928 130.83 172.42 131.156 169.858C133.113 172.451 135.136 174.848 137.178 177.067ZM142.451 156.928C141.936 156.687 141.368 156.584 140.802 156.628H138.47L138.939 151.498H144.511V153.192H140.699L140.559 154.924H141.299C142.308 154.841 143.315 155.112 144.146 155.692C144.449 155.941 144.69 156.256 144.851 156.613C145.012 156.971 145.088 157.36 145.073 157.752C145.078 158.287 144.932 158.813 144.651 159.269C144.344 159.752 143.901 160.133 143.378 160.364C142.718 160.657 142.001 160.798 141.28 160.776C140.638 160.777 139.998 160.692 139.379 160.523C138.812 160.375 138.276 160.128 137.796 159.793L138.63 158.183C138.991 158.45 139.397 158.653 139.828 158.782C140.279 158.928 140.75 159.001 141.224 158.997C141.663 159.021 142.1 158.913 142.479 158.688C142.622 158.594 142.739 158.464 142.818 158.312C142.897 158.159 142.935 157.989 142.928 157.817C142.937 157.64 142.897 157.463 142.813 157.306C142.729 157.15 142.603 157.019 142.451 156.928ZM154.597 187.282V179.858H152.771V178.163H156.714V187.282H154.597ZM123.027 169.221C123.516 169.025 124.039 168.93 124.565 168.941C125.091 168.953 125.61 169.07 126.089 169.287C126.55 169.514 126.941 169.86 127.223 170.289C127.507 170.732 127.654 171.25 127.644 171.777C127.652 172.348 127.492 172.907 127.185 173.388C127.005 173.666 126.773 173.908 126.502 174.099C126.331 174.24 126.142 174.356 125.94 174.446C125.537 174.633 125.107 174.753 124.666 174.802H124.657C124.507 174.811 124.348 174.82 124.188 174.82C123.633 174.852 123.078 174.762 122.561 174.559C122.043 174.355 121.576 174.042 121.191 173.641C120.41 172.709 120.021 171.511 120.105 170.298C120.097 169.68 120.182 169.065 120.358 168.472C120.559 167.778 120.929 167.144 121.435 166.628C121.695 166.359 121.995 166.132 122.325 165.954C123.075 165.56 123.913 165.364 124.76 165.383C125.232 165.382 125.704 165.436 126.164 165.542C126.566 165.633 126.949 165.792 127.298 166.01L126.52 167.555C126.007 167.237 125.41 167.081 124.807 167.105C124.471 167.089 124.136 167.14 123.82 167.256C123.505 167.372 123.216 167.55 122.971 167.779C122.788 167.964 122.639 168.18 122.531 168.416C122.348 168.836 122.25 169.288 122.24 169.746C122.465 169.52 122.732 169.341 123.027 169.221ZM112.753 118.999C113.221 128.767 115.235 138.399 118.719 147.537C120.468 152.11 122.595 156.529 125.078 160.748C122.868 159.856 120.406 159.812 118.166 160.626C117.005 158.304 115.928 155.926 114.954 153.52C116.209 150.084 117.108 147.05 117.108 145.412C117.108 143.241 116.38 141.132 115.041 139.423C113.701 137.714 111.828 136.503 109.719 135.983C109.335 134.12 109.014 132.248 108.754 130.366C108.682 129.83 108.48 129.32 108.168 128.879C107.856 128.438 107.442 128.078 106.962 127.831C106.481 127.584 105.948 127.456 105.407 127.459C104.866 127.462 104.335 127.595 103.856 127.847C103.864 127.794 103.867 127.741 103.866 127.688C103.864 126.399 103.61 125.124 103.117 123.933C106.319 122.257 109.532 120.613 112.753 118.999ZM114.58 167.236V165.542H118.513V174.661H116.406V167.236H114.58ZM105.617 148.398V146.985L109.213 142.144L109.916 141.198H112.135L111.236 142.444L109.822 144.372L108.146 146.685H110.59V144.972H112.585V146.685H114.074V148.398H112.585V150.318H110.524V148.398H105.617ZM103.473 130.216L104.671 129.532C104.883 129.408 105.122 129.338 105.368 129.33C105.613 129.322 105.857 129.375 106.076 129.486C106.296 129.594 106.487 129.755 106.63 129.954C106.774 130.153 106.867 130.385 106.9 130.628C107.134 132.323 107.425 134.027 107.752 135.712C107.64 135.702 107.527 135.702 107.415 135.702C104.937 135.702 102.552 136.654 100.756 138.361C101.829 135.705 102.736 132.985 103.473 130.216ZM100.195 141.198H104.128V150.318H102.012V142.893H100.195L100.195 141.198ZM89.8179 129.251L91.5598 126.92L94.1259 123.465H96.3361L95.2966 124.898L92.3465 128.952H94.8003V127.238H96.795V128.952H98.2842V130.675H96.795V132.585H94.7347V130.675H89.8179V129.251ZM72.5859 120.965C72.0204 120.819 71.4848 120.575 71.0031 120.244L71.8273 118.624C72.1932 118.893 72.6016 119.099 73.0354 119.233C73.487 119.375 73.9575 119.448 74.4309 119.449C74.8707 119.473 75.3078 119.366 75.6857 119.139C75.8319 119.047 75.9513 118.919 76.0319 118.766C76.1125 118.613 76.1513 118.441 76.1446 118.269C76.1446 117.52 75.5734 117.155 74.4309 117.155H73.4663V115.76L75.3487 113.634H71.462V111.939H77.8491V113.306L75.7888 115.657C76.4865 115.727 77.1367 116.042 77.6244 116.546C78.0573 117.013 78.2894 117.632 78.2705 118.269C78.2739 118.789 78.1277 119.299 77.8491 119.739C77.5381 120.214 77.0955 120.588 76.5754 120.816C75.9181 121.104 75.2044 121.242 74.487 121.218C73.8449 121.218 73.2056 121.133 72.5859 120.965ZM49.9313 134.167V132.8L53.4526 129.476C53.747 129.21 53.9995 128.9 54.2018 128.559C54.3268 128.325 54.3943 128.065 54.3985 127.8C54.4082 127.64 54.3792 127.48 54.3141 127.333C54.2489 127.186 54.1494 127.058 54.024 126.958C53.7062 126.738 53.3232 126.632 52.9376 126.658C52.5657 126.656 52.1979 126.736 51.8606 126.892C51.5332 127.044 51.2521 127.279 51.0458 127.575L49.5099 126.583C49.8785 126.043 50.3866 125.612 50.9803 125.338C51.6554 125.028 52.3916 124.875 53.1343 124.888C53.7444 124.875 54.3505 124.99 54.9136 125.225C55.3906 125.419 55.8031 125.743 56.1029 126.162C56.3884 126.58 56.5358 127.078 56.5244 127.585C56.5278 128.067 56.4222 128.544 56.2153 128.98C55.9017 129.545 55.4894 130.049 54.9979 130.469L52.9001 132.444H56.8242V134.167H49.9313ZM52.6661 153.136C53.256 154.409 53.6119 155.168 53.6119 155.168C53.6119 155.168 54.305 153.707 55.3163 151.451C56.5338 150.683 57.7514 149.918 58.9689 149.157C63.9885 146.039 69.0582 142.977 74.178 139.972C74.7773 141.273 75.1519 142.06 75.1519 142.06C75.1519 142.06 75.8263 140.637 76.8096 138.436C79.7878 136.704 82.7784 134.997 85.7814 133.315C86.1936 134.579 86.6805 135.946 87.2143 137.35L67.5286 148.595L48.3767 161.478C46.2546 160.283 43.7598 159.932 41.3902 160.495C45.127 157.995 48.8856 155.542 52.6661 153.136ZM39.7795 169.521C39.8442 168.926 40.0189 168.348 40.2945 167.817C40.6605 167.107 41.2315 166.523 41.9334 166.141C42.6824 165.743 43.5206 165.544 44.3684 165.561C44.749 165.559 45.1286 165.597 45.5016 165.673C45.586 165.692 45.6796 165.71 45.7638 165.729C46.1679 165.816 46.5543 165.971 46.9064 166.188L46.1197 167.742C45.6117 167.419 45.0169 167.259 44.4152 167.283C44.0787 167.265 43.7422 167.317 43.4264 167.434C43.1106 167.552 42.8224 167.733 42.5796 167.967C42.0949 168.506 41.8337 169.209 41.8491 169.933C42.1501 169.651 42.5055 169.433 42.8935 169.293C43.2816 169.153 43.6942 169.094 44.1061 169.118C44.6571 169.113 45.202 169.235 45.6982 169.474C46.1608 169.698 46.5528 170.045 46.8314 170.476C47.1103 170.922 47.2534 171.439 47.2436 171.965C47.2569 172.533 47.0968 173.091 46.7847 173.566C46.4795 174.029 46.0515 174.399 45.5484 174.633C44.9951 174.881 44.3942 175.006 43.7878 174.998C43.2336 175.028 42.6796 174.939 42.1627 174.737C41.6458 174.535 41.1781 174.225 40.7908 173.828C40.0181 172.888 39.633 171.69 39.7139 170.476C39.7111 170.156 39.733 169.837 39.7795 169.521ZM27.7826 142.612V140.917H31.7253V150.037H29.6088V142.612H27.7826ZM29.4215 168.669C30.0958 170.139 30.5171 171.038 30.5171 171.038C30.5171 171.038 31.3882 169.184 32.6149 166.45C33.6452 165.729 34.6848 165.017 35.7336 164.315C34.5601 165.957 33.9312 167.925 33.9356 169.942C33.941 170.338 33.9785 170.733 34.0479 171.122L30.2081 173.706C28.7422 172.849 27.0737 172.4 25.3756 172.405C24.9086 172.406 24.4423 172.44 23.9802 172.508C25.7878 171.216 27.5953 169.942 29.4215 168.669ZM26.0125 183.331C25.4994 183.087 24.9305 182.984 24.3642 183.032H22.0323L22.1821 181.356L22.4069 178.959L22.5006 177.891H28.0729V179.586H24.8231L24.2331 179.979L24.1207 181.318H24.8606C25.8695 181.241 26.8745 181.512 27.7076 182.086C28.0092 182.335 28.249 182.651 28.4083 183.008C28.5675 183.365 28.6418 183.755 28.6253 184.146C28.636 184.68 28.493 185.207 28.2134 185.663C27.9063 186.145 27.4631 186.527 26.9397 186.758C26.2779 187.054 25.5571 187.195 24.8325 187.17C24.1935 187.17 23.5573 187.085 22.9407 186.917C22.3739 186.774 21.8377 186.53 21.3579 186.196L22.1916 184.576C22.553 184.847 22.9586 185.053 23.3903 185.185C23.8419 185.327 24.3124 185.4 24.7857 185.4C25.2239 185.426 25.6592 185.315 26.0313 185.082C26.1743 184.984 26.291 184.853 26.3711 184.699C26.4511 184.546 26.492 184.375 26.4902 184.202C26.4883 184.028 26.4437 183.858 26.3604 183.707C26.2771 183.555 26.1576 183.426 26.0125 183.331ZM24.7669 206.71C25.1508 207.534 25.3756 208.012 25.3756 208.012C25.3756 208.012 35.0593 187.479 35.0593 182.114C35.0617 180.747 34.7741 179.395 34.2155 178.148C33.657 176.9 32.8402 175.785 31.819 174.877L34.4785 173.088C36.5202 180.785 43.619 195.84 43.619 195.84C43.619 195.84 53.3122 175.307 53.3122 169.942C53.3133 168.56 53.0188 167.193 52.4487 165.934C51.8786 164.674 51.0458 163.551 50.0063 162.639L68.5213 150.177L87.8887 139.111C90.6889 146.189 94.1821 153.585 94.1821 153.585C94.1821 153.585 95.8117 150.131 97.7315 145.683C98.0312 151.432 107.415 171.319 107.415 171.319C107.415 171.319 111.161 163.379 113.99 156.076C114.767 157.883 115.597 159.668 116.481 161.432C115.044 162.295 113.855 163.515 113.029 164.973C112.204 166.432 111.77 168.079 111.77 169.755C111.77 175.12 121.463 195.662 121.463 195.662C121.463 195.662 125.593 186.898 128.468 179.324C136.643 188.66 146.084 196.806 156.517 203.527C156.911 203.78 157.313 204.032 157.707 204.276C158.802 206.691 159.552 208.283 159.552 208.283C159.552 208.283 159.954 207.431 160.591 206.036C162.642 207.263 164.724 208.43 166.838 209.538C168.485 214.601 170.408 219.571 172.597 224.425L145.335 242.177L130.959 250.032C133.45 244.096 136.017 237.308 136.017 234.546C136.02 233.272 135.772 232.01 135.286 230.832C134.801 229.654 134.088 228.583 133.188 227.681C132.288 226.779 131.219 226.063 130.042 225.575C128.865 225.086 127.603 224.835 126.328 224.835C125.054 224.835 123.792 225.086 122.615 225.575C121.438 226.063 120.369 226.779 119.469 227.681C118.569 228.583 117.856 229.654 117.37 230.832C116.885 232.01 116.637 233.272 116.64 234.546C116.64 237.982 120.611 247.626 123.467 254.124L108.455 262.326C110.225 257.794 111.667 253.468 111.667 251.399C111.67 250.125 111.421 248.863 110.935 247.685C110.449 246.507 109.735 245.436 108.835 244.535C107.934 243.633 106.865 242.917 105.688 242.429C104.511 241.941 103.249 241.689 101.974 241.689C100.7 241.689 99.4375 241.941 98.2602 242.429C97.083 242.917 96.0136 243.633 95.1133 244.535C94.2129 245.436 93.4993 246.507 93.0133 247.685C92.5273 248.863 92.2785 250.125 92.281 251.399C92.281 254.358 95.2216 261.914 97.872 268.112L74.2248 281.033H74.2154L62.2935 277.699L62.2185 277.681C60.6348 277.315 58.9805 277.4 57.4422 277.924C56.309 276.838 55.0915 275.714 53.818 274.525C46.1197 267.391 36.5391 258.506 29.5338 246.278C28.7847 244.967 28.0542 243.647 27.3424 242.317C29.1165 238.259 30.6243 234.09 31.8564 229.836C34.5068 236.362 37.4756 242.654 37.4756 242.654C37.4756 242.654 45.0145 226.672 46.7847 219.228C49.4724 225.867 52.5348 232.355 52.5348 232.355C52.5348 232.355 62.2185 211.822 62.2185 206.457C62.2216 205.184 61.9733 203.921 61.4878 202.744C61.0023 201.566 60.2891 200.495 59.3892 199.593C58.4892 198.691 57.4201 197.976 56.2432 197.488C55.0662 197 53.8044 196.748 52.5302 196.748C51.2559 196.748 49.9942 197 48.8172 197.488C47.6402 197.976 46.5712 198.691 45.6712 199.593C44.7712 200.495 44.0581 201.566 43.5726 202.744C43.0871 203.921 42.8387 205.184 42.8418 206.457C42.8729 207.296 42.9985 208.128 43.2164 208.939C41.7726 207.873 40.0611 207.23 38.2729 207.081C36.4848 206.932 34.6902 207.282 33.0896 208.093C31.4889 208.903 30.1451 210.143 29.208 211.673C28.2709 213.203 27.7773 214.963 27.7825 216.757C27.8117 217.534 27.9216 218.306 28.1103 219.06C26.4994 217.941 24.5839 217.343 22.6223 217.346C21.9587 217.345 21.2966 217.411 20.6462 217.543C22.1821 213.901 23.7648 209.912 24.7669 206.71ZM36.4548 218.255C35.9045 218.263 35.3597 218.145 34.8627 217.908C34.4002 217.685 34.0081 217.338 33.7295 216.906C33.4448 216.463 33.2981 215.945 33.308 215.418C33.2992 214.85 33.4589 214.293 33.7669 213.817C34.0753 213.352 34.5065 212.983 35.0125 212.749C35.5619 212.498 36.1597 212.37 36.7638 212.375C37.318 212.344 37.8724 212.433 38.3894 212.635C38.9064 212.837 39.374 213.147 39.7608 213.545C40.538 214.483 40.9267 215.682 40.8471 216.897C40.8726 217.817 40.6733 218.73 40.2664 219.556C39.9035 220.271 39.332 220.859 38.6275 221.241C37.8773 221.635 37.0395 221.831 36.1925 221.813C35.7228 221.813 35.2546 221.76 34.7971 221.653C34.3959 221.562 34.0128 221.403 33.6639 221.185L34.4412 219.64C34.954 219.961 35.5508 220.121 36.1551 220.099C36.4922 220.116 36.8291 220.063 37.1448 219.943C37.4606 219.824 37.7485 219.641 37.9907 219.406C38.4739 218.867 38.7349 218.164 38.7212 217.44C38.4179 217.722 38.0608 217.939 37.6713 218.079C37.2818 218.219 36.868 218.279 36.4548 218.255ZM45.3705 203.93V202.235H49.3132V211.364H47.1967V203.929L45.3705 203.93ZM50.896 206.795C50.8726 205.925 51.0455 205.061 51.4017 204.267C51.6974 203.602 52.1787 203.036 52.7877 202.637C53.3985 202.27 54.0978 202.076 54.8107 202.076C55.5235 202.076 56.2228 202.27 56.8336 202.637C57.4426 203.036 57.9238 203.602 58.2196 204.267C58.5758 205.061 58.7487 205.925 58.7253 206.795C58.7476 207.667 58.5748 208.534 58.2196 209.332C57.9267 209.991 57.4488 210.552 56.8437 210.945C56.2386 211.338 55.5324 211.548 54.8106 211.548C54.0889 211.548 53.3827 211.338 52.7776 210.945C52.1725 210.552 51.6945 209.991 51.4017 209.332C51.0464 208.534 50.8737 207.667 50.896 206.795ZM22.332 222.674C22.9614 222.665 23.587 222.773 24.1769 222.992C24.6688 223.173 25.1003 223.487 25.4225 223.9C25.7244 224.298 25.8828 224.787 25.872 225.286C25.8782 225.667 25.7811 226.042 25.591 226.372C25.4029 226.702 25.1275 226.974 24.7951 227.159C25.2173 227.353 25.5772 227.661 25.8345 228.048C26.0781 228.424 26.2022 228.865 26.1905 229.312C26.2005 229.845 26.0324 230.365 25.7129 230.792C25.3604 231.237 24.8899 231.574 24.3549 231.765C23.7227 232 23.0531 232.117 22.3788 232.112H22.332C21.6448 232.126 20.9613 232.008 20.3185 231.765C20.2607 231.744 20.2043 231.719 20.15 231.69V231.681C19.6882 231.493 19.2843 231.186 18.9793 230.791C18.6598 230.365 18.4917 229.845 18.5017 229.312C18.4947 228.952 18.575 228.595 18.7358 228.273C18.769 228.194 18.8098 228.119 18.8576 228.048C19.116 227.665 19.4716 227.358 19.8878 227.159C19.5582 226.972 19.2856 226.699 19.0992 226.369C18.9128 226.039 18.8195 225.665 18.8294 225.286C18.8214 224.875 18.9284 224.469 19.1386 224.116C19.1767 224.041 19.2205 223.969 19.2696 223.9C19.5921 223.492 20.0193 223.178 20.5059 222.992C21.0897 222.774 21.7088 222.666 22.332 222.674ZM19.4849 198.92L16.0947 206.682H13.8002L15.5795 202.665L17.0781 199.276H14.0531V200.765H12.1707V197.553H19.4849L19.4849 198.92ZM17.2186 188.49C17.64 189.726 18.127 191.046 18.6421 192.394C17.9234 192.203 17.1847 192.096 16.4412 192.076C16.6566 190.878 16.9188 189.689 17.2186 188.49ZM5.77423 199.473C5.77423 199.445 5.7836 199.426 5.7836 199.407C5.79108 199.386 5.79733 199.364 5.80233 199.342C7.18446 194.893 9.06639 190.615 11.4121 186.589C11.4964 186.43 11.5806 186.28 11.6743 186.131V186.121C12.6389 184.492 13.6878 182.891 14.8022 181.346C14.8483 181.27 14.9129 181.207 14.9899 181.163C15.0669 181.119 15.1537 181.095 15.2425 181.093C15.3339 181.094 15.4238 181.116 15.5046 181.159C15.5826 181.195 15.6526 181.246 15.7108 181.309C15.7701 181.373 15.8116 181.452 15.8313 181.537C15.851 181.623 15.8482 181.712 15.8231 181.796L15.692 182.395L14.7275 186.927C14.2348 188.74 13.8347 190.578 13.5287 192.432C11.4905 193.004 9.69541 194.227 8.4171 195.914C7.13879 197.601 6.44746 199.66 6.44853 201.776C6.44853 204.725 9.36112 212.225 12.0021 218.404L11.9834 218.423C11.9267 218.484 11.8566 218.531 11.7785 218.561C11.7005 218.59 11.6167 218.6 11.5338 218.592C11.45 218.584 11.3688 218.559 11.296 218.517C11.2231 218.475 11.1605 218.417 11.1124 218.348C10.2837 217.202 9.54475 215.994 8.90221 214.734C6.52999 210.012 5.45076 204.747 5.77423 199.473ZM125.518 303.794C124.746 306.858 124.666 310.057 125.284 313.156L123.158 314.299C119.01 316.182 114.712 317.717 110.309 318.887C102.845 320.866 95.1412 321.795 87.4204 321.649C81.0819 320.311 74.9434 318.159 69.1582 315.244C55.026 308.119 47.103 298.12 38.7305 287.549C38.2061 286.847 31.5475 276.342 19.4569 257.26L19.1384 256.764C14.3783 249.446 10.3416 241.682 7.08529 233.582C6.00122 230.924 5.05719 228.211 4.25707 225.455C5.09057 227.243 5.94281 229.016 6.81378 230.773C12.5589 242.212 19.155 253.204 26.5463 263.655C34.1269 274.729 42.2859 285.396 50.9897 295.611C56.3838 301.27 62.8536 305.797 70.0198 308.925C73.9909 310.655 78.144 311.933 82.4007 312.735C85.2841 313.283 88.2127 313.559 91.1477 313.559C94.2102 313.533 97.2662 313.27 100.288 312.773L100.504 312.745C109.344 311.407 117.84 308.364 125.518 303.784V303.794ZM185.915 267.625C187.385 269.544 187.909 272.072 187.488 275.134C186.954 279.01 184.903 283.392 181.747 287.736C178.253 292.448 174.077 296.613 169.357 300.095C155.056 310.778 138.48 313.934 133.151 306.986C131.68 305.067 131.156 302.539 131.577 299.477C132.654 291.734 139.772 281.941 149.709 274.516C158.858 267.681 168.935 263.927 176.409 263.927C180.614 263.927 183.995 265.116 185.915 267.625ZM193.145 264.011C187.516 258.346 178.61 259.292 173.272 259.863C168.593 260.43 164.033 261.728 159.757 263.711C154.58 265.898 149.738 268.804 145.373 272.344C138.792 277.439 133.521 284.029 129.995 291.566C128.504 294.681 127.234 297.898 126.193 301.191C118.302 306.182 109.463 309.484 100.232 310.891L100.017 310.919C94.3037 311.93 88.4568 311.92 82.7471 310.891C78.63 310.113 74.6124 308.879 70.769 307.211C63.845 304.189 57.5922 299.819 52.3757 294.356C43.7299 284.202 35.6241 273.601 28.0916 262.597C20.748 252.218 14.1957 241.301 8.4901 229.94C6.5703 226.063 4.73464 222.093 3.03032 218.142V218.133C2.78997 214.676 2.96603 211.202 3.55471 207.787C4.12536 210.647 5.08315 213.416 6.40167 216.017C7.11042 217.399 7.92123 218.726 8.82735 219.987C9.11489 220.386 9.48566 220.719 9.91409 220.961C10.3425 221.204 10.8184 221.35 11.309 221.391C11.4028 221.401 11.4964 221.401 11.5806 221.401C12.1224 221.401 12.6561 221.27 13.1353 221.017C13.3974 221.635 13.6597 222.225 13.9126 222.786C13.2634 224.116 12.9271 225.576 12.9292 227.056C12.9292 232.421 22.6223 252.953 22.6223 252.953C22.6223 252.953 24.383 249.218 26.4059 244.517C26.8929 245.416 27.3892 246.315 27.9043 247.205C35.0594 259.685 44.7524 268.683 52.5442 275.902C53.6306 276.913 54.6795 277.887 55.6723 278.814C55.1849 279.154 54.7414 279.554 54.3518 280.003C51.7015 283.083 52.1603 288.139 55.382 291.304C58.0437 293.813 60.9381 296.064 64.0261 298.026C67.987 300.338 72.1613 302.263 76.4912 303.775C78.1225 304.355 79.8288 304.699 81.5577 304.796C81.895 304.814 82.2321 304.824 82.5692 304.824C84.6031 304.819 86.6221 304.477 88.5442 303.812L88.9376 303.653C95.6096 300.555 101.06 295.324 104.428 288.785C104.885 287.897 105.03 286.881 104.84 285.901C124.394 277.381 143.977 268.271 163.063 258.814C171.736 254.526 180.395 250.117 189.043 245.585C189.427 249.864 194.119 260.818 196.816 266.839L195.645 267.494C194.999 266.209 194.155 265.034 193.145 264.011ZM197.574 274.207C197.346 272.512 196.951 270.843 196.394 269.226L197.593 268.561C198.277 270.05 198.708 270.967 198.708 270.967C198.708 270.967 199.475 269.348 200.581 266.895L206.49 263.599C206.808 265.275 207.161 266.935 207.548 268.58L197.574 274.207ZM303.186 212.702C302.843 213.608 302.417 214.479 301.912 215.305L209.253 267.616C208.869 265.968 208.522 264.301 208.213 262.635L304.066 209.182C303.915 210.386 303.62 211.568 303.186 212.702ZM304.582 206.748L207.857 260.687C207.361 257.888 206.968 255.069 206.659 252.26C206.649 252.204 206.649 252.139 206.64 252.083C207.544 249.836 208.137 247.477 208.401 245.07C208.406 242.969 207.725 240.925 206.462 239.246C206.977 237.991 207.474 236.718 207.942 235.492C211.426 233.6 214.897 231.693 218.356 229.771L286.694 191.393C291.33 188.986 295.963 186.552 300.592 184.09C301.941 188.331 304.254 193.893 306.146 198.19C305.696 201.036 305.175 203.886 304.582 206.738V206.748ZM304.816 213.667C304.862 213.569 304.903 213.469 304.937 213.367C305.412 212.117 305.739 210.817 305.911 209.491C306.024 208.985 306.127 208.48 306.23 207.974V207.965L313.31 204.023L313.816 208.583L304.816 213.667ZM314.443 183.621C313.782 183.909 313.066 184.047 312.345 184.024C311.706 184.024 311.07 183.939 310.454 183.771C310.236 183.716 310.023 183.644 309.817 183.556C309.482 183.427 309.164 183.258 308.871 183.05L309.686 181.431C309.779 181.496 309.873 181.562 309.976 181.627C310.263 181.804 310.571 181.942 310.894 182.039C311.349 182.181 311.822 182.253 312.299 182.255C312.735 182.278 313.169 182.171 313.544 181.946C313.689 181.855 313.808 181.727 313.889 181.576C313.969 181.425 314.009 181.255 314.003 181.084C314.003 180.335 313.432 179.961 312.299 179.961H311.334V178.565L311.727 178.125L313.207 176.44H310.894C310.66 176.571 310.416 176.693 310.182 176.824C310.173 176.693 310.163 176.571 310.145 176.44H309.321V174.745H315.708V176.113L315.342 176.534L313.647 178.463C314.144 178.531 314.62 178.707 315.043 178.977C315.209 179.081 315.36 179.207 315.492 179.352C315.919 179.826 316.147 180.446 316.129 181.084C316.131 181.601 315.985 182.108 315.707 182.545C315.421 182.994 315.011 183.351 314.527 183.575C314.501 183.594 314.473 183.61 314.443 183.621ZM355.875 184.848L315.586 207.581L315.08 203.031L357.561 179.343C356.933 181.159 356.371 182.994 355.875 184.848ZM362.88 180.887L358.188 183.537C358.741 181.655 359.359 179.795 360.043 177.957L364.922 175.242C364.201 176.974 363.508 178.856 362.88 180.887ZM412.375 152.453C412.375 159.044 408.068 167.967 400.65 175.382C390.058 185.962 376.413 190.204 370.85 184.651C368.265 182.067 367.797 177.732 369.108 172.77C370.607 167.058 374.456 160.523 380.122 154.859C386.321 148.661 393.579 144.635 399.639 143.492C400.761 143.267 401.903 143.151 403.048 143.146C404.303 143.018 405.57 143.171 406.759 143.593C407.947 144.015 409.027 144.697 409.92 145.587C410.812 146.478 411.496 147.556 411.921 148.744C412.345 149.931 412.501 151.198 412.375 152.453ZM415.504 141.863C411.205 138.567 404.958 139.101 399.583 140.571C399.578 140.57 399.572 140.571 399.568 140.573C399.563 140.574 399.558 140.577 399.555 140.58C392.858 141.695 385.048 145.973 378.136 152.874C371.955 159.063 367.872 165.963 366.299 172.152C366.271 172.215 366.252 172.281 366.242 172.349V172.358L366.177 172.386V172.395L361.091 175.223C362.075 172.779 363.171 170.392 364.36 168.051C366.508 163.857 368.982 159.837 371.759 156.029C376.763 149.596 383.04 144.264 390.199 140.365C392.494 139.116 394.872 138.024 397.316 137.097C398.691 136.579 399.89 135.682 400.777 134.511C401.664 133.339 402.201 131.941 402.327 130.478L402.823 125.104C406.925 122.548 411.008 119.976 415.073 117.389L416.712 116.059C419.399 122.707 422.471 129.214 422.471 129.214C422.471 129.214 431.846 109.355 432.155 103.597L435.386 100.994C437.072 104.842 438.411 107.679 438.411 107.679C438.411 107.679 443.431 97.0432 446.24 89.0754C446.306 89.7027 446.371 90.3394 446.418 90.9667C446.643 93.7508 446.718 96.545 446.643 99.3372C446.42 100.2 446.273 101.08 446.203 101.968C445.809 105.039 445.079 110.741 444.142 112.96C443.202 115.142 442.024 117.215 440.63 119.14L440.321 119.299V119.551C433.317 128.288 424.934 135.824 415.504 141.863ZM449.471 112.52C444.671 122.077 438.426 130.838 430.956 138.493L418.884 148.024C418.665 146.267 417.983 144.6 416.908 143.193C422.868 139.334 428.422 134.883 433.485 129.907C436.458 126.978 439.257 123.876 441.867 120.619L442.195 120.207V120.17C443.653 118.148 444.884 115.972 445.866 113.681C446.662 111.31 447.208 108.862 447.495 106.378L449.49 110.432C449.649 110.758 449.73 111.116 449.726 111.478C449.723 111.84 449.636 112.197 449.471 112.52Z" fill="#014898"/>
</svg>
