<svg width="91" height="49" viewBox="0 0 91 49" fill="none" xmlns="http://www.w3.org/2000/svg">
<path fill-rule="evenodd" clip-rule="evenodd" d="M1.75438 10.6587C1.00439 12.2819 0.629395 14.2239 0.629395 16.4848C0.629395 18.7456 1.00439 20.6876 1.75438 22.3688C2.53322 24.0209 3.60052 25.2673 4.92744 26.1659C6.25435 27.0354 7.75433 27.4412 9.4274 27.4412C10.812 27.4412 11.9947 27.1514 13.0043 26.6006C13.6966 26.1948 14.2735 25.7021 14.735 25.1224C14.9081 24.9195 15.312 25.0354 15.312 25.2963V26.9195C15.312 27.0644 15.4273 27.1803 15.5716 27.1803H23.3888C23.533 27.1803 23.6484 27.0644 23.6484 26.9195V6.05006C23.6484 5.90513 23.533 5.78919 23.3888 5.78919H15.5716C15.4273 5.78919 15.312 5.90513 15.312 6.05006V7.67323C15.312 7.9341 14.9081 8.05004 14.735 7.84714C14.2735 7.26744 13.6966 6.77469 13.0043 6.39788C11.9947 5.81817 10.812 5.52832 9.4274 5.52832C7.75433 5.52832 6.28319 5.9631 4.92744 6.86164C3.60052 7.70222 2.53322 8.97757 1.75438 10.6587ZM11.4178 20.6876C13.7254 20.6876 15.6004 18.8036 15.6004 16.4848C15.6004 14.1659 13.7254 12.2819 11.4178 12.2819C9.11009 12.2819 7.23511 14.1659 7.23511 16.4848C7.20626 18.8036 9.08125 20.6876 11.4178 20.6876Z" fill="#11121C"/>
<path d="M48.1677 5.78906C48.3119 5.78906 48.4273 5.905 48.4273 6.04993V26.9193C48.4273 27.0643 48.3119 27.1802 48.1677 27.1802H40.3216C40.1774 27.1802 40.062 27.0643 40.062 26.9193V24.8034C40.062 24.5426 39.7158 24.4266 39.5427 24.6295C38.9658 25.3252 38.2447 25.9049 37.437 26.3976C36.3408 27.0353 35.0716 27.3541 33.5428 27.3541C31.0909 27.3541 29.1871 26.5425 27.8025 24.8904C26.4467 23.2382 25.7544 21.0353 25.7544 18.2238V6.04993C25.7544 5.905 25.8698 5.78906 26.014 5.78906H33.8313C33.9755 5.78906 34.0909 5.905 34.0909 6.04993V17.1223C34.0909 18.1368 34.3505 18.9484 34.8697 19.5571C35.4178 20.1368 36.1389 20.4266 37.062 20.4266C37.9851 20.4266 38.7351 20.1368 39.2543 19.5571C39.7735 18.9484 40.0331 18.1368 40.0331 17.1223V6.04993C40.0331 5.905 40.1485 5.78906 40.2927 5.78906H48.1677Z" fill="#11121C"/>
<path d="M64.8115 19.9336C64.9557 19.9336 65.0711 20.0496 65.0711 20.1945V26.8322C65.0711 26.9771 64.9557 27.093 64.8115 27.093H61.898C56.0712 27.093 53.1289 24.1655 53.1289 18.3395V12.9772C53.1289 12.8322 53.0135 12.7163 52.8693 12.7163H50.7635C50.6193 12.7163 50.5039 12.6004 50.5039 12.4554V5.96273C50.5039 5.81781 50.6193 5.70186 50.7635 5.70186H52.8693C53.0135 5.70186 53.1289 5.58592 53.1289 5.441V0.803348C53.1289 0.658422 53.2443 0.54248 53.3885 0.54248H61.2346C61.3788 0.54248 61.4942 0.658422 61.4942 0.803348V5.441C61.4942 5.58592 61.6096 5.70186 61.7538 5.70186H64.6961C64.8403 5.70186 64.9557 5.81781 64.9557 5.96273V12.4554C64.9557 12.6004 64.8403 12.7163 64.6961 12.7163H61.7827C61.6384 12.7163 61.523 12.8322 61.523 12.9772V18.4844C61.523 18.9771 61.6384 19.3539 61.8692 19.5858C62.1288 19.8177 62.5327 19.9336 63.0807 19.9336H64.8115Z" fill="#11121C"/>
<path d="M59.5905 29.3833C59.7347 29.3833 59.8501 29.4992 59.8501 29.6442V48.1368C59.8501 48.2817 59.7347 48.3977 59.5905 48.3977H51.6002C51.456 48.3977 51.3406 48.2817 51.3406 48.1368V29.6442C51.3406 29.4992 51.456 29.3833 51.6002 29.3833H59.5905Z" fill="#365CAA"/>
<path d="M75.3405 48.3977C75.2539 48.3977 75.1674 48.3687 75.1386 48.2817L72.2828 44.4267C72.1674 44.2817 71.9367 44.2817 71.8501 44.4557L69.7444 48.2527C69.6867 48.3397 69.6002 48.3977 69.5136 48.3977H61.956C61.7541 48.3977 61.6098 48.1658 61.7252 47.9919L67.7252 38.5427C67.7829 38.4557 67.7829 38.3398 67.7252 38.2528L61.4656 29.8181C61.3214 29.6442 61.4656 29.3833 61.6675 29.3833H69.3405C69.4271 29.3833 69.5136 29.4123 69.5425 29.4992L72.3982 33.3833C72.5136 33.5282 72.7444 33.5282 72.8309 33.3543L74.9655 29.5282C75.0232 29.4413 75.1097 29.3833 75.1963 29.3833H82.725C82.927 29.3833 83.0712 29.6152 82.9558 29.7891L76.7828 39.0064C76.7251 39.0934 76.7251 39.2093 76.7828 39.3253L83.2154 47.9919C83.3596 48.1658 83.2154 48.4266 83.0135 48.4266H75.3405V48.3977Z" fill="#365CAA"/>
<path d="M83.7923 38.6006L89.6769 29.7891C89.7923 29.6152 89.6769 29.3833 89.475 29.3833H86.0134C85.9269 29.3833 85.8404 29.4123 85.8115 29.4992L79.4366 39.0064C79.3789 39.0934 79.3789 39.2093 79.4366 39.3253L86.1288 48.3107C86.1865 48.3687 86.2442 48.4266 86.3308 48.4266H90.3692C90.5711 48.4266 90.7153 48.1948 90.5711 48.0208L83.7923 38.8905C83.7346 38.8035 83.7346 38.6876 83.7923 38.6006Z" fill="#EF3A58"/>
<path d="M41.2734 29.383C43.6965 29.383 45.5715 30.1076 46.8695 31.5859C48.2253 33.0351 48.8887 35.0351 48.8887 37.5279V48.2814C48.8887 48.4263 48.7734 48.5423 48.6291 48.5423H41.735C41.5907 48.5423 41.4753 48.4263 41.4753 48.2814V38.4554C41.4753 37.6438 41.2157 37.0061 40.7254 36.5713C40.2638 36.1076 39.6292 35.8757 38.8215 35.8757C37.985 35.8757 37.3504 36.1076 36.86 36.5713C36.3985 37.0351 36.1677 37.6438 36.1677 38.4554V48.2814C36.1677 48.4263 36.0523 48.5423 35.9081 48.5423H29.0139C28.8697 48.5423 28.7543 48.4263 28.7543 48.2814V38.4554C28.7543 37.6438 28.4947 37.0061 28.0043 36.5713C27.5428 36.1076 26.9082 35.8757 26.1005 35.8757C25.2639 35.8757 24.6293 36.1076 24.139 36.5713C23.6774 37.0351 23.4467 37.6438 23.4467 38.4554V48.2814C23.4467 48.4263 23.3313 48.5423 23.187 48.5423H15.6871C15.5429 48.5423 15.4275 48.4263 15.4275 48.2814V29.7888C15.4275 29.6439 15.5429 29.5279 15.6871 29.5279H23.1582C23.3024 29.5279 23.4178 29.6439 23.4178 29.7888V31.2091C23.4178 31.4699 23.7928 31.5859 23.9659 31.383C24.4274 30.8902 24.9755 30.4554 25.6101 30.1076C26.562 29.6149 27.6582 29.354 28.8985 29.354C30.2543 29.354 31.4658 29.6439 32.5331 30.2525C33.4562 30.7743 34.235 31.4989 34.8408 32.3975C34.9562 32.5714 35.1869 32.5714 35.3023 32.4264C35.9658 31.5859 36.7446 30.8902 37.6965 30.3395C38.7927 29.7018 39.9754 29.383 41.2734 29.383Z" fill="#365CAA"/>
<path fill-rule="evenodd" clip-rule="evenodd" d="M72.5999 26.0786C74.3018 26.9481 76.2344 27.4119 78.369 27.4119C80.5036 27.4119 82.4363 26.9771 84.1382 26.0786C85.8401 25.209 87.167 23.9337 88.119 22.2815C89.0997 20.6294 89.5901 18.6873 89.5901 16.4555C89.5901 14.2236 89.0997 12.3106 88.119 10.6584C87.167 9.00625 85.8401 7.73089 84.1382 6.83235C82.4363 5.9338 80.5036 5.49902 78.369 5.49902C76.2344 5.49902 74.3018 5.9338 72.5999 6.83235C70.898 7.70191 69.5422 8.97726 68.5614 10.6584C67.6095 12.3106 67.1191 14.2236 67.1191 16.4555C67.1191 18.6873 67.6095 20.6294 68.5614 22.2815C69.5422 23.9337 70.898 25.18 72.5999 26.0786ZM78.3113 20.6873C80.619 20.6873 82.494 18.8033 82.494 16.4845C82.494 14.1656 80.619 12.2816 78.3113 12.2816C76.0037 12.2816 74.1287 14.1656 74.1287 16.4845C74.1287 18.8033 76.0037 20.6873 78.3113 20.6873Z" fill="#11121C"/>
</svg>
