<svg width="110" height="110" viewBox="0 0 110 110" fill="none" xmlns="http://www.w3.org/2000/svg">
<g clip-path="url(#clip0_490_172283)">
<path d="M50.2689 54.3481C50.5767 55.5725 50.1643 56.7212 49.3489 56.9148C48.5335 57.1072 47.6229 56.2711 47.315 55.0466C47.1846 54.5591 47.1787 54.0472 47.2986 53.5562L46.0625 48.3517L48.631 47.8315L49.5768 53.0175C49.9164 53.4011 50.1538 53.8583 50.2689 54.3492L50.2689 54.3481Z" fill="#FFD2BB"/>
<path d="M39.498 84.1089L39.6567 87.5199L39.498 88.4633L40.0526 89.5654L44.4118 90.0365L44.6503 87.9922L42.3521 86.8121L42.2851 84.8844L39.498 84.1089Z" fill="#FFD2BB"/>
<path d="M44.0951 89.2501L43.8577 89.5649L39.293 88.2588C39.293 88.2588 39.4986 90.2728 39.4986 90.6658C39.4986 91.0588 47.0278 91.0588 48.1605 90.9014C49.2932 90.7439 48.9301 89.7212 48.9301 89.7212L44.2314 87.5137L44.0951 89.2489V89.2501Z" fill="#221F1F"/>
<path d="M28.1404 81.5981L27.1899 84.8797L26.7363 85.724L26.9067 86.9427L30.884 88.7747L31.7687 86.9123L29.971 85.0651L31.099 82.1637L28.1404 81.5981Z" fill="#FFD2BB"/>
<path d="M30.8386 87.9289L30.5119 88.1517L26.6075 85.4648C26.6075 85.4648 26.1528 87.438 26.027 87.81C25.9013 88.182 33.0334 90.5738 34.1579 90.7849C35.2823 90.9959 35.267 89.9114 35.267 89.9114L31.5271 86.3278L30.8386 87.9289Z" fill="#221F1F"/>
<path d="M39.8047 27.7911L39.9715 30.4733L34.9238 30.7275L36.4865 27.1929L39.8047 27.7911Z" fill="#FFD2BB"/>
<path d="M40.1 30.0723C38.7476 30.6717 36.5833 30.5072 34.1311 30.0723L33.748 46.935C33.748 46.935 41.4195 48.4661 44.0573 45.6417L42.6696 31.8647L40.1011 30.0734V30.0723H40.1Z" fill="#221F1F"/>
<path d="M43.2235 46.0547L32.3926 47.1171L27.0488 83.134H31.1436L38.1559 58.4545L38.7116 86.4226H42.4598L45.6522 52.1852L43.2235 46.0547Z" fill="#221F1F"/>
<path d="M35.6707 29.0391L32.0319 31.1766C30.6536 31.986 30.0038 33.6209 30.4539 35.1463L33.2656 44.6796C33.2656 44.6796 28.6867 52.4882 30.1742 53.1763C33.5182 54.7238 38.5083 54.3471 38.5083 54.3471L37.3933 35.6524L35.6707 29.0391Z" fill="#FF0D1B"/>
<path d="M39.9434 30.001L44.0581 31.587L45.0298 43.3664L47.7511 52.8566C43.1416 54.5265 43.5717 53.7487 43.5717 53.7487L42.8079 37.3735L39.9434 30.001Z" fill="#FF0D1B"/>
<path d="M45.9518 52.6573L45.9377 52.5931L41.7324 33.2873C41.6149 32.7474 41.7653 32.2074 42.1448 31.804C42.5244 31.4005 43.0578 31.215 43.6077 31.2943C44.2868 31.3923 44.8297 31.8833 44.9918 32.5445L49.6118 51.3908L45.9518 52.6584L45.9518 52.6573Z" fill="#FF0D1B"/>
<path d="M37.6143 28.5036C39.8758 28.5036 41.7091 26.6841 41.7091 24.4396C41.7091 22.195 39.8758 20.3755 37.6143 20.3755C35.3528 20.3755 33.5195 22.195 33.5195 24.4396C33.5195 26.6841 35.3528 28.5036 37.6143 28.5036Z" fill="#FFD2BB"/>
<path d="M39.5629 19.1733C40.4653 19.4882 40.9811 19.6678 41.4535 20.1202C42.2525 20.8841 42.3841 21.9045 42.5063 22.8526C42.6026 23.5942 42.726 24.5528 42.2877 25.649C42.1385 26.0234 41.4135 27.6886 40.0271 27.8997C39.7545 27.9405 39.1153 27.9522 39.2998 27.8169C41.0058 26.5668 41.7331 25.8123 41.6732 23.8869C41.6356 22.6905 39.7932 21.3984 38.6993 21.1663C38.2387 21.0683 37.6254 21.1581 37.1848 21.5161C36.2648 22.2648 36.3047 25.3633 35.3354 26.0105C34.9371 26.2764 35.2026 24.4024 34.9218 24.7056C34.3672 25.305 34.7232 26.2239 34.8231 26.5738C35.2954 28.2332 36.1861 28.3953 36.6478 29.8134C37.146 31.3434 36.5186 32.7836 36.3705 33.1253C36.112 33.72 35.6679 34.7393 34.6539 35.229C33.3661 35.8506 32.351 35.0413 31.7529 35.7352C31.418 36.1223 31.599 36.5328 30.995 37.7386C30.7976 38.1316 30.6989 38.3287 30.612 38.3217C30.1984 38.289 29.5298 35.0051 30.612 31.9475C31.0667 30.6647 31.5109 29.4076 32.7035 28.4245C33.3344 27.9044 33.8631 27.7178 34.0135 27.1102C34.2286 26.2426 33.3356 25.8729 33.157 24.505C33.0348 23.5698 32.949 22.231 33.2815 21.3739C33.5964 20.5634 33.869 19.8602 34.5834 19.2235C34.755 19.0707 36.1391 18.0293 37.6078 18.0002C38.2834 17.9862 38.7804 18.9016 39.5641 19.1745H39.5629C39.5629 19.1745 39.5629 19.1733 39.5629 19.1733Z" fill="#221F1F"/>
<path d="M18 90.5C18 90.7773 18.0456 91 18.1025 91H80.8975C80.9544 91 81 90.7773 81 90.5C81 90.2227 80.9544 90 80.8975 90H18.1025C18.0456 90 18 90.2227 18 90.5Z" fill="#3F3D58"/>
<path d="M49.004 38.3813H38.8184V48.4906H49.004V38.3813Z" fill="#073064"/>
<path d="M60.254 38.3813H50.0684V48.4906H60.254V38.3813Z" fill="#757575"/>
<path d="M71.5021 38.3813H61.3164V48.4906H71.5021V38.3813Z" fill="#E27C0F"/>
<path d="M82.7501 38.3813H72.5645V48.4906H82.7501V38.3813Z" fill="#3CAE13"/>
<path d="M94.0001 38.3813H83.8145V48.4906H94.0001V38.3813Z" fill="#014898"/>
<path d="M94.0001 38.3813H83.8145V48.4906H94.0001V38.3813Z" fill="#014898"/>
<path d="M39.7607 42.71C41.025 42.5782 42.1142 43.1427 42.1929 43.9718C42.2716 44.8009 41.3105 45.5788 40.0451 45.7105C39.5398 45.77 39.0299 45.7047 38.5552 45.5193L33.1903 46.0091L33.0293 43.412L38.3355 43.2045C38.7655 42.9246 39.2543 42.7543 39.7607 42.7088V42.71Z" fill="#FFD2BB"/>
<path d="M33.2254 31.299C31.9271 31.117 30.7086 31.9648 30.4384 33.2383C29.4972 37.6825 27.8065 47.1483 30.4607 47.3069C33.9316 47.5133 37.2626 46.6865 37.2626 46.6865L36.4296 41.9332L33.7224 41.658L35.3145 34.2657C35.6165 32.8616 34.6566 31.4984 33.2243 31.299H33.2254Z" fill="#FF0D1B"/>
</g>
<defs>
<clipPath id="clip0_490_172283">
<rect width="77" height="73" fill="white" transform="translate(17 18)"/>
</clipPath>
</defs>
</svg>
