<svg width="111" height="110" viewBox="0 0 111 110" fill="none" xmlns="http://www.w3.org/2000/svg">
<g clip-path="url(#clip0_832_167575)">
<path d="M30.9826 18C32.8266 17.9953 34.6157 18.6203 36.0476 19.7696C37.4796 20.9188 38.4665 22.5218 38.8417 24.3077C39.5078 23.6239 40.36 23.1458 41.2951 22.9313C42.2302 22.7169 43.2082 22.7752 44.1105 23.0993C45.0127 23.4233 45.8007 23.9993 46.3788 24.7573C46.957 25.5153 47.3005 26.4228 47.3679 27.37L23.1542 27.412C22.9298 26.2681 22.9637 25.0893 23.2536 23.9599C23.5436 22.8306 24.0823 21.7786 24.8312 20.8792C25.5802 19.9798 26.5209 19.2553 27.586 18.7576C28.6511 18.2599 29.8142 18.0012 30.9922 18H30.9826Z" fill="#FF0D1B"/>
<path d="M65.8558 70.0821C68.4654 70.0883 70.9929 70.9851 73.0115 72.6209C75.0302 74.2568 76.4164 76.5316 76.9361 79.0612C77.8838 78.0964 79.0939 77.424 80.4199 77.1255C81.746 76.8269 83.1311 76.915 84.4075 77.3791C85.684 77.8431 86.7971 78.6633 87.6121 79.7402C88.4271 80.8171 88.909 82.1046 88.9995 83.4468L54.6868 83.3705C54.3757 81.7488 54.4308 80.0791 54.8483 78.4808C55.2657 76.8826 56.0351 75.3954 57.1014 74.1257C58.1677 72.8559 59.5046 71.835 61.0163 71.1359C62.5281 70.4369 64.1774 70.077 65.8461 70.0821H65.8558Z" fill="#FF0D1B"/>
<path d="M48.6758 64.0251L49.9866 62.4692L86.9037 18.6758L53.4661 51.7835L49.923 60.8522C49.2136 62.6656 48.6758 64.0251 48.6758 64.0251Z" fill="#014898"/>
<path d="M32.8242 42.6633L46.3006 48.3265L86.9073 18.6758L32.8242 42.6633Z" fill="#014898"/>
<path d="M53.4648 51.7835L69.3663 60.9685L86.9101 18.6758L53.4648 51.7835Z" fill="#014898"/>
<path opacity="0.5" d="M46.3047 48.3265C46.3047 48.3265 47.9567 59.2295 48.5061 62.862C48.616 63.5904 48.6834 64.0251 48.6834 64.0251C48.6834 64.0251 49.2136 62.6656 49.9229 60.8522L53.466 51.7835L86.9113 18.6758L46.3047 48.3265Z" fill="#014898"/>
<path d="M23.8768 84.2659C23.7032 84.2655 23.5365 84.1985 23.4117 84.079C23.287 83.9595 23.2139 83.7969 23.2079 83.6252C22.9573 75.3764 25.5674 67.6348 30.1919 62.9155C30.3151 62.7891 30.4841 62.7162 30.6616 62.713C30.8391 62.7098 31.0106 62.7765 31.1384 62.8983C31.2662 63.0202 31.3399 63.1873 31.3431 63.3629C31.3464 63.5385 31.279 63.7081 31.1558 63.8346C26.7761 68.3022 24.3067 75.6853 24.5477 83.5852C24.5503 83.6718 24.5355 83.7581 24.5044 83.8391C24.4732 83.9201 24.4262 83.9943 24.366 84.0573C24.3059 84.1204 24.2338 84.1711 24.1538 84.2065C24.0738 84.242 23.9876 84.2615 23.9 84.264L23.8768 84.2659Z" fill="#757575"/>
<path d="M34.9033 78.1405C34.8667 78.1433 34.83 78.1433 34.7934 78.1405C34.7065 78.1264 34.6234 78.0954 34.5487 78.0494C34.474 78.0033 34.4092 77.9431 34.3581 77.8722C34.3071 77.8013 34.2707 77.7212 34.2511 77.6363C34.2315 77.5514 34.2291 77.4635 34.244 77.3777C35.2849 71.0853 38.1437 65.9179 42.0877 63.2007C42.1598 63.1506 42.241 63.1151 42.327 63.0961C42.4129 63.0771 42.5017 63.075 42.5884 63.0899C42.6752 63.1049 42.7581 63.1366 42.8324 63.1833C42.9067 63.2299 42.9711 63.2906 43.0217 63.3618C43.0723 63.4331 43.1083 63.5135 43.1275 63.5985C43.1467 63.6834 43.1488 63.7713 43.1337 63.8571C43.1186 63.9429 43.0865 64.0249 43.0393 64.0984C42.9922 64.172 42.9308 64.2356 42.8588 64.2857C39.202 66.7931 36.5456 71.644 35.5683 77.5856C35.5435 77.7404 35.4637 77.8813 35.3432 77.983C35.2227 78.0847 35.0694 78.1406 34.911 78.1405H34.9033Z" fill="#757575"/>
<path d="M42.54 93.0001C42.3721 93.0001 42.2103 92.9375 42.0871 92.8248C41.9638 92.712 41.888 92.5574 41.8749 92.3919C41.2079 84.164 43.4171 76.3042 47.8064 71.3637C47.926 71.2424 48.0881 71.1712 48.2592 71.1646C48.4304 71.158 48.5976 71.2166 48.7263 71.3283C48.8551 71.44 48.9356 71.5964 48.9513 71.7651C48.967 71.9338 48.9167 72.102 48.8107 72.2351C44.6624 76.9125 42.567 84.4081 43.205 92.287C43.2122 92.3734 43.202 92.4603 43.1751 92.5428C43.1483 92.6253 43.1052 92.7018 43.0485 92.7679C42.9917 92.8339 42.9224 92.8883 42.8444 92.9278C42.7664 92.9673 42.6813 92.9913 42.5939 92.9982L42.54 93.0001Z" fill="#757575"/>
</g>
<defs>
<clipPath id="clip0_832_167575">
<rect width="66" height="75" fill="white" transform="translate(23 18)"/>
</clipPath>
</defs>
</svg>
