<svg width="111" height="110" viewBox="0 0 111 110" fill="none" xmlns="http://www.w3.org/2000/svg">
<g clip-path="url(#clip0_500_162807)">
<path d="M67.9132 73.6996H17.8093C17.516 73.6992 17.2349 73.5811 17.0275 73.3709C16.8201 73.1608 16.7035 72.8759 16.7031 72.5787V43.0232C16.7035 42.726 16.8201 42.4411 17.0275 42.231C17.2349 42.0209 17.516 41.9027 17.8093 41.9023H67.9132C68.2065 41.9027 68.4876 42.0209 68.695 42.231C68.9024 42.4411 69.019 42.726 69.0194 43.0232V72.5787C69.019 72.8759 68.9024 73.1608 68.695 73.3709C68.4876 73.581 68.2065 73.6992 67.9132 73.6996Z" fill="#DCDCDC"/>
<path d="M71.0342 77.8333H14.6836V40.0535C14.684 39.7214 14.8143 39.403 15.0461 39.1681C15.2779 38.9333 15.5921 38.8012 15.9199 38.8008H69.7979C70.1256 38.8012 70.4399 38.9333 70.6717 39.1681C70.9034 39.403 71.0338 39.7214 71.0342 40.0535V77.8333ZM14.9439 77.5696H70.7739V40.0535C70.7736 39.7913 70.6707 39.5399 70.4877 39.3545C70.3047 39.1691 70.0566 39.0648 69.7979 39.0645H15.9199C15.6611 39.0648 15.413 39.1691 15.2301 39.3545C15.0471 39.5399 14.9442 39.7913 14.9439 40.0535V77.5696Z" fill="#014898"/>
<path d="M42.8604 40.9768C43.1479 40.9768 43.381 40.7407 43.381 40.4493C43.381 40.158 43.1479 39.9219 42.8604 39.9219C42.5729 39.9219 42.3398 40.158 42.3398 40.4493C42.3398 40.7407 42.5729 40.9768 42.8604 40.9768Z" fill="#DCDCDC"/>
<path d="M55.4185 67.4283H30.3015C30.0082 67.428 29.7271 67.3098 29.5197 67.0996C29.3123 66.8895 29.1957 66.6046 29.1953 66.3074V49.2966C29.1957 48.9995 29.3123 48.7146 29.5197 48.5045C29.7271 48.2943 30.0082 48.1761 30.3015 48.1758H55.4185C55.7118 48.1761 55.9929 48.2943 56.2003 48.5045C56.4077 48.7146 56.5244 48.9995 56.5247 49.2966V66.3074C56.5244 66.6046 56.4077 66.8895 56.2003 67.0996C55.9929 67.3098 55.7118 67.428 55.4185 67.4283Z" fill="white"/>
<path d="M34.4337 55.4263C34.2278 55.4263 34.0265 55.3644 33.8553 55.2485C33.6841 55.1326 33.5506 54.9678 33.4718 54.775C33.393 54.5823 33.3724 54.3702 33.4126 54.1655C33.4528 53.9609 33.5519 53.7729 33.6975 53.6254C33.8431 53.4779 34.0286 53.3774 34.2306 53.3367C34.4325 53.296 34.6419 53.3169 34.8321 53.3967C35.0224 53.4765 35.185 53.6118 35.2994 53.7852C35.4138 53.9587 35.4748 54.1627 35.4748 54.3713C35.4745 54.651 35.3647 54.9192 35.1695 55.1169C34.9744 55.3147 34.7097 55.426 34.4337 55.4263Z" fill="#DCDCDC"/>
<path d="M34.4337 58.856C34.2278 58.856 34.0265 58.7941 33.8553 58.6782C33.6841 58.5622 33.5506 58.3975 33.4718 58.2047C33.393 58.012 33.3724 57.7999 33.4126 57.5952C33.4528 57.3906 33.5519 57.2026 33.6975 57.0551C33.8431 56.9075 34.0286 56.8071 34.2306 56.7664C34.4325 56.7257 34.6419 56.7465 34.8321 56.8264C35.0224 56.9062 35.185 57.0415 35.2994 57.2149C35.4138 57.3884 35.4748 57.5924 35.4748 57.801C35.4745 58.0807 35.3647 58.3489 35.1695 58.5466C34.9744 58.7444 34.7097 58.8556 34.4337 58.856Z" fill="#FF0D1B"/>
<path d="M34.4337 62.2817C34.2278 62.2817 34.0265 62.2199 33.8553 62.1039C33.6841 61.988 33.5506 61.8233 33.4718 61.6305C33.393 61.4377 33.3724 61.2256 33.4126 61.021C33.4528 60.8164 33.5519 60.6284 33.6975 60.4809C33.8431 60.3333 34.0286 60.2329 34.2306 60.1921C34.4325 60.1514 34.6419 60.1723 34.8321 60.2522C35.0224 60.332 35.185 60.4672 35.2994 60.6407C35.4138 60.8142 35.4748 61.0182 35.4748 61.2268C35.4745 61.5065 35.3647 61.7746 35.1695 61.9724C34.9744 62.1702 34.7097 62.2814 34.4337 62.2817Z" fill="#FF0D1B"/>
<path d="M39.3791 53.5156C39.1548 53.5156 38.9396 53.6059 38.781 53.7667C38.6223 53.9274 38.5332 54.1454 38.5332 54.3728C38.5332 54.6001 38.6223 54.8181 38.781 54.9788C38.9396 55.1396 39.1548 55.2299 39.3791 55.2299H51.4821C51.7065 55.2299 51.9216 55.1396 52.0803 54.9788C52.2389 54.8181 52.328 54.6001 52.328 54.3728C52.328 54.1454 52.2389 53.9274 52.0803 53.7667C51.9216 53.6059 51.7065 53.5156 51.4821 53.5156H39.3791Z" fill="#DCDCDC"/>
<path d="M39.3791 56.9414C39.1548 56.9414 38.9396 57.0317 38.781 57.1925C38.6223 57.3532 38.5332 57.5712 38.5332 57.7985C38.5332 58.0259 38.6223 58.2439 38.781 58.4046C38.9396 58.5654 39.1548 58.6557 39.3791 58.6557H51.4821C51.7065 58.6557 51.9216 58.5654 52.0803 58.4046C52.2389 58.2439 52.328 58.0259 52.328 57.7985C52.328 57.5712 52.2389 57.3532 52.0803 57.1925C51.9216 57.0317 51.7065 56.9414 51.4821 56.9414H39.3791Z" fill="#FF0D1B"/>
<path d="M39.3791 60.3711C39.1548 60.3711 38.9396 60.4614 38.781 60.6221C38.6223 60.7829 38.5332 61.0009 38.5332 61.2282C38.5332 61.4556 38.6223 61.6736 38.781 61.8343C38.9396 61.9951 39.1548 62.0854 39.3791 62.0854H51.4821C51.7065 62.0854 51.9216 61.9951 52.0803 61.8343C52.2389 61.6736 52.328 61.4556 52.328 61.2282C52.328 61.0009 52.2389 60.7829 52.0803 60.6221C51.9216 60.4614 51.7065 60.3711 51.4821 60.3711H39.3791Z" fill="#FF0D1B"/>
<path d="M96.3194 79.4936L94.7241 79.4665L94.0684 73.2188L96.4228 73.2588L96.3194 79.4936Z" fill="#FFD2BB"/>
<path d="M93.5933 78.9861L96.6699 79.0385L96.6374 81.0013L91.6237 80.9159C91.628 80.6582 91.6823 80.4038 91.7836 80.1673C91.8849 79.9308 92.0312 79.7169 92.2141 79.5377C92.397 79.3585 92.6129 79.2175 92.8496 79.1229C93.0862 79.0283 93.339 78.9818 93.5933 78.9861Z" fill="#221F1F"/>
<path d="M80.4887 79.48L79.0098 78.8735L80.615 72.8047L82.7977 73.7001L80.4887 79.48Z" fill="#FFD2BB"/>
<path d="M78.1239 78.01L80.9761 79.1799L80.2492 80.9996L75.6012 79.0931C75.794 78.6105 76.1681 78.2253 76.6412 78.0221C77.1143 77.819 77.6477 77.8147 78.1239 78.01Z" fill="#221F1F"/>
<path d="M85.8207 56.1002L81.1357 68.6276L79.1836 77.3308L81.2658 78.3857L90.766 59.6606L94.2798 78.4516H96.3621C96.3621 78.4516 97.3142 56.1642 95.9271 54.418L85.8207 56.1002Z" fill="#221F1F"/>
<path d="M80.0139 69.8166C82.0388 69.8166 83.6802 68.1534 83.6802 66.1016C83.6802 64.0499 82.0388 62.3867 80.0139 62.3867C77.9891 62.3867 76.3477 64.0499 76.3477 66.1016C76.3477 68.1534 77.9891 69.8166 80.0139 69.8166Z" fill="#FF0D1B"/>
<path d="M79.7085 67.7443L78.5449 66.2282L79.2217 65.6949L79.7725 66.4127L81.6338 64.4219L82.2563 65.0194L79.7085 67.7443Z" fill="white"/>
<path d="M88.0993 38.7579C90.4712 38.7579 92.3939 36.8096 92.3939 34.4063C92.3939 32.003 90.4712 30.0547 88.0993 30.0547C85.7275 30.0547 83.8047 32.003 83.8047 34.4063C83.8047 36.8096 85.7275 38.7579 88.0993 38.7579Z" fill="#221F1F"/>
<path d="M82.1044 64.0194C82.2874 63.9271 82.4482 63.7953 82.5755 63.6332C82.7028 63.4712 82.7934 63.2829 82.8411 63.0815C82.8888 62.8801 82.8923 62.6706 82.8514 62.4676C82.8105 62.2647 82.7262 62.0734 82.6044 61.9071L85.8622 43.6383L82.8221 43.5977L80.5597 61.6631C80.2976 61.889 80.1262 62.2044 80.0782 62.5496C80.0302 62.8949 80.1088 63.246 80.2992 63.5365C80.4897 63.8269 80.7786 64.0365 81.1113 64.1255C81.444 64.2145 81.7974 64.1767 82.1044 64.0194Z" fill="#FFD2BB"/>
<path d="M100.774 60.4496C100.889 60.2723 100.963 60.0712 100.991 59.861C101.019 59.6509 101 59.437 100.935 59.2353C100.871 59.0336 100.762 58.8491 100.618 58.6955C100.474 58.5419 100.298 58.423 100.102 58.3477L94.2845 44.0296C94.1422 43.6792 93.9262 43.3644 93.6515 43.1072C93.3769 42.8499 93.0503 42.6564 92.6944 42.5401C92.3384 42.4237 91.9618 42.3873 91.5906 42.4335C91.2194 42.4796 90.8625 42.6071 90.5449 42.8072L98.25 59.259C98.1507 59.5876 98.172 59.9415 98.31 60.2554C98.448 60.5694 98.6934 60.8222 99.0008 60.9672C99.3083 61.1122 99.6572 61.1397 99.9831 61.0446C100.309 60.9494 100.59 60.7381 100.774 60.4496Z" fill="#FFD2BB"/>
<path d="M88.1847 39.2862C89.95 39.2862 91.381 37.8361 91.381 36.0474C91.381 34.2586 89.95 32.8086 88.1847 32.8086C86.4193 32.8086 84.9883 34.2586 84.9883 36.0474C84.9883 37.8361 86.4193 39.2862 88.1847 39.2862Z" fill="#FFD2BB"/>
<path d="M84.2977 41.1673C86.1413 40.3896 89.3242 39.621 92.8584 41.2962C93.272 41.4916 93.6402 41.7733 93.9387 42.123C94.2373 42.4727 94.4595 42.8824 94.5908 43.3253L96.103 48.4506L94.1509 50.4286L95.9729 54.5165C95.9729 54.5165 89.0104 58.8022 85.887 56.1648L84 49.3737L81.5273 48.7144L82.3709 43.6361C82.4599 43.0931 82.6833 42.5818 83.0203 42.15C83.3573 41.7183 83.7968 41.3802 84.2977 41.1673Z" fill="#DCDCDC"/>
<path d="M85.1953 33.6527C86.4436 34.4248 87.8509 34.8946 89.3076 35.0256L88.8742 34.4994C89.1898 34.6176 89.5219 34.6844 89.8582 34.6974C90.0265 34.7023 90.1937 34.6672 90.3462 34.5948C90.4988 34.5225 90.6324 34.4149 90.7365 34.2808C90.8216 34.1415 90.8721 33.9834 90.8837 33.82C90.8954 33.6566 90.868 33.4928 90.8036 33.3425C90.6715 33.0428 90.4659 32.7823 90.2064 32.5858C89.7463 32.2171 89.2034 31.9694 88.6259 31.8648C88.0485 31.7602 87.4545 31.802 86.8968 31.9865C86.5143 32.1023 86.1718 32.325 85.9084 32.629C85.7789 32.7821 85.689 32.9654 85.6467 33.1624C85.6043 33.3595 85.611 33.5641 85.666 33.7579" fill="#221F1F"/>
<path d="M84.5958 30.7702C84.5438 30.2164 83.8742 29.8754 83.3506 30.0427C82.8269 30.21 82.4832 30.7443 82.3792 31.2905C82.3292 31.5206 82.3245 31.7584 82.3654 31.9903C82.4063 32.2222 82.492 32.4437 82.6175 32.642C82.7472 32.8378 82.9297 32.9917 83.1433 33.0854C83.3569 33.1792 83.5925 33.2088 83.8222 33.1709C84.3401 33.059 84.6989 32.5466 84.8016 32.0202C84.9042 31.4939 84.8023 30.9512 84.7005 30.4247" fill="#221F1F"/>
<path d="M93.4454 31.0359C93.3934 30.482 92.7238 30.141 92.2002 30.3083C91.6766 30.4756 91.3328 31.0099 91.2288 31.5562C91.1788 31.7862 91.1741 32.024 91.215 32.2559C91.2559 32.4879 91.3416 32.7093 91.4671 32.9076C91.5968 33.1034 91.7793 33.2573 91.9929 33.3511C92.2065 33.4448 92.4421 33.4745 92.6718 33.4365C93.1897 33.3246 93.5485 32.8122 93.6512 32.2859C93.7538 31.7595 93.6519 31.2168 93.5501 30.6903" fill="#221F1F"/>
<path d="M72.0117 76.1223H69.7342V75.7267C69.7342 75.5868 69.6794 75.4526 69.5818 75.3537C69.4841 75.2548 69.3517 75.1992 69.2137 75.1992H66.4807C66.3427 75.1992 66.2103 75.2548 66.1126 75.3537C66.015 75.4526 65.9602 75.5868 65.9602 75.7267V76.1223H65.5698V75.7267C65.5698 75.5868 65.5149 75.4526 65.4173 75.3537C65.3197 75.2548 65.1873 75.1992 65.0492 75.1992H62.3163C62.1782 75.1992 62.0458 75.2548 61.9482 75.3537C61.8505 75.4526 61.7957 75.5868 61.7957 75.7267V76.1223H61.4053V75.7267C61.4053 75.5868 61.3504 75.4526 61.2528 75.3537C61.1552 75.2548 61.0228 75.1992 60.8847 75.1992H58.1518C58.0137 75.1992 57.8813 75.2548 57.7837 75.3537C57.6861 75.4526 57.6312 75.5868 57.6312 75.7267V76.1223H57.2408V75.7267C57.2408 75.5868 57.186 75.4526 57.0883 75.3537C56.9907 75.2548 56.8583 75.1992 56.7202 75.1992H53.9873C53.8492 75.1992 53.7168 75.2548 53.6192 75.3537C53.5216 75.4526 53.4667 75.5868 53.4667 75.7267V76.1223H53.0763V75.7267C53.0763 75.5868 53.0215 75.4526 52.9239 75.3537C52.8262 75.2548 52.6938 75.1992 52.5558 75.1992H49.8228C49.6848 75.1992 49.5524 75.2548 49.4547 75.3537C49.3571 75.4526 49.3023 75.5868 49.3023 75.7267V76.1223H48.9118V75.7267C48.9118 75.5868 48.857 75.4526 48.7594 75.3537C48.6618 75.2548 48.5293 75.1992 48.3913 75.1992H45.6583C45.5203 75.1992 45.3879 75.2548 45.2903 75.3537C45.1926 75.4526 45.1378 75.5868 45.1378 75.7267V76.1223H44.7474V75.7267C44.7474 75.5868 44.6925 75.4526 44.5949 75.3537C44.4973 75.2548 44.3649 75.1992 44.2268 75.1992H41.4939C41.3558 75.1992 41.2234 75.2548 41.1258 75.3537C41.0282 75.4526 40.9733 75.5868 40.9733 75.7267V76.1223H40.5829V75.7267C40.5829 75.5868 40.528 75.4526 40.4304 75.3537C40.3328 75.2548 40.2004 75.1992 40.0623 75.1992H37.3294C37.1913 75.1992 37.0589 75.2548 36.9613 75.3537C36.8637 75.4526 36.8088 75.5868 36.8088 75.7267V76.1223H36.4184V75.7267C36.4184 75.5868 36.3636 75.4526 36.2659 75.3537C36.1683 75.2548 36.0359 75.1992 35.8979 75.1992H33.1649C33.0268 75.1992 32.8944 75.2548 32.7968 75.3537C32.6992 75.4526 32.6444 75.5868 32.6444 75.7267V76.1223H32.2539V75.7267C32.2539 75.5868 32.1991 75.4526 32.1015 75.3537C32.0038 75.2548 31.8714 75.1992 31.7334 75.1992H29.0004C28.8624 75.1992 28.73 75.2548 28.6323 75.3537C28.5347 75.4526 28.4799 75.5868 28.4799 75.7267V76.1223H28.0895V75.7267C28.0895 75.5868 28.0346 75.4526 27.937 75.3537C27.8394 75.2548 27.707 75.1992 27.5689 75.1992H24.836C24.6979 75.1992 24.5655 75.2548 24.4679 75.3537C24.3702 75.4526 24.3154 75.5868 24.3154 75.7267V76.1223H23.925V75.7267C23.925 75.5868 23.8701 75.4526 23.7725 75.3537C23.6749 75.2548 23.5425 75.1992 23.4044 75.1992H20.6715C20.5334 75.1992 20.401 75.2548 20.3034 75.3537C20.2058 75.4526 20.1509 75.5868 20.1509 75.7267V76.1223H19.7605V75.7267C19.7605 75.5868 19.7057 75.4526 19.608 75.3537C19.5104 75.2548 19.378 75.1992 19.2399 75.1992H16.507C16.3689 75.1992 16.2365 75.2548 16.1389 75.3537C16.0413 75.4526 15.9864 75.5868 15.9864 75.7267V76.1223H13.709C12.7253 76.1223 11.7819 76.5182 11.0863 77.223C10.3908 77.9278 10 78.8837 10 79.8805C10 80.1777 10.1165 80.4629 10.324 80.6731C10.5314 80.8833 10.8128 81.0014 11.1062 81.0014H74.6145C74.9079 81.0014 75.1892 80.8833 75.3967 80.6731C75.6041 80.4629 75.7207 80.1778 75.7207 79.8805C75.7207 78.8838 75.3299 77.9278 74.6343 77.223C73.9388 76.5182 72.9954 76.1223 72.0117 76.1223Z" fill="#014898"/>
</g>
<defs>
<clipPath id="clip0_500_162807">
<rect width="91" height="51" fill="white" transform="translate(10 30)"/>
</clipPath>
</defs>
</svg>
