<svg width="111" height="110" viewBox="0 0 111 110" fill="none" xmlns="http://www.w3.org/2000/svg">
<g clip-path="url(#clip0_500_162966)">
<path d="M29.943 83.7794H14.0616C14.0616 83.7794 13.7396 79.0726 15.6443 79.0191C17.5489 78.9656 17.3343 81.1051 19.722 78.1634C22.1096 75.2216 25.0068 75.3821 25.3824 77.1204C25.7579 78.8588 24.6581 80.2493 26.6701 79.8214C28.682 79.3935 31.5794 80.5167 29.943 83.7794Z" fill="#DCDCDC"/>
<path d="M21.7353 83.7806L21.6816 83.7785C21.8067 80.6797 22.4576 78.6889 22.9819 77.564C23.5509 76.3429 24.0993 75.8486 24.1049 75.8438L24.1406 75.8837C24.1351 75.8886 23.5932 76.3779 23.0286 77.5908C22.5073 78.7105 21.8599 80.6934 21.7353 83.7806Z" fill="white"/>
<path d="M27.4812 83.7871L27.4297 83.7721C27.8291 82.4588 28.5491 81.2647 29.5251 80.2969L29.5611 80.3365C28.5923 81.2976 27.8777 82.4832 27.4812 83.7871Z" fill="white"/>
<path d="M16.5641 83.7825L16.5109 83.7751C16.6841 82.6133 16.5009 81.4265 15.9853 80.3703C15.774 79.9273 15.4942 79.5201 15.1562 79.1636L15.1934 79.125C15.536 79.4858 15.8196 79.898 16.0339 80.3465C16.5541 81.4124 16.7389 82.6101 16.5641 83.7825Z" fill="white"/>
<path d="M32.1 83.8489H12.3504L12.3459 83.7822C12.3346 83.6164 12.0826 79.7029 13.3546 78.3065C13.4808 78.159 13.6366 78.0394 13.8119 77.9556C13.9872 77.8717 14.1783 77.8253 14.3726 77.8195C15.2017 77.796 15.7228 78.1056 16.1431 78.354C16.9353 78.8224 17.4585 79.132 19.3612 76.7877C21.4223 74.2482 23.6463 73.7017 24.9247 74.0055C25.7507 74.2019 26.32 74.7567 26.4866 75.5279C26.6448 76.2581 26.5941 76.9442 26.5537 77.4956C26.5105 78.0856 26.4763 78.5514 26.7194 78.7626C26.9227 78.9389 27.3272 78.9549 27.9937 78.8131C29.3491 78.5248 31.2409 78.7714 32.1903 79.9944C32.7011 80.6523 33.1035 81.8482 32.1199 83.8094L32.1 83.8489ZM12.4852 83.7058H32.0111C32.7441 82.2234 32.767 80.971 32.0768 80.082C31.2058 78.9602 29.3785 78.6649 28.0236 78.9531C27.2994 79.1071 26.8681 79.0817 26.6251 78.8706C26.3279 78.6126 26.3644 78.1151 26.4105 77.4856C26.4502 76.9434 26.4996 76.2686 26.3462 75.5584C26.1917 74.8433 25.6614 74.3281 24.8912 74.1452C23.6536 73.8508 21.4913 74.3903 19.4727 76.878C17.4921 79.3183 16.8954 78.9657 16.0698 78.477C15.6443 78.2254 15.1613 77.9402 14.3766 77.9624C14.2016 77.968 14.0297 78.01 13.872 78.0859C13.7142 78.1617 13.5742 78.2695 13.4608 78.4025C12.3179 79.6576 12.4573 83.1767 12.4853 83.7058H12.4852Z" fill="#221F1F"/>
<path d="M87.6098 83.9303H68.1572L68.1534 83.8217L67.2246 57.3398H88.5423L87.6098 83.9303ZM68.3754 83.7051H87.3916L88.3084 57.565H67.4584L68.3754 83.7051Z" fill="#221F1F"/>
<path d="M72.798 62.2461H71.3184V80.4986H72.798V62.2461Z" fill="#221F1F"/>
<path d="M78.6241 62.2461H77.1445V80.4986H78.6241V62.2461Z" fill="#221F1F"/>
<path d="M84.4483 62.2461H82.9688V80.4986H84.4483V62.2461Z" fill="#221F1F"/>
<path d="M100.905 65.1157L100.809 65.0555L76.6465 49.8336L78.7424 46.5273L78.838 46.5875L103.001 61.8094L100.905 65.1157ZM76.9582 49.7635L100.834 64.8049L102.689 61.8795L78.8128 46.838L76.9582 49.7635Z" fill="#221F1F"/>
<path d="M95.0696 48.6088C94.3673 48.1657 93.5521 47.9327 92.721 47.9376C91.8898 47.9424 91.0775 48.1849 90.3804 48.6362C89.6833 49.0875 89.1308 49.7287 88.7883 50.4836C88.4458 51.2386 88.3278 52.0757 88.4482 52.8955L89.6003 53.6214C89.3108 52.9512 89.2441 52.2061 89.41 51.4954C89.5759 50.7847 89.9657 50.1456 90.5223 49.6717C91.0789 49.1978 91.7731 48.9139 92.5033 48.8618C93.2334 48.8096 93.9611 48.9918 94.5798 49.3818C95.1986 49.7717 95.6758 50.3489 95.9417 51.0287C96.2076 51.7086 96.2481 52.4555 96.0574 53.16C95.8667 53.8645 95.4548 54.4897 94.8819 54.9439C94.309 55.3982 93.6053 55.6576 92.8738 55.6844L94.0259 56.4102C94.8205 56.167 95.5284 55.7017 96.0657 55.0695C96.6029 54.4373 96.947 53.6646 97.057 52.8433C97.1669 52.022 97.0383 51.1865 96.6862 50.4359C96.3341 49.6853 95.7734 49.0512 95.0706 48.6088H95.0696Z" fill="#221F1F"/>
<path d="M101.723 83.7734H-0.953125V83.9986H101.723V83.7734Z" fill="#221F1F"/>
<path d="M43.8949 82.2394H42.2498L41.4668 75.9141H43.8953L43.8949 82.2394Z" fill="#FEB8B8"/>
<path d="M39.0762 83.7608H44.2462V81.7695H41.046C40.5236 81.7695 40.0225 81.9764 39.6531 82.3447C39.2837 82.7129 39.0762 83.2124 39.0762 83.7332V83.7608Z" fill="#221F1F"/>
<path d="M43.3145 72.437L44.4492 73.6244L49.5832 69.8267L47.9086 68.0742L43.3145 72.437Z" fill="#FEB8B8"/>
<path d="M45.6192 74.1652L43.411 71.8555L41.9648 73.2294L45.5322 76.9609L45.5522 76.9419C45.7395 76.7639 45.8898 76.551 45.9945 76.3151C46.0992 76.0793 46.1564 75.8252 46.1626 75.5674C46.1688 75.3095 46.124 75.053 46.0308 74.8124C45.9375 74.5718 45.7977 74.3519 45.6192 74.1652Z" fill="#221F1F"/>
<path d="M31.8654 55.1068C31.7613 54.9398 31.6952 54.7521 31.6717 54.5569C31.6482 54.3617 31.6679 54.1637 31.7295 53.9769C31.791 53.7902 31.8929 53.6191 32.0279 53.4758C32.1629 53.3325 32.3278 53.2204 32.511 53.1475L38.9696 36.7383L41.4872 38.241L34.3125 53.9828C34.415 54.2977 34.3981 54.6392 34.2649 54.9425C34.1317 55.2458 33.8915 55.4899 33.5899 55.6285C33.2882 55.767 32.946 55.7905 32.6282 55.6943C32.3104 55.5982 32.039 55.3891 31.8654 55.1068Z" fill="#FEB8B8"/>
<path d="M56.3805 56.2827C56.1837 56.2687 55.9924 56.2118 55.82 56.1161C55.6477 56.0204 55.4985 55.8882 55.383 55.7287C55.2674 55.5693 55.1884 55.3865 55.1514 55.1934C55.1144 55.0002 55.1203 54.8012 55.1688 54.6106L45.6406 39.7618L48.3392 38.6133L56.9053 53.6483C57.2216 53.7502 57.4894 53.9644 57.6578 54.2502C57.8261 54.5359 57.8834 54.8734 57.8186 55.1985C57.7539 55.5235 57.5717 55.8136 57.3066 56.0135C57.0414 56.2135 56.7119 56.3095 56.3805 56.2832V56.2827Z" fill="#FEB8B8"/>
<path d="M39.0332 53.463L40.7197 78.451L44.7502 78.0965L45.58 59.661L47.8323 67.5785L52.6925 67.933L50.7688 52.2812L39.0332 53.463Z" fill="#221F1F"/>
<path d="M48.5434 66.3984L47.8318 67.5802L42.8535 71.0071L46.4098 72.898C46.4098 72.898 53.2852 69.1164 52.6926 67.9347L48.5434 66.3984Z" fill="#221F1F"/>
<path d="M35.5039 43.3516L36.9069 39.4106C37.2191 38.5337 37.7026 37.7272 38.3294 37.0378C38.9563 36.3484 39.7141 35.7898 40.559 35.3943C42.458 34.6968 44.5233 34.5841 46.4873 35.0707L46.9979 35.1971C48.3593 35.526 49.6349 36.1402 50.7398 36.9987C51.6044 37.6782 52.3822 38.5385 52.4514 39.4638C52.4518 39.4658 52.4524 39.4677 52.4531 39.4696C52.6926 40.5159 52.8111 45.9517 52.8111 45.9517H50.6988L51.033 53.2784L51.006 53.2254C51.006 53.2254 38.8231 55.5237 38.8231 54.342V46.7787L38.5733 44.0402L35.5039 43.3516Z" fill="#FF0D1B"/>
<path d="M46.8742 34.0476C48.7387 34.0476 50.2503 32.5407 50.2503 30.682C50.2503 28.8232 48.7387 27.3164 46.8742 27.3164C45.0096 27.3164 43.498 28.8232 43.498 30.682C43.498 32.5407 45.0096 34.0476 46.8742 34.0476Z" fill="#FEB8B8"/>
<path d="M47.3819 29.1741L50.0033 29.2788C50.3331 29.2778 50.6932 29.2662 50.9444 29.0536C51.3228 28.7328 51.2595 28.1275 51.0568 27.6753C50.4921 26.4161 49.2323 25.965 47.8489 26.0021C46.4656 26.0391 45.016 26.5065 44.2711 27.6686C43.5261 28.8307 43.3248 30.2981 43.6054 31.6484C43.9298 30.9618 44.4292 30.372 45.0537 29.9379C45.6782 29.5038 46.406 29.2406 47.1644 29.1746L47.3819 29.1741Z" fill="#221F1F"/>
<path d="M62.9485 62.092L53.4601 55.4627C53.3719 55.4009 53.3119 55.3068 53.2933 55.2009C53.2746 55.0951 53.2988 54.9862 53.3605 54.8981L60.8077 44.3052C60.8698 44.2174 60.9642 44.1576 61.0704 44.139C61.1765 44.1203 61.2858 44.1444 61.3742 44.2059L70.8626 50.8352C70.9507 50.897 71.0107 50.9911 71.0294 51.097C71.048 51.2028 71.0239 51.3117 70.9622 51.3998L63.5151 61.9924C63.4531 62.0804 63.3587 62.1402 63.2524 62.1589C63.1462 62.1776 63.0369 62.1535 62.9485 62.092Z" fill="#014898"/>
<path d="M65.0825 54.8974L59.5149 51.0075C59.4505 50.9625 59.3956 50.9053 59.3534 50.8392C59.3112 50.7731 59.2824 50.6993 59.2688 50.6221C59.2552 50.5449 59.257 50.4658 59.274 50.3893C59.2911 50.3128 59.3231 50.2404 59.3682 50.1762C59.4133 50.112 59.4707 50.0573 59.537 50.0152C59.6033 49.9731 59.6773 49.9445 59.7548 49.9309C59.8322 49.9173 59.9116 49.9191 59.9883 49.9361C60.0651 49.9531 60.1377 49.985 60.2021 50.03L65.7698 53.9199C65.8998 54.0107 65.9883 54.1494 66.0158 54.3053C66.0433 54.4612 66.0076 54.6216 65.9164 54.7512C65.8253 54.8808 65.6862 54.9691 65.5298 54.9965C65.3734 55.0239 65.2125 54.9883 65.0825 54.8974Z" fill="white"/>
<path d="M63.8036 56.7141L58.236 52.8242C58.1715 52.7793 58.1166 52.7221 58.0743 52.6559C58.032 52.5898 58.0032 52.516 57.9896 52.4388C57.9759 52.3616 57.9776 52.2824 57.9947 52.2058C58.0117 52.1293 58.0437 52.0568 58.0889 51.9926C58.134 51.9284 58.1914 51.8736 58.2578 51.8315C58.3242 51.7895 58.3983 51.7608 58.4757 51.7473C58.5532 51.7337 58.6326 51.7355 58.7094 51.7526C58.7862 51.7696 58.8589 51.8016 58.9233 51.8467L64.4909 55.7366C64.6208 55.8275 64.7091 55.9661 64.7366 56.1219C64.764 56.2778 64.7282 56.4381 64.6371 56.5676C64.546 56.6972 64.4071 56.7854 64.2508 56.8129C64.0945 56.8403 63.9337 56.8048 63.8036 56.7141Z" fill="white"/>
<path d="M62.5141 58.5537L56.9465 54.6638C56.8821 54.6188 56.8273 54.5616 56.785 54.4955C56.7428 54.4293 56.7141 54.3556 56.7005 54.2784C56.6868 54.2012 56.6886 54.1221 56.7057 54.0456C56.7227 53.969 56.7547 53.8966 56.7998 53.8324C56.845 53.7682 56.9023 53.7135 56.9687 53.6715C57.035 53.6294 57.109 53.6007 57.1864 53.5871C57.2639 53.5736 57.3432 53.5753 57.42 53.5923C57.4967 53.6093 57.5694 53.6412 57.6338 53.6862L63.2014 57.5761C63.3314 57.667 63.4199 57.8056 63.4474 57.9615C63.475 58.1174 63.4392 58.2778 63.3481 58.4075C63.2569 58.5371 63.1179 58.6253 62.9615 58.6528C62.8051 58.6802 62.6442 58.6445 62.5141 58.5537Z" fill="white"/>
<path d="M65.0663 51.3036L62.9098 49.7969C62.8454 49.7519 62.7904 49.6947 62.7481 49.6286C62.7058 49.5625 62.6771 49.4887 62.6634 49.4114C62.6497 49.3342 62.6515 49.2551 62.6685 49.1785C62.6856 49.1019 62.7176 49.0295 62.7627 48.9652C62.8079 48.901 62.8653 48.8463 62.9317 48.8042C62.998 48.7621 63.0721 48.7335 63.1496 48.7199C63.2271 48.7064 63.3065 48.7082 63.3833 48.7252C63.46 48.7423 63.5327 48.7743 63.5971 48.8193L65.7536 50.326C65.8836 50.4169 65.9721 50.5555 65.9996 50.7114C66.0271 50.8673 65.9914 51.0277 65.9003 51.1573C65.8091 51.287 65.6701 51.3752 65.5137 51.4026C65.3573 51.43 65.1964 51.3944 65.0663 51.3036Z" fill="white"/>
</g>
<defs>
<clipPath id="clip0_500_162966">
<rect width="94" height="58" fill="white" transform="translate(9 26)"/>
</clipPath>
</defs>
</svg>
