<svg width="110" height="110" viewBox="0 0 110 110" fill="none" xmlns="http://www.w3.org/2000/svg">
<g clip-path="url(#clip0_490_171784)">
<path d="M86.2095 71.1271C86.1894 71.1021 86.1695 71.077 86.1498 71.0518C86.1301 71.0267 86.1104 71.0015 86.0909 70.9761C86.0713 70.9509 86.0519 70.9255 86.0325 70.9001C86.0131 70.8747 85.9938 70.8491 85.9746 70.8234C85.9425 70.0864 85.9421 69.3559 85.9733 68.6318C86.0038 67.913 86.0655 67.2028 86.1583 66.5012C86.2501 65.8048 86.3716 65.1192 86.5229 64.4444C86.6731 63.7747 86.852 63.1177 87.0597 62.4733C87.0834 62.399 87.1075 62.325 87.132 62.2513C87.1566 62.1776 87.1815 62.1044 87.207 62.0316C87.2323 61.9586 87.2581 61.8858 87.2843 61.8134C87.3105 61.7409 87.3371 61.6688 87.364 61.5969C87.5641 61.0588 87.7844 60.5339 88.0247 60.0222C88.2634 59.514 88.5213 59.0199 88.7982 58.5399C89.073 58.0632 89.3659 57.6012 89.6771 57.1539C89.986 56.7099 90.3121 56.2814 90.6555 55.8685L90.7096 55.8037L90.7638 55.7393L90.8183 55.6752L90.8729 55.6115L90.9123 55.5657L90.9521 55.5201C90.9654 55.505 90.9788 55.4899 90.9922 55.4749C91.0056 55.4599 91.0193 55.445 91.0331 55.4303L91.0657 55.4127L91.0981 55.3953L91.1304 55.3779L91.1626 55.3605L91.1646 55.3599L91.1666 55.3589L91.1686 55.358L91.1707 55.3572L91.1837 55.3502L91.1965 55.3432L91.209 55.3361L91.2213 55.329L91.2774 55.2993L91.3332 55.2701L91.3891 55.241L91.4445 55.2116L91.4022 55.1907L91.296 55.1386L91.2967 55.1382C91.3059 55.142 91.3149 55.1461 91.3239 55.1504C91.3328 55.1546 91.3418 55.1588 91.3509 55.1627C91.36 55.1669 91.369 55.1711 91.3779 55.1753C91.3868 55.1794 91.3957 55.1837 91.4048 55.1881L91.415 55.1924L91.4254 55.1968L91.4359 55.2012C91.4395 55.2026 91.4429 55.2042 91.4461 55.2061C91.449 55.2077 91.4521 55.209 91.4553 55.21L91.4644 55.2138L91.4735 55.2177L91.4827 55.2215C91.8696 55.3964 92.2576 55.5739 92.6405 55.7601C93.0234 55.9463 93.4004 56.1403 93.7672 56.3491C94.1331 56.5563 94.4876 56.7823 94.8293 57.0262C95.1702 57.2689 95.4928 57.5356 95.7946 57.8242C96.113 58.1311 96.3979 58.4701 96.6444 58.8357C96.8882 59.1949 97.0887 59.5809 97.2418 59.986C97.3891 60.3715 97.4768 60.7767 97.5022 61.1879C97.5265 61.5835 97.4701 61.9798 97.3362 62.3535C97.3182 62.4022 97.2986 62.4502 97.2777 62.4976C97.2567 62.5449 97.2344 62.5916 97.2107 62.6375C97.187 62.6834 97.1618 62.7285 97.1353 62.7728C97.1088 62.8171 97.0809 62.8606 97.0517 62.9033C97.0396 62.9211 97.0271 62.9388 97.0144 62.9562C97.0018 62.9737 96.9889 62.991 96.9759 63.0082C96.9629 63.0254 96.9497 63.0425 96.9363 63.0595C96.923 63.0765 96.9094 63.0934 96.8958 63.1102C96.6424 63.4243 96.3203 63.678 95.9537 63.8522C95.585 64.026 95.1843 64.124 94.776 64.1402C94.347 64.1579 93.9184 64.0966 93.5121 63.9593C93.0764 63.8126 92.6715 63.5887 92.3174 63.2984C92.195 63.1987 92.0791 63.0916 91.9701 62.9777C91.8622 62.8648 91.7615 62.7454 91.6687 62.6203C91.5765 62.4962 91.4925 62.3664 91.4169 62.2319C91.3419 62.0984 91.2758 61.9602 91.219 61.8182C91.1923 62.2592 91.2617 62.7008 91.4226 63.1131C91.5923 63.5466 91.823 63.9544 92.108 64.3245C92.4089 64.7186 92.7428 65.0871 93.1062 65.4261C93.472 65.772 93.8606 66.0963 94.2444 66.3949C94.6282 66.6936 95.0256 66.999 95.4103 67.3175C95.7947 67.6307 96.1605 67.9653 96.5061 68.3196C96.8414 68.6619 97.1379 69.0391 97.3904 69.4446C97.6385 69.8449 97.8179 70.2828 97.9213 70.7407C98.032 71.2395 98.0264 71.7566 97.9049 72.253C97.8459 72.4944 97.7618 72.7293 97.654 72.9538C97.5453 73.1801 97.4151 73.3958 97.265 73.5978L97.251 73.6163L97.237 73.6347L97.2226 73.6531L97.208 73.6713C96.8419 74.1432 96.3823 74.5367 95.8572 74.8279C95.5929 74.9744 95.3143 75.0944 95.0256 75.186C94.7301 75.2798 94.4258 75.3444 94.1174 75.3788C93.5305 75.4321 92.9389 75.3987 92.362 75.2797C91.768 75.157 91.1905 74.9665 90.6413 74.7119C90.0734 74.4498 89.5306 74.1379 89.0193 73.7799C88.5036 73.42 88.0153 73.0232 87.5585 72.5929C87.4371 72.4788 87.3179 72.3626 87.2009 72.2443C87.0838 72.126 86.9691 72.0058 86.8565 71.8836C86.7438 71.7613 86.6336 71.6371 86.5259 71.5111C86.4182 71.3851 86.3127 71.2571 86.2095 71.1271Z" fill="#DCDCDC"/>
<path d="M95.6441 62.5879C95.2814 62.4022 94.9327 62.1912 94.6006 61.9564C93.9372 61.4875 93.3446 60.9282 92.8404 60.2953C92.5903 59.9813 92.3639 59.6497 92.1628 59.3031C91.995 59.0104 91.8461 58.7075 91.7168 58.3963C91.5907 58.0926 91.4846 57.7813 91.3993 57.4641C91.316 57.1543 91.2539 56.8394 91.2135 56.5214C91.1738 56.2099 91.1564 55.8961 91.1614 55.5822C91.1618 55.5645 91.1623 55.5469 91.1626 55.5294C91.163 55.512 91.1634 55.4944 91.1639 55.4767C91.1643 55.459 91.165 55.4415 91.1659 55.4243L91.1686 55.3721C91.1533 55.3839 91.1381 55.3959 91.123 55.408L91.0776 55.4444L91.0324 55.4811L90.9874 55.5178L90.9585 55.5415L90.9295 55.5652L90.9006 55.5892L90.8721 55.6132L90.9114 55.5675L90.9518 55.5204C90.9651 55.5053 90.9785 55.4902 90.9919 55.4752C91.0054 55.4602 91.019 55.4453 91.0329 55.4306L91.0655 55.413L91.0979 55.3956L91.1295 55.3782L91.1616 55.3609L91.1637 55.3602L91.1657 55.3593L91.1677 55.3583L91.1698 55.3576L91.1827 55.3506L91.1956 55.3435L91.2082 55.3365L91.2205 55.3294L91.2765 55.2997L91.3324 55.2705L91.3882 55.2414L91.4441 55.2122L91.4004 55.1908L91.2943 55.1386L91.295 55.1382C91.3041 55.142 91.3132 55.1461 91.3221 55.1504C91.3311 55.1546 91.3401 55.1588 91.3492 55.1627C91.3583 55.1669 91.3673 55.1711 91.3762 55.1753C91.385 55.1794 91.394 55.1837 91.403 55.1881L91.4133 55.1924L91.4237 55.1968L91.4342 55.2012C91.4377 55.2026 91.4411 55.2042 91.4443 55.2061L91.4433 55.2227L91.4421 55.2383L91.4412 55.2538L91.4403 55.2695C91.4012 55.7983 91.4291 56.3297 91.5235 56.8516C91.6206 57.3888 91.7799 57.9133 91.9984 58.4146C92.2241 58.9336 92.5063 59.4268 92.84 59.8857C93.1848 60.3603 93.5798 60.7975 94.0184 61.1897C94.4599 61.579 94.9415 61.9217 95.4553 62.2122C95.709 62.3556 95.9703 62.4856 96.2381 62.6017C96.5035 62.7166 96.7751 62.8173 97.0517 62.9032C97.0395 62.921 97.027 62.9386 97.0144 62.9561C97.0017 62.9735 96.9889 62.9909 96.9759 63.0081C96.9628 63.0252 96.9496 63.0423 96.9362 63.0593C96.9229 63.0764 96.9094 63.0933 96.8957 63.11C96.789 63.0752 96.683 63.0381 96.5774 62.9988C96.4719 62.9596 96.3669 62.9181 96.2625 62.8746C96.158 62.831 96.0543 62.7852 95.9513 62.7374C95.8483 62.6895 95.7459 62.6397 95.6441 62.5879Z" fill="white"/>
<path d="M88.4645 66.5393C88.3458 66.3645 88.2337 66.1864 88.1282 66.0051C88.0228 65.8238 87.9243 65.6399 87.8327 65.4535C87.7411 65.267 87.6565 65.0783 87.5788 64.8871C87.5012 64.696 87.4309 64.5032 87.3679 64.3087C87.3358 64.2056 87.3061 64.1021 87.2789 63.9982C87.2517 63.8943 87.2271 63.7903 87.2051 63.6861C87.183 63.5819 87.1634 63.4774 87.1463 63.3728C87.1292 63.2681 87.1148 63.1635 87.103 63.059C87.097 63.0103 87.0916 62.9615 87.0869 62.9126C87.0821 62.8637 87.0779 62.8149 87.0742 62.7661C87.0705 62.7172 87.0674 62.6684 87.0648 62.6197C87.0622 62.5709 87.0602 62.5222 87.0586 62.4736C87.0823 62.3994 87.1064 62.3254 87.1309 62.2517C87.1554 62.1779 87.1803 62.1045 87.2057 62.0315C87.231 61.9584 87.2568 61.8856 87.2829 61.8132C87.3091 61.7408 87.3358 61.6686 87.3629 61.5967C87.357 61.6569 87.3519 61.7173 87.3478 61.7778C87.3436 61.8384 87.3402 61.8991 87.3378 61.96C87.3353 62.0209 87.3337 62.082 87.333 62.1432C87.3322 62.2044 87.3323 62.2657 87.3333 62.3271C87.3332 62.3606 87.3335 62.3941 87.3342 62.4276C87.3349 62.4611 87.3358 62.4945 87.3369 62.528C87.3381 62.5615 87.3396 62.595 87.3414 62.6285C87.3432 62.662 87.3452 62.6955 87.3475 62.729C87.3736 63.1047 87.4333 63.4774 87.5261 63.8428C87.62 64.2125 87.7425 64.5747 87.8926 64.926C88.0455 65.284 88.2218 65.6319 88.4204 65.9674C88.6225 66.3088 88.8433 66.639 89.0821 66.9564C89.3391 67.2992 89.6108 67.6328 89.8971 67.9575C90.1834 68.2822 90.4806 68.5979 90.7886 68.9048C91.097 69.2114 91.4143 69.5086 91.7407 69.7962C92.0671 70.0838 92.399 70.3615 92.7364 70.6293C93.0818 70.9042 93.4342 71.1686 93.7936 71.4226C94.153 71.6767 94.5183 71.9195 94.8893 72.1513C95.2603 72.383 95.6369 72.6033 96.019 72.8124C96.4011 73.0215 96.7875 73.2187 97.1783 73.4039C97.1962 73.4125 97.2124 73.4243 97.2261 73.4387C97.2394 73.4528 97.2503 73.469 97.258 73.4867C97.2658 73.5041 97.2703 73.5228 97.2715 73.5418C97.2727 73.561 97.2702 73.5801 97.264 73.5983C97.262 73.6062 97.2592 73.6138 97.2557 73.6211C97.2522 73.6282 97.248 73.635 97.2432 73.6412C97.2384 73.6474 97.2329 73.6531 97.2269 73.6582C97.2209 73.6633 97.2144 73.6677 97.2074 73.6713C97.2001 73.6746 97.1924 73.677 97.1845 73.6784C97.1765 73.6798 97.1684 73.6802 97.1604 73.6797C97.1522 73.6791 97.144 73.6776 97.1362 73.6752C97.128 73.6728 97.1202 73.6695 97.1128 73.6653C97.0645 73.6425 97.0162 73.6196 96.968 73.5966C96.9197 73.5735 96.8716 73.5504 96.8235 73.5271C96.7754 73.5037 96.7274 73.4802 96.6795 73.4565C96.6316 73.4327 96.5837 73.4086 96.5359 73.3842C96.1376 73.1825 95.7446 72.9686 95.357 72.7427C94.9693 72.5168 94.5875 72.279 94.2115 72.0295C93.8356 71.7801 93.4665 71.5194 93.1043 71.2476C92.742 70.9757 92.3873 70.6931 92.0403 70.3996C91.7051 70.1171 91.3743 69.825 91.0513 69.523C90.7283 69.2209 90.4134 68.9092 90.1103 68.5876C89.8071 68.2659 89.516 67.9345 89.2403 67.593C88.9645 67.2516 88.7049 66.9005 88.4645 66.5393Z" fill="white"/>
<path d="M95.9681 38.4737L95.6829 38.5102L97.5957 31.4306C97.7367 30.9578 97.7596 30.4585 97.6626 29.9751C97.5784 29.5802 97.3703 29.2214 97.0676 28.9496C96.7507 28.678 96.3623 28.5002 95.9473 28.4369C95.4418 28.3597 94.9258 28.3825 94.4293 28.5039L81.4291 31.4234C80.9754 31.532 80.5411 31.7082 80.1412 31.9459C79.7063 32.2009 79.3019 32.5033 78.9355 32.8474C78.5585 33.1983 78.2202 33.5874 77.926 34.0083C77.6387 34.4157 77.4044 34.8571 77.2288 35.3221L63.6268 72.2153C63.4006 72.8219 63.2537 73.4545 63.1895 74.0977C63.13 74.6687 63.1581 75.2453 63.2729 75.8081C63.3687 76.2971 63.5688 76.7604 63.86 77.1673C64.127 77.5373 64.5032 77.8171 64.9373 77.9687L78.6728 82.6316C79.283 82.8365 79.938 82.875 80.5685 82.7429C81.2425 82.5981 81.8765 82.3103 82.4262 81.8993C83.0435 81.4419 83.5744 80.8809 83.9944 80.242C84.4597 79.54 84.8073 78.7688 85.024 77.9579L94.2327 43.8762L94.5216 43.8533L95.9681 38.4737Z" fill="#221F1F"/>
<path d="M94.974 38.0816L94.6887 38.1182L96.6016 31.0385C96.7425 30.5657 96.7655 30.0664 96.6684 29.583C96.5843 29.1881 96.3761 28.8293 96.0735 28.5576C95.7565 28.2859 95.3681 28.1081 94.9531 28.0448C94.4477 27.9676 93.9316 27.9904 93.4352 28.1118L80.435 31.0313C79.9812 31.1399 79.5469 31.3161 79.1471 31.5538C78.7122 31.8088 78.3077 32.1112 77.9413 32.4553C77.5644 32.8062 77.226 33.1953 76.9319 33.6162C76.6445 34.0236 76.4103 34.465 76.2347 34.93L62.6326 71.8232C62.4065 72.4298 62.2596 73.0624 62.1954 73.7056C62.1359 74.2766 62.164 74.8532 62.2788 75.416C62.3746 75.905 62.5747 76.3683 62.8658 76.7752C63.1329 77.1452 63.5091 77.425 63.9432 77.5766L77.6787 82.2395C78.2889 82.4444 78.9438 82.4829 79.5744 82.3508C80.2484 82.206 80.8823 81.9182 81.4321 81.5072C82.0494 81.0498 82.5802 80.4888 83.0003 79.8499C83.4655 79.148 83.8132 78.3767 84.0298 77.5658L93.2385 43.4841L93.5275 43.4613L94.974 38.0816Z" fill="#014898"/>
<path d="M93.3206 29.0358L91.4096 29.4486C91.4305 29.6116 91.414 29.7772 91.3614 29.9332C91.3019 30.1156 91.2155 30.2884 91.1051 30.446C90.8567 30.804 90.525 31.0983 90.1379 31.3043C90.0915 31.3286 90.0453 31.3511 89.9993 31.3717C89.9532 31.3922 89.9072 31.4109 89.8612 31.4277C89.8153 31.4445 89.7698 31.4593 89.7245 31.4722C89.6793 31.4851 89.6346 31.4959 89.5904 31.5047L82.1189 32.9966C81.9802 33.0284 81.8359 33.0268 81.698 32.9919C81.587 32.9625 81.4891 32.8975 81.4198 32.8071C81.3499 32.71 81.3105 32.5949 81.3063 32.4759C81.3006 32.3241 81.3249 32.1727 81.378 32.0301C81.3912 31.9917 81.4063 31.9529 81.4233 31.9139C81.4402 31.8749 81.4587 31.8359 81.4787 31.7969C81.4986 31.7577 81.5203 31.7187 81.5438 31.6799C81.5673 31.6411 81.5921 31.6024 81.6182 31.5636L80.2035 31.8692C79.8628 31.948 79.5365 32.0783 79.2361 32.2553C78.9078 32.446 78.6026 32.6728 78.3263 32.9315C78.0414 33.1957 77.7859 33.4891 77.5641 33.8067C77.3478 34.1136 77.172 34.4464 77.0409 34.7971L63.4644 72.0109C63.2955 72.4681 63.1871 72.945 63.1419 73.4296C63.1 73.8573 63.1247 74.2889 63.2151 74.7093C63.2904 75.0727 63.4441 75.4158 63.6659 75.7153C63.8692 75.9869 64.1526 76.1901 64.4775 76.2968L78.314 80.7297C78.7706 80.8741 79.2579 80.8956 79.7257 80.7921C80.2238 80.6797 80.6918 80.4632 81.0979 80.1572C81.5522 79.818 81.9433 79.4036 82.2538 78.9324C82.5974 78.4148 82.8552 77.8466 83.0176 77.2491L95.6599 31.2446C95.766 30.8934 95.7856 30.5223 95.7172 30.1622C95.6578 29.867 95.5065 29.5975 95.2843 29.3913C95.0514 29.1851 94.7639 29.0484 94.4553 28.9973C94.0782 28.9348 93.6923 28.9479 93.3206 29.0358Z" fill="white"/>
<path d="M85.8997 46.6603H58.375V37.4624H85.8997V46.6603Z" fill="white"/>
<path d="M77.8529 49.9067H50.877V62.8018H77.8529V49.9067Z" fill="white"/>
<path d="M55.2599 56.0989C56.3375 56.0989 57.2111 55.2374 57.2111 54.1747C57.2111 53.112 56.3375 52.2505 55.2599 52.2505C54.1822 52.2505 53.3086 53.112 53.3086 54.1747C53.3086 55.2374 54.1822 56.0989 55.2599 56.0989Z" fill="#FF0D1B"/>
<path d="M59.7656 52.8921C59.6794 52.8921 59.5967 52.9259 59.5357 52.986C59.4747 53.0462 59.4404 53.1277 59.4404 53.2128C59.4404 53.2978 59.4747 53.3794 59.5357 53.4396C59.5967 53.4997 59.6794 53.5335 59.7656 53.5335H75.0971C75.1832 53.5333 75.2657 53.4994 75.3265 53.4393C75.3873 53.3792 75.4215 53.2977 75.4215 53.2128C75.4215 53.1279 75.3873 53.0464 75.3265 52.9863C75.2657 52.9262 75.1832 52.8923 75.0971 52.8921H59.7656Z" fill="#DCDCDC"/>
<path d="M59.7658 54.8164C59.723 54.8163 59.6807 54.8244 59.6411 54.8404C59.6016 54.8565 59.5656 54.88 59.5353 54.9097C59.505 54.9394 59.481 54.9748 59.4645 55.0137C59.4481 55.0526 59.4395 55.0943 59.4395 55.1364C59.4394 55.1786 59.4477 55.2203 59.464 55.2593C59.4803 55.2983 59.5042 55.3337 59.5344 55.3635C59.5645 55.3934 59.6004 55.4171 59.6399 55.4333C59.6793 55.4494 59.7217 55.4578 59.7644 55.4578H66.3629C66.4056 55.4578 66.4479 55.4495 66.4874 55.4334C66.5268 55.4173 66.5627 55.3937 66.5929 55.3639C66.6231 55.3341 66.6471 55.2987 66.6634 55.2598C66.6797 55.2209 66.6882 55.1792 66.6882 55.1371C66.6882 55.095 66.6797 55.0533 66.6634 55.0144C66.6471 54.9755 66.6231 54.9401 66.5929 54.9103C66.5627 54.8806 66.5268 54.8569 66.4874 54.8408C66.4479 54.8247 66.4056 54.8164 66.3629 54.8164H59.7658Z" fill="#DCDCDC"/>
<path d="M53.7631 57.8926C53.5158 57.8926 53.3145 58.0365 53.3145 58.2133C53.3145 58.3901 53.5158 58.534 53.7631 58.534H74.9158C75.1632 58.534 75.3645 58.3901 75.3645 58.2133C75.3645 58.0365 75.1632 57.8926 74.9158 57.8926H53.7631Z" fill="#DCDCDC"/>
<path d="M53.7631 59.8164C53.5158 59.8164 53.3145 59.9603 53.3145 60.1371C53.3145 60.3139 53.5158 60.4578 53.7631 60.4578H70.0468C70.2942 60.4578 70.4955 60.3139 70.4955 60.1371C70.4955 59.9603 70.2942 59.8164 70.0468 59.8164H53.7631Z" fill="#DCDCDC"/>
<path d="M78.1272 63.0724H50.6025V49.6362H78.1272V63.0724ZM51.1512 62.5313H77.5785V50.1773H51.1512V62.5313Z" fill="#DCDCDC"/>
<path d="M63.0323 43.9251C64.11 43.9251 64.9836 43.0636 64.9836 42.0009C64.9836 40.9382 64.11 40.0767 63.0323 40.0767C61.9547 40.0767 61.0811 40.9382 61.0811 42.0009C61.0811 43.0636 61.9547 43.9251 63.0323 43.9251Z" fill="#FF0D1B"/>
<path d="M67.5391 40.7183C67.4528 40.7183 67.3701 40.7521 67.3091 40.8122C67.2481 40.8723 67.2139 40.9539 67.2139 41.039C67.2139 41.124 67.2481 41.2056 67.3091 41.2657C67.3701 41.3259 67.4528 41.3597 67.5391 41.3597H82.8705C82.9566 41.3595 83.0392 41.3256 83.1 41.2655C83.1608 41.2053 83.1949 41.1239 83.1949 41.039C83.1949 40.954 83.1608 40.8726 83.1 40.8125C83.0392 40.7524 82.9566 40.7185 82.8705 40.7183H67.5391Z" fill="#DCDCDC"/>
<path d="M67.5382 42.6426C67.4955 42.6424 67.4531 42.6506 67.4136 42.6666C67.3741 42.6826 67.3381 42.7062 67.3078 42.7359C67.2775 42.7656 67.2534 42.8009 67.237 42.8398C67.2205 42.8787 67.212 42.9205 67.2119 42.9626C67.2118 43.0048 67.2202 43.0465 67.2364 43.0855C67.2527 43.1244 67.2767 43.1599 67.3068 43.1897C67.337 43.2196 67.3729 43.2433 67.4123 43.2594C67.4518 43.2756 67.4941 43.2839 67.5369 43.284H79.6007C79.6869 43.284 79.7696 43.2502 79.8306 43.1901C79.8916 43.1299 79.9259 43.0483 79.9259 42.9633C79.9259 42.8782 79.8916 42.7967 79.8306 42.7365C79.7696 42.6764 79.6869 42.6426 79.6007 42.6426H67.5382Z" fill="#DCDCDC"/>
<path d="M85.8997 46.6603H58.375V37.4624H85.8997V46.6603ZM58.9237 46.1192H85.351V38.0035H58.9237V46.1192Z" fill="#DCDCDC"/>
<path d="M31.8167 81.6976H33.2042L33.8643 76.4199L31.8164 76.42L31.8167 81.6976Z" fill="#FFD2BB"/>
<path d="M35.8809 82.9678L31.5201 82.968L31.5201 81.3065L34.4015 81.3064C34.7938 81.3064 35.1701 81.46 35.4475 81.7336C35.725 82.0072 35.8808 82.3782 35.8808 82.7651L35.8809 82.9678Z" fill="#221F1F"/>
<path d="M17.9424 79.9241L19.1583 80.5832L22.3152 76.2722L20.5207 75.2993L17.9424 79.9241Z" fill="#FFD2BB"/>
<path d="M20.8828 82.9678L17.0615 80.8961L17.8732 79.4401L20.3982 80.8091C20.742 80.9954 20.9966 81.3089 21.1061 81.6804C21.2155 82.0519 21.1708 82.4511 20.9818 82.7902L20.8828 82.9678Z" fill="#221F1F"/>
<path d="M31.7522 78.7682C31.6286 78.7681 31.5092 78.7236 31.4163 78.6431C31.3235 78.5626 31.2635 78.4515 31.2476 78.3306L29.5124 65.1446C29.5047 65.0863 29.4786 65.0318 29.4376 64.989C29.3967 64.9463 29.3431 64.9173 29.2846 64.9064C29.226 64.8954 29.1653 64.903 29.1114 64.928C29.0574 64.953 29.0128 64.9942 28.984 65.0457L21.7523 77.9842C21.6926 78.0899 21.5965 78.1709 21.4814 78.2125C21.3662 78.2542 21.2398 78.2537 21.125 78.2113L19.5487 77.619C19.4853 77.5952 19.4273 77.5591 19.3783 77.5129C19.3292 77.4667 19.29 77.4113 19.2629 77.3499C19.2359 77.2886 19.2215 77.2225 19.2207 77.1556C19.2199 77.0887 19.2327 77.0223 19.2583 76.9604L24.2679 64.8247C24.2806 64.7939 24.2892 64.7616 24.2935 64.7286C24.972 59.5497 26.6984 56.9161 27.2113 56.2323C27.2488 56.182 27.2735 56.1236 27.2832 56.062C27.293 56.0004 27.2876 55.9373 27.2675 55.8782L27.1969 55.6696C27.1688 55.5868 27.163 55.4982 27.1802 55.4125C27.1974 55.3268 27.2369 55.2471 27.295 55.1811C29.1433 53.105 32.3648 54.2379 32.3971 54.2495L32.4132 54.2554L32.4234 54.2691C36.0356 59.1543 34.7 75.0214 34.3956 78.1526C34.3843 78.2703 34.3311 78.3802 34.2455 78.4629C34.1598 78.5456 34.0473 78.5958 33.9278 78.6046L31.7917 78.7668C31.7785 78.7677 31.7653 78.7682 31.7522 78.7682Z" fill="#221F1F"/>
<path d="M30.7724 42.1291C32.4778 42.1291 33.8603 40.7658 33.8603 39.0841C33.8603 37.4024 32.4778 36.0391 30.7724 36.0391C29.0671 36.0391 27.6846 37.4024 27.6846 39.0841C27.6846 40.7658 29.0671 42.1291 30.7724 42.1291Z" fill="#FFD2BB"/>
<path d="M25.999 58.4603L35.0853 59.2758C34.2931 56.5595 33.5673 53.8527 34.1589 51.1558C34.9101 48.748 34.98 47.4142 32.9982 46.2802L31.6601 43.3367L29.2384 43.2498L28.0576 42.9307C27.1036 44.4433 26.7133 46.2362 26.9539 48.0017C27.4672 51.8407 27.3286 55.4032 25.999 58.4603Z" fill="#014898"/>
<path d="M27.3782 44.872L26.4642 40.7354C26.2735 39.7562 26.3213 38.7464 26.6038 37.789C26.6346 37.6908 26.6716 37.5948 26.7148 37.5013C26.9678 36.9576 27.3655 36.4917 27.8657 36.1533C28.3659 35.8148 28.9498 35.6165 29.5553 35.5793C31.6324 35.4378 31.9373 35.6538 32.0124 35.7603C33.1862 35.7135 34.0963 36.1607 34.5115 36.9882C34.5522 37.0703 34.5741 37.1603 34.5757 37.2517C34.5773 37.343 34.5586 37.4337 34.5209 37.5172C34.4831 37.6006 34.4273 37.675 34.3573 37.7348C34.2872 37.7947 34.2048 37.8388 34.1156 37.8638C33.5355 38.0288 32.7202 38.212 32.1087 38.1581C30.8831 39.6079 31.3841 42.2641 32.6276 43.8467L32.6765 43.9089L31.4445 44.1579L30.0127 42.1917C29.9844 42.1528 29.9434 42.1247 29.8965 42.112C29.8497 42.0993 29.7999 42.1029 29.7554 42.1221C29.7109 42.1414 29.6744 42.1751 29.6521 42.2176C29.6298 42.2602 29.623 42.309 29.6328 42.3559L30.0674 44.4383L27.3782 44.872Z" fill="#221F1F"/>
<path d="M94.1606 82.9998H8V82.7861H94.1998L94.1606 82.9998Z" fill="#DCDCDC"/>
<path d="M45.0276 56.0108L22.5543 71.6825L17.1689 64.1726L39.6422 48.501L45.0276 56.0108Z" fill="white"/>
<path d="M24.7556 66.7977C25.6355 66.1842 25.8444 64.9834 25.2221 64.1157C24.5999 63.248 23.3822 63.042 22.5024 63.6556C21.6225 64.2692 21.4136 65.47 22.0358 66.3377C22.658 67.2053 23.8757 67.4113 24.7556 66.7977Z" fill="#FF0D1B"/>
<path d="M26.5574 61.6133C26.4869 61.6624 26.4392 61.7371 26.4246 61.8209C26.41 61.9048 26.4298 61.9909 26.4796 62.0603C26.5294 62.1298 26.6051 62.1769 26.6902 62.1912C26.7752 62.2056 26.8625 62.1861 26.9329 62.137L39.4507 53.4078C39.5209 53.3586 39.5684 53.2839 39.5828 53.2002C39.5973 53.1165 39.5775 53.0306 39.5278 52.9612C39.4781 52.8919 39.4025 52.8448 39.3176 52.8304C39.2328 52.8159 39.1456 52.8352 39.0751 52.8841L26.5574 61.6133Z" fill="#DCDCDC"/>
<path d="M27.6836 63.1846C27.6132 63.2336 27.5654 63.3082 27.5507 63.392C27.536 63.4757 27.5556 63.5618 27.6052 63.6313C27.6548 63.7008 27.7304 63.748 27.8153 63.7626C27.9002 63.7772 27.9875 63.758 28.058 63.7091L28.0592 63.7083L37.9079 56.8404C37.9783 56.7913 38.026 56.7166 38.0406 56.6327C38.0552 56.5489 38.0354 56.4628 37.9856 56.3934C37.961 56.359 37.9297 56.3297 37.8936 56.3072C37.8574 56.2848 37.8172 56.2696 37.7751 56.2624C37.6901 56.2481 37.6027 56.2676 37.5323 56.3167L27.6836 63.1846Z" fill="#DCDCDC"/>
<path d="M45.0276 56.0108L22.5543 71.6825L17.1689 64.1726L39.6422 48.501L45.0276 56.0108ZM22.6855 70.9284L44.2628 55.8815L39.511 49.2551L17.9337 64.302L22.6855 70.9284Z" fill="#DCDCDC"/>
<path d="M96.343 53.2284C96.4227 53.2254 96.5021 53.2388 96.5763 53.2676C96.6467 53.2955 96.7106 53.3373 96.7638 53.3906C96.8173 53.4442 96.859 53.5081 96.8864 53.5783C96.9154 53.6527 96.9286 53.7321 96.9252 53.8117C96.922 53.8933 96.9027 53.9736 96.8685 54.048C96.835 54.121 96.7884 54.1874 96.7309 54.244C96.6739 54.3003 96.6068 54.3459 96.5332 54.3785C96.4584 54.4116 96.3777 54.4297 96.2958 54.432C96.216 54.4343 96.1366 54.4203 96.0627 54.3907C95.9926 54.3625 95.9292 54.3203 95.8764 54.2668C95.8234 54.213 95.7821 54.1491 95.7551 54.079C95.7267 54.0049 95.7138 53.9258 95.7174 53.8467C95.7207 53.7654 95.7399 53.6856 95.7739 53.6115C95.8072 53.5392 95.8534 53.4734 95.9102 53.4173C95.9669 53.3611 96.0334 53.3155 96.1066 53.2827C96.181 53.2495 96.2613 53.2311 96.343 53.2284Z" fill="#DCDCDC"/>
<path d="M33.161 60.8678L31.6996 52.9897L31.8025 48.1176L28.5088 48.0161L29.1264 53.4972L31.256 61.0976C31.0793 61.3095 30.971 61.5687 30.9451 61.8419C30.9192 62.1151 30.9769 62.3896 31.1108 62.6301C31.2447 62.8707 31.4486 63.0661 31.6962 63.1912C31.9438 63.3163 32.2237 63.3654 32.4999 63.3321C32.7761 63.2988 33.0358 63.1846 33.2455 63.0043C33.4552 62.8241 33.6054 62.5859 33.6765 62.3207C33.7477 62.0555 33.7366 61.7753 33.6447 61.5163C33.5528 61.2573 33.3843 61.0315 33.161 60.8678Z" fill="#FFD2BB"/>
<path d="M28.3027 48.5234C29.4961 48.0752 30.8148 48.0752 32.0082 48.5234L31.8023 44.4634C31.8023 44.2501 31.7597 44.0389 31.677 43.8419C31.5942 43.6448 31.4729 43.4658 31.32 43.315C31.167 43.1642 30.9855 43.0446 30.7857 42.963C30.5859 42.8814 30.3717 42.8394 30.1555 42.8394C29.9392 42.8394 29.725 42.8814 29.5252 42.963C29.3254 43.0446 29.1439 43.1642 28.9909 43.315C28.838 43.4658 28.7167 43.6448 28.634 43.8419C28.5512 44.0389 28.5086 44.2501 28.5086 44.4634L28.3027 48.5234Z" fill="#014898"/>
</g>
<defs>
<clipPath id="clip0_490_171784">
<rect width="90" height="55" fill="white" transform="translate(8 28)"/>
</clipPath>
</defs>
</svg>
