<svg width="111" height="110" viewBox="0 0 111 110" fill="none" xmlns="http://www.w3.org/2000/svg">
<g clip-path="url(#clip0_500_162628)">
<path d="M92.456 89.9069L92.3495 89.868C92.3261 89.8594 89.9963 88.9887 88.9049 87.0145C87.8135 85.0403 88.3479 82.6632 88.3534 82.6395L88.3786 82.5312L88.485 82.5702C88.5085 82.5788 90.8382 83.4495 91.9296 85.4236C93.021 87.3979 92.4866 89.7749 92.4811 89.7987L92.456 89.9069ZM89.0797 86.9226C90.0024 88.5918 91.8434 89.4475 92.3099 89.6428C92.3986 89.1551 92.6768 87.1831 91.7549 85.5155C90.8331 83.8482 88.9913 82.9912 88.5246 82.7954C88.4359 83.2834 88.1578 85.2552 89.0797 86.9226Z" fill="#221F1F"/>
<path d="M89.739 86.3252C91.7003 87.4762 92.4557 89.7624 92.4557 89.7624C92.4557 89.7624 90.0311 90.1824 88.0698 89.0314C86.1084 87.8805 85.353 85.5943 85.353 85.5943C85.353 85.5943 87.7776 85.1743 89.739 86.3252Z" fill="#014898"/>
<path d="M58.1631 57.9797C58.2582 57.8363 58.3833 57.7141 58.5301 57.6212C58.677 57.5282 58.8423 57.4665 59.0153 57.4402C59.1883 57.4139 59.365 57.4236 59.5339 57.4686C59.7028 57.5135 59.86 57.5928 59.9953 57.7012C60.038 57.7357 60.0782 57.773 60.1155 57.813L64.9999 57.1194L65.2718 53.5368C65.2926 53.262 65.4245 53.0064 65.6385 52.8265C65.8524 52.6465 66.1309 52.5567 66.4127 52.577C66.6945 52.5973 66.9565 52.726 67.141 52.9347C67.3255 53.1434 67.4175 53.4151 67.3967 53.6899C67.3962 53.6963 67.3957 53.7027 67.3951 53.709L66.9189 58.7361L66.9166 58.7473C66.8547 58.9405 66.7305 59.1091 66.5625 59.228C66.3945 59.347 66.1917 59.4099 65.9841 59.4076L60.239 59.3108C60.2167 59.344 60.1926 59.3761 60.1669 59.4068C60.0558 59.5388 59.9173 59.6463 59.7606 59.7225C59.6038 59.7986 59.4324 59.8415 59.2574 59.8485C59.0825 59.8555 58.908 59.8264 58.7455 59.763C58.5829 59.6996 58.4359 59.6034 58.314 59.4808C58.2893 59.4561 58.2659 59.4306 58.2437 59.4042C58.0782 59.2053 57.9812 58.9605 57.9667 58.7047C57.9523 58.4489 58.021 58.1952 58.1631 57.9797Z" fill="#FFD2BB"/>
<path d="M68.0105 88.5264L66.6173 88.5263L65.9546 83.2852L68.0107 83.2853L68.0105 88.5264Z" fill="#FFD2BB"/>
<path d="M68.366 89.843L63.874 89.8428V89.7874C63.8741 89.3351 64.0583 88.9013 64.3862 88.5815C64.714 88.2617 65.1587 88.0821 65.6224 88.082H65.6225L68.3661 88.0821L68.366 89.843Z" fill="#221F1F"/>
<path d="M77.745 87.2926L76.4265 87.7312L74.0645 82.9794L76.0106 82.332L77.745 87.2926Z" fill="#FFD2BB"/>
<path d="M78.5172 88.4283L74.2657 89.8426L74.2474 89.7902C74.0977 89.3621 74.1285 88.8936 74.333 88.4877C74.5375 88.0817 74.8989 87.7716 75.3377 87.6256L75.3378 87.6256L77.9345 86.7617L78.5172 88.4283Z" fill="#221F1F"/>
<path d="M69.5447 42.6982C69.5447 42.6982 68.1581 42.2516 67.2667 44.0382C66.3754 45.8248 64.9888 47.7901 64.9888 47.7901L65.7811 47.9688C65.7811 47.9688 65.9792 46.7181 66.4744 46.5395L66.2763 48.1474C66.2763 48.1474 72.2189 50.0234 74.893 47.9688L74.7939 47.3435C74.7939 47.3435 75.1901 47.4328 75.1901 47.9688L75.4872 47.7008C75.4872 47.7008 75.1901 47.1648 74.2987 46.4501C73.7137 45.9811 73.5126 45.0887 73.4435 44.5307C73.3887 44.0584 73.1811 43.6153 72.8506 43.2659C72.2583 42.6466 71.1789 41.9885 69.5447 42.6982Z" fill="#221F1F"/>
<path d="M70.0555 48.9404C71.4542 48.9404 72.588 47.8345 72.588 46.4702C72.588 45.106 71.4542 44 70.0555 44C68.6568 44 67.5229 45.106 67.5229 46.4702C67.5229 47.8345 68.6568 48.9404 70.0555 48.9404Z" fill="#FFD2BB"/>
<path d="M66.6789 50.9739L66.2184 50.8242C66.2184 50.8242 65.2975 51.1985 65.2975 51.8722C65.2975 52.5459 65.144 55.2407 65.144 55.2407L67.2161 55.4652L66.6789 50.9739Z" fill="#DCDCDC"/>
<path d="M74.9203 65.7001C74.7293 65.4913 74.6215 65.2227 74.6165 64.9429C74.6115 64.6632 74.7096 64.391 74.8929 64.1758L73.6003 53.6167C73.5876 53.3677 73.6768 53.124 73.8482 52.939C74.0195 52.7541 74.2592 52.643 74.5144 52.6302C74.7697 52.6173 75.0197 52.7038 75.2097 52.8706C75.3997 53.0374 75.514 53.2709 75.5277 53.5199C75.5278 53.5233 75.528 53.5268 75.5281 53.5302L76.6845 64.1005C76.7265 64.1416 76.7651 64.1857 76.8001 64.2325C76.8929 64.3576 76.9595 64.4993 76.9961 64.6495C77.0327 64.7997 77.0386 64.9555 77.0135 65.108C76.9884 65.2604 76.9327 65.4065 76.8497 65.538C76.7667 65.6694 76.658 65.7837 76.5297 65.8741C76.5164 65.8835 76.5029 65.8926 76.4893 65.9015C76.3408 65.9973 76.1724 66.0599 75.9961 66.0848C75.8199 66.1096 75.6402 66.0961 75.4699 66.0452C75.2573 65.9824 75.067 65.8628 74.9203 65.7001Z" fill="#FFD2BB"/>
<path d="M73.7363 55.2426L75.8084 55.018C75.8084 55.018 75.6549 52.3232 75.6549 51.6495C75.6549 50.9758 74.734 50.6016 74.734 50.6016L74.2735 50.7513L73.7363 55.2426Z" fill="#DCDCDC"/>
<path d="M66.986 58.9818C66.986 58.9818 65.2209 62.1295 65.2209 65.9471C65.2209 69.7647 65.0674 87.2807 65.0674 87.2807C65.0674 87.2807 67.3697 88.3287 68.7511 87.0562L69.9789 67.6688L74.8138 86.6819C74.8138 86.6819 77.1161 87.131 78.1905 86.3825L76.1184 73.1332C76.1184 73.1332 75.2742 60.7073 72.9719 59.809C70.6696 58.9108 66.986 58.9818 66.986 58.9818Z" fill="#014898"/>
<path d="M67.3189 46.4851C68.2155 45.8523 68.9412 45.1233 69.4213 44.2562C69.4213 44.2562 71.0666 46.0394 72.072 46.1285C73.0775 46.2177 72.1634 43.9888 72.1634 43.9888L70.3353 43.543L68.5986 43.7213L67.2275 44.6128L67.3189 46.4851Z" fill="#221F1F"/>
<path d="M72.588 50.1526C72.588 50.1526 72.661 50.1143 68.2906 50.2696L66.4614 50.761L66.2183 50.8263C66.2183 50.8263 66.4485 55.3176 67.0624 56.141C67.6764 56.9644 67.5229 57.4135 67.3694 57.4884C67.2159 57.5632 66.8322 57.4135 67.0624 57.7878C67.2927 58.1621 67.5996 57.9375 67.2927 58.1621C66.9857 58.3866 66.8322 59.21 66.8322 59.21L73.5856 60.1083C73.5856 60.1083 73.8158 57.189 74.4298 55.6919C75.0437 54.1948 75.1972 53.5959 75.1972 53.5959L74.7368 50.6017L72.588 50.1526Z" fill="#DCDCDC"/>
<path d="M59.7486 37.3831H59.3603V27.006C59.3603 25.4131 58.7116 23.8855 57.5568 22.7591C56.4021 21.6328 54.8359 21 53.2028 21L30.6629 21C29.0298 21 27.4636 21.6328 26.3089 22.7591C25.1541 23.8854 24.5054 25.4131 24.5054 27.006V83.9355C24.5054 85.5284 25.1541 87.056 26.3089 88.1824C27.4636 89.3087 29.0298 89.9415 30.6629 89.9415H53.2028C54.0114 89.9415 54.8121 89.7861 55.5592 89.4843C56.3062 89.1825 56.985 88.7401 57.5568 88.1824C58.1286 87.6247 58.5821 86.9626 58.8916 86.2339C59.201 85.5052 59.3603 84.7243 59.3603 83.9355V44.7697H59.7486L59.7486 37.3831Z" fill="#221F1F"/>
<path d="M58.0498 27.0479V83.8937C58.0503 84.4822 57.932 85.065 57.7016 85.6089C57.4712 86.1528 57.1332 86.6471 56.707 87.0636C56.2807 87.4801 55.7746 87.8107 55.2173 88.0364C54.6601 88.2621 54.0628 88.3785 53.4595 88.379H30.8031C29.5844 88.3799 28.4152 87.9084 27.5528 87.0685C26.6904 86.2285 26.2055 85.0888 26.2046 83.9V27.0479C26.2042 26.4592 26.3226 25.8763 26.5531 25.3324C26.7837 24.7884 27.1218 24.294 27.5482 23.8775C27.9746 23.461 28.481 23.1305 29.0383 22.9049C29.5957 22.6793 30.1932 22.5629 30.7966 22.5625H33.5505C33.4152 22.8861 33.3636 23.2371 33.4001 23.5847C33.4367 23.9323 33.5603 24.2658 33.7602 24.5558C33.96 24.8458 34.23 25.0834 34.5461 25.2477C34.8623 25.412 35.2151 25.4979 35.5733 25.4979H48.4865C48.8447 25.4979 49.1975 25.412 49.5137 25.2477C49.8299 25.0834 50.0998 24.8458 50.2996 24.5558C50.4995 24.2658 50.6231 23.9323 50.6597 23.5847C50.6963 23.2371 50.6446 22.8861 50.5093 22.5625H53.4512C54.6698 22.5614 55.8388 23.0326 56.7012 23.8722C57.5636 24.7119 58.0487 25.8513 58.0498 27.0398L58.0498 27.0479Z" fill="white"/>
<path d="M58.0497 35.458V33.5218H55.0453V22.8394C54.535 22.6556 53.9952 22.5618 53.4512 22.5625H53.0602V33.5218H42.6383V25.4979H40.6532V33.5218H31.9187V22.5625H30.8031C30.5113 22.5621 30.2201 22.589 29.9336 22.6429V33.5218H26.2046V35.458H29.9336V39.9367L26.2046 42.0365V44.2729L29.9336 42.1731V55.4984H26.2046V57.4346H29.9336V76.7005H26.2046V78.6367H29.9336V88.2987C30.2201 88.3526 30.5113 88.3795 30.8031 88.379H31.9187V78.6367H40.6532V88.379H42.6383V78.6367H53.0602V88.379H53.4512C53.9952 88.3797 54.535 88.286 55.0453 88.1021V78.6367H58.0497V76.7005H55.0453V68.2777H58.0229V66.3415H55.0453V57.4346H58.0497V55.4984H55.0453V43.6872H58.0497V41.7509H55.0453V35.458L58.0497 35.458ZM37.887 35.458L31.9188 38.8194L31.9187 35.458H37.887ZM31.9187 41.0549L40.6532 36.1358V55.4984H31.9187V41.0549ZM31.9187 76.7005V57.4346H40.6532V76.7005H31.9187ZM53.0602 76.7005H42.6383V68.2777H53.0602V76.7005ZM53.0602 66.3415H42.6383V57.4346H53.0602V66.3415ZM53.0602 55.4984H42.6383V43.6872H53.0602V55.4984ZM53.0602 41.7509H42.6383V35.458H53.0602V41.7509Z" fill="#DCDCDC"/>
<path d="M59.7101 41.7859C59.7101 47.9347 48.2957 61.6326 48.2957 61.6326C48.2957 61.6326 36.8813 47.9347 36.8813 41.7859C36.8813 38.8331 38.0839 36.0012 40.2245 33.9133C42.3652 31.8253 45.2685 30.6523 48.2957 30.6523C51.323 30.6523 54.2263 31.8253 56.3669 33.9133C58.5075 36.0012 59.7101 38.8331 59.7101 41.7859Z" fill="#FF0D1B"/>
<path d="M55.0451 41.302C55.0451 42.6041 54.6493 43.8769 53.9077 44.9595C53.166 46.0422 52.1119 46.8859 50.8786 47.3842C49.6454 47.8825 48.2883 48.0129 46.979 47.7589C45.6698 47.5048 44.4672 46.8778 43.5232 45.9571C42.5793 45.0365 41.9365 43.8634 41.6761 42.5864C41.4157 41.3094 41.5493 39.9857 42.0602 38.7827C42.571 37.5798 43.4361 36.5516 44.546 35.8282C45.6559 35.1049 46.9609 34.7188 48.2958 34.7188C49.1817 34.7184 50.059 34.8882 50.8777 35.2185C51.6963 35.5488 52.4403 36.0332 53.067 36.6439C53.6938 37.2547 54.191 37.9799 54.5304 38.7781C54.8698 39.5763 55.0447 40.4319 55.0451 41.296V41.302Z" fill="white"/>
<path d="M48.2723 43.9013C49.661 43.9013 50.7868 42.8032 50.7868 41.4487C50.7868 40.0942 49.661 38.9961 48.2723 38.9961C46.8836 38.9961 45.7578 40.0942 45.7578 41.4487C45.7578 42.8032 46.8836 43.9013 48.2723 43.9013Z" fill="#FF0D1B"/>
<path d="M51.922 47.0508C50.8381 47.7231 49.5801 48.0801 48.2956 48.0799C47.0111 48.0797 45.7532 47.7224 44.6694 47.0498C44.8948 46.2813 45.3707 45.6053 46.025 45.1241C46.6794 44.6429 47.4766 44.3827 48.2961 44.3828C49.1156 44.3829 49.9127 44.6434 50.567 45.1247C51.2212 45.6061 51.6968 46.2822 51.922 47.0508Z" fill="#FF0D1B"/>
<path d="M48.2957 69.6704C49.995 69.6704 51.3726 68.3267 51.3726 66.6692C51.3726 65.0117 49.995 63.668 48.2957 63.668C46.5963 63.668 45.2188 65.0117 45.2188 66.6692C45.2188 68.3267 46.5963 69.6704 48.2957 69.6704Z" fill="#FF0D1B"/>
<path d="M95.9007 89.9983H16.0993C16.0729 89.9983 16.0477 89.9881 16.0291 89.97C16.0105 89.9518 16 89.9272 16 89.9015C16 89.8758 16.0105 89.8512 16.0291 89.833C16.0477 89.8149 16.0729 89.8047 16.0993 89.8047H95.9007C95.9271 89.8047 95.9523 89.8149 95.9709 89.833C95.9895 89.8512 96 89.8758 96 89.9015C96 89.9272 95.9895 89.9518 95.9709 89.97C95.9523 89.9881 95.9271 89.9983 95.9007 89.9983Z" fill="#DCDCDC"/>
</g>
<defs>
<clipPath id="clip0_500_162628">
<rect width="80" height="69" fill="white" transform="translate(16 21)"/>
</clipPath>
</defs>
</svg>
