<svg width="111" height="110" viewBox="0 0 111 110" fill="none" xmlns="http://www.w3.org/2000/svg">
<g clip-path="url(#clip0_492_172582)">
<path d="M83.3132 76.5337C82.0308 80.2043 80.3817 83.8671 78.269 87.3532C78.2221 87.4317 78.1747 87.5086 78.1269 87.5869L72.8965 85.9697C72.9266 85.8957 72.9595 85.8129 72.9949 85.7226C75.1046 80.3907 87.8325 47.905 87.2612 41.5C87.3227 42.0243 89.3138 59.3748 83.3132 76.5337Z" fill="#DCDCDC"/>
<path d="M79.2799 87.6656C79.2088 87.7366 79.1359 87.807 79.0624 87.8759L75.1387 86.6628C75.1917 86.6001 75.2535 86.5262 75.3245 86.4426C76.4866 85.0557 79.9414 80.9032 83.315 76.5341C86.9404 71.8388 90.4727 66.8941 90.9677 64.8623C90.8683 65.3243 87.7722 79.3891 79.2799 87.6656Z" fill="#DCDCDC"/>
<path d="M81.2404 33.575C81.2389 33.575 81.2376 33.5754 81.2361 33.5754V25.3555C81.2361 24.4656 80.8744 23.6121 80.2305 22.9828C79.5866 22.3535 78.7132 22 77.8026 22H51.4701C50.5595 22 49.6861 22.3535 49.0422 22.9828C48.3983 23.6121 48.0366 24.4656 48.0366 25.3555V29.5695C47.9639 29.571 47.8947 29.6003 47.8438 29.651C47.7929 29.7018 47.7644 29.77 47.7643 29.8411V31.9283C47.7644 31.9993 47.7929 32.0676 47.8438 32.1183C47.8947 32.1691 47.9639 32.1983 48.0366 32.1998V34.3864H48.0226C47.9861 34.3864 47.9499 34.3934 47.9161 34.4071C47.8823 34.4208 47.8516 34.4408 47.8257 34.4661C47.7998 34.4914 47.7793 34.5214 47.7653 34.5544C47.7513 34.5874 47.7441 34.6228 47.7441 34.6586V38.6947C47.7441 38.7305 47.7513 38.7659 47.7653 38.7989C47.7793 38.8319 47.7998 38.8619 47.8257 38.8872C47.8516 38.9125 47.8823 38.9325 47.9161 38.9462C47.9499 38.9599 47.9861 38.9669 48.0226 38.9669H48.0366V40.57H48.0323C47.9957 40.57 47.9595 40.577 47.9257 40.5907C47.8919 40.6044 47.8612 40.6244 47.8353 40.6497C47.8095 40.6749 47.789 40.705 47.775 40.738C47.761 40.771 47.7538 40.8064 47.7538 40.8421V44.9178C47.7538 44.9535 47.761 44.9889 47.775 45.0219C47.789 45.055 47.8095 45.085 47.8353 45.1103C47.8612 45.1355 47.8919 45.1556 47.9257 45.1693C47.9595 45.1829 47.9957 45.19 48.0323 45.19H48.0366V84.586C48.0366 85.4759 48.3983 86.3294 49.0422 86.9587C49.6861 87.588 50.5595 87.9415 51.4701 87.9415H77.8026C78.7132 87.9415 79.5866 87.588 80.2305 86.9587C80.8744 86.3294 81.2361 85.4759 81.2361 84.586V41.568C81.2376 41.568 81.2389 41.5684 81.2404 41.5684C81.3055 41.5684 81.37 41.5559 81.4302 41.5315C81.4904 41.5072 81.545 41.4715 81.5911 41.4265C81.6371 41.3815 81.6737 41.328 81.6986 41.2692C81.7235 41.2104 81.7364 41.1474 81.7364 41.0838V34.0597C81.7364 33.9311 81.6841 33.8078 81.5911 33.7169C81.4981 33.626 81.372 33.575 81.2404 33.575Z" fill="#014898"/>
<path d="M79.1853 26.2948V83.6459C79.185 84.3292 78.9071 84.9844 78.4126 85.4675C77.9181 85.9506 77.2476 86.222 76.5484 86.222H52.7228C52.0237 86.222 51.3531 85.9506 50.8586 85.4675C50.3641 84.9844 50.0862 84.3292 50.0859 83.6459V26.2948C50.0859 25.6113 50.3638 24.9559 50.8583 24.4726C51.3528 23.9893 52.0235 23.7178 52.7228 23.7178H56.2881V24.17C56.2884 24.7327 56.5172 25.2723 56.9243 25.6702C57.3315 26.0681 57.8836 26.2917 58.4594 26.292H70.5809C71.156 26.2907 71.707 26.0666 72.1131 25.6688C72.5193 25.271 72.7474 24.732 72.7474 24.17V23.7225H76.5484C77.2469 23.7225 77.9169 23.9933 78.4112 24.4756C78.9056 24.9579 79.184 25.6122 79.1853 26.2948Z" fill="white"/>
<path d="M40.5516 54.1804C40.4107 54.1271 40.2596 54.1047 40.1088 54.1146C39.9581 54.1245 39.8114 54.1667 39.6791 54.238C39.5468 54.3093 39.4322 54.4082 39.3432 54.5275C39.2542 54.6468 39.1931 54.7838 39.1641 54.9287L30.6738 59.4404L32.1666 61.0824L40.0514 56.1371C40.3037 56.1685 40.5591 56.1084 40.7691 55.9681C40.9791 55.8278 41.1291 55.6171 41.1908 55.3759C41.2524 55.1347 41.2214 54.8798 41.1036 54.6595C40.9858 54.4392 40.7894 54.2687 40.5516 54.1804Z" fill="#FFD2BB"/>
<path d="M38.3856 86.6421L39.4435 85.9733L37.3076 81.667L35.7461 82.654L38.3856 86.6421Z" fill="#FFD2BB"/>
<path d="M42.1191 85.6435L38.7941 87.7454L37.9632 86.4899L40.0516 85.1698C40.3795 84.9625 40.7783 84.891 41.1603 84.971C41.5422 85.051 41.8759 85.2761 42.0881 85.5966L42.1191 85.6435Z" fill="#221F1F"/>
<path d="M26.5156 86.7975H27.7756L28.3752 82.0479H26.5156V86.7975Z" fill="#FFD2BB"/>
<path d="M30.2051 87.9414H26.2451V86.4462H28.7323C28.9257 86.4462 29.1172 86.4834 29.2959 86.5557C29.4746 86.6281 29.637 86.7341 29.7737 86.8677C29.9105 87.0014 30.019 87.1601 30.093 87.3347C30.167 87.5093 30.2051 87.6965 30.2051 87.8855V87.9414Z" fill="#221F1F"/>
<path d="M55.422 31.307H52.8245C52.7607 31.307 52.6995 31.2822 52.6544 31.2382C52.6093 31.1941 52.584 31.1343 52.584 31.072C52.584 31.0096 52.6093 30.9498 52.6544 30.9058C52.6995 30.8617 52.7607 30.8369 52.8245 30.8369H55.422C55.4857 30.8369 55.5469 30.8617 55.592 30.9058C55.6371 30.9498 55.6625 31.0096 55.6625 31.072C55.6625 31.1343 55.6371 31.1941 55.592 31.2382C55.5469 31.2822 55.4857 31.307 55.422 31.307Z" fill="#014898"/>
<path d="M55.422 31.9652H52.8245C52.7607 31.9652 52.6995 31.9404 52.6544 31.8964C52.6093 31.8523 52.584 31.7925 52.584 31.7302C52.584 31.6678 52.6093 31.608 52.6544 31.564C52.6995 31.5199 52.7607 31.4951 52.8245 31.4951H55.422C55.4857 31.4951 55.5469 31.5199 55.592 31.564C55.6371 31.608 55.6625 31.6678 55.6625 31.7302C55.6625 31.7925 55.6371 31.8523 55.592 31.8964C55.5469 31.9404 55.4857 31.9652 55.422 31.9652Z" fill="#014898"/>
<path d="M55.422 32.6234H52.8245C52.7607 32.6234 52.6995 32.5986 52.6544 32.5546C52.6093 32.5105 52.584 32.4507 52.584 32.3884C52.584 32.326 52.6093 32.2662 52.6544 32.2222C52.6995 32.1781 52.7607 32.1533 52.8245 32.1533H55.422C55.4857 32.1533 55.5469 32.1781 55.592 32.2222C55.6371 32.2662 55.6625 32.326 55.6625 32.3884C55.6625 32.4507 55.6371 32.5105 55.592 32.5546C55.5469 32.5986 55.4857 32.6234 55.422 32.6234Z" fill="#014898"/>
<path d="M75.5572 31.9698H75.4697L75.436 31.9426C75.5466 31.8138 75.6072 31.651 75.6073 31.4828C75.6065 31.3445 75.5638 31.2095 75.4845 31.0949C75.4052 30.9802 75.2929 30.8912 75.1619 30.8389C75.0308 30.7867 74.8868 30.7736 74.7481 30.8013C74.6094 30.829 74.4823 30.8963 74.3827 30.9947C74.2831 31.093 74.2157 31.218 74.1888 31.3538C74.1619 31.4897 74.1769 31.6302 74.2317 31.7578C74.2866 31.8853 74.379 31.994 74.4971 32.0703C74.6152 32.1465 74.7538 32.1868 74.8954 32.1861C75.0669 32.1849 75.2328 32.1258 75.3648 32.0187L75.3975 32.046V32.1325L75.9497 32.6731L76.1152 32.5114L75.5572 31.9698ZM74.8954 31.9698C74.7968 31.9702 74.7003 31.942 74.6182 31.8888C74.536 31.8356 74.4719 31.7598 74.4338 31.6709C74.3957 31.5821 74.3855 31.4842 74.4043 31.3897C74.4232 31.2951 74.4703 31.2082 74.5397 31.1398C74.6091 31.0714 74.6977 31.0247 74.7943 31.0056C74.8909 30.9864 74.9912 30.9957 75.0824 31.0322C75.1736 31.0687 75.2516 31.1308 75.3067 31.2107C75.3618 31.2906 75.3914 31.3846 75.3918 31.481L75.3918 31.4828C75.3921 31.5464 75.3797 31.6095 75.3552 31.6683C75.3306 31.7272 75.2944 31.7808 75.2487 31.826C75.203 31.8713 75.1486 31.9072 75.0886 31.9319C75.0286 31.9566 74.9643 31.9695 74.8992 31.9698C74.8979 31.9698 74.8966 31.9699 74.8954 31.9698Z" fill="#014898"/>
<path d="M60.7148 39.9571H56.0485C55.7678 39.9571 55.4986 39.8481 55.3002 39.6542C55.1017 39.4602 54.9902 39.1972 54.9902 38.9229C54.9902 38.6486 55.1017 38.3855 55.3002 38.1916C55.4986 37.9976 55.7678 37.8887 56.0485 37.8887H60.7148C60.9955 37.8887 61.2646 37.9976 61.4631 38.1916C61.6615 38.3855 61.773 38.6486 61.773 38.9229C61.773 39.1972 61.6615 39.4602 61.4631 39.6542C61.2646 39.8481 60.9955 39.9571 60.7148 39.9571Z" fill="#FF0D1B"/>
<path d="M75.0004 42.2132H55.5674C55.4144 42.2132 55.2675 42.1537 55.1593 42.048C55.0511 41.9422 54.9902 41.7987 54.9902 41.6491C54.9902 41.4995 55.0511 41.356 55.1593 41.2502C55.2675 41.1444 55.4144 41.085 55.5674 41.085H75.0004C75.1534 41.085 75.3003 41.1444 75.4085 41.2502C75.5168 41.356 75.5776 41.4995 75.5776 41.6491C75.5776 41.7987 75.5168 41.9422 75.4085 42.048C75.3003 42.1537 75.1534 42.2132 75.0004 42.2132Z" fill="#DCDCDC"/>
<path d="M62.7057 44.47H55.5674C55.4144 44.47 55.2675 44.4106 55.1593 44.3048C55.0511 44.199 54.9902 44.0555 54.9902 43.9059C54.9902 43.7563 55.0511 43.6128 55.1593 43.507C55.2675 43.4012 55.4144 43.3418 55.5674 43.3418H62.7057C62.8588 43.3418 63.0056 43.4012 63.1139 43.507C63.2221 43.6128 63.2829 43.7563 63.2829 43.9059C63.2829 44.0555 63.2221 44.199 63.1139 44.3048C63.0056 44.4106 62.8588 44.47 62.7057 44.47Z" fill="#DCDCDC"/>
<path d="M60.7148 64.9659H56.0485C55.7678 64.9659 55.4986 64.8569 55.3002 64.663C55.1017 64.469 54.9902 64.2059 54.9902 63.9317C54.9902 63.6574 55.1017 63.3943 55.3002 63.2004C55.4986 63.0064 55.7678 62.8975 56.0485 62.8975H60.7148C60.9955 62.8975 61.2646 63.0064 61.4631 63.2004C61.6615 63.3943 61.773 63.6574 61.773 63.9317C61.773 64.2059 61.6615 64.469 61.4631 64.663C61.2646 64.8569 60.9955 64.9659 60.7148 64.9659Z" fill="#FF0D1B"/>
<path d="M75.0004 67.222H55.5674C55.4144 67.222 55.2675 67.1625 55.1593 67.0567C55.0511 66.951 54.9902 66.8075 54.9902 66.6579C54.9902 66.5082 55.0511 66.3648 55.1593 66.259C55.2675 66.1532 55.4144 66.0938 55.5674 66.0938H75.0004C75.1534 66.0937 75.3003 66.1532 75.4085 66.259C75.5168 66.3648 75.5776 66.5082 75.5776 66.6579C75.5776 66.8075 75.5168 66.951 75.4085 67.0567C75.3003 67.1625 75.1534 67.222 75.0004 67.222Z" fill="#DCDCDC"/>
<path d="M62.7057 69.4788H55.5674C55.4144 69.4788 55.2675 69.4194 55.1593 69.3136C55.0511 69.2078 54.9902 69.0643 54.9902 68.9147C54.9902 68.7651 55.0511 68.6216 55.1593 68.5158C55.2675 68.41 55.4144 68.3506 55.5674 68.3506H62.7057C62.8588 68.3506 63.0056 68.41 63.1139 68.5158C63.2221 68.6216 63.2829 68.7651 63.2829 68.9147C63.2829 69.0643 63.2221 69.2078 63.1139 69.3136C63.0056 69.4194 62.8588 69.4788 62.7057 69.4788Z" fill="#DCDCDC"/>
<path d="M60.7148 76.5293H56.0485C55.7678 76.5293 55.4986 76.4204 55.3002 76.2264C55.1017 76.0325 54.9902 75.7694 54.9902 75.4951C54.9902 75.2209 55.1017 74.9578 55.3002 74.7638C55.4986 74.5699 55.7678 74.4609 56.0485 74.4609H60.7148C60.9955 74.4609 61.2646 74.5699 61.4631 74.7638C61.6615 74.9578 61.773 75.2209 61.773 75.4951C61.773 75.7694 61.6615 76.0325 61.4631 76.2264C61.2646 76.4204 60.9955 76.5293 60.7148 76.5293Z" fill="#FF0D1B"/>
<path d="M75.0004 78.7864H55.5674C55.4144 78.7864 55.2675 78.727 55.1593 78.6212C55.0511 78.5154 54.9902 78.3719 54.9902 78.2223C54.9902 78.0727 55.0511 77.9292 55.1593 77.8234C55.2675 77.7176 55.4144 77.6582 55.5674 77.6582H75.0004C75.1534 77.6582 75.3003 77.7176 75.4085 77.8234C75.5168 77.9292 75.5776 78.0727 75.5776 78.2223C75.5776 78.3719 75.5168 78.5154 75.4085 78.6212C75.3003 78.727 75.1534 78.7864 75.0004 78.7864Z" fill="#DCDCDC"/>
<path d="M62.7057 81.0423H55.5674C55.4144 81.0423 55.2675 80.9828 55.1593 80.8771C55.0511 80.7713 54.9902 80.6278 54.9902 80.4782C54.9902 80.3286 55.0511 80.1851 55.1593 80.0793C55.2675 79.9735 55.4144 79.9141 55.5674 79.9141H62.7057C62.8588 79.9141 63.0056 79.9735 63.1139 80.0793C63.2221 80.1851 63.2829 80.3286 63.2829 80.4782C63.2829 80.6278 63.2221 80.7713 63.1139 80.8771C63.0056 80.9828 62.8588 81.0423 62.7057 81.0423Z" fill="#DCDCDC"/>
<path d="M77.741 59.0894H40.6068C40.39 59.0891 40.1821 59.0048 40.0288 58.855C39.8755 58.7052 39.7893 58.5021 39.7891 58.2902V48.4183C39.7893 48.2064 39.8755 48.0033 40.0288 47.8535C40.1821 47.7036 40.39 47.6194 40.6068 47.6191H77.741C77.9578 47.6194 78.1656 47.7037 78.3189 47.8535C78.4722 48.0033 78.5584 48.2064 78.5587 48.4183V58.2902C78.5584 58.5021 78.4722 58.7052 78.3189 58.855C78.1656 59.0048 77.9578 59.0891 77.741 59.0894Z" fill="#FF0D1B"/>
<path d="M27.2581 70.8337C27.6131 73.2679 25.7333 84.0517 25.942 84.0508L28.6415 84.0367C28.7377 83.8562 29.9767 78.0374 30.3654 77.1038C30.908 75.8082 31.4554 74.4967 31.669 73.1127C31.87 71.8134 31.7709 70.4896 31.6401 69.1818C31.6462 69.1429 31.6427 69.1032 31.63 69.0658C31.6172 69.0285 31.5956 68.9947 31.5668 68.9671C31.5381 68.9396 31.503 68.9191 31.4646 68.9074C31.4261 68.8957 31.3854 68.8931 31.3457 68.8998L27.7237 68.7174C26.9772 68.6798 26.8001 68.5199 26.9137 69.2364C26.9925 69.7713 27.1792 70.2922 27.2581 70.8337Z" fill="#221F1F"/>
<path d="M27.9694 64.9159C27.2335 65.9501 26.4619 67.1403 26.7063 68.3786C26.8919 69.3187 27.625 70.0474 28.3167 70.729C31.0816 73.4424 36.5333 85.4147 36.5333 85.4147C39.1643 83.7693 36.4707 85.4617 39.1404 83.7223C38.9038 83.7045 33.527 64.8153 33.0816 64.7899C31.2797 64.6733 29.7251 64.5013 27.9694 64.9159Z" fill="#221F1F"/>
<path d="M30.8799 55.0716C30.5061 54.7458 27.8792 53.7411 27.8792 53.7411C27.8309 53.7349 27.7818 53.7363 27.734 53.7454C27.5845 53.7823 27.5163 53.9638 27.5482 54.1106C27.5802 54.2574 27.3182 56.6702 27.2507 57.7674C27.1324 59.6823 28.2863 64.0199 28.2761 64.1526C28.2366 64.6256 28.0247 65.069 27.6789 65.4022C27.7687 65.5112 33.4765 65.7299 33.8648 65.859C33.9431 65.7618 33.4228 58.8816 33.3989 58.4929C33.3589 57.9029 31.3734 55.5184 30.8799 55.0716Z" fill="#DCDCDC"/>
<path d="M26.8088 70.0007C26.9441 69.9349 27.0629 69.8409 27.157 69.7254C27.2511 69.6099 27.3181 69.4756 27.3533 69.332C27.3886 69.1884 27.3912 69.039 27.3609 68.8943C27.3307 68.7497 27.2684 68.6132 27.1784 68.4946L29.5866 55.4694L27.3393 55.4404L25.6669 68.3207C25.4731 68.4817 25.3464 68.7066 25.3109 68.9528C25.2755 69.199 25.3336 69.4493 25.4743 69.6564C25.6151 69.8635 25.8287 70.0129 26.0746 70.0763C26.3206 70.1398 26.5818 70.1129 26.8088 70.0007Z" fill="#FFD2BB"/>
<path d="M26.7905 56.4362C26.6968 56.4428 26.6034 56.419 26.525 56.3685C26.3913 56.2566 27.4822 54.5445 27.6977 54.5191C28.399 54.4402 29.1205 54.4138 29.8007 54.5991C30.4808 54.7843 31.1206 55.2055 31.4246 55.8288C31.5516 56.0883 30.6309 57.3942 30.2124 57.2024C29.7112 56.973 27.4505 56.4522 26.7905 56.4362Z" fill="#DCDCDC"/>
<path d="M29.2664 53.6008C30.6605 53.6008 31.7907 52.4964 31.7907 51.1339C31.7907 49.7715 30.6605 48.667 29.2664 48.667C27.8723 48.667 26.7422 49.7715 26.7422 51.1339C26.7422 52.4964 27.8723 53.6008 29.2664 53.6008Z" fill="#FFD2BB"/>
<path d="M26.7865 55.2128C27.1373 55.2486 27.4917 55.198 27.8173 55.0654C28.1428 54.9328 28.4292 54.7226 28.6501 54.4539C28.871 54.1852 29.0195 53.8667 29.0819 53.5275C29.1444 53.1882 29.1187 52.8391 29.0074 52.512C28.907 52.2169 28.7391 51.9464 28.6471 51.6486C28.5551 51.3508 28.5526 50.9987 28.7566 50.76C29.1558 50.2929 29.9253 50.5867 30.5407 50.4938C31.1965 50.3949 31.6996 49.78 31.7521 49.1336C31.8045 48.4871 31.4598 47.8474 30.9465 47.4364C30.4333 47.0254 29.7713 46.823 29.111 46.7596C28.2629 46.6781 27.4076 46.8115 26.6276 47.1467C25.8475 47.482 25.1689 48.0078 24.6571 48.6737C24.1452 49.3396 23.8175 50.123 23.7053 50.9486C23.5931 51.7742 23.7003 52.6141 24.0166 53.3874C24.2925 54.062 24.7431 54.6904 25.3832 55.0598C26.0233 55.4293 26.8687 55.5003 27.5067 55.1273" fill="#221F1F"/>
<path d="M53.8148 52.1319H47.3641C46.9544 52.1319 46.6211 51.6679 46.6211 51.0977C46.6211 50.5274 46.9544 50.0635 47.3641 50.0635H53.8148C54.2245 50.0635 54.5578 50.5274 54.5578 51.0977C54.5578 51.6679 54.2245 52.1319 53.8148 52.1319Z" fill="white"/>
<path d="M71.1527 54.389H47.1983C47.0452 54.389 46.8984 54.3295 46.7902 54.2237C46.6819 54.1179 46.6211 53.9745 46.6211 53.8249C46.6211 53.6752 46.6819 53.5318 46.7902 53.426C46.8984 53.3202 47.0452 53.2607 47.1983 53.2607H71.1527C71.3058 53.2607 71.4526 53.3202 71.5609 53.426C71.6691 53.5318 71.73 53.6752 71.73 53.8249C71.73 53.9745 71.6691 54.1179 71.5609 54.2237C71.4526 54.3295 71.3058 54.389 71.1527 54.389Z" fill="#DCDCDC"/>
<path d="M58.8581 56.6448H47.1983C47.0452 56.6448 46.8984 56.5854 46.7902 56.4796C46.6819 56.3738 46.6211 56.2303 46.6211 56.0807C46.6211 55.9311 46.6819 55.7876 46.7902 55.6818C46.8984 55.576 47.0452 55.5166 47.1983 55.5166H58.8581C59.0112 55.5166 59.158 55.576 59.2662 55.6818C59.3745 55.7876 59.4353 55.9311 59.4353 56.0807C59.4353 56.2303 59.3745 56.3738 59.2662 56.4796C59.158 56.5854 59.0112 56.6448 58.8581 56.6448Z" fill="#DCDCDC"/>
<path d="M94 87.8115H18V87.9996H94V87.8115Z" fill="#014898"/>
</g>
<defs>
<clipPath id="clip0_492_172582">
<rect width="76" height="66" fill="white" transform="translate(18 22)"/>
</clipPath>
</defs>
</svg>
