<svg width="111" height="111" viewBox="0 0 111 111" fill="none" xmlns="http://www.w3.org/2000/svg">
<g clip-path="url(#clip0_430_186329)">
<path d="M26.1026 80.4189C26.0304 80.4223 25.9591 80.4033 25.8981 80.3647C25.8371 80.3261 25.7894 80.2697 25.7616 80.2031C25.7337 80.1365 25.727 80.0629 25.7424 79.9924C25.7577 79.9218 25.7944 79.8577 25.8474 79.8087L25.8715 79.7128C25.8684 79.7051 25.8652 79.6975 25.8619 79.6898C25.7893 79.5182 25.6676 79.3719 25.512 79.2693C25.3565 79.1666 25.1741 79.1123 24.9878 79.1129C24.8015 79.1136 24.6195 79.1694 24.4647 79.2732C24.31 79.3769 24.1893 79.5241 24.118 79.6963C23.8327 80.3833 23.4696 81.0714 23.3801 81.7978C23.3408 82.1189 23.3574 82.4443 23.4292 82.7597C22.7593 81.2983 22.4114 79.71 22.4092 78.1023C22.409 77.6989 22.4315 77.2958 22.4763 76.8949C22.5134 76.5662 22.5648 76.2399 22.6306 75.9159C22.9897 74.158 23.7607 72.5103 24.8802 71.1082C25.422 70.8125 25.8602 70.3579 26.1357 69.8055C26.2355 69.607 26.3061 69.395 26.3451 69.1763C26.284 69.1843 26.1147 68.2534 26.1608 68.1963C26.0756 68.067 25.9231 68.0028 25.8301 67.8766C25.3674 67.2493 24.73 67.3589 24.3972 68.2113C23.6863 68.5701 23.6794 69.1651 24.1156 69.7374C24.3931 70.1015 24.4313 70.5941 24.6748 70.9839C24.6497 71.016 24.6237 71.047 24.5986 71.0791C24.1407 71.6679 23.7416 72.3002 23.407 72.9669C23.4883 72.22 23.3912 71.4645 23.1236 70.7625C22.8524 70.1082 22.3441 69.5572 21.8964 68.9915C21.3587 68.3122 20.2561 68.6086 20.1613 69.4699C20.1604 69.4782 20.1595 69.4866 20.1586 69.4949C20.2251 69.5324 20.2902 69.5722 20.3539 69.6143C20.4339 69.6678 20.4959 69.7442 20.5318 69.8335C20.5676 69.9227 20.5757 70.0208 20.5549 70.1147C20.534 70.2087 20.4853 70.2941 20.4151 70.3599C20.3449 70.4257 20.2565 70.4687 20.1614 70.4834L20.1516 70.4849C20.1753 70.7245 20.2172 70.962 20.2769 71.1953C19.7026 73.4163 20.9424 74.2252 22.7128 74.2615C22.7519 74.2816 22.79 74.3016 22.829 74.3207C22.4929 75.2733 22.282 76.2656 22.2018 77.2726C22.1563 77.8667 22.159 78.4636 22.2098 79.0572L22.2068 79.0362C22.0785 78.376 21.7263 77.7804 21.2098 77.3498C20.4425 76.7195 19.3585 76.4874 18.5308 75.9808C18.4428 75.9243 18.3405 75.8942 18.236 75.8939C18.1314 75.8937 18.029 75.9233 17.9408 75.9794C17.8525 76.0354 17.7821 76.1155 17.7379 76.2103C17.6937 76.305 17.6775 76.4104 17.6913 76.514C17.6924 76.5214 17.6935 76.5288 17.6947 76.5361C17.8181 76.5864 17.9382 76.6443 18.0544 76.7095C18.1209 76.747 18.186 76.7868 18.2496 76.8289C18.3297 76.8824 18.3916 76.9588 18.4275 77.048C18.4634 77.1373 18.4714 77.2354 18.4506 77.3293C18.4298 77.4233 18.3811 77.5087 18.3109 77.5745C18.2407 77.6403 18.1522 77.6833 18.0571 77.698L18.0474 77.6995C18.0403 77.7005 18.0343 77.7015 18.0273 77.7025C18.2382 78.2059 18.5341 78.6693 18.9021 79.0723C19.2612 81.0111 20.8035 81.195 22.4533 80.6304H22.4543C22.6353 81.417 22.8976 82.1827 23.2369 82.915H26.0325C26.0425 82.884 26.0516 82.8519 26.0606 82.8208C25.8018 82.8371 25.542 82.8216 25.287 82.7748C25.4944 82.5202 25.7018 82.2637 25.9093 82.0092C25.9139 82.0044 25.9182 81.9994 25.9223 81.9942C26.0275 81.8639 26.1337 81.7347 26.2389 81.6044L26.239 81.6042C26.2446 81.2049 26.1987 80.8065 26.1026 80.4189Z" fill="#DCDCDC"/>
<path d="M84.4945 80.4189C84.5666 80.4223 84.638 80.4033 84.699 80.3647C84.76 80.3261 84.8077 80.2697 84.8355 80.2031C84.8634 80.1365 84.8701 80.0629 84.8547 79.9924C84.8394 79.9218 84.8027 79.8577 84.7497 79.8087L84.7256 79.7128C84.7287 79.7051 84.7319 79.6975 84.7352 79.6898C84.8078 79.5182 84.9295 79.3719 85.0851 79.2693C85.2406 79.1666 85.423 79.1123 85.6093 79.1129C85.7956 79.1136 85.9776 79.1694 86.1324 79.2732C86.2871 79.3769 86.4078 79.5241 86.4791 79.6963C86.7644 80.3833 87.1275 81.0714 87.2169 81.7978C87.2563 82.1189 87.2397 82.4443 87.1679 82.7597C87.8378 81.2983 88.1857 79.71 88.1879 78.1023C88.1881 77.6989 88.1656 77.2958 88.1208 76.8949C88.0837 76.5662 88.0323 76.2399 87.9665 75.9159C87.6074 74.158 86.8364 72.5103 85.7169 71.1082C85.1751 70.8125 84.7369 70.3579 84.4614 69.8055C84.3616 69.607 84.291 69.395 84.252 69.1763C84.3131 69.1843 84.4824 68.2534 84.4363 68.1963C84.5215 68.067 84.674 68.0028 84.767 67.8766C85.2297 67.2493 85.8671 67.3589 86.1999 68.2113C86.9108 68.5701 86.9177 69.1651 86.4815 69.7374C86.204 70.1015 86.1658 70.5941 85.9223 70.9839C85.9474 71.016 85.9734 71.047 85.9985 71.0791C86.4564 71.6679 86.8555 72.3002 87.1901 72.9669C87.1088 72.22 87.2059 71.4645 87.4735 70.7625C87.7447 70.1082 88.253 69.5572 88.7007 68.9915C89.2384 68.3122 90.341 68.6086 90.4358 69.4699C90.4367 69.4782 90.4376 69.4866 90.4385 69.4949C90.372 69.5324 90.3069 69.5722 90.2432 69.6143C90.1632 69.6678 90.1012 69.7442 90.0653 69.8335C90.0295 69.9227 90.0214 70.0208 90.0422 70.1147C90.0631 70.2087 90.1118 70.2941 90.182 70.3599C90.2522 70.4257 90.3406 70.4687 90.4357 70.4834L90.4455 70.4849C90.4218 70.7245 90.3799 70.962 90.3202 71.1953C90.8945 73.4163 89.6547 74.2252 87.8843 74.2615C87.8452 74.2816 87.8071 74.3016 87.7681 74.3207C88.1042 75.2733 88.3151 76.2656 88.3953 77.2726C88.4408 77.8667 88.4381 78.4636 88.3873 79.0572L88.3903 79.0362C88.5186 78.376 88.8708 77.7804 89.3873 77.3498C90.1546 76.7195 91.2386 76.4874 92.0663 75.9808C92.1543 75.9243 92.2566 75.8942 92.3611 75.8939C92.4657 75.8937 92.5681 75.9233 92.6563 75.9794C92.7446 76.0354 92.815 76.1155 92.8592 76.2103C92.9034 76.305 92.9196 76.4104 92.9058 76.514C92.9047 76.5214 92.9036 76.5288 92.9024 76.5361C92.7791 76.5864 92.6589 76.6443 92.5427 76.7095C92.4762 76.747 92.4111 76.7868 92.3474 76.8289C92.2674 76.8824 92.2055 76.9588 92.1696 77.048C92.1337 77.1373 92.1257 77.2354 92.1465 77.3293C92.1673 77.4233 92.216 77.5087 92.2862 77.5745C92.3564 77.6403 92.4449 77.6833 92.54 77.698L92.5497 77.6995C92.5568 77.7005 92.5628 77.7015 92.5698 77.7025C92.3589 78.2059 92.063 78.6693 91.695 79.0723C91.3359 81.0111 89.7936 81.195 88.1438 80.6304H88.1428C87.9618 81.417 87.6995 82.1827 87.3602 82.915H84.5646C84.5546 82.884 84.5455 82.8519 84.5365 82.8208C84.7953 82.8371 85.0551 82.8216 85.3101 82.7748C85.1027 82.5202 84.8953 82.2637 84.6878 82.0092C84.6832 82.0044 84.6789 81.9994 84.6748 81.9942C84.5696 81.8639 84.4634 81.7347 84.3582 81.6044L84.3581 81.6042C84.3525 81.2049 84.3984 80.8065 84.4945 80.4189Z" fill="#DCDCDC"/>
<path d="M54.4172 82.7192C65.8605 82.7192 75.1372 73.4426 75.1372 61.9993C75.1372 50.5559 65.8605 41.2793 54.4172 41.2793C42.9739 41.2793 33.6973 50.5559 33.6973 61.9993C33.6973 73.4426 42.9739 82.7192 54.4172 82.7192Z" fill="white"/>
<path d="M54.358 82.8524C33.8577 83.3234 33.4082 73.5839 33.4082 61.9993C33.4082 50.4151 42.8328 40.9905 54.4172 40.9905C66.0016 40.9905 75.4262 50.4151 75.4262 61.9993C75.4262 73.5839 65.9424 82.8524 54.358 82.8524ZM54.4172 41.5686C43.1515 41.5686 34.176 50.7354 33.9863 61.9994C33.8098 72.4763 44.9398 85.5499 54.4172 82.4304C59.4997 76.8329 73.8692 70.8041 74.8481 61.9994C76.093 50.8028 65.6829 41.5686 54.4172 41.5686Z" fill="#221F1F"/>
<path d="M51.5907 72.783C51.2329 72.783 50.8801 72.6997 50.56 72.5396C50.24 72.3796 49.9617 72.1472 49.7471 71.8609L44.0944 64.3238C43.9126 64.0817 43.7803 63.8061 43.7051 63.5129C43.6299 63.2196 43.6132 62.9144 43.6559 62.6147C43.6987 62.315 43.8001 62.0266 43.9543 61.7661C44.1085 61.5055 44.3126 61.278 44.5548 61.0963C44.797 60.9147 45.0726 60.7825 45.3659 60.7074C45.6592 60.6323 45.9644 60.6158 46.2641 60.6587C46.5638 60.7015 46.8521 60.8031 47.1126 60.9574C47.373 61.1118 47.6005 61.3159 47.7821 61.5582L51.4803 66.4888L60.9786 52.2414C61.3179 51.7332 61.845 51.3804 62.4443 51.2607C63.0435 51.141 63.6658 51.2642 64.1742 51.6032C64.6827 51.9421 65.0357 52.4691 65.1557 53.0683C65.2757 53.6675 65.1528 54.2898 64.8141 54.7984L53.5087 71.7566C53.3042 72.0633 53.0291 72.3165 52.7066 72.4949C52.384 72.6734 52.0234 72.7719 51.6549 72.7823C51.6335 72.7826 51.6121 72.783 51.5907 72.783Z" fill="#FF0D1B"/>
<path d="M11 82.8685C10.9999 82.8881 11.0038 82.9075 11.0112 82.9257C11.0187 82.9438 11.0297 82.9603 11.0436 82.9741C11.0575 82.988 11.0739 82.999 11.0921 83.0065C11.1102 83.0139 11.1296 83.0178 11.1492 83.0177H100.851C100.89 83.0177 100.928 83.002 100.956 82.974C100.984 82.946 101 82.9081 101 82.8685C101 82.8289 100.984 82.7909 100.956 82.763C100.928 82.735 100.89 82.7192 100.851 82.7192H11.1492C11.1296 82.7192 11.1102 82.723 11.0921 82.7305C11.0739 82.738 11.0575 82.749 11.0436 82.7628C11.0297 82.7767 11.0187 82.7932 11.0112 82.8113C11.0038 82.8294 10.9999 82.8489 11 82.8685Z" fill="#F6F6F6"/>
<path d="M81.6487 81.4054H80.4355L79.8584 76.7256L81.6491 76.7257L81.6487 81.4054Z" fill="#FFD2BB"/>
<path d="M81.6908 82.6713L77.96 82.6711V82.6239C77.96 82.2388 78.113 81.8695 78.3853 81.5972C78.6577 81.3248 79.027 81.1718 79.4121 81.1718L80.0937 80.6548L81.3652 81.1719L81.6909 81.1719L81.6908 82.6713Z" fill="#2F2E41"/>
<path d="M76.3733 75.6057L75.2527 76.0705L72.9268 71.9688L74.5809 71.283L76.3733 75.6057Z" fill="#FFD2BB"/>
<path d="M76.8984 76.7585L73.4521 78.1876L73.434 78.1441C73.2865 77.7883 73.2863 77.3885 73.4336 77.0326C73.5808 76.6768 73.8633 76.3939 74.2191 76.2464L74.6506 75.5077L76.0232 75.4983L76.3241 75.3735L76.8984 76.7585Z" fill="#2F2E41"/>
<path d="M83.0357 54.7847L74.4255 55.6842L73.2738 59.5634L69.2852 65.9733C69.2852 65.9733 72.0684 70.6577 71.807 70.6067C71.5457 70.5557 72.0681 71.8326 72.4339 71.7585C72.7998 71.6843 73.1802 72.5169 72.9273 72.6649C72.6744 72.813 73.6891 74.0647 73.6891 74.0647L75.2401 72.6726C75.57 70.1842 75.1714 67.9695 73.7514 66.1387L78.1949 61.3416L79.0374 60.992L79.7063 78.7929L82.1801 78.8335C82.8627 75.3221 83.2057 72.1616 82.6721 69.907C82.6721 69.907 82.7488 63.134 83.0413 63.2081C83.3339 63.2821 83.0859 62.3998 83.0859 62.3998C83.0859 62.3998 82.8296 61.6483 83.1445 61.3366C83.4593 61.0248 83.2627 59.1913 83.2627 59.1913C83.7829 57.4561 83.6263 56.0234 83.0357 54.7847Z" fill="#2F2E41"/>
<path d="M76.4157 40.4693L78.796 39.8525L79.9071 38.3201L82.5458 38.6445L83.1075 40.7347L84.986 41.8252C84.986 41.8252 83.9478 52.8071 84.1947 53.4101C84.4417 54.0132 85.3272 53.9634 84.571 54.7407C83.8147 55.518 83.7145 55.2049 83.89 56.0512C84.0655 56.8975 85.3448 57.7931 83.89 57.7842C82.4352 57.7753 73.6568 57.6499 73.9076 56.6467C74.1584 55.6434 74.1545 55.8982 74.5327 55.2692C74.9109 54.6402 75.1654 54.9917 75.0381 54.0635C74.9109 53.1353 75.0363 52.5083 75.0363 52.0067C75.0363 51.505 75.4564 46.9467 75.4564 46.9467L76.4157 40.4693Z" fill="#E6E6E6"/>
<path d="M81.2191 38.0368C82.7634 38.0368 84.0153 36.7849 84.0153 35.2406C84.0153 33.6963 82.7634 32.4443 81.2191 32.4443C79.6748 32.4443 78.4229 33.6963 78.4229 35.2406C78.4229 36.7849 79.6748 38.0368 81.2191 38.0368Z" fill="#FFD2BB"/>
<path d="M78.2891 33.5483C78.5346 33.7468 78.4784 34.7117 78.752 34.5544C79.0256 34.3971 79.0825 34.1155 79.3975 34.1125C79.6543 34.1267 79.8966 34.2364 80.0768 34.4199C80.1103 34.4502 80.1422 34.482 80.1732 34.5134C80.2015 34.5035 80.2295 34.4945 80.259 34.4871C80.4799 34.4332 80.7131 34.466 80.9106 34.5789C80.7282 34.5919 80.5546 34.6619 80.4142 34.779C80.4744 34.8464 80.5354 34.9141 80.5996 34.9768C81.1351 35.5016 82.2332 34.9427 82.9715 34.8166C82.3565 35.488 82.4778 35.8628 82.6307 36.7603L82.6313 36.8093C82.6628 36.6023 83.3256 36.6126 83.2164 36.8873C83.0791 37.1585 82.9074 37.411 82.7055 37.6383C83.6086 37.0126 84.3377 36.1501 84.4989 35.1083C84.5319 34.8893 84.5965 34.6658 84.5341 34.4522C84.5076 34.3443 84.446 34.2481 84.3591 34.1788C84.2721 34.1095 84.1647 34.0709 84.0535 34.0691C84.1541 33.7495 84.1663 33.4087 84.0886 33.0828C84.011 32.7568 83.8465 32.4581 83.6126 32.2182C83.3787 31.9783 83.0842 31.8063 82.7603 31.7204C82.4365 31.6345 82.0954 31.638 81.7734 31.7305C81.4797 31.8349 81.1931 31.9585 80.9157 32.1007C80.6357 32.2434 80.3187 32.297 80.0073 32.2545C79.8133 32.2145 79.6168 32.114 79.4267 32.1709C79.2063 32.237 79.1116 32.4697 79.0233 32.6943C79.1891 32.7548 79.333 32.8634 79.4368 33.0062C79.2654 32.9429 79.0785 32.9353 78.9025 32.9845C78.8993 32.985 78.8961 32.9859 78.893 32.9871C78.6935 33.3445 78.682 33.4322 78.2891 33.5483Z" fill="#2F2E41"/>
<path d="M79.2114 39.1036C77.7791 38.9883 76.4714 40.0836 75.8752 41.3909C75.2789 42.6982 75.2399 44.1813 75.2109 45.6178L75.121 50.0834C75.1077 50.7441 75.0943 51.4051 75.0614 52.0652C75.0445 52.7075 74.9637 53.3465 74.8202 53.9729C74.5282 55.1222 73.8859 56.1464 73.2529 57.1492C74.8735 57.639 76.5215 58.0326 78.1885 58.3279C79.021 55.6353 79.863 52.8653 79.6584 50.0543C79.5501 48.5669 79.15 47.1146 78.9979 45.631C78.7825 43.5298 79.068 41.4131 79.3529 39.3202" fill="#221F1F"/>
<path d="M82.6877 39.3547C84.1063 39.5828 85.1165 40.9574 85.3852 42.3689C85.654 43.7804 85.3397 45.2303 85.0267 46.6326C84.7024 48.0857 84.378 49.5387 84.0537 50.9918C83.9097 51.6368 83.7657 52.282 83.6409 52.9311C83.5197 53.5616 84.0274 54.3702 84.0332 55.0123C84.0439 56.1981 83.8136 57.1747 84.1903 58.2991C82.4999 58.3901 80.8055 58.3811 79.116 58.2721C78.9468 55.4588 78.7867 52.568 79.653 49.8861C80.1114 48.4669 80.8449 47.1512 81.3449 45.7461C82.0531 43.7562 82.2785 41.6322 82.4987 39.5315" fill="#221F1F"/>
<path d="M83.6342 59.6267C83.5288 59.4431 83.4993 59.2256 83.5518 59.0205C83.6043 58.8155 83.7348 58.639 83.9155 58.5287C83.9525 58.5068 83.9914 58.4881 84.0315 58.4726L83.8507 52.3132L85.8103 51.8145L85.063 58.9904C85.1141 59.1619 85.1071 59.3456 85.0429 59.5126C84.9787 59.6797 84.861 59.8208 84.7082 59.914C84.6207 59.9661 84.5238 60.0006 84.423 60.0153C84.3222 60.03 84.2196 60.0247 84.1208 59.9998C84.0221 59.9748 83.9292 59.9306 83.8476 59.8698C83.7659 59.8089 83.697 59.7326 83.6448 59.6451C83.6412 59.639 83.6376 59.6329 83.6342 59.6267Z" fill="#FFD2BB"/>
<path d="M83.4906 41.8154C83.4906 41.8154 84.8584 40.6586 86.0094 42.9715C87.1604 45.2845 86.5172 50.5683 86.3552 50.8503C86.1932 51.1323 86.0943 50.7395 86.183 51.4912C86.2552 52.1026 85.8261 52.0261 85.98 52.1565C86.3859 52.5006 85.2493 52.5397 85.8331 52.8428C86.4168 53.146 83.8042 53.2027 83.8042 53.2027C83.8042 53.2027 83.4882 52.977 83.7077 52.126C83.8309 51.6481 84.1396 51.4732 83.8104 51.252C83.4812 51.0308 84.1504 50.3471 84.1509 50.197C84.1513 50.047 83.1074 46.7655 83.1074 46.7655L83.4906 41.8154Z" fill="#221F1F"/>
<path d="M76.4803 58.5568C76.5956 58.3793 76.6372 58.1638 76.596 57.9561C76.5549 57.7485 76.4344 57.5651 76.2601 57.4449C76.2243 57.421 76.1865 57.4002 76.1473 57.3826L76.6683 51.2426L74.7393 50.6362L75.0888 57.8425C75.0283 58.011 75.0252 58.1947 75.08 58.365C75.1349 58.5354 75.2446 58.6828 75.3921 58.7843C75.4765 58.8412 75.5714 58.8809 75.6712 58.9012C75.771 58.9215 75.8738 58.9219 75.9738 58.9024C76.0737 58.8829 76.1689 58.844 76.2538 58.7877C76.3387 58.7315 76.4117 58.6591 76.4686 58.5746C76.4726 58.5687 76.4765 58.5628 76.4803 58.5568Z" fill="#FFD2BB"/>
<path d="M77.6099 40.7932C77.6099 40.7932 76.308 39.5626 75.031 41.8084C73.7539 44.0542 74.1041 49.3655 74.2503 49.6561C74.3965 49.9466 74.5169 49.5598 74.3868 50.3055C74.2809 50.9119 74.7136 50.8593 74.5527 50.981C74.1284 51.3021 75.2611 51.404 74.6615 51.6744C74.0619 51.9448 76.6674 52.1458 76.6674 52.1458C76.6674 52.1458 76.9953 51.938 76.8232 51.0761C76.7266 50.5921 76.4281 50.4004 76.769 50.1978C77.1099 49.9951 76.4795 49.2754 76.4873 49.1256C76.4952 48.9757 77.7188 45.757 77.7188 45.757L77.6099 40.7932Z" fill="#221F1F"/>
</g>
<defs>
<clipPath id="clip0_430_186329">
<rect width="90" height="54.0176" fill="white" transform="translate(11 29)"/>
</clipPath>
</defs>
</svg>
