<svg width="111" height="110" viewBox="0 0 111 110" fill="none" xmlns="http://www.w3.org/2000/svg">
<path d="M86.4095 79.2811C84.5336 81.2161 82.7584 82.4639 81.3559 83.4497C64.8704 95.0392 45.3636 91.6608 41.2178 90.8359C35.0958 89.6178 23.2622 87.2629 14.7067 77.4053C1.76314 62.4913 3.77867 38.9959 13.8186 23.4859C15.6545 20.649 25.3558 4.90281 45.0728 2.37745C57.006 0.84915 70.9147 3.9302 80.9874 12.1997C102.131 29.5555 100.626 64.6172 86.4095 79.2811Z" fill="#F6F6F6"/>
<path d="M25.5753 84.0209C25.6195 84.0266 25.6644 84.0219 25.7064 84.007C25.7428 83.9945 25.7763 83.9748 25.8051 83.9492C25.8339 83.9235 25.8574 83.8924 25.8743 83.8576C25.8912 83.8228 25.9011 83.7851 25.9034 83.7464C25.9058 83.7078 25.9006 83.669 25.8881 83.6324C18.8062 62.8391 18.7898 39.7233 18.7904 39.4924C18.7917 39.4528 18.7851 39.4134 18.771 39.3765C18.7569 39.3396 18.7356 39.3059 18.7083 39.2774C18.681 39.249 18.6483 39.2264 18.6121 39.2109C18.576 39.1955 18.5371 39.1875 18.4978 39.1875C18.4586 39.1875 18.4197 39.1955 18.3835 39.2109C18.3474 39.2264 18.3147 39.249 18.2874 39.2774C18.2601 39.3059 18.2387 39.3396 18.2246 39.3765C18.2105 39.4134 18.2039 39.4528 18.2052 39.4924C18.2052 39.7237 18.2223 62.9392 25.3337 83.8257C25.3518 83.8777 25.3841 83.9236 25.4268 83.9581C25.4695 83.9926 25.5209 84.0144 25.5753 84.0209Z" fill="#073064"/>
<path d="M74.2882 23.8527C74.2334 23.8504 74.1796 23.8373 74.1298 23.8141C74.0801 23.7909 74.0353 23.758 73.9982 23.7173C73.961 23.6767 73.9322 23.629 73.9133 23.5772C73.8945 23.5253 73.8859 23.4701 73.8882 23.4149C73.9063 22.964 73.9056 22.5054 73.8856 22.0521C73.8808 21.9421 73.9189 21.8345 73.9919 21.7525C74.065 21.6706 74.167 21.6207 74.2761 21.6137H74.2843C74.3949 21.6088 74.5029 21.6484 74.5846 21.7237C74.6663 21.799 74.715 21.904 74.7199 22.0155C74.7409 22.4925 74.7416 22.9755 74.7222 23.4503C74.718 23.5541 74.6758 23.6526 74.6038 23.7269C74.5317 23.8012 74.435 23.846 74.3321 23.8527C74.3175 23.8535 74.3028 23.8535 74.2882 23.8527ZM73.6384 19.8522C73.5571 19.4059 73.4565 18.9602 73.3388 18.5234C73.3244 18.4701 73.3205 18.4145 73.3275 18.3597C73.3344 18.3049 73.352 18.252 73.3792 18.2041C73.4064 18.1561 73.4427 18.1141 73.4861 18.0803C73.5294 18.0464 73.579 18.0216 73.6319 18.0071C73.6848 17.9926 73.74 17.9887 73.7943 17.9957C73.8487 18.0027 73.9012 18.0204 73.9488 18.0478C73.9963 18.0752 74.0381 18.1118 74.0716 18.1555C74.1052 18.1992 74.1299 18.2491 74.1443 18.3024C74.2682 18.7606 74.3738 19.2311 74.4597 19.7006C74.4728 19.8071 74.4451 19.9147 74.3821 20.0012C74.3191 20.0878 74.2257 20.1469 74.1209 20.1662C74.0161 20.1856 73.9079 20.1639 73.8185 20.1055C73.7291 20.0471 73.6653 19.9565 73.6401 19.8522H73.6384ZM72.6152 16.4342C72.4382 16.0186 72.2409 15.6056 72.0291 15.2065C71.9793 15.1084 71.9697 14.9944 72.0023 14.8893C72.035 14.7841 72.1074 14.696 72.2039 14.644C72.3003 14.5921 72.4132 14.5804 72.5182 14.6114C72.6231 14.6425 72.7118 14.7138 72.7651 14.8101C72.9883 15.2303 73.1958 15.6651 73.3824 16.1028C73.406 16.1539 73.4191 16.2092 73.4211 16.2656C73.423 16.3219 73.4137 16.378 73.3938 16.4306C73.3738 16.4833 73.3435 16.5313 73.3047 16.5719C73.2659 16.6125 73.2194 16.6448 73.168 16.667C73.1166 16.6891 73.0613 16.7006 73.0054 16.7008C72.9494 16.701 72.8941 16.6899 72.8425 16.668C72.7909 16.6462 72.7443 16.6142 72.7052 16.5739C72.6662 16.5335 72.6356 16.4857 72.6152 16.4332V16.4342ZM70.8594 13.332C70.5941 12.9686 70.3093 12.6085 70.0142 12.2675C69.9443 12.183 69.9101 12.0742 69.9188 11.9645C69.9275 11.8549 69.9785 11.753 70.0608 11.6807C70.1432 11.6085 70.2503 11.5716 70.3593 11.5779C70.4683 11.5843 70.5705 11.6334 70.644 11.7148C70.9544 12.0739 71.2534 12.4512 71.5324 12.8361C71.594 12.9263 71.6182 13.0372 71.6 13.1452C71.5817 13.2531 71.5223 13.3497 71.4345 13.4142C71.3468 13.4788 71.2374 13.5062 71.1298 13.4908C71.0222 13.4754 70.9248 13.4183 70.8584 13.3316L70.8594 13.332ZM68.4616 10.7019C68.1232 10.4046 67.7675 10.1191 67.4043 9.85184C67.3584 9.81998 67.3192 9.77916 67.2892 9.73179C67.2591 9.68443 67.2388 9.63147 67.2294 9.57607C67.2201 9.52066 67.2218 9.46391 67.2346 9.40919C67.2473 9.35447 67.2708 9.30288 67.3037 9.25747C67.3366 9.21206 67.3781 9.17375 67.426 9.14481C67.4738 9.11587 67.5269 9.09688 67.5821 9.08897C67.6373 9.08106 67.6936 9.08438 67.7475 9.09874C67.8014 9.1131 67.8519 9.13822 67.8961 9.17259C68.2783 9.45407 68.6524 9.75504 69.0084 10.0672C69.0919 10.1404 69.1432 10.2441 69.1508 10.3554C69.1585 10.4666 69.122 10.5764 69.0494 10.6606C68.9767 10.7447 68.8739 10.7964 68.7635 10.8041C68.6531 10.8119 68.5441 10.7751 68.4606 10.7019H68.4616ZM65.5458 8.67373C65.1504 8.45965 64.741 8.2601 64.3286 8.07906C64.2782 8.05715 64.2327 8.02547 64.1945 7.98582C64.1563 7.94617 64.1263 7.89933 64.1061 7.84797C64.0858 7.79662 64.0759 7.74175 64.0767 7.68651C64.0775 7.63127 64.0891 7.57674 64.1109 7.52602C64.1326 7.4753 64.1641 7.4294 64.2034 7.39092C64.2428 7.35245 64.2892 7.32217 64.3402 7.3018C64.3912 7.28143 64.4456 7.27137 64.5004 7.2722C64.5552 7.27304 64.6093 7.28474 64.6597 7.30665C65.0937 7.49562 65.5248 7.70607 65.9412 7.93139C66.0389 7.98422 66.1117 8.074 66.1437 8.18097C66.1757 8.28793 66.1643 8.40333 66.1118 8.50177C66.0594 8.60021 65.9703 8.67363 65.8642 8.70588C65.758 8.73813 65.6435 8.72657 65.5458 8.67373ZM50.0441 8.47551C49.9921 8.37702 49.981 8.26173 50.0133 8.15498C50.0455 8.04824 50.1185 7.95878 50.2162 7.90628C50.6329 7.68262 51.0653 7.47382 51.5007 7.2865C51.6025 7.24269 51.7174 7.24143 51.8202 7.283C51.9229 7.32458 52.005 7.40557 52.0485 7.50818C52.092 7.61078 52.0932 7.72658 52.052 7.83011C52.0107 7.93364 51.9304 8.01642 51.8285 8.06023C51.4151 8.23797 51.0047 8.43619 50.609 8.64895C50.5606 8.67506 50.5076 8.69128 50.453 8.69669C50.3984 8.7021 50.3433 8.69658 50.2908 8.68047C50.2383 8.66435 50.1895 8.63795 50.1472 8.60278C50.1049 8.56761 50.0698 8.52435 50.0441 8.47551ZM62.2586 7.34431C61.8259 7.22439 61.3826 7.12164 60.9414 7.03971C60.8865 7.0307 60.834 7.01074 60.7869 6.981C60.7397 6.95126 60.699 6.91234 60.667 6.86653C60.635 6.82071 60.6124 6.76892 60.6005 6.71419C60.5887 6.65946 60.5878 6.60289 60.5979 6.5478C60.608 6.49271 60.6289 6.44021 60.6594 6.39337C60.6899 6.34654 60.7294 6.30631 60.7755 6.27504C60.8216 6.24378 60.8735 6.22211 60.928 6.21131C60.9826 6.2005 61.0387 6.20078 61.0932 6.21213C61.5577 6.29869 62.0245 6.40672 62.4802 6.53325C62.5756 6.55964 62.6585 6.61925 62.7143 6.70148C62.7701 6.7837 62.7952 6.88322 62.785 6.98231C62.7749 7.08141 62.7302 7.17367 62.6589 7.24267C62.5876 7.31168 62.4943 7.35296 62.3956 7.35918C62.3495 7.36218 62.3033 7.35761 62.2586 7.34563V7.34431ZM53.393 7.04004C53.3642 6.93218 53.3791 6.81723 53.4345 6.72046C53.4898 6.62369 53.581 6.55302 53.688 6.524C54.144 6.39978 54.6112 6.29274 55.0771 6.20883C55.131 6.19898 55.1863 6.19993 55.2399 6.21164C55.2935 6.22334 55.3443 6.24557 55.3893 6.27704C55.4344 6.30852 55.4728 6.34863 55.5025 6.39508C55.5322 6.44154 55.5525 6.49343 55.5623 6.54779C55.572 6.60215 55.5711 6.65792 55.5595 6.71191C55.5479 6.7659 55.5258 6.81706 55.4946 6.86246C55.4633 6.90787 55.4235 6.94663 55.3774 6.97653C55.3313 7.00643 55.2798 7.02689 55.2259 7.03674C54.7833 7.11768 54.3407 7.21844 53.906 7.33639C53.8789 7.34373 53.8511 7.34838 53.8231 7.35026C53.7269 7.3564 53.6316 7.32888 53.5532 7.27235C53.4748 7.21583 53.4182 7.13377 53.393 7.04004ZM58.7609 6.79226C58.3128 6.77277 57.8581 6.77244 57.4089 6.79226C57.2984 6.79818 57.19 6.75959 57.1077 6.685C57.0254 6.6104 56.9758 6.5059 56.97 6.39449C56.9641 6.28309 57.0024 6.17389 57.0764 6.09093C57.1504 6.00797 57.2541 5.95804 57.3647 5.95213H57.3735C57.8463 5.93197 58.3243 5.93197 58.797 5.95213C58.9042 5.9561 59.0057 6.00151 59.0806 6.07894C59.1554 6.15636 59.1978 6.25985 59.199 6.36794C59.2001 6.47603 59.1599 6.58041 59.0867 6.65942C59.0135 6.73842 58.9129 6.786 58.8059 6.79226C58.7898 6.79259 58.7747 6.79259 58.7596 6.79226H58.7609Z" fill="white"/>
<path d="M47.9877 10.3193C48.0726 10.3138 48.1539 10.2822 48.2204 10.2288C48.389 10.094 48.5634 9.96049 48.7381 9.83231C48.7831 9.80005 48.8213 9.75911 48.8504 9.71188C48.8796 9.66464 48.8992 9.61204 48.9081 9.55712C48.9169 9.5022 48.9149 9.44606 48.902 9.39194C48.8892 9.33783 48.8659 9.28681 48.8333 9.24186C48.8008 9.1969 48.7597 9.1589 48.7125 9.13005C48.6653 9.1012 48.6129 9.08208 48.5583 9.07379C48.5037 9.0655 48.448 9.06821 48.3945 9.08176C48.3409 9.09531 48.2906 9.11943 48.2463 9.15273C48.0621 9.28819 47.8792 9.42859 47.7018 9.57032C47.6322 9.62606 47.582 9.70275 47.5586 9.78921C47.5353 9.87566 47.5399 9.96739 47.5718 10.051C47.6037 10.1347 47.6613 10.2058 47.7362 10.2542C47.811 10.3026 47.8993 10.3256 47.988 10.3199L47.9877 10.3193Z" fill="white"/>
<g opacity="0.3">
<path d="M41.9015 21.5842C42.0005 21.5777 42.094 21.5359 42.1653 21.4663C42.2365 21.3967 42.2808 21.3038 42.2903 21.2042C42.3106 20.9885 42.3362 20.7691 42.3657 20.5531C42.3791 20.4433 42.3491 20.3327 42.2821 20.245C42.2152 20.1574 42.1167 20.0998 42.008 20.0847C41.8993 20.0697 41.7891 20.0983 41.7012 20.1645C41.6132 20.2307 41.5547 20.3291 41.5382 20.4384C41.5074 20.6661 41.4805 20.8967 41.4589 21.124C41.4485 21.2351 41.4822 21.3458 41.5527 21.4319C41.6232 21.518 41.7247 21.5724 41.8349 21.5832C41.857 21.5852 41.8793 21.5855 41.9015 21.5842Z" fill="white"/>
<path d="M58.2773 39.5444C58.1683 39.5433 58.064 39.4993 57.9868 39.4218C57.9095 39.3442 57.8654 39.2393 57.8639 39.1295C57.8623 39.0196 57.9035 38.9135 57.9785 38.8338C58.0536 38.7541 58.1566 38.7072 58.2655 38.7029C58.7045 38.6967 59.1507 38.6699 59.5945 38.6276C59.7048 38.6168 59.8148 38.6506 59.9003 38.7215C59.9859 38.7924 60.04 38.8946 60.0507 39.0057C60.0615 39.1168 60.028 39.2277 59.9576 39.3139C59.8872 39.4001 59.7858 39.4546 59.6755 39.4654C59.4827 39.4844 59.2905 39.4999 59.0989 39.512C58.8258 39.5302 58.5494 39.5404 58.2773 39.5444ZM61.4173 38.7766C61.3918 38.6681 61.4101 38.5538 61.4682 38.4589C61.5263 38.364 61.6194 38.2962 61.7271 38.2705C62.1579 38.1674 62.589 38.0452 63.0083 37.9071C63.0604 37.8899 63.1153 37.8832 63.17 37.8874C63.2246 37.8916 63.2779 37.9066 63.3269 37.9315C63.3758 37.9565 63.4193 37.9909 63.455 38.0328C63.4907 38.0748 63.5179 38.1233 63.535 38.1758C63.552 38.2283 63.5587 38.2837 63.5545 38.3388C63.5503 38.3939 63.5354 38.4476 63.5107 38.4969C63.4859 38.5462 63.4518 38.59 63.4102 38.626C63.3686 38.662 63.3204 38.6894 63.2683 38.7066C62.8267 38.8523 62.3729 38.9811 61.9195 39.0892C61.8965 39.0948 61.873 39.0983 61.8494 39.0997C61.7512 39.1058 61.6541 39.0767 61.5751 39.0176C61.4962 38.9584 61.4405 38.8731 61.418 38.7766H61.4173ZM56.0057 39.4202C55.5448 39.363 55.0799 39.2851 54.6239 39.1889C54.5703 39.1775 54.5194 39.1556 54.4741 39.1244C54.4289 39.0932 54.3902 39.0533 54.3603 39.007C54.3303 38.9608 54.3097 38.909 54.2996 38.8547C54.2896 38.8004 54.2902 38.7446 54.3015 38.6906C54.3128 38.6365 54.3345 38.5852 54.3655 38.5396C54.3965 38.494 54.4361 38.4551 54.482 38.4249C54.5279 38.3947 54.5793 38.374 54.6332 38.3638C54.687 38.3536 54.7424 38.3543 54.796 38.3656C55.2288 38.4575 55.67 38.5308 56.1074 38.5857C56.1628 38.5911 56.2167 38.6077 56.2657 38.6345C56.3147 38.6612 56.3579 38.6976 56.3927 38.7415C56.4276 38.7853 56.4534 38.8357 56.4686 38.8898C56.4838 38.9438 56.4881 39.0004 56.4812 39.0561C56.4744 39.1119 56.4566 39.1657 56.4288 39.2144C56.401 39.2631 56.3638 39.3057 56.3195 39.3397C56.2751 39.3736 56.2244 39.3983 56.1704 39.4123C56.1164 39.4262 56.0602 39.4291 56.0051 39.4208L56.0057 39.4202ZM64.8189 37.6507C64.7707 37.5505 64.7639 37.4352 64.7999 37.3299C64.8359 37.2247 64.9118 37.1381 65.011 37.0891C65.408 36.8938 65.8018 36.6788 66.1807 36.4505C66.2758 36.3932 66.3895 36.3763 66.4969 36.4036C66.6042 36.4308 66.6965 36.4999 66.7533 36.5957C66.8101 36.6914 66.8269 36.806 66.7998 36.9142C66.7728 37.0224 66.7043 37.1154 66.6092 37.1727C66.2099 37.4132 65.7955 37.6395 65.3772 37.8453C65.2778 37.8941 65.1633 37.9011 65.0588 37.8648C64.9543 37.8285 64.8684 37.7518 64.8199 37.6517L64.8189 37.6507ZM52.4369 38.5639C51.9999 38.4059 51.5636 38.2269 51.14 38.0316C51.0393 37.9852 50.9611 37.9004 50.9224 37.7959C50.8838 37.6913 50.8879 37.5756 50.934 37.4741C50.98 37.3727 51.0642 37.2938 51.1679 37.2548C51.2717 37.2159 51.3865 37.2201 51.4872 37.2665C51.8894 37.4518 52.3038 37.622 52.7189 37.772C52.8092 37.8047 52.8856 37.8679 52.9351 37.9508C52.9846 38.0337 53.0043 38.1312 52.9909 38.227C52.9774 38.3228 52.9316 38.411 52.8611 38.4767C52.7907 38.5425 52.6999 38.5818 52.6041 38.588C52.5475 38.5916 52.4908 38.5834 52.4376 38.5639H52.4369ZM49.1409 36.9394C48.7475 36.6883 48.3606 36.4178 47.9902 36.135C47.9465 36.1016 47.9097 36.0599 47.882 36.0122C47.8543 35.9645 47.8362 35.9118 47.8287 35.8571C47.8212 35.8024 47.8245 35.7467 47.8384 35.6932C47.8522 35.6398 47.8764 35.5896 47.9095 35.5456C47.9426 35.5015 47.984 35.4645 48.0313 35.4366C48.0786 35.4087 48.1309 35.3904 48.1852 35.3829C48.2396 35.3753 48.2948 35.3786 48.3478 35.3926C48.4009 35.4066 48.4507 35.431 48.4944 35.4643C48.8465 35.7329 49.2156 35.9903 49.5877 36.2288C49.634 36.2584 49.6741 36.2968 49.7056 36.342C49.7372 36.3872 49.7596 36.4382 49.7716 36.4921C49.7836 36.546 49.7849 36.6017 49.7755 36.6561C49.7661 36.7106 49.7462 36.7626 49.7169 36.8093C49.6875 36.8559 49.6494 36.8963 49.6045 36.9281C49.5597 36.9599 49.5091 36.9825 49.4556 36.9946C49.4021 37.0066 49.3468 37.008 49.2928 36.9985C49.2388 36.9891 49.1872 36.969 49.1409 36.9394ZM46.2743 34.6298C45.9445 34.2994 45.6252 33.9492 45.3236 33.5921C45.2554 33.5066 45.223 33.3976 45.2334 33.2884C45.2437 33.1791 45.296 33.0783 45.3791 33.0074C45.4621 32.9364 45.5694 32.901 45.678 32.9085C45.7866 32.9161 45.888 32.9662 45.9605 33.048C46.2461 33.3876 46.5506 33.719 46.8627 34.0341C46.9355 34.1141 46.9747 34.2192 46.9724 34.3277C46.9701 34.4361 46.9263 34.5394 46.8502 34.6161C46.7741 34.6928 46.6715 34.7369 46.5639 34.7393C46.4563 34.7417 46.352 34.7021 46.2726 34.6288L46.2743 34.6298ZM43.9758 31.745C43.7263 31.3485 43.4903 30.9376 43.2752 30.5226C43.224 30.4237 43.2138 30.3084 43.2469 30.2019C43.2801 30.0955 43.3538 30.0067 43.452 29.955C43.5501 29.9034 43.6645 29.8931 43.7702 29.9265C43.8758 29.9599 43.9639 30.0342 44.0152 30.1331C44.2197 30.5272 44.4437 30.9177 44.6807 31.294C44.7117 31.3407 44.7331 31.3931 44.7437 31.4482C44.7543 31.5033 44.7539 31.56 44.7424 31.6149C44.731 31.6698 44.7087 31.7219 44.677 31.7681C44.6453 31.8142 44.6047 31.8535 44.5577 31.8836C44.5107 31.9137 44.4581 31.934 44.4032 31.9433C44.3483 31.9527 44.2921 31.9509 44.2378 31.938C44.1836 31.9251 44.1325 31.9014 44.0875 31.8683C44.0425 31.8352 44.0045 31.7934 43.9758 31.7453V31.745ZM42.3622 28.4198C42.2055 27.9794 42.0672 27.5258 41.9462 27.0725C41.9205 26.9656 41.9374 26.8528 41.9932 26.7582C42.049 26.6637 42.1394 26.5949 42.2449 26.5667C42.3504 26.5384 42.4627 26.5529 42.5578 26.6071C42.6528 26.6613 42.723 26.7508 42.7533 26.8565C42.8664 27.286 42.9995 27.7178 43.1467 28.1363C43.1652 28.1884 43.1733 28.2436 43.1706 28.2988C43.1679 28.3541 43.1544 28.4082 43.131 28.4582C43.1075 28.5081 43.0745 28.553 43.0338 28.5901C42.9932 28.6272 42.9456 28.6559 42.894 28.6745C42.8423 28.6931 42.7875 28.7013 42.7327 28.6986C42.6779 28.6958 42.6242 28.6823 42.5746 28.6586C42.525 28.635 42.4805 28.6017 42.4437 28.5607C42.4069 28.5197 42.3784 28.4719 42.3599 28.4198H42.3622ZM41.5128 24.8227C41.4705 24.4804 41.4381 24.1326 41.4164 23.789C41.4086 23.6644 41.402 23.5405 41.3971 23.4163C41.3941 23.361 41.4022 23.3056 41.4208 23.2535C41.4394 23.2013 41.4682 23.1535 41.5054 23.1127C41.5427 23.072 41.5876 23.0391 41.6376 23.0161C41.6877 22.9932 41.7418 22.9805 41.7967 22.9789C41.8515 22.9765 41.9062 22.9851 41.9577 23.0041C42.0092 23.0231 42.0564 23.0521 42.0968 23.0895C42.1371 23.1269 42.1697 23.1719 42.1928 23.2221C42.2158 23.2722 42.2289 23.3264 42.2311 23.3816C42.236 23.4992 42.2422 23.6175 42.2495 23.7358C42.2701 24.0625 42.3009 24.3929 42.3412 24.7183C42.3481 24.7731 42.3441 24.8288 42.3296 24.882C42.3151 24.9353 42.2904 24.9852 42.2567 25.0288C42.2231 25.0725 42.1812 25.109 42.1336 25.1363C42.0859 25.1636 42.0334 25.1812 41.979 25.1881L41.9531 25.1904C41.8472 25.1969 41.7428 25.1624 41.6611 25.0942C41.5795 25.0259 41.5267 24.9288 41.5135 24.8227H41.5128Z" fill="white"/>
<path d="M68.2526 35.9482C68.3382 35.9429 68.4201 35.9109 68.487 35.8567C68.6634 35.714 68.8401 35.565 69.0115 35.414C69.0543 35.3782 69.0896 35.334 69.1153 35.2842C69.1409 35.2344 69.1564 35.18 69.1609 35.124C69.1653 35.0681 69.1587 35.0118 69.1412 34.9585C69.1238 34.9053 69.096 34.856 69.0594 34.8137C69.0228 34.7714 68.9782 34.7369 68.9282 34.7123C68.8781 34.6876 68.8237 34.6733 68.7682 34.6701C68.7126 34.6669 68.6569 34.675 68.6045 34.6938C68.552 34.7126 68.5038 34.7418 68.4627 34.7797C68.2988 34.9234 68.1313 35.0648 67.9641 35.2003C67.8948 35.2562 67.845 35.3329 67.8219 35.4193C67.7989 35.5057 67.8038 35.5972 67.8359 35.6806C67.8679 35.764 67.9256 35.8349 68.0004 35.8831C68.0752 35.9312 68.1633 35.954 68.2519 35.9482H68.2526Z" fill="white"/>
</g>
<path d="M69.0413 28.7797C69.0647 28.7463 69.0773 28.7064 69.0773 28.6654C69.0773 28.6245 69.0647 28.5846 69.0413 28.5511L67.6644 26.6003C68.0934 25.5527 68.35 24.4416 68.424 23.3108L70.511 22.1716C70.5463 22.1518 70.5747 22.1214 70.5923 22.0847C70.6099 22.048 70.6159 22.0067 70.6093 21.9665L70.1451 19.1345C70.1385 19.0942 70.1195 19.0569 70.0908 19.0279C70.0621 18.9989 70.0252 18.9797 69.9851 18.973L67.645 18.5736C67.2128 17.5273 66.6141 16.5591 65.8724 15.7072L66.5491 13.4135C66.5605 13.3742 66.5595 13.3324 66.5464 13.2937C66.5332 13.255 66.5085 13.2214 66.4757 13.1974L64.1592 11.5271C64.126 11.5034 64.0864 11.4908 64.0457 11.4908C64.0051 11.4908 63.9655 11.5034 63.9323 11.5271L61.9965 12.913C60.9569 12.4806 59.8544 12.2221 58.7322 12.1475L57.6018 10.0443C57.5821 10.0087 57.552 9.9801 57.5156 9.96236C57.4791 9.94463 57.4382 9.93864 57.3982 9.94523L54.588 10.415C54.548 10.4217 54.511 10.4408 54.4822 10.4697C54.4535 10.4986 54.4344 10.5359 54.4277 10.5762L54.0314 12.9341C52.9938 13.3696 52.0335 13.9726 51.1884 14.7194L48.9122 14.0375C48.8733 14.0258 48.8317 14.0266 48.7932 14.0399C48.7548 14.0532 48.7214 14.0782 48.6978 14.1116L47.0403 16.446C47.0169 16.4794 47.0044 16.5192 47.0044 16.5601C47.0044 16.601 47.0169 16.6408 47.0403 16.6742L48.4172 18.6254C47.9881 19.673 47.7316 20.7841 47.6576 21.9149L45.5706 23.0541C45.5353 23.0739 45.507 23.1042 45.4894 23.1408C45.4718 23.1775 45.4658 23.2187 45.4723 23.2589L45.9384 26.0912C45.9451 26.1315 45.964 26.1688 45.9927 26.1978C46.0214 26.2268 46.0584 26.246 46.0984 26.2527L48.4382 26.6518C48.8706 27.6981 49.4694 28.6664 50.2111 29.5184L49.5345 31.8122C49.5228 31.8515 49.5236 31.8934 49.5368 31.9321C49.5499 31.9709 49.5748 32.0045 49.6079 32.0283L51.9244 33.6986C51.9575 33.7222 51.9971 33.7348 52.0376 33.7348C52.0782 33.7348 52.1178 33.7222 52.1509 33.6986L54.0871 32.3111C55.1266 32.7435 56.2292 33.002 57.3514 33.0766L58.4817 35.1797C58.5014 35.2153 58.5315 35.2439 58.568 35.2617C58.6044 35.2794 58.6454 35.2854 58.6853 35.2788L61.4955 34.809C61.5355 34.8021 61.5723 34.7829 61.601 34.754C61.6297 34.7251 61.6489 34.688 61.6558 34.6478L62.0519 32.2896C63.09 31.854 64.0508 31.2507 64.8961 30.5033L67.1726 31.1852C67.2116 31.1966 67.2531 31.1957 67.2915 31.1824C67.3299 31.1692 67.3632 31.1443 67.387 31.1112L69.0413 28.7797Z" fill="white"/>
<path d="M57.8028 25.4898C57.0647 25.4274 56.3794 25.079 55.891 24.5179C55.4026 23.9568 55.1491 23.2267 55.1838 22.4812C55.2186 21.7356 55.5388 21.0327 56.0773 20.5201C56.6157 20.0076 57.3304 19.7255 58.071 19.7331C58.8116 19.7406 59.5205 20.0373 60.0485 20.5607C60.5765 21.0841 60.8826 21.7934 60.9023 22.5396C60.9221 23.2857 60.654 24.0104 60.1543 24.5614C59.6547 25.1125 58.9626 25.4468 58.2234 25.4941C58.0833 25.5029 57.9427 25.5014 57.8028 25.4898ZM56.6226 20.9257C56.2347 21.2566 55.9726 21.7127 55.8811 22.2165C55.7895 22.7202 55.8741 23.2404 56.1205 23.6883C56.3669 24.1363 56.7597 24.4842 57.2322 24.673C57.7046 24.8617 58.2274 24.8795 58.7114 24.7233C59.1954 24.5672 59.6106 24.2467 59.8865 23.8166C60.1623 23.3865 60.2816 22.8732 60.224 22.3644C60.1664 21.8556 59.9355 21.3826 59.5706 21.0261C59.2058 20.6696 58.7295 20.4516 58.2231 20.4093C58.1148 20.4004 58.006 20.3994 57.8975 20.4064C57.4279 20.4357 56.9803 20.6174 56.6216 20.9244L56.6226 20.9257Z" fill="#FF0D1B"/>
<path d="M58.4271 29.6556C58.6675 29.6401 58.907 29.6125 59.1457 29.5726C59.2214 29.5601 59.2965 29.5462 59.3715 29.531C59.7408 29.4572 60.1035 29.3537 60.4563 29.2215L60.4708 29.2162L60.5114 29.2006L60.5904 29.1696C60.6316 29.1532 60.6646 29.1209 60.6822 29.08C60.6998 29.039 60.7005 28.9927 60.6842 28.9512C60.6679 28.9097 60.6359 28.8765 60.5953 28.8587C60.5546 28.841 60.5087 28.8403 60.4675 28.8567C59.1916 29.3649 57.7918 29.467 56.4565 29.1494C55.1213 28.8319 53.9146 28.1098 52.9988 27.0803C52.1466 26.1256 51.584 24.9446 51.3776 23.6775C51.3398 23.4486 51.3135 23.2179 51.2989 22.9863C51.198 21.3175 51.7143 19.6701 52.7481 18.3624C53.782 17.0548 55.26 16.1795 56.8967 15.9058C60.5465 15.2963 64.0052 17.7912 64.61 21.4676C64.8087 22.6732 64.6794 23.9105 64.236 25.0479C64.227 25.0709 64.2231 25.0955 64.2245 25.1202C64.227 25.1584 64.2423 25.1945 64.2679 25.2228C64.2936 25.251 64.3279 25.2696 64.3654 25.2755C64.4029 25.2814 64.4413 25.2743 64.4742 25.2553C64.5072 25.2364 64.5328 25.2066 64.5467 25.1711C65.0128 23.9771 65.1487 22.6781 64.9401 21.4125C64.3051 17.5527 60.6714 14.9339 56.8426 15.5738C55.1244 15.8612 53.5728 16.7801 52.4875 18.1529C51.4022 19.5258 50.8602 21.2552 50.9662 23.0072C50.9816 23.2501 51.0091 23.4922 51.0488 23.7323C51.3338 25.4644 52.2459 27.0285 53.6087 28.1223C54.9716 29.2161 56.6884 29.7619 58.4274 29.6542L58.4271 29.6556Z" fill="#FF0D1B"/>
<path d="M89.2468 34.0072C89.3024 34.0036 89.3553 33.982 89.3977 33.9455C89.4401 33.9091 89.4696 33.8598 89.4819 33.805C89.53 33.59 89.5727 33.3703 89.6077 33.1526C89.6132 33.1189 89.612 33.0845 89.6043 33.0513C89.5966 33.0181 89.5824 32.9867 89.5627 32.959C89.5429 32.9313 89.5179 32.9078 89.4892 32.8898C89.4604 32.8718 89.4284 32.8598 89.395 32.8542C89.3616 32.8487 89.3274 32.8499 89.2945 32.8577C89.2615 32.8655 89.2304 32.8797 89.2029 32.8997C89.1754 32.9196 89.1521 32.9447 89.1342 32.9737C89.1164 33.0027 89.1044 33.035 89.0989 33.0687C89.0662 33.2761 89.0248 33.4853 88.9789 33.6907C88.964 33.7579 88.976 33.8284 89.0124 33.8866C89.0489 33.9449 89.1067 33.9863 89.1734 34.0016C89.1975 34.0069 89.2222 34.0088 89.2468 34.0072Z" fill="white"/>
<path d="M89.4778 32.0258C89.4094 32.0231 89.345 31.9932 89.2985 31.9427C89.252 31.8921 89.2274 31.8251 89.2299 31.7562C89.2436 31.3928 89.2392 31.0289 89.2165 30.666C89.2116 30.5897 89.2057 30.5133 89.1994 30.4367C89.1937 30.3681 89.2153 30.2999 89.2593 30.2473C89.3034 30.1946 89.3664 30.1618 89.4345 30.1559C89.5022 30.1524 89.5687 30.1749 89.6205 30.219C89.6723 30.263 89.7055 30.3253 89.7135 30.3931C89.72 30.4733 89.7258 30.5532 89.7309 30.6329C89.7548 31.0135 89.7597 31.395 89.7453 31.776C89.7428 31.8403 89.7168 31.9013 89.6723 31.9474C89.6278 31.9934 89.568 32.0213 89.5043 32.0255C89.4955 32.0258 89.4873 32.0261 89.4778 32.0258ZM89.0096 29.1311C88.9202 28.7001 88.8046 28.2751 88.6634 27.8585C88.6437 27.7939 88.6497 27.7241 88.6802 27.6639C88.7107 27.6037 88.7633 27.5578 88.8267 27.536C88.8902 27.5141 88.9596 27.5181 89.0203 27.547C89.0809 27.5758 89.128 27.6274 89.1516 27.6906C89.2995 28.1273 89.4207 28.5727 89.5145 29.0244C89.5285 29.0919 89.5153 29.1622 89.4779 29.2199C89.4404 29.2776 89.3818 29.3181 89.3148 29.3323C89.3027 29.3346 89.2905 29.3362 89.2781 29.3369C89.2163 29.3408 89.1552 29.3221 89.1059 29.2843C89.0566 29.2465 89.0224 29.1921 89.0096 29.1311ZM88.1635 26.6387C87.972 26.243 87.7563 25.8597 87.5176 25.491C87.4803 25.4333 87.4671 25.363 87.4812 25.2956C87.4952 25.2281 87.5353 25.1691 87.5926 25.1314C87.6498 25.0937 87.7196 25.0805 87.7865 25.0947C87.8534 25.1088 87.912 25.1492 87.9494 25.2069C88.1998 25.5937 88.4261 25.9958 88.627 26.4108C88.6548 26.4724 88.6576 26.5425 88.6348 26.6062C88.6121 26.6699 88.5656 26.7221 88.5052 26.7518C88.4448 26.7815 88.3754 26.7863 88.3116 26.7652C88.2478 26.7441 88.1946 26.6987 88.1635 26.6387ZM86.7358 24.4325C86.4539 24.0963 86.1517 23.7779 85.8309 23.4791C85.7832 23.4317 85.7557 23.3675 85.7541 23.3C85.7525 23.2326 85.777 23.1671 85.8225 23.1175C85.8679 23.0679 85.9306 23.0381 85.9975 23.0343C86.0644 23.0305 86.1301 23.053 86.1807 23.0971C86.517 23.4105 86.8339 23.7443 87.1295 24.0969C87.1532 24.1226 87.1715 24.1529 87.1833 24.186C87.1951 24.2191 87.2001 24.2543 87.198 24.2894C87.1959 24.3244 87.1868 24.3587 87.1712 24.3902C87.1556 24.4216 87.1338 24.4495 87.1072 24.4722C87.0805 24.4949 87.0496 24.512 87.0163 24.5223C86.983 24.5326 86.9479 24.5361 86.9132 24.5323C86.8785 24.5286 86.8449 24.5179 86.8145 24.5007C86.7841 24.4836 86.7574 24.4604 86.7361 24.4325H86.7358ZM84.8166 22.6442C84.4619 22.3872 84.092 22.1523 83.7089 21.9408C83.6507 21.9068 83.608 21.8511 83.5899 21.7858C83.5718 21.7205 83.5798 21.6506 83.6122 21.5911C83.6445 21.5316 83.6986 21.4872 83.763 21.4674C83.8274 21.4475 83.8969 21.4538 83.9567 21.4849C84.3581 21.7067 84.7458 21.9529 85.1176 22.222C85.1713 22.2629 85.207 22.3234 85.2171 22.3905C85.2272 22.4576 85.2108 22.526 85.1715 22.5811C85.1322 22.6362 85.0731 22.6737 85.0068 22.6855C84.9405 22.6973 84.8722 22.6824 84.8166 22.6442ZM82.5247 21.3795C82.1192 21.2173 81.704 21.0806 81.2816 20.9702C81.2488 20.9615 81.218 20.9464 81.191 20.9258C81.164 20.9051 81.1413 20.8793 81.1242 20.8498C81.1072 20.8203 81.096 20.7877 81.0914 20.7539C81.0868 20.72 81.0889 20.6856 81.0975 20.6526C81.1061 20.6195 81.1211 20.5885 81.1416 20.5613C81.1621 20.5341 81.1877 20.5113 81.217 20.494C81.2462 20.4768 81.2786 20.4656 81.3122 20.4609C81.3458 20.4563 81.3799 20.4584 81.4127 20.4671C81.8558 20.583 82.2913 20.7264 82.7168 20.8965C82.7783 20.9235 82.827 20.9734 82.8525 21.0358C82.8781 21.0983 82.8785 21.1683 82.8538 21.231C82.829 21.2938 82.781 21.3444 82.7199 21.3721C82.6588 21.3998 82.5894 21.4025 82.5264 21.3795H82.5247ZM79.9968 20.7188C79.5637 20.6618 79.1275 20.6319 78.6907 20.6293C78.6561 20.6303 78.6216 20.6242 78.5893 20.6115C78.5571 20.5988 78.5277 20.5797 78.5029 20.5553C78.4781 20.5309 78.4585 20.5017 78.4452 20.4695C78.4318 20.4372 78.4251 20.4026 78.4253 20.3677C78.4255 20.3328 78.4327 20.2983 78.4464 20.2663C78.4602 20.2342 78.4802 20.2053 78.5053 20.1812C78.5303 20.1571 78.56 20.1383 78.5924 20.126C78.6248 20.1137 78.6594 20.1082 78.694 20.1096C79.1519 20.1125 79.6092 20.1438 80.0633 20.2034C80.1266 20.2121 80.1845 20.244 80.2258 20.2932C80.267 20.3424 80.2887 20.4052 80.2866 20.4695C80.2845 20.5339 80.2588 20.5952 80.2145 20.6415C80.1702 20.6879 80.1103 20.716 80.0466 20.7205C80.03 20.7214 80.0133 20.7208 79.9968 20.7185V20.7188ZM75.7828 20.7452C75.7747 20.7121 75.7732 20.6777 75.7784 20.6439C75.7836 20.6102 75.7953 20.5778 75.8129 20.5487C75.8305 20.5195 75.8536 20.4941 75.881 20.474C75.9083 20.4539 75.9394 20.4394 75.9723 20.4314C76.3588 20.3365 76.75 20.2625 77.1443 20.2097C77.204 20.2011 77.2636 20.1938 77.3236 20.1866C77.3573 20.1823 77.3916 20.1849 77.4243 20.1942C77.457 20.2034 77.4875 20.2192 77.5142 20.2404C77.5408 20.2617 77.5629 20.2881 77.5793 20.3181C77.5956 20.3482 77.6059 20.3811 77.6095 20.4152C77.6172 20.4836 77.5978 20.5524 77.5553 20.6064C77.5128 20.6604 77.4509 20.6952 77.383 20.7033C77.3269 20.7096 77.2705 20.7168 77.2135 20.7248C76.8369 20.7751 76.4633 20.8457 76.0942 20.9362C76.0795 20.9398 76.0645 20.9421 76.0493 20.9431C75.989 20.9466 75.9295 20.9287 75.8809 20.8925C75.8324 20.8563 75.798 20.804 75.7838 20.7449L75.7828 20.7452Z" fill="white"/>
<g opacity="0.3">
<path d="M79.1666 42.5426C78.7168 42.5653 78.2661 42.5606 77.8169 42.5287C77.7831 42.5263 77.7501 42.5172 77.7198 42.502C77.6895 42.4867 77.6625 42.4656 77.6403 42.4399C77.6181 42.4141 77.6012 42.3842 77.5905 42.3518C77.5798 42.3194 77.5755 42.2853 77.5779 42.2512C77.5803 42.2172 77.5893 42.184 77.6044 42.1534C77.6195 42.1229 77.6405 42.0957 77.6661 42.0733C77.6916 42.051 77.7213 42.0339 77.7534 42.0231C77.7856 42.0123 77.8195 42.008 77.8533 42.0104C78.2817 42.0408 78.7117 42.0451 79.1407 42.0233C79.208 42.021 79.2736 42.0453 79.3234 42.0911C79.3731 42.1369 79.4032 42.2005 79.407 42.2683C79.4109 42.3361 79.3882 42.4027 79.344 42.4539C79.2997 42.5051 79.2373 42.5368 79.1702 42.5423L79.1666 42.5426ZM80.2114 42.1792C80.2056 42.1456 80.2064 42.1112 80.2139 42.0779C80.2213 42.0446 80.2352 42.0132 80.2547 41.9853C80.2742 41.9574 80.299 41.9337 80.3276 41.9155C80.3562 41.8973 80.3881 41.885 80.4215 41.8792C80.8451 41.8054 81.264 41.7061 81.6758 41.5819C81.7413 41.5623 81.8119 41.5697 81.872 41.6025C81.9321 41.6352 81.9768 41.6907 81.9964 41.7567C82.016 41.8226 82.0088 41.8937 81.9764 41.9544C81.944 42.015 81.8891 42.0602 81.8237 42.0801C81.392 42.2099 80.953 42.3136 80.509 42.3906C80.4757 42.3965 80.4415 42.3956 80.4084 42.3881C80.3754 42.3806 80.3442 42.3666 80.3165 42.3469C80.2889 42.3272 80.2653 42.3022 80.2473 42.2733C80.2292 42.2444 80.217 42.2122 80.2114 42.1786V42.1792ZM76.478 42.3487C76.0359 42.2617 75.5994 42.148 75.1709 42.0081C75.1386 41.9975 75.1087 41.9806 75.0829 41.9584C75.0571 41.9362 75.0358 41.9091 75.0204 41.8786C75.005 41.8481 74.9957 41.8149 74.993 41.7808C74.9904 41.7467 74.9944 41.7124 75.0049 41.6799C75.0153 41.6473 75.0321 41.6172 75.0541 41.5912C75.0762 41.5651 75.1031 41.5437 75.1333 41.5282C75.1636 41.5127 75.1965 41.5033 75.2304 41.5006C75.2642 41.4979 75.2983 41.502 75.3306 41.5125C75.7389 41.6465 76.1549 41.7555 76.5763 41.8389C76.6377 41.8512 76.6925 41.8856 76.7305 41.9355C76.7686 41.9855 76.7874 42.0477 76.7834 42.1106C76.7794 42.1735 76.7529 42.2327 76.7088 42.2774C76.6646 42.322 76.6059 42.349 76.5435 42.3533C76.5216 42.355 76.4996 42.3538 76.478 42.3497V42.3487ZM82.7521 41.4795C82.7246 41.4166 82.723 41.3452 82.7475 41.2811C82.7721 41.2169 82.8209 41.1652 82.8832 41.1372C83.2772 40.9632 83.6604 40.7653 84.0306 40.5445C84.0892 40.5137 84.1573 40.5067 84.2208 40.525C84.2844 40.5432 84.3385 40.5853 84.3722 40.6427C84.4058 40.7 84.4163 40.7681 84.4016 40.833C84.3868 40.8979 84.3479 40.9547 84.2929 40.9915C83.9052 41.2232 83.5039 41.4309 83.0911 41.6133C83.0635 41.6255 83.034 41.6327 83.0039 41.6344C82.9512 41.6376 82.8989 41.6245 82.8538 41.5968C82.8088 41.5691 82.7733 41.5281 82.7521 41.4795ZM73.916 41.5092C73.5078 41.3173 73.1115 41.1007 72.7292 40.8607C72.6729 40.8234 72.6333 40.7654 72.6188 40.6991C72.6044 40.6328 72.6163 40.5634 72.652 40.5058C72.6876 40.4482 72.7443 40.4069 72.8097 40.3908C72.8752 40.3747 72.9443 40.3851 73.0023 40.4197C73.3667 40.6487 73.7447 40.8552 74.134 41.0381C74.1862 41.0624 74.2288 41.1036 74.2551 41.1551C74.2814 41.2066 74.2899 41.2655 74.2792 41.3225C74.2685 41.3794 74.2392 41.4311 74.1961 41.4694C74.1529 41.5076 74.0983 41.5303 74.0409 41.5337C73.9975 41.5361 73.9543 41.5273 73.9153 41.5082L73.916 41.5092ZM71.6286 40.0728C71.2779 39.7878 70.9444 39.4819 70.6301 39.1566C70.5822 39.1072 70.5559 39.0407 70.5567 38.9717C70.5576 38.9026 70.5856 38.8368 70.6346 38.7886C70.6837 38.7404 70.7497 38.7138 70.8182 38.7147C70.8867 38.7156 70.952 38.7438 70.9999 38.7932C71.2993 39.1032 71.6167 39.3949 71.9506 39.6667C71.9782 39.6877 72.0014 39.7141 72.0187 39.7442C72.036 39.7744 72.0472 39.8078 72.0514 39.8424C72.0557 39.877 72.053 39.9121 72.0436 39.9456C72.0341 39.9792 72.018 40.0104 71.9963 40.0376C71.9746 40.0647 71.9477 40.0872 71.9172 40.1037C71.8867 40.1201 71.8532 40.1302 71.8188 40.1334C71.7843 40.1365 71.7496 40.1327 71.7166 40.122C71.6837 40.1114 71.6532 40.0942 71.627 40.0714L71.6286 40.0728ZM69.7485 38.1255C69.4754 37.7642 69.2243 37.3865 68.9968 36.9944C68.965 36.935 68.9573 36.8656 68.9754 36.8007C68.9935 36.7357 69.0358 36.6804 69.0936 36.6464C69.1514 36.6124 69.22 36.6023 69.285 36.6182C69.35 36.6342 69.4063 36.675 69.442 36.732C69.6589 37.1059 69.8983 37.4661 70.1586 37.8107C70.2 37.8654 70.218 37.9345 70.2089 38.0026C70.1997 38.0708 70.1641 38.1324 70.1098 38.1741C70.0695 38.2053 70.0208 38.2236 69.9701 38.2266C69.9277 38.2295 69.8852 38.2216 69.8465 38.2038C69.8079 38.186 69.7742 38.1587 69.7485 38.1246V38.1255Z" fill="white"/>
<path d="M85.28 40.2722C85.3314 40.2691 85.3807 40.2503 85.4213 40.2184C85.596 40.0826 85.7672 39.9406 85.9308 39.7968C85.9823 39.7515 86.0138 39.6875 86.0185 39.6187C86.0231 39.55 86.0005 39.4822 85.9555 39.4303C85.9333 39.4046 85.9062 39.3836 85.8759 39.3684C85.8455 39.3532 85.8125 39.3442 85.7788 39.3419C85.7106 39.3372 85.6433 39.36 85.5918 39.4053C85.4357 39.5425 85.2721 39.6776 85.1056 39.8074C85.062 39.8415 85.0305 39.8888 85.0155 39.9423C85.0006 39.9958 85.003 40.0527 85.0225 40.1047C85.042 40.1567 85.0776 40.201 85.1239 40.2312C85.1702 40.2613 85.225 40.2757 85.28 40.2722Z" fill="white"/>
</g>
<path d="M85.9638 35.3741C85.9794 35.3518 85.9878 35.3251 85.9878 35.2978C85.9878 35.2704 85.9794 35.2438 85.9638 35.2214L85.0435 33.9158C85.3307 33.2148 85.5024 32.4713 85.552 31.7145L86.9482 30.9524C86.9719 30.9391 86.9909 30.9188 87.0027 30.8941C87.0144 30.8695 87.0183 30.8419 87.0138 30.8149L86.7017 28.9203C86.6972 28.8933 86.6845 28.8683 86.6654 28.8489C86.6462 28.8295 86.6216 28.8166 86.5948 28.8119L85.0291 28.5446C84.7394 27.8453 84.3387 27.1981 83.8427 26.6285L84.2954 25.0936C84.3031 25.0673 84.3025 25.0392 84.2937 25.0133C84.2849 24.9874 84.2683 24.9649 84.2462 24.9489L82.6962 23.8312C82.6741 23.8154 82.6476 23.8069 82.6205 23.8069C82.5934 23.8069 82.5669 23.8154 82.5448 23.8312L81.2492 24.7586C80.5535 24.4693 79.8157 24.2963 79.0648 24.2462L78.3085 22.8391C78.2953 22.8153 78.2752 22.7962 78.2508 22.7843C78.2265 22.7725 78.1991 22.7686 78.1724 22.773L76.292 23.0872C76.2652 23.0917 76.2405 23.1045 76.2212 23.1238C76.2019 23.1431 76.1891 23.1679 76.1844 23.1949L75.9192 24.7731C75.2246 25.0646 74.5818 25.4684 74.0161 25.9684L72.493 25.5121C72.4669 25.5044 72.4391 25.505 72.4134 25.5139C72.3877 25.5227 72.3653 25.5395 72.3494 25.5617L71.2404 27.1237C71.2246 27.146 71.2162 27.1728 71.2162 27.2002C71.2162 27.2276 71.2246 27.2543 71.2404 27.2767L72.1606 28.582C71.8736 29.283 71.7019 30.0265 71.6521 30.7832L70.2559 31.5454C70.2322 31.5587 70.2132 31.579 70.2014 31.6036C70.1897 31.6282 70.1858 31.6559 70.1903 31.6828L70.5021 33.5778C70.5066 33.6048 70.5193 33.6296 70.5385 33.649C70.5576 33.6683 70.5822 33.6812 70.6089 33.6859L72.175 33.9531C72.4642 34.6532 72.8649 35.3009 73.3611 35.8709L72.9084 37.4062C72.9008 37.4324 72.9014 37.4604 72.9102 37.4863C72.919 37.5121 72.9355 37.5346 72.9576 37.5506L74.5076 38.6682C74.5297 38.6841 74.5563 38.6926 74.5835 38.6926C74.6106 38.6926 74.6372 38.6841 74.6593 38.6682L75.9546 37.7409C76.6503 38.0302 77.3881 38.2033 78.139 38.2533L78.8953 39.6603C78.9085 39.6842 78.9287 39.7033 78.9531 39.7152C78.9775 39.727 79.005 39.7309 79.0317 39.7264L80.9121 39.4119C80.9389 39.4073 80.9635 39.3945 80.9827 39.3752C81.0019 39.3559 81.0147 39.3311 81.0193 39.3042L81.2846 37.7263C81.9792 37.4348 82.622 37.0309 83.1877 36.5307L84.7111 36.9869C84.7371 36.9946 84.7649 36.994 84.7905 36.9851C84.8162 36.9762 84.8385 36.9596 84.8544 36.9374L85.9638 35.3741Z" fill="white"/>
<path d="M78.4422 33.2062C77.9416 33.1633 77.477 32.9266 77.146 32.5458C76.815 32.1649 76.6434 31.6696 76.6672 31.1639C76.6911 30.6582 76.9085 30.1815 77.2738 29.834C77.6392 29.4865 78.1239 29.2952 78.6263 29.3004C79.1286 29.3056 79.6094 29.5068 79.9677 29.8617C80.3259 30.2167 80.5336 30.6977 80.5472 31.2038C80.5608 31.7099 80.3792 32.2016 80.0406 32.5755C79.7019 32.9495 79.2326 33.1766 78.7313 33.2092C78.635 33.2151 78.5383 33.2141 78.4422 33.2062ZM77.1738 31.1275C77.1581 31.3168 77.1796 31.5073 77.237 31.6882C77.2945 31.8691 77.3867 32.0368 77.5085 32.1817C77.6303 32.3266 77.7792 32.446 77.9468 32.5329C78.1144 32.6198 78.2973 32.6726 78.4851 32.6882C78.8643 32.7199 79.2404 32.5986 79.5308 32.3509C79.8213 32.1031 80.0021 31.7493 80.0336 31.3672C80.0651 30.9851 79.9447 30.606 79.6989 30.3133C79.4531 30.0207 79.102 29.8384 78.7228 29.8067C78.6527 29.8008 78.5822 29.8 78.512 29.8044C78.1687 29.8269 77.8448 29.9729 77.5992 30.2157C77.3537 30.4585 77.2027 30.782 77.1738 31.1275Z" fill="#FF0D1B"/>
<path d="M78.8763 36.1065C79.0394 36.0959 79.2033 36.0771 79.3681 36.05C79.6944 35.9955 80.0143 35.9078 80.3231 35.7883L80.3644 35.7718C80.4257 35.7449 80.4742 35.695 80.4997 35.6327C80.5252 35.5704 80.5258 35.5006 80.5012 35.4379C80.4766 35.3753 80.4289 35.3247 80.368 35.2968C80.3071 35.2689 80.2379 35.2659 80.1749 35.2885C79.8875 35.4031 79.5888 35.4864 79.2838 35.5369L79.2337 35.5452C78.5224 35.658 77.7944 35.5891 77.1165 35.3446C76.7481 35.2115 76.3991 35.029 76.0789 34.8022L76.071 34.7965L76.0471 34.779C75.5824 34.446 75.1879 34.0234 74.8864 33.5357C74.5848 33.048 74.3822 32.5049 74.2902 31.9378C74.2659 31.7897 74.2489 31.6404 74.2394 31.4905C74.1709 30.371 74.5316 29.2677 75.247 28.4084C75.9625 27.5492 76.9781 26.9997 78.0841 26.8734C79.19 26.7471 80.3019 27.0536 81.1901 27.7297C82.0782 28.4057 82.6748 29.3997 82.8566 30.5063C82.8806 30.6525 82.8973 30.7998 82.9067 30.9477C82.9471 31.5872 82.8473 32.2277 82.6143 32.8239C82.6002 32.8593 82.5943 32.8975 82.5969 32.9356C82.6006 32.9945 82.6241 33.0505 82.6636 33.0941C82.7031 33.1378 82.7562 33.1666 82.8141 33.1758C82.872 33.1849 82.9313 33.1739 82.9822 33.1445C83.0331 33.1152 83.0725 33.0692 83.0939 33.0142C83.3548 32.3473 83.4667 31.6307 83.4218 30.9153C83.4113 30.7502 83.3926 30.585 83.3657 30.4198C83.1624 29.1817 82.495 28.0697 81.5014 27.3132C80.5077 26.5568 79.2638 26.2138 78.0265 26.3551C76.7891 26.4964 75.6529 27.1112 74.8524 28.0724C74.0519 29.0337 73.6484 30.2681 73.725 31.5206C73.7355 31.6883 73.7545 31.8553 73.7818 32.0211C74.1916 34.519 76.4215 36.2634 78.8763 36.1065Z" fill="#FF0D1B"/>
<path d="M15.4766 81.9138C15.4779 82.2834 15.6243 82.6375 15.8838 82.8987C16.1434 83.16 16.4949 83.3071 16.8617 83.3079H91.7619C92.1287 83.3071 92.4802 83.16 92.7397 82.8987C92.9993 82.6375 93.1457 82.2834 93.147 81.9138L93.7699 38.5376C93.7699 37.7708 92.8732 36.2732 91.2298 36.3859L18.0298 34.4773C17.557 34.4647 17.0867 34.549 16.6472 34.7251C16.2078 34.9013 15.8084 35.1656 15.4735 35.502C15.1385 35.8385 14.8749 36.24 14.6987 36.6823C14.5224 37.1245 14.4372 37.5983 14.4482 38.0747L15.4766 81.9138Z" fill="#073064"/>
<path d="M16.8437 80.5758C16.8444 80.9261 16.9828 81.2618 17.2286 81.5094C17.4744 81.7571 17.8074 81.8965 18.155 81.8973H89.9548C90.3023 81.8965 90.6354 81.7571 90.8812 81.5094C91.1269 81.2618 91.2654 80.9261 91.2661 80.5758L91.8543 41.1988C91.7851 38.8291 89.7233 37.9774 88.474 38.0272L18.3173 36.1302C17.9849 36.1215 17.6543 36.1808 17.3455 36.3048C17.0366 36.4287 16.756 36.6146 16.5206 36.8512C16.2852 37.0878 16.1 37.3701 15.9762 37.681C15.8524 37.9919 15.7926 38.325 15.8005 38.6599L16.8437 80.5758Z" fill="#014898"/>
<path d="M90.49 56.4577H90.487C90.3808 56.4577 90.2962 56.3887 90.2979 56.3061L90.3444 53.8418C90.3444 53.7602 90.4316 53.6948 90.5362 53.6948H90.5392C90.6451 53.6948 90.73 53.7639 90.7283 53.8465L90.6818 56.3104C90.6801 56.3923 90.5946 56.4577 90.49 56.4577Z" fill="white"/>
<path d="M90.6038 50.4191H90.6019C90.4947 50.4191 90.4101 50.35 90.4117 50.2674L90.5897 40.8297C90.5865 40.2681 90.3675 39.8214 89.9393 39.5023C89.1397 38.9076 87.8703 38.937 87.8169 38.939L65.393 38.4715C65.2868 38.4695 65.2032 38.4008 65.2061 38.3182C65.2091 38.2356 65.2904 38.1656 65.4028 38.1732L87.8153 38.6406C87.9549 38.6344 89.3063 38.6162 90.2062 39.2865C90.7127 39.6638 90.9713 40.1838 90.9753 40.831L90.7969 50.2721C90.794 50.3537 90.7084 50.4191 90.6038 50.4191Z" fill="white"/>
<path d="M11.8276 86.9087L95.9642 86.9087C96.0665 86.9087 96.1494 86.8251 96.1494 86.722V83.2842C96.1494 83.1811 96.0665 83.0975 95.9642 83.0975L11.8276 83.0975C11.7253 83.0975 11.6424 83.1811 11.6424 83.2842V86.722C11.6424 86.8251 11.7253 86.9087 11.8276 86.9087Z" fill="#073064"/>
<path d="M40.6622 42.1234L21.2688 41.9863C21.2582 41.9862 21.2477 41.984 21.2379 41.9798C21.2281 41.9756 21.2192 41.9696 21.2117 41.9619C21.2043 41.9543 21.1984 41.9452 21.1944 41.9353C21.1904 41.9254 21.1884 41.9147 21.1885 41.904L21.1993 40.3298C21.1995 40.3081 21.2082 40.2874 21.2235 40.2722C21.2388 40.257 21.2594 40.2484 21.2809 40.2485L40.674 40.3856C40.6847 40.3857 40.6952 40.3878 40.705 40.392C40.7149 40.3962 40.7238 40.4022 40.7313 40.4099C40.7388 40.4175 40.7447 40.4266 40.7487 40.4365C40.7527 40.4465 40.7547 40.4572 40.7547 40.4679L40.7435 42.0421C40.7435 42.0528 40.7413 42.0634 40.7372 42.0733C40.7331 42.0832 40.7271 42.0922 40.7196 42.0997C40.712 42.1073 40.7031 42.1133 40.6932 42.1173C40.6834 42.1214 40.6728 42.1234 40.6622 42.1234Z" fill="white"/>
<path d="M52.9063 42.2474L46.2001 42.2002C46.1899 42.2001 46.1798 42.198 46.1704 42.1939C46.161 42.1899 46.1525 42.1841 46.1453 42.1768C46.1382 42.1694 46.1325 42.1607 46.1287 42.1512C46.1249 42.1417 46.123 42.1315 46.123 42.1212L46.1339 40.5404C46.134 40.5196 46.1424 40.4997 46.1571 40.4851C46.1718 40.4705 46.1916 40.4623 46.2122 40.4624L52.9184 40.51C52.939 40.5102 52.9587 40.5185 52.9732 40.5332C52.9877 40.548 52.9958 40.5679 52.9958 40.5886L52.9846 42.1698C52.9846 42.18 52.9825 42.1902 52.9785 42.1997C52.9745 42.2091 52.9687 42.2177 52.9614 42.2249C52.9541 42.2321 52.9455 42.2378 52.9361 42.2417C52.9266 42.2456 52.9165 42.2475 52.9063 42.2474Z" fill="white"/>
<path d="M67.8058 40.613L54.5678 40.5199C54.4813 40.5193 54.4106 40.5895 54.41 40.6767L54.4002 42.0986C54.3996 42.1858 54.4693 42.257 54.5558 42.2576L67.7938 42.3507C67.8803 42.3514 67.951 42.2812 67.9516 42.1939L67.9614 40.772C67.962 40.6848 67.8924 40.6136 67.8058 40.613Z" fill="white"/>
<path d="M26.2376 43.3371L21.3055 43.3024C21.2198 43.3018 21.1499 43.3712 21.1493 43.4575L21.1394 44.8827C21.1388 44.969 21.2078 45.0395 21.2934 45.0401L26.2256 45.0748C26.3112 45.0754 26.3811 45.0059 26.3817 44.9196L26.3916 43.4944C26.3922 43.4081 26.3232 43.3377 26.2376 43.3371Z" fill="white"/>
<path d="M40.6802 45.1798L26.6207 45.0807C26.6101 45.0806 26.5995 45.0785 26.5897 45.0744C26.5799 45.0702 26.571 45.0642 26.5635 45.0566C26.556 45.049 26.5501 45.0399 26.5461 45.03C26.542 45.0201 26.54 45.0095 26.54 44.9988L26.5512 43.4242C26.5512 43.4135 26.5534 43.4029 26.5575 43.393C26.5616 43.3831 26.5677 43.3741 26.5753 43.3666C26.5829 43.3591 26.5919 43.3531 26.6017 43.3491C26.6116 43.3451 26.6222 43.3431 26.6328 43.3433L40.6923 43.4424C40.703 43.4425 40.7135 43.4447 40.7233 43.4488C40.7331 43.453 40.742 43.4591 40.7494 43.4667C40.7569 43.4744 40.7628 43.4834 40.7668 43.4934C40.7707 43.5033 40.7728 43.5139 40.7727 43.5246L40.7618 45.0989C40.7616 45.1205 40.7529 45.1411 40.7376 45.1563C40.7223 45.1714 40.7017 45.1799 40.6802 45.1798Z" fill="white"/>
<path d="M52.954 43.5658L46.2476 43.5186C46.2047 43.5183 46.1697 43.5531 46.1694 43.5964L46.1584 45.1775C46.1581 45.2207 46.1927 45.256 46.2356 45.2563L52.9419 45.3035C52.9848 45.3038 53.0199 45.269 53.0202 45.2258L53.0311 43.6446C53.0314 43.6014 52.9969 43.5661 52.954 43.5658Z" fill="white"/>
<path d="M78.8791 43.7479L59.3403 43.6105C59.2538 43.6099 59.1831 43.6801 59.1825 43.7673L59.1726 45.1892C59.172 45.2764 59.2417 45.3476 59.3283 45.3482L78.8671 45.4857C78.9536 45.4863 79.0243 45.4161 79.0249 45.3288L79.0347 43.907C79.0353 43.8197 78.9657 43.7486 78.8791 43.7479Z" fill="white"/>
<path d="M26.1996 48.128L21.2674 48.0949C21.247 48.0948 21.2269 48.0906 21.2081 48.0827C21.1893 48.0747 21.1723 48.0631 21.158 48.0485C21.1437 48.0339 21.1324 48.0166 21.1247 47.9976C21.117 47.9785 21.1132 47.9582 21.1133 47.9377L21.1234 46.5121C21.1235 46.4916 21.1276 46.4714 21.1355 46.4525C21.1434 46.4336 21.1549 46.4165 21.1694 46.4021C21.1838 46.3877 21.201 46.3763 21.2198 46.3686C21.2387 46.3609 21.2588 46.357 21.2792 46.3572L26.2118 46.3922C26.2321 46.3923 26.2522 46.3964 26.271 46.4044C26.2897 46.4123 26.3067 46.4239 26.321 46.4385C26.3353 46.4531 26.3466 46.4703 26.3542 46.4893C26.3619 46.5083 26.3657 46.5286 26.3655 46.5491L26.3557 47.9747C26.355 48.0158 26.3382 48.055 26.309 48.0837C26.2798 48.1124 26.2405 48.1283 26.1996 48.128Z" fill="white"/>
<path d="M40.6516 48.2334L26.592 48.1342C26.5814 48.1342 26.5709 48.132 26.5611 48.1278C26.5513 48.1236 26.5424 48.1175 26.535 48.1099C26.5275 48.1022 26.5216 48.0932 26.5176 48.0833C26.5136 48.0733 26.5116 48.0627 26.5117 48.052L26.5225 46.4778C26.5227 46.4561 26.5314 46.4354 26.5467 46.4201C26.562 46.4049 26.5827 46.3964 26.6042 46.3965L40.6637 46.4956C40.6744 46.4956 40.6849 46.4978 40.6947 46.502C40.7046 46.5061 40.7135 46.5122 40.721 46.5199C40.7285 46.5275 40.7344 46.5366 40.7384 46.5465C40.7424 46.5565 40.7444 46.5671 40.7443 46.5779L40.7332 48.1521C40.733 48.1738 40.7243 48.1945 40.709 48.2097C40.6937 48.2249 40.6731 48.2334 40.6516 48.2334Z" fill="white"/>
<path d="M52.9134 48.3578L46.2073 48.3102C46.197 48.3102 46.1869 48.3081 46.1775 48.3042C46.1681 48.3002 46.1595 48.2944 46.1523 48.2871C46.1451 48.2798 46.1394 48.2711 46.1356 48.2616C46.1317 48.2521 46.1298 48.2418 46.1299 48.2316L46.141 46.6504C46.1411 46.6401 46.1432 46.6299 46.1472 46.6205C46.1512 46.611 46.157 46.6024 46.1643 46.5952C46.1715 46.588 46.1801 46.5823 46.1896 46.5785C46.1991 46.5746 46.2092 46.5727 46.2194 46.5728L52.9253 46.62C52.9459 46.6202 52.9656 46.6286 52.9801 46.6434C52.9946 46.6582 53.0027 46.6782 53.0026 46.699L52.9915 48.2798C52.9914 48.2901 52.9894 48.3002 52.9854 48.3097C52.9815 48.3192 52.9757 48.3278 52.9685 48.3351C52.9612 48.3423 52.9526 48.348 52.9432 48.3519C52.9338 48.3558 52.9237 48.3578 52.9134 48.3578Z" fill="white"/>
<path d="M87.3036 46.8603L61.7485 46.6805C61.662 46.6799 61.5913 46.7501 61.5907 46.8374L61.5809 48.2592C61.5802 48.3465 61.6499 48.4177 61.7365 48.4183L87.2916 48.5981C87.3781 48.5987 87.4487 48.5285 87.4494 48.4412L87.4592 47.0194C87.4598 46.9321 87.3901 46.8609 87.3036 46.8603Z" fill="white"/>
<path d="M26.2205 51.1856L21.2882 51.1506C21.2679 51.1505 21.2478 51.1465 21.229 51.1386C21.2103 51.1307 21.1932 51.1192 21.1789 51.1047C21.1645 51.0902 21.1532 51.073 21.1454 51.054C21.1377 51.0351 21.1337 51.0148 21.1338 50.9943L21.1436 49.5691C21.144 49.5277 21.1606 49.4881 21.1898 49.459C21.2191 49.4299 21.2586 49.4136 21.2997 49.4138L26.232 49.4488C26.2731 49.4492 26.3123 49.4659 26.3412 49.4954C26.3701 49.5249 26.3862 49.5647 26.386 49.6061L26.3759 51.0313C26.3754 51.0725 26.3587 51.1118 26.3296 51.1407C26.3005 51.1695 26.2613 51.1857 26.2205 51.1856Z" fill="white"/>
<path d="M40.7056 51.2917L26.6461 51.1926C26.6354 51.1925 26.6249 51.1904 26.615 51.1862C26.6052 51.1821 26.5963 51.176 26.5888 51.1683C26.5813 51.1607 26.5754 51.1516 26.5714 51.1417C26.5674 51.1317 26.5653 51.1211 26.5654 51.1103L26.5766 49.5361C26.5766 49.5254 26.5787 49.5148 26.5828 49.5049C26.5869 49.4949 26.5929 49.486 26.6004 49.4784C26.608 49.4708 26.617 49.4649 26.6268 49.4608C26.6367 49.4568 26.6472 49.4547 26.6579 49.4548L40.7174 49.5539C40.728 49.554 40.7386 49.5561 40.7484 49.5603C40.7582 49.5644 40.7671 49.5705 40.7746 49.5781C40.7821 49.5857 40.788 49.5947 40.792 49.6046C40.7961 49.6145 40.7981 49.6252 40.7981 49.6359L40.7869 51.2104C40.7869 51.2212 40.7848 51.2318 40.7807 51.2417C40.7766 51.2516 40.7706 51.2606 40.7631 51.2681C40.7555 51.2757 40.7465 51.2817 40.7367 51.2857C40.7268 51.2898 40.7163 51.2918 40.7056 51.2917Z" fill="white"/>
<path d="M52.9608 49.6761L46.2545 49.629C46.2115 49.6287 46.1765 49.6635 46.1762 49.7067L46.1653 51.2878C46.165 51.3311 46.1995 51.3664 46.2424 51.3667L52.9488 51.4139C52.9917 51.4142 53.0267 51.3794 53.027 51.3361L53.038 49.755C53.0383 49.7117 53.0037 49.6764 52.9608 49.6761Z" fill="white"/>
<path d="M87.4188 49.9182L61.8637 49.7384C61.7772 49.7378 61.7065 49.808 61.7059 49.8952L61.6961 51.3171C61.6955 51.4043 61.7652 51.4755 61.8517 51.4761L87.4068 51.6559C87.4933 51.6565 87.564 51.5863 87.5646 51.4991L87.5744 50.0772C87.575 49.99 87.5054 49.9188 87.4188 49.9182Z" fill="white"/>
<path d="M26.1821 54.3574L21.2498 54.3224C21.2294 54.3223 21.2093 54.3181 21.1905 54.3101C21.1718 54.3021 21.1547 54.2905 21.1404 54.2759C21.1261 54.2613 21.1148 54.244 21.1071 54.225C21.0995 54.206 21.0956 54.1857 21.0957 54.1651L21.1055 52.7399C21.1057 52.7194 21.1098 52.6991 21.1177 52.6802C21.1256 52.6613 21.1372 52.6442 21.1517 52.6298C21.1662 52.6154 21.1833 52.6041 21.2022 52.5964C21.2211 52.5887 21.2412 52.5848 21.2616 52.585L26.1942 52.618C26.2145 52.6181 26.2347 52.6223 26.2534 52.6303C26.2722 52.6383 26.2892 52.6499 26.3034 52.6645C26.3177 52.6791 26.329 52.6964 26.3366 52.7154C26.3443 52.7344 26.3481 52.7548 26.348 52.7753L26.3381 54.2005C26.3382 54.2211 26.3342 54.2416 26.3264 54.2607C26.3186 54.2798 26.3071 54.2972 26.2926 54.3118C26.2781 54.3264 26.2608 54.3379 26.2419 54.3457C26.2229 54.3536 26.2026 54.3575 26.1821 54.3574Z" fill="white"/>
<path d="M40.6545 54.4633L26.595 54.3642C26.5843 54.3641 26.5738 54.3619 26.564 54.3578C26.5542 54.3536 26.5454 54.3475 26.5379 54.3399C26.5304 54.3322 26.5246 54.3232 26.5206 54.3132C26.5166 54.3033 26.5146 54.2927 26.5147 54.282L26.5255 52.7077C26.5256 52.6861 26.5343 52.6653 26.5496 52.6501C26.5649 52.6349 26.5856 52.6264 26.6071 52.6265L40.6666 52.7256C40.6881 52.7258 40.7086 52.7345 40.7237 52.7498C40.7388 52.7652 40.7473 52.7859 40.7473 52.8075L40.7361 54.3821C40.7361 54.3928 40.734 54.4035 40.7299 54.4134C40.7258 54.4233 40.7198 54.4323 40.7122 54.4399C40.7046 54.4474 40.6956 54.4534 40.6857 54.4574C40.6758 54.4615 40.6652 54.4635 40.6545 54.4633Z" fill="white"/>
<path d="M52.9043 54.5868L46.1981 54.5395C46.1776 54.5393 46.1579 54.5308 46.1435 54.516C46.1291 54.5012 46.121 54.4813 46.1211 54.4606L46.1322 52.8797C46.1322 52.8694 46.1343 52.8592 46.1382 52.8497C46.1421 52.8402 46.1479 52.8316 46.1551 52.8244C46.1624 52.8171 46.171 52.8114 46.1805 52.8075C46.1899 52.8036 46.2001 52.8017 46.2103 52.8018L52.9165 52.8493C52.9267 52.8494 52.9368 52.8514 52.9462 52.8554C52.9556 52.8594 52.9641 52.8652 52.9713 52.8725C52.9785 52.8798 52.9842 52.8885 52.988 52.898C52.9919 52.9075 52.9939 52.9177 52.9938 52.928L52.9827 54.5091C52.9826 54.5194 52.9805 54.5296 52.9765 54.539C52.9725 54.5485 52.9667 54.5571 52.9595 54.5643C52.9522 54.5715 52.9436 54.5772 52.9341 54.5811C52.9247 54.5849 52.9145 54.5868 52.9043 54.5868Z" fill="white"/>
<path d="M87.3456 53.0901L61.7905 52.9103C61.7039 52.9097 61.6333 52.9799 61.6327 53.0671L61.6228 54.489C61.6222 54.5762 61.6919 54.6474 61.7785 54.648L87.3335 54.8278C87.4201 54.8284 87.4907 54.7582 87.4913 54.671L87.5012 53.2491C87.5018 53.1619 87.4321 53.0907 87.3456 53.0901Z" fill="white"/>
<path d="M26.2032 57.4148L21.2709 57.3801C21.2506 57.38 21.2305 57.3758 21.2117 57.3678C21.193 57.3598 21.176 57.3482 21.1617 57.3336C21.1474 57.319 21.1361 57.3017 21.1285 57.2827C21.1209 57.2637 21.117 57.2433 21.1172 57.2228L21.127 55.7973C21.1272 55.7768 21.1313 55.7565 21.1392 55.7376C21.1471 55.7187 21.1587 55.7016 21.1732 55.6872C21.1877 55.6728 21.2048 55.6614 21.2237 55.6537C21.2425 55.646 21.2627 55.6422 21.2831 55.6423L26.2154 55.6754C26.2565 55.6757 26.2957 55.6925 26.3246 55.7219C26.3535 55.7514 26.3696 55.7912 26.3694 55.8326L26.3593 57.2582C26.3594 57.2788 26.3554 57.2993 26.3476 57.3184C26.3397 57.3375 26.3282 57.3548 26.3137 57.3694C26.2992 57.3839 26.282 57.3954 26.263 57.4032C26.244 57.411 26.2237 57.415 26.2032 57.4148Z" fill="white"/>
<path d="M40.7085 57.5202L26.6487 57.4211C26.638 57.421 26.6275 57.4188 26.6177 57.4146C26.6079 57.4105 26.5991 57.4044 26.5916 57.3967C26.5842 57.3891 26.5783 57.3801 26.5743 57.3701C26.5703 57.3602 26.5683 57.3496 26.5684 57.3388L26.5792 55.7646C26.5794 55.7429 26.588 55.7222 26.6033 55.707C26.6186 55.6918 26.6393 55.6833 26.6608 55.6834L40.7203 55.7825C40.731 55.7825 40.7415 55.7847 40.7513 55.7888C40.7611 55.7929 40.77 55.799 40.7775 55.8066C40.785 55.8142 40.7909 55.8232 40.795 55.8331C40.799 55.8431 40.801 55.8537 40.801 55.8644L40.7898 57.439C40.7898 57.4497 40.7877 57.4603 40.7836 57.4702C40.7795 57.4801 40.7735 57.4891 40.766 57.4967C40.7584 57.5042 40.7495 57.5102 40.7396 57.5142C40.7297 57.5183 40.7192 57.5203 40.7085 57.5202Z" fill="white"/>
<path d="M52.7471 56.0977L46.0406 56.0301C45.9977 56.0296 45.9625 56.0644 45.9621 56.1076L45.9464 57.6888C45.946 57.732 45.9804 57.7674 46.0233 57.7678L52.7299 57.8354C52.7728 57.8359 52.8079 57.8011 52.8083 57.7579L52.824 56.1767C52.8245 56.1335 52.79 56.0981 52.7471 56.0977Z" fill="white"/>
<path d="M69.9968 56.025L54.4614 55.9157C54.3748 55.915 54.3042 55.9853 54.3036 56.0725L54.2937 57.4944C54.2931 57.5816 54.3628 57.6528 54.4494 57.6534L69.9847 57.7627C70.0713 57.7633 70.1419 57.6931 70.1425 57.6059L70.1524 56.184C70.153 56.0968 70.0833 56.0256 69.9968 56.025Z" fill="white"/>
<path d="M40.6906 60.5729L21.191 60.4355C21.1695 60.4353 21.1489 60.4266 21.1338 60.4112C21.1187 60.3957 21.1103 60.3749 21.1104 60.3533L21.1215 58.7787C21.1217 58.7571 21.1303 58.7365 21.1456 58.7213C21.1608 58.7061 21.1814 58.6977 21.2028 58.6978L40.7028 58.8355C40.7242 58.8357 40.7446 58.8444 40.7597 58.8598C40.7748 58.8751 40.7832 58.8959 40.7831 58.9175L40.7723 60.492C40.7722 60.5027 40.77 60.5133 40.7658 60.5232C40.7617 60.5331 40.7556 60.542 40.7481 60.5495C40.7405 60.557 40.7315 60.563 40.7217 60.567C40.7118 60.571 40.7013 60.573 40.6906 60.5729Z" fill="white"/>
<path d="M52.9125 60.697L46.2063 60.6494C46.1961 60.6493 46.186 60.6473 46.1766 60.6433C46.1672 60.6393 46.1586 60.6335 46.1514 60.6262C46.1442 60.6189 46.1386 60.6103 46.1347 60.6007C46.1308 60.5912 46.1289 60.581 46.1289 60.5708L46.1401 58.9896C46.1402 58.9688 46.1486 58.9489 46.1633 58.9343C46.1779 58.9197 46.1978 58.9115 46.2184 58.9116L52.9246 58.9592C52.9452 58.9595 52.9648 58.9679 52.9793 58.9827C52.9937 58.9975 53.0017 59.0174 53.0016 59.0382L52.9905 60.619C52.9905 60.6293 52.9884 60.6394 52.9845 60.6489C52.9805 60.6584 52.9748 60.667 52.9675 60.6743C52.9603 60.6815 52.9517 60.6872 52.9422 60.6911C52.9328 60.695 52.9227 60.697 52.9125 60.697Z" fill="white"/>
<path d="M77.4582 59.1303L58.0122 58.9935C57.9256 58.9929 57.855 59.0631 57.8544 59.1503L57.8445 60.5722C57.8439 60.6594 57.9136 60.7306 58.0001 60.7313L77.4462 60.8681C77.5327 60.8687 77.6034 60.7985 77.604 60.7113L77.6138 59.2894C77.6144 59.2021 77.5448 59.131 77.4582 59.1303Z" fill="white"/>
<path d="M26.0016 63.5232L21.2788 63.4902C21.2584 63.4901 21.2383 63.4859 21.2195 63.4779C21.2008 63.47 21.1838 63.4583 21.1695 63.4437C21.1552 63.4291 21.144 63.4118 21.1363 63.3928C21.1287 63.3738 21.1248 63.3535 21.125 63.3329L21.1348 61.9074C21.135 61.8869 21.1391 61.8666 21.147 61.8477C21.1549 61.8288 21.1665 61.8117 21.181 61.7973C21.1955 61.7829 21.2126 61.7715 21.2315 61.7638C21.2504 61.7561 21.2705 61.7523 21.2909 61.7524L26.0137 61.7855C26.034 61.7856 26.0542 61.7898 26.0729 61.7978C26.0916 61.8057 26.1086 61.8174 26.1229 61.832C26.1372 61.8466 26.1485 61.8639 26.1561 61.8829C26.1638 61.9019 26.1676 61.9222 26.1674 61.9427L26.1576 63.368C26.1575 63.3885 26.1533 63.4088 26.1454 63.4277C26.1375 63.4466 26.126 63.4638 26.1115 63.4782C26.097 63.4926 26.0798 63.504 26.061 63.5117C26.0421 63.5195 26.0219 63.5234 26.0016 63.5232Z" fill="white"/>
<path d="M40.7336 63.6303L26.6741 63.5312C26.6526 63.531 26.6321 63.5222 26.6171 63.5068C26.6021 63.4913 26.5937 63.4706 26.5938 63.449L26.6046 61.8744C26.6048 61.8528 26.6136 61.8322 26.6288 61.817C26.6441 61.8018 26.6647 61.7934 26.6862 61.7935L40.7457 61.8926C40.7564 61.8927 40.7669 61.8949 40.7767 61.899C40.7865 61.9032 40.7953 61.9093 40.8028 61.9169C40.8103 61.9246 40.8161 61.9336 40.8201 61.9436C40.8241 61.9535 40.8261 61.9641 40.826 61.9748L40.8152 63.5494C40.8151 63.5601 40.813 63.5707 40.8088 63.5806C40.8047 63.5904 40.7986 63.5994 40.7911 63.6069C40.7835 63.6144 40.7745 63.6203 40.7646 63.6244C40.7548 63.6284 40.7442 63.6304 40.7336 63.6303Z" fill="white"/>
<path d="M52.9598 62.0153L46.2535 61.9681C46.2106 61.9678 46.1755 62.0026 46.1752 62.0458L46.1643 63.6269C46.164 63.6702 46.1985 63.7055 46.2414 63.7058L52.9478 63.753C52.9907 63.7533 53.0257 63.7185 53.026 63.6752L53.037 62.0941C53.0373 62.0509 53.0027 62.0156 52.9598 62.0153Z" fill="white"/>
<path d="M87.453 62.2579L61.019 62.0719C60.9325 62.0713 60.8618 62.1415 60.8612 62.2287L60.8514 63.6506C60.8508 63.7378 60.9204 63.809 61.007 63.8096L87.441 63.9956C87.5275 63.9962 87.5982 63.926 87.5988 63.8388L87.6086 62.4169C87.6092 62.3297 87.5395 62.2585 87.453 62.2579Z" fill="white"/>
<path d="M26.0413 70.9083L21.1092 70.8736C21.0235 70.873 20.9536 70.9425 20.953 71.0288L20.9431 72.454C20.9425 72.5403 21.0115 72.6108 21.0971 72.6114L26.0293 72.6461C26.1149 72.6467 26.1848 72.5772 26.1854 72.4909L26.1953 71.0657C26.1959 70.9794 26.127 70.909 26.0413 70.9083Z" fill="white"/>
<path d="M40.5396 72.7524L26.4801 72.6533C26.4586 72.6531 26.438 72.6444 26.4229 72.6289C26.4078 72.6135 26.3993 72.5927 26.3994 72.571L26.4106 70.9965C26.4106 70.9858 26.4128 70.9752 26.417 70.9653C26.4211 70.9554 26.4272 70.9465 26.4347 70.939C26.4423 70.9314 26.4513 70.9255 26.4612 70.9215C26.471 70.9175 26.4816 70.9154 26.4922 70.9155L40.5517 71.0146C40.5624 71.0147 40.5729 71.0169 40.5827 71.0211C40.5925 71.0253 40.6013 71.0314 40.6088 71.039C40.6163 71.0466 40.6221 71.0557 40.6261 71.0656C40.6301 71.0756 40.6321 71.0862 40.632 71.0969L40.6212 72.6715C40.621 72.6931 40.6122 72.7137 40.597 72.7289C40.5817 72.744 40.561 72.7525 40.5396 72.7524Z" fill="white"/>
<path d="M52.7762 71.1368L46.0699 71.0897C46.027 71.0894 45.9919 71.1242 45.9916 71.1674L45.9807 72.7485C45.9804 72.7918 46.0149 72.8271 46.0578 72.8274L52.7642 72.8746C52.8071 72.8749 52.8421 72.84 52.8424 72.7968L52.8534 71.2157C52.8537 71.1724 52.8191 71.1371 52.7762 71.1368Z" fill="white"/>
<path d="M69.82 71.2569L54.2846 71.1476C54.1981 71.147 54.1274 71.2172 54.1268 71.3044L54.117 72.7263C54.1164 72.8135 54.186 72.8847 54.2726 72.8853L69.808 72.9946C69.8945 72.9952 69.9652 72.925 69.9658 72.8378L69.9756 71.4159C69.9762 71.3287 69.9066 71.2575 69.82 71.2569Z" fill="white"/>
<path d="M40.5213 75.8054L21.0217 75.6676C21.0111 75.6676 21.0006 75.6654 20.9908 75.6613C20.981 75.6571 20.9721 75.6511 20.9647 75.6435C20.9572 75.6358 20.9513 75.6268 20.9473 75.6169C20.9433 75.607 20.9413 75.5964 20.9414 75.5857L20.9522 74.0111C20.9523 74.0004 20.9544 73.9898 20.9586 73.9799C20.9627 73.97 20.9687 73.961 20.9763 73.9535C20.9839 73.946 20.9929 73.9401 21.0028 73.9361C21.0126 73.932 21.0232 73.9301 21.0339 73.9302L40.5335 74.0676C40.555 74.0678 40.5755 74.0765 40.5907 74.092C40.6058 74.1074 40.6142 74.1282 40.6141 74.1499L40.603 75.7244C40.6029 75.7352 40.6007 75.7457 40.5966 75.7556C40.5924 75.7655 40.5864 75.7744 40.5788 75.7819C40.5712 75.7895 40.5622 75.7954 40.5524 75.7994C40.5425 75.8034 40.532 75.8055 40.5213 75.8054Z" fill="white"/>
<path d="M52.7373 75.9288L46.0311 75.8812C46.0209 75.8812 46.0108 75.8792 46.0014 75.8752C45.992 75.8713 45.9835 75.8655 45.9763 75.8581C45.9692 75.8508 45.9635 75.8422 45.9597 75.8326C45.9559 75.8231 45.954 75.8129 45.9541 75.8026L45.9649 74.2214C45.965 74.2112 45.9671 74.201 45.9711 74.1915C45.9751 74.1821 45.9809 74.1735 45.9881 74.1663C45.9954 74.1591 46.004 74.1534 46.0135 74.1495C46.023 74.1457 46.0331 74.1437 46.0433 74.1438L52.7495 74.191C52.7597 74.1911 52.7698 74.1932 52.7792 74.1973C52.7885 74.2013 52.7971 74.2071 52.8042 74.2144C52.8114 74.2218 52.817 74.2305 52.8208 74.24C52.8247 74.2495 52.8266 74.2597 52.8265 74.27L52.8157 75.8508C52.8155 75.8716 52.8072 75.8915 52.7925 75.9061C52.7778 75.9207 52.758 75.9289 52.7373 75.9288Z" fill="white"/>
<path d="M77.2707 74.362L57.8247 74.2252C57.7381 74.2246 57.6675 74.2948 57.6669 74.382L57.657 75.8039C57.6564 75.8911 57.7261 75.9623 57.8126 75.9629L77.2587 76.0997C77.3452 76.1004 77.4159 76.0302 77.4165 75.9429L77.4263 74.5211C77.4269 74.4338 77.3573 74.3626 77.2707 74.362Z" fill="white"/>
<path d="M25.8258 78.7552L21.103 78.7221C21.0826 78.722 21.0625 78.7178 21.0438 78.7099C21.025 78.7019 21.008 78.6903 20.9937 78.6756C20.9795 78.661 20.9682 78.6437 20.9605 78.6247C20.9529 78.6057 20.9491 78.5854 20.9492 78.5649L20.9591 77.1397C20.9592 77.1191 20.9633 77.0988 20.9712 77.0799C20.9792 77.061 20.9907 77.0439 21.0052 77.0294C21.0197 77.015 21.0368 77.0036 21.0557 76.9959C21.0746 76.9882 21.0947 76.9842 21.1151 76.9844L25.8379 77.0174C25.8582 77.0175 25.8784 77.0217 25.8971 77.0297C25.9159 77.0377 25.9329 77.0493 25.9471 77.0639C25.9614 77.0785 25.9727 77.0958 25.9803 77.1148C25.988 77.1338 25.9918 77.1542 25.9917 77.1747L25.9818 78.6002C25.9817 78.6207 25.9775 78.641 25.9696 78.6599C25.9617 78.6788 25.9502 78.6959 25.9357 78.7103C25.9212 78.7247 25.904 78.7361 25.8852 78.7438C25.8663 78.7515 25.8461 78.7553 25.8258 78.7552Z" fill="white"/>
<path d="M40.565 78.8625L26.5055 78.7634C26.4948 78.7634 26.4842 78.7612 26.4744 78.757C26.4646 78.7529 26.4557 78.7468 26.4482 78.7391C26.4407 78.7315 26.4348 78.7224 26.4308 78.7125C26.4267 78.7025 26.4247 78.6919 26.4248 78.6811L26.436 77.1069C26.436 77.0962 26.4381 77.0856 26.4422 77.0757C26.4464 77.0658 26.4524 77.0568 26.4599 77.0493C26.4675 77.0418 26.4764 77.0358 26.4862 77.0317C26.4961 77.0277 26.5066 77.0256 26.5173 77.0256L40.5768 77.1247C40.5874 77.1248 40.598 77.127 40.6078 77.1311C40.6177 77.1353 40.6266 77.1414 40.6341 77.149C40.6416 77.1566 40.6475 77.1657 40.6515 77.1757C40.6555 77.1856 40.6575 77.1963 40.6574 77.207L40.6463 78.7812C40.6462 78.792 40.6441 78.8026 40.64 78.8124C40.6359 78.8223 40.6299 78.8313 40.6223 78.8388C40.6148 78.8464 40.6058 78.8524 40.596 78.8564C40.5862 78.8605 40.5756 78.8626 40.565 78.8625Z" fill="white"/>
<path d="M52.784 77.2469L46.0777 77.1998C46.0348 77.1995 45.9998 77.2343 45.9995 77.2775L45.9885 78.8586C45.9882 78.9019 46.0227 78.9372 46.0657 78.9375L52.772 78.9847C52.8149 78.985 52.8499 78.9502 52.8502 78.9069L52.8612 77.3258C52.8615 77.2826 52.827 77.2472 52.784 77.2469Z" fill="white"/>
<path d="M87.2665 77.4898L60.8325 77.3038C60.7459 77.3032 60.6753 77.3734 60.6747 77.4606L60.6648 78.8825C60.6642 78.9698 60.7339 79.0409 60.8204 79.0416L87.2544 79.2275C87.341 79.2281 87.4116 79.1579 87.4122 79.0707L87.4221 77.6488C87.4227 77.5616 87.353 77.4904 87.2665 77.4898Z" fill="white"/>
<path d="M25.935 64.8937L21.2127 64.8605C21.127 64.8599 21.0571 64.9293 21.0565 65.0156L21.0467 66.4408C21.0461 66.5271 21.115 66.5976 21.2006 66.5982L25.923 66.6314C26.0086 66.632 26.0785 66.5625 26.0791 66.4762L26.089 65.051C26.0896 64.9647 26.0207 64.8943 25.935 64.8937Z" fill="white"/>
<path d="M40.604 66.7387L26.5445 66.6396C26.523 66.6394 26.5025 66.6307 26.4873 66.6153C26.4722 66.5998 26.4638 66.579 26.4639 66.5574L26.475 64.9828C26.4752 64.9612 26.4838 64.9406 26.4991 64.9254C26.5143 64.9102 26.5349 64.9018 26.5563 64.9019L40.6162 65.001C40.6268 65.0011 40.6373 65.0033 40.6471 65.0074C40.6569 65.0116 40.6658 65.0177 40.6732 65.0253C40.6807 65.033 40.6866 65.042 40.6906 65.052C40.6946 65.0619 40.6966 65.0725 40.6965 65.0832L40.6857 66.6575C40.6855 66.6791 40.6768 66.6998 40.6615 66.7151C40.6462 66.7303 40.6256 66.7388 40.604 66.7387Z" fill="white"/>
<path d="M52.8451 66.8626L46.1389 66.8154C46.1183 66.8152 46.0985 66.8068 46.084 66.792C46.0695 66.7772 46.0614 66.7572 46.0615 66.7364L46.0727 65.1556C46.0727 65.1453 46.0748 65.1352 46.0787 65.1257C46.0827 65.1162 46.0884 65.1076 46.0957 65.1003C46.1029 65.0931 46.1115 65.0874 46.1209 65.0835C46.1304 65.0796 46.1405 65.0776 46.1507 65.0776L52.8569 65.1252C52.8671 65.1252 52.8772 65.1273 52.8866 65.1312C52.8961 65.1352 52.9046 65.141 52.9118 65.1483C52.919 65.1556 52.9247 65.1643 52.9286 65.1738C52.9324 65.1833 52.9343 65.1935 52.9343 65.2038L52.9231 66.785C52.9229 66.8057 52.9146 66.8255 52.9 66.8401C52.8854 66.8546 52.8656 66.8627 52.8451 66.8626Z" fill="white"/>
<path d="M87.2264 65.3653L60.7924 65.1793C60.7059 65.1787 60.6353 65.2489 60.6346 65.3361L60.6248 66.758C60.6242 66.8452 60.6939 66.9164 60.7804 66.917L87.2144 67.103C87.301 67.1036 87.3716 67.0334 87.3722 66.9462L87.3821 65.5243C87.3827 65.4371 87.313 65.3659 87.2264 65.3653Z" fill="white"/>
<path d="M25.9546 67.9508L21.2322 67.9176C21.1466 67.917 21.0767 67.9865 21.0761 68.0728L21.0662 69.498C21.0656 69.5843 21.1345 69.6547 21.2202 69.6553L25.9425 69.6885C26.0282 69.6891 26.0981 69.6197 26.0987 69.5334L26.1085 68.1082C26.1091 68.0219 26.0402 67.9514 25.9546 67.9508Z" fill="white"/>
<path d="M40.6568 69.7965L26.5973 69.6974C26.5866 69.6973 26.5761 69.6952 26.5663 69.6911C26.5565 69.6869 26.5476 69.6809 26.5401 69.6733C26.5326 69.6656 26.5267 69.6566 26.5226 69.6467C26.5186 69.6368 26.5166 69.6262 26.5166 69.6155L26.5278 68.0409C26.5278 68.0302 26.53 68.0196 26.5342 68.0097C26.5383 67.9999 26.5444 67.9909 26.5519 67.9834C26.5595 67.9759 26.5685 67.9699 26.5783 67.9659C26.5882 67.9619 26.5987 67.9599 26.6094 67.96L40.6689 68.0591C40.6795 68.0592 40.6901 68.0614 40.6999 68.0655C40.7096 68.0697 40.7185 68.0758 40.726 68.0834C40.7334 68.0911 40.7393 68.1001 40.7433 68.1101C40.7473 68.12 40.7493 68.1306 40.7492 68.1413L40.7384 69.7156C40.7382 69.7372 40.7294 69.7578 40.7141 69.773C40.6988 69.7881 40.6782 69.7966 40.6568 69.7965Z" fill="white"/>
<path d="M52.8925 68.181L46.1861 68.1338C46.1432 68.1335 46.1082 68.1684 46.1079 68.2116L46.0969 69.7927C46.0966 69.836 46.1311 69.8713 46.1741 69.8716L52.8804 69.9187C52.9233 69.919 52.9584 69.8842 52.9587 69.841L52.9696 68.2599C52.9699 68.2166 52.9354 68.1813 52.8925 68.181Z" fill="white"/>
<path d="M87.3456 68.4239L60.9116 68.2379C60.825 68.2373 60.7544 68.3075 60.7538 68.3947L60.7439 69.8166C60.7433 69.9038 60.813 69.975 60.8995 69.9756L87.3335 70.1616C87.4201 70.1622 87.4907 70.092 87.4913 70.0048L87.5012 68.5829C87.5018 68.4957 87.4321 68.4245 87.3456 68.4239Z" fill="white"/>
<path d="M43.5129 80.9412L43.0641 80.9382C43.052 80.9381 43.0401 80.9357 43.0289 80.9309C43.0178 80.9262 43.0077 80.9193 42.9992 80.9106C42.9907 80.9019 42.984 80.8916 42.9794 80.8803C42.9749 80.869 42.9726 80.8569 42.9727 80.8447L43.2677 38.2069C43.2678 38.1947 43.2702 38.1827 43.2749 38.1715C43.2795 38.1602 43.2864 38.1501 43.2949 38.1415C43.3035 38.1329 43.3137 38.1262 43.3249 38.1216C43.3361 38.117 43.3481 38.1147 43.3602 38.1147L43.8093 38.1181C43.8214 38.1181 43.8333 38.1206 43.8444 38.1254C43.8556 38.1301 43.8657 38.137 43.8741 38.1457C43.8826 38.1544 43.8893 38.1647 43.8938 38.176C43.8983 38.1873 43.9006 38.1994 43.9004 38.2115L43.6054 80.849C43.6052 80.8736 43.5954 80.8971 43.578 80.9144C43.5607 80.9316 43.5373 80.9413 43.5129 80.9412Z" fill="white"/>
<path d="M83.1349 86.2146C83.1349 86.2146 88.4199 73.9112 84.4187 60.9491C84.3924 60.8645 84.2439 60.8807 84.2328 60.9696C83.2683 68.8093 82.9808 77.2995 83.1349 86.2146Z" fill="#FF0D1B"/>
<path d="M81.9245 84.2096C81.9245 84.2096 85.1894 69.1136 79.0192 53.8372C79.0113 53.8161 78.9962 53.7985 78.9766 53.7876C78.957 53.7767 78.9342 53.7731 78.9122 53.7775C78.8903 53.7819 78.8706 53.7939 78.8566 53.8116C78.8426 53.8292 78.8353 53.8513 78.836 53.8738C79.1687 63.335 80.2893 73.5323 81.9245 84.2096Z" fill="#FF0D1B"/>
<path d="M81.4066 88.3029C81.4066 88.3029 82.9707 75.1336 75.2003 63.2825C75.1495 63.2049 75.0082 63.2524 75.0236 63.3416C76.392 71.225 78.619 79.6025 81.4066 88.3029Z" fill="#FF0D1B"/>
<path d="M78.1908 81.0464H85.3737C85.4838 81.0464 85.5925 81.0715 85.6917 81.1198C85.7909 81.168 85.878 81.2382 85.9466 81.325C86.0152 81.4119 86.0634 81.5132 86.0877 81.6215C86.112 81.7297 86.1118 81.8421 86.0871 81.9503C85.6281 83.9566 85.0767 85.9924 83.9496 88.0592C83.8478 88.2467 83.6979 88.4033 83.5155 88.5125C83.3332 88.6217 83.1251 88.6795 82.913 88.68H80.5699C80.3614 88.6796 80.1569 88.6224 79.9779 88.5145C79.799 88.4065 79.6524 88.2518 79.5536 88.0668C78.6508 86.3759 77.7833 84.3604 77.3532 82.0729C77.3295 81.9483 77.3334 81.8199 77.3644 81.697C77.3955 81.5741 77.4531 81.4596 77.533 81.3616C77.613 81.2636 77.7134 81.1846 77.8271 81.1301C77.9407 81.0756 78.0649 81.047 78.1908 81.0464Z" fill="#DCDCDC"/>
<path d="M34.3879 49.2434C29.0278 49.4023 27.7637 50.6676 27.7637 50.6676L30.7699 54.4375C30.7699 54.4375 35.9763 53.7407 39.392 50.4119C38.6071 49.732 38.0272 48.948 37.6426 48.3306C36.7218 48.8426 35.6383 49.2054 34.3879 49.2434Z" fill="#FF0D1B"/>
<path d="M41.8245 40.4425C41.8187 40.406 41.801 40.3726 41.7742 40.3475C41.7474 40.3223 41.7131 40.307 41.6766 40.3038C41.6401 40.3007 41.6036 40.3099 41.573 40.3301C41.5423 40.3502 41.5193 40.3801 41.5074 40.4151L40.9927 41.949C40.8935 42.2454 40.8868 42.5654 40.9737 42.8658L41.3061 43.6871C41.3643 43.8873 41.3796 44.0978 41.3511 44.3045C41.3225 44.5112 41.2506 44.7094 41.1403 44.886C40.6056 45.741 39.4398 47.3241 37.6406 48.3291C38.0252 48.9472 38.6051 49.7312 39.39 50.4105C40.6426 49.1881 41.6543 47.6139 42.0782 45.587C42.2227 45.5235 42.3423 45.4138 42.4185 45.2748C42.4948 45.1358 42.5233 44.9753 42.4998 44.8183L41.8245 40.4425Z" fill="#FFD2BB"/>
<path d="M51.2497 53.449C59.6325 53.449 66.4282 46.6008 66.4282 38.1531C66.4282 29.7054 59.6325 22.8572 51.2497 22.8572C42.8669 22.8572 36.0713 29.7054 36.0713 38.1531C36.0713 46.6008 42.8669 53.449 51.2497 53.449Z" fill="#FF0D1B"/>
<path d="M51.3298 51.9932C58.8756 51.9932 64.9927 45.8288 64.9927 38.2246C64.9927 30.6205 58.8756 24.4561 51.3298 24.4561C43.7841 24.4561 37.667 30.6205 37.667 38.2246C37.667 45.8288 43.7841 51.9932 51.3298 51.9932Z" fill="white"/>
<path d="M45.6416 29.6717L43.9405 28.8323C43.8648 28.7949 43.7797 28.7811 43.6962 28.7929C43.6127 28.8047 43.5346 28.8414 43.472 28.8983L43.2871 29.0662L42.9882 29.3374L42.797 29.5112C42.7344 29.568 42.69 29.6424 42.6697 29.7248C42.6494 29.8073 42.654 29.8939 42.6829 29.9737L43.334 31.7663C43.3811 31.9005 43.4614 32.0203 43.5671 32.1146C43.6729 32.209 43.8007 32.2746 43.9385 32.3055L45.0883 32.5589L52.5541 40.913L52.9842 40.5225L53.2828 40.2512L53.689 39.8829L46.2232 31.5288L46.1019 30.3421C46.0878 30.2002 46.0381 30.0643 45.9576 29.947C45.8771 29.8298 45.7684 29.7351 45.6416 29.6717Z" fill="white"/>
<path d="M45.5241 29.7727L43.9832 29.0063C43.8436 28.9372 43.6672 28.9501 43.5518 29.0552L43.3853 29.2062L43.1161 29.4506L42.9437 29.6069C42.8883 29.6611 42.8499 29.7304 42.8334 29.8064C42.8168 29.8823 42.8228 29.9615 42.8506 30.0341L43.4407 31.6529C43.4842 31.774 43.5575 31.882 43.6535 31.9669C43.7496 32.0519 43.8653 32.111 43.9901 32.1389L45.0307 32.3672L51.7631 39.8996L52.1453 39.5528L52.4145 39.3086L52.8351 38.9267L46.1027 31.3942L45.966 30.3502C45.9401 30.0922 45.7578 29.8877 45.5241 29.7727Z" fill="#014898"/>
<path d="M58.6563 42.7062L53.3487 37.9324L50.668 40.3735L54.7525 46.0595C55.1379 46.5963 55.6628 47.0155 56.2694 47.271L57.8977 47.9704C58.1734 48.0867 58.5095 48.0533 58.7314 47.8518L59.846 46.8402C60.0477 46.6575 60.1204 46.3602 60.0683 46.0919L59.7942 44.7149C59.6414 43.9386 59.242 43.2336 58.6563 42.7062Z" fill="#014898"/>
<path d="M53.613 37.6249C53.6915 37.7128 53.7321 37.8285 53.726 37.9466C53.7198 38.0646 53.6674 38.1754 53.5802 38.2546L50.8952 40.6914C50.808 40.7705 50.6932 40.8114 50.576 40.8052C50.4588 40.799 50.3489 40.7462 50.2704 40.6584L50.2376 40.622C50.1591 40.5341 50.1185 40.4184 50.1246 40.3003C50.1308 40.1823 50.1832 40.0715 50.2704 39.9923L52.9554 37.5555C52.9985 37.5163 53.0489 37.4861 53.1037 37.4665C53.1585 37.4469 53.2165 37.4385 53.2746 37.4415C53.3326 37.4446 53.3895 37.4592 53.4419 37.4844C53.4943 37.5096 53.5413 37.545 53.5802 37.5885L53.613 37.6249Z" fill="#014898"/>
<path d="M57.6013 46.1775C57.6346 46.2147 57.6602 46.2581 57.6768 46.3053C57.6934 46.3524 57.7006 46.4024 57.698 46.4524C57.6955 46.5024 57.6831 46.5514 57.6617 46.5965C57.6404 46.6417 57.6104 46.6822 57.5734 46.7157L57.5679 46.7206C57.4933 46.7882 57.3952 46.8232 57.2951 46.818C57.1949 46.8127 57.101 46.7676 57.0338 46.6926L51.974 41.0306C51.9408 40.9935 51.9152 40.9501 51.8986 40.9029C51.882 40.8558 51.8749 40.8058 51.8775 40.7558C51.8801 40.7059 51.8925 40.6569 51.9139 40.6118C51.9353 40.5667 51.9653 40.5262 52.0022 40.4928L52.0078 40.4875C52.0823 40.4199 52.1804 40.3849 52.2806 40.3902C52.3807 40.3954 52.4747 40.4405 52.5418 40.5156L57.6013 46.1775Z" fill="#014898"/>
<path d="M58.9255 44.9756C58.9926 45.0507 59.0274 45.1496 59.0221 45.2505C59.0169 45.3514 58.9721 45.4461 58.8977 45.5138L58.8921 45.5187C58.8176 45.5863 58.7194 45.6214 58.6193 45.6161C58.5192 45.6108 58.4252 45.5657 58.3581 45.4907L53.2983 39.8278C53.2312 39.7527 53.1965 39.6539 53.2017 39.553C53.2069 39.4522 53.2517 39.3575 53.3261 39.2899L53.3317 39.2846C53.4062 39.217 53.5043 39.182 53.6045 39.1873C53.7046 39.1926 53.7986 39.2377 53.8657 39.3127L58.9255 44.9756Z" fill="#014898"/>
<path d="M42.0271 42.4305L41.6687 42.7681C41.0544 43.3453 40.8691 44.1517 41.2553 44.569L41.7143 45.0645C42.1005 45.4821 42.9116 45.3526 43.5262 44.7754L43.8842 44.4391C43.9078 44.4166 43.9311 44.3939 43.9537 44.3707L54.1432 33.9369L53.1433 32.8569L42.0995 42.365C42.0749 42.3862 42.0493 42.408 42.0271 42.4305ZM42.5188 42.9065C42.9817 42.4717 43.5643 42.3449 43.8206 42.6211C44.077 42.8973 43.9095 43.4751 43.4469 43.9095C42.9843 44.344 42.4014 44.4712 42.1451 44.195C41.8887 43.9188 42.0572 43.341 42.5198 42.9065H42.5188Z" fill="#073064"/>
<path d="M56.267 28.9019L54.1892 30.8538C54.1162 30.9223 54.0598 31.0068 54.0243 31.1008C53.9888 31.1948 53.9752 31.2958 53.9846 31.3959L54.083 32.4359C54.0964 32.5803 54.1569 32.7161 54.255 32.8222C54.353 32.9283 54.4832 32.9986 54.6252 33.0223L55.648 33.1931C55.7465 33.2096 55.8474 33.2031 55.943 33.1741C56.0385 33.145 56.1262 33.0942 56.1991 33.0256L58.2773 31.0728C58.5907 30.7784 59.1087 30.9899 59.1205 31.4213C59.1326 31.9576 59.0314 32.4902 58.8235 32.984C58.6156 33.4777 58.3058 33.9212 57.9147 34.285C56.4201 35.6884 54.3062 35.48 52.9667 34.0313C51.6271 32.5826 51.5688 30.4434 53.0631 29.0397C53.4504 28.6722 53.9109 28.3921 54.414 28.2177C54.917 28.0433 55.4511 27.9788 55.9808 28.0284C56.4086 28.072 56.5804 28.6076 56.267 28.9019Z" fill="#073064"/>
<path d="M56.4496 29.0997L54.3718 31.0512C54.2987 31.1197 54.2423 31.2042 54.2068 31.2982C54.1714 31.3922 54.1578 31.4932 54.1672 31.5933L54.2656 32.6337C54.2792 32.778 54.3398 32.9137 54.438 33.0198C54.5361 33.1258 54.6662 33.1962 54.8081 33.2201L55.831 33.3909C55.9294 33.4073 56.0303 33.4007 56.1258 33.3716C56.2214 33.3426 56.309 33.2919 56.3821 33.2234L58.4599 31.2715C58.7733 30.9772 59.2913 31.1886 59.3031 31.6204C59.3153 32.1566 59.214 32.6893 59.006 33.183C58.7981 33.6767 58.4882 34.1201 58.097 34.4837C56.6027 35.8875 54.4888 35.6787 53.1493 34.2303C51.8098 32.782 51.7514 30.6422 53.2457 29.2384C53.633 28.871 54.0935 28.5908 54.5966 28.4165C55.0996 28.2422 55.6337 28.1777 56.1634 28.2275C56.5899 28.2694 56.763 28.8053 56.4496 29.0997Z" fill="#073064"/>
<path d="M42.1726 42.5878L41.8142 42.9241C41.1999 43.5013 41.0147 44.3077 41.4008 44.7253L41.8598 45.2209C42.246 45.6385 43.0571 45.5093 43.6718 44.9318L44.0298 44.5955C44.0534 44.5734 44.0766 44.5506 44.0996 44.5271L54.2887 34.0936L53.2885 33.012L42.246 42.5227C42.2204 42.5439 42.1962 42.5657 42.1726 42.5878ZM42.6643 43.0639C43.1269 42.6294 43.7095 42.5022 43.9658 42.7787C44.2222 43.0553 44.0547 43.6328 43.5921 44.0672C43.1295 44.5016 42.5466 44.6288 42.2903 44.3523C42.0339 44.0758 42.2027 43.4986 42.6656 43.0655L42.6643 43.0639Z" fill="#073064"/>
<path d="M36.3993 51.398C34.3011 49.5809 30.6392 49.0675 28.5355 48.9251C28.0893 48.8935 27.6464 49.0214 27.2845 49.2864C26.9226 49.5514 26.6651 49.9364 26.557 50.3738C25.9105 52.9923 24.3415 59.7788 23.978 60.9583C23.68 61.9259 23.5888 62.9131 23.3856 63.5061C23.2639 63.8606 23.4921 64.41 23.8445 64.5339C25.6732 65.1794 27.3022 65.6241 28.6093 65.8507C28.8968 65.901 29.8334 65.6793 29.8006 65.3882C29.7731 65.1404 29.698 64.7605 29.8006 64.5322L34.229 56.0417C37.5893 59.0398 40.2392 59.0481 42.1669 58.09C41.7195 57.1003 41.378 56.0655 41.148 55.003C38.1211 54.8266 36.3993 51.398 36.3993 51.398Z" fill="#FF0D1B"/>
<path d="M45.9909 53.8844L45.3746 53.2236C43.7744 54.6211 42.3565 55.0704 41.1455 55.0004C41.3755 56.0629 41.7171 57.0977 42.1644 58.0874C44.7048 56.826 45.9909 53.8844 45.9909 53.8844Z" fill="#FFD2BB"/>
<path d="M45.6147 53.9401L48.6462 53.7158L51.2498 51.836C50.8236 51.6292 48.6249 52.4006 48.6249 52.4006C48.6249 52.4006 46.2267 52.3091 45.5884 52.3808C45.058 52.4403 45.22 53.1998 45.2898 53.4555C45.3042 53.5077 45.3147 53.5391 45.3147 53.5391L45.6147 53.9401Z" fill="#FFD2BB"/>
<path d="M30.9541 44.8748L29.7998 48.9714C29.7998 48.9714 31.7724 50.0398 33.2309 49.751L33.6315 46.1394L30.9541 44.8748Z" fill="#FFD2BB"/>
<path d="M33.5941 41.1973C33.5941 41.1973 34.9838 43.4372 35.2398 44.6843C35.4958 45.9315 35.8853 46.7065 34.4799 47.177C33.0745 47.6474 31.752 47.106 30.9065 45.9523C30.9065 45.9523 29.5889 44.1776 29.7033 43.3523C29.8177 42.527 33.5941 41.1973 33.5941 41.1973Z" fill="#FFD2BB"/>
<path d="M31.2667 44.9777L31.3434 44.9288C31.3666 44.9141 31.3866 44.8949 31.4021 44.8721C31.4176 44.8494 31.4283 44.8237 31.4335 44.7966C31.4388 44.7696 31.4385 44.7417 31.4326 44.7148C31.4268 44.6878 31.4155 44.6624 31.3994 44.64C31.1372 44.2743 30.6064 43.4262 31.0873 43.1375C31.7073 42.7652 34.2434 41.8342 34.6689 40.814C35.0781 39.8334 34.4257 38.7452 33.6546 38.5239C33.63 38.5164 33.6034 38.5187 33.5804 38.5303C33.5573 38.5419 33.5396 38.5619 33.5307 38.5863L33.4878 38.7102C33.4815 38.7293 33.4697 38.7461 33.4538 38.7583C33.4379 38.7705 33.4186 38.7776 33.3986 38.7785C33.3787 38.7793 33.3589 38.7741 33.3419 38.7634C33.325 38.7526 33.3117 38.737 33.3038 38.7184C33.2962 38.7008 33.2836 38.6857 33.2676 38.6751C33.2516 38.6646 33.2328 38.6589 33.2137 38.6589C33.1945 38.6589 33.1758 38.6646 33.1598 38.6751C33.1438 38.6857 33.1312 38.7008 33.1235 38.7184C32.9924 39.0244 32.5905 39.5483 31.3726 39.9699C29.6416 40.5685 28.5725 41.4714 28.7269 42.7156C28.7296 42.7334 28.7274 42.7516 28.7205 42.7682C28.7137 42.7848 28.7025 42.7992 28.6881 42.8099C28.6738 42.8206 28.6568 42.8272 28.6391 42.8289C28.6213 42.8306 28.6034 42.8274 28.5873 42.8197C28.4437 42.7589 28.2267 42.7536 27.9821 43.0331C27.5559 43.5211 27.9139 44.5654 29.1164 45.2879C29.1299 45.2955 29.1414 45.3063 29.15 45.3193C29.1585 45.3322 29.164 45.3471 29.1658 45.3626C29.1676 45.378 29.1658 45.3937 29.1604 45.4084C29.1551 45.423 29.1464 45.4362 29.1351 45.4468C28.9597 45.6034 28.7151 45.9503 29.5255 46.2417C30.3635 46.543 30.9382 46.4214 31.1559 46.3507C31.1688 46.3466 31.1808 46.3398 31.191 46.3307C31.2013 46.3217 31.2095 46.3106 31.2153 46.2982C31.221 46.2858 31.2242 46.2723 31.2245 46.2586C31.2248 46.2449 31.2223 46.2312 31.2172 46.2185L30.8175 45.165C30.8121 45.151 30.8099 45.136 30.811 45.1211C30.8121 45.1061 30.8166 45.0916 30.8242 45.0787C30.8317 45.0657 30.842 45.0547 30.8544 45.0463C30.8667 45.038 30.8808 45.0326 30.8956 45.0305L31.2667 44.9777Z" fill="#073064"/>
<path d="M31.3456 45.2008C31.3456 45.2008 30.7227 43.7299 30.1067 44.2612C29.4907 44.7924 30.7138 45.923 31.2698 45.8979L31.3456 45.2008Z" fill="#FFD2BB"/>
<path d="M29.9813 90.676C29.9813 90.676 29.7846 91.7993 29.6882 92.9103C29.6796 93.0134 29.6918 93.1171 29.724 93.2153C29.7563 93.3135 29.8079 93.404 29.8758 93.4816C29.9437 93.5591 30.0265 93.6219 30.1192 93.6663C30.2119 93.7107 30.3125 93.7358 30.415 93.7399C31.8837 93.8017 35.0257 93.9213 36.1522 93.872C36.1915 93.8702 36.2298 93.8588 36.2639 93.839C36.298 93.8191 36.3269 93.7913 36.3482 93.7579C36.3695 93.7245 36.3825 93.6865 36.3862 93.6469C36.3899 93.6074 36.3842 93.5676 36.3695 93.5308C36.3171 93.3976 36.2158 93.2899 36.0866 93.2301L30.897 90.8267L29.9813 90.676Z" fill="#073064"/>
<path d="M29.9391 64.7665C29.8709 65.1174 29.5725 82.2686 31.3917 89.9547C31.4066 90.0152 31.3995 90.0791 31.3717 90.1348C31.3438 90.1904 31.2971 90.2342 31.2399 90.258C30.7665 90.4427 30.2655 90.5453 29.7581 90.5616C29.6594 90.5648 29.5624 90.5349 29.4823 90.4765C29.4023 90.4182 29.3437 90.3347 29.3159 90.2392C28.7959 88.4552 26.304 79.5209 25.9788 70.9858C25.6156 61.4486 25.9788 70.661 25.9788 70.661L26.1919 64.7659L29.9391 64.7665Z" fill="#073064"/>
<path d="M24.012 91.2617C24.012 91.2617 23.6986 91.8283 23.3953 93.3348C23.3822 93.3989 23.3826 93.465 23.3964 93.529C23.4103 93.5929 23.4373 93.6532 23.4757 93.7059C23.5142 93.7586 23.5632 93.8026 23.6196 93.8351C23.676 93.8675 23.7385 93.8876 23.8032 93.8941C24.2883 93.9424 25.0348 94.0041 25.6328 93.9998C25.698 93.9998 25.7625 93.9859 25.8219 93.959C25.8814 93.9321 25.9346 93.8928 25.9779 93.8437C26.0213 93.7946 26.0538 93.7369 26.0734 93.6742C26.0931 93.6116 26.0993 93.5454 26.0918 93.4802C26.0262 92.9304 25.8193 92.0285 25.1817 91.3255L24.012 91.2617Z" fill="#073064"/>
<path d="M23.3857 63.5061C21.3977 69.5793 23.0611 87.6586 23.6719 90.2662C23.6899 90.3443 23.7305 90.4153 23.7884 90.4702C23.8463 90.5252 23.919 90.5617 23.9974 90.5751C24.2702 90.6204 24.7187 90.6577 25.1612 90.5282C25.2356 90.5064 25.3014 90.4615 25.3491 90.4C25.3968 90.3384 25.4241 90.2633 25.4271 90.1853C25.5091 88.0778 25.3615 75.1418 26.748 70.0296C26.8182 69.7706 26.9753 69.5441 27.1925 69.3887L29.8834 67.461L30.0896 64.3449L23.3857 63.5061Z" fill="#073064"/>
<path d="M23.3672 63.4889L23.9688 60.9497C25.4201 61.3818 27.0625 61.66 28.8863 61.7928C30.8533 60.5374 32.4004 58.8677 33.7235 56.9763L33.7481 57.2046C33.7537 57.2561 33.7441 57.3082 33.7205 57.3543L29.94 64.7665L23.3672 63.4889Z" fill="#073064"/>
<path d="M35.092 50.516L24.459 59.135C24.6475 58.3299 24.5921 58.2602 24.8776 57.3893L33.6308 49.801C34.3455 49.914 35.0061 50.0597 35.092 50.516Z" fill="#073064"/>
<path d="M27.4805 49.159L27.7634 61.9953H28.8849L28.5351 48.9215C27.825 48.8422 27.5988 48.9789 27.4805 49.159Z" fill="#073064"/>
</svg>
