<svg width="111" height="111" viewBox="0 0 111 111" fill="none" xmlns="http://www.w3.org/2000/svg">
<g clip-path="url(#clip0_430_186235)">
<path d="M43.283 60.4219C46.3673 54.9962 52.2507 50.8302 58.4788 51.2316C53.8848 56.2273 51.2059 62.6871 50.9162 69.4678C50.8139 72.0833 50.9725 75.003 49.2359 76.9614C48.1554 78.18 46.5038 78.7702 44.8799 78.894C43.2559 79.0177 41.6323 78.7243 40.0301 78.4322L39.6414 78.5515C39.4934 72.3122 40.1987 65.8475 43.283 60.4219Z" fill="#014898" fill-opacity="0.15"/>
<path d="M58.488 51.3622C53.8825 53.5794 49.9554 57.2822 47.5446 61.7981C47.0235 62.7744 46.5797 63.8102 46.3861 64.9053C46.1925 66.001 46.3278 67.0439 46.702 68.0845C47.0441 69.0358 47.5042 69.9693 47.6091 70.9872C47.7197 72.0602 47.3249 73.0634 46.6143 73.8596C45.7448 74.8338 44.5771 75.4375 43.4147 75.9881C42.1241 76.5995 40.7739 77.2141 39.8598 78.3552C39.749 78.4935 39.541 78.3136 39.6516 78.1755C41.242 76.1902 43.9644 75.817 45.8522 74.2177C46.7331 73.4715 47.3944 72.4552 47.3527 71.2645C47.3162 70.2232 46.8425 69.2602 46.4878 68.3C46.1154 67.2917 45.9296 66.2779 46.0632 65.2029C46.1998 64.1033 46.604 63.048 47.0979 62.0626C48.2119 59.8404 49.7364 57.8002 51.4828 56.0366C53.4899 54.0093 55.8291 52.3404 58.399 51.1019C58.5581 51.0254 58.6461 51.2861 58.488 51.3622Z" fill="white"/>
<path d="M48.2512 60.2888C47.5451 59.7726 47.0456 59.0221 46.8418 58.1716C46.6379 57.321 46.7431 56.4257 47.1385 55.6454C47.219 55.4879 47.4677 55.6056 47.387 55.7634C47.0175 56.4893 46.9196 57.3233 47.1111 58.1149C47.3025 58.9066 47.7706 59.6038 48.4309 60.0806C48.5743 60.1844 48.3937 60.392 48.2512 60.2888Z" fill="white"/>
<path d="M46.4654 67.625C48.2346 67.3665 49.8414 66.4506 50.9653 65.0601C51.0765 64.9222 51.2846 65.1021 51.1735 65.2398C50.0012 66.6847 48.3272 67.6343 46.4855 67.8993C46.31 67.9244 46.2908 67.65 46.4654 67.625Z" fill="white"/>
<path d="M53.626 54.3478C53.8576 54.6045 54.1492 54.7997 54.4749 54.9158C54.8005 55.0318 55.1498 55.0652 55.4916 55.0129C55.6667 54.9856 55.6857 55.2601 55.5117 55.2873C55.1339 55.3433 54.7481 55.3059 54.3881 55.1785C54.028 55.051 53.7047 54.8373 53.4463 54.5561C53.4197 54.5316 53.4034 54.4979 53.4008 54.4619C53.3981 54.4259 53.4093 54.3902 53.432 54.3621C53.456 54.3346 53.4898 54.3177 53.5261 54.3151C53.5624 54.3124 53.5983 54.3242 53.626 54.3478Z" fill="white"/>
<path d="M70.8707 68.3476C70.7618 68.3677 70.6529 68.3879 70.543 68.4102C69.0806 68.6892 67.6433 69.0865 66.2452 69.5982C66.1365 69.6361 66.0269 69.6761 65.9195 69.717C62.5644 70.9858 59.474 72.8665 56.8054 75.2634C55.7444 76.2182 54.7576 77.2523 53.8535 78.3568C52.6049 79.8822 51.3726 81.6355 49.7411 82.6301C49.572 82.7358 49.3966 82.8309 49.2158 82.9149L39.817 79.0165C39.8001 78.9969 39.7822 78.9794 39.7652 78.9598L39.3828 78.8213C39.4255 78.761 39.471 78.6995 39.5136 78.6393C39.5382 78.6042 39.5649 78.5701 39.5895 78.535C39.6066 78.512 39.6238 78.4889 39.6378 78.4671C39.6435 78.4594 39.6492 78.4517 39.654 78.4462C39.6681 78.4244 39.6835 78.4056 39.6967 78.386C39.9502 78.0413 40.2066 77.6977 40.4659 77.3554C40.4668 77.3532 40.4668 77.3532 40.4698 77.352C42.452 74.7486 44.669 72.2877 47.189 70.2417C47.2648 70.1801 47.3414 70.1164 47.4215 70.0567C48.5626 69.1407 49.7765 68.3195 51.0513 67.6013C51.7506 67.2103 52.4693 66.8549 53.2045 66.5366C55.1059 65.7177 57.1242 65.2029 59.1855 65.0112C63.2947 64.6296 67.4802 65.5665 70.6318 68.148C70.7124 68.2141 70.791 68.2793 70.8707 68.3476Z" fill="#014898" fill-opacity="0.15"/>
<path d="M70.8002 68.458C65.7881 67.4554 60.4231 68.0475 55.7794 70.2018C54.7755 70.6675 53.7976 71.2274 52.9837 71.9852C52.1694 72.7434 51.6495 73.6576 51.3218 74.7138C51.0221 75.6793 50.8275 76.7017 50.2984 77.5776C49.7407 78.5009 48.8215 79.0642 47.7747 79.2721C46.494 79.5264 45.1982 79.3054 43.9385 79.0453C42.54 78.7564 41.0918 78.4342 39.675 78.7949C39.5033 78.8386 39.4455 78.5697 39.6169 78.526C42.0821 77.8984 44.4804 79.2395 46.9506 79.0992C48.1033 79.0337 49.2431 78.6205 49.9267 77.6446C50.5245 76.7913 50.7261 75.7372 51.021 74.7569C51.3307 73.7276 51.7928 72.8063 52.5466 72.0284C53.3178 71.2327 54.2759 70.6334 55.2635 70.1441C57.4909 69.0404 59.9365 68.3293 62.3927 67.9726C65.2158 67.5624 68.0883 67.6381 70.8858 68.1966C71.059 68.2312 70.9722 68.4924 70.8002 68.458Z" fill="white"/>
<path d="M57.2522 69.4219C56.9993 68.5846 57.0523 67.6847 57.4016 66.8828C57.751 66.081 58.374 65.4294 59.1594 65.0445C59.3186 64.9672 59.4463 65.2109 59.2869 65.2883C58.5548 65.6454 57.9746 66.2524 57.6508 66.9998C57.327 67.7471 57.281 68.5856 57.5211 69.3639C57.5731 69.5331 57.3039 69.5902 57.2522 69.4219Z" fill="white"/>
<path d="M51.4089 74.2042C52.9771 75.063 54.8114 75.2991 56.5461 74.8655C56.7179 74.8224 56.7757 75.0914 56.6041 75.1344C54.7982 75.5822 52.8898 75.3326 51.2598 74.4354C51.1045 74.3498 51.2544 74.1191 51.4089 74.2042Z" fill="white"/>
<path d="M65.1208 67.9145C65.1511 68.2589 65.2665 68.5903 65.4566 68.8791C65.6467 69.1678 65.9056 69.4048 66.2099 69.5688C66.3662 69.6524 66.2161 69.883 66.0608 69.7999C65.7254 69.6172 65.4399 69.3551 65.2292 69.0366C65.0184 68.718 64.8889 68.3527 64.8519 67.9726C64.8454 67.937 64.8527 67.9004 64.8723 67.87C64.8919 67.8396 64.9223 67.8179 64.9573 67.8091C64.993 67.8016 65.0301 67.8085 65.0607 67.8282C65.0914 67.848 65.1129 67.879 65.1208 67.9145Z" fill="white"/>
<path d="M52.9668 74.7792C51.6505 68.4148 50.0052 66.2929 50.0052 66.2929L49.3766 65.8055L48.6208 65.2183L48.6244 65.1428L48.4451 65.0819L48.403 65.0492L48.334 64.9962L48.3229 65.0081L48.2995 65.0324L44.8789 63.8697L40.5395 62.3957L38.53 59.7838C38.2027 59.3584 37.7814 59.0146 37.299 58.7793C36.8166 58.544 36.2863 58.4236 35.7496 58.4276L29.332 58.4751C28.4643 58.4815 27.6303 58.8123 26.9941 59.4024L22.776 63.3151L16.2032 66.4542L16.1922 66.4431L16.1231 66.4924L15.1076 66.978L15.1495 67.1961L14.5209 67.6497C14.5209 67.6497 12.8756 69.6241 11.5593 75.546C11.2245 77.0528 11.0597 80.2852 11.0002 84.2683C10.9972 84.4698 11.0343 84.6699 11.1093 84.8569C11.1843 85.0439 11.2958 85.2142 11.4372 85.3577C11.5786 85.5013 11.7471 85.6153 11.933 85.6932C12.1189 85.771 12.3184 85.8111 12.5199 85.8112H47.6261L52.0078 85.8112C52.2092 85.8111 52.4085 85.771 52.5943 85.6933C52.78 85.6155 52.9485 85.5016 53.0899 85.3582C53.2313 85.2148 53.3428 85.0448 53.4179 84.858C53.493 84.6711 53.5303 84.4712 53.5276 84.2699C53.4695 79.9356 53.3047 76.4133 52.9668 74.7792Z" fill="#524E4E"/>
<path d="M57.4712 31.5503C56.1053 31.5503 54.7955 32.0929 53.8297 33.0587C52.8639 34.0245 52.3213 35.3344 52.3213 36.7002C52.3213 38.066 52.8639 39.3759 53.8297 40.3417C54.7955 41.3075 56.1053 41.8501 57.4712 41.8501H95.8502C97.216 41.8501 98.5259 41.3075 99.4917 40.3417C100.458 39.3759 101 38.066 101 36.7002C101 35.3344 100.458 34.0245 99.4917 33.0587C98.5259 32.0929 97.216 31.5503 95.8502 31.5503H57.4712Z" fill="#DCDCDC"/>
<path d="M57.4709 32.5925C56.3815 32.5925 55.3367 33.0253 54.5664 33.7956C53.796 34.566 53.3633 35.6108 53.3633 36.7002C53.3633 37.7896 53.796 38.8344 54.5664 39.6047C55.3367 40.3751 56.3815 40.8078 57.4709 40.8078H95.8499C96.9394 40.8078 97.9842 40.3751 98.7545 39.6047C99.5248 38.8344 99.9576 37.7896 99.9576 36.7002C99.9576 35.6108 99.5248 34.566 98.7545 33.7956C97.9842 33.0253 96.9394 32.5925 95.8499 32.5925H57.4709Z" fill="white"/>
<path d="M33.5483 56.0167C38.1917 56.0167 41.9559 52.2525 41.9559 47.6091C41.9559 42.9656 38.1917 39.2014 33.5483 39.2014C28.9049 39.2014 25.1406 42.9656 25.1406 47.6091C25.1406 52.2525 28.9049 56.0167 33.5483 56.0167Z" fill="#FFD2BB"/>
<path d="M31.3975 55.605C31.3616 55.5259 31.3258 55.4466 31.29 55.3669C31.3038 55.3674 31.3174 55.3694 31.3312 55.3697L31.3975 55.605Z" fill="#014898" fill-opacity="0.15"/>
<path d="M24.907 39.5837C25.3322 39.2445 25.8292 38.9324 26.3729 38.9499C26.9166 38.9675 27.4679 39.4585 27.3553 39.9907C28.3539 38.2225 29.9434 36.8626 31.8448 36.1497C33.7462 35.4367 35.8379 35.4162 37.7529 36.0918C39.1041 36.5686 40.4293 37.5223 40.7397 38.9212C40.8193 39.2803 40.8364 39.674 41.0607 39.9656C41.3433 40.3333 41.8842 40.4164 42.3296 40.2871C42.3341 40.2858 42.3385 40.2845 42.3429 40.2832C42.4182 40.2575 42.4994 40.2549 42.5761 40.2759C42.6528 40.2969 42.7214 40.3404 42.7731 40.4008C42.8248 40.4612 42.8572 40.5357 42.8661 40.6147C42.875 40.6937 42.8599 40.7736 42.8229 40.8439L42.4406 41.557C42.9226 41.6644 43.4233 41.6538 43.9003 41.5259C43.9795 41.5052 44.0633 41.5094 44.14 41.5381C44.2167 41.5668 44.2827 41.6185 44.3288 41.6861C44.375 41.7538 44.3991 41.8341 44.3979 41.916C44.3966 41.9979 44.37 42.0774 44.3218 42.1436C43.0611 43.8745 40.9548 44.9922 38.8055 44.9791C37.2779 44.9697 35.7345 44.4433 34.2478 44.7946C33.6726 44.9305 33.1352 45.1934 32.6749 45.5641C32.2146 45.9348 31.8432 46.4038 31.5878 46.9368C31.3324 47.4698 31.1996 48.0532 31.1992 48.6442C31.1987 49.2352 31.3305 49.8188 31.585 50.3522C31.1282 49.8526 30.2453 49.9709 29.7781 50.4607C29.311 50.9505 29.19 51.6816 29.2371 52.3568C29.3091 53.3896 29.7137 54.3628 30.1403 55.31C26.5638 55.1974 23.181 52.6885 22.0423 49.2952C20.8989 45.8876 22.0972 41.8252 24.907 39.5837Z" fill="#221F1F"/>
<path opacity="0.2" d="M19.2754 72.8578L21.6335 85.6881L23.0485 85.8113L19.2754 72.8578Z" fill="#221F1F"/>
<path opacity="0.2" d="M45.2506 71.8901L42.8925 85.6788L41.4775 85.8112L45.2506 71.8901Z" fill="#221F1F"/>
<path d="M26.918 35.2657C26.4659 35.4545 25.9941 35.2476 25.7962 34.7738C25.5953 34.2927 25.783 33.8043 26.2424 33.6125C26.7018 33.4206 27.1652 33.6281 27.3693 34.1169C27.5704 34.5984 27.3848 35.0708 26.918 35.2657ZM26.0519 32.6656L25.6924 32.8157C25.6026 32.8527 25.5022 32.8547 25.4109 32.8213C25.3197 32.7878 25.2444 32.7213 25.1998 32.635L25.1821 32.6002C24.7952 31.9026 24.7509 31.0547 25.0511 30.0815C25.3292 29.2085 25.4447 28.5945 25.2124 28.0382C24.9439 27.3951 24.3704 27.1936 23.6391 27.4855C23.3555 27.6039 23.2653 27.602 23.0421 27.8234C22.9935 27.8722 22.9356 27.9107 22.8719 27.9366C22.8082 27.9625 22.7399 27.9753 22.6711 27.9742C22.6046 27.9734 22.5389 27.9593 22.478 27.9326C22.4171 27.9058 22.3622 27.8671 22.3165 27.8188C22.2286 27.7255 22.1794 27.6024 22.1787 27.4742C22.1781 27.3461 22.2261 27.2225 22.313 27.1283C22.6882 26.7356 23.1407 26.4249 23.642 26.2159C25.2132 25.5598 26.0041 26.5284 26.3661 27.3952C26.7201 28.243 26.5209 29.0297 26.201 30.0485C25.9328 30.8951 25.9484 31.5223 26.253 32.1461C26.275 32.1932 26.2873 32.2443 26.289 32.2963C26.2908 32.3483 26.282 32.4001 26.2632 32.4487C26.2444 32.4972 26.216 32.5414 26.1797 32.5787C26.1434 32.6159 26.0999 32.6455 26.0519 32.6656Z" fill="#FF0D1B"/>
<path d="M65.9481 39.1563H58.3121C58.2879 39.1565 58.2638 39.1518 58.2414 39.1427C58.2189 39.1335 58.1985 39.12 58.1813 39.1029C58.1641 39.0858 58.1504 39.0655 58.1411 39.0431C58.1318 39.0207 58.127 38.9966 58.127 38.9724C58.127 38.9481 58.1318 38.9241 58.1411 38.9017C58.1504 38.8793 58.1641 38.859 58.1813 38.8419C58.1985 38.8248 58.2189 38.8113 58.2414 38.8021C58.2638 38.7929 58.2879 38.7883 58.3121 38.7885H65.9481C65.9967 38.7888 66.0432 38.8083 66.0774 38.8428C66.1116 38.8772 66.1308 38.9238 66.1308 38.9724C66.1308 39.0209 66.1116 39.0675 66.0774 39.102C66.0432 39.1365 65.9967 39.156 65.9481 39.1563Z" fill="#FF0D1B"/>
<path d="M75.6356 39.2176H67.9996C67.9754 39.2178 67.9513 39.2131 67.9289 39.2039C67.9064 39.1948 67.886 39.1813 67.8688 39.1642C67.8516 39.1471 67.8379 39.1267 67.8286 39.1043C67.8193 39.0819 67.8145 39.0579 67.8145 39.0337C67.8145 39.0094 67.8193 38.9854 67.8286 38.963C67.8379 38.9406 67.8516 38.9203 67.8688 38.9032C67.886 38.8861 67.9064 38.8725 67.9289 38.8634C67.9513 38.8542 67.9754 38.8496 67.9996 38.8497H75.6356C75.6599 38.8496 75.6839 38.8542 75.7064 38.8634C75.7289 38.8725 75.7493 38.8861 75.7665 38.9032C75.7837 38.9203 75.7974 38.9406 75.8067 38.963C75.816 38.9854 75.8208 39.0094 75.8208 39.0337C75.8208 39.0579 75.816 39.0819 75.8067 39.1043C75.7974 39.1267 75.7837 39.1471 75.7665 39.1642C75.7493 39.1813 75.7289 39.1948 75.7064 39.2039C75.6839 39.2131 75.6599 39.2178 75.6356 39.2176Z" fill="#FF0D1B"/>
<path d="M85.3216 39.2789H77.6856C77.637 39.2785 77.5906 39.259 77.5564 39.2246C77.5221 39.1901 77.5029 39.1435 77.5029 39.0949C77.5029 39.0464 77.5221 38.9998 77.5564 38.9653C77.5906 38.9309 77.637 38.9113 77.6856 38.911H85.3216C85.3459 38.9108 85.3699 38.9155 85.3924 38.9247C85.4148 38.9338 85.4353 38.9473 85.4525 38.9644C85.4697 38.9815 85.4833 39.0019 85.4927 39.0243C85.502 39.0467 85.5068 39.0707 85.5068 39.0949C85.5068 39.1192 85.502 39.1432 85.4927 39.1656C85.4833 39.188 85.4697 39.2083 85.4525 39.2254C85.4353 39.2425 85.4148 39.2561 85.3924 39.2652C85.3699 39.2744 85.3459 39.279 85.3216 39.2789Z" fill="#FF0D1B"/>
<path d="M95.0091 39.3403H87.3731C87.3245 39.3399 87.2781 39.3204 87.2439 39.286C87.2096 39.2515 87.1904 39.2049 87.1904 39.1563C87.1904 39.1078 87.2096 39.0612 87.2439 39.0267C87.2781 38.9923 87.3245 38.9727 87.3731 38.9724H95.0091C95.0577 38.9727 95.1041 38.9923 95.1384 39.0267C95.1726 39.0612 95.1918 39.1078 95.1918 39.1563C95.1918 39.2049 95.1726 39.2515 95.1384 39.286C95.1041 39.3204 95.0577 39.3399 95.0091 39.3403Z" fill="#FF0D1B"/>
<path d="M62.1135 37.4637C62.8973 37.4637 63.5327 36.8283 63.5327 36.0445C63.5327 35.2606 62.8973 34.6252 62.1135 34.6252C61.3297 34.6252 60.6943 35.2606 60.6943 36.0445C60.6943 36.8283 61.3297 37.4637 62.1135 37.4637Z" fill="#FF0D1B"/>
<path d="M71.8587 37.4637C72.6425 37.4637 73.2779 36.8283 73.2779 36.0445C73.2779 35.2606 72.6425 34.6252 71.8587 34.6252C71.0749 34.6252 70.4395 35.2606 70.4395 36.0445C70.4395 36.8283 71.0749 37.4637 71.8587 37.4637Z" fill="#FF0D1B"/>
<path d="M81.6038 37.4637C82.3876 37.4637 83.023 36.8283 83.023 36.0445C83.023 35.2606 82.3876 34.6252 81.6038 34.6252C80.82 34.6252 80.1846 35.2606 80.1846 36.0445C80.1846 36.8283 80.82 37.4637 81.6038 37.4637Z" fill="#FF0D1B"/>
<path d="M91.3499 37.4637C92.1337 37.4637 92.7691 36.8283 92.7691 36.0445C92.7691 35.2606 92.1337 34.6252 91.3499 34.6252C90.5661 34.6252 89.9307 35.2606 89.9307 36.0445C89.9307 36.8283 90.5661 37.4637 91.3499 37.4637Z" fill="#FF0D1B"/>
</g>
<defs>
<clipPath id="clip0_430_186235">
<rect width="90" height="59.8113" fill="white" transform="translate(11 26)"/>
</clipPath>
</defs>
</svg>
