<svg width="110" height="110" viewBox="0 0 110 110" fill="none" xmlns="http://www.w3.org/2000/svg">
<g clip-path="url(#clip0_490_171992)">
<path d="M59.5043 88.8012C59.4913 88.78 59.1813 88.2666 59.0738 87.2005C58.9753 86.2224 59.0386 84.5739 59.9003 82.2742C61.5325 77.9176 59.5241 74.4026 59.5036 74.3676L59.6027 74.3105C59.9893 75.045 60.2686 75.8302 60.4323 76.6427C60.8368 78.5347 60.6895 80.5019 60.0077 82.3139C58.3783 86.663 59.5897 88.7218 59.6021 88.7421L59.5043 88.8012Z" fill="#FF0D1B"/>
<path d="M58.8665 74.1122C59.2776 74.1122 59.6109 73.7814 59.6109 73.3735C59.6109 72.9655 59.2776 72.6348 58.8665 72.6348C58.4553 72.6348 58.1221 72.9655 58.1221 73.3735C58.1221 73.7814 58.4553 74.1122 58.8665 74.1122Z" fill="#FF0D1B"/>
<path d="M61.2141 76.8397C61.6252 76.8397 61.9585 76.509 61.9585 76.101C61.9585 75.693 61.6252 75.3623 61.2141 75.3623C60.803 75.3623 60.4697 75.693 60.4697 76.101C60.4697 76.509 60.803 76.8397 61.2141 76.8397Z" fill="#FF0D1B"/>
<path d="M59.6106 78.6581C60.0217 78.6581 60.355 78.3273 60.355 77.9194C60.355 77.5114 60.0217 77.1807 59.6106 77.1807C59.1995 77.1807 58.8662 77.5114 58.8662 77.9194C58.8662 78.3273 59.1995 78.6581 59.6106 78.6581Z" fill="#FF0D1B"/>
<path d="M61.5579 80.1922C61.969 80.1922 62.3023 79.8615 62.3023 79.4535C62.3023 79.0456 61.969 78.7148 61.5579 78.7148C61.1468 78.7148 60.8135 79.0456 60.8135 79.4535C60.8135 79.8615 61.1468 80.1922 61.5579 80.1922Z" fill="#FF0D1B"/>
<path d="M59.0383 82.579C59.4495 82.579 59.7827 82.2482 59.7827 81.8403C59.7827 81.4323 59.4495 81.1016 59.0383 81.1016C58.6272 81.1016 58.2939 81.4323 58.2939 81.8403C58.2939 82.2482 58.6272 82.579 59.0383 82.579Z" fill="#FF0D1B"/>
<path d="M59.9541 88.8285C59.9541 88.8285 59.2097 87.0102 61.4428 85.6465L59.9541 88.8285Z" fill="#FF0D1B"/>
<path d="M59.0389 88.7951C59.0389 88.7951 58.7002 86.8615 56.0781 86.878L59.0389 88.7951Z" fill="#FF0D1B"/>
<path d="M28.0074 35.0635C27.4122 35.0635 26.8304 34.8883 26.3355 34.5602C25.8406 34.2321 25.4549 33.7657 25.2271 33.22C24.9994 32.6743 24.9398 32.0738 25.0559 31.4945C25.172 30.9153 25.4586 30.3831 25.8795 29.9655C26.3003 29.5479 26.8366 29.2634 27.4203 29.1482C28.0041 29.033 28.6092 29.0921 29.1591 29.3181C29.709 29.5442 30.179 29.9269 30.5096 30.418C30.8403 30.9091 31.0168 31.4865 31.0168 32.0772C31.0168 32.8692 30.6998 33.6288 30.1354 34.1888C29.571 34.7489 28.8056 35.0635 28.0074 35.0635ZM28.0074 29.1939C27.4327 29.1939 26.871 29.363 26.3931 29.6798C25.9153 29.9967 25.5429 30.447 25.323 30.9738C25.1031 31.5007 25.0455 32.0805 25.1576 32.6398C25.2697 33.1991 25.5465 33.7129 25.9528 34.1161C26.3592 34.5194 26.8769 34.794 27.4406 34.9052C28.0042 35.0165 28.5884 34.9594 29.1194 34.7412C29.6503 34.5229 30.1041 34.1534 30.4234 33.6792C30.7427 33.205 30.9131 32.6475 30.9131 32.0773C30.9131 31.6986 30.8379 31.3237 30.6919 30.9738C30.5459 30.624 30.3318 30.3062 30.062 30.0384C29.7922 29.7707 29.4719 29.5583 29.1194 29.4134C28.7668 29.2685 28.389 29.1939 28.0074 29.1939Z" fill="#014898" stroke="#221F1F" stroke-width="0.4"/>
<path d="M58.5133 35.0635C57.9181 35.0635 57.3363 34.8883 56.8414 34.5602C56.3465 34.2321 55.9608 33.7657 55.733 33.22C55.5052 32.6743 55.4456 32.0738 55.5617 31.4945C55.6779 30.9153 55.9645 30.3831 56.3853 29.9655C56.8062 29.5479 57.3424 29.2634 57.9262 29.1482C58.51 29.033 59.115 29.0921 59.6649 29.3181C60.2148 29.5442 60.6848 29.9269 61.0155 30.418C61.3462 30.9091 61.5227 31.4865 61.5227 32.0772C61.5227 32.8692 61.2056 33.6288 60.6412 34.1888C60.0769 34.7489 59.3114 35.0635 58.5133 35.0635ZM58.5133 29.1939C57.9386 29.1939 57.3768 29.363 56.899 29.6798C56.4212 29.9967 56.0487 30.447 55.8288 30.9738C55.6089 31.5007 55.5514 32.0805 55.6635 32.6398C55.7756 33.1991 56.0523 33.7129 56.4587 34.1161C56.8651 34.5194 57.3828 34.794 57.9464 34.9052C58.5101 35.0165 59.0943 34.9594 59.6252 34.7412C60.1562 34.5229 60.61 34.1534 60.9292 33.6792C61.2485 33.205 61.4189 32.6475 61.4189 32.0773C61.4189 31.6986 61.3438 31.3237 61.1977 30.9738C61.0517 30.624 60.8377 30.3062 60.5679 30.0384C60.2981 29.7707 59.9778 29.5583 59.6252 29.4134C59.2727 29.2685 58.8949 29.1939 58.5133 29.1939Z" fill="#014898" stroke="#221F1F" stroke-width="0.4"/>
<path d="M69.9843 27.1818H17.1222C16.0932 27.1835 15.2592 28.209 15.2578 29.4747V54.5614C15.2592 55.827 16.0932 56.852 17.1222 56.8544H69.9843C71.0134 56.8526 71.8473 55.8271 71.8487 54.5614V29.4746C71.8473 28.209 71.0134 27.184 69.9843 27.1816V27.1818ZM71.6296 54.5614C71.6285 55.6782 70.8927 56.5832 69.9845 56.5845H17.1222C16.2141 56.5831 15.4785 55.6782 15.4771 54.5614V29.4746C15.4782 28.3578 16.2141 27.4528 17.1222 27.4515H69.9843C70.8924 27.4529 71.628 28.3578 71.6294 29.4746L71.6296 54.5614Z" fill="#014898" stroke="#221F1F" stroke-width="0.6"/>
<path d="M28.4154 38.1084H19.1006V44.5788H28.4154V38.1084Z" fill="#DCDCDC"/>
<path d="M41.4554 38.1084H32.1406V44.5788H41.4554V38.1084Z" fill="#DCDCDC"/>
<path d="M54.4965 38.1084H45.1816V44.5788H54.4965V38.1084Z" fill="#DCDCDC"/>
<path d="M67.5375 38.1084H58.2227V44.5788H67.5375V38.1084Z" fill="#DCDCDC"/>
<path d="M28.4154 47.583H19.1006V54.0534H28.4154V47.583Z" fill="#DCDCDC"/>
<path d="M41.4554 47.583H32.1406V54.0534H41.4554V47.583Z" fill="#DCDCDC"/>
<path d="M54.4965 47.583H45.1816V54.0534H54.4965V47.583Z" fill="#DCDCDC"/>
<path d="M67.5375 47.583H58.2227V54.0534H67.5375V47.583Z" fill="#DCDCDC"/>
<path d="M35.2428 54.0153L33.0439 51.0018L33.6429 50.5715L35.3261 52.8781L41.7669 46.3115L42.2967 46.8234L35.2428 54.0153Z" fill="#FF0D1B"/>
<path d="M48.401 44.5406L46.2021 41.5272L46.8011 41.0969L48.4843 43.4035L54.9251 36.8369L55.4549 37.3488L48.401 44.5406Z" fill="#FF0D1B"/>
<path d="M28.0469 21H27.8877V32.091H28.0469V21Z" fill="#014898" stroke="#221F1F" stroke-width="0.4"/>
<path d="M58.6689 21H58.5098V32.091H58.6689V21Z" fill="#014898" stroke="#221F1F" stroke-width="0.4"/>
<path d="M96.8298 89H52.6716C52.6498 89.0014 52.6278 88.9984 52.6072 88.9911C52.5866 88.9838 52.5677 88.9723 52.5517 88.9575C52.5357 88.9426 52.5229 88.9247 52.5142 88.9047C52.5055 88.8847 52.501 88.8632 52.501 88.8415C52.501 88.8197 52.5055 88.7982 52.5142 88.7783C52.5229 88.7583 52.5357 88.7404 52.5517 88.7255C52.5677 88.7106 52.5866 88.6992 52.6072 88.6919C52.6278 88.6846 52.6498 88.6815 52.6716 88.683H96.8298C96.8516 88.6815 96.8736 88.6846 96.8942 88.6919C96.9148 88.6992 96.9338 88.7106 96.9498 88.7255C96.9658 88.7404 96.9785 88.7583 96.9872 88.7783C96.9959 88.7982 97.0004 88.8197 97.0004 88.8415C97.0004 88.8632 96.9959 88.8847 96.9872 88.9047C96.9785 88.9247 96.9658 88.9426 96.9498 88.9575C96.9338 88.9723 96.9148 88.9838 96.8942 88.9911C96.8736 88.9984 96.8516 89.0014 96.8298 89Z" fill="#014898"/>
<path d="M22.32 44.5406L20.1211 41.5272L20.72 41.0969L22.4032 43.4035L28.8441 36.8369L29.3738 37.3488L22.32 44.5406Z" fill="#FF0D1B"/>
<path d="M84.1225 64.072C84.1843 64.0537 84.2474 64.0403 84.3112 64.0319L86.8612 58.8902L86.0827 57.7321L87.6903 56.3379L89.7113 58.792L85.5952 64.7365C85.6967 64.9614 85.7267 65.2116 85.6814 65.4539C85.6361 65.6961 85.5175 65.9189 85.3414 66.0927C85.1653 66.2664 84.9401 66.3828 84.6957 66.4264C84.4514 66.47 84.1994 66.4387 83.9734 66.3368C83.7473 66.2348 83.5579 66.0669 83.4304 65.8555C83.3029 65.6441 83.2432 65.3991 83.2594 65.1532C83.2756 64.9074 83.3669 64.6722 83.5211 64.4791C83.6752 64.2859 83.885 64.1439 84.1225 64.072Z" fill="#FFD2BB"/>
<path d="M88.4751 57.0501C88.4403 57.0864 88.4005 57.1175 88.3568 57.1425L85.748 58.6433C85.6277 58.7125 85.4847 58.7314 85.3505 58.696C85.2162 58.6605 85.1016 58.5735 85.0319 58.4542C85.0246 58.4418 85.0178 58.429 85.0116 58.416L83.7425 55.7558C83.6885 55.6439 83.6769 55.5164 83.7097 55.3966C83.7426 55.2769 83.8177 55.1729 83.9214 55.1036L85.5386 54.0119C85.6396 53.9438 85.7614 53.9127 85.8829 53.9242C86.0045 53.9357 86.1182 53.9889 86.2044 54.0748L88.4647 56.3257C88.561 56.4214 88.6159 56.5506 88.6178 56.6858C88.6197 56.821 88.5683 56.9517 88.4748 57.05L88.4751 57.0501Z" fill="#757575"/>
<path d="M92.1387 86.5108L90.7612 86.8827L88.6602 81.7872L90.6931 81.2383L92.1387 86.5108Z" fill="#FFD2BB"/>
<path d="M89.671 86.7563L92.3273 86.0391L92.7823 87.6984L88.4534 88.8672C88.3327 88.427 88.3932 87.9572 88.6215 87.5613C88.8498 87.1653 89.2273 86.8756 89.6709 86.7558L89.671 86.7563Z" fill="#014898"/>
<path d="M80.3636 87.5527H78.936L78.2568 82.0889H80.3636V87.5527Z" fill="#FFD2BB"/>
<path d="M77.916 87.1484H80.669V88.8686H76.1826C76.1826 88.6428 76.2274 88.4191 76.3145 88.2104C76.4016 88.0017 76.5293 87.8121 76.6902 87.6523C76.8512 87.4926 77.0422 87.3659 77.2525 87.2794C77.4628 87.193 77.6884 87.1485 77.916 87.1484Z" fill="#014898"/>
<path d="M81.8676 52.1982C83.447 52.1982 84.7273 50.9276 84.7273 49.3603C84.7273 47.793 83.447 46.5225 81.8676 46.5225C80.2882 46.5225 79.0078 47.793 79.0078 49.3603C79.0078 50.9276 80.2882 52.1982 81.8676 52.1982Z" fill="#FFD2BB"/>
<path d="M80.2754 83.657H78.3248C78.1914 83.6569 78.0629 83.6064 77.9656 83.5158C77.8683 83.4252 77.8094 83.3012 77.8008 83.1691C77.2196 73.9995 77.5596 67.4218 78.8709 62.4692C78.8766 62.4475 78.8837 62.4262 78.8921 62.4054L78.9969 62.1462C79.0355 62.0495 79.1026 61.9666 79.1893 61.9083C79.2761 61.85 79.3786 61.819 79.4834 61.8193H83.4949C83.5705 61.8193 83.6452 61.8355 83.7139 61.8668C83.7825 61.8981 83.8436 61.9439 83.8927 62.0009L84.4375 62.6317C84.4481 62.644 84.4581 62.6566 84.4677 62.6697C86.9245 66.0697 89.1264 72.7167 91.6764 81.651C91.7141 81.7808 91.6992 81.9201 91.6348 82.0392C91.5705 82.1582 91.4618 82.2477 91.332 82.2884L89.2362 82.9542C89.1158 82.9918 88.9859 82.9853 88.8699 82.9358C88.754 82.8864 88.6598 82.7973 88.6045 82.6847L83.1643 71.4878C83.1263 71.4095 83.0638 71.3455 82.9863 71.3052C82.9087 71.2649 82.8201 71.2505 82.7337 71.264C82.6472 71.2776 82.5674 71.3184 82.5061 71.3805C82.4449 71.4426 82.4054 71.5226 82.3935 71.6086L80.7946 83.2074C80.7771 83.3318 80.7149 83.4458 80.6196 83.5284C80.5242 83.6109 80.402 83.6566 80.2754 83.657Z" fill="#014898"/>
<path d="M84.2175 62.6783H84.2011L79.3282 62.5253C79.2029 62.5218 79.083 62.4738 78.9905 62.3899C78.8979 62.306 78.8389 62.1919 78.8241 62.0684C78.207 57.1069 79.9004 55.7777 80.6575 55.4363C80.7207 55.4079 80.7755 55.3639 80.8166 55.3083C80.8576 55.2528 80.8835 55.1877 80.8918 55.1193L80.9573 54.5994C80.9685 54.5075 81.0042 54.4203 81.0608 54.3468C82.2478 52.8211 83.8684 52.3324 84.7285 52.1771C84.8651 52.1528 85.0058 52.1833 85.1197 52.2619C85.2336 52.3405 85.3114 52.4608 85.3359 52.5963C85.3375 52.6048 85.3388 52.6134 85.3399 52.622L85.4381 53.3687C85.4481 53.4399 85.4767 53.5073 85.5211 53.5641C87.9964 56.7753 85.2389 61.5166 84.6609 62.4345C84.6137 62.509 84.5483 62.5704 84.4708 62.613C84.3933 62.6556 84.3061 62.6781 84.2175 62.6783Z" fill="#757575"/>
<path d="M82.6839 68.8805L79.0024 69.5845L78.8625 68.864L81.6805 68.325L78.4053 59.7572L79.0966 59.4971L82.6839 68.8805Z" fill="#FF0D1B"/>
<path d="M87.6377 49.6796C86.9997 48.7882 86.2347 47.9934 85.3666 47.3202C84.6447 46.7608 83.8413 46.2828 82.9553 46.0543C82.0694 45.8257 81.0902 45.8646 80.2816 46.291C79.4731 46.7175 78.637 47.5649 78.6319 48.4735C78.6302 48.7655 78.7051 49.1604 78.9948 49.1099L79.0786 49.1215L81.1753 48.7013L82.0682 51.7766C82.131 51.9926 82.2152 52.2342 82.4218 52.3263C82.6165 52.4131 82.841 52.3313 83.0389 52.2497C83.0713 52.2363 83.3496 51.6163 83.3496 51.6163C83.3566 51.5969 83.3686 51.5797 83.3845 51.5665C83.4004 51.5533 83.4196 51.5446 83.44 51.5412C83.4605 51.5378 83.4815 51.5399 83.5009 51.5472C83.5202 51.5546 83.5372 51.567 83.5502 51.583L83.7155 51.7881C83.7471 51.8274 83.7906 51.8554 83.8396 51.8679C83.8886 51.8804 83.9404 51.8767 83.9871 51.8574L87.4063 50.441C87.5638 50.3757 87.7399 50.2908 87.7855 50.1273C87.8286 49.97 87.7322 49.812 87.6377 49.6796Z" fill="#221F1F"/>
<path d="M83.7637 69.7298C83.9134 69.6256 84.0382 69.4901 84.1295 69.3328C84.2207 69.1755 84.276 69.0003 84.2916 68.8195C84.3073 68.6388 84.2827 68.4568 84.2198 68.2864C84.1569 68.116 84.0571 67.9614 83.9274 67.8335L84.8325 56.9873L82.1377 57.3552L82.0865 67.8927C81.8839 68.123 81.7736 68.4191 81.7764 68.7247C81.7792 69.0304 81.895 69.3244 82.1018 69.5509C82.3086 69.7775 82.592 69.9209 82.8982 69.9539C83.2044 69.9868 83.5122 69.9071 83.7631 69.7299L83.7637 69.7298Z" fill="#FFD2BB"/>
<path d="M85.0079 58.5494C84.9575 58.5494 84.9073 58.5422 84.8589 58.528L81.966 57.6836C81.8999 57.6643 81.8384 57.6324 81.7848 57.5895C81.7313 57.5466 81.6868 57.4937 81.6538 57.4338C81.6209 57.3738 81.6001 57.308 81.5928 57.2401C81.5855 57.1722 81.5917 57.1036 81.6111 57.0381C81.6152 57.0242 81.6199 57.0106 81.6251 56.9972L82.6958 54.2525C82.7404 54.1366 82.8256 54.0404 82.9357 53.9816C83.0459 53.9228 83.1737 53.9053 83.2958 53.9323L85.207 54.3445C85.3263 54.3703 85.4328 54.4365 85.5081 54.5319C85.5834 54.6273 85.6228 54.7458 85.6195 54.8669L85.5305 58.0434C85.5268 58.1786 85.4702 58.3071 85.3726 58.4015C85.275 58.4959 85.1442 58.5489 85.0079 58.5493V58.5494Z" fill="#757575"/>
</g>
<defs>
<clipPath id="clip0_490_171992">
<rect width="83" height="68" fill="white" transform="translate(14 21)"/>
</clipPath>
</defs>
</svg>
