<svg width="110" height="110" viewBox="0 0 110 110" fill="none" xmlns="http://www.w3.org/2000/svg">
<g clip-path="url(#clip0_492_172875)">
<path d="M76.9052 81.2181C77.8765 81.2181 78.6639 80.1845 78.6639 78.9096C78.6639 77.6346 77.8765 76.6011 76.9052 76.6011C75.9339 76.6011 75.1465 77.6346 75.1465 78.9096C75.1465 80.1845 75.9339 81.2181 76.9052 81.2181Z" fill="#F6F6F6"/>
<path d="M78.2969 69.0335C78.5433 68.6046 78.6711 68.1175 78.6671 67.6225C78.6671 66.3449 77.8797 65.314 76.9084 65.314C75.9371 65.314 75.1505 66.3472 75.1505 67.6225C75.1456 68.1172 75.2723 68.6042 75.5176 69.0335C75.2769 69.4644 75.1505 69.9501 75.1505 70.444C75.1505 70.938 75.2769 71.4237 75.5176 71.8546C75.2769 72.2857 75.1505 72.7715 75.1505 73.2656C75.1505 73.7597 75.2769 74.2455 75.5176 74.6766C75.2723 75.1058 75.1456 75.5929 75.1505 76.0876C75.1505 77.3652 75.9379 78.3961 76.9084 78.3961C77.8789 78.3961 78.6671 77.3628 78.6671 76.0876C78.6721 75.5929 78.5454 75.1058 78.3001 74.6766C78.5408 74.2455 78.6671 73.7597 78.6671 73.2656C78.6671 72.7715 78.5408 72.2857 78.3001 71.8546C78.5408 71.4237 78.6671 70.938 78.6671 70.444C78.6671 69.9501 78.5408 69.4644 78.3001 69.0335H78.2969Z" fill="#F6F6F6"/>
<path d="M76.9052 67.1102C77.8765 67.1102 78.6639 66.0766 78.6639 64.8017C78.6639 63.5267 77.8765 62.4932 76.9052 62.4932C75.9339 62.4932 75.1465 63.5267 75.1465 64.8017C75.1465 66.0766 75.9339 67.1102 76.9052 67.1102Z" fill="#F6F6F6"/>
<path d="M76.9052 64.2879C77.8765 64.2879 78.6639 63.2544 78.6639 61.9794C78.6639 60.7045 77.8765 59.6709 76.9052 59.6709C75.9339 59.6709 75.1465 60.7045 75.1465 61.9794C75.1465 63.2544 75.9339 64.2879 76.9052 64.2879Z" fill="#F6F6F6"/>
<path d="M83.4879 42.6697C83.7279 42.3628 83.9465 42.0397 84.1423 41.7027L79.5246 40.9417L84.5221 40.9793C85.001 39.9331 85.2621 38.8 85.2895 37.6491C85.3169 36.4983 85.1099 35.354 84.6813 34.2861L77.9761 37.7724L84.1606 33.2161C83.581 32.2129 82.8018 31.3401 81.8714 30.652C80.941 29.9639 79.8793 29.4753 78.7525 29.2165C77.6256 28.9578 76.4577 28.9344 75.3215 29.1479C74.1853 29.3613 73.105 29.8071 72.148 30.4574C71.1909 31.1077 70.3776 31.9486 69.7586 32.9278C69.1396 33.907 68.7282 35.0036 68.5499 36.1491C68.3717 37.2947 68.4305 38.4648 68.7226 39.5866C69.0147 40.7084 69.5339 41.7579 70.2479 42.6697C69.8737 43.1471 69.5518 43.6636 69.2877 44.2101L75.2851 47.3355L68.8904 45.1795C68.4405 46.5103 68.3286 47.9326 68.5649 49.3177C68.8013 50.7028 69.3783 52.0069 70.2439 53.1119C69.2667 54.358 68.6588 55.8547 68.4897 57.4309C68.3207 59.0071 68.5972 60.5992 69.2878 62.0252C69.9784 63.4512 71.0551 64.6536 72.3948 65.4948C73.7346 66.3359 75.2833 66.782 76.8639 66.782C78.4445 66.782 79.9932 66.3359 81.333 65.4948C82.6727 64.6536 83.7494 63.4512 84.44 62.0252C85.1306 60.5992 85.4071 59.0071 85.238 57.4309C85.069 55.8547 84.4611 54.358 83.4839 53.1119C84.6516 51.623 85.2865 49.7836 85.2865 47.8892C85.2865 45.9949 84.6516 44.1555 83.4839 42.6665L83.4879 42.6697Z" fill="#F6F6F6"/>
<path opacity="0.1" d="M68.4453 47.8927C68.4424 49.7874 69.0775 51.6276 70.2478 53.115C69.2706 54.361 68.6627 55.8577 68.4936 57.4339C68.3246 59.0101 68.6011 60.6023 69.2917 62.0283C69.9823 63.4543 71.059 64.6566 72.3987 65.4978C73.7385 66.339 75.2872 66.7851 76.8678 66.7851C78.4484 66.7851 79.9971 66.339 81.3369 65.4978C82.6766 64.6566 83.7533 63.4543 84.4439 62.0283C85.1345 60.6023 85.411 59.0101 85.2419 57.4339C85.0729 55.8577 84.465 54.361 83.4878 53.115C84.6167 51.6776 68.4453 46.944 68.4453 47.8927Z" fill="#F6F6F6"/>
<path d="M27.5798 78.7493C28.1708 78.7493 28.6498 78.12 28.6498 77.3439C28.6498 76.5677 28.1708 75.9385 27.5798 75.9385C26.9888 75.9385 26.5098 76.5677 26.5098 77.3439C26.5098 78.12 26.9888 78.7493 27.5798 78.7493Z" fill="#F6F6F6"/>
<path d="M28.4309 71.332C28.5803 71.0706 28.6575 70.774 28.6546 70.4728C28.6546 69.6966 28.1769 69.0674 27.5838 69.0674C26.9907 69.0674 26.5138 69.6966 26.5138 70.4728C26.5107 70.774 26.5876 71.0705 26.7367 71.332C26.5905 71.5945 26.5138 71.8901 26.5138 72.1908C26.5138 72.4914 26.5905 72.7871 26.7367 73.0496C26.5905 73.3121 26.5138 73.6077 26.5138 73.9084C26.5138 74.209 26.5905 74.5047 26.7367 74.7672C26.5875 75.0283 26.5105 75.3247 26.5138 75.6256C26.5138 76.4026 26.9915 77.0318 27.5838 77.0318C28.1761 77.0318 28.6546 76.4026 28.6546 75.6256C28.6576 75.3246 28.5804 75.0282 28.4309 74.7672C28.5775 74.5048 28.6545 74.2091 28.6545 73.9084C28.6545 73.6077 28.5775 73.312 28.4309 73.0496C28.5775 72.7872 28.6545 72.4915 28.6545 72.1908C28.6545 71.89 28.5775 71.5943 28.4309 71.332Z" fill="#F6F6F6"/>
<path d="M27.5798 70.1604C28.1708 70.1604 28.6498 69.5312 28.6498 68.755C28.6498 67.9788 28.1708 67.3496 27.5798 67.3496C26.9888 67.3496 26.5098 67.9788 26.5098 68.755C26.5098 69.5312 26.9888 70.1604 27.5798 70.1604Z" fill="#F6F6F6"/>
<path d="M27.5798 68.4431C28.1708 68.4431 28.6498 67.8139 28.6498 67.0377C28.6498 66.2615 28.1708 65.6323 27.5798 65.6323C26.9888 65.6323 26.5098 66.2615 26.5098 67.0377C26.5098 67.8139 26.9888 68.4431 27.5798 68.4431Z" fill="#F6F6F6"/>
<path d="M23.5753 55.2818C23.4292 55.0952 23.2962 54.8985 23.1773 54.6933L25.9901 54.2302L22.948 54.2533C22.6567 53.6168 22.4978 52.9274 22.481 52.2272C22.4642 51.5271 22.5897 50.8308 22.85 50.1809L26.9287 52.3058L23.1653 49.5269C23.5183 48.9166 23.9927 48.3857 24.5591 47.9672C25.1254 47.5487 25.7715 47.2516 26.4573 47.0943C27.143 46.937 27.8537 46.9229 28.5451 47.0529C29.2366 47.1829 29.8939 47.4542 30.4763 47.85C31.0586 48.2458 31.5536 48.7575 31.9303 49.3533C32.307 49.9492 32.5575 50.6164 32.6661 51.3135C32.7747 52.0106 32.7391 52.7226 32.5615 53.4053C32.384 54.088 32.0682 54.7268 31.634 55.2818C31.8618 55.5721 32.0577 55.8861 32.2183 56.2185L28.5672 58.1222L32.4604 56.8118C32.7338 57.6222 32.8014 58.4883 32.6571 59.3315C32.5128 60.1747 32.1612 60.9686 31.634 61.6412C32.2288 62.3998 32.5988 63.3109 32.7017 64.2704C32.8046 65.2299 32.6362 66.1991 32.2158 67.0671C31.7954 67.9352 31.1399 68.6671 30.3244 69.1791C29.5088 69.6912 28.566 69.9627 27.6039 69.9627C26.6417 69.9627 25.6989 69.6912 24.8833 69.1791C24.0678 68.6671 23.4123 67.9352 22.9919 67.0671C22.5715 66.1991 22.4032 65.2299 22.506 64.2704C22.6089 63.3109 22.9789 62.3998 23.5737 61.6412C22.863 60.7346 22.4766 59.6148 22.4766 58.4615C22.4766 57.3082 22.863 56.1884 23.5737 55.2818H23.5753Z" fill="#F6F6F6"/>
<path opacity="0.1" d="M32.731 58.4615C32.7327 59.615 32.3461 60.7354 31.6339 61.6412C32.2287 62.3997 32.5987 63.3108 32.7016 64.2703C32.8045 65.2298 32.6361 66.199 32.2157 67.0671C31.7953 67.9351 31.1398 68.667 30.3243 69.1791C29.5087 69.6911 28.566 69.9626 27.6038 69.9626C26.6416 69.9626 25.6988 69.6911 24.8833 69.1791C24.0677 68.667 23.4123 67.9351 22.9919 67.0671C22.5715 66.199 22.4031 65.2298 22.506 64.2703C22.6088 63.3108 22.9788 62.3997 23.5737 61.6412C22.8866 60.77 32.731 57.8841 32.731 58.4615Z" fill="#F6F6F6"/>
<path d="M51.7038 79.9724C52.4948 79.9724 53.136 79.1305 53.136 78.0919C53.136 77.0534 52.4948 76.2114 51.7038 76.2114C50.9127 76.2114 50.2715 77.0534 50.2715 78.0919C50.2715 79.1305 50.9127 79.9724 51.7038 79.9724Z" fill="#F6F6F6"/>
<path d="M52.8372 70.046C53.0368 69.6961 53.1399 69.2992 53.1358 68.8961C53.1358 67.8581 52.4989 67.0156 51.7027 67.0156C50.9066 67.0156 50.2697 67.8581 50.2697 68.8961C50.2654 69.2993 50.3688 69.6963 50.569 70.046C50.3728 70.3971 50.2697 70.7929 50.2697 71.1955C50.2697 71.598 50.3728 71.9938 50.569 72.3449C50.3728 72.6959 50.2697 73.0916 50.2697 73.494C50.2697 73.8964 50.3728 74.2921 50.569 74.6431C50.3688 74.9927 50.2654 75.3897 50.2697 75.7929C50.2697 76.831 50.9114 77.6734 51.7027 77.6734C52.4941 77.6734 53.1358 76.831 53.1358 75.7929C53.1399 75.3898 53.0368 74.9929 52.8372 74.6431C53.033 74.2919 53.1359 73.8963 53.1359 73.494C53.1359 73.0917 53.033 72.6961 52.8372 72.3449C53.033 71.9937 53.1358 71.5979 53.1358 71.1955C53.1358 70.793 53.033 70.3973 52.8372 70.046Z" fill="#F6F6F6"/>
<path d="M51.7038 68.4788C52.4948 68.4788 53.136 67.6369 53.136 66.5983C53.136 65.5597 52.4948 64.7178 51.7038 64.7178C50.9127 64.7178 50.2715 65.5597 50.2715 66.5983C50.2715 67.6369 50.9127 68.4788 51.7038 68.4788Z" fill="#F6F6F6"/>
<path d="M51.7038 66.18C52.4948 66.18 53.136 65.338 53.136 64.2995C53.136 63.2609 52.4948 62.4189 51.7038 62.4189C50.9127 62.4189 50.2715 63.2609 50.2715 64.2995C50.2715 65.338 50.9127 66.18 51.7038 66.18Z" fill="#F6F6F6"/>
<path d="M46.3443 48.5685C46.1486 48.3187 45.9703 48.0557 45.8109 47.7811L49.5743 47.1615L45.5044 47.1918C45.1139 46.3396 44.9008 45.4165 44.8782 44.4789C44.8556 43.5413 45.024 42.6089 45.373 41.7388L50.8346 44.5799L45.7974 40.8668C46.268 40.0465 46.9022 39.3324 47.6604 38.7691C48.4186 38.2058 49.2845 37.8053 50.204 37.5928C51.1235 37.3803 52.0768 37.3602 53.0043 37.5339C53.9319 37.7076 54.8137 38.0712 55.5948 38.6022C56.3759 39.1331 57.0394 39.82 57.5439 40.6197C58.0484 41.4195 58.383 42.315 58.5268 43.2503C58.6707 44.1856 58.6206 45.1407 58.3798 46.0557C58.139 46.9708 57.7127 47.8262 57.1274 48.5685C57.4322 48.9576 57.6943 49.3784 57.9092 49.8238L53.024 52.3694L58.2333 50.6127C58.5992 51.6972 58.6897 52.856 58.4966 53.9844C58.3035 55.1128 57.8329 56.1751 57.1274 57.0751C57.9234 58.0902 58.4185 59.3094 58.5562 60.5934C58.6938 61.8774 58.4685 63.1744 57.9059 64.336C57.3433 65.4976 56.4662 66.477 55.3748 67.1623C54.2835 67.8475 53.0219 68.2109 51.7343 68.2109C50.4467 68.2109 49.1851 67.8475 48.0937 67.1623C47.0023 66.477 46.1252 65.4976 45.5626 64.336C45 63.1744 44.7747 61.8774 44.9124 60.5934C45.0501 59.3094 45.5452 58.0902 46.3412 57.0751C45.3901 55.8619 44.8731 54.3634 44.8731 52.8202C44.8731 51.2769 45.3901 49.7785 46.3412 48.5653L46.3443 48.5685Z" fill="#F6F6F6"/>
<path opacity="0.1" d="M58.5955 52.8237C58.5979 54.3672 58.0806 55.8664 57.1274 57.0782C57.9234 58.0933 58.4185 59.3125 58.5562 60.5965C58.6938 61.8805 58.4685 63.1775 57.9059 64.3391C57.3433 65.5007 56.4662 66.4801 55.3748 67.1654C54.2835 67.8506 53.0219 68.214 51.7343 68.214C50.4467 68.214 49.1851 67.8506 48.0937 67.1654C47.0023 66.4801 46.1252 65.5007 45.5626 64.3391C45 63.1775 44.7747 61.8805 44.9124 60.5965C45.0501 59.3125 45.5452 58.0933 46.3412 57.0782C45.4216 55.9076 58.5955 52.0507 58.5955 52.8237Z" fill="#F6F6F6"/>
<path d="M101.001 79.8034C101.001 80.352 97.0027 80.8534 90.3922 81.2407C89.19 81.3102 87.9019 81.3765 86.5357 81.4388C85.3553 81.492 84.118 81.5423 82.824 81.5897C81.5704 81.6344 80.2686 81.6759 78.9189 81.7142C74.6563 81.8364 69.9439 81.9243 64.9377 81.9682C63.7228 81.9793 62.4917 81.9879 61.2444 81.9937C59.945 81.9996 58.6309 82.0022 57.3018 82.0017C33.1673 82.0017 13.6035 81.0187 13.6035 79.8058C13.6035 78.5928 33.1673 77.6099 57.3018 77.6099C67.6924 77.6099 77.2342 77.7927 84.734 78.0962L85.554 78.1297H85.5588C95.0059 78.5314 101.001 79.1358 101.001 79.8034Z" fill="#DCDCDC"/>
<path d="M101.001 79.8034C101.001 80.352 97.0027 80.8534 90.3922 81.2407C89.19 81.3102 87.9019 81.3765 86.5357 81.4388C85.3553 81.492 84.118 81.5423 82.824 81.5897C81.5704 81.6344 80.2686 81.6759 78.9189 81.7142C74.6563 81.8364 69.9439 81.9243 64.9377 81.9682C63.7228 81.9793 62.4917 81.9879 61.2444 81.9937C59.945 81.9996 58.6309 82.0022 57.3018 82.0017C33.1673 82.0017 13.6035 81.0187 13.6035 79.8058C13.6035 78.5928 33.1673 77.6099 57.3018 77.6099C67.6924 77.6099 77.2342 77.7927 84.734 78.0962L85.554 78.1297H85.5588C95.0059 78.5314 101.001 79.1358 101.001 79.8034Z" fill="#DCDCDC"/>
<path d="M97.3974 79.4166C97.3974 79.875 93.3992 80.295 86.7887 80.6144C85.5873 80.6727 84.2984 80.7278 82.933 80.7797C81.752 80.8244 80.5148 80.8665 79.2213 80.9059C77.9676 80.9431 76.6659 80.978 75.3162 81.0105C71.0528 81.1127 66.3404 81.1861 61.3342 81.2229C60.1203 81.2319 58.8892 81.2388 57.6409 81.2436C56.3415 81.2484 55.0276 81.2508 53.6991 81.2508C29.5646 81.2508 10 80.4291 10 79.4142C10 78.3993 29.5646 77.5776 53.6991 77.5776C64.0889 77.5776 73.6307 77.7302 81.1305 77.9841L81.9505 78.012H81.9561C91.4064 78.353 97.3974 78.8553 97.3974 79.4166Z" fill="#DCDCDC"/>
<path d="M21.2865 62.7334L20.1895 59.3644L46.4624 59.0762L47.5388 62.4116L21.2865 62.7334Z" fill="#FF0D1B"/>
<path opacity="0.15" d="M21.2865 62.7334L20.1895 59.3644L46.4624 59.0762L47.5388 62.4116L21.2865 62.7334Z" fill="#221F1F"/>
<path d="M19.5346 62.7334L18.4375 59.3644L44.7105 59.0762L45.7869 62.4116L19.5346 62.7334Z" fill="#FF0D1B"/>
<path d="M64.3856 57.5568C61.6692 57.5568 59.5283 56.4753 57.9631 54.3124C56.3978 52.1495 55.6152 49.5293 55.6152 46.4518C55.6152 43.3535 56.3721 40.7387 57.8859 38.6072C59.3996 36.4756 61.5349 35.411 64.2917 35.4131C67.2151 35.4131 69.4178 36.5361 70.8997 38.782C72.3816 41.028 73.1228 43.6274 73.1234 46.5804C73.1234 49.512 72.3564 52.0747 70.8225 54.2685C69.2886 56.4623 67.143 57.5584 64.3856 57.5568ZM64.4652 55.1237C66.2523 55.1237 67.588 54.3425 68.4723 52.78C69.3565 51.2176 69.7987 49.2479 69.7987 46.871C69.7987 44.2253 69.3462 42.0589 68.4412 40.3719C67.5363 38.6849 66.1483 37.8411 64.2774 37.8406C60.7212 37.8406 58.9431 40.6737 58.9431 46.34C58.9431 52.1963 60.7833 55.1242 64.4637 55.1237H64.4652ZM65.3601 78.4236H61.4311L87.1531 35.8467H91.0081L65.3601 78.4236ZM88.1157 78.8604C85.3584 78.8604 83.2087 77.7691 81.6669 75.5865C80.125 73.4039 79.3509 70.7834 79.3445 67.7251C79.3445 64.6476 80.0961 62.0431 81.5992 59.9116C83.1023 57.7801 85.2429 56.7154 88.0209 56.7175C90.9237 56.7175 93.111 57.8405 94.5828 60.0865C96.0546 62.3324 96.7908 64.9316 96.7913 67.884C96.7913 70.7965 96.0294 73.3544 94.5056 75.5578C92.9818 77.7611 90.8513 78.862 88.1141 78.8604H88.1157ZM88.1619 76.3651C89.9405 76.3651 91.269 75.5972 92.1474 74.0613C93.0258 72.5255 93.465 70.5638 93.465 68.1763C93.465 65.621 93.0205 63.4781 92.1315 61.7474C91.2424 60.0167 89.8574 59.1501 87.9764 59.1474C84.3995 59.1474 82.6111 61.9806 82.6111 67.6468C82.61 73.4595 84.4598 76.3656 88.1603 76.3651H88.1619Z" fill="#FF0D1B"/>
<path d="M64.3856 57.5568C61.6692 57.5568 59.5283 56.4753 57.9631 54.3124C56.3978 52.1495 55.6152 49.5293 55.6152 46.4518C55.6152 43.3535 56.3721 40.7387 57.8859 38.6072C59.3996 36.4756 61.5349 35.411 64.2917 35.4131C67.2151 35.4131 69.4178 36.5361 70.8997 38.782C72.3816 41.028 73.1228 43.6274 73.1234 46.5804C73.1234 49.512 72.3564 52.0747 70.8225 54.2685C69.2886 56.4623 67.143 57.5584 64.3856 57.5568ZM64.4652 55.1237C66.2523 55.1237 67.588 54.3425 68.4723 52.78C69.3565 51.2176 69.7987 49.2479 69.7987 46.871C69.7987 44.2253 69.3462 42.0589 68.4412 40.3719C67.5363 38.6849 66.1483 37.8411 64.2774 37.8406C60.7212 37.8406 58.9431 40.6737 58.9431 46.34C58.9431 52.1963 60.7833 55.1242 64.4637 55.1237H64.4652ZM65.3601 78.4236H61.4311L87.1531 35.8467H91.0081L65.3601 78.4236ZM88.1157 78.8604C85.3584 78.8604 83.2087 77.7691 81.6669 75.5865C80.125 73.4039 79.3509 70.7834 79.3445 67.7251C79.3445 64.6476 80.0961 62.0431 81.5992 59.9116C83.1023 57.7801 85.2429 56.7154 88.0209 56.7175C90.9237 56.7175 93.111 57.8405 94.5828 60.0865C96.0546 62.3324 96.7908 64.9316 96.7913 67.884C96.7913 70.7965 96.0294 73.3544 94.5056 75.5578C92.9818 77.7611 90.8513 78.862 88.1141 78.8604H88.1157ZM88.1619 76.3651C89.9405 76.3651 91.269 75.5972 92.1474 74.0613C93.0258 72.5255 93.465 70.5638 93.465 68.1763C93.465 65.621 93.0205 63.4781 92.1315 61.7474C91.2424 60.0167 89.8574 59.1501 87.9764 59.1474C84.3995 59.1474 82.6111 61.9806 82.6111 67.6468C82.61 73.4595 84.4598 76.3656 88.1603 76.3651H88.1619Z" fill="#FF0D1B"/>
<path opacity="0.15" d="M64.3856 57.5568C61.6692 57.5568 59.5283 56.4753 57.9631 54.3124C56.3978 52.1495 55.6152 49.5293 55.6152 46.4518C55.6152 43.3535 56.3721 40.7387 57.8859 38.6072C59.3996 36.4756 61.5349 35.411 64.2917 35.4131C67.2151 35.4131 69.4178 36.5361 70.8997 38.782C72.3816 41.028 73.1228 43.6274 73.1234 46.5804C73.1234 49.512 72.3564 52.0747 70.8225 54.2685C69.2886 56.4623 67.143 57.5584 64.3856 57.5568ZM64.4652 55.1237C66.2523 55.1237 67.588 54.3425 68.4723 52.78C69.3565 51.2176 69.7987 49.2479 69.7987 46.871C69.7987 44.2253 69.3462 42.0589 68.4412 40.3719C67.5363 38.6849 66.1483 37.8411 64.2774 37.8406C60.7212 37.8406 58.9431 40.6737 58.9431 46.34C58.9431 52.1963 60.7833 55.1242 64.4637 55.1237H64.4652ZM65.3601 78.4236H61.4311L87.1531 35.8467H91.0081L65.3601 78.4236ZM88.1157 78.8604C85.3584 78.8604 83.2087 77.7691 81.6669 75.5865C80.125 73.4039 79.3509 70.7834 79.3445 67.7251C79.3445 64.6476 80.0961 62.0431 81.5992 59.9116C83.1023 57.7801 85.2429 56.7154 88.0209 56.7175C90.9237 56.7175 93.111 57.8405 94.5828 60.0865C96.0546 62.3324 96.7908 64.9316 96.7913 67.884C96.7913 70.7965 96.0294 73.3544 94.5056 75.5578C92.9818 77.7611 90.8513 78.862 88.1141 78.8604H88.1157ZM88.1619 76.3651C89.9405 76.3651 91.269 75.5972 92.1474 74.0613C93.0258 72.5255 93.465 70.5638 93.465 68.1763C93.465 65.621 93.0205 63.4781 92.1315 61.7474C91.2424 60.0167 89.8574 59.1501 87.9764 59.1474C84.3995 59.1474 82.6111 61.9806 82.6111 67.6468C82.61 73.4595 84.4598 76.3656 88.1603 76.3651H88.1619Z" fill="#221F1F"/>
<path d="M61.9169 57.5568C59.2004 57.5568 57.0596 56.4753 55.4943 54.3124C53.9291 52.1495 53.1465 49.5293 53.1465 46.4518C53.1465 43.3535 53.9034 40.7387 55.4171 38.6072C56.9308 36.4756 59.0661 35.411 61.8229 35.4131C64.7464 35.4131 66.9491 36.5361 68.431 38.782C69.9129 41.028 70.6541 43.6274 70.6546 46.5804C70.6546 49.512 69.8877 52.0747 68.3538 54.2685C66.8198 56.4623 64.6742 57.5584 61.9169 57.5568ZM61.9965 55.1237C63.7836 55.1237 65.1193 54.3425 66.0035 52.78C66.8878 51.2176 67.3299 49.2479 67.3299 46.871C67.3299 44.2253 66.8774 42.0589 65.9725 40.3719C65.0675 38.6849 63.6796 37.8411 61.8086 37.8406C58.2525 37.8406 56.4744 40.6737 56.4744 46.34C56.4744 52.1963 58.3146 55.1242 61.9949 55.1237H61.9965ZM62.8914 78.4236H58.9624L84.6844 35.8467H88.5394L62.8914 78.4236ZM85.6469 78.8604C82.8896 78.8604 80.74 77.7691 79.1981 75.5865C77.6562 73.4039 76.8821 70.7834 76.8757 67.7251C76.8757 64.6476 77.6273 62.0431 79.1304 59.9116C80.6336 57.7801 82.7742 56.7154 85.5522 56.7175C88.455 56.7175 90.6423 57.8405 92.1141 60.0865C93.5859 62.3324 94.3221 64.9316 94.3226 67.884C94.3226 70.7965 93.5607 73.3544 92.0368 75.5578C90.513 77.7611 88.3825 78.862 85.6453 78.8604H85.6469ZM85.6931 76.3651C87.4717 76.3651 88.8002 75.5972 89.6786 74.0613C90.5571 72.5255 90.9963 70.5638 90.9963 68.1763C90.9963 65.621 90.5518 63.4781 89.6627 61.7474C88.7737 60.0167 87.3881 59.1501 85.506 59.1474C81.9292 59.1474 80.1408 61.9806 80.1408 67.6468C80.1408 73.4595 81.991 76.3656 85.6915 76.3651H85.6931Z" fill="#FF0D1B"/>
<path d="M55.7422 72.5288L56.0169 72.5847L56.9523 73.9709L56.5391 74.0268L55.7422 72.5288Z" fill="#221F1F"/>
<path d="M49.0898 78.1552C49.1639 78.4009 49.2552 78.6411 49.3629 78.8739C49.6729 78.8088 49.9778 78.7216 50.2753 78.6128C50.2177 78.5228 50.1544 78.4367 50.0858 78.3548C50.0127 78.2733 49.9253 78.2059 49.8279 78.156C49.7331 78.1145 49.6161 78.1456 49.515 78.1512C49.3733 78.1566 49.2316 78.1579 49.0898 78.1552Z" fill="#FFD2BB"/>
<path d="M49.8288 78.5257C49.6743 78.477 49.5796 78.3205 49.5167 78.1696C49.4538 78.0187 49.4029 77.8542 49.2834 77.7432C49.2607 77.7467 49.2392 77.7559 49.2209 77.7698C49.2025 77.7838 49.1879 77.802 49.1783 77.823C49.1553 77.8629 49.1417 77.9085 49.1154 77.9468C49.0661 78.0187 48.9785 78.0538 48.9156 78.1153C48.8527 78.1768 48.8137 78.2702 48.746 78.3317C48.6521 78.3994 48.5425 78.4417 48.4276 78.4546C48.254 78.4941 48.0864 78.5564 47.9292 78.6399C47.871 78.6737 47.809 78.7005 47.7445 78.7197C47.6734 78.7333 47.6006 78.7357 47.5287 78.7269L47.0327 78.691C46.9886 78.6855 46.9439 78.6877 46.9006 78.6974C46.85 78.715 46.8069 78.7492 46.778 78.7944C46.7491 78.8395 46.7362 78.8931 46.7413 78.9465C46.7479 78.9998 46.7655 79.051 46.7929 79.0971C46.8203 79.1431 46.857 79.183 46.9006 79.214C46.9868 79.2758 47.0818 79.3243 47.1824 79.3578C47.6145 79.5207 48.0592 79.6481 48.512 79.7387V79.8369C48.8266 79.9931 49.1728 80.075 49.5239 80.0764C49.5511 80.0788 49.5786 80.0742 49.6035 80.0629C49.6358 80.0392 49.6584 80.0046 49.6672 79.9654C49.7862 79.6165 49.8556 79.2526 49.8734 78.8842C49.8825 78.7911 49.8755 78.6971 49.8527 78.6064C49.8256 78.5169 49.918 78.5545 49.832 78.5193" fill="#221F1F"/>
<path d="M59.3391 76.6506C57.8686 76.74 56.4164 76.3072 54.9435 76.2609C54.7607 76.2498 54.5773 76.2616 54.3974 76.296C54.2099 76.3465 54.0283 76.4171 53.856 76.5068C53.067 76.875 52.2502 77.18 51.4341 77.485L50.4978 77.8348C50.3099 77.9043 50.1165 77.9753 49.9166 77.9633C49.8275 77.9578 49.7184 77.9442 49.6675 78.0192C49.5154 78.2452 49.5878 78.5782 49.6882 78.8321C49.7208 78.912 49.7757 79.0038 49.8633 79.0134C49.9253 79.0091 49.9859 78.9937 50.0424 78.9679C50.2128 78.9224 50.3832 79.0373 50.5583 79.0557C50.7757 79.0789 50.9771 78.9551 51.1817 78.8792C51.5209 78.7539 51.8919 78.7579 52.2486 78.698C52.8473 78.5982 53.4014 78.3195 53.9205 78.0017C54.1179 77.8811 54.3186 77.7517 54.5447 77.7078C54.805 77.6567 55.0733 77.7238 55.3289 77.7965C55.9382 77.9694 56.538 78.1744 57.1258 78.4105C57.4318 78.5438 57.7455 78.6585 58.0653 78.7539C58.7622 78.9379 59.4994 78.8948 60.1703 78.6309C60.4091 78.5375 60.6607 78.373 60.6742 78.1183C60.6822 77.9729 60.5699 77.8452 60.4951 77.719C60.4465 77.6391 60.3988 77.5593 60.3462 77.4834C60.093 77.1129 59.7857 76.6234 59.3391 76.6506Z" fill="#221F1F"/>
<path d="M59.3391 76.6506C57.8686 76.74 56.4164 76.3072 54.9435 76.2609C54.7607 76.2498 54.5773 76.2616 54.3974 76.296C54.2099 76.3465 54.0283 76.4171 53.856 76.5068C53.067 76.875 52.2502 77.18 51.4341 77.485L50.4978 77.8348C50.3099 77.9043 50.1165 77.9753 49.9166 77.9633C49.8275 77.9578 49.7184 77.9442 49.6675 78.0192C49.5154 78.2452 49.5878 78.5782 49.6882 78.8321C49.7208 78.912 49.7757 79.0038 49.8633 79.0134C49.9253 79.0091 49.9859 78.9937 50.0424 78.9679C50.2128 78.9224 50.3832 79.0373 50.5583 79.0557C50.7757 79.0789 50.9771 78.9551 51.1817 78.8792C51.5209 78.7539 51.8919 78.7579 52.2486 78.698C52.8473 78.5982 53.4014 78.3195 53.9205 78.0017C54.1179 77.8811 54.3186 77.7517 54.5447 77.7078C54.805 77.6567 55.0733 77.7238 55.3289 77.7965C55.9382 77.9694 56.538 78.1744 57.1258 78.4105C57.4318 78.5438 57.7455 78.6585 58.0653 78.7539C58.7622 78.9379 59.4994 78.8948 60.1703 78.6309C60.4091 78.5375 60.6607 78.373 60.6742 78.1183C60.6822 77.9729 60.5699 77.8452 60.4951 77.719C60.4465 77.6391 60.3988 77.5593 60.3462 77.4834C60.093 77.1129 59.7857 76.6234 59.3391 76.6506Z" fill="#014898"/>
<path d="M51.9121 78.2271C52.1425 78.3054 52.3744 78.3778 52.6079 78.4443C52.7393 78.2279 52.9845 78.0778 53.0403 77.8311C53.0434 77.8204 53.0434 77.809 53.0403 77.7983C53.0342 77.7878 53.025 77.7795 53.014 77.7744C52.8461 77.6815 52.6599 77.627 52.4686 77.6147C52.3173 77.6051 52.2489 77.7632 52.1804 77.8742C52.1565 77.9189 51.9734 78.2479 51.9121 78.2271Z" fill="#FFD2BB"/>
<path d="M52.2354 78.0691C52.1666 78.0576 52.101 78.0319 52.0428 77.9935C51.9845 77.9552 51.9349 77.905 51.897 77.8463C51.8644 77.7896 51.8302 77.713 51.7649 77.7169C51.6996 77.7209 51.6773 77.7928 51.6638 77.8527C51.6197 78.0764 51.556 78.2958 51.4735 78.5083C51.3903 78.7214 51.2494 78.907 51.0667 79.0441C50.9815 79.1032 50.8867 79.1479 50.8031 79.2102C50.7335 79.2725 50.6589 79.3291 50.5802 79.3795C50.5248 79.4049 50.4676 79.4262 50.409 79.4433C50.3232 79.4734 50.2412 79.5133 50.1646 79.5623C50.0975 79.6018 50.0405 79.6565 49.9982 79.722C49.9778 79.7553 49.9659 79.7931 49.9634 79.832C49.9609 79.871 49.9679 79.91 49.9839 79.9456C50.001 79.9745 50.0241 79.9995 50.0515 80.0189C50.079 80.0383 50.1102 80.0517 50.1431 80.0582C50.2102 80.0694 50.2786 80.071 50.3461 80.063C50.6144 80.043 50.8819 80.0191 51.1494 79.9951C51.2627 79.9881 51.3753 79.9726 51.4862 79.9488C51.5451 79.9344 51.6025 79.9153 51.6606 79.9001C51.7609 79.8744 51.8636 79.8595 51.9671 79.8554C51.9971 79.8531 52.0273 79.8561 52.0563 79.8642C52.1184 79.8841 52.1622 79.944 52.2258 79.9584C52.2669 79.9627 52.3083 79.9572 52.3469 79.9424C52.5427 79.9009 52.7423 79.88 52.9424 79.8801C53.03 79.8753 53.1335 79.8586 53.1733 79.7795C53.2234 79.6813 53.1406 79.5711 53.1072 79.4657C53.0907 79.3982 53.0813 79.3291 53.0793 79.2597C53.0642 79.0881 53.0141 78.9215 52.932 78.7702C52.8636 78.644 52.7728 78.5051 52.8182 78.3709C52.8426 78.3291 52.858 78.2826 52.8636 78.2344C52.8524 78.018 52.3564 78.0978 52.2354 78.0691Z" fill="#221F1F"/>
<path d="M57.1336 74.2856C56.8731 74.1703 56.6644 73.9624 56.5476 73.7019C56.5238 73.646 56.5031 73.5877 56.48 73.531C56.4025 73.3436 56.2825 73.1769 56.1297 73.044C56.1133 73.0259 56.0932 73.0116 56.0708 73.0021C56.0484 72.9926 56.0242 72.9881 55.9999 72.9889C55.9764 72.9959 55.9551 73.009 55.9383 73.027C55.9215 73.045 55.9098 73.0671 55.9043 73.0911C55.8907 73.1431 55.8872 73.1974 55.894 73.2508C55.9076 73.3747 55.9289 73.4976 55.9577 73.6189L56.0293 73.9447C56.0384 73.9947 56.0534 74.0435 56.0739 74.09C56.1046 74.1447 56.1451 74.1931 56.1934 74.2329C56.2586 74.2936 56.3247 74.3519 56.3916 74.4086C56.4285 74.4421 56.4688 74.4715 56.5118 74.4965C56.5825 74.53 56.658 74.5521 56.7355 74.5619C57.0277 74.6162 57.3247 74.6945 57.5707 74.8813C57.5707 74.8813 57.5707 74.6633 57.5651 74.6418C57.5621 74.5786 57.5405 74.5178 57.503 74.4669C57.4107 74.3671 57.2514 74.3376 57.1336 74.2856Z" fill="#FFD2BB"/>
<path opacity="0.1" d="M57.1336 74.2856C56.8731 74.1703 56.6644 73.9624 56.5476 73.7019C56.5238 73.646 56.5031 73.5877 56.48 73.531C56.4025 73.3436 56.2825 73.1769 56.1297 73.044C56.1133 73.0259 56.0932 73.0116 56.0708 73.0021C56.0484 72.9926 56.0242 72.9881 55.9999 72.9889C55.9764 72.9959 55.9551 73.009 55.9383 73.027C55.9215 73.045 55.9098 73.0671 55.9043 73.0911C55.8907 73.1431 55.8872 73.1974 55.894 73.2508C55.9076 73.3747 55.9289 73.4976 55.9577 73.6189L56.0293 73.9447C56.0384 73.9947 56.0534 74.0435 56.0739 74.09C56.1046 74.1447 56.1451 74.1931 56.1934 74.2329C56.2586 74.2936 56.3247 74.3519 56.3916 74.4086C56.4285 74.4421 56.4688 74.4715 56.5118 74.4965C56.5825 74.53 56.658 74.5521 56.7355 74.5619C57.0277 74.6162 57.3247 74.6945 57.5707 74.8813C57.5707 74.8813 57.5707 74.6633 57.5651 74.6418C57.5621 74.5786 57.5405 74.5178 57.503 74.4669C57.4107 74.3671 57.2514 74.3376 57.1336 74.2856Z" fill="#221F1F"/>
<path d="M60.127 71.7941C60.3244 71.7941 60.4845 71.6325 60.4845 71.4332C60.4845 71.2339 60.3244 71.0723 60.127 71.0723C59.9296 71.0723 59.7695 71.2339 59.7695 71.4332C59.7695 71.6325 59.9296 71.7941 60.127 71.7941Z" fill="#221F1F"/>
<path d="M59.9062 71.2151C59.8102 71.1931 59.7095 71.2076 59.6235 71.2558C59.5822 71.2925 59.5493 71.3377 59.5272 71.3883C59.4468 71.5262 59.3842 71.6738 59.3409 71.8275C59.309 71.9593 59.3035 72.0966 59.2613 72.2268C59.188 72.4663 59.0001 72.67 58.9786 72.9199C58.9691 73.0317 58.9874 73.1634 58.9062 73.2393C58.886 73.2563 58.8644 73.2715 58.8417 73.2848C58.7851 73.3229 58.7371 73.3724 58.7008 73.4302C58.6765 73.482 58.6427 73.5289 58.6013 73.5683C58.528 73.6226 58.4078 73.617 58.372 73.7009C58.3361 73.7847 58.4285 73.8821 58.407 73.9731C58.3895 74.0474 58.3067 74.0817 58.2478 74.1328C58.1807 74.2041 58.1337 74.2921 58.1116 74.3876C57.992 74.4102 57.869 74.4065 57.7509 74.3769C57.6329 74.3472 57.5226 74.2923 57.4277 74.2159C57.5273 74.4626 57.5296 74.7349 57.5336 75.0008C57.5451 75.0859 57.5225 75.172 57.4707 75.2404C57.7557 75.2468 58.0328 75.3202 58.3107 75.3865C58.4295 75.4265 58.5581 75.4265 58.6769 75.3865C58.7404 75.3522 58.7973 75.3068 58.8449 75.2524C58.9961 75.0983 59.1546 74.933 59.1912 74.7182C59.2009 74.5973 59.203 74.476 59.1976 74.3548C59.2122 74.2053 59.2429 74.0578 59.2891 73.9149C59.3691 73.6181 59.4224 73.3148 59.4484 73.0085C59.4651 72.8193 59.6275 72.6676 59.7135 72.4983C59.8727 72.1789 60.0399 71.8475 60.0526 71.4898C60.0638 71.3732 60.024 71.2302 59.9062 71.2151Z" fill="#221F1F"/>
<path d="M59.9062 71.2151C59.8102 71.1931 59.7095 71.2076 59.6235 71.2558C59.5822 71.2925 59.5493 71.3377 59.5272 71.3883C59.4468 71.5262 59.3842 71.6738 59.3409 71.8275C59.309 71.9593 59.3035 72.0966 59.2613 72.2268C59.188 72.4663 59.0001 72.67 58.9786 72.9199C58.9691 73.0317 58.9874 73.1634 58.9062 73.2393C58.886 73.2563 58.8644 73.2715 58.8417 73.2848C58.7851 73.3229 58.7371 73.3724 58.7008 73.4302C58.6765 73.482 58.6427 73.5289 58.6013 73.5683C58.528 73.6226 58.4078 73.617 58.372 73.7009C58.3361 73.7847 58.4285 73.8821 58.407 73.9731C58.3895 74.0474 58.3067 74.0817 58.2478 74.1328C58.1807 74.2041 58.1337 74.2921 58.1116 74.3876C57.992 74.4102 57.869 74.4065 57.7509 74.3769C57.6329 74.3472 57.5226 74.2923 57.4277 74.2159C57.5273 74.4626 57.5296 74.7349 57.5336 75.0008C57.5451 75.0859 57.5225 75.172 57.4707 75.2404C57.7557 75.2468 58.0328 75.3202 58.3107 75.3865C58.4295 75.4265 58.5581 75.4265 58.6769 75.3865C58.7404 75.3522 58.7973 75.3068 58.8449 75.2524C58.9961 75.0983 59.1546 74.933 59.1912 74.7182C59.2009 74.5973 59.203 74.476 59.1976 74.3548C59.2122 74.2053 59.2429 74.0578 59.2891 73.9149C59.3691 73.6181 59.4224 73.3148 59.4484 73.0085C59.4651 72.8193 59.6275 72.6676 59.7135 72.4983C59.8727 72.1789 60.0399 71.8475 60.0526 71.4898C60.0638 71.3732 60.024 71.2302 59.9062 71.2151Z" fill="#014898"/>
<path d="M59.5713 76.9615C59.2648 76.8154 59.0411 76.5431 58.7935 76.3099C58.3206 75.8643 57.7426 75.5497 57.2458 75.1321C56.917 74.8558 56.6224 74.534 56.2601 74.3024C55.9415 74.0986 55.5802 73.9715 55.2044 73.9311C55.1615 73.9236 55.1174 73.9258 55.0755 73.9375C55.028 73.9588 54.9867 73.9918 54.9552 74.0333C54.7947 74.2148 54.6521 74.4113 54.5293 74.6203C53.8996 75.6919 53.0055 76.5934 52.2643 77.5907C52.2405 77.6142 52.2264 77.6458 52.2248 77.6793C52.2231 77.7127 52.2341 77.7455 52.2555 77.7712L52.406 78.0675C52.4904 78.2327 52.6257 78.426 52.8041 78.3933C52.8859 78.3696 52.9591 78.3227 53.015 78.2583L53.6918 77.6091L54.4011 76.9288C54.8167 76.5295 55.2395 76.1223 55.511 75.6128C55.7227 75.9809 56.0985 76.2221 56.3565 76.5599C56.4544 76.6876 56.534 76.829 56.6216 76.9647C56.7625 77.1827 56.9217 77.3871 57.081 77.5907L57.8954 78.6328C57.9982 78.7812 58.1256 78.9109 58.272 79.0161C58.4647 79.1383 58.6995 79.171 58.9264 79.191C59.2321 79.2189 59.5391 79.2301 59.846 79.2245C60.0801 79.2205 60.3237 79.2053 60.5307 79.1007C60.7377 78.9961 60.9136 78.7813 60.9025 78.5474C60.8898 78.4248 60.8498 78.3066 60.7855 78.2016C60.498 77.6666 60.1175 77.2194 59.5713 76.9615Z" fill="#014898"/>
<path d="M60.3469 71.9604C60.4986 71.9604 60.6216 71.8364 60.6216 71.6833C60.6216 71.5303 60.4986 71.4062 60.3469 71.4062C60.1952 71.4062 60.0723 71.5303 60.0723 71.6833C60.0723 71.8364 60.1952 71.9604 60.3469 71.9604Z" fill="#DCDCDC"/>
<path d="M60.2867 71.475C60.3488 71.5989 60.3597 71.7423 60.317 71.8742C60.2745 72.004 60.2151 72.1275 60.1402 72.2415C60.0758 72.3593 59.9987 72.4697 59.9102 72.5705C60.3345 72.5913 60.7461 72.4244 61.1203 72.2216C61.422 72.0619 61.723 71.8583 61.8838 71.554C61.8359 71.5655 61.7862 71.5668 61.7378 71.5578C61.6894 71.5489 61.6434 71.5299 61.6028 71.5021C61.5218 71.4455 61.4492 71.3778 61.387 71.3009L61.1744 71.0613C61.1242 71.0088 61.0802 70.9506 61.0431 70.8881C60.9965 70.803 60.9768 70.7059 60.9865 70.6094C60.9019 70.6982 60.8074 70.777 60.7047 70.8441C60.5526 70.944 60.3863 71.0158 60.2326 71.114C60.1785 71.1492 60.0582 71.2059 60.0893 71.2737C60.1203 71.3416 60.2437 71.3983 60.2867 71.475Z" fill="#FFD2BB"/>
<path opacity="0.1" d="M60.2867 71.475C60.3488 71.5989 60.3597 71.7423 60.317 71.8742C60.2745 72.004 60.2151 72.1275 60.1402 72.2415C60.0758 72.3593 59.9987 72.4697 59.9102 72.5705C60.3345 72.5913 60.7461 72.4244 61.1203 72.2216C61.422 72.0619 61.723 71.8583 61.8838 71.554C61.8359 71.5655 61.7862 71.5668 61.7378 71.5578C61.6894 71.5489 61.6434 71.5299 61.6028 71.5021C61.5218 71.4455 61.4492 71.3778 61.387 71.3009L61.1744 71.0613C61.1242 71.0088 61.0802 70.9506 61.0431 70.8881C60.9965 70.803 60.9768 70.7059 60.9865 70.6094C60.9019 70.6982 60.8074 70.777 60.7047 70.8441C60.5526 70.944 60.3863 71.0158 60.2326 71.114C60.1785 71.1492 60.0582 71.2059 60.0893 71.2737C60.1203 71.3416 60.2437 71.3983 60.2867 71.475Z" fill="#221F1F"/>
<path d="M60.2912 71.5163C60.2483 71.5771 60.2252 71.6498 60.2252 71.7243C60.2252 71.7988 60.2483 71.8715 60.2912 71.9323C60.3031 71.9475 60.3485 72.0425 60.3708 72.0433C60.3896 72.0417 60.407 72.0328 60.4194 72.0186C60.5156 71.9177 60.6054 71.8111 60.6885 71.6991C60.7724 71.5858 60.8937 71.506 61.0308 71.474C61.1972 71.4476 61.3572 71.5363 61.5029 71.6209C61.5656 71.6521 61.6201 71.6975 61.6622 71.7534C61.6929 71.809 61.7111 71.8706 61.7155 71.9339C61.7573 72.3146 61.7733 72.6977 61.7633 73.0806C61.771 73.3566 61.7529 73.6328 61.7091 73.9055C61.6821 74.046 61.6415 74.1833 61.6224 74.3255C61.6084 74.4506 61.6028 74.5765 61.6056 74.7024V75.2294C61.6021 75.326 61.6091 75.4226 61.6263 75.5177C61.6592 75.6311 61.6977 75.7427 61.7418 75.8522C61.7805 75.9826 61.8072 76.1162 61.8214 76.2515L61.8931 76.7969C61.9161 76.9694 61.9329 77.157 61.8286 77.2952C61.7824 77.3582 61.7203 77.4078 61.6693 77.47C61.4902 77.6984 61.5499 78.0298 61.4703 78.3133C61.4114 78.5213 61.2909 78.7065 61.1248 78.8443C60.9982 78.9521 60.8342 79.0375 60.6702 79.004C60.4496 78.9625 60.3167 78.7317 60.2562 78.5137C60.1957 78.2957 60.1766 78.0577 60.0436 77.8749C59.9369 77.724 59.7721 77.6297 59.6232 77.5219C59.4744 77.4141 59.3279 77.276 59.2952 77.0939C59.2809 77.0141 59.2896 76.9342 59.2817 76.8544C59.2699 76.7526 59.2309 76.6559 59.169 76.5744C59.1071 76.4929 59.0245 76.4297 58.9298 76.3912C58.8167 76.3473 58.6766 76.3313 58.6113 76.2315C58.7734 76.1294 58.8915 75.9702 58.9425 75.7852C58.9919 75.6028 59.0187 75.4151 59.0221 75.2262L59.0604 74.5922C59.0771 74.3087 59.085 74.0276 59.2092 73.7729C59.265 73.6595 59.3342 73.5525 59.3916 73.4399C59.4683 73.2819 59.5338 73.1186 59.5874 72.9512C59.6774 72.6917 59.7681 72.4314 59.8485 72.1687C59.8807 72.0414 59.9289 71.9188 59.9919 71.8038C60.0659 71.684 60.1638 71.5402 60.2912 71.5163Z" fill="#DCDCDC"/>
<path d="M58.8888 75.636L59.056 75.6416L59.0919 75.3885C59.0966 75.3378 59.1084 75.2881 59.1269 75.2407C59.1546 75.1908 59.1869 75.1435 59.2232 75.0994C59.388 74.8662 59.3761 74.5564 59.4167 74.2729C59.4708 73.8952 59.6285 73.5407 59.7845 73.1925L60.1093 72.4667C60.1383 72.407 60.1615 72.3447 60.1786 72.2806C60.1928 72.2099 60.1995 72.1379 60.1985 72.0658C60.1985 71.954 60.2351 71.546 60.2375 71.4334C60.2375 71.3919 60.1468 71.415 60.1276 71.3783C60.087 71.2984 60.0313 71.5156 59.9549 71.5636C59.8828 71.6188 59.8304 71.6958 59.8052 71.7832C59.7351 71.966 59.6922 72.1585 59.6269 72.3421C59.5696 72.5302 59.4652 72.7004 59.3235 72.8364C59.2575 72.8955 59.1802 72.9418 59.1173 73.0041C58.9151 73.2045 58.896 73.5207 58.8888 73.8026C58.8841 73.9775 58.8514 75.636 58.8888 75.636Z" fill="#014898"/>
<path d="M61.2975 71.2138C61.1383 71.2777 61.0459 71.4534 61.0005 71.6243C60.9552 71.7952 60.936 71.9756 60.8485 72.1273C60.6447 72.4835 60.1248 72.5873 59.9807 72.9722C59.944 73.1021 59.9244 73.2364 59.9225 73.3714C59.8971 73.6469 59.8063 73.9136 59.7792 74.1891C59.7652 74.4034 59.7702 74.6185 59.7944 74.8319L59.9767 77.0063C60.012 77.3265 59.9935 77.6504 59.9218 77.9645C60.1087 77.9915 60.2995 77.96 60.4679 77.8743C60.6391 77.7944 60.7951 77.689 60.9591 77.598C61.2418 77.4383 61.5539 77.3305 61.8007 77.1189C61.8454 77.0839 61.8839 77.0415 61.9145 76.9935C61.9541 76.9021 61.9809 76.8056 61.9941 76.7068C62.0151 76.6299 62.0417 76.5546 62.0737 76.4817C62.1652 76.2625 62.2449 76.0386 62.3126 75.8109C62.359 75.6599 62.3954 75.506 62.4217 75.3502C62.4416 75.2264 62.4519 75.101 62.4631 74.9764C62.4758 74.7805 62.5146 74.5871 62.5785 74.4015C62.7364 73.9586 62.8258 73.4941 62.8436 73.0241C62.8491 72.9562 62.8446 72.8878 62.8301 72.8212C62.8026 72.7405 62.7657 72.6633 62.7202 72.5913C62.6446 72.4483 62.5992 72.291 62.5276 72.1465C62.3683 71.8191 62.0825 71.5708 61.7839 71.3624C61.6311 71.2609 61.4631 71.1507 61.2975 71.2138Z" fill="#014898"/>
<path d="M57.4954 74.7613C57.3661 74.6935 57.249 74.6044 57.1491 74.4978C57.1037 74.4443 57.0695 74.3844 57.0201 74.3317C56.9032 74.2067 56.7514 74.1199 56.5846 74.0826C56.4189 74.046 56.2494 74.0296 56.0799 74.0339C55.9666 74.026 55.8528 74.0399 55.7447 74.0746C55.6904 74.0924 55.6415 74.1237 55.6025 74.1656C55.5635 74.2075 55.5357 74.2586 55.5218 74.3142C55.4971 74.4499 55.5854 74.5817 55.6913 74.6679C55.7898 74.7486 55.9056 74.8052 56.0297 74.8332C56.1309 74.8508 56.2329 74.8628 56.3354 74.8691C56.9373 74.9322 57.4747 75.2604 58.0018 75.5598C58.4651 75.8223 58.9375 76.068 59.4189 76.2969C59.438 76.1524 59.446 76.0066 59.4428 75.8609C59.4428 75.7523 59.4348 75.5862 59.3321 75.5223C59.2127 75.4472 59.0137 75.4305 58.8815 75.3858C58.5712 75.2842 58.2682 75.1615 57.9747 75.0184C57.8083 74.9378 57.6491 74.8524 57.4954 74.7613Z" fill="#FFD2BB"/>
<path d="M60.1271 71.351C60.7194 71.351 61.1995 70.8666 61.1995 70.269C61.1995 69.6714 60.7194 69.187 60.1271 69.187C59.5348 69.187 59.0547 69.6714 59.0547 70.269C59.0547 70.8666 59.5348 71.351 60.1271 71.351Z" fill="#FFD2BB"/>
<path d="M61.6037 72.4403C61.5184 72.5606 61.4486 72.6912 61.3959 72.8291C61.263 73.103 61.0552 73.3378 60.9517 73.6277C60.8418 73.9287 60.8458 74.2872 60.6332 74.5244C60.5905 74.5604 60.5583 74.6073 60.5401 74.6602C60.5388 74.6931 60.5351 74.7259 60.5289 74.7584C60.4987 74.8446 60.3578 74.8486 60.3315 74.9364C60.3243 74.962 60.3315 74.9899 60.3188 75.0163C60.2973 75.073 60.2232 75.081 60.1731 75.1153C60.0688 75.1864 60.0934 75.3509 60.0138 75.4531C59.9815 75.491 59.9397 75.5197 59.8927 75.5363C59.8457 75.5528 59.7952 75.5566 59.7463 75.5473C59.6487 75.5267 59.5548 75.4914 59.4677 75.4427C59.437 75.4254 59.4031 75.4148 59.3682 75.4116C59.3266 75.4124 59.2863 75.4261 59.2527 75.4507C59.0545 75.5768 58.9613 75.8276 58.9629 76.0639C58.9769 76.3003 59.0327 76.5323 59.1277 76.7491C59.1389 76.7865 59.1576 76.8213 59.1826 76.8513C59.2479 76.9208 59.3626 76.9096 59.4502 76.8704C59.5322 76.8217 59.6196 76.7826 59.7105 76.7539C59.8761 76.7235 60.0385 76.8385 60.2065 76.8289C60.3294 76.8102 60.4451 76.7589 60.5417 76.6804C60.7122 76.5765 60.8649 76.4458 60.9939 76.2931C61.0671 76.1965 61.1213 76.0863 61.1858 75.9833C61.2681 75.8567 61.3585 75.7356 61.4565 75.6208L62.0751 74.8614C62.1371 74.7895 62.1928 74.7122 62.2415 74.6306C62.2972 74.5202 62.3408 74.404 62.3712 74.284C62.4375 74.0839 62.4805 73.8768 62.4994 73.6668C62.5026 73.4929 62.4874 73.3192 62.454 73.1486C62.4333 72.9788 62.3885 72.8129 62.3211 72.6559C62.1833 72.3764 61.8561 72.1448 61.6037 72.4403Z" fill="#014898"/>
<path d="M63.7572 71.0309C63.758 70.839 63.7134 70.6497 63.627 70.4785C63.5407 70.3074 63.415 70.1592 63.2604 70.0463C63.2557 69.7057 63.1306 69.3779 62.9073 69.1212C62.6841 68.8646 62.3772 68.6958 62.0415 68.6449C61.9766 68.3223 61.8002 68.033 61.5435 67.828C61.2868 67.6231 60.9662 67.5156 60.6382 67.5244C60.3102 67.5333 59.9958 67.658 59.7505 67.8766C59.5052 68.0951 59.3446 68.3935 59.2971 68.7191C58.8513 68.6185 58.4437 68.7495 58.3696 69.025C58.29 69.3132 58.6085 69.6502 59.0798 69.778C59.2275 69.8198 59.3814 69.8353 59.5344 69.8235C59.644 69.9849 59.786 70.1216 59.9514 70.2247C60.1167 70.3278 60.3017 70.3952 60.4945 70.4224C60.5512 70.6829 60.6792 70.9223 60.8641 71.1137C61.0491 71.3052 61.2837 71.441 61.5415 71.506C61.6128 71.6788 61.7235 71.8325 61.8647 71.9547C61.8647 71.9883 61.8592 72.0226 61.8592 72.0577C61.854 72.1805 61.8737 72.303 61.917 72.418C61.9603 72.5329 62.0263 72.6378 62.1111 72.7265C62.1959 72.8152 62.2977 72.8857 62.4104 72.9339C62.523 72.9821 62.6443 73.007 62.7668 73.007C62.8893 73.007 63.0105 72.9821 63.1232 72.9339C63.2358 72.8857 63.3376 72.8152 63.4224 72.7265C63.5072 72.6378 63.5732 72.5329 63.6165 72.418C63.6598 72.303 63.6795 72.1805 63.6744 72.0577C63.6744 71.92 63.6448 71.7838 63.5876 71.6585C63.6995 71.4684 63.7581 71.2516 63.7572 71.0309Z" fill="#221F1F"/>
<path opacity="0.1" d="M58.6734 69.0798C58.7474 68.8043 59.1511 68.6733 59.6009 68.774C59.6532 68.4432 59.8204 68.1417 60.0728 67.9225C60.3253 67.7034 60.6468 67.5807 60.9806 67.5762C61.0117 67.5762 61.0427 67.5762 61.073 67.5762C60.944 67.5367 60.8098 67.5168 60.6749 67.5171C60.3411 67.5216 60.0195 67.6443 59.7671 67.8634C59.5147 68.0826 59.3475 68.3841 59.2952 68.7149C58.8493 68.6143 58.4417 68.7452 58.3677 69.0207C58.2881 69.309 58.6065 69.6459 59.0778 69.7737C59.1655 69.7981 59.2554 69.8136 59.3461 69.82C58.8987 69.6891 58.5978 69.3617 58.6734 69.0798Z" fill="#221F1F"/>
<path opacity="0.1" d="M62.1626 72.1133C62.1626 72.0782 62.1626 72.0439 62.1682 72.0095C62.0269 71.8877 61.9162 71.7342 61.8449 71.5616C61.5873 71.496 61.353 71.3598 61.1681 71.1683C60.9832 70.9768 60.8551 70.7375 60.798 70.4772C60.6051 70.4501 60.4201 70.3828 60.2547 70.2797C60.0893 70.1765 59.9473 70.0398 59.8378 69.8783C59.7486 69.8854 59.659 69.8829 59.5703 69.8711C59.6804 70.0199 59.8188 70.1452 59.9777 70.2398C60.1365 70.3344 60.3125 70.3964 60.4954 70.4221C60.5521 70.6825 60.6801 70.922 60.865 71.1134C61.05 71.3049 61.2846 71.4407 61.5424 71.5057C61.6137 71.6785 61.7244 71.8322 61.8656 71.9544C61.8656 71.988 61.86 72.0223 61.86 72.0574C61.856 72.3022 61.9486 72.5387 62.1178 72.7152C62.2869 72.8918 62.5188 72.994 62.7629 72.9997C62.5848 72.9308 62.4319 72.809 62.3246 72.6506C62.2173 72.4922 62.1608 72.3048 62.1626 72.1133Z" fill="#221F1F"/>
<path d="M60.6174 70.6654C60.6902 70.6099 60.6896 70.4861 60.6159 70.3888C60.5422 70.2915 60.4234 70.2576 60.3506 70.3131C60.2778 70.3686 60.2785 70.4924 60.3521 70.5897C60.4258 70.687 60.5446 70.7209 60.6174 70.6654Z" fill="#FFD2BB"/>
<path d="M34.9831 76.0495L36.0435 75.4243C35.9002 75.1786 35.717 74.9586 35.5013 74.7735L33.5014 75.3971L35.0682 74.4732C34.6803 74.2601 34.2436 74.152 33.8013 74.1595C33.3591 74.1671 32.9263 74.29 32.5458 74.5162C32.1652 74.7423 31.8499 75.064 31.631 75.4495C31.412 75.835 31.2968 76.271 31.2969 76.7147C31.2969 78.1256 32.4378 78.1744 33.8446 78.1744C35.2514 78.1744 36.3922 78.1256 36.3922 76.7147C36.3931 76.357 36.3185 76.0033 36.1733 75.6766L34.9831 76.0495Z" fill="#014898"/>
<path opacity="0.1" d="M35.2529 77.4213C35.14 77.3078 35.0138 77.2083 34.8772 77.1251C34.6853 76.9965 34.4855 76.8655 34.2586 76.8224C34.0595 76.7841 33.8541 76.8168 33.6511 76.8049C33.2986 76.7833 32.9667 76.6307 32.7204 76.3769C32.5755 76.2267 32.4616 76.0423 32.2873 75.9273C32.0924 75.8111 31.8625 75.7689 31.6392 75.8083C31.5745 75.8173 31.5104 75.8304 31.4473 75.8474C31.3476 76.1256 31.2966 76.419 31.2969 76.7146C31.2969 78.1256 32.4378 78.1743 33.8446 78.1743C34.5277 78.1743 35.1471 78.1631 35.6048 77.9899L35.5252 77.8469C35.4529 77.694 35.3614 77.551 35.2529 77.4213Z" fill="#221F1F"/>
</g>
<defs>
<clipPath id="clip0_492_172875">
<rect width="91" height="53" fill="white" transform="translate(10 29)"/>
</clipPath>
</defs>
</svg>
