<svg width="110" height="110" viewBox="0 0 110 110" fill="none" xmlns="http://www.w3.org/2000/svg">
<g clip-path="url(#clip0_492_173078)">
<path d="M83.8729 60.9219C83.9324 60.9042 83.9932 60.8913 84.0548 60.8832L86.5124 55.9115L85.7621 54.7916L87.3117 53.4434L89.2596 55.8165L85.2923 61.5649C85.3899 61.7823 85.4187 62.0242 85.3749 62.2583C85.3311 62.4924 85.2168 62.7077 85.0471 62.8755C84.8774 63.0433 84.6604 63.1557 84.425 63.1978C84.1895 63.2398 83.9468 63.2095 83.7291 63.1109C83.5114 63.0123 83.329 62.85 83.2062 62.6456C83.0834 62.4413 83.026 62.2046 83.0416 61.9669C83.0572 61.7293 83.1451 61.5021 83.2936 61.3154C83.4421 61.1287 83.6442 60.9915 83.8729 60.9219Z" fill="#FFD2BB"/>
<path d="M88.0675 54.1304C88.034 54.1655 87.9956 54.1956 87.9534 54.2198L85.4389 55.6711C85.3785 55.706 85.3115 55.728 85.242 55.7358C85.1726 55.7436 85.1023 55.7369 85.0356 55.7162C84.9689 55.6956 84.9072 55.6613 84.8545 55.6157C84.8018 55.5701 84.7591 55.5141 84.7292 55.4512L83.5062 52.8789C83.4542 52.7706 83.443 52.6474 83.4747 52.5316C83.5064 52.4158 83.5788 52.3152 83.6788 52.2481L85.2375 51.1925C85.3348 51.1266 85.4522 51.0966 85.5693 51.1077C85.6865 51.1188 85.7961 51.1703 85.8792 51.2532L88.0579 53.4299C88.1505 53.5226 88.2034 53.6475 88.2052 53.7782C88.207 53.9089 88.1576 54.0352 88.0675 54.1304Z" fill="#FF0D1B"/>
<path d="M91.5988 82.6187L90.2712 82.9784L88.2461 78.0513L90.2056 77.5205L91.5988 82.6187Z" fill="#FFD2BB"/>
<path d="M89.2195 82.8582L91.7799 82.1647L92.2185 83.7697L88.046 84.8999C87.9884 84.6891 87.9731 84.4691 88.0009 84.2525C88.0287 84.0358 88.0991 83.8267 88.2081 83.6371C88.317 83.4475 88.4624 83.2812 88.636 83.1475C88.8095 83.0139 89.0078 82.9156 89.2195 82.8582Z" fill="#221F1F"/>
<path d="M80.2491 83.6274L78.8734 83.6273L78.2188 78.3438L80.2494 78.3439L80.2491 83.6274Z" fill="#FFD2BB"/>
<path d="M77.8894 83.2363H80.5429V84.8997H76.2188C76.2187 84.6812 76.262 84.4649 76.3459 84.2631C76.4299 84.0613 76.5529 83.878 76.7081 83.7235C76.8632 83.5691 77.0474 83.4465 77.2501 83.3629C77.4528 83.2793 77.67 83.2363 77.8894 83.2363Z" fill="#221F1F"/>
<path d="M81.6978 49.4387C83.2201 49.4387 84.4542 48.2101 84.4542 46.6944C84.4542 45.1788 83.2201 43.9502 81.6978 43.9502C80.1755 43.9502 78.9414 45.1788 78.9414 46.6944C78.9414 48.2101 80.1755 49.4387 81.6978 49.4387Z" fill="#FFD2BB"/>
<path d="M80.164 79.8605H78.2838C78.1552 79.8603 78.0316 79.8114 77.9379 79.7238C77.8442 79.6362 77.7875 79.5164 77.7792 79.3887C77.219 70.5215 77.5467 64.1609 78.8106 59.3715C78.8161 59.3506 78.8229 59.33 78.831 59.3099L78.9317 59.0593C78.9689 58.9658 79.0336 58.8856 79.1172 58.8292C79.2009 58.7728 79.2996 58.7428 79.4007 58.7432H83.2671C83.3399 58.7431 83.4119 58.7588 83.4781 58.7891C83.5443 58.8194 83.6031 58.8636 83.6505 58.9187L84.1757 59.5288C84.1859 59.5407 84.1955 59.5528 84.2047 59.5656C86.5728 62.8534 88.695 69.2811 91.1529 77.9207C91.1892 78.0462 91.1748 78.1809 91.1128 78.2961C91.0508 78.4112 90.946 78.4977 90.8209 78.5371L88.8003 79.1808C88.6843 79.2172 88.559 79.2109 88.4473 79.1631C88.3355 79.1153 88.2448 79.0291 88.1915 78.9203L82.948 68.0926C82.9113 68.017 82.8511 67.9551 82.7764 67.9161C82.7016 67.8771 82.6162 67.8632 82.5329 67.8763C82.4495 67.8894 82.3726 67.9289 82.3135 67.9889C82.2545 68.0489 82.2164 68.1263 82.205 68.2095L80.6643 79.4258C80.6474 79.5461 80.5875 79.6562 80.4956 79.7361C80.4037 79.8159 80.2859 79.8601 80.164 79.8605Z" fill="#E27C0F"/>
<path d="M83.9649 59.5736C83.9596 59.5736 83.9543 59.5734 83.949 59.5733L79.2525 59.4257C79.1318 59.4223 79.0163 59.3759 78.9271 59.2948C78.8379 59.2137 78.781 59.1033 78.7668 58.9839C78.1714 54.186 79.8042 52.9006 80.5338 52.5708C80.5948 52.5434 80.6476 52.5008 80.6872 52.4471C80.7267 52.3934 80.7517 52.3304 80.7596 52.2643L80.8228 51.7614C80.8335 51.6726 80.868 51.5883 80.9226 51.5172C82.0665 50.0418 83.6286 49.5693 84.458 49.419C84.5252 49.407 84.5943 49.4087 84.6608 49.4241C84.7274 49.4394 84.7902 49.468 84.8453 49.5083C84.9004 49.5485 84.9467 49.5995 84.9815 49.6581C85.0162 49.7167 85.0386 49.7817 85.0473 49.8492L85.1419 50.5713C85.1515 50.6402 85.1791 50.7053 85.2219 50.7603C87.6078 53.8655 84.9498 58.4505 84.3928 59.338C84.3473 59.41 84.2842 59.4695 84.2093 59.5107C84.1345 59.5518 84.0504 59.5735 83.9649 59.5736Z" fill="#FF0D1B"/>
<path d="M87.2586 47.0038C86.6437 46.1418 85.9063 45.3732 85.0696 44.7222C84.374 44.1812 83.5997 43.7191 82.7454 43.498C81.8911 43.2769 80.9477 43.3145 80.1683 43.7269C79.3889 44.1393 78.5831 44.9587 78.5781 45.8375C78.5766 46.1198 78.6487 46.5017 78.928 46.4529L79.0088 46.4636C79.6824 46.3281 80.356 46.1926 81.0296 46.0572C81.3165 47.0485 81.6034 48.0397 81.8903 49.031C81.9508 49.2399 82.0319 49.4736 82.2311 49.5627C82.4187 49.6466 82.6356 49.5675 82.8254 49.4886C82.8567 49.4756 83.1249 48.8761 83.1249 48.8761C83.1316 48.8574 83.1432 48.8408 83.1586 48.828C83.1739 48.8153 83.1923 48.8068 83.212 48.8035C83.2318 48.8002 83.252 48.8022 83.2706 48.8093C83.2893 48.8164 83.3057 48.8284 83.3182 48.8439L83.4776 49.0422C83.508 49.0801 83.55 49.1071 83.5972 49.1191C83.6445 49.1311 83.6943 49.1275 83.7393 49.1088C84.8378 48.6522 85.9363 48.1957 87.0349 47.7391C87.1867 47.676 87.3564 47.5936 87.4004 47.4358C87.4426 47.2846 87.3498 47.1317 87.2586 47.0038Z" fill="#221F1F"/>
<path d="M99.8884 84.9998H66.1083C66.0786 84.9998 66.05 84.9881 66.029 84.9671C66.0079 84.9461 65.9961 84.9177 65.9961 84.8881C65.9961 84.8585 66.0079 84.83 66.029 84.8091C66.05 84.7881 66.0786 84.7764 66.1083 84.7764H99.8884C99.9181 84.7764 99.9467 84.7881 99.9677 84.8091C99.9888 84.83 100.001 84.8585 100.001 84.8881C100.001 84.9177 99.9888 84.9461 99.9677 84.9671C99.9467 84.9881 99.9181 84.9998 99.8884 84.9998Z" fill="#3F3D56"/>
<path d="M81.5747 67.5886C81.4984 67.5883 81.4241 67.5638 81.3627 67.5187L80.8519 67.1492C80.8095 67.1184 80.7584 67.1018 80.7059 67.1018C80.6534 67.1018 80.6023 67.1184 80.5599 67.1492L80.049 67.5187C79.9874 67.5633 79.9132 67.5873 79.8371 67.5873C79.7609 67.5873 79.6867 67.5633 79.6251 67.5187C79.5635 67.4742 79.5176 67.4113 79.4941 67.3392C79.4706 67.2671 79.4705 67.1895 79.4941 67.1174L79.6892 66.5195C79.7055 66.4698 79.7056 66.4163 79.6893 66.3666C79.6731 66.3169 79.6415 66.2736 79.5989 66.243L79.0881 65.8734C79.0265 65.8288 78.9806 65.766 78.9571 65.6939C78.9336 65.6218 78.9336 65.5441 78.9571 65.472C78.9806 65.3999 79.0265 65.337 79.0881 65.2925C79.1497 65.2479 79.2239 65.2239 79.3001 65.2239H79.9315C79.984 65.224 80.0351 65.2075 80.0776 65.1768C80.1201 65.1461 80.1516 65.1028 80.1678 65.053L80.3629 64.4552C80.3864 64.383 80.4323 64.3202 80.4939 64.2756C80.5555 64.231 80.6297 64.207 80.7059 64.207C80.782 64.207 80.8562 64.231 80.9178 64.2756C80.9795 64.3202 81.0253 64.383 81.0488 64.4552L81.244 65.053C81.2601 65.1028 81.2917 65.1461 81.3341 65.1768C81.3766 65.2075 81.4277 65.224 81.4802 65.2239H82.1116C82.1878 65.2239 82.262 65.2479 82.3236 65.2925C82.3852 65.337 82.4311 65.3999 82.4546 65.472C82.4781 65.5441 82.4782 65.6218 82.4546 65.6939C82.4311 65.766 82.3852 65.8288 82.3236 65.8734L81.8128 66.2429C81.7703 66.2736 81.7386 66.3169 81.7224 66.3666C81.7062 66.4163 81.7062 66.4698 81.7225 66.5195L81.9177 67.1174C81.9421 67.1894 81.9425 67.2673 81.9189 67.3396C81.8953 67.4119 81.8489 67.4747 81.7867 67.5187C81.7253 67.5638 81.651 67.5883 81.5747 67.5886Z" fill="#014898"/>
<path d="M83.5279 66.3925C83.6722 66.2918 83.7925 66.1607 83.8804 66.0087C83.9684 65.8566 84.0217 65.6872 84.0368 65.5123C84.0518 65.3375 84.0282 65.1615 83.9675 64.9967C83.9069 64.832 83.8107 64.6825 83.6857 64.5587L84.5581 54.0703L81.9607 54.4261L81.9113 64.6165C81.7164 64.8393 81.6104 65.1255 81.6133 65.421C81.6163 65.7164 81.728 66.0005 81.9272 66.2194C82.1265 66.4383 82.3995 66.5768 82.6945 66.6088C82.9895 66.6407 83.286 66.5637 83.5279 66.3925Z" fill="#FFD2BB"/>
<path d="M84.7262 55.5812C84.6776 55.5812 84.6292 55.5742 84.5825 55.5605L81.7942 54.744C81.7271 54.7244 81.6649 54.6911 81.6115 54.6463C81.558 54.6016 81.5145 54.5462 81.4836 54.4838C81.4527 54.4214 81.4352 54.3533 81.4321 54.2839C81.4291 54.2144 81.4405 54.145 81.4657 54.0801L82.4976 51.4261C82.5406 51.314 82.6227 51.221 82.7289 51.1642C82.835 51.1073 82.9582 51.0904 83.0759 51.1164L84.918 51.5151C85.033 51.54 85.1357 51.6042 85.2082 51.6964C85.2808 51.7886 85.3188 51.9032 85.3156 52.0203L85.2299 55.0921C85.2262 55.2227 85.1716 55.3469 85.0776 55.4382C84.9836 55.5295 84.8576 55.5808 84.7262 55.5812Z" fill="#FF0D1B"/>
<path d="M58.4817 68.6868H10.7856C10.5773 68.6866 10.3776 68.6041 10.2303 68.4575C10.0831 68.3108 10.0002 68.112 10 67.9047V53.7147C10.0002 53.5074 10.0831 53.3086 10.2303 53.162C10.3776 53.0153 10.5773 52.9328 10.7856 52.9326H58.4817C58.6899 52.9328 58.8896 53.0153 59.0369 53.162C59.1842 53.3086 59.267 53.5074 59.2673 53.7147V67.9047C59.267 68.112 59.1842 68.3108 59.0369 68.4575C58.8896 68.6041 58.6899 68.6866 58.4817 68.6868ZM10.7856 53.1561C10.6368 53.1563 10.4942 53.2152 10.389 53.3199C10.2838 53.4246 10.2246 53.5666 10.2245 53.7147V67.9047C10.2246 68.0528 10.2838 68.1948 10.389 68.2995C10.4942 68.4043 10.6368 68.4632 10.7856 68.4633H58.4817C58.6304 68.4632 58.7731 68.4043 58.8783 68.2995C58.9835 68.1948 59.0426 68.0528 59.0428 67.9047V53.7147C59.0426 53.5666 58.9835 53.4246 58.8783 53.3199C58.7731 53.2152 58.6304 53.1563 58.4817 53.1561H10.7856Z" fill="#DCDCDC"/>
<path d="M31.6561 74.6621C31.5626 74.6618 31.4716 74.6318 31.3964 74.5765L30.7705 74.1239C30.7186 74.0861 30.656 74.0658 30.5917 74.0658C30.5274 74.0658 30.4648 74.0861 30.4128 74.1239L29.787 74.5765C29.7115 74.6311 29.6206 74.6605 29.5274 74.6605C29.4341 74.6605 29.3432 74.6311 29.2677 74.5765C29.1922 74.522 29.136 74.445 29.1072 74.3566C29.0783 74.2683 29.0783 74.1732 29.1071 74.0848L29.3462 73.3524C29.3662 73.2915 29.3663 73.2259 29.3464 73.1651C29.3265 73.1042 29.2878 73.0511 29.2357 73.0136L28.6099 72.5609C28.5344 72.5063 28.4782 72.4293 28.4494 72.341C28.4205 72.2527 28.4205 72.1575 28.4494 72.0692C28.4782 71.9808 28.5344 71.9039 28.6098 71.8493C28.6853 71.7947 28.7762 71.7653 28.8695 71.7653H29.6431C29.7074 71.7654 29.77 71.7452 29.822 71.7075C29.8741 71.6699 29.9127 71.6168 29.9325 71.5559L30.1715 70.8235C30.2003 70.7351 30.2565 70.6582 30.332 70.6035C30.4075 70.5489 30.4984 70.5195 30.5917 70.5195C30.685 70.5195 30.7759 70.5489 30.8514 70.6035C30.9269 70.6582 30.983 70.7351 31.0119 70.8235L31.2509 71.5559C31.2706 71.6168 31.3093 71.6699 31.3613 71.7075C31.4133 71.7452 31.476 71.7654 31.5403 71.7653H32.3139C32.4071 71.7653 32.498 71.7947 32.5735 71.8493C32.649 71.9039 32.7052 71.9808 32.734 72.0692C32.7628 72.1575 32.7628 72.2527 32.734 72.341C32.7052 72.4293 32.649 72.5063 32.5735 72.5609L31.9477 73.0136C31.8956 73.0511 31.8568 73.1042 31.837 73.1651C31.8171 73.2259 31.8172 73.2915 31.8372 73.3524L32.0762 74.0848C32.1061 74.1731 32.1066 74.2686 32.0777 74.3571C32.0488 74.4457 31.992 74.5226 31.9157 74.5765C31.8405 74.6318 31.7495 74.6618 31.6561 74.6621Z" fill="#014898"/>
<path d="M37.9978 74.6621C37.9043 74.6618 37.8134 74.6318 37.7381 74.5765L37.1123 74.1239C37.0604 74.0861 36.9977 74.0658 36.9335 74.0658C36.8692 74.0658 36.8065 74.0861 36.7546 74.1239L36.1288 74.5765C36.0533 74.6311 35.9624 74.6605 35.8691 74.6605C35.7758 74.6605 35.6849 74.6311 35.6094 74.5765C35.534 74.522 35.4778 74.445 35.4489 74.3566C35.4201 74.2683 35.4201 74.1732 35.4489 74.0848L35.688 73.3524C35.7079 73.2915 35.708 73.2259 35.6882 73.1651C35.6683 73.1042 35.6295 73.0511 35.5774 73.0136L34.9516 72.5609C34.8761 72.5063 34.82 72.4293 34.7911 72.341C34.7623 72.2527 34.7623 72.1575 34.7912 72.0692C34.82 71.9808 34.8762 71.9039 34.9516 71.8493C35.0271 71.7947 35.118 71.7653 35.2113 71.7653H35.9848C36.0491 71.7654 36.1118 71.7452 36.1638 71.7075C36.2158 71.6699 36.2545 71.6168 36.2742 71.5559L36.5133 70.8235C36.5421 70.7351 36.5983 70.6582 36.6738 70.6035C36.7493 70.5489 36.8402 70.5195 36.9335 70.5195C37.0268 70.5195 37.1177 70.5489 37.1932 70.6035C37.2686 70.6582 37.3248 70.7351 37.3536 70.8235L37.5926 71.5559C37.6124 71.6168 37.6511 71.6699 37.7031 71.7075C37.7551 71.7452 37.8178 71.7654 37.8821 71.7653H38.6556C38.7489 71.7653 38.8398 71.7947 38.9153 71.8493C38.9908 71.9039 39.0469 71.9808 39.0758 72.0692C39.1046 72.1575 39.1046 72.2527 39.0758 72.341C39.047 72.4293 38.9908 72.5063 38.9153 72.5609L38.2895 73.0136C38.2374 73.0511 38.1986 73.1042 38.1787 73.165C38.1589 73.2259 38.1589 73.2915 38.1789 73.3524L38.418 74.0848C38.4479 74.1731 38.4484 74.2686 38.4195 74.3571C38.3906 74.4457 38.3338 74.5226 38.2575 74.5765C38.1822 74.6318 38.0913 74.6618 37.9978 74.6621Z" fill="#014898"/>
<path d="M44.3416 74.6621C44.2481 74.6618 44.1571 74.6318 44.0819 74.5765L43.4561 74.1239C43.4041 74.0862 43.3415 74.0659 43.2772 74.0659C43.2129 74.0659 43.1503 74.0862 43.0983 74.1239L42.4725 74.5765C42.3971 74.6311 42.3062 74.6605 42.2129 74.6605C42.1196 74.6605 42.0287 74.6311 41.9532 74.5765C41.8777 74.522 41.8215 74.445 41.7927 74.3566C41.7639 74.2683 41.7639 74.1732 41.7927 74.0848L42.0317 73.3524C42.0517 73.2915 42.0518 73.2259 42.0319 73.1651C42.012 73.1042 41.9733 73.0511 41.9212 73.0136L41.2954 72.5609C41.2199 72.5063 41.1637 72.4293 41.1349 72.341C41.1061 72.2527 41.1061 72.1575 41.1349 72.0692C41.1637 71.9808 41.2199 71.9039 41.2954 71.8493C41.3709 71.7947 41.4618 71.7653 41.5551 71.7653H42.3286C42.3929 71.7654 42.4555 71.7452 42.5076 71.7075C42.5596 71.6699 42.5982 71.6168 42.618 71.5559L42.857 70.8235C42.8859 70.7351 42.942 70.6582 43.0175 70.6035C43.093 70.5489 43.1839 70.5195 43.2772 70.5195C43.3705 70.5195 43.4614 70.5489 43.5369 70.6035C43.6124 70.6582 43.6686 70.7351 43.6974 70.8235L43.9364 71.5559C43.9562 71.6168 43.9949 71.6699 44.0469 71.7075C44.0989 71.7452 44.1615 71.7654 44.2258 71.7653H44.9994C45.0927 71.7653 45.1836 71.7947 45.259 71.8493C45.3345 71.9039 45.3907 71.9808 45.4195 72.0692C45.4484 72.1575 45.4484 72.2527 45.4195 72.341C45.3907 72.4293 45.3345 72.5063 45.2591 72.5609L44.6332 73.0136C44.5812 73.0511 44.5424 73.1042 44.5225 73.1651C44.5027 73.2259 44.5027 73.2915 44.5227 73.3524L44.7617 74.0848C44.7916 74.1731 44.7921 74.2685 44.7632 74.3571C44.7343 74.4457 44.6775 74.5226 44.6013 74.5765C44.526 74.6318 44.4351 74.6618 44.3416 74.6621Z" fill="#014898"/>
<path d="M50.6814 74.6621C50.588 74.6618 50.497 74.6318 50.4218 74.5765L49.7959 74.1238C49.744 74.0861 49.6814 74.0657 49.6171 74.0657C49.5528 74.0657 49.4902 74.0861 49.4382 74.1238L48.8124 74.5765C48.7369 74.6311 48.646 74.6605 48.5528 74.6605C48.4595 74.6605 48.3686 74.6311 48.2931 74.5765C48.2176 74.522 48.1614 74.445 48.1326 74.3566C48.1037 74.2683 48.1037 74.1732 48.1325 74.0848L48.3716 73.3524C48.3916 73.2915 48.3917 73.2259 48.3718 73.1651C48.3519 73.1042 48.3131 73.0512 48.261 73.0137L47.6352 72.5609C47.5597 72.5063 47.5036 72.4293 47.4747 72.341C47.4459 72.2527 47.4459 72.1575 47.4748 72.0692C47.5036 71.9808 47.5598 71.9039 47.6352 71.8493C47.7107 71.7947 47.8016 71.7653 47.8949 71.7653H48.6684C48.7327 71.7654 48.7954 71.7452 48.8474 71.7075C48.8994 71.6699 48.9381 71.6168 48.9579 71.5559L49.1969 70.8235C49.2257 70.7351 49.2819 70.6581 49.3574 70.6035C49.4328 70.5489 49.5238 70.5195 49.6171 70.5195C49.7104 70.5195 49.8013 70.5489 49.8767 70.6035C49.9522 70.6581 50.0084 70.7351 50.0372 70.8235L50.2763 71.5559C50.296 71.6168 50.3347 71.6699 50.3867 71.7075C50.4387 71.7452 50.5014 71.7654 50.5657 71.7653H51.3392C51.4325 71.7653 51.5234 71.7947 51.5989 71.8493C51.6744 71.9039 51.7305 71.9808 51.7594 72.0692C51.7882 72.1575 51.7882 72.2527 51.7594 72.341C51.7305 72.4293 51.6744 72.5063 51.5989 72.5609L50.9731 73.0136C50.921 73.0511 50.8822 73.1042 50.8624 73.1651C50.8425 73.2259 50.8426 73.2915 50.8626 73.3524L51.1016 74.0848C51.1315 74.1731 51.132 74.2685 51.1031 74.3571C51.0742 74.4457 51.0174 74.5226 50.9411 74.5765C50.8659 74.6318 50.7749 74.6618 50.6814 74.6621Z" fill="#014898"/>
<path d="M54.895 74.7058C54.7924 74.7054 54.6925 74.6725 54.6098 74.6119C54.526 74.5527 54.4636 74.4681 54.4319 74.3708C54.4001 74.2735 54.4007 74.1686 54.4335 74.0717L54.6726 73.3393C54.6897 73.2871 54.6897 73.2309 54.6727 73.1787C54.6557 73.1266 54.6225 73.0811 54.5778 73.049L53.952 72.5962C53.8691 72.5363 53.8074 72.4517 53.7757 72.3547C53.744 72.2576 53.744 72.1531 53.7757 72.0561C53.8074 71.959 53.8691 71.8745 53.952 71.8145C54.0349 71.7545 54.1348 71.7222 54.2373 71.7223H55.0108C55.0659 71.7224 55.1196 71.705 55.1642 71.6728C55.2088 71.6405 55.2419 71.595 55.2588 71.5428L55.4979 70.8104C55.5296 70.7134 55.5913 70.6288 55.6742 70.5688C55.7571 70.5089 55.857 70.4766 55.9594 70.4766C56.0619 70.4766 56.1618 70.5089 56.2447 70.5688C56.3276 70.6288 56.3893 70.7134 56.421 70.8104L56.66 71.5428C56.6769 71.595 56.71 71.6405 56.7546 71.6728C56.7992 71.705 56.8529 71.7224 56.908 71.7223H57.6816C57.7841 71.7223 57.8839 71.7546 57.9668 71.8145C58.0497 71.8745 58.1114 71.9591 58.1431 72.0561C58.1748 72.1531 58.1748 72.2576 58.1431 72.3547C58.1114 72.4517 58.0497 72.5363 57.9668 72.5962L57.341 73.049C57.2964 73.0811 57.2631 73.1266 57.2461 73.1787C57.2291 73.2309 57.2291 73.2871 57.2462 73.3393L57.4853 74.0717C57.5169 74.1687 57.5169 74.2732 57.4853 74.3703C57.4536 74.4673 57.3919 74.5519 57.309 74.6118C57.2261 74.6718 57.1262 74.7041 57.0237 74.7041C56.9213 74.7041 56.8214 74.6718 56.7385 74.6118L56.1127 74.1592C56.0682 74.1269 56.0145 74.1094 55.9594 74.1094C55.9043 74.1094 55.8506 74.1269 55.8061 74.1592L55.1803 74.6118C55.0976 74.6725 54.9977 74.7055 54.895 74.7058ZM55.9594 73.8859C56.0619 73.8859 56.1618 73.9183 56.2446 73.9784L56.8704 74.431C56.915 74.4633 56.9686 74.4807 57.0237 74.4807C57.0788 74.4807 57.1325 74.4633 57.1771 74.4311C57.2216 74.3989 57.2548 74.3534 57.2718 74.3013C57.2888 74.2491 57.2888 74.1929 57.2718 74.1408L57.0328 73.4083C57.0009 73.3113 57.0008 73.2067 57.0325 73.1096C57.0642 73.0126 57.126 72.928 57.2091 72.8682L57.8349 72.4155C57.8794 72.3832 57.9126 72.3378 57.9296 72.2856C57.9466 72.2335 57.9466 72.1773 57.9296 72.1251C57.9126 72.073 57.8794 72.0275 57.8349 71.9953C57.7903 71.9631 57.7366 71.9457 57.6816 71.9457H56.908C56.8055 71.9459 56.7056 71.9137 56.6226 71.8537C56.5397 71.7937 56.478 71.709 56.4465 71.6119L56.2074 70.8795C56.1904 70.8273 56.1573 70.7819 56.1127 70.7496C56.0681 70.7174 56.0145 70.7 55.9594 70.7C55.9043 70.7 55.8506 70.7174 55.8061 70.7496C55.7615 70.7819 55.7284 70.8273 55.7113 70.8795L55.4723 71.6119C55.4408 71.709 55.3791 71.7937 55.2962 71.8537C55.2132 71.9137 55.1133 71.9459 55.0108 71.9457H54.2372C54.1822 71.9457 54.1285 71.9631 54.0839 71.9953C54.0394 72.0275 54.0062 72.073 53.9892 72.1251C53.9722 72.1773 53.9722 72.2335 53.9892 72.2856C54.0062 72.3378 54.0394 72.3832 54.0839 72.4155L54.7098 72.8682C54.7928 72.928 54.8546 73.0126 54.8863 73.1096C54.918 73.2067 54.9179 73.3113 54.8861 73.4083L54.647 74.1408C54.6299 74.1929 54.6299 74.2491 54.647 74.3012C54.664 74.3534 54.6972 74.3988 54.7417 74.4311C54.7863 74.4633 54.84 74.4806 54.895 74.4806C54.9501 74.4806 55.0038 74.4633 55.0483 74.431L55.6742 73.9784C55.757 73.9183 55.8569 73.8859 55.9594 73.8859Z" fill="#3F3D56"/>
<path d="M16.1728 56.2852C15.9794 56.2852 15.7938 56.3617 15.657 56.4979C15.5202 56.6341 15.4434 56.8188 15.4434 57.0114C15.4434 57.204 15.5202 57.3888 15.657 57.525C15.7938 57.6612 15.9794 57.7377 16.1728 57.7377H53.0952C53.2887 57.7377 53.4742 57.6612 53.611 57.525C53.7478 57.3888 53.8247 57.204 53.8247 57.0114C53.8247 56.8188 53.7478 56.6341 53.611 56.4979C53.4742 56.3617 53.2887 56.2852 53.0952 56.2852H16.1728Z" fill="#CCCCCC"/>
<path d="M16.1728 60.084C15.9794 60.084 15.7938 60.1605 15.657 60.2967C15.5202 60.4329 15.4434 60.6176 15.4434 60.8102C15.4434 61.0029 15.5202 61.1876 15.657 61.3238C15.7938 61.46 15.9794 61.5365 16.1728 61.5365H53.0952C53.2887 61.5365 53.4742 61.46 53.611 61.3238C53.7478 61.1876 53.8247 61.0029 53.8247 60.8102C53.8247 60.6176 53.7478 60.4329 53.611 60.2967C53.4742 60.1605 53.2887 60.084 53.0952 60.084H16.1728Z" fill="#CCCCCC"/>
<path d="M16.1728 63.8828C15.9794 63.8828 15.7938 63.9593 15.657 64.0955C15.5202 64.2317 15.4434 64.4165 15.4434 64.6091C15.4434 64.8017 15.5202 64.9864 15.657 65.1226C15.7938 65.2588 15.9794 65.3353 16.1728 65.3353H53.0952C53.2887 65.3353 53.4742 65.2588 53.611 65.1226C53.7478 64.9864 53.8247 64.8017 53.8247 64.6091C53.8247 64.4165 53.7478 64.2317 53.611 64.0955C53.4742 63.9593 53.2887 63.8828 53.0952 63.8828H16.1728Z" fill="#CCCCCC"/>
<path d="M16.1728 56.2852C15.9794 56.2852 15.7938 56.3617 15.657 56.4979C15.5202 56.6341 15.4434 56.8188 15.4434 57.0114C15.4434 57.204 15.5202 57.3888 15.657 57.525C15.7938 57.6612 15.9794 57.7377 16.1728 57.7377H53.0952C53.2887 57.7377 53.4742 57.6612 53.611 57.525C53.7478 57.3888 53.8247 57.204 53.8247 57.0114C53.8247 56.8188 53.7478 56.6341 53.611 56.4979C53.4742 56.3617 53.2887 56.2852 53.0952 56.2852H16.1728Z" fill="#DCDCDC"/>
<path d="M16.1728 60.084C15.9794 60.084 15.7938 60.1605 15.657 60.2967C15.5202 60.4329 15.4434 60.6176 15.4434 60.8102C15.4434 61.0029 15.5202 61.1876 15.657 61.3238C15.7938 61.46 15.9794 61.5365 16.1728 61.5365H53.0952C53.2887 61.5365 53.4742 61.46 53.611 61.3238C53.7478 61.1876 53.8247 61.0029 53.8247 60.8102C53.8247 60.6176 53.7478 60.4329 53.611 60.2967C53.4742 60.1605 53.2887 60.084 53.0952 60.084H16.1728Z" fill="#DCDCDC"/>
<path d="M16.1728 63.8828C15.9794 63.8828 15.7938 63.9593 15.657 64.0955C15.5202 64.2317 15.4434 64.4165 15.4434 64.6091C15.4434 64.8017 15.5202 64.9864 15.657 65.1226C15.7938 65.2588 15.9794 65.3353 16.1728 65.3353H53.0952C53.2887 65.3353 53.4742 65.2588 53.611 65.1226C53.7478 64.9864 53.8247 64.8017 53.8247 64.6091C53.8247 64.4165 53.7478 64.2317 53.611 64.0955C53.4742 63.9593 53.2887 63.8828 53.0952 63.8828H16.1728Z" fill="#DCDCDC"/>
<path d="M58.4817 40.7542H10.7856C10.5773 40.754 10.3776 40.6715 10.2303 40.5249C10.0831 40.3782 10.0002 40.1794 10 39.9721V25.7821C10.0002 25.5748 10.0831 25.376 10.2303 25.2293C10.3776 25.0827 10.5773 25.0002 10.7856 25H58.4817C58.6899 25.0002 58.8896 25.0827 59.0369 25.2293C59.1842 25.376 59.267 25.5748 59.2673 25.7821V39.9721C59.267 40.1794 59.1842 40.3782 59.0369 40.5249C58.8896 40.6715 58.6899 40.754 58.4817 40.7542ZM10.7856 25.2235C10.6368 25.2236 10.4942 25.2825 10.389 25.3873C10.2838 25.492 10.2246 25.634 10.2245 25.7821V39.9721C10.2246 40.1202 10.2838 40.2622 10.389 40.3669C10.4942 40.4716 10.6368 40.5306 10.7856 40.5307H58.4817C58.6304 40.5306 58.7731 40.4716 58.8783 40.3669C58.9835 40.2622 59.0426 40.1202 59.0428 39.9721V25.7821C59.0426 25.634 58.9835 25.492 58.8783 25.3873C58.7731 25.2825 58.6304 25.2236 58.4817 25.2235H10.7856Z" fill="#DCDCDC"/>
<path d="M31.658 46.7295C31.5645 46.7291 31.4736 46.6992 31.3983 46.6439L30.7725 46.1912C30.7206 46.1535 30.6579 46.1331 30.5936 46.1331C30.5293 46.1331 30.4667 46.1535 30.4148 46.1912L29.789 46.6439C29.7135 46.6985 29.6226 46.7279 29.5293 46.7279C29.436 46.7279 29.3451 46.6985 29.2696 46.6439C29.1942 46.5893 29.138 46.5124 29.1091 46.424C29.0803 46.3357 29.0803 46.2405 29.1091 46.1522L29.3482 45.4198C29.3681 45.3589 29.3682 45.2933 29.3483 45.2324C29.3285 45.1716 29.2897 45.1185 29.2376 45.081L28.6118 44.6283C28.5363 44.5737 28.4801 44.4967 28.4513 44.4084C28.4225 44.3201 28.4225 44.2249 28.4513 44.1366C28.4801 44.0482 28.5363 43.9712 28.6118 43.9166C28.6873 43.862 28.7782 43.8326 28.8715 43.8326H29.645C29.7093 43.8328 29.772 43.8126 29.824 43.7749C29.876 43.7373 29.9147 43.6842 29.9344 43.6233L30.1735 42.8909C30.2023 42.8025 30.2585 42.7255 30.3339 42.6709C30.4094 42.6163 30.5003 42.5869 30.5936 42.5869C30.6869 42.5869 30.7778 42.6163 30.8533 42.6709C30.9288 42.7255 30.985 42.8025 31.0138 42.8909L31.2528 43.6233C31.2726 43.6842 31.3113 43.7373 31.3633 43.7749C31.4153 43.8126 31.478 43.8328 31.5422 43.8326H32.3158C32.4091 43.8326 32.5 43.8621 32.5755 43.9166C32.6509 43.9712 32.7071 44.0482 32.736 44.1366C32.7648 44.2249 32.7648 44.3201 32.736 44.4084C32.7071 44.4967 32.6509 44.5737 32.5755 44.6283L31.9496 45.081C31.8976 45.1185 31.8588 45.1716 31.8389 45.2324C31.8191 45.2933 31.8191 45.3589 31.8391 45.4198L32.0782 46.1522C32.108 46.2404 32.1086 46.3359 32.0797 46.4245C32.0508 46.5131 31.9939 46.59 31.9177 46.6439C31.8424 46.6992 31.7515 46.7291 31.658 46.7295Z" fill="#014898"/>
<path d="M37.9978 46.7295C37.9043 46.7291 37.8134 46.6992 37.7381 46.6439L37.1123 46.1912C37.0604 46.1535 36.9977 46.1331 36.9335 46.1331C36.8692 46.1331 36.8065 46.1535 36.7546 46.1912L36.1288 46.6439C36.0533 46.6985 35.9624 46.7279 35.8691 46.7279C35.7758 46.7279 35.6849 46.6985 35.6094 46.6439C35.534 46.5893 35.4778 46.5124 35.4489 46.424C35.4201 46.3357 35.4201 46.2405 35.4489 46.1522L35.688 45.4198C35.7079 45.3589 35.708 45.2933 35.6882 45.2324C35.6683 45.1716 35.6295 45.1185 35.5774 45.081L34.9516 44.6283C34.8761 44.5737 34.82 44.4967 34.7911 44.4084C34.7623 44.32 34.7623 44.2249 34.7912 44.1366C34.82 44.0482 34.8762 43.9712 34.9516 43.9166C35.0271 43.8621 35.118 43.8326 35.2113 43.8326H35.9848C36.0491 43.8328 36.1118 43.8126 36.1638 43.7749C36.2158 43.7373 36.2545 43.6842 36.2742 43.6233L36.5133 42.8909C36.5421 42.8025 36.5983 42.7255 36.6738 42.6709C36.7493 42.6163 36.8402 42.5869 36.9335 42.5869C37.0268 42.5869 37.1177 42.6163 37.1932 42.6709C37.2686 42.7255 37.3248 42.8025 37.3536 42.8909L37.5926 43.6233C37.6124 43.6842 37.6511 43.7373 37.7031 43.7749C37.7551 43.8126 37.8178 43.8328 37.8821 43.8326H38.6556C38.7489 43.8326 38.8398 43.8621 38.9153 43.9166C38.9908 43.9712 39.0469 44.0482 39.0758 44.1366C39.1046 44.2249 39.1046 44.32 39.0758 44.4084C39.047 44.4967 38.9908 44.5737 38.9153 44.6283L38.2895 45.081C38.2374 45.1185 38.1986 45.1715 38.1787 45.2324C38.1589 45.2933 38.1589 45.3589 38.1789 45.4198L38.418 46.1522C38.4479 46.2404 38.4484 46.3359 38.4195 46.4245C38.3906 46.5131 38.3338 46.59 38.2575 46.6439C38.1822 46.6992 38.0913 46.7291 37.9978 46.7295Z" fill="#014898"/>
<path d="M44.3416 46.7295C44.2481 46.7291 44.1571 46.6992 44.0819 46.6439L43.4561 46.1912C43.4041 46.1536 43.3415 46.1333 43.2772 46.1333C43.2129 46.1333 43.1503 46.1536 43.0983 46.1912L42.4725 46.6439C42.3971 46.6985 42.3062 46.7279 42.2129 46.7279C42.1196 46.7279 42.0287 46.6985 41.9532 46.6439C41.8777 46.5893 41.8215 46.5124 41.7927 46.424C41.7639 46.3357 41.7639 46.2405 41.7927 46.1522L42.0317 45.4198C42.0517 45.3589 42.0518 45.2933 42.0319 45.2324C42.012 45.1716 41.9733 45.1185 41.9212 45.081L41.2954 44.6283C41.2199 44.5737 41.1637 44.4967 41.1349 44.4084C41.1061 44.32 41.1061 44.2249 41.1349 44.1366C41.1637 44.0482 41.2199 43.9712 41.2954 43.9166C41.3709 43.8621 41.4618 43.8326 41.5551 43.8326H42.3286C42.3929 43.8328 42.4555 43.8126 42.5076 43.7749C42.5596 43.7373 42.5982 43.6842 42.618 43.6233L42.857 42.8909C42.8859 42.8025 42.942 42.7255 43.0175 42.6709C43.093 42.6163 43.1839 42.5869 43.2772 42.5869C43.3705 42.5869 43.4614 42.6163 43.5369 42.6709C43.6124 42.7255 43.6686 42.8025 43.6974 42.8909L43.9364 43.6233C43.9562 43.6842 43.9949 43.7373 44.0469 43.7749C44.0989 43.8126 44.1615 43.8328 44.2258 43.8326H44.9994C45.0927 43.8326 45.1836 43.8621 45.259 43.9166C45.3345 43.9712 45.3907 44.0482 45.4195 44.1366C45.4484 44.2249 45.4484 44.32 45.4195 44.4084C45.3907 44.4967 45.3345 44.5737 45.2591 44.6283L44.6332 45.081C44.5812 45.1185 44.5424 45.1716 44.5225 45.2324C44.5027 45.2933 44.5027 45.3589 44.5227 45.4198L44.7617 46.1522C44.7916 46.2404 44.7921 46.3359 44.7632 46.4245C44.7343 46.5131 44.6775 46.59 44.6013 46.6439C44.526 46.6992 44.4351 46.7291 44.3416 46.7295Z" fill="#014898"/>
<path d="M54.895 46.7723C54.7924 46.7718 54.6925 46.7389 54.6098 46.6783C54.526 46.6191 54.4636 46.5346 54.4319 46.4373C54.4001 46.3399 54.4007 46.235 54.4335 46.1381L54.6726 45.4057C54.6897 45.3535 54.6897 45.2973 54.6727 45.2452C54.6557 45.193 54.6225 45.1475 54.5778 45.1154L53.952 44.6627C53.8691 44.6027 53.8074 44.5181 53.7757 44.4211C53.744 44.3241 53.744 44.2195 53.7757 44.1225C53.8074 44.0255 53.8691 43.9409 53.952 43.8809C54.0349 43.821 54.1348 43.7887 54.2373 43.7887H55.0108C55.0659 43.7888 55.1196 43.7714 55.1642 43.7392C55.2088 43.7069 55.2419 43.6614 55.2588 43.6092L55.4979 42.8768C55.5296 42.7798 55.5913 42.6952 55.6742 42.6352C55.7571 42.5753 55.857 42.543 55.9594 42.543C56.0619 42.543 56.1618 42.5753 56.2447 42.6352C56.3276 42.6952 56.3893 42.7798 56.421 42.8768L56.66 43.6092C56.6769 43.6614 56.71 43.7069 56.7546 43.7392C56.7992 43.7714 56.8529 43.7888 56.908 43.7887H57.6816C57.7841 43.7887 57.8839 43.821 57.9668 43.8809C58.0497 43.9409 58.1114 44.0255 58.1431 44.1225C58.1748 44.2195 58.1748 44.3241 58.1431 44.4211C58.1114 44.5181 58.0497 44.6027 57.9668 44.6627L57.341 45.1154C57.2964 45.1475 57.2631 45.193 57.2461 45.2451C57.2291 45.2973 57.2291 45.3535 57.2462 45.4057L57.4853 46.1381C57.5169 46.2351 57.5169 46.3397 57.4853 46.4367C57.4536 46.5337 57.3919 46.6183 57.309 46.6783C57.2261 46.7382 57.1262 46.7705 57.0237 46.7705C56.9213 46.7705 56.8214 46.7382 56.7385 46.6783L56.1127 46.2256C56.0682 46.1933 56.0145 46.1758 55.9594 46.1758C55.9043 46.1758 55.8506 46.1933 55.8061 46.2256L55.1803 46.6783C55.0976 46.7389 54.9977 46.7719 54.895 46.7723ZM55.9594 45.9523C56.0619 45.9523 56.1618 45.9847 56.2446 46.0448L56.8704 46.4975C56.915 46.5297 56.9686 46.5471 57.0237 46.5471C57.0788 46.5471 57.1325 46.5297 57.1771 46.4975C57.2216 46.4653 57.2548 46.4198 57.2718 46.3677C57.2888 46.3155 57.2888 46.2593 57.2718 46.2072L57.0328 45.4747C57.0009 45.3777 57.0008 45.2731 57.0325 45.176C57.0642 45.079 57.126 44.9944 57.2091 44.9346L57.8349 44.4819C57.8794 44.4496 57.9126 44.4042 57.9296 44.352C57.9466 44.2999 57.9466 44.2437 57.9296 44.1916C57.9126 44.1394 57.8794 44.094 57.8349 44.0617C57.7903 44.0295 57.7366 44.0121 57.6816 44.0121H56.908C56.8055 44.0123 56.7056 43.9801 56.6226 43.9201C56.5397 43.8601 56.478 43.7754 56.4465 43.6783L56.2074 42.9459C56.1904 42.8937 56.1573 42.8483 56.1127 42.816C56.0681 42.7838 56.0145 42.7664 55.9594 42.7664C55.9043 42.7664 55.8506 42.7838 55.8061 42.816C55.7615 42.8483 55.7284 42.8937 55.7113 42.9459L55.4723 43.6783C55.4408 43.7754 55.3791 43.8601 55.2962 43.9201C55.2132 43.9801 55.1133 44.0123 55.0108 44.0121H54.2372C54.1822 44.0121 54.1285 44.0295 54.0839 44.0617C54.0394 44.0939 54.0062 44.1394 53.9892 44.1915C53.9722 44.2437 53.9722 44.2999 53.9892 44.352C54.0062 44.4042 54.0394 44.4496 54.0839 44.4819L54.7098 44.9346C54.7928 44.9944 54.8546 45.079 54.8863 45.1761C54.918 45.2731 54.9179 45.3777 54.8861 45.4747L54.647 46.2072C54.6299 46.2593 54.6299 46.3155 54.647 46.3676C54.664 46.4198 54.6972 46.4652 54.7417 46.4975C54.7863 46.5297 54.84 46.5471 54.895 46.5471C54.9501 46.5471 55.0038 46.5297 55.0483 46.4975L55.6742 46.0448C55.757 45.9847 55.8569 45.9523 55.9594 45.9523Z" fill="#3F3D56"/>
<path d="M48.4986 46.7547C48.3959 46.7543 48.296 46.7214 48.2134 46.6607C48.1296 46.6015 48.0672 46.517 48.0354 46.4197C48.0036 46.3224 48.0042 46.2175 48.037 46.1205L48.2761 45.3881C48.2932 45.3359 48.2933 45.2797 48.2762 45.2276C48.2592 45.1754 48.226 45.13 48.1814 45.0978L47.5555 44.6451C47.4726 44.5851 47.4109 44.5005 47.3792 44.4035C47.3475 44.3065 47.3476 44.2019 47.3792 44.1049C47.4109 44.0079 47.4726 43.9233 47.5555 43.8633C47.6384 43.8034 47.7383 43.7711 47.8408 43.7711H48.6143C48.6694 43.7712 48.7231 43.7539 48.7677 43.7216C48.8123 43.6894 48.8454 43.6439 48.8623 43.5916L49.1014 42.8592C49.1331 42.7622 49.1948 42.6776 49.2777 42.6177C49.3606 42.5577 49.4605 42.5254 49.5629 42.5254C49.6654 42.5254 49.7653 42.5577 49.8482 42.6177C49.9311 42.6776 49.9928 42.7622 50.0245 42.8592L50.2635 43.5916C50.2804 43.6439 50.3136 43.6894 50.3581 43.7216C50.4027 43.7539 50.4564 43.7712 50.5115 43.7711H51.2851C51.3876 43.7711 51.4874 43.8034 51.5703 43.8634C51.6532 43.9233 51.7149 44.0079 51.7466 44.1049C51.7783 44.202 51.7783 44.3065 51.7466 44.4035C51.7149 44.5005 51.6532 44.5851 51.5703 44.6451L50.9445 45.0978C50.8999 45.1299 50.8666 45.1754 50.8496 45.2276C50.8326 45.2797 50.8326 45.3359 50.8497 45.3881L51.0888 46.1205C51.1205 46.2175 51.1205 46.3221 51.0888 46.4191C51.0571 46.5161 50.9954 46.6007 50.9125 46.6607C50.8296 46.7206 50.7297 46.7529 50.6273 46.7529C50.5248 46.7529 50.4249 46.7206 50.342 46.6607L49.7162 46.208C49.6717 46.1757 49.618 46.1583 49.5629 46.1583C49.5078 46.1583 49.4541 46.1757 49.4096 46.208L48.7838 46.6607C48.7011 46.7214 48.6012 46.7543 48.4986 46.7547ZM49.5629 45.9347C49.6654 45.9347 49.7653 45.9671 49.8481 46.0272L50.4739 46.4799C50.5185 46.5121 50.5722 46.5295 50.6272 46.5295C50.6823 46.5295 50.736 46.5122 50.7806 46.4799C50.8251 46.4477 50.8583 46.4022 50.8753 46.3501C50.8923 46.2979 50.8923 46.2417 50.8753 46.1896L50.6363 45.4572C50.6044 45.3601 50.6043 45.2555 50.636 45.1585C50.6677 45.0614 50.7295 44.9768 50.8126 44.917L51.4384 44.4643C51.4829 44.432 51.5161 44.3866 51.5331 44.3344C51.5501 44.2823 51.5501 44.2261 51.5331 44.174C51.5161 44.1218 51.4829 44.0764 51.4384 44.0441C51.3938 44.0119 51.3402 43.9945 51.2851 43.9945H50.5115C50.409 43.9947 50.3091 43.9625 50.2261 43.9025C50.1432 43.8425 50.0815 43.7579 50.05 43.6607L49.811 42.9283C49.7939 42.8761 49.7608 42.8307 49.7162 42.7984C49.6716 42.7662 49.618 42.7488 49.5629 42.7488C49.5078 42.7488 49.4541 42.7662 49.4096 42.7984C49.365 42.8307 49.3319 42.8761 49.3148 42.9283L49.0758 43.6607C49.0443 43.7578 48.9826 43.8425 48.8997 43.9025C48.8168 43.9625 48.7168 43.9947 48.6143 43.9945H47.8408C47.7857 43.9945 47.732 44.0119 47.6875 44.0441C47.6429 44.0764 47.6097 44.1218 47.5927 44.174C47.5757 44.2261 47.5757 44.2823 47.5927 44.3344C47.6097 44.3866 47.6429 44.432 47.6874 44.4643L48.3133 44.917C48.3963 44.9768 48.4582 45.0614 48.4898 45.1585C48.5215 45.2556 48.5214 45.3601 48.4896 45.4572L48.2505 46.1896C48.2335 46.2417 48.2335 46.2979 48.2505 46.3501C48.2675 46.4022 48.3007 46.4477 48.3452 46.4799C48.3898 46.5121 48.4435 46.5295 48.4985 46.5295C48.5536 46.5295 48.6073 46.5121 48.6519 46.4799L49.2777 46.0272C49.3605 45.9671 49.4604 45.9347 49.5629 45.9347Z" fill="#3F3D56"/>
<path d="M16.1728 28.3516C15.9794 28.3516 15.7938 28.4281 15.657 28.5643C15.5202 28.7005 15.4434 28.8852 15.4434 29.0778C15.4434 29.2704 15.5202 29.4552 15.657 29.5914C15.7938 29.7276 15.9794 29.8041 16.1728 29.8041H53.0952C53.2887 29.8041 53.4742 29.7276 53.611 29.5914C53.7478 29.4552 53.8247 29.2704 53.8247 29.0778C53.8247 28.8852 53.7478 28.7005 53.611 28.5643C53.4742 28.4281 53.2887 28.3516 53.0952 28.3516H16.1728Z" fill="#CCCCCC"/>
<path d="M16.1728 32.1504C15.9794 32.1504 15.7938 32.2269 15.657 32.3631C15.5202 32.4993 15.4434 32.684 15.4434 32.8766C15.4434 33.0693 15.5202 33.254 15.657 33.3902C15.7938 33.5264 15.9794 33.6029 16.1728 33.6029H53.0952C53.2887 33.6029 53.4742 33.5264 53.611 33.3902C53.7478 33.254 53.8247 33.0693 53.8247 32.8766C53.8247 32.684 53.7478 32.4993 53.611 32.3631C53.4742 32.2269 53.2887 32.1504 53.0952 32.1504H16.1728Z" fill="#CCCCCC"/>
<path d="M16.1728 35.9502C15.9794 35.9502 15.7938 36.0267 15.657 36.1629C15.5202 36.2991 15.4434 36.4838 15.4434 36.6765C15.4434 36.8691 15.5202 37.0538 15.657 37.19C15.7938 37.3262 15.9794 37.4027 16.1728 37.4027H53.0952C53.2887 37.4027 53.4742 37.3262 53.611 37.19C53.7478 37.0538 53.8247 36.8691 53.8247 36.6765C53.8247 36.4838 53.7478 36.2991 53.611 36.1629C53.4742 36.0267 53.2887 35.9502 53.0952 35.9502H16.1728Z" fill="#CCCCCC"/>
<path d="M16.1728 28.3516C15.9794 28.3516 15.7938 28.4281 15.657 28.5643C15.5202 28.7005 15.4434 28.8852 15.4434 29.0778C15.4434 29.2704 15.5202 29.4552 15.657 29.5914C15.7938 29.7276 15.9794 29.8041 16.1728 29.8041H53.0952C53.2887 29.8041 53.4742 29.7276 53.611 29.5914C53.7478 29.4552 53.8247 29.2704 53.8247 29.0778C53.8247 28.8852 53.7478 28.7005 53.611 28.5643C53.4742 28.4281 53.2887 28.3516 53.0952 28.3516H16.1728Z" fill="#DCDCDC"/>
<path d="M16.1728 32.1504C15.9794 32.1504 15.7938 32.2269 15.657 32.3631C15.5202 32.4993 15.4434 32.684 15.4434 32.8766C15.4434 33.0693 15.5202 33.254 15.657 33.3902C15.7938 33.5264 15.9794 33.6029 16.1728 33.6029H53.0952C53.2887 33.6029 53.4742 33.5264 53.611 33.3902C53.7478 33.254 53.8247 33.0693 53.8247 32.8766C53.8247 32.684 53.7478 32.4993 53.611 32.3631C53.4742 32.2269 53.2887 32.1504 53.0952 32.1504H16.1728Z" fill="#DCDCDC"/>
<path d="M16.1728 35.9502C15.9794 35.9502 15.7938 36.0267 15.657 36.1629C15.5202 36.2991 15.4434 36.4838 15.4434 36.6765C15.4434 36.8691 15.5202 37.0538 15.657 37.19C15.7938 37.3262 15.9794 37.4027 16.1728 37.4027H53.0952C53.2887 37.4027 53.4742 37.3262 53.611 37.19C53.7478 37.0538 53.8247 36.8691 53.8247 36.6765C53.8247 36.4838 53.7478 36.2991 53.611 36.1629C53.4742 36.0267 53.2887 35.9502 53.0952 35.9502H16.1728Z" fill="#DCDCDC"/>
</g>
<defs>
<clipPath id="clip0_492_173078">
<rect width="90" height="60" fill="white" transform="translate(10 25)"/>
</clipPath>
</defs>
</svg>
