<svg width="111" height="110" viewBox="0 0 111 110" fill="none" xmlns="http://www.w3.org/2000/svg">
<g clip-path="url(#clip0_428_156596)">
<path d="M93.5037 27.4194C75.2862 4.65467 32.1552 3.38217 19.4745 21.4398C12.4859 31.387 15.4069 46.2589 16.8469 53.5964C19.4989 67.0994 26.0367 75.7929 27.4634 77.6369C30.9281 82.1103 39.3432 92.9797 52.0016 95.4638C73.632 99.709 100.622 78.0953 102.118 53.7136C102.979 39.6541 95.0787 29.3875 93.5037 27.4194Z" fill="#F6F6F6"/>
<path d="M66.5316 37.8833C66.5116 37.8853 66.4915 37.8863 66.4714 37.8863C66.1523 37.8863 65.8799 37.6278 65.8489 37.2825C65.2985 31.1537 63.4245 25.3296 60.5677 20.8836C58.0368 16.9443 55.0236 14.5945 52.5075 14.5945H52.4991C43.3297 14.6136 41.4115 37.0507 41.3932 37.2775C41.3631 37.6445 41.0623 37.9164 40.7159 37.8851C40.3694 37.8537 40.1162 37.5302 40.1459 37.1632C40.2244 36.1882 42.1877 13.2817 52.4966 13.259H52.5078C55.4822 13.259 58.7962 15.762 61.6022 20.1283C64.5767 24.7578 66.528 30.8048 67.0958 37.1557C67.1271 37.5252 66.8747 37.8496 66.5316 37.8833Z" fill="#FF0D1B"/>
<path d="M28.2694 84.0648L40.3401 90.578L47.6538 66.6589L35.603 34.5916L32.1852 35.4845L27.0011 81.5386C26.8838 82.5813 27.3906 83.5905 28.2694 84.0648Z" fill="#014898"/>
<path d="M35.6035 34.5916L81.0599 37.0473L95.5057 85.8407L40.341 90.578L35.6035 34.5916Z" fill="#365CAA"/>
<path d="M49.5451 38.984C49.2612 38.984 49.0037 38.7751 48.9364 38.4689C48.8083 37.8879 45.8512 24.1554 50.0197 17.4163C51.2146 15.4846 52.8841 14.3055 54.9821 13.911C65.7605 11.887 72.3957 36.559 72.6736 37.6104C72.7671 37.9649 72.5731 38.3335 72.2402 38.4331C71.9073 38.5328 71.5617 38.326 71.4682 37.9712C71.4032 37.7256 64.8712 13.4051 55.1995 15.2252C53.4296 15.558 52.0771 16.5147 51.0651 18.1498C47.1893 24.4144 50.1243 38.0267 50.1544 38.1637C50.2332 38.5218 50.0245 38.8799 49.688 38.9655C49.6413 38.9774 49.5933 38.9837 49.5451 38.984Z" fill="#FF0D1B"/>
<path d="M49.5503 40.9491C50.5165 40.9491 51.2997 40.1143 51.2997 39.0846C51.2997 38.0548 50.5165 37.22 49.5503 37.22C48.5841 37.22 47.8008 38.0548 47.8008 39.0846C47.8008 40.1143 48.5841 40.9491 49.5503 40.9491Z" fill="#FF0D1B"/>
<path d="M72.3667 40.7765C73.3329 40.7765 74.1161 39.9417 74.1161 38.9119C74.1161 37.8822 73.3329 37.0474 72.3667 37.0474C71.4005 37.0474 70.6172 37.8822 70.6172 38.9119C70.6172 39.9417 71.4005 40.7765 72.3667 40.7765Z" fill="#FF0D1B"/>
<path d="M84.5379 60.5262L70.4254 46.871C70.2847 46.7314 70.105 46.6371 69.9095 46.6002C69.7141 46.5632 69.512 46.5854 69.3295 46.6639L61.798 49.9266C61.1634 50.2014 60.9448 51.0421 61.3559 51.6276L73.6474 69.0902C73.9872 69.573 74.626 69.6793 75.0877 69.3289L84.4411 62.2582C84.9846 61.847 85.0324 61.0043 84.5379 60.5262ZM68.4001 51.6706C67.9244 52.0111 67.1749 51.7106 66.7262 50.9988C66.2774 50.2871 66.2985 49.4339 66.774 49.0931C67.2495 48.7523 67.9989 49.0531 68.448 49.7648C68.897 50.4766 68.8771 51.3307 68.4001 51.6706Z" fill="#DCDCDC"/>
<path d="M84.5382 60.3396L70.4256 46.6847C70.2849 46.5448 70.105 46.4502 69.9092 46.4133C69.7135 46.3764 69.5111 46.3989 69.3285 46.4779L61.797 49.7406C61.1625 50.0155 60.9438 50.8561 61.3549 51.4416L73.6464 68.9045C73.9863 69.3871 74.6251 69.4936 75.0867 69.1432L84.4401 62.0729C84.9848 61.6604 85.0326 60.8177 84.5382 60.3396ZM68.4004 51.4849C67.9246 51.8257 67.1751 51.5249 66.7264 50.8132C66.2777 50.1014 66.2987 49.2482 66.7742 48.9077C67.2497 48.5672 67.9992 48.8677 68.4482 49.5795C68.8972 50.2912 68.8774 51.1441 68.4004 51.4849Z" fill="#F4F7FA"/>
<path d="M65.4672 48.1314C65.4445 48.1314 65.4223 48.1248 65.4033 48.1123C65.3844 48.0998 65.3696 48.0821 65.3608 48.0613C64.8717 46.9177 64.2125 45.9299 63.4008 45.1253C61.1752 42.9206 58.3051 42.5741 55.528 42.2386C52.7643 41.905 50.1541 41.5902 48.5947 39.4077C48.2001 38.8554 47.5869 37.8559 47.9159 37.3766C48.0479 37.1839 48.3114 37.0952 48.6979 37.1137C48.7133 37.1141 48.7284 37.1176 48.7425 37.1239C48.7565 37.1302 48.7691 37.1392 48.7796 37.1504C48.7901 37.1616 48.7982 37.1747 48.8035 37.1891C48.8088 37.2034 48.8112 37.2187 48.8104 37.234C48.8097 37.2492 48.8059 37.2642 48.7993 37.278C48.7927 37.2918 48.7834 37.3041 48.7719 37.3143C48.7604 37.3245 48.747 37.3323 48.7324 37.3372C48.7178 37.3422 48.7024 37.3442 48.687 37.3432C48.4798 37.3337 48.2112 37.3537 48.1072 37.5059C47.9324 37.761 48.1974 38.4555 48.7836 39.2749C50.2834 41.3741 52.8437 41.6833 55.5556 42.0106C58.3716 42.3506 61.2838 42.7021 63.5641 44.9627C64.3969 45.7885 65.0729 46.8007 65.5734 47.9718C65.5849 47.9995 65.5851 48.0306 65.5739 48.0585C65.5626 48.0864 65.5409 48.1088 65.5132 48.121C65.4988 48.1274 65.4831 48.131 65.4672 48.1314Z" fill="#26264F"/>
<path d="M66.6729 50.4422C66.6499 50.4423 66.6275 50.4356 66.6085 50.4229C66.5894 50.4103 66.5745 50.3923 66.5658 50.3713C66.5571 50.3503 66.5548 50.3272 66.5594 50.3049C66.5639 50.2826 66.5751 50.2621 66.5914 50.2462C66.601 50.2363 67.5673 49.2661 67.5625 47.9718C67.5598 47.1768 67.1953 46.42 66.4798 45.7226C64.9616 44.243 60.9333 42.5294 57.3793 41.0181C55.2103 40.0954 53.1612 39.224 51.8154 38.4725C51.5104 38.3021 51.1877 38.1401 50.856 37.9915C50.8413 37.9858 50.828 37.9772 50.8167 37.9663C50.8055 37.9553 50.7967 37.9422 50.7908 37.9277C50.7848 37.9133 50.7819 37.8977 50.7822 37.8821C50.7826 37.8665 50.7861 37.8511 50.7926 37.8369C50.7991 37.8227 50.8085 37.8099 50.8201 37.7994C50.8318 37.7889 50.8454 37.7809 50.8603 37.7758C50.8752 37.7707 50.891 37.7687 50.9067 37.7699C50.9224 37.771 50.9377 37.7753 50.9516 37.7826C51.289 37.9339 51.6181 38.0989 51.929 38.2726C53.2638 39.0187 55.3071 39.8871 57.4704 40.8072C61.0431 42.3267 65.0924 44.0493 66.6434 45.5587C67.4058 46.3018 67.7935 47.1141 67.7959 47.9736C67.7998 49.3649 66.7989 50.3673 66.7562 50.4094C66.7452 50.4201 66.7322 50.4285 66.7178 50.4341C66.7035 50.4398 66.6882 50.4425 66.6729 50.4422Z" fill="#26264F"/>
<path d="M71.875 55.6916C72.6479 56.9602 72.4879 58.0125 71.872 58.4389C71.2235 58.8866 70.2918 58.5514 69.5983 57.4135C68.939 56.3314 68.9038 55.1887 69.631 54.6853C70.3649 54.1773 71.244 54.6563 71.875 55.6916ZM70.3159 56.8632C70.7023 57.4977 71.1318 57.8501 71.4199 57.6508C71.7017 57.4556 71.5892 56.95 71.1742 56.269C70.7992 55.6537 70.3923 55.2594 70.0834 55.4725C69.7883 55.6769 69.9465 56.2574 70.3159 56.8632ZM73.4705 60.9394L72.0957 52.9798L72.6329 52.6079L74.0022 60.5721L73.4705 60.9394ZM76.4759 56.0873C77.2491 57.3559 77.0891 58.4082 76.4732 58.8328C75.8311 59.2775 74.8993 58.9409 74.1995 57.8074C73.5399 56.7253 73.505 55.5826 74.2323 55.0792C74.9661 54.5731 75.8449 55.052 76.4759 56.0873ZM74.9228 57.255C75.3026 57.8937 75.7318 58.2464 76.0202 58.0471C76.3017 57.8519 76.1893 57.3464 75.7745 56.6653C75.3992 56.0497 74.998 55.6507 74.69 55.8644C74.3896 56.073 74.5541 56.6486 74.9228 57.255Z" fill="#DCDCDC"/>
<path d="M73.7661 65.343C73.6678 65.3418 73.5715 65.3146 73.4873 65.2641C73.4032 65.2136 73.3341 65.1417 73.2873 65.0559C73.127 64.7745 73.2112 64.4077 73.4753 64.2367L80.2723 59.8397C80.5367 59.669 80.8807 59.7588 81.041 60.0402C81.2013 60.3216 81.1174 60.6884 80.853 60.8594L74.056 65.2564C73.9699 65.3126 73.8692 65.3427 73.7661 65.343Z" fill="#DCDCDC"/>
<path d="M65.4978 90.7996C65.4978 91.4149 65.0575 91.944 64.5174 91.976L26.2376 94.2264C26.0688 94.2383 25.8993 94.2154 25.7399 94.1591C25.5805 94.1029 25.4345 94.0145 25.3111 93.8996C25.1877 93.7847 25.0896 93.6457 25.023 93.4914C24.9564 93.3371 24.9226 93.1708 24.9239 93.0029V66.5761C24.9233 66.4074 24.9573 66.2403 25.0238 66.085C25.0904 65.9297 25.188 65.7895 25.3109 65.6729C25.4338 65.5563 25.5794 65.4657 25.7387 65.4067C25.898 65.3477 26.0677 65.3214 26.2376 65.3296L64.5174 66.9047C65.0587 66.9268 65.4978 67.4484 65.4978 68.0638V90.7996Z" fill="#073064"/>
<path d="M65.4985 84.604L24.9248 86.6694V91.5096L65.4985 89.1464V84.604Z" fill="#FF0D1B"/>
<g style="mix-blend-mode:multiply" opacity="0.15">
<path d="M36.899 74.069C36.853 77.0727 34.9601 78.6335 32.8521 78.6254C30.5559 78.6168 28.715 76.8695 28.7586 73.9998C28.8004 71.2722 30.533 69.3288 33.1051 69.5195C35.6016 69.7057 36.9372 71.6177 36.899 74.069ZM31.4473 74.0114C31.4232 75.5782 31.9399 76.717 32.9493 76.7358C33.921 76.7537 34.4052 75.7713 34.4302 74.1275C34.453 72.6414 34.0693 71.4691 33.0079 71.4059C31.9748 71.3447 31.4702 72.5136 31.4473 74.0114ZM33.5781 83.6677L40.8924 70.5273C40.9609 70.4042 41.0635 70.3033 41.1881 70.2364C41.3127 70.1696 41.4541 70.1396 41.5953 70.1501C41.7187 70.1592 41.8378 70.199 41.9418 70.2656C42.0457 70.3323 42.1312 70.4237 42.1903 70.5316C42.2494 70.6395 42.2803 70.7604 42.2802 70.8832C42.2801 71.006 42.2489 71.1268 42.1896 71.2346L34.9565 84.3711C34.8955 84.482 34.8066 84.5754 34.6986 84.6423C34.5905 84.7092 34.4669 84.7472 34.3396 84.7528L34.2587 84.7564C34.1274 84.7621 33.9968 84.733 33.8806 84.6721C33.7643 84.6112 33.6665 84.5207 33.5971 84.4098C33.5278 84.2989 33.4895 84.1717 33.4862 84.0413C33.4829 83.9109 33.5146 83.7819 33.5781 83.6677ZM46.0931 79.9645C46.0501 82.7464 44.426 84.2684 42.6215 84.3484C40.6819 84.4329 39.1174 82.8986 39.137 80.2549C39.1754 77.7406 40.6515 75.8718 42.847 75.9303C44.9845 75.9858 46.1277 77.6935 46.0931 79.9645ZM41.4485 80.1471C41.4064 81.5939 41.8461 82.6241 42.7084 82.5978C43.5388 82.574 43.9544 81.6458 43.9776 80.1256C43.9986 78.7511 43.6901 77.6851 42.7833 77.6741C41.8816 77.6636 41.4687 78.7645 41.4485 80.1471Z" fill="url(#paint0_linear_428_156596)"/>
</g>
<path d="M37.2523 73.9291C37.2066 76.9328 35.3133 78.4936 33.2056 78.4855C30.9091 78.4769 29.0682 76.7299 29.1121 73.8599C29.1536 71.1323 30.8865 69.1889 33.4583 69.3799C35.9548 69.5661 37.2899 71.4778 37.2523 73.9291ZM31.8005 73.8715C31.7768 75.4386 32.2935 76.5774 33.3028 76.5959C34.2742 76.6138 34.7587 75.6317 34.7837 73.9879C34.8063 72.5018 34.4228 71.3292 33.3611 71.2663C32.329 71.2048 31.8246 72.374 31.8005 73.8715ZM33.9317 83.5278L41.2457 70.3877C41.3142 70.2646 41.4169 70.1636 41.5415 70.0967C41.6662 70.0298 41.8075 69.9998 41.9488 70.0102C42.0723 70.0194 42.1914 70.0592 42.2953 70.1258C42.3993 70.1925 42.4847 70.284 42.5438 70.3919C42.6029 70.4998 42.6338 70.6207 42.6337 70.7435C42.6336 70.8663 42.6024 70.9872 42.5431 71.095L35.31 84.2315C35.2489 84.3423 35.16 84.4356 35.052 84.5024C34.9439 84.5693 34.8204 84.6073 34.6932 84.6129L34.6123 84.6165C34.4809 84.6222 34.3504 84.5931 34.2341 84.5322C34.1178 84.4713 34.02 84.3808 33.9507 84.2699C33.8814 84.159 33.8431 84.0318 33.8397 83.9014C33.8364 83.771 33.8681 83.642 33.9317 83.5278ZM46.4463 79.8246C46.4039 82.6065 44.7789 84.1285 42.9756 84.207C41.0364 84.2918 39.4715 82.7573 39.4914 80.1135C39.5296 77.5992 41.006 75.7304 43.2015 75.7889C45.338 75.8459 46.4809 77.5541 46.4463 79.8246ZM41.8009 80.0072C41.7591 81.454 42.1988 82.4842 43.0607 82.4582C43.8914 82.434 44.3067 81.5059 44.3299 79.9857C44.3509 78.613 44.0427 77.5452 43.1359 77.5344C42.2348 77.5234 41.8219 78.6249 41.8009 80.0072Z" fill="white"/>
<path d="M67.5897 78.478V90.9786C67.5897 91.6763 67.0297 92.2559 66.329 92.3072L61.1509 92.6835L49.9629 93.4953C50.9205 93.2884 50.9412 92.5024 50.9412 92.5024V78.7791L52.1443 79.8902L52.7743 79.2435L53.0378 78.9749L53.9638 79.8442L54.8414 78.9281L55.7653 79.7974L56.6417 78.8812L57.565 79.7502L58.4411 78.8343L59.3644 79.7034L60.2405 78.7872L61.1638 79.6565L62.0405 78.7403L62.9635 79.6097L63.8396 78.6935L64.7629 79.5634L65.639 78.6466L66.5798 79.5163L67.5897 78.478Z" fill="white"/>
<path d="M65.7046 85.7378L63.6851 85.8274C63.6197 85.8303 63.558 85.8581 63.5128 85.905C63.4676 85.9519 63.4424 86.0143 63.4424 86.0792V86.999C63.4424 87.0333 63.4494 87.0673 63.4631 87.0988C63.4768 87.1304 63.4968 87.1588 63.522 87.1824C63.5471 87.206 63.5768 87.2242 63.6093 87.236C63.6418 87.2477 63.6764 87.2528 63.711 87.2509L65.7305 87.1381C65.7955 87.1345 65.8566 87.1065 65.9013 87.0596C65.9461 87.0128 65.9711 86.9507 65.9711 86.8862V85.99C65.9711 85.9558 65.9641 85.922 65.9506 85.8906C65.937 85.8592 65.9172 85.8309 65.8923 85.8073C65.8674 85.7837 65.8379 85.7654 65.8056 85.7535C65.7734 85.7415 65.739 85.7362 65.7046 85.7378Z" fill="#DCDCDC"/>
<path d="M65.7022 87.5153L63.683 87.6284C63.618 87.6318 63.5568 87.6598 63.5121 87.7067C63.4673 87.7536 63.4424 87.8157 63.4424 87.8802V88.8403C63.4424 88.8748 63.4495 88.909 63.4633 88.9406C63.4771 88.9723 63.4973 89.0009 63.5227 89.0245C63.5481 89.0481 63.578 89.0663 63.6108 89.0779C63.6435 89.0896 63.6783 89.0944 63.7131 89.0922L65.7326 88.9644C65.7971 88.9603 65.8575 88.9319 65.9017 88.8851C65.9459 88.8384 65.9705 88.7767 65.9705 88.7126V87.7671C65.9705 87.7328 65.9634 87.6989 65.9497 87.6674C65.936 87.6359 65.9161 87.6075 65.8909 87.584C65.8658 87.5604 65.8362 87.5422 65.8037 87.5303C65.7713 87.5185 65.7367 87.5134 65.7022 87.5153Z" fill="#DCDCDC"/>
<path d="M65.9702 83.1889V81.5433C65.9702 81.5095 65.9634 81.4759 65.95 81.4447C65.9367 81.4135 65.9172 81.3853 65.8926 81.3618C65.8681 81.3383 65.839 81.3199 65.8071 81.3077C65.7752 81.2956 65.7412 81.29 65.7071 81.2912L63.6875 81.3631C63.6217 81.3655 63.5594 81.3931 63.5137 81.4401C63.468 81.4872 63.4424 81.5499 63.4424 81.6153V83.279C63.4424 83.3131 63.4494 83.3469 63.4629 83.3782C63.4764 83.4096 63.4962 83.4379 63.521 83.4615C63.5459 83.485 63.5753 83.5034 63.6074 83.5153C63.6396 83.5273 63.6739 83.5327 63.7082 83.5312L65.7275 83.4417C65.793 83.4388 65.8549 83.4109 65.9001 83.3638C65.9454 83.3166 65.9705 83.254 65.9702 83.1889Z" fill="#DCDCDC"/>
<path d="M61.5092 85.9253L53.2867 86.2933C53.2213 86.2962 53.1595 86.3241 53.1143 86.371C53.0691 86.418 53.0439 86.4805 53.0439 86.5455V87.5813C53.0439 87.6156 53.051 87.6496 53.0647 87.6811C53.0783 87.7127 53.0984 87.7411 53.1235 87.7647C53.1487 87.7883 53.1784 87.8065 53.2109 87.8183C53.2434 87.8301 53.278 87.8351 53.3125 87.8332L61.5351 87.3733C61.6001 87.3699 61.6612 87.3418 61.706 87.295C61.7508 87.2481 61.7757 87.186 61.7757 87.1214V86.1775C61.7757 86.1433 61.7687 86.1095 61.7552 86.0781C61.7416 86.0467 61.7218 86.0184 61.6969 85.9948C61.672 85.9712 61.6425 85.9529 61.6102 85.941C61.578 85.929 61.5436 85.9237 61.5092 85.9253Z" fill="#DCDCDC"/>
<path d="M61.5071 87.7506L53.2845 88.2108C53.2196 88.2142 53.1584 88.2423 53.1136 88.2891C53.0689 88.336 53.0439 88.3981 53.0439 88.4627V89.5C53.044 89.5345 53.0511 89.5686 53.0649 89.6003C53.0788 89.6319 53.099 89.6604 53.1244 89.684C53.1497 89.7076 53.1797 89.7257 53.2124 89.7374C53.2451 89.749 53.2799 89.7538 53.3146 89.7516L61.5372 89.2308C61.6017 89.2267 61.6623 89.1984 61.7065 89.1516C61.7507 89.1048 61.7754 89.0431 61.7754 88.9789V88.0028C61.7754 87.9685 61.7684 87.9345 61.7547 87.903C61.741 87.8715 61.7211 87.843 61.6959 87.8194C61.6708 87.7958 61.6411 87.7776 61.6087 87.7657C61.5762 87.7539 61.5417 87.7488 61.5071 87.7506Z" fill="#DCDCDC"/>
<path d="M61.7751 83.3766V81.6925C61.7751 81.6586 61.7683 81.6251 61.7549 81.5938C61.7416 81.5626 61.722 81.5344 61.6974 81.5109C61.6728 81.4873 61.6437 81.4689 61.6118 81.4568C61.5798 81.4447 61.5458 81.4391 61.5116 81.4404L53.2891 81.734C53.2233 81.7364 53.161 81.764 53.1152 81.811C53.0695 81.8581 53.044 81.9208 53.0439 81.9862V83.7436C53.044 83.7777 53.0509 83.8115 53.0644 83.8428C53.0779 83.8742 53.0977 83.9025 53.1226 83.9261C53.1474 83.9497 53.1768 83.968 53.209 83.98C53.2412 83.9919 53.2755 83.9973 53.3098 83.9958L61.5324 83.6278C61.5976 83.6249 61.6592 83.5972 61.7044 83.5504C61.7496 83.5036 61.7749 83.4414 61.7751 83.3766Z" fill="#DCDCDC"/>
<path d="M83.2233 90.8917L82.5497 90.9442C82.3751 90.9582 82.1994 90.9509 82.0266 90.9228L79.3545 90.4906L79.3108 90.4838L76.2056 89.9809H76.1863L73.7529 89.59V76.0034H76.2008H76.2056L79.3108 76.1565L79.3569 76.1795L83.1127 76.323L83.2233 90.8917Z" fill="#073064"/>
<path d="M92.672 76.8684V89.5486C92.6731 89.7658 92.5902 89.9752 92.4403 90.1335C92.2905 90.2918 92.0851 90.3871 91.8666 90.3997L82.9544 90.9259C82.5935 90.947 82.2861 90.6498 82.2861 90.2813V77.0707C82.2861 76.7016 82.5779 76.3957 82.9397 76.3843L91.9162 76.1363C92.0148 76.1333 92.113 76.15 92.2049 76.1855C92.2968 76.221 92.3805 76.2745 92.4511 76.3428C92.5216 76.4112 92.5776 76.4929 92.6155 76.5833C92.6535 76.6736 92.6727 76.7705 92.672 76.8684Z" fill="#014898"/>
<path d="M73.7715 76.0037L82.2861 76.4036L91.9159 76.1374L82.0431 75.8181L73.7715 76.0037Z" fill="#073064"/>
<path d="M85.4102 90.7805L88.7145 90.5854V76.2256L85.4102 76.3172V90.7805Z" fill="#FF0D1B"/>
<path d="M85.5596 90.7721L88.7154 90.5856V76.2258L85.5596 76.3133V90.7721Z" fill="#FF0D1B"/>
<path d="M79.2663 76.199V90.4907L76.2393 89.981V76.1178L77.2035 76.0996L79.2663 76.199Z" fill="#FF0D1B"/>
<path d="M79.5765 75.8735L88.788 76.3931H85.4764L77.4229 75.9216L79.5765 75.8735Z" fill="#FF0D1B"/>
<path d="M84.058 75.4348C84.2724 74.131 84.4294 73.1781 85.2875 72.298C85.6484 71.9271 86.0445 71.5221 86.6923 71.4144C87.4376 71.2909 88.3885 71.5824 88.6493 72.1861C88.8968 72.7594 88.3137 73.1333 88.5615 73.792C88.8093 74.4506 89.5356 74.4396 89.6141 74.9744C89.6815 75.4271 89.2361 75.941 88.7864 76.1818C88.0096 76.5975 87.5687 76.0126 86.0517 76.1069C85.0063 76.1722 84.403 76.5005 84.12 76.1693C83.9861 76.0117 83.9994 75.7926 84.058 75.4348Z" fill="#FF0D1B"/>
<path d="M78.4013 72.211C79.0329 71.7174 79.6946 72.2677 80.4711 71.7255C81.257 71.1761 81.0287 70.2948 81.6378 70.045C82.3457 69.7547 83.3941 70.6404 83.8958 71.2026C85.1701 72.6303 85.7686 75.1655 84.7614 76.0572C84.3833 76.3917 83.3129 76.2538 81.1872 75.9644C78.7577 75.6334 78.4083 75.3973 78.1758 75.0861C77.549 74.2502 77.6898 72.7694 78.4013 72.211Z" fill="#FF0D1B"/>
<path d="M82.5407 76.1426L79.31 76.2638L76.2002 76.1176L77.2056 76.0994L81.6077 76.0215L82.5407 76.1426Z" fill="#FF0D1B"/>
</g>
<defs>
<linearGradient id="paint0_linear_428_156596" x1="28.3237" y1="77.1987" x2="45.7465" y2="77.5499" gradientUnits="userSpaceOnUse">
<stop stop-color="#FF9085"/>
<stop offset="1" stop-color="#FB6FBB"/>
</linearGradient>
<clipPath id="clip0_428_156596">
<rect width="89" height="87" fill="white" transform="translate(15 9)"/>
</clipPath>
</defs>
</svg>
