<svg width="111" height="110" viewBox="0 0 111 110" fill="none" xmlns="http://www.w3.org/2000/svg">
<g clip-path="url(#clip0_428_157321)">
<path d="M28.9319 86.9446C38.8354 86.9446 46.8638 86.3317 46.8638 85.5756C46.8638 84.8195 38.8354 84.2065 28.9319 84.2065C19.0284 84.2065 11 84.8195 11 85.5756C11 86.3317 19.0284 86.9446 28.9319 86.9446Z" fill="#E6E6E6"/>
<path d="M24.707 37.9662C27.8277 36.632 31.7146 37.4773 35.5105 38.0641C35.5459 37.3535 35.974 36.4888 35.5255 35.9931C34.9806 35.3908 35.0308 34.7581 35.3587 34.1216C36.1972 32.4942 34.9959 30.7625 33.7829 29.3227C33.5095 28.9988 33.164 28.7444 32.7744 28.5801C32.3849 28.4157 31.9622 28.346 31.5408 28.3767L29.2939 28.538C28.7472 28.5773 28.2254 28.7834 27.7984 29.1289C27.3714 29.4744 27.0595 29.9428 26.9046 30.4713C26.3681 31.2048 26.0809 31.9363 26.2617 32.6639C25.4581 33.2159 25.3231 33.8823 25.6842 34.6335C25.9904 35.1065 25.9871 35.5669 25.6703 36.0146C25.2541 36.5853 24.9354 37.2217 24.7271 37.8977L24.707 37.9662Z" fill="#221F1F"/>
<path d="M98.8671 78.415H35.2635C34.6979 78.415 34.1555 78.1891 33.7555 77.7871C33.3555 77.385 33.1309 76.8397 33.1309 76.2712C56.1871 73.5776 78.8101 73.5776 101 76.2712C101 76.8397 100.775 77.385 100.375 77.7871C99.9751 78.1891 99.4327 78.415 98.8671 78.415Z" fill="#221F1F"/>
<path d="M101 76.3968L33.1309 76.2707L40.9966 62.9665L41.0343 62.9035V33.5826C41.0342 33.2267 41.1039 32.8743 41.2394 32.5455C41.3749 32.2167 41.5735 31.9179 41.8238 31.6662C42.0742 31.4146 42.3714 31.215 42.6985 31.0788C43.0256 30.9426 43.3761 30.8725 43.7302 30.8726H90.024C90.3781 30.8725 90.7286 30.9426 91.0557 31.0788C91.3828 31.215 91.6801 31.4146 91.9304 31.6662C92.1807 31.9179 92.3793 32.2167 92.5148 32.5455C92.6503 32.8743 92.72 33.2267 92.72 33.5826V63.1053L101 76.3968Z" fill="#524E4E"/>
<path d="M43.6692 32.7642C43.4363 32.7644 43.2131 32.8575 43.0485 33.023C42.8839 33.1885 42.7913 33.4129 42.791 33.6469V60.3814C42.7913 60.6154 42.8839 60.8398 43.0485 61.0053C43.2131 61.1708 43.4364 61.2639 43.6692 61.2641H90.4623C90.6951 61.2638 90.9183 61.1707 91.0829 61.0053C91.2476 60.8398 91.3402 60.6154 91.3405 60.3814V33.6469C91.3402 33.4129 91.2476 33.1885 91.0829 33.023C90.9183 32.8575 90.6951 32.7644 90.4623 32.7642H43.6692Z" fill="white"/>
<path d="M43.8655 64.7954C43.7936 64.7955 43.7231 64.8163 43.6626 64.8553C43.602 64.8944 43.5538 64.95 43.5236 65.0156L41.0999 70.3121C41.0735 70.3697 41.062 70.4331 41.0663 70.4964C41.0707 70.5597 41.0908 70.6208 41.1249 70.6743C41.1589 70.7277 41.2058 70.7716 41.2612 70.8021C41.3165 70.8325 41.3786 70.8485 41.4418 70.8485H92.4106C92.4747 70.8485 92.5378 70.832 92.5939 70.8006C92.6499 70.7692 92.697 70.7239 92.7307 70.6691C92.7644 70.6142 92.7836 70.5516 92.7865 70.4872C92.7894 70.4227 92.7758 70.3586 92.7471 70.301L90.1127 65.0045C90.0816 64.9416 90.0336 64.8886 89.9741 64.8516C89.9146 64.8147 89.8461 64.7952 89.7761 64.7954H43.8655Z" fill="#221F1F"/>
<path d="M66.877 32.3229C67.1888 32.3229 67.4416 32.0689 67.4416 31.7555C67.4416 31.4421 67.1888 31.188 66.877 31.188C66.5652 31.188 66.3125 31.4421 66.3125 31.7555C66.3125 32.0689 66.5652 32.3229 66.877 32.3229Z" fill="white"/>
<path d="M61.8671 71.8574C61.7844 71.8575 61.704 71.885 61.6383 71.9356C61.5726 71.9862 61.5253 72.0571 61.5037 72.1373L60.8958 74.4073C60.8807 74.4633 60.8788 74.5221 60.89 74.5791C60.9012 74.6361 60.9253 74.6897 60.9604 74.7358C60.9956 74.7819 61.0408 74.8192 61.0926 74.8449C61.1444 74.8706 61.2014 74.884 61.2591 74.884H72.8211C72.8811 74.884 72.9403 74.8695 72.9936 74.8419C73.0469 74.8143 73.0929 74.7742 73.1277 74.7251C73.1625 74.6759 73.1851 74.6191 73.1936 74.5594C73.2021 74.4997 73.1963 74.4389 73.1767 74.3819L72.395 72.112C72.3694 72.0377 72.3214 71.9732 72.2577 71.9276C72.1939 71.882 72.1176 71.8575 72.0394 71.8574H61.8671Z" fill="#221F1F"/>
<path d="M92.7204 62.4624V62.9668H40.9971L41.036 62.9038V62.4624H92.7204Z" fill="#221F1F"/>
<path d="M91.2776 41.6548C96.1276 41.6548 100.059 37.7027 100.059 32.8274C100.059 27.9522 96.1276 24 91.2776 24C86.4277 24 82.4961 27.9522 82.4961 32.8274C82.4961 37.7027 86.4277 41.6548 91.2776 41.6548Z" fill="#FF0D1B"/>
<path d="M94.9156 36.6735H87.6395C87.5065 36.6734 87.3789 36.6202 87.2848 36.5256C87.1907 36.4311 87.1378 36.3029 87.1377 36.1691V31.7554C87.1378 31.6217 87.1908 31.4934 87.2848 31.3989C87.3789 31.3043 87.5065 31.2511 87.6395 31.251H94.9156C95.0487 31.2511 95.1762 31.3043 95.2703 31.3989C95.3644 31.4934 95.4173 31.6217 95.4174 31.7554V36.1691C95.4173 36.3029 95.3644 36.4311 95.2703 36.5256C95.1762 36.6202 95.0487 36.6734 94.9156 36.6735ZM87.6395 31.7554V36.1691H94.916L94.9156 31.7554L87.6395 31.7554Z" fill="white"/>
<path d="M93.5358 31.7556H89.0195V29.7379C89.0195 28.2765 89.9692 27.2158 91.2776 27.2158C92.5861 27.2158 93.5358 28.2765 93.5358 29.7379L93.5358 31.7556ZM89.5213 31.2512H93.034V29.7379C93.034 28.55 92.3118 27.7202 91.2777 27.7202C90.2435 27.7202 89.5213 28.55 89.5213 29.7379L89.5213 31.2512Z" fill="white"/>
<path d="M91.2772 34.3409C91.5543 34.3409 91.779 34.115 91.779 33.8365C91.779 33.5579 91.5543 33.332 91.2772 33.332C91.0001 33.332 90.7754 33.5579 90.7754 33.8365C90.7754 34.115 91.0001 34.3409 91.2772 34.3409Z" fill="white"/>
<path d="M85.1476 52.1964H48.9841C48.8066 52.1962 48.6364 52.1252 48.5108 51.999C48.3853 51.8728 48.3147 51.7016 48.3145 51.5232V42.5057C48.3147 42.3272 48.3853 42.1561 48.5108 42.0299C48.6364 41.9037 48.8066 41.8327 48.9841 41.8325H85.1476C85.3251 41.8327 85.4953 41.9037 85.6209 42.0299C85.7464 42.1561 85.817 42.3272 85.8172 42.5057V51.5232C85.817 51.7016 85.7464 51.8728 85.6209 51.999C85.4953 52.1252 85.3251 52.1962 85.1476 52.1964ZM48.9841 42.1018C48.8776 42.1019 48.7755 42.1445 48.7001 42.2202C48.6248 42.296 48.5824 42.3986 48.5823 42.5057V51.5232C48.5824 51.6303 48.6248 51.7329 48.7001 51.8087C48.7755 51.8844 48.8776 51.927 48.9841 51.9271H85.1476C85.2541 51.927 85.3562 51.8844 85.4316 51.8087C85.5069 51.7329 85.5493 51.6303 85.5494 51.5232V42.5057C85.5493 42.3986 85.5069 42.2959 85.4316 42.2202C85.3562 42.1445 85.2541 42.1019 85.1476 42.1018L48.9841 42.1018Z" fill="#E6E6E6"/>
<path d="M54.603 49.4107C56.1096 49.4107 57.3309 48.183 57.3309 46.6685C57.3309 45.154 56.1096 43.9263 54.603 43.9263C53.0964 43.9263 51.875 45.154 51.875 46.6685C51.875 48.183 53.0964 49.4107 54.603 49.4107Z" fill="#E6E6E6"/>
<path d="M60.9036 44.8403C60.8439 44.8402 60.7846 44.852 60.7294 44.8749C60.6742 44.8978 60.624 44.9315 60.5817 44.9739C60.5394 45.0164 60.5058 45.0668 60.4829 45.1223C60.46 45.1778 60.4482 45.2373 60.4482 45.2974C60.4482 45.3574 60.46 45.4169 60.4829 45.4724C60.5058 45.5279 60.5394 45.5783 60.5817 45.6208C60.624 45.6632 60.6742 45.6969 60.7294 45.7198C60.7846 45.7427 60.8439 45.7545 60.9036 45.7544H82.3377C82.4582 45.7544 82.5739 45.7063 82.6592 45.6205C82.7444 45.5348 82.7923 45.4186 82.7923 45.2974C82.7923 45.1762 82.7444 45.0599 82.6592 44.9742C82.5739 44.8885 82.4582 44.8403 82.3377 44.8403H60.9036Z" fill="#E6E6E6"/>
<path d="M60.9029 47.5825C60.7823 47.5825 60.6667 47.6307 60.5814 47.7164C60.4961 47.8021 60.4482 47.9183 60.4482 48.0396C60.4482 48.1608 60.4961 48.277 60.5814 48.3627C60.6667 48.4484 60.7823 48.4966 60.9029 48.4966H70.126C70.2466 48.4966 70.3623 48.4484 70.4475 48.3627C70.5328 48.277 70.5807 48.1608 70.5807 48.0396C70.5807 47.9183 70.5328 47.8021 70.4475 47.7164C70.3623 47.6307 70.2466 47.5825 70.126 47.5825H60.9029Z" fill="#E6E6E6"/>
<path d="M40.9084 47.7675L34.2233 51.3402L34.1387 48.363C36.3206 47.9968 38.3966 47.3593 40.316 46.3215L41.0152 44.5851C41.0914 44.3959 41.2152 44.2298 41.3745 44.1032C41.5338 43.9767 41.7231 43.8939 41.9239 43.8631C42.1246 43.8323 42.3299 43.8545 42.5195 43.9275C42.7091 44.0005 42.8766 44.1218 43.0055 44.2796C43.194 44.5103 43.2883 44.8045 43.2692 45.1025C43.25 45.4006 43.1189 45.6801 42.9024 45.8846L40.9084 47.7675Z" fill="#FFD2BB"/>
<path d="M24.5736 68.3947C24.5248 68.2149 24.5145 68.0268 24.5432 67.8427C24.572 67.6586 24.6392 67.4827 24.7404 67.3265L26.2089 65.061C26.5562 64.5252 27.0892 64.1381 27.7044 63.975C28.3196 63.8119 28.9731 63.8842 29.5382 64.1781C28.921 65.2341 29.0071 66.1605 29.7514 66.9656C28.5959 67.5326 27.5281 68.2644 26.5808 69.1384C26.4079 69.2569 26.2093 69.3321 26.0016 69.3579C25.7938 69.3836 25.583 69.3591 25.3866 69.2863C25.1903 69.2136 25.014 69.0947 24.8726 68.9396C24.7312 68.7845 24.6287 68.5977 24.5736 68.3947Z" fill="#221F1F"/>
<path d="M41.2123 65.4326C40.9901 65.8049 40.6764 66.1136 40.3014 66.3289C39.9263 66.5443 39.5025 66.6591 39.0706 66.6624L29.3147 66.7367L28.8916 64.2698L33.2073 62.9939L29.5686 60.1868L33.5458 55.5083L40.7696 62.2764C41.1918 62.6719 41.4661 63.2012 41.5467 63.7757C41.6273 64.3502 41.5093 64.9351 41.2123 65.4326Z" fill="#221F1F"/>
<path d="M27.792 82.3032H25.5072C23.4558 68.1682 21.3677 53.9937 27.5381 48.7031L34.8156 49.894L33.8847 56.1036L29.8229 60.7821L27.792 82.3032Z" fill="#221F1F"/>
<path d="M29.7997 85.5052C29.6208 85.5543 29.4337 85.5647 29.2505 85.5358C29.0674 85.5069 28.8924 85.4394 28.737 85.3377L26.2562 85.0025C25.7232 84.6534 25.3381 84.1176 25.1758 83.4992C25.0134 82.8809 25.0854 82.2239 25.3777 81.6558C26.4283 82.2762 27.3499 82.1896 28.1507 81.4414C28.7166 82.59 29.6489 82.5199 30.5394 83.4875C30.6573 83.6614 30.7321 83.861 30.7578 84.0698C30.7834 84.2786 30.759 84.4905 30.6866 84.6879C30.6142 84.8853 30.496 85.0625 30.3417 85.2047C30.1874 85.3468 30.0016 85.4499 29.7997 85.5052Z" fill="#221F1F"/>
<path d="M33.2076 39.261L28.9766 38.2402C29.6793 36.7943 29.7371 35.1854 29.3997 33.4767L32.2768 33.3916C32.3669 35.5165 32.6397 37.5017 33.2076 39.261Z" fill="#FFD2BB"/>
<path d="M34.3704 52.455C31.2904 54.5648 29.1141 52.5272 27.4533 49.3834C27.6841 47.4597 27.3105 45.1576 26.6184 42.6562C26.3106 41.5529 26.4255 40.3737 26.9404 39.3514C27.4553 38.3291 28.3328 37.538 29.3996 37.1343L33.0384 38.6654C36.128 41.197 36.7362 43.9393 35.577 46.8315L34.3704 52.455Z" fill="#FF0D1B"/>
<path d="M25.507 41.3875L22.1222 43.1738L28.1303 46.7465L28.9663 48.8194C29.0221 48.9577 29.0492 49.1061 29.0462 49.2553C29.0431 49.4046 29.0098 49.5516 28.9483 49.6875C28.8868 49.8234 28.7984 49.9453 28.6886 50.0458C28.5787 50.1462 28.4496 50.2231 28.3092 50.2718C28.1496 50.3271 27.9795 50.3445 27.812 50.3227C27.6446 50.3009 27.4845 50.2404 27.3442 50.146C27.2039 50.0516 27.0873 49.9258 27.0034 49.7785C26.9196 49.6312 26.8708 49.4664 26.8609 49.297L26.7763 47.8523L19.1401 45.3192C18.8828 45.2338 18.6482 45.0908 18.4541 44.9008C18.26 44.7108 18.1114 44.4789 18.0196 44.2227C17.8858 43.8491 17.879 43.4416 18.0003 43.0638C18.1215 42.6859 18.3639 42.3592 18.6895 42.1346L24.83 37.8999L25.507 41.3875Z" fill="#FFD2BB"/>
<path d="M28.8918 41.7278C27.4801 41.106 26.1964 41.7815 24.5761 42.3233L24.3223 37.8149C25.9312 36.9529 27.4651 36.7205 28.8918 37.3896L28.8918 41.7278Z" fill="#FF0D1B"/>
<path d="M30.5803 35.6248C32.0722 35.6248 33.2817 34.4091 33.2817 32.9093C33.2817 31.4096 32.0722 30.1938 30.5803 30.1938C29.0884 30.1938 27.8789 31.4096 27.8789 32.9093C27.8789 34.4091 29.0884 35.6248 30.5803 35.6248Z" fill="#FFD2BB"/>
<path d="M33.812 32.5665C31.1374 32.8298 29.0994 32.3901 27.7969 31.1381V30.1299H33.585L33.812 32.5665Z" fill="#221F1F"/>
</g>
<defs>
<clipPath id="clip0_428_157321">
<rect width="90" height="62.9448" fill="white" transform="translate(11 24)"/>
</clipPath>
</defs>
</svg>
