<svg width="110" height="110" viewBox="0 0 110 110" fill="none" xmlns="http://www.w3.org/2000/svg">
<g clip-path="url(#clip0_490_172191)">
<path d="M48.8141 34.5164H48.4784V25.3217C48.4784 24.6228 48.3408 23.9308 48.0734 23.2852C47.8059 22.6395 47.414 22.0528 46.9198 21.5587C46.4257 21.0645 45.8391 20.6725 45.1935 20.4051C44.5478 20.1377 43.8559 20 43.1571 20H23.6778C22.2665 20 20.913 20.5607 19.915 21.5587C18.9171 22.5567 18.3564 23.9103 18.3564 25.3216V75.7646C18.3564 76.4635 18.4941 77.1555 18.7615 77.8012C19.0289 78.4468 19.4209 79.0335 19.915 79.5276C20.4092 80.0218 20.9958 80.4138 21.6414 80.6812C22.287 80.9487 22.979 81.0863 23.6778 81.0863H43.157C44.5683 81.0863 45.9219 80.5256 46.9198 79.5276C47.9178 78.5296 48.4784 77.1761 48.4784 75.7647V41.0613H48.8141V34.5164Z" fill="#014898"/>
<path d="M43.3712 21.3848H40.8285C40.9454 21.6715 40.9901 21.9825 40.9585 22.2905C40.9269 22.5985 40.82 22.894 40.6474 23.151C40.4747 23.408 40.2414 23.6186 39.9682 23.7642C39.6949 23.9098 39.3901 23.9859 39.0805 23.986H27.9211C27.6115 23.9859 27.3066 23.9098 27.0334 23.7642C26.7601 23.6186 26.5269 23.408 26.3542 23.151C26.1815 22.894 26.0747 22.5985 26.0431 22.2905C26.0115 21.9825 26.0561 21.6715 26.173 21.3848H23.7982C23.2763 21.3848 22.7595 21.4876 22.2774 21.6873C21.7953 21.887 21.3572 22.1797 20.9882 22.5488C20.6191 22.9178 20.3264 23.3559 20.1267 23.8381C19.927 24.3202 19.8242 24.837 19.8242 25.3589V75.7279C19.8242 76.2498 19.927 76.7666 20.1267 77.2487C20.3264 77.7309 20.6191 78.169 20.9882 78.5381C21.3572 78.9071 21.7953 79.1998 22.2774 79.3995C22.7595 79.5993 23.2763 79.7021 23.7982 79.7021H43.3712C43.8931 79.7021 44.4098 79.5993 44.892 79.3995C45.3741 79.1998 45.8122 78.9071 46.1812 78.5381C46.5502 78.169 46.8429 77.7309 47.0426 77.2487C47.2424 76.7666 47.3451 76.2498 47.3451 75.7279V25.3589C47.3451 24.837 47.2424 24.3202 47.0426 23.8381C46.8429 23.3559 46.5502 22.9178 46.1812 22.5488C45.8122 22.1797 45.3741 21.887 44.892 21.6873C44.4098 21.4876 43.8931 21.3848 43.3712 21.3848Z" fill="white"/>
<path d="M55.0573 81.0946H12.1127C12.0828 81.0946 12.0542 81.0827 12.033 81.0616C12.0119 81.0404 12 81.0118 12 80.9819C12 80.952 12.0119 80.9233 12.033 80.9022C12.0542 80.881 12.0828 80.8691 12.1127 80.8691H55.0573C55.0872 80.8691 55.1158 80.881 55.137 80.9022C55.1581 80.9233 55.17 80.952 55.17 80.9819C55.17 81.0118 55.1581 81.0404 55.137 81.0616C55.1158 81.0827 55.0872 81.0946 55.0573 81.0946Z" fill="#757575"/>
<path d="M33.5848 58.9655C38.8416 58.9655 43.1032 54.7038 43.1032 49.4466C43.1032 44.1895 38.8416 39.9277 33.5848 39.9277C28.3279 39.9277 24.0664 44.1895 24.0664 49.4466C24.0664 54.7038 28.3279 58.9655 33.5848 58.9655Z" fill="#FF0D1B"/>
<path d="M32.6419 53.0775C32.4277 53.0778 32.2193 53.0085 32.048 52.8801L32.0373 52.8721L29.8004 51.1608C29.6968 51.0814 29.6098 50.9823 29.5445 50.8693C29.4792 50.7563 29.4368 50.6315 29.4197 50.502C29.4026 50.3726 29.4112 50.2411 29.4449 50.115C29.4786 49.9889 29.5369 49.8706 29.6163 49.767C29.6957 49.6634 29.7948 49.5765 29.9078 49.5111C30.0208 49.4458 30.1456 49.4034 30.275 49.3863C30.4045 49.3692 30.536 49.3778 30.6621 49.4115C30.7882 49.4452 30.9064 49.5035 31.01 49.5829L32.4589 50.6941L35.8828 46.227C35.9622 46.1234 36.0612 46.0365 36.1742 45.9712C36.2872 45.9059 36.4119 45.8635 36.5413 45.8464C36.6707 45.8294 36.8021 45.8379 36.9282 45.8716C37.0542 45.9054 37.1724 45.9636 37.276 46.043L37.2763 46.0432L37.255 46.0727L37.2768 46.0432C37.4858 46.2038 37.6225 46.4407 37.6569 46.7019C37.6914 46.9632 37.6208 47.2275 37.4606 47.4367L33.4334 52.6886C33.3403 52.8096 33.2205 52.9075 33.0833 52.9748C32.9462 53.042 32.7955 53.0767 32.6427 53.0763L32.6419 53.0775Z" fill="white"/>
<path d="M83.2521 82.0308C83.3679 81.8436 83.5043 81.6699 83.6586 81.5129C83.7222 81.4469 83.7893 81.3847 83.8585 81.3242C84.2794 80.9496 84.7924 80.6938 85.3449 80.5832C85.8973 80.4726 86.4693 80.5112 87.0019 80.6949C87.5345 80.8787 88.0086 81.201 88.3754 81.6287C88.7421 82.0564 88.9884 82.5741 89.0887 83.1285C89.5536 81.4093 88.3435 79.7158 87.1268 78.415C85.9095 77.1147 84.5182 75.6882 84.5252 73.9064C84.5286 72.9149 85.0136 72.0304 85.7459 71.3746C85.7684 71.3547 85.791 71.3349 85.8141 71.3157C86.6991 70.5571 87.8377 70.1603 89.0026 70.2045C91.1666 70.3204 93.0561 71.7749 94.3683 73.5002C96.4805 76.2762 97.4061 80.1729 95.9274 83.333C94.6268 86.1123 91.8529 87.7628 89.0218 89.0896C88.6265 89.2749 88.232 89.4546 87.8383 89.6288C87.8357 89.6295 87.8328 89.6313 87.8302 89.632C87.8113 89.6403 87.7923 89.6487 87.7745 89.6572C87.6933 89.6931 87.612 89.729 87.5314 89.7644L87.5688 89.7888L87.6851 89.8641C87.6448 89.8397 87.6049 89.816 87.5645 89.7915C87.5525 89.7841 87.5398 89.7772 87.5278 89.7698C86.1374 88.9354 84.7276 88.0528 83.7671 86.7502C82.7708 85.3978 82.3703 83.4606 83.2521 82.0308Z" fill="#DCDCDC"/>
<path d="M92.5285 78.89C92.8364 79.5904 93.0406 80.332 93.1345 81.0914C93.2083 81.7685 93.1806 82.4529 93.0521 83.1218C92.7759 84.4964 92.1738 85.7845 91.2962 86.878C90.6342 87.708 89.8699 88.4511 89.0215 89.0895C88.6262 89.2749 88.2316 89.4546 87.8379 89.6287C87.8353 89.6294 87.8324 89.6313 87.8298 89.632C87.8109 89.6403 87.7919 89.6486 87.7741 89.6572C87.6929 89.693 87.6116 89.7289 87.5311 89.7643L87.5684 89.7887L87.6848 89.8641C87.6444 89.8396 87.6045 89.8159 87.5641 89.7915C87.5521 89.7841 87.5394 89.7771 87.5275 89.7697C87.8335 88.6993 87.8784 87.5712 87.6586 86.4798C87.4389 85.3884 86.9607 84.3656 86.2642 83.4971C85.564 82.6396 84.6711 81.9597 83.6582 81.5128C83.7218 81.4468 83.7889 81.3846 83.8581 81.3241C84.2483 81.5033 84.6218 81.7166 84.9744 81.9616C86.2354 82.8332 87.1823 84.0877 87.6749 85.5393C88.1147 86.8563 88.1696 88.2714 87.8333 89.6185C87.903 89.5729 87.9731 89.5261 88.0412 89.4795C89.3365 88.6059 90.5303 87.5568 91.4295 86.2702C92.2051 85.1829 92.7014 83.9215 92.8747 82.5972C93.0471 81.1506 92.6851 79.728 92.0393 78.4372C91.3261 77.0563 90.4275 75.7793 89.3684 74.6419C88.3046 73.473 87.1018 72.4388 85.7867 71.5621C85.7571 71.5421 85.7363 71.5115 85.7286 71.4766C85.7209 71.4417 85.727 71.4052 85.7454 71.3746C85.7596 71.3467 85.7841 71.3256 85.8137 71.3157C85.8287 71.3119 85.8444 71.3115 85.8596 71.3145C85.8749 71.3176 85.8892 71.3241 85.9016 71.3335C86.0639 71.4418 86.2249 71.5511 86.3839 71.6637C87.7082 72.6014 88.9108 73.7001 89.9643 74.9344C90.9822 76.1241 91.9086 77.446 92.5285 78.89Z" fill="white"/>
<path d="M64.1806 24.4201C65.297 24.4201 66.2021 23.515 66.2021 22.3985C66.2021 21.282 65.297 20.377 64.1806 20.377C63.0642 20.377 62.1592 21.282 62.1592 22.3985C62.1592 23.515 63.0642 24.4201 64.1806 24.4201Z" fill="#DCDCDC"/>
<path d="M89.3154 51.4728C89.9961 51.4728 90.5479 50.921 90.5479 50.2403C90.5479 49.5596 89.9961 49.0078 89.3154 49.0078C88.6348 49.0078 88.083 49.5596 88.083 50.2403C88.083 50.921 88.6348 51.4728 89.3154 51.4728Z" fill="#DCDCDC"/>
<path d="M53.2471 54.8547C53.9277 54.8547 54.4795 54.3028 54.4795 53.6222C54.4795 52.9415 53.9277 52.3896 53.2471 52.3896C52.5664 52.3896 52.0146 52.9415 52.0146 53.6222C52.0146 54.3028 52.5664 54.8547 53.2471 54.8547Z" fill="#DCDCDC"/>
<path d="M53.9428 89.9999H96.8873C96.9172 89.9999 96.9459 89.988 96.967 89.9668C96.9882 89.9457 97.0001 89.917 97.0001 89.8871C97.0001 89.8572 96.9882 89.8286 96.967 89.8074C96.9459 89.7863 96.9172 89.7744 96.8873 89.7744H53.9428C53.9129 89.7744 53.8842 89.7863 53.8631 89.8074C53.842 89.8286 53.8301 89.8572 53.8301 89.8871C53.8301 89.917 53.842 89.9457 53.8631 89.9668C53.8842 89.988 53.9129 89.9999 53.9428 89.9999Z" fill="#757575"/>
<path d="M92.1485 30.8927C92.2048 30.4923 92.1124 30.0852 91.8887 29.7484C91.6649 29.4116 91.3255 29.1686 90.9345 29.0654C90.5436 28.9622 90.1284 29.0061 89.7677 29.1885C89.4069 29.371 89.1256 29.6796 88.977 30.0556L85.4922 34.0509L86.5147 36.9069L90.0194 32.2385C90.2481 32.3118 90.49 32.334 90.7282 32.3037C90.9664 32.2733 91.1951 32.191 91.3981 32.0627C91.6011 31.9344 91.7735 31.7631 91.9031 31.561C92.0328 31.3588 92.1165 31.1307 92.1485 30.8927Z" fill="#FFD2BB"/>
<path d="M77.7027 46.4384L89.2706 34.0921L87.7102 31.6113L73.2012 43.8826L77.7027 46.4384Z" fill="#014898"/>
<path d="M75.1212 38.9372C77.3623 38.9372 79.179 37.1204 79.179 34.8793C79.179 32.6381 77.3623 30.8213 75.1212 30.8213C72.8802 30.8213 71.0635 32.6381 71.0635 34.8793C71.0635 37.1204 72.8802 38.9372 75.1212 38.9372Z" fill="#221F1F"/>
<path d="M75.4473 32.5864C76.3204 31.7009 77.3771 31.0176 78.5428 30.5845C79.2911 30.3073 80.1055 30.136 80.8878 30.2935C81.6701 30.4509 82.4099 30.9921 82.6282 31.7597C82.8066 32.3874 82.6224 33.0632 82.3454 33.6541C82.0685 34.2449 81.6987 34.7928 81.4747 35.4057C81.2462 36.0311 81.1775 36.7037 81.2748 37.3624C81.3721 38.021 81.6324 38.645 82.032 39.1776C82.4316 39.7101 82.9579 40.1345 83.563 40.412C84.1682 40.6896 84.8332 40.8116 85.4975 40.767C84.7288 40.8701 84.0203 41.2313 83.269 41.4236C82.5176 41.6159 81.6309 41.6028 81.0726 41.0646C80.4818 40.495 80.47 39.5691 80.4986 38.749C80.541 37.5299 80.5835 36.3108 80.626 35.0917C80.6476 34.47 80.6661 33.8284 80.4419 33.2481C80.2177 32.6678 79.6849 32.1597 79.0629 32.165C78.5914 32.169 78.1741 32.4546 77.7961 32.7363C77.418 33.0179 77.0179 33.3185 76.5482 33.3603C76.0787 33.4022 75.5425 33.0547 75.5776 32.5845L75.4473 32.5864Z" fill="#221F1F"/>
<path d="M59.7098 62.1265C59.3202 62.2347 58.9045 62.1963 58.5414 62.0184C58.1783 61.8406 57.893 61.5358 57.7397 61.1617C57.5863 60.7876 57.5755 60.3702 57.7092 59.9886C57.843 59.6071 58.1121 59.2879 58.4655 59.0915L61.971 55.1143L64.936 55.7549L60.7658 59.8397C60.8683 60.0568 60.922 60.2939 60.923 60.534C60.924 60.7742 60.8723 61.0116 60.7717 61.2296C60.671 61.4477 60.5237 61.641 60.3403 61.7959C60.1568 61.9509 59.9416 62.0637 59.7098 62.1265Z" fill="#FFD2BB"/>
<path d="M71.2422 47.8875L62.505 58.8553L59.8418 57.6325L70.1113 41.6436L71.2422 47.8875Z" fill="#014898"/>
<path d="M64.2708 81.0063L62.1885 80.9736L62.4389 88.0712H64.2704L64.2708 81.0063Z" fill="#FFD2BB"/>
<path d="M64.7379 87.4728L61.1308 87.4727H61.1307C60.5211 87.4727 59.9364 87.7149 59.5053 88.146C59.0743 88.5771 58.8321 89.1618 58.832 89.7714V89.8461L64.7378 89.8463L64.7379 87.4728Z" fill="#221F1F"/>
<path d="M78.0579 79.124L75.7832 80.5844L80.3333 86.0588L81.8746 85.0692L78.0579 79.124Z" fill="#FFD2BB"/>
<path d="M81.9447 84.3135L78.9094 86.2623L78.9092 86.2624C78.3963 86.5918 78.0351 87.1115 77.9053 87.7072C77.7754 88.3028 77.8875 88.9257 78.2169 89.4387L78.2572 89.5016L83.2269 86.3108L81.9447 84.3135Z" fill="#221F1F"/>
<path d="M78.8681 57.4501C78.8681 57.4501 73.814 40.6628 72.1898 40.436C70.5655 40.2091 67.9485 44.7434 67.9485 44.7434C64.5554 49.0728 61.0566 63.0968 61.0566 63.0968C61.0566 63.0968 66.8893 63.4618 71.1529 65.7304C75.4166 67.9989 80.4483 65.6155 80.4483 65.6155L78.8681 57.4501Z" fill="#014898"/>
<path opacity="0.1" d="M78.8681 57.451C78.8681 57.451 73.814 40.6637 72.1898 40.4369C70.5655 40.21 68.6132 44.7903 68.6132 44.7903C66.9225 51.779 61.0566 63.0977 61.0566 63.0977C61.0566 63.0977 66.8893 63.4627 71.1529 65.7313C75.4166 67.9998 80.4483 65.6164 80.4483 65.6164L78.8681 57.451Z" fill="#221F1F"/>
<path d="M74.7221 52.4281V60.8636L75.7148 73.083L80.6743 82.3262L78.3073 84.017L71.5444 75.2248L68.8695 66.4946L64.6687 85.8206L61.5127 85.5951L63.7046 58.8L67.8639 51.2578L74.7221 52.4281Z" fill="#221F1F"/>
<path d="M69.6261 44.2691C68.0481 45.8472 69.5134 47.538 69.5134 47.538L67.71 51.5959L74.811 53.5122L77.2926 42.4229L75.6019 40.6193C72.2204 40.5066 72.2186 40.4365 72.2186 40.4365C71.6261 41.0163 69.6261 44.2691 69.6261 44.2691Z" fill="#FF0D1B"/>
<path d="M77.5785 41.2739C77.256 41.0358 76.8895 40.8641 76.5001 40.7687C76.1108 40.6733 75.7064 40.6561 75.3103 40.7181C74.9143 40.7801 74.5345 40.9201 74.1929 41.1299C73.8513 41.3397 73.5548 41.6152 73.3204 41.9405C71.5353 44.4262 69.8846 48.4401 72.1589 53.4461C75.8108 61.4842 78.9887 65.5991 80.2807 65.5987C80.3371 65.5992 80.3932 65.5904 80.4467 65.5726C81.2419 65.3028 82.3917 63.9571 82.5999 62.7712C82.6744 62.3467 82.6567 61.7555 82.1491 61.3495C80.691 60.1833 78.0735 56.5519 77.257 51.7723C76.8058 49.1312 77.6808 46.7255 78.4944 45.1724C78.838 44.5298 78.9385 43.7849 78.7775 43.0742C78.6165 42.3635 78.2048 41.7346 77.6178 41.3028L77.5785 41.2739Z" fill="#014898"/>
<path d="M75.3301 38.5388C76.7776 37.7475 77.3096 35.9325 76.5183 34.485C75.7271 33.0374 73.9122 32.5054 72.4647 33.2967C71.0172 34.088 70.4852 35.903 71.2765 37.3506C72.0678 38.7981 73.8826 39.3301 75.3301 38.5388Z" fill="#FFD2BB"/>
<path d="M69.6963 35.692H74.0094L74.0536 35.0727L74.2748 35.692H74.9389L75.0266 34.4646L75.4649 35.692H76.7499V35.6312C76.749 34.7767 76.4091 33.9575 75.8049 33.3532C75.2008 32.749 74.3816 32.4092 73.5272 32.4082H72.9191C72.0646 32.4092 71.2455 32.749 70.6413 33.3532C70.0371 33.9575 69.6973 34.7767 69.6963 35.6312V35.692Z" fill="#221F1F"/>
<path d="M76.0979 37.9179L77.9385 37.3206V32.8506H74.4619L74.548 32.9365C75.7455 34.1326 77.0774 38.3761 76.0979 37.9179Z" fill="#221F1F"/>
</g>
<defs>
<clipPath id="clip0_490_172191">
<rect width="85" height="70" fill="white" transform="translate(12 20)"/>
</clipPath>
</defs>
</svg>
