<svg width="111" height="110" viewBox="0 0 111 110" fill="none" xmlns="http://www.w3.org/2000/svg">
<g clip-path="url(#clip0_179_71807)">
<path d="M89.0985 68.2103C85.4013 77.9197 65.8536 86.2784 44.2058 86.2784C22.558 86.2784 13.761 70.6808 18.0592 62.8316C26.1236 48.1043 10.57 21.5451 29.7073 18.6496C43.4649 16.568 55.4329 30.863 70.6668 33.7612C88.8425 37.2191 91.8923 60.8731 89.0985 68.2103Z" fill="#F6F6F6"/>
<path d="M27.2524 79.5215C26.6522 79.734 26.0079 79.7872 25.3813 79.6761C24.7548 79.5649 24.1673 79.2932 23.6753 78.887C22.4224 77.828 22.0295 76.0839 21.71 74.4686L20.7646 69.6904L22.7439 71.0628C24.1673 72.0497 25.6227 73.0683 26.6082 74.4978C27.5936 75.9272 28.0236 77.8787 27.232 79.4256" fill="#014898"/>
<path d="M26.9464 85.6387C27.1956 83.8111 27.4519 81.9598 27.2767 80.1126C27.1215 78.4721 26.6244 76.87 25.6125 75.5559C25.0754 74.8598 24.4219 74.2634 23.6812 73.7935C23.4881 73.6708 23.3104 73.9789 23.5026 74.1011C24.7842 74.9167 25.7754 76.121 26.3335 77.5404C26.9497 79.1188 27.0487 80.8395 26.9426 82.5163C26.8784 83.5303 26.742 84.5376 26.6051 85.5438C26.5943 85.5893 26.601 85.6372 26.624 85.6779C26.6469 85.7186 26.6844 85.749 26.7287 85.7629C26.7739 85.7752 26.8222 85.769 26.8629 85.7457C26.9037 85.7224 26.9336 85.6838 26.9463 85.6384L26.9464 85.6387Z" fill="#DCDCDC"/>
<path d="M25.1539 82.7062C24.8966 83.1002 24.5428 83.4209 24.1266 83.6372C23.7105 83.8536 23.246 83.9584 22.7779 83.9415C21.5748 83.884 20.5722 83.0388 19.6698 82.2361L17 79.8623L18.7669 79.7772C20.0376 79.7159 21.3411 79.6584 22.5513 80.0534C23.7616 80.4485 24.8778 81.3978 25.0991 82.6593" fill="#DCDCDC"/>
<path d="M27.6512 86.6892C26.4519 84.5523 25.0609 82.1773 22.5752 81.4182C21.8841 81.2079 21.1595 81.1326 20.4403 81.1962C20.2136 81.216 20.2702 81.5678 20.4964 81.5482C21.702 81.4474 22.9052 81.7679 23.9035 82.4559C24.8642 83.1144 25.6123 84.0299 26.2453 85.0007C26.6332 85.5954 26.9805 86.2153 27.3279 86.8343C27.4389 87.0322 27.7635 86.8893 27.6512 86.6892Z" fill="#DCDCDC"/>
<path d="M54.6967 52.8884L53.9998 43.1516L54.1323 39.9019L51.416 40.5105L52.4166 53.2688C52.3032 53.504 52.2563 53.766 52.2809 54.0263C52.3055 54.2865 52.4007 54.5349 52.5561 54.7444C52.7115 54.9538 52.921 55.1162 53.1619 55.2138C53.4027 55.3113 53.6656 55.3404 53.9217 55.2976C54.1778 55.2549 54.4173 55.1421 54.6141 54.9715C54.8108 54.8009 54.9572 54.5792 55.0372 54.3305C55.1172 54.0818 55.1277 53.8157 55.0677 53.5614C55.0076 53.307 54.8793 53.0742 54.6967 52.8884Z" fill="#FFD2BB"/>
<path d="M41.3394 43.9323L41.1667 40.67L39.4234 39.2437L38.4135 42.2646L32.765 49.8508C32.4979 49.8939 32.2487 50.0131 32.0468 50.1944C31.845 50.3756 31.6989 50.6113 31.6258 50.8735C31.5528 51.1358 31.5559 51.4136 31.6347 51.6741C31.7136 51.9346 31.8649 52.1669 32.0708 52.3436C32.2766 52.5202 32.5284 52.6338 32.7964 52.6708C33.0643 52.7079 33.3372 52.6669 33.5827 52.5526C33.8282 52.4384 34.0361 52.2558 34.1818 52.0263C34.3274 51.7968 34.4048 51.5301 34.4046 51.2578C34.4046 51.2386 34.4025 51.2199 34.4018 51.2009L41.3394 43.9323Z" fill="#FFD2BB"/>
<path d="M41.6515 42.8877L37.3965 38.3146L40.5559 31.6579C40.6198 31.5215 40.7103 31.3995 40.8221 31.2991C40.9339 31.1988 41.0646 31.1222 41.2065 31.0739C41.346 31.0257 41.4937 31.0064 41.6408 31.017C41.7878 31.0276 41.9313 31.068 42.0625 31.1358L42.0936 31.1516L41.6515 42.8877Z" fill="#FF0D1B"/>
<path d="M51.1474 42.1671L50.3916 37.705L50.3945 37.6938L52.1813 30.6203L52.3488 30.6007C52.8315 30.5471 53.3168 30.6768 53.7097 30.9644C54.1025 31.252 54.3747 31.6768 54.473 32.1558L56.1568 40.5977L51.1474 42.1671Z" fill="#FF0D1B"/>
<path d="M52.1097 28.7107H43.0664V24.5963C43.0664 23.3887 43.5428 22.2305 44.3908 21.3766C45.2387 20.5227 46.3888 20.043 47.588 20.043C48.7873 20.043 49.9374 20.5227 50.7853 21.3766C51.6333 22.2305 52.1097 23.3887 52.1097 24.5963V28.7107Z" fill="#221F1F"/>
<path d="M63.6628 79.9603L62.1323 81.2574L56.4355 75.9301L58.6944 74.0156L63.6628 79.9603Z" fill="#FFD2BB"/>
<path d="M65.3018 81.1236L60.3669 85.3062L60.3144 85.2433C59.8856 84.7303 59.6768 84.0668 59.7338 83.3988C59.7909 82.7308 60.1091 82.1129 60.6184 81.6811L60.6185 81.681L63.6326 79.1265L65.3018 81.1236Z" fill="#221F1F"/>
<path d="M40.7216 84.999L38.7213 84.9989L37.7695 77.229L40.722 77.2291L40.7216 84.999Z" fill="#FFD2BB"/>
<path d="M41.2324 86.9513L34.7822 86.9511V86.8689C34.7823 86.1984 35.0468 85.5554 35.5176 85.0813C35.9884 84.6072 36.627 84.3409 37.2928 84.3408H37.293L41.2325 84.341L41.2324 86.9513Z" fill="#221F1F"/>
<path d="M31.9492 83.0488L32.945 71.5716C33.45 65.7588 34.6385 60.027 36.4855 54.4964L40.6552 42.0161L41.0193 39.1097C39.9098 36.7928 41.085 35.0284 41.2203 34.838L41.0756 31.9508C41.0728 31.894 41.0687 31.8391 41.0649 31.7862C41.0235 31.219 41.0536 30.8921 42.1529 30.7696L51.2734 30.4864C52.4275 30.4816 53.1272 30.6748 53.4114 31.0868C53.7385 31.5609 53.479 32.2479 53.2281 32.9123C53.202 32.9814 53.1759 33.0505 53.1504 33.1196L49.5378 42.8876C51.286 46.2909 50.949 51.4959 50.9454 51.5482L51.0735 53.0875L64.3349 74.9112L56.4939 82.2841L56.459 82.2268L43.8283 61.5439L43.7197 82.3902L43.6686 82.3931L31.9492 83.0488Z" fill="#FF0D1B"/>
<path d="M50.7264 26.8975C51.7055 25.0939 51.0472 22.8326 49.2562 21.8467C47.4652 20.8607 45.2196 21.5236 44.2405 23.3271C43.2615 25.1307 43.9197 27.392 45.7107 28.3779C47.5017 29.3638 49.7473 28.701 50.7264 26.8975Z" fill="#FFD2BB"/>
<path d="M49.2678 21.9549C50.6266 21.9549 51.7281 20.8457 51.7281 19.4774C51.7281 18.1092 50.6266 17 49.2678 17C47.9091 17 46.8076 18.1092 46.8076 19.4774C46.8076 20.8457 47.9091 21.9549 49.2678 21.9549Z" fill="#221F1F"/>
<path d="M52.5462 25.3093H43.5029V25.2545C43.5029 24.0469 43.9793 22.8887 44.8273 22.0348C45.6753 21.1809 46.8254 20.7012 48.0246 20.7012C49.2238 20.7012 50.3739 21.1809 51.2219 22.0348C52.0698 22.8887 52.5462 24.0469 52.5462 25.2545V25.3093Z" fill="#221F1F"/>
<path d="M29.0961 52.631C32.6921 52.631 35.6073 49.6955 35.6073 46.0743C35.6073 42.4531 32.6921 39.5176 29.0961 39.5176C25.5001 39.5176 22.585 42.4531 22.585 46.0743C22.585 49.6955 25.5001 52.631 29.0961 52.631Z" fill="white"/>
<path d="M29.0957 52.7411C27.7863 52.7411 26.5064 52.3501 25.4177 51.6176C24.3291 50.885 23.4806 49.8439 22.9795 48.6258C22.4785 47.4076 22.3474 46.0672 22.6028 44.7741C22.8582 43.4809 23.4887 42.2931 24.4146 41.3608C25.3404 40.4284 26.52 39.7935 27.8042 39.5363C29.0883 39.2791 30.4194 39.4111 31.6291 39.9157C32.8388 40.4202 33.8727 41.2747 34.6001 42.371C35.3275 43.4673 35.7158 44.7561 35.7158 46.0746C35.7138 47.8421 35.0157 49.5365 33.7746 50.7863C32.5335 52.0361 30.8508 52.7391 29.0957 52.7411ZM29.0957 39.6276C27.8294 39.6276 26.5916 40.0058 25.5388 40.7142C24.486 41.4226 23.6654 42.4295 23.1808 43.6075C22.6963 44.7855 22.5695 46.0818 22.8165 47.3324C23.0635 48.583 23.6733 49.7317 24.5687 50.6334C25.464 51.535 26.6048 52.149 27.8467 52.3978C29.0886 52.6465 30.3759 52.5188 31.5457 52.0309C32.7155 51.5429 33.7154 50.7166 34.4189 49.6564C35.1224 48.5962 35.4979 47.3497 35.4979 46.0746C35.4959 44.3654 34.8208 42.7267 33.6206 41.5181C32.4204 40.3094 30.793 39.6296 29.0957 39.6276Z" fill="#014898"/>
<path d="M25.0889 49.1249V46.0606L27.1939 45.7697L28.9667 43.7004C29.2657 42.8274 29.6562 41.989 30.1316 41.1993L30.195 41.0942L30.2385 41.113C30.2634 41.1238 30.8469 41.3893 30.6372 42.487L30.6335 42.4991L30.5558 42.6737C30.3275 43.1881 30.2159 43.7473 30.2291 44.3107C30.6981 44.3216 33.1022 44.3903 33.3836 44.6535C33.4779 44.7413 33.5349 44.8624 33.5426 44.9915L33.557 45.2224C33.5614 45.2931 33.5513 45.3639 33.5275 45.4306C33.5036 45.4973 33.4665 45.5583 33.4183 45.6099C33.3701 45.6616 33.3119 45.7027 33.2474 45.7308C33.1828 45.759 33.1132 45.7735 33.0428 45.7735H32.9044L33.0024 45.8863C33.0809 45.9765 33.1241 46.0924 33.1241 46.2124V46.4033C33.1241 46.4917 33.1006 46.5783 33.0561 46.6545C33.0117 46.7306 32.9478 46.7933 32.8712 46.8363L32.7925 46.8803L32.8377 46.9258C32.9012 46.9897 32.9461 47.0699 32.9675 47.1577C32.9889 47.2454 32.9861 47.3374 32.9594 47.4237C32.9326 47.51 32.8829 47.5872 32.8157 47.6471C32.7485 47.7069 32.6662 47.7471 32.5779 47.7633L32.0632 47.8575C32.0525 48.0436 31.9769 48.2198 31.8498 48.3553C31.7227 48.4907 31.5523 48.5767 31.3684 48.598L29.8972 48.7688C29.1362 48.9055 28.3605 48.9401 27.5905 48.8716L27.3652 48.8515L25.0889 49.1249Z" fill="#FFD2BB"/>
<path opacity="0.2" d="M30.145 42.1539L29.7441 42.0295L29.7762 41.9247L30.0848 42.0204L30.3877 41.3389L30.4872 41.3836L30.145 42.1539Z" fill="#221F1F"/>
<path d="M112.353 87.0256H17.109C17.0801 87.0256 17.0523 87.014 17.0319 86.9935C17.0115 86.9729 17 86.945 17 86.9159C17 86.8868 17.0115 86.8589 17.0319 86.8383C17.0523 86.8177 17.0801 86.8062 17.109 86.8062H112.353C112.382 86.8062 112.41 86.8177 112.43 86.8383C112.451 86.8589 112.462 86.8868 112.462 86.9159C112.462 86.945 112.451 86.9729 112.43 86.9935C112.41 87.014 112.382 87.0256 112.353 87.0256Z" fill="#DCDCDC"/>
<path d="M79.4401 77.5635C79.3224 77.1388 79.2531 76.7018 79.2334 76.2611C79.2138 75.8178 79.3444 75.381 79.6035 75.0238C79.8215 74.7486 80.1324 74.5598 80.3439 74.2797C80.6981 73.8076 80.7365 73.1206 81.174 72.7298C81.4673 72.4693 81.8775 72.4042 82.2156 72.2023C82.5537 72.0004 82.8117 71.6781 83.121 71.4306C83.4303 71.1832 83.8582 71.009 84.2187 71.1718C84.6722 71.3769 84.7764 72.0004 84.6546 72.4889C84.5328 72.9773 84.2572 73.4201 84.1739 73.9167C84.1178 74.2618 84.1466 74.6542 83.9159 74.9131C83.6851 75.1719 83.238 75.1914 82.9672 75.4373C82.6964 75.6831 82.6627 76.1374 82.5569 76.5134C82.4699 76.8222 82.3127 77.1058 82.0982 77.3417C81.8837 77.5776 81.6177 77.7591 81.3217 77.8716C81.0256 77.9842 80.7077 78.0247 80.3935 77.9898C80.0792 77.955 79.7774 77.8458 79.5122 77.671" fill="#014898"/>
<g opacity="0.4">
<path d="M79.4401 77.5635C79.3224 77.1388 79.2531 76.7018 79.2334 76.2611C79.2138 75.8178 79.3444 75.381 79.6035 75.0238C79.8215 74.7486 80.1324 74.5598 80.3439 74.2797C80.6981 73.8076 80.7365 73.1206 81.174 72.7298C81.4673 72.4693 81.8775 72.4042 82.2156 72.2023C82.5537 72.0004 82.8117 71.6781 83.121 71.4306C83.4303 71.1832 83.8582 71.009 84.2187 71.1718C84.6722 71.3769 84.7764 72.0004 84.6546 72.4889C84.5328 72.9773 84.2572 73.4201 84.1739 73.9167C84.1178 74.2618 84.1466 74.6542 83.9159 74.9131C83.6851 75.1719 83.238 75.1914 82.9672 75.4373C82.6964 75.6831 82.6627 76.1374 82.5569 76.5134C82.4699 76.8222 82.3127 77.1058 82.0982 77.3417C81.8837 77.5776 81.6177 77.7591 81.3217 77.8716C81.0256 77.9842 80.7077 78.0247 80.3935 77.9898C80.0792 77.955 79.7774 77.8458 79.5122 77.671" fill="white"/>
</g>
<path d="M79.5799 71.5348C79.1644 71.4116 78.7639 71.2412 78.386 71.0268C78.006 70.8073 77.711 70.4627 77.5495 70.05C77.4342 69.7243 77.4438 69.3483 77.3204 69.0178C77.1137 68.4626 76.5608 68.067 76.4663 67.4809C76.4038 67.0901 76.5624 66.6994 76.5752 66.3054C76.588 65.9114 76.455 65.5142 76.415 65.1153C76.3749 64.7164 76.4518 64.2573 76.7803 64.0326C77.1906 63.751 77.7659 63.9903 78.1104 64.3582C78.455 64.7262 78.6777 65.1951 79.0495 65.5272C79.3075 65.7584 79.6504 65.9424 79.7434 66.2777C79.8363 66.6131 79.6184 67.0087 79.6793 67.3718C79.7402 67.7349 80.1023 68.0067 80.3603 68.2965C80.5724 68.5346 80.7265 68.8199 80.8103 69.1294C80.8942 69.439 80.9054 69.7643 80.843 70.079C80.7807 70.3938 80.6466 70.6893 80.4514 70.9419C80.2562 71.1944 80.0055 71.3969 79.7193 71.5331" fill="#014898"/>
<g opacity="0.2">
<path d="M79.5799 71.5348C79.1644 71.4116 78.7639 71.2412 78.386 71.0268C78.006 70.8073 77.711 70.4627 77.5495 70.05C77.4342 69.7243 77.4438 69.3483 77.3204 69.0178C77.1137 68.4626 76.5608 68.067 76.4663 67.4809C76.4038 67.0901 76.5624 66.6994 76.5752 66.3054C76.588 65.9114 76.455 65.5142 76.415 65.1153C76.3749 64.7164 76.4518 64.2573 76.7803 64.0326C77.1906 63.751 77.7659 63.9903 78.1104 64.3582C78.455 64.7262 78.6777 65.1951 79.0495 65.5272C79.3075 65.7584 79.6504 65.9424 79.7434 66.2777C79.8363 66.6131 79.6184 67.0087 79.6793 67.3718C79.7402 67.7349 80.1023 68.0067 80.3603 68.2965C80.5724 68.5346 80.7265 68.8199 80.8103 69.1294C80.8942 69.439 80.9054 69.7643 80.843 70.079C80.7807 70.3938 80.6466 70.6893 80.4514 70.9419C80.2562 71.1944 80.0055 71.3969 79.7193 71.5331" fill="#221F1F"/>
</g>
<path d="M78.8455 76.0703C78.6007 76.2949 78.3319 76.4909 78.0442 76.6548C77.7513 76.8186 77.4121 76.876 77.0827 76.8176C76.8231 76.759 76.5907 76.6059 76.3295 76.5538C75.892 76.4659 75.4145 76.6727 75.0027 76.4985C74.7286 76.3829 74.5427 76.1208 74.2944 75.9514C74.046 75.7821 73.7399 75.7121 73.4691 75.5803C73.1983 75.4484 72.9354 75.2107 72.9242 74.903C72.9098 74.5188 73.2944 74.2355 73.6646 74.1541C74.0348 74.0727 74.4274 74.1182 74.7863 74.0059C75.0379 73.9294 75.2927 73.7764 75.5459 73.8431C75.7991 73.9099 75.9626 74.2224 76.219 74.3315C76.4754 74.4406 76.7959 74.3087 77.0843 74.255C77.3221 74.2116 77.5666 74.2254 77.7982 74.2953C78.0297 74.3652 78.242 74.4892 78.4179 74.6575C78.5938 74.8257 78.7284 75.0335 78.811 75.2641C78.8936 75.4948 78.9219 75.7419 78.8935 75.9856" fill="#014898"/>
<g opacity="0.2">
<path d="M78.8455 76.0703C78.6007 76.2949 78.3319 76.4909 78.0442 76.6548C77.7513 76.8186 77.4121 76.876 77.0827 76.8176C76.8231 76.759 76.5907 76.6059 76.3295 76.5538C75.892 76.4659 75.4145 76.6727 75.0027 76.4985C74.7286 76.3829 74.5427 76.1208 74.2944 75.9514C74.046 75.7821 73.7399 75.7121 73.4691 75.5803C73.1983 75.4484 72.9354 75.2107 72.9242 74.903C72.9098 74.5188 73.2944 74.2355 73.6646 74.1541C74.0348 74.0727 74.4274 74.1182 74.7863 74.0059C75.0379 73.9294 75.2927 73.7764 75.5459 73.8431C75.7991 73.9099 75.9626 74.2224 76.219 74.3315C76.4754 74.4406 76.7959 74.3087 77.0843 74.255C77.3221 74.2116 77.5666 74.2254 77.7982 74.2953C78.0297 74.3652 78.242 74.4892 78.4179 74.6575C78.5938 74.8257 78.7284 75.0335 78.811 75.2641C78.8936 75.4948 78.9219 75.7419 78.8935 75.9856" fill="#221F1F"/>
</g>
<path d="M78.7526 74.6459C78.3184 74.7328 77.8759 74.7689 77.4337 74.7534C76.9877 74.7362 76.5611 74.5638 76.2254 74.265C75.9674 74.0159 75.804 73.6773 75.5396 73.4363C75.0973 73.0309 74.4178 72.9365 74.0556 72.4497C73.8169 72.1241 73.7816 71.6959 73.6118 71.3296C73.4419 70.9633 73.131 70.6784 72.9131 70.3283C72.6951 69.9783 72.5509 69.5322 72.7432 69.1724C72.9868 68.7214 73.6198 68.6644 74.0989 68.8289C74.5781 68.9933 74.9995 69.3173 75.4915 69.4427C75.8328 69.5289 76.2286 69.5322 76.469 69.7927C76.7094 70.0532 76.6918 70.5156 76.9161 70.8151C77.1405 71.1147 77.5924 71.1896 77.9609 71.3296C78.2631 71.4452 78.5344 71.6311 78.7531 71.8724C78.9717 72.1138 79.1316 72.4039 79.22 72.7194C79.3083 73.0349 79.3226 73.367 79.2618 73.6892C79.2009 74.0113 79.0666 74.3145 78.8695 74.5743" fill="#014898"/>
<g opacity="0.4">
<path d="M78.7526 74.6459C78.3184 74.7328 77.8759 74.7689 77.4337 74.7534C76.9877 74.7362 76.5611 74.5638 76.2254 74.265C75.9674 74.0159 75.804 73.6773 75.5396 73.4363C75.0973 73.0309 74.4178 72.9365 74.0556 72.4497C73.8169 72.1241 73.7816 71.6959 73.6118 71.3296C73.4419 70.9633 73.131 70.6784 72.9131 70.3283C72.6951 69.9783 72.5509 69.5322 72.7432 69.1724C72.9868 68.7214 73.6198 68.6644 74.0989 68.8289C74.5781 68.9933 74.9995 69.3173 75.4915 69.4427C75.8328 69.5289 76.2286 69.5322 76.469 69.7927C76.7094 70.0532 76.6918 70.5156 76.9161 70.8151C77.1405 71.1147 77.5924 71.1896 77.9609 71.3296C78.2631 71.4452 78.5344 71.6311 78.7531 71.8724C78.9717 72.1138 79.1316 72.4039 79.22 72.7194C79.3083 73.0349 79.3226 73.367 79.2618 73.6892C79.2009 74.0113 79.0666 74.3145 78.8695 74.5743" fill="white"/>
</g>
<path d="M79.2671 72.132C79.0496 71.6779 78.884 71.1999 78.7735 70.7075C78.6644 70.2107 78.7255 69.6909 78.9466 69.2341C79.1389 68.8775 79.453 68.6008 79.6357 68.241C79.9433 67.6353 79.8488 66.8506 80.2671 66.3198C80.5459 65.9649 80.9962 65.8005 81.3391 65.5058C81.6821 65.2111 81.908 64.7927 82.2093 64.4492C82.5105 64.1057 82.9576 63.8208 83.3983 63.9315C83.9496 64.0715 84.1916 64.7537 84.1531 65.33C84.1146 65.9063 83.8871 66.4696 83.8951 67.0427C83.8951 67.4432 84.0089 67.8812 83.799 68.2214C83.589 68.5617 83.0891 68.674 82.8375 69.0078C82.5859 69.3415 82.6323 69.8609 82.5859 70.3102C82.5488 70.6763 82.4279 71.0285 82.2327 71.3386C82.0375 71.6486 81.7735 71.9079 81.4619 72.0956C81.1504 72.2833 80.7998 72.3943 80.4384 72.4195C80.077 72.4448 79.7148 72.3837 79.3809 72.2411" fill="#014898"/>
<g opacity="0.4">
<path d="M79.2671 72.132C79.0496 71.6779 78.884 71.1999 78.7735 70.7075C78.6644 70.2107 78.7255 69.6909 78.9466 69.2341C79.1389 68.8775 79.453 68.6008 79.6357 68.241C79.9433 67.6353 79.8488 66.8506 80.2671 66.3198C80.5459 65.9649 80.9962 65.8005 81.3391 65.5058C81.6821 65.2111 81.908 64.7927 82.2093 64.4492C82.5105 64.1057 82.9576 63.8208 83.3983 63.9315C83.9496 64.0715 84.1916 64.7537 84.1531 65.33C84.1146 65.9063 83.8871 66.4696 83.8951 67.0427C83.8951 67.4432 84.0089 67.8812 83.799 68.2214C83.589 68.5617 83.0891 68.674 82.8375 69.0078C82.5859 69.3415 82.6323 69.8609 82.5859 70.3102C82.5488 70.6763 82.4279 71.0285 82.2327 71.3386C82.0375 71.6486 81.7735 71.9079 81.4619 72.0956C81.1504 72.2833 80.7998 72.3943 80.4384 72.4195C80.077 72.4448 79.7148 72.3837 79.3809 72.2411" fill="white"/>
</g>
<path d="M78.7174 78.9129C80.1917 76.6109 81.8951 74.4651 83.6467 72.3763C83.6963 72.316 83.6114 72.2297 83.5617 72.29C81.799 74.3853 80.0939 76.5408 78.6148 78.8511C78.5715 78.9162 78.6757 78.9781 78.7174 78.9129Z" fill="#221F1F"/>
<path d="M78.727 78.8822C78.5844 77.1173 78.9433 75.3118 79.3904 73.617C79.8873 71.7089 80.5824 69.8599 81.464 68.1011C81.8755 67.2607 82.3649 66.4621 82.9255 65.716C82.9736 65.6542 82.8887 65.5679 82.8406 65.6297C81.7589 67.0266 80.9897 68.6775 80.3439 70.3202C79.5962 72.175 79.0585 74.1102 78.7414 76.0884C78.5875 77.0109 78.5396 77.9484 78.5988 78.8822C78.5988 78.9587 78.7254 78.9603 78.719 78.8822H78.727Z" fill="#221F1F"/>
<path d="M78.9159 74.5349C78.4656 73.6086 77.6115 73.0176 76.7974 72.4461C75.8197 71.7927 74.9604 70.9725 74.2574 70.0219C74.211 69.9585 74.1068 70.0219 74.1533 70.0838C74.812 70.9898 75.6165 71.7764 76.533 72.4103C77.3935 73.0176 78.3326 73.6102 78.8117 74.5968C78.847 74.6668 78.9512 74.6049 78.9159 74.5349Z" fill="#221F1F"/>
<path d="M82.6199 78.6558H75.2211C75.2211 78.6558 74.9439 83.5758 77.2803 85.5229L76.4422 86.5437H81.5462L80.5847 85.4708C80.5847 85.4708 82.4981 84.6291 82.6199 78.6558Z" fill="#221F1F"/>
</g>
<defs>
<clipPath id="clip0_179_71807">
<rect width="73" height="70" fill="white" transform="translate(17 17)"/>
</clipPath>
</defs>
</svg>
