<svg width="110" height="110" viewBox="0 0 110 110" fill="none" xmlns="http://www.w3.org/2000/svg">
<g clip-path="url(#clip0_500_162463)">
<path d="M44.5999 89.8415C47.7596 89.8415 50.321 87.2467 50.321 84.0458C50.321 80.8449 47.7596 78.25 44.5999 78.25C41.4403 78.25 38.8789 80.8449 38.8789 84.0458C38.8789 87.2467 41.4403 89.8415 44.5999 89.8415Z" fill="#FF0D1B"/>
<path d="M43.9866 23.5678C35.0453 23.6318 27.7244 30.9927 27.5974 40.05C27.5962 40.1337 27.5956 40.7216 27.5957 41.4907C27.5958 42.6183 28.0379 43.6997 28.825 44.497C29.612 45.2944 30.6794 45.7424 31.7924 45.7425C32.3442 45.7424 32.8905 45.6321 33.4002 45.418C33.9099 45.2039 34.3729 44.8902 34.7629 44.4947C35.1528 44.0993 35.462 43.6298 35.6728 43.1133C35.8836 42.5967 35.9918 42.0431 35.9913 41.4842C35.9909 40.961 35.9907 40.5989 35.9907 40.5767C35.9904 39.1769 36.3498 37.8011 37.0335 36.5847C37.7173 35.3683 38.7018 34.3532 39.8903 33.6392C41.0788 32.9252 42.4303 32.5369 43.8118 32.5125C45.1933 32.4882 46.5574 32.8285 47.7697 33.5002C48.982 34.1718 50.0008 35.1516 50.7259 36.3432C51.4511 37.5347 51.8576 38.897 51.9054 40.2959C51.9532 41.6949 51.6407 43.0824 50.9987 44.3219C50.3567 45.5614 49.4072 46.6102 48.2437 47.3653L48.2451 47.367C48.2451 47.367 42.2718 51.2628 40.4507 56.6069L40.4523 56.6073C40.132 57.7021 39.9698 58.8381 39.9705 59.98C39.9705 60.4493 39.9978 64.5563 40.0504 67.8896C40.0689 69.0398 40.5328 70.1365 41.3423 70.9431C42.1518 71.7498 43.2418 72.2017 44.3773 72.2015C44.9478 72.2015 45.5127 72.0871 46.0395 71.8651C46.5663 71.6431 47.0445 71.3177 47.4467 70.9078C47.8489 70.4978 48.167 70.0113 48.3829 69.4763C48.5988 68.9413 48.7081 68.3683 48.7046 67.7903C48.6863 64.7376 48.6764 61.1829 48.6764 60.9249C48.6764 57.6434 51.8013 54.3738 54.3681 52.2417C57.3239 49.7864 59.4509 46.4405 60.3052 42.6662C60.4942 41.8891 60.5984 41.0933 60.616 40.2932C60.616 38.0866 60.185 35.9018 59.3478 33.8646C58.5106 31.8275 57.2838 29.9783 55.738 28.4236C54.1923 26.8689 52.3581 25.6395 50.3413 24.8061C48.3244 23.9727 46.1647 23.5519 43.9866 23.5678Z" fill="#FF0D1B"/>
<path d="M95.8514 90.0002H-8.90508C-8.94428 90.0001 -8.98183 89.9843 -9.00951 89.9561C-9.03719 89.928 -9.05273 89.8899 -9.05273 89.8502C-9.05273 89.8105 -9.03719 89.7724 -9.00951 89.7443C-8.98183 89.7162 -8.94428 89.7003 -8.90508 89.7002H95.8514C95.8907 89.7002 95.9283 89.716 95.9561 89.7441C95.9839 89.7723 95.9995 89.8104 95.9995 89.8502C95.9995 89.89 95.9839 89.9282 95.9561 89.9563C95.9283 89.9844 95.8907 90.0002 95.8514 90.0002Z" fill="#757575"/>
<path d="M69.1081 49.3966C71.1687 49.3966 72.8392 47.7043 72.8392 45.6168C72.8392 43.5292 71.1687 41.8369 69.1081 41.8369C67.0474 41.8369 65.377 43.5292 65.377 45.6168C65.377 47.7043 67.0474 49.3966 69.1081 49.3966Z" fill="#221F1F"/>
<path d="M62.213 88.3458H60.6883L59.9629 82.3877H62.2134L62.213 88.3458Z" fill="#FFD2BB"/>
<path d="M59.5995 87.9043H62.5401V89.78H57.748C57.748 89.5337 57.7959 89.2898 57.889 89.0622C57.982 88.8346 58.1184 88.6278 58.2903 88.4537C58.4623 88.2795 58.6664 88.1413 58.891 88.0471C59.1156 87.9528 59.3564 87.9043 59.5995 87.9043Z" fill="#221F1F"/>
<path d="M74.0294 88.3458H72.5048L71.7793 82.3877H74.0298L74.0294 88.3458Z" fill="#FFD2BB"/>
<path d="M71.414 87.9043H74.3546V89.78H69.5625C69.5625 89.5337 69.6104 89.2898 69.7034 89.0622C69.7965 88.8346 69.9329 88.6278 70.1048 88.4537C70.2767 88.2795 70.4808 88.1413 70.7054 88.0471C70.9301 87.9528 71.1708 87.9043 71.414 87.9043Z" fill="#221F1F"/>
<path d="M68.541 49.4186C70.228 49.4186 71.5957 48.0331 71.5957 46.3241C71.5957 44.615 70.228 43.2295 68.541 43.2295C66.8539 43.2295 65.4863 44.615 65.4863 46.3241C65.4863 48.0331 66.8539 49.4186 68.541 49.4186Z" fill="#FFD2BB"/>
<path d="M70.3611 59.4013L71.7279 56.2199C72.0598 55.4736 72.155 54.6413 72.0002 53.8379C71.8453 53.0345 71.4482 52.2995 70.8635 51.7345C70.7435 51.6142 70.6159 51.5019 70.4817 51.3981C69.8073 50.8636 68.9762 50.5723 68.1199 50.5703C67.5442 50.5726 66.9758 50.7006 66.4534 50.9458C66.4086 50.9659 66.3651 50.9874 66.3203 51.0088C66.2344 51.0504 66.1499 51.0957 66.0678 51.1423C65.5324 51.4538 65.0767 51.8883 64.7375 52.411C64.3984 52.9336 64.1852 53.5297 64.1152 54.1511L63.512 59.2715C63.3603 59.6735 57.9477 74.1881 59.8406 85.2693C59.8607 85.3877 59.9177 85.4964 60.0032 85.5796C60.0887 85.6628 60.1982 85.7161 60.3157 85.7318L62.2347 85.9963C62.3749 86.0158 62.517 85.9807 62.6326 85.8981C62.7483 85.8156 62.8287 85.6918 62.8578 85.5516L66.0778 70.0025C66.0978 69.9059 66.1493 69.8189 66.2239 69.7554C66.2985 69.6919 66.392 69.6556 66.4894 69.6523C66.5868 69.6489 66.6825 69.6788 66.7612 69.737C66.8399 69.7952 66.897 69.8785 66.9235 69.9736L71.4729 86.3252C71.5054 86.444 71.5753 86.5488 71.6722 86.6234C71.769 86.698 71.8873 86.7385 72.009 86.7385C72.0453 86.7382 72.0815 86.7348 72.1172 86.7284L74.4615 86.271C74.5978 86.2452 74.7197 86.1687 74.8032 86.0566C74.8867 85.9445 74.9259 85.8048 74.913 85.665C74.5685 81.773 72.7378 62.2778 70.3611 59.4013Z" fill="#014898"/>
<path d="M56.6705 48.899C56.6493 49.083 56.6682 49.2694 56.7258 49.4452C56.7835 49.621 56.8784 49.7818 57.0041 49.9164C57.1297 50.051 57.2829 50.156 57.4529 50.2241C57.623 50.2922 57.8057 50.3217 57.9882 50.3106L59.6956 54.4674L60.9872 52.5278L59.1678 48.8778C59.1289 48.5684 58.9794 48.2842 58.7476 48.0791C58.5157 47.8739 58.2177 47.7621 57.9098 47.7647C57.602 47.7673 57.3059 47.8842 57.0774 48.0933C56.849 48.3023 56.7043 48.589 56.6705 48.899Z" fill="#FFD2BB"/>
<path d="M68.3718 63.5865C68.5533 63.5645 68.7279 63.5025 68.8832 63.4048C69.0385 63.3071 69.1708 63.176 69.2707 63.0209C69.3706 62.8658 69.4358 62.6903 69.4615 62.507C69.4873 62.3236 69.473 62.1367 69.4198 61.9595L73.0122 59.3088L70.8494 58.4883L67.7695 61.1313C67.4816 61.2416 67.2436 61.4551 67.1007 61.7313C66.9578 62.0075 66.9199 62.3272 66.9941 62.6299C67.0684 62.9325 67.2496 63.1971 67.5035 63.3734C67.7574 63.5497 68.0664 63.6255 68.3718 63.5865Z" fill="#FFD2BB"/>
<path d="M62.5149 57.2386C62.3771 57.2384 62.2397 57.2247 62.1046 57.1976C61.7779 57.1346 61.4714 56.9911 61.2123 56.7798C60.9532 56.5685 60.7493 56.2959 60.6187 55.986L58.2265 53.031C58.176 52.9686 58.1391 52.8959 58.1186 52.8178C58.098 52.7397 58.0941 52.6581 58.1072 52.5784C58.1203 52.4987 58.15 52.4228 58.1944 52.3557C58.2389 52.2885 58.2969 52.2318 58.3647 52.1893L60.0666 51.122C60.1295 51.0826 60.1994 51.0562 60.2724 51.0443C60.3453 51.0324 60.4199 51.0353 60.4918 51.0527C60.5636 51.0702 60.6314 51.1019 60.6911 51.146C60.7508 51.1901 60.8013 51.2458 60.8396 51.3098L62.5257 54.1238L65.7545 51.7064C66.0116 51.5698 66.3086 51.5315 66.5912 51.5985C66.8739 51.6654 67.1233 51.8332 67.294 52.071C67.4646 52.3089 67.5451 52.6011 67.5207 52.8941C67.4963 53.1871 67.3687 53.4615 67.1611 53.667L63.9384 56.6451C63.5597 57.0254 63.0481 57.2387 62.5149 57.2386Z" fill="#014898"/>
<path d="M71.2388 61.6826C71.2344 61.6826 71.23 61.6826 71.2257 61.6825C71.1472 61.6805 71.07 61.6619 70.999 61.6278C70.9281 61.5938 70.865 61.545 70.8139 61.4846L69.3008 59.6963C69.2492 59.6354 69.211 59.5641 69.1887 59.4872C69.1664 59.4102 69.1604 59.3293 69.1713 59.2499C69.1821 59.1704 69.2094 59.0942 69.2515 59.0262C69.2935 58.9582 69.3494 58.9001 69.4152 58.8556L72.2486 56.942L69.6818 53.8158C69.5325 53.5636 69.4777 53.2654 69.5275 52.9757C69.5772 52.686 69.7282 52.4241 69.9529 52.2379C70.1775 52.0516 70.4608 51.9535 70.751 51.9614C71.0412 51.9693 71.3188 52.0827 71.5333 52.2808L74.653 55.3693C74.8985 55.5965 75.0859 55.8807 75.1992 56.1975C75.3124 56.5142 75.3481 56.8541 75.3031 57.1879C75.2582 57.5217 75.1339 57.8395 74.9411 58.114C74.7482 58.3884 74.4925 58.6114 74.1959 58.7637L71.6461 61.5045C71.5937 61.5607 71.5306 61.6055 71.4606 61.6361C71.3905 61.6667 71.3151 61.6825 71.2388 61.6826Z" fill="#014898"/>
<path d="M67.7639 55.0929C67.7397 55.0929 67.7154 55.0913 67.6913 55.0882C67.5859 55.0752 67.4865 55.0319 67.4047 54.9634C67.3229 54.8949 67.2622 54.804 67.2298 54.7016L66.0928 51.17C66.0643 51.0807 66.0687 50.984 66.1051 50.8977C66.1416 50.8115 66.2076 50.7415 66.291 50.7007L66.3279 50.6831C66.3614 50.667 66.3945 50.651 66.4284 50.6358C66.9586 50.3867 67.5357 50.2567 68.1202 50.2549C68.8789 50.2563 69.6207 50.4821 70.2545 50.9046C70.3395 50.9619 70.3989 51.0507 70.4198 51.1519C70.4408 51.2531 70.4217 51.3586 70.3666 51.4457L68.2337 54.8309C68.1837 54.9113 68.1143 54.9775 68.0322 55.0233C67.95 55.0691 67.8577 55.0931 67.7639 55.0929Z" fill="#DCDCDC"/>
<path d="M72.049 43.9288C72.7233 43.9288 73.2699 43.375 73.2699 42.6919C73.2699 42.0088 72.7233 41.4551 72.049 41.4551C71.3747 41.4551 70.8281 42.0088 70.8281 42.6919C70.8281 43.375 71.3747 43.9288 72.049 43.9288Z" fill="#221F1F"/>
<path d="M67.8645 41.333C67.0069 41.333 66.1844 41.6781 65.578 42.2925C64.9715 42.9068 64.6309 43.7401 64.6309 44.6089V45.9948H66.3135L67.1183 44.6089L67.3597 45.9948H72.4662L71.0981 44.6089C71.0981 43.7401 70.7574 42.9068 70.151 42.2925C69.5446 41.6781 68.7221 41.333 67.8645 41.333Z" fill="#221F1F"/>
<path d="M72.6777 41.8449C72.8128 41.4173 73.0923 41.0515 73.4672 40.8119C73.8421 40.5724 74.2883 40.4744 74.7275 40.5352C75.5055 40.6669 76.1207 41.3005 76.4872 42.0082C76.8538 42.7158 77.023 43.5078 77.2694 44.267C77.5159 45.0262 77.8653 45.7895 78.4874 46.2809C79.1095 46.7723 80.0641 46.9056 80.675 46.4001C80.6052 46.927 80.3737 47.4183 80.0132 47.8045C79.6527 48.1907 79.1814 48.4524 78.6661 48.5524C78.1507 48.6525 77.6174 48.5858 77.1414 48.362C76.6655 48.1381 76.2711 47.7683 76.014 47.3049C75.6916 46.7238 75.6084 46.0428 75.5128 45.3834C75.4172 44.7239 75.293 44.0415 74.9081 43.5009C74.5232 42.9603 73.8027 42.6073 73.1913 42.8535L72.6777 41.8449Z" fill="#221F1F"/>
<path d="M32.9776 43.7319C31.8645 43.7318 30.7971 43.2838 30.0101 42.4864C29.2231 41.6891 28.7809 40.6077 28.7808 39.4801C28.7808 38.711 28.7813 38.123 28.7825 38.0394C28.8178 35.4053 29.4727 32.8177 30.6926 30.4912C28.6882 33.271 27.5861 36.6132 27.5388 40.0553C27.5376 40.139 27.5371 40.7269 27.5371 41.496C27.5372 42.6236 27.9794 43.705 28.7664 44.5023C29.5534 45.2997 30.6208 45.7477 31.7339 45.7478C32.6485 45.7475 33.538 45.4447 34.2673 44.8855C34.9966 44.3263 35.5257 43.5412 35.7744 42.6495C35.0059 43.3476 34.0098 43.7332 32.9776 43.7319Z" fill="#DCDCDC"/>
<path d="M44.2722 32.5271C45.559 32.5894 46.8116 32.9671 47.9225 33.6278C49.0335 34.2885 49.9695 35.2125 50.6503 36.3205C51.3311 37.4284 51.7363 38.6872 51.8311 39.9887C51.9259 41.2902 51.7075 42.5956 51.1946 43.7927C51.9364 42.9101 52.4817 41.8758 52.7932 40.7603C53.1047 39.6448 53.1751 38.4744 52.9997 37.3289C52.8242 36.1833 52.407 35.0896 51.7764 34.1222C51.1459 33.1548 50.3168 32.3365 49.3458 31.7231C48.3748 31.1098 47.2847 30.7157 46.1497 30.5678C45.0148 30.4199 43.8617 30.5217 42.7691 30.8662C41.6765 31.2108 40.67 31.7899 39.8184 32.5642C38.9667 33.3384 38.2899 34.2896 37.834 35.3529C38.6219 34.4139 39.6122 33.6708 40.7284 33.1809C41.8447 32.6909 43.0571 32.4673 44.2722 32.5271Z" fill="#DCDCDC"/>
<path d="M45.5626 70.1909C44.4271 70.1911 43.3371 69.7392 42.5276 68.9325C41.7182 68.1259 41.2542 67.0292 41.2357 65.879C41.1831 62.5457 41.1558 58.4387 41.1558 57.9693C41.1551 56.8275 41.3173 55.6915 41.6376 54.5967L41.6361 54.5963C41.8251 54.0468 42.0535 53.512 42.3194 52.9961C41.5033 54.0978 40.8538 55.3166 40.3923 56.6123L40.3939 56.6126C40.0736 57.7074 39.9114 58.8434 39.9121 59.9853C39.9121 60.4546 39.9394 64.5616 39.992 67.8949C40.0105 69.0451 40.4744 70.1418 41.2839 70.9484C42.0934 71.7551 43.1834 72.207 44.3189 72.2068C45.2551 72.2066 46.166 71.8989 46.915 71.3299C47.664 70.7609 48.2107 69.9612 48.4731 69.0508C47.6775 69.7857 46.6392 70.1924 45.5626 70.1909Z" fill="#DCDCDC"/>
<path d="M43.3395 88.4272C42.5268 88.0686 41.8075 87.5235 41.2383 86.8351C40.6691 86.1466 40.2657 85.3336 40.0598 84.4601C39.8539 83.5867 39.8512 82.6767 40.052 81.802C40.2527 80.9273 40.6513 80.1118 41.2164 79.4199C40.5612 79.9046 40.0153 80.5248 39.6148 81.2395C39.2143 81.9543 38.9685 82.7471 38.8936 83.5655C38.8187 84.3838 38.9164 85.2089 39.1804 85.986C39.4443 86.7632 39.8684 87.4746 40.4245 88.073C40.9805 88.6714 41.6559 89.1431 42.4057 89.4569C43.1555 89.7707 43.9626 89.9193 44.7734 89.8929C45.5843 89.8666 46.3803 89.6658 47.1087 89.3039C47.8371 88.942 48.4811 88.4274 48.9982 87.7941C48.1917 88.3912 47.245 88.7638 46.2521 88.8749C45.2593 88.986 44.2551 88.8316 43.3395 88.4272Z" fill="#DCDCDC"/>
</g>
<defs>
<clipPath id="clip0_500_162463">
<rect width="80" height="75" fill="white" transform="translate(16 15)"/>
</clipPath>
</defs>
</svg>
