<svg width="111" height="110" viewBox="0 0 111 110" fill="none" xmlns="http://www.w3.org/2000/svg">
<g clip-path="url(#clip0_490_172366)">
<path d="M48.9888 68.1092C50.5446 68.1092 51.8057 66.8628 51.8057 65.3254C51.8057 63.7879 50.5446 62.5415 48.9888 62.5415C47.4331 62.5415 46.1719 63.7879 46.1719 65.3254C46.1719 66.8628 47.4331 68.1092 48.9888 68.1092Z" fill="#FF0D1B"/>
<path d="M48.72 66.5002L47.877 65.4289L48.3672 65.0521L48.7665 65.5593L50.115 64.1523L50.5661 64.5746L48.72 66.5002Z" fill="white"/>
<path d="M90.8763 35.8455H49V27H90.8763V35.8455Z" fill="white"/>
<path d="M54.4241 33.6698C55.6799 33.6698 56.6979 32.6638 56.6979 31.4228C56.6979 30.1818 55.6799 29.1758 54.4241 29.1758C53.1684 29.1758 52.1504 30.1818 52.1504 31.4228C52.1504 32.6638 53.1684 33.6698 54.4241 33.6698Z" fill="#FF0D1B"/>
<path d="M59.6778 29.9248C59.5773 29.9248 59.4809 29.9643 59.4098 30.0345C59.3388 30.1047 59.2988 30.2 59.2988 30.2993C59.2988 30.3986 59.3388 30.4939 59.4098 30.5641C59.4809 30.6344 59.5773 30.6738 59.6778 30.6738H87.3459C87.4463 30.6736 87.5424 30.634 87.6133 30.5638C87.6842 30.4936 87.724 30.3985 87.724 30.2993C87.724 30.2001 87.6842 30.105 87.6133 30.0348C87.5424 29.9646 87.4463 29.925 87.3459 29.9248H59.6778Z" fill="#221F1F"/>
<path d="M59.6766 32.1714C59.5761 32.1712 59.4797 32.2104 59.4084 32.2805C59.3372 32.3506 59.2971 32.4458 59.2969 32.5451C59.2967 32.6444 59.3364 32.7398 59.4073 32.8101C59.4782 32.8805 59.5745 32.9202 59.675 32.9204H77.1671C77.2169 32.9205 77.2663 32.9109 77.3123 32.8921C77.3584 32.8733 77.4002 32.8457 77.4355 32.8109C77.4707 32.7761 77.4987 32.7348 77.5178 32.6894C77.5369 32.6439 77.5467 32.5951 77.5467 32.5459C77.5467 32.4967 77.5369 32.4479 77.5178 32.4024C77.4987 32.357 77.4707 32.3156 77.4355 32.2809C77.4002 32.2461 77.3584 32.2185 77.3123 32.1997C77.2663 32.1809 77.2169 32.1713 77.1671 32.1714H59.6766Z" fill="#221F1F"/>
<path d="M90.8763 35.8455H49V27H90.8763V35.8455ZM49.6393 35.2137H90.237V27.6318H49.6393V35.2137Z" fill="#757575"/>
<path d="M90.8763 46.9022H49V38.0566H90.8763V46.9022Z" fill="white"/>
<path d="M54.4241 44.727C55.6799 44.727 56.6979 43.7209 56.6979 42.4799C56.6979 41.2389 55.6799 40.2329 54.4241 40.2329C53.1684 40.2329 52.1504 41.2389 52.1504 42.4799C52.1504 43.7209 53.1684 44.727 54.4241 44.727Z" fill="#DCDCDC"/>
<path d="M59.6778 40.9814C59.5773 40.9814 59.4809 41.0209 59.4098 41.0911C59.3388 41.1614 59.2988 41.2566 59.2988 41.3559C59.2988 41.4553 59.3388 41.5505 59.4098 41.6208C59.4809 41.691 59.5773 41.7305 59.6778 41.7305H87.3459C87.4463 41.7302 87.5424 41.6907 87.6133 41.6204C87.6842 41.5502 87.724 41.4551 87.724 41.3559C87.724 41.2568 87.6842 41.1617 87.6133 41.0914C87.5424 41.0212 87.4463 40.9817 87.3459 40.9814H59.6778Z" fill="#DCDCDC"/>
<path d="M59.6766 43.2285C59.5761 43.2283 59.4797 43.2676 59.4084 43.3376C59.3372 43.4077 59.2971 43.5029 59.2969 43.6022C59.2967 43.7016 59.3364 43.7969 59.4073 43.8673C59.4782 43.9377 59.5745 43.9773 59.675 43.9775H77.1671C77.2169 43.9776 77.2663 43.968 77.3123 43.9492C77.3584 43.9304 77.4002 43.9028 77.4355 43.8681C77.4707 43.8333 77.4987 43.792 77.5178 43.7465C77.5369 43.701 77.5467 43.6523 77.5467 43.603C77.5467 43.5538 77.5369 43.505 77.5178 43.4596C77.4987 43.4141 77.4707 43.3728 77.4355 43.338C77.4002 43.3032 77.3584 43.2756 77.3123 43.2568C77.2663 43.2381 77.2169 43.2284 77.1671 43.2285H59.6766Z" fill="#DCDCDC"/>
<path d="M90.8763 46.9022H49V38.0566H90.8763V46.9022ZM49.6393 46.2704H90.237V38.6885H49.6393V46.2704Z" fill="#DCDCDC"/>
<path d="M90.8763 57.9593H49V49.1138H90.8763V57.9593Z" fill="white"/>
<path d="M54.4241 55.7836C55.6799 55.7836 56.6979 54.7776 56.6979 53.5366C56.6979 52.2956 55.6799 51.2896 54.4241 51.2896C53.1684 51.2896 52.1504 52.2956 52.1504 53.5366C52.1504 54.7776 53.1684 55.7836 54.4241 55.7836Z" fill="#DCDCDC"/>
<path d="M59.6778 52.0391C59.5773 52.0391 59.4809 52.0785 59.4098 52.1487C59.3388 52.219 59.2988 52.3142 59.2988 52.4136C59.2988 52.5129 59.3388 52.6081 59.4098 52.6784C59.4809 52.7486 59.5773 52.7881 59.6778 52.7881H87.3459C87.4463 52.7878 87.5424 52.7483 87.6133 52.6781C87.6842 52.6079 87.724 52.5127 87.724 52.4136C87.724 52.3144 87.6842 52.2193 87.6133 52.1491C87.5424 52.0789 87.4463 52.0393 87.3459 52.0391H59.6778Z" fill="#DCDCDC"/>
<path d="M59.6766 54.2852C59.5761 54.2849 59.4797 54.3242 59.4084 54.3943C59.3372 54.4644 59.2971 54.5595 59.2969 54.6589C59.2967 54.7582 59.3364 54.8535 59.4073 54.9239C59.4782 54.9943 59.5745 55.034 59.675 55.0342H77.1671C77.2169 55.0342 77.2663 55.0246 77.3123 55.0058C77.3584 54.9871 77.4002 54.9595 77.4355 54.9247C77.4707 54.8899 77.4987 54.8486 77.5178 54.8031C77.5369 54.7576 77.5467 54.7089 77.5467 54.6597C77.5467 54.6104 77.5369 54.5617 77.5178 54.5162C77.4987 54.4707 77.4707 54.4294 77.4355 54.3946C77.4002 54.3598 77.3584 54.3323 77.3123 54.3135C77.2663 54.2947 77.2169 54.2851 77.1671 54.2852H59.6766Z" fill="#DCDCDC"/>
<path d="M90.8763 57.9593H49V49.1138H90.8763V57.9593ZM49.6393 57.3275H90.237V49.7456H49.6393V57.3275Z" fill="#DCDCDC"/>
<path d="M33.3921 64.0578C33.2967 63.9366 33.2292 63.7961 33.1946 63.6464C33.16 63.4966 33.1591 63.3411 33.1919 63.191C33.2246 63.0408 33.2903 62.8995 33.3843 62.7772C33.4783 62.6548 33.5983 62.5543 33.7358 62.4827L33.5138 60.0913L34.9513 59.6035L35.2169 62.9849C35.3233 63.2213 35.3383 63.4879 35.259 63.7344C35.1797 63.9809 35.0117 64.1901 34.7867 64.3224C34.5618 64.4546 34.2956 64.5007 34.0386 64.452C33.7815 64.4032 33.5515 64.263 33.3921 64.0578Z" fill="#FFD2BB"/>
<path d="M34.9364 50.3333C34.9364 50.3333 35.9229 48.2872 36.7995 49.0069C37.6761 49.7267 35.5977 55.7764 35.5977 55.7764L35.2816 61.6493L33.6156 61.4847L33.1445 55.7629L34.9364 50.3333Z" fill="#014898"/>
<path d="M21.7031 80.6033L22.9398 81.5926L27.3897 77.3493L25.5645 75.8892L21.7031 80.6033Z" fill="#FFD2BB"/>
<path d="M21.7133 79.9517L24.1488 81.9L24.1489 81.9001C24.5605 82.2295 24.8229 82.7069 24.8783 83.2274C24.9338 83.7479 24.7777 84.2688 24.4445 84.6757L24.4037 84.7255L20.416 81.5354L21.7133 79.9517Z" fill="#221F1F"/>
<path d="M38.889 83.3494H40.4801L41.237 77.2842L38.8887 77.2843L38.889 83.3494Z" fill="#FFD2BB"/>
<path d="M38.4844 82.8361L41.6179 82.8359H41.618C42.1476 82.836 42.6555 83.0439 43.03 83.414C43.4045 83.7841 43.6149 84.286 43.6149 84.8094V84.8735L38.4845 84.8737L38.4844 82.8361Z" fill="#221F1F"/>
<path d="M41.6804 54.9155C41.6804 54.9155 44.6654 58.5068 44.0165 62.0981C43.3676 65.6893 42.8484 68.3828 42.8484 68.3828L41.8102 76.4631C41.8102 76.4631 42.1995 78.6637 41.6804 79.2308C41.6804 79.2308 42.4591 80.5674 41.0315 81.0805C39.6038 81.5935 38.8335 80.9032 38.8335 80.9032C38.8335 80.9032 37.7869 79.4131 38.4358 79.0283L38.7091 63.1708L28.3126 76.5914C28.3126 76.5914 28.1215 78.2239 26.7895 78.2413L25.1978 79.4131L23.3809 78.387L24.2893 77.2327C24.2893 77.2327 23.7702 75.9501 24.9383 75.6936L31.687 66.9719L33.3742 62.4828C33.3742 62.4828 34.2827 59.0198 36.7486 57.609V56.1077L41.6804 54.9155Z" fill="#221F1F"/>
<path d="M36.5539 48.6953C36.9469 48.2363 37.4969 47.9362 38.0993 47.8522C38.7017 47.7681 39.3143 47.906 39.8205 48.2395L39.9283 48.3105C41.0803 49.5998 41.8545 51.1752 42.1677 52.8671L42.6537 55.493L36.5539 56.7989L35.1239 51.925C34.9424 51.3063 34.9861 50.6444 35.2473 50.0543C35.5086 49.4642 35.9709 48.9833 36.5539 48.6953Z" fill="#014898"/>
<path d="M46.5769 64.6161C46.4078 64.5614 46.2529 64.4708 46.123 64.3506C45.9932 64.2304 45.8916 64.0835 45.8254 63.9203C45.7592 63.7571 45.73 63.5816 45.7399 63.406C45.7498 63.2305 45.7986 63.0592 45.8827 62.9042L44.123 60.776L45.1709 59.4038L47.6132 62.4438C47.8672 62.6007 48.0541 62.8442 48.1385 63.1283C48.223 63.4123 48.1991 63.717 48.0713 63.9848C47.9436 64.2525 47.7209 64.4647 47.4455 64.581C47.1701 64.6974 46.861 64.7098 46.5769 64.6161Z" fill="#FFD2BB"/>
<path d="M39.1524 50.6188C39.1524 50.6188 38.7631 48.0536 40.0609 48.1819C41.3587 48.3102 43.3055 55.3644 43.3055 55.3644L46.8097 61.1361L45.1225 62.0339L40.9694 56.9036L39.1524 50.6188Z" fill="#014898"/>
<path d="M41.5269 46.8685H35.3467C35.2196 46.8684 35.0977 46.8184 35.0078 46.7296C34.9179 46.6407 34.8673 46.5203 34.8672 46.3947V43.7621C34.8672 42.8265 35.2433 41.9292 35.9127 41.2676C36.5821 40.606 37.4901 40.2344 38.4368 40.2344C39.3835 40.2344 40.2915 40.606 40.9609 41.2676C41.6303 41.9292 42.0064 42.8265 42.0064 43.7621V46.3947C42.0063 46.5203 41.9557 46.6407 41.8658 46.7296C41.7759 46.8184 41.654 46.8684 41.5269 46.8685Z" fill="#221F1F"/>
<path d="M39.1698 46.8075C40.6152 46.8075 41.787 45.6496 41.787 44.2211C41.787 42.7927 40.6152 41.6348 39.1698 41.6348C37.7245 41.6348 36.5527 42.7927 36.5527 44.2211C36.5527 45.6496 37.7245 46.8075 39.1698 46.8075Z" fill="#FFD2BB"/>
<path d="M42.8531 44.0258H39.5595L39.5257 43.4896L39.3569 44.0258H38.8497L38.7828 42.9631L38.4481 44.0258H37.4668V43.9732C37.4668 42.4344 38.5708 41.1826 39.9278 41.1826H40.3921C41.7491 41.1826 42.8531 42.4344 42.8531 43.9732V44.0258Z" fill="#221F1F"/>
<path d="M39.6948 47.3604C39.6545 47.3604 39.6143 47.3573 39.5745 47.3513L35.6543 46.7545V42.7193C35.6543 42.3071 35.82 41.9118 36.1149 41.6203C36.4099 41.3288 36.8099 41.165 37.227 41.165H39.9697L39.8629 41.2725C38.3764 42.7681 39.4963 45.1933 40.2961 46.5058C40.3549 46.6001 40.3814 46.7106 40.3718 46.821C40.3622 46.9313 40.3171 47.0357 40.243 47.1188C40.1749 47.1961 40.0906 47.2577 39.9959 47.2995C39.9012 47.3412 39.7984 47.362 39.6948 47.3604Z" fill="#221F1F"/>
<path d="M96.5044 34.203C98.0602 34.203 99.3214 32.9566 99.3214 31.4191C99.3214 29.8816 98.0602 28.6353 96.5044 28.6353C94.9487 28.6353 93.6875 29.8816 93.6875 31.4191C93.6875 32.9566 94.9487 34.203 96.5044 34.203Z" fill="#FF0D1B"/>
<path d="M96.2356 32.594L95.3926 31.5227L95.8828 31.1458L96.2821 31.6531L97.6307 30.2461L98.0817 30.6684L96.2356 32.594Z" fill="white"/>
<path d="M52.7042 85.0002H12.1066C12.0783 85.0002 12.0512 84.9891 12.0312 84.9693C12.0112 84.9496 12 84.9228 12 84.8949C12 84.8669 12.0112 84.8401 12.0312 84.8204C12.0512 84.8006 12.0783 84.7896 12.1066 84.7896H52.7042C52.7325 84.7896 52.7596 84.8006 52.7795 84.8204C52.7995 84.8401 52.8108 84.8669 52.8108 84.8949C52.8108 84.9228 52.7995 84.9496 52.7795 84.9693C52.7596 84.9891 52.7325 85.0002 52.7042 85.0002Z" fill="#757575"/>
</g>
<defs>
<clipPath id="clip0_490_172366">
<rect width="88" height="59" fill="white" transform="translate(12 26)"/>
</clipPath>
</defs>
</svg>
