<svg width="40" height="40" fill="none" xmlns="http://www.w3.org/2000/svg"><circle cx="20" cy="20" r="20" fill="#1A4789"/><path d="M20.81 28h-2.563a.777.777 0 0 1-.776-.776v-5.78h-1.495a.777.777 0 0 1-.776-.776v-2.476c0-.428.348-.776.776-.776h1.495v-1.24c0-1.23.386-2.276 1.116-3.025.734-.753 1.76-1.151 2.965-1.151l1.954.003c.428 0 .775.35.775.776v2.3a.777.777 0 0 1-.776.776H22.19c-.402 0-.504.08-.526.105-.036.041-.078.157-.078.476v.98h1.82a.779.779 0 0 1 .783.776v2.477a.777.777 0 0 1-.776.776h-1.827v5.779a.777.777 0 0 1-.777.776Zm-2.401-.938h2.239v-6.037c0-.286.232-.518.518-.518h2.085v-2.153h-2.085a.519.519 0 0 1-.518-.518v-1.4c0-.366.037-.783.313-1.096.335-.379.861-.423 1.229-.423h1.153V12.94l-1.791-.003c-1.939 0-3.143 1.24-3.143 3.238v1.66a.519.519 0 0 1-.518.518h-1.753v2.152h1.753c.286 0 .518.233.518.519v6.037Z" fill="#fff"/></svg>