<svg width="40" height="40" fill="none" xmlns="http://www.w3.org/2000/svg"><circle cx="20" cy="20" r="20" fill="url(#a)"/><g clip-path="url(#b)" fill="#fff"><path d="M23.669 12H16.33A4.336 4.336 0 0 0 12 16.331v7.338A4.336 4.336 0 0 0 16.331 28h7.338A4.336 4.336 0 0 0 28 23.669v-7.338A4.336 4.336 0 0 0 23.669 12Zm3.393 11.669a3.397 3.397 0 0 1-3.393 3.393H16.33a3.397 3.397 0 0 1-3.393-3.393v-7.338a3.397 3.397 0 0 1 3.393-3.393h7.338a3.397 3.397 0 0 1 3.393 3.393v7.338Z"/><path d="M20 15.625A4.38 4.38 0 0 0 15.625 20 4.38 4.38 0 0 0 20 24.375 4.38 4.38 0 0 0 24.375 20 4.38 4.38 0 0 0 20 15.625Zm0 7.812A3.44 3.44 0 0 1 16.563 20 3.44 3.44 0 0 1 20 16.563 3.44 3.44 0 0 1 23.437 20 3.44 3.44 0 0 1 20 23.437Zm4.48-9.366c-.713 0-1.293.58-1.293 1.293s.58 1.293 1.293 1.293a1.294 1.294 0 0 0 0-2.586Zm0 1.648a.355.355 0 1 1 0-.71.355.355 0 0 1 0 .71Z"/></g><defs><linearGradient id="a" x1="8.5" y1="0" x2="35" y2="48.5" gradientUnits="userSpaceOnUse"><stop stop-color="#5456D1"/><stop offset=".193" stop-color="#A72AB2"/><stop offset=".516" stop-color="#E66D35"/><stop offset="1" stop-color="#FDD168"/></linearGradient><clipPath id="b"><path fill="#fff" transform="translate(12 12)" d="M0 0h16v16H0z"/></clipPath></defs></svg>