<svg width="40" height="40" fill="none" xmlns="http://www.w3.org/2000/svg"><circle cx="20" cy="20" r="20" fill="#259DDB"/><g clip-path="url(#a)"><path d="M29.608 11.639a1.21 1.21 0 0 0-1.193-.257L10.829 17.18a1.2 1.2 0 0 0-.828 1.09c-.023.504.26.96.722 1.163l4.35 1.902 1.311 6.086c.055.253.183.478.455.547.275.07.47-.08.675-.233l3.227-2.417 3.773 3.088a1.2 1.2 0 0 0 1.152.209 1.2 1.2 0 0 0 .788-.867l3.514-14.942a1.208 1.208 0 0 0-.36-1.166ZM17.795 22.425a.148.148 0 0 0-.007.018l-.727 2.541-.812-3.765 5.583-3.102-3.903 4.081a.587.587 0 0 0-.134.227Zm.23 3.458.331-1.155.316-1.104 1.133.927-1.78 1.332Zm10.8-13.347L25.31 27.478c-.002.007-.004.017-.021.023-.017.006-.025 0-.031-.006l-4.129-3.378-1.913-1.566 6.145-6.425a.588.588 0 0 0-.71-.92l-9.099 5.056-4.358-1.907c-.013-.005-.02-.009-.02-.03.002-.023.01-.026.023-.03l17.586-5.797c.008-.003.018-.006.032.007.014.013.012.022.01.031Z" fill="#fff"/></g><defs><clipPath id="a"><path fill="#fff" transform="translate(10 10)" d="M0 0h20v20H0z"/></clipPath></defs></svg>