<svg width="40" height="40" fill="none" xmlns="http://www.w3.org/2000/svg"><circle cx="20" cy="20" r="20" fill="#5650CC"/><g clip-path="url(#a)" fill="#fff"><path d="M29.296 21.578c.597-5.023-.287-8.194-1.88-9.628-2.57-2.45-11.256-2.812-14.333.11-1.381 1.428-1.868 3.526-1.921 6.123-.054 2.597-.117 7.463 4.417 8.783h.004l-.004 2.016s-.03.816.491.98c.597.194.867-.185 2.723-2.402 3.103.27 5.486-.348 5.757-.438.627-.21 4.173-.679 4.746-5.544Zm-10.198 4.564s-1.964 2.449-2.575 3.085c-.2.206-.419.187-.415-.223 0-.269.015-3.347.015-3.347-3.845-1.101-3.618-5.244-3.576-7.412.041-2.168.438-3.944 1.608-5.14 2.7-2.53 10.313-1.965 12.253-.142 2.372 2.103 1.528 8.043 1.533 8.245-.488 4.062-3.36 4.32-3.89 4.495-.225.075-2.32.614-4.953.439Z"/><path d="M20.185 13.58c-.32 0-.32.5 0 .505 2.49.02 4.54 1.754 4.562 4.937 0 .336.491.331.487-.005-.027-3.429-2.266-5.417-5.049-5.436Z"/><path d="M23.459 18.494c-.008.332.483.348.488.012.04-1.891-1.125-3.449-3.316-3.613-.321-.023-.355.481-.035.505 1.9.144 2.901 1.44 2.863 3.096Zm-.525 2.151c-.412-.238-.83-.09-1.004.144l-.363.47c-.184.238-.528.206-.528.206-2.512-.664-3.183-3.293-3.183-3.293s-.031-.355.199-.546l.453-.375c.227-.18.37-.614.14-1.04-.617-1.113-1.032-1.498-1.242-1.793-.222-.277-.555-.34-.902-.152h-.008c-.72.421-1.51 1.21-1.257 2.023.43.857 1.223 3.588 3.746 5.651 1.186.976 3.062 1.976 3.859 2.207l.008.011c.785.262 1.548-.558 1.955-1.3v-.006c.181-.36.121-.7-.143-.922-.468-.457-1.175-.96-1.73-1.285Z"/><path d="M20.974 16.753c.801.047 1.19.465 1.231 1.325.015.335.503.312.488-.024-.054-1.121-.639-1.746-1.692-1.805-.321-.019-.351.485-.027.504Z"/></g><defs><clipPath id="a"><path fill="#fff" transform="translate(10 10)" d="M0 0h20v20H0z"/></clipPath></defs></svg>